<svg width="258" height="41" viewBox="0 0 258 41" fill="none" xmlns="http://www.w3.org/2000/svg">
<g clip-path="url(#clip0_140_24473)">
<path d="M36.5998 16.9078L19.7982 26.4503L1.80673 16.2547L0.941406 16.7264V24.1282L19.7982 34.7954L36.5998 25.2892V29.2078L19.7982 38.7503L1.80673 28.5547L0.941406 29.0264V30.2963L19.7982 40.9636L38.6189 30.2963V22.8945L37.7536 22.4229L19.7982 32.5822L2.96049 23.076V19.1574L19.7982 28.6636L38.6189 17.9963V10.7034L37.6814 10.1591L19.7982 20.2822L3.82581 11.2839L19.7982 2.24941L32.9222 9.68746L34.0759 9.03436V8.12728L19.7982 0.0361328L0.941406 10.7034V11.8645L19.7982 22.5317L36.5998 12.9892V16.9078Z" fill="#FF3621"/>
<path d="M73.8448 34.9041V2.32178H68.8692V14.5129C68.8692 14.6943 68.7611 14.8395 68.5808 14.912C68.4005 14.9846 68.2202 14.912 68.1121 14.8032C66.4175 12.8076 63.7855 11.6828 60.9011 11.6828C54.7357 11.6828 49.9043 16.9076 49.9043 23.5837C49.9043 26.8492 51.022 29.8607 53.0771 32.074C55.1323 34.2873 57.9085 35.4846 60.9011 35.4846C63.7494 35.4846 66.3814 34.2873 68.1121 32.2191C68.2202 32.074 68.4366 32.0377 68.5808 32.074C68.7611 32.1466 68.8692 32.2917 68.8692 32.4731V34.9041H73.8448ZM61.9827 30.9492C58.0167 30.9492 54.9159 27.72 54.9159 23.5837C54.9159 19.4474 58.0167 16.2182 61.9827 16.2182C65.9488 16.2182 69.0495 19.4474 69.0495 23.5837C69.0495 27.72 65.9488 30.9492 61.9827 30.9492Z" fill="white"/>
<path d="M100.453 34.904V12.227H95.5138V14.5129C95.5138 14.6943 95.4056 14.8394 95.2253 14.912C95.045 14.9845 94.8648 14.912 94.7566 14.7668C93.0981 12.7713 90.5021 11.6465 87.5456 11.6465C81.3802 11.6465 76.5488 16.8713 76.5488 23.5474C76.5488 30.2235 81.3802 35.4483 87.5456 35.4483C90.3939 35.4483 93.026 34.2509 94.7566 32.1465C94.8648 32.0014 95.0811 31.9651 95.2253 32.0014C95.4056 32.0739 95.5138 32.2191 95.5138 32.4005V34.8677H100.453V34.904ZM88.6633 30.9491C84.6973 30.9491 81.5965 27.7199 81.5965 23.5837C81.5965 19.4474 84.6973 16.2182 88.6633 16.2182C92.6294 16.2182 95.7301 19.4474 95.7301 23.5837C95.7301 27.7199 92.6294 30.9491 88.6633 30.9491Z" fill="white"/>
<path d="M142.746 34.904V12.227H137.807V14.5129C137.807 14.6943 137.699 14.8394 137.518 14.912C137.338 14.9845 137.158 14.912 137.05 14.7668C135.391 12.7713 132.795 11.6465 129.839 11.6465C123.637 11.6465 118.842 16.8713 118.842 23.5837C118.842 30.296 123.673 35.4845 129.839 35.4845C132.687 35.4845 135.319 34.2872 137.05 32.1828C137.158 32.0376 137.374 32.0014 137.518 32.0376C137.699 32.1102 137.807 32.2553 137.807 32.4368V34.904H142.746ZM130.956 30.9491C126.99 30.9491 123.889 27.7199 123.889 23.5837C123.889 19.4474 126.99 16.2182 130.956 16.2182C134.922 16.2182 138.023 19.4474 138.023 23.5837C138.023 27.7199 134.922 30.9491 130.956 30.9491Z" fill="white"/>
<path d="M151.795 32.2191C151.831 32.2191 151.903 32.1828 151.939 32.1828C152.048 32.1828 152.192 32.2554 152.264 32.328C153.959 34.3235 156.591 35.4483 159.475 35.4483C165.64 35.4483 170.472 30.2235 170.472 23.5474C170.472 20.282 169.354 17.2705 167.299 15.0572C165.244 12.8439 162.468 11.6466 159.475 11.6466C156.627 11.6466 153.995 12.8439 152.264 14.912C152.156 15.0572 151.976 15.0935 151.795 15.0572C151.615 14.9846 151.507 14.8395 151.507 14.6581V2.32178H146.531V34.9041H151.507V32.6182C151.507 32.4368 151.615 32.2917 151.795 32.2191ZM151.291 23.5837C151.291 19.4474 154.391 16.2182 158.357 16.2182C162.323 16.2182 165.424 19.4474 165.424 23.5837C165.424 27.72 162.323 30.9492 158.357 30.9492C154.391 30.9492 151.291 27.6837 151.291 23.5837Z" fill="white"/>
<path d="M184.858 16.8713C185.326 16.8713 185.759 16.9076 186.048 16.9801V11.8279C185.867 11.7917 185.543 11.7554 185.218 11.7554C182.622 11.7554 180.243 13.0978 178.981 15.2386C178.873 15.42 178.692 15.4925 178.512 15.42C178.332 15.3837 178.188 15.2023 178.188 15.0209V12.2271H173.248V34.9403H178.224V24.9262C178.224 19.9554 180.747 16.8713 184.858 16.8713Z" fill="white"/>
<path d="M194.233 12.2271H189.186V34.9403H194.233V12.2271Z" fill="white"/>
<path d="M191.637 2.35791C189.942 2.35791 188.572 3.73667 188.572 5.44198C188.572 7.14729 189.942 8.52605 191.637 8.52605C193.332 8.52605 194.702 7.14729 194.702 5.44198C194.702 3.73667 193.332 2.35791 191.637 2.35791Z" fill="white"/>
<path d="M209.014 11.6465C202.092 11.6465 197.08 16.6536 197.08 23.5837C197.08 26.958 198.27 29.9695 200.397 32.1465C202.56 34.3235 205.589 35.5208 208.978 35.5208C211.791 35.5208 213.954 34.9766 218.064 31.9288L215.216 28.9173C213.197 30.2598 211.322 30.9129 209.483 30.9129C205.301 30.9129 202.164 27.7562 202.164 23.5837C202.164 19.4111 205.301 16.2544 209.483 16.2544C211.466 16.2544 213.305 16.9075 215.144 18.25L218.316 15.2385C214.603 12.0456 211.25 11.6465 209.014 11.6465Z" fill="white"/>
<path d="M226.827 24.9261C226.899 24.8535 227.007 24.8172 227.115 24.8172H227.151C227.259 24.8172 227.368 24.8898 227.476 24.9623L235.444 34.9039H241.573L231.262 22.3499C231.117 22.1685 231.117 21.9145 231.298 21.7694L240.78 12.2269H234.687L226.502 20.4995C226.394 20.6084 226.214 20.6446 226.034 20.6084C225.889 20.5358 225.781 20.3907 225.781 20.2092V2.35791H220.77V34.9402H225.745V26.0871C225.745 25.9783 225.781 25.8331 225.889 25.7606L226.827 24.9261Z" fill="white"/>
<path d="M249.686 35.4847C253.76 35.4847 257.906 32.9812 257.906 28.2281C257.906 25.1077 255.959 22.967 251.993 21.6608L249.289 20.7537C247.45 20.1369 246.585 19.2661 246.585 18.0688C246.585 16.69 247.811 15.7466 249.541 15.7466C251.2 15.7466 252.678 16.8351 253.615 18.7219L257.618 16.5449C256.139 13.4971 253.075 11.6104 249.541 11.6104C245.07 11.6104 241.826 14.513 241.826 18.4679C241.826 21.6245 243.7 23.7289 247.558 24.9626L250.335 25.8696C252.281 26.4865 253.111 27.2847 253.111 28.5546C253.111 30.4776 251.344 31.167 249.83 31.167C247.811 31.167 246.008 29.8608 245.143 27.7201L241.068 29.8971C242.402 33.344 245.683 35.4847 249.686 35.4847Z" fill="white"/>
<path d="M114.299 35.2671C115.886 35.2671 117.292 35.122 118.085 35.0131V30.6591C117.436 30.7317 116.282 30.8043 115.597 30.8043C113.578 30.8043 112.028 30.4414 112.028 26.0512V16.7264C112.028 16.4724 112.208 16.291 112.46 16.291H117.328V12.191H112.46C112.208 12.191 112.028 12.0096 112.028 11.7556V5.22461H107.052V11.7919C107.052 12.0458 106.872 12.2273 106.619 12.2273H103.158V16.3273H106.619C106.872 16.3273 107.052 16.5087 107.052 16.7627V27.3211C107.052 35.2671 112.316 35.2671 114.299 35.2671Z" fill="white"/>
</g>
<defs>
<clipPath id="clip0_140_24473">
<rect width="257" height="41" fill="white" transform="translate(0.941406)"/>
</clipPath>
</defs>
</svg>
