<svg width="153" height="25" viewBox="0 0 153 25" fill="none" xmlns="http://www.w3.org/2000/svg">
<path d="M43.5414 20.7002V1.65558H40.8054V8.75002C40.8063 8.8246 40.7842 8.89764 40.7423 8.95918C40.7004 9.02071 40.6406 9.06776 40.5712 9.09391C40.5313 9.10912 40.489 9.1167 40.4463 9.11626C40.3942 9.11627 40.3427 9.10506 40.2952 9.08341C40.2477 9.06177 40.2054 9.03018 40.171 8.99075C39.1929 7.837 37.6659 7.175 35.9833 7.175C32.3923 7.175 29.5879 10.2202 29.5879 14.1078C29.5879 16.0147 30.2445 17.772 31.4364 19.0581C32.0163 19.6873 32.7199 20.1885 33.5027 20.5298C34.2854 20.8711 35.1301 21.045 35.9833 21.0406C36.776 21.0517 37.5616 20.8881 38.2848 20.5614C39.0079 20.2346 39.6512 19.7526 40.1693 19.1492C40.2035 19.1089 40.2459 19.0764 40.2937 19.0542C40.3416 19.0319 40.3936 19.0203 40.4463 19.0203C40.4878 19.0209 40.5288 19.0284 40.5677 19.0426C40.6377 19.0684 40.6981 19.1153 40.7406 19.1768C40.7831 19.2384 40.8058 19.3116 40.8054 19.3865V20.7122L43.5414 20.7002ZM36.6519 18.5612C34.2425 18.5612 32.3564 16.6027 32.3564 14.1027C32.3564 11.6026 34.2374 9.64412 36.6519 9.64412C39.0664 9.64412 40.9474 11.6026 40.9474 14.1027C40.9474 16.6027 39.0578 18.5612 36.6519 18.5612ZM59.2956 20.7002V7.50514H56.587V8.74314C56.5875 8.81813 56.565 8.89147 56.5224 8.95305C56.4799 9.01463 56.4194 9.06144 56.3492 9.08702C56.3105 9.10205 56.2694 9.10963 56.2278 9.10938C56.175 9.10934 56.1228 9.09762 56.0749 9.07504C56.027 9.05246 55.9847 9.01956 55.9508 8.9787C54.9813 7.81463 53.4953 7.17328 51.7648 7.17328C48.1738 7.17328 45.3694 10.2184 45.3694 14.1061C45.3694 17.9938 48.1789 21.0389 51.7648 21.0389C52.5594 21.0501 53.3467 20.8843 54.0702 20.5534C54.7936 20.2225 55.4353 19.7348 55.9491 19.1252C55.9831 19.0839 56.0256 19.0506 56.0738 19.0277C56.122 19.0048 56.1746 18.9929 56.2278 18.9928C56.2698 18.9933 56.3114 19.0009 56.351 19.0151C56.4207 19.041 56.4809 19.0879 56.5231 19.1495C56.5654 19.211 56.5877 19.2842 56.587 19.359V20.7071L59.2956 20.7002ZM52.43 18.5612C50.0206 18.5612 48.1344 16.6027 48.1344 14.1027C48.1344 11.6026 50.0155 9.64412 52.43 9.64412C54.8445 9.64412 56.7254 11.6026 56.7254 14.1027C56.7254 16.6027 54.8359 18.5612 52.4265 18.5612H52.43ZM84.2905 20.7002V7.50514H81.5819V8.74314C81.5825 8.81813 81.56 8.89147 81.5174 8.95305C81.4748 9.01463 81.4143 9.06144 81.3442 9.08702C81.3055 9.10205 81.2643 9.10963 81.2228 9.10938C81.1699 9.10934 81.1177 9.09762 81.0698 9.07504C81.0219 9.05246 80.9796 9.01956 80.9458 8.9787C79.9762 7.81463 78.4902 7.17328 76.7597 7.17328C73.1687 7.17328 70.3643 10.2184 70.3643 14.1061C70.3643 17.9938 73.1739 21.0389 76.7597 21.0389C77.5544 21.0501 78.3417 20.8843 79.0651 20.5534C79.7886 20.2225 80.4302 19.7348 80.9441 19.1252C80.9778 19.0837 81.0204 19.0503 81.0686 19.0274C81.1168 19.0045 81.1694 18.9926 81.2228 18.9928C81.2642 18.9933 81.3053 19.0009 81.3442 19.0151C81.4143 19.0407 81.4748 19.0875 81.5174 19.1491C81.56 19.2107 81.5825 19.284 81.5819 19.359V20.7071L84.2905 20.7002ZM77.4249 18.5612C75.0155 18.5612 73.1294 16.6027 73.1294 14.1027C73.1294 11.6026 75.0104 9.64412 77.4249 9.64412C79.8394 9.64412 81.7204 11.6026 81.7204 14.1027C81.7204 16.6027 79.8308 18.5612 77.4215 18.5612H77.4249ZM98.8545 9.15236C98.2746 8.52313 97.571 8.02198 96.7882 7.6807C96.0055 7.33941 95.1608 7.16544 94.3076 7.16984C93.5149 7.15875 92.7293 7.32233 92.0061 7.64909C91.283 7.97584 90.6397 8.45784 90.1216 9.06123C90.0873 9.10151 90.0449 9.13389 89.9971 9.15614C89.9493 9.1784 89.8973 9.19001 89.8446 9.19019C89.8026 9.1896 89.761 9.18207 89.7215 9.16785C89.6514 9.14242 89.591 9.09558 89.5487 9.03392C89.5064 8.97226 89.4842 8.89887 89.4855 8.82397V1.64869H86.7495V20.6933H89.4855V19.4484C89.4855 19.3525 89.5232 19.2605 89.5905 19.1925C89.6578 19.1245 89.7492 19.0861 89.8446 19.0856C89.8966 19.0855 89.9481 19.0968 89.9954 19.1188C90.0426 19.1408 90.0845 19.1729 90.1181 19.2129C91.098 20.3666 92.6233 21.0286 94.3076 21.0286C97.8986 21.0286 100.703 17.9834 100.703 14.0958C100.7 12.1958 100.043 10.4471 98.8511 9.15236H98.8545ZM93.6425 18.5612C91.2331 18.5612 89.3469 16.6027 89.3469 14.1027C89.3469 11.6026 91.228 9.64412 93.6425 9.64412C96.057 9.64412 97.9379 11.6026 97.9379 14.1027C97.9379 16.6027 96.0484 18.5612 93.639 18.5612H93.6425ZM109.299 10.0344C109.502 10.0333 109.704 10.0476 109.904 10.0774V7.25753C109.777 7.23725 109.649 7.22691 109.52 7.22659C108.8 7.22078 108.092 7.402 107.463 7.75267C106.833 8.10334 106.305 8.61156 105.929 9.22803C105.896 9.28124 105.85 9.32504 105.796 9.35516C105.741 9.38529 105.68 9.40073 105.618 9.39998C105.586 9.40022 105.555 9.39615 105.525 9.38793C105.45 9.36744 105.383 9.32282 105.335 9.2608C105.287 9.19877 105.26 9.12269 105.258 9.04404V7.50514H102.55V20.7002H105.286V14.9177C105.276 11.9018 106.816 10.0344 109.296 10.0344H109.299ZM111.967 7.50514V20.7002H114.73V7.50514H111.967ZM113.314 1.66933C112.978 1.66933 112.649 1.76958 112.37 1.95738C112.09 2.14519 111.873 2.41212 111.744 2.72442C111.615 3.03672 111.582 3.38037 111.647 3.7119C111.713 4.04344 111.875 4.34799 112.112 4.58701C112.35 4.82604 112.653 4.98881 112.983 5.05476C113.312 5.12071 113.654 5.08686 113.965 4.9575C114.275 4.82814 114.541 4.60907 114.727 4.32801C114.914 4.04694 115.014 3.7165 115.014 3.37847C115.009 2.92692 114.828 2.49543 114.509 2.17725C114.19 1.85906 113.76 1.67971 113.311 1.67793L113.314 1.66933ZM118.56 19.0787C119.81 20.3391 121.584 21.0355 123.554 21.0355C125.164 21.0355 126.421 20.7174 128.766 19.0048L127.235 17.3799C126.052 18.1571 124.946 18.5337 123.858 18.5337C121.329 18.5337 119.422 16.6285 119.422 14.1027C119.422 11.5768 121.329 9.67164 123.858 9.67164C125.031 9.67164 126.12 10.0482 127.186 10.8237L128.906 9.18677C126.792 7.38135 124.858 7.16984 123.581 7.16984C119.554 7.16984 116.632 10.0929 116.632 14.1027C116.638 16.0577 117.322 17.8253 118.56 19.0787ZM134.038 14.8145C134.105 14.7539 134.192 14.7202 134.282 14.7199H134.299C134.35 14.7231 134.399 14.7367 134.444 14.7597C134.489 14.7828 134.529 14.8149 134.561 14.8541L139.248 20.7002H142.6L136.64 13.451C136.582 13.3819 136.553 13.2935 136.557 13.2033C136.561 13.1132 136.599 13.0279 136.662 12.9644L142.092 7.50514H138.796L133.995 12.3557C133.962 12.3898 133.922 12.4168 133.878 12.4351C133.834 12.4535 133.787 12.4627 133.74 12.4623C133.693 12.4627 133.646 12.4533 133.603 12.4348C133.536 12.4072 133.478 12.3595 133.438 12.298C133.398 12.2366 133.377 12.1643 133.379 12.0909V1.64697H130.643V20.6916H133.379V15.5745C133.379 15.5244 133.39 15.4749 133.41 15.4291C133.43 15.3832 133.459 15.342 133.496 15.308L134.038 14.8145ZM147.637 21.0355C150.004 21.0355 152.398 19.5997 152.398 16.8589C152.398 15.0776 151.281 13.8465 148.978 13.0916L147.37 12.562C146.242 12.1838 145.693 11.6318 145.693 10.8718C145.693 10.0018 146.457 9.39309 147.55 9.39309C148.542 9.39309 149.431 10.0207 150.004 11.1125L152.186 9.933C151.331 8.21355 149.556 7.16297 147.55 7.16297C144.968 7.16297 143.094 8.82568 143.094 11.1177C143.094 12.9231 144.174 14.1474 146.399 14.8575L148.036 15.3871C149.246 15.7722 149.746 16.2623 149.746 17.0773C149.746 18.293 148.641 18.7228 147.694 18.7228C146.497 18.7228 145.418 17.9594 144.867 16.7231L142.664 17.8768C143.465 19.8301 145.361 21.0355 147.644 21.0355H147.637ZM67.5668 20.8979C68.2805 20.8995 68.9935 20.8523 69.7009 20.7569V18.4064C69.2973 18.4529 68.7125 18.489 68.3329 18.489C67.1188 18.489 66.1099 18.2706 66.1099 15.5814V10.0688C66.1103 9.97292 66.1486 9.88107 66.2162 9.8134C66.2838 9.74574 66.3753 9.70774 66.4707 9.70774H69.2375V7.50342H66.4741C66.3787 7.50342 66.2872 7.46543 66.2196 7.39776C66.152 7.33009 66.1138 7.23826 66.1133 7.14234V3.35956H63.3961V7.14234C63.3961 7.23811 63.3583 7.32994 63.291 7.39766C63.2236 7.46537 63.1323 7.50342 63.037 7.50342H61.0876V9.70774H63.0353C63.1306 9.70774 63.2219 9.74579 63.2892 9.81351C63.3566 9.88122 63.3944 9.97308 63.3944 10.0688V16.3156C63.3961 20.8979 66.4314 20.8979 67.5737 20.8979H67.5668Z" fill="#F9F7F4"/>
<path d="M22.7664 18.0281V13.7673L22.368 13.5438L11.7045 19.5739L1.6207 13.8722V11.3068L11.7045 17.0033L22.7664 10.7445V6.54736L22.3116 6.29288L11.7045 12.2937L2.03794 6.82419L11.7045 1.35463L19.4884 5.75985L20.0749 5.42628V5.02565L11.7045 0.286865L0.642578 6.54736V7.10102L11.7045 13.3598L21.7883 7.65468V10.2304L11.7045 15.9321L1.04101 9.902L0.642578 10.1238V14.3846L11.7045 20.6434L21.7883 14.9382V17.5123L11.7045 23.2174L1.04443 17.1856L0.642578 17.4108V18.0281L11.7045 24.2869L22.7664 18.0281Z" fill="#F9F7F4"/>
</svg>
