<svg width="360" height="241" viewBox="0 0 360 241" fill="none" xmlns="http://www.w3.org/2000/svg">
<path d="M240 120.5L360 240.5H240V120.5Z" fill="#FABFBA"/>
<path d="M120 0.5L-1.28748e-05 120.5L-7.62939e-06 0.499995L120 0.5Z" fill="#FABFBA"/>
<path d="M0 120.5L120 0.499994L120 120.5L0 120.5Z" fill="#FF3621"/>
<path d="M7.62939e-06 240.5C9.3995e-06 224.741 3.10392 209.137 9.13448 194.578C15.165 180.019 24.0042 166.79 35.1472 155.647C46.2902 144.504 59.5189 135.665 74.078 129.634C88.6371 123.604 104.241 120.5 120 120.5L120 240.5L7.62939e-06 240.5Z" fill="#FF9E94"/>
<path d="M60 240.5C60 232.621 61.552 224.819 64.5672 217.539C67.5825 210.259 72.0021 203.645 77.5736 198.074C83.1451 192.502 89.7595 188.083 97.039 185.067C104.319 182.052 112.121 180.5 120 180.5L120 240.5L60 240.5Z" fill="#FF5F46"/>
<path d="M330 150.5L270 150.5L299.87 180.63L330 210.5L330 150.5Z" fill="#FF3621"/>
<rect width="60" height="60" transform="matrix(-1 0 0 1 180 180.5)" fill="#BD2B26"/>
<path d="M180 120.5L240 120.5L210.13 90.37L180 60.5L180 120.5Z" fill="#FF3621"/>
<path d="M180 120.5L180 60.5L149.87 90.37L120 120.5L180 120.5Z" fill="#FF3621"/>
<path d="M270 210.5L330 210.5L300.13 180.37L270 150.5L270 210.5Z" fill="#801C17"/>
</svg>
