<svg width="185" height="59" viewBox="0 0 185 59" fill="none" xmlns="http://www.w3.org/2000/svg">
<path d="M134.344 5.62773V0.322242C134.344 0.148908 134.203 0.00830078 134.03 0.00830078H130.02C129.846 0.00830078 129.706 0.148908 129.706 0.322242V5.62773C129.706 5.80106 129.565 5.94167 129.392 5.94167H124.003C123.83 5.94167 123.689 6.08228 123.689 6.25561V10.3987C123.689 10.572 123.83 10.7126 124.003 10.7126H129.392C129.565 10.7126 129.706 10.8532 129.706 11.0266V16.332C129.706 16.5054 129.846 16.646 130.02 16.646H134.03C134.203 16.646 134.344 16.5054 134.344 16.332V11.0266C134.344 10.8532 134.485 10.7126 134.658 10.7126H140.014C140.187 10.7126 140.328 10.572 140.328 10.3987V6.25561C140.328 6.08228 140.187 5.94167 140.014 5.94167H134.658C134.485 5.94167 134.344 5.80106 134.344 5.62773Z" fill="white"/>
<path d="M145.447 27.3866L143.086 33.3406C143.028 33.4788 142.897 33.5721 142.753 33.5721H134.756C134.496 33.5721 134.322 33.3043 134.424 33.0655L148.619 0.225272C148.677 0.094362 148.808 0.00830078 148.952 0.00830078H157.268C157.412 0.00830078 157.543 0.0955743 157.601 0.232545L171.464 33.0655C171.564 33.3043 171.391 33.5649 171.13 33.5649H162.793C162.642 33.5649 162.511 33.4703 162.453 33.3334L160.135 27.3794H145.44L145.447 27.3866ZM152.849 8.49684L147.954 20.9115H157.658L152.849 8.49684Z" fill="white"/>
<path d="M174.799 33.2024V0.369507C174.799 0.167081 174.959 0.00708008 175.161 0.00708008H182.991C183.194 0.00708008 183.353 0.165869 183.353 0.369507V33.2024C183.353 33.4049 183.194 33.5649 182.991 33.5649H175.161C174.959 33.5649 174.799 33.4061 174.799 33.2024Z" fill="white"/>
<path d="M15.8615 33.616H2.05574C1.85334 33.616 1.69336 33.456 1.69336 33.2535V0.369699C1.69336 0.167274 1.85213 0 2.05574 0H16.2009C20.0756 0 23.3419 0.760005 25.9998 2.25941C28.7813 3.8679 30.838 5.96004 32.1494 8.51036C33.4608 11.0667 34.1189 13.8268 34.1189 16.7819C34.1189 20.3965 33.3153 23.4595 31.6925 25.9662C29.9618 28.5881 27.7087 30.5153 24.9344 31.7529C22.1529 32.9917 19.1327 33.6148 15.8664 33.6148H15.8591L15.8615 33.616ZM16.4408 26.5177C17.8819 26.5177 19.266 26.1844 20.598 25.5105C21.9311 24.8365 23.0316 23.7577 23.9152 22.2729C24.7333 20.8462 25.1393 19.0571 25.1393 16.8765C25.1393 14.6958 24.7054 12.8207 23.8424 11.3867C22.8935 9.88006 21.7275 8.80127 20.3374 8.14187C18.9472 7.48247 17.505 7.14913 16.013 7.14913H10.4863V26.5165H16.4396L16.4408 26.5177Z" fill="white"/>
<path d="M71.0948 33.6158H62.5188C62.3661 33.6158 62.2364 33.5212 62.1782 33.3843L59.9615 27.6691H45.4031L43.1367 33.3915C43.0785 33.5297 42.9488 33.6231 42.8034 33.6231H34.5752C34.3146 33.6231 34.1413 33.3552 34.2419 33.1164L48.3894 0.225272C48.4476 0.094362 48.5773 0.00830078 48.7227 0.00830078H57.2769C57.4224 0.00830078 57.552 0.0955739 57.6102 0.232544L71.4293 33.1164C71.5311 33.3552 71.3566 33.6158 71.096 33.6158H71.0948ZM57.3703 20.9551L52.7635 8.96836L48.0561 20.9551H57.3703Z" fill="white"/>
<path d="M85.8268 33.6158H77.7586C77.5562 33.6158 77.3962 33.4558 77.3962 33.2534V7.24349H67.7706C67.5682 7.24349 67.4082 7.0847 67.4082 6.88106V0.369507C67.4082 0.167081 67.5682 0.00708008 67.7706 0.00708008H95.9226C96.125 0.00708008 96.285 0.165869 96.285 0.369507V6.88106C96.285 7.08349 96.1263 7.24349 95.9226 7.24349H86.1952V33.2534C86.1952 33.4558 86.0292 33.6158 85.8256 33.6158H85.8268Z" fill="white"/>
<path d="M129.081 33.6158H120.505C120.352 33.6158 120.222 33.5212 120.164 33.3843L117.948 27.6691H103.396L101.129 33.3915C101.071 33.5297 100.941 33.6231 100.795 33.6231H92.56C92.2994 33.6231 92.1249 33.3552 92.2267 33.1164L106.374 0.225272C106.432 0.094362 106.562 0.00830078 106.708 0.00830078H115.262C115.407 0.00830078 115.537 0.0955739 115.595 0.232544L129.414 33.1164C129.516 33.3552 129.341 33.6158 129.081 33.6158ZM115.356 20.9551L110.75 8.96836L106.042 20.9551H115.356Z" fill="white"/>
<path d="M5.00713 58.3001L0.308594 40.8733H3.14263L6.59817 55.2921L10.5758 40.8733H13.4844L17.3377 55.2921L20.7932 40.8733H23.6272L18.8541 58.2752H15.7715L11.9679 44.6271L8.04005 58.2752L5.00713 58.3001Z" fill="white"/>
<path d="M35.0692 58.5736C33.3456 58.5736 31.8374 58.1924 30.5447 57.43C29.252 56.6676 28.241 55.6152 27.5118 54.2728C26.7826 52.9138 26.418 51.3476 26.418 49.5743C26.418 47.8009 26.7826 46.243 27.5118 44.9006C28.241 43.5416 29.252 42.4809 30.5447 41.7185C31.8374 40.9561 33.3456 40.575 35.0692 40.575C36.7929 40.575 38.301 40.9561 39.5938 41.7185C40.8865 42.4809 41.8892 43.5416 42.6018 44.9006C43.331 46.243 43.6956 47.8009 43.6956 49.5743C43.6956 51.3476 43.331 52.9138 42.6018 54.2728C41.8892 55.6152 40.8865 56.6676 39.5938 57.43C38.301 58.1924 36.7929 58.5736 35.0692 58.5736ZM35.0692 56.2119C36.2625 56.2119 37.2984 55.9467 38.1767 55.4164C39.0717 54.886 39.7678 54.1236 40.265 53.1292C40.7622 52.1348 41.0108 50.9498 41.0108 49.5743C41.0108 48.1987 40.7622 47.0137 40.265 46.0193C39.7678 45.0249 39.0717 44.2625 38.1767 43.7322C37.2984 43.2018 36.2625 42.9366 35.0692 42.9366C33.876 42.9366 32.8318 43.2018 31.9369 43.7322C31.0419 44.2625 30.3458 45.0249 29.8486 46.0193C29.368 47.0137 29.1277 48.1987 29.1277 49.5743C29.1277 50.9498 29.368 52.1348 29.8486 53.1292C30.3458 54.1236 31.0419 54.886 31.9369 55.4164C32.8318 55.9467 33.876 56.2119 35.0692 56.2119Z" fill="white"/>
<path d="M49.6145 58.2752V40.8733H55.6057C56.9813 40.8733 58.1083 41.1053 58.9867 41.5693C59.8816 42.0334 60.5446 42.6632 60.9755 43.4587C61.4064 44.2377 61.6218 45.1078 61.6218 46.069C61.6218 47.1463 61.3318 48.1241 60.7517 49.0025C60.1882 49.8809 59.3016 50.5107 58.0917 50.8918L61.7958 58.2752H58.7381L55.3571 51.2647H52.2496V58.2752H49.6145ZM52.2496 49.2759H55.4566C56.6498 49.2759 57.5199 48.9859 58.0668 48.4058C58.6303 47.8258 58.9121 47.0717 58.9121 46.1436C58.9121 45.2155 58.6386 44.478 58.0917 43.931C57.5448 43.3676 56.6581 43.0858 55.4317 43.0858H52.2496V49.2759Z" fill="white"/>
<path d="M67.7224 58.2752V40.8733H70.3576V56.187H78.263V58.2752H67.7224Z" fill="white"/>
<path d="M84.0824 58.2752V40.8733H89.7256C91.7641 40.8733 93.4381 41.2296 94.7473 41.9422C96.0732 42.6549 97.051 43.6659 97.6808 44.9752C98.3272 46.2679 98.6504 47.8092 98.6504 49.5991C98.6504 51.3725 98.3272 52.9138 97.6808 54.2231C97.051 55.5158 96.0732 56.5185 94.7473 57.2311C93.4381 57.9272 91.7641 58.2752 89.7256 58.2752H84.0824ZM86.7176 56.0379H89.6262C91.2007 56.0379 92.4437 55.781 93.3552 55.2672C94.2833 54.7534 94.9462 54.0159 95.344 53.0547C95.7583 52.0934 95.9655 50.9416 95.9655 49.5991C95.9655 48.2567 95.7583 47.0965 95.344 46.1187C94.9462 45.1409 94.2833 44.3951 93.3552 43.8813C92.4437 43.351 91.2007 43.0858 89.6262 43.0858H86.7176V56.0379Z" fill="white"/>
<path d="M117.869 58.2752V43.0112H112.723V40.8733H125.625V43.0112H120.504V58.2752H117.869Z" fill="white"/>
<path d="M138.327 58.5736C136.604 58.5736 135.096 58.1924 133.803 57.43C132.51 56.6676 131.499 55.6152 130.77 54.2728C130.041 52.9138 129.676 51.3476 129.676 49.5743C129.676 47.8009 130.041 46.243 130.77 44.9006C131.499 43.5416 132.51 42.4809 133.803 41.7185C135.096 40.9561 136.604 40.575 138.327 40.575C140.051 40.575 141.559 40.9561 142.852 41.7185C144.145 42.4809 145.147 43.5416 145.86 44.9006C146.589 46.243 146.954 47.8009 146.954 49.5743C146.954 51.3476 146.589 52.9138 145.86 54.2728C145.147 55.6152 144.145 56.6676 142.852 57.43C141.559 58.1924 140.051 58.5736 138.327 58.5736ZM138.327 56.2119C139.521 56.2119 140.557 55.9467 141.435 55.4164C142.33 54.886 143.026 54.1236 143.523 53.1292C144.02 52.1348 144.269 50.9498 144.269 49.5743C144.269 48.1987 144.02 47.0137 143.523 46.0193C143.026 45.0249 142.33 44.2625 141.435 43.7322C140.557 43.2018 139.521 42.9366 138.327 42.9366C137.134 42.9366 136.09 43.2018 135.195 43.7322C134.3 44.2625 133.604 45.0249 133.107 46.0193C132.626 47.0137 132.386 48.1987 132.386 49.5743C132.386 50.9498 132.626 52.1348 133.107 53.1292C133.604 54.1236 134.3 54.886 135.195 55.4164C136.09 55.9467 137.134 56.2119 138.327 56.2119Z" fill="white"/>
<path d="M159.386 58.5736C158.143 58.5736 157.016 58.3333 156.005 57.8526C155.011 57.3554 154.215 56.6013 153.618 55.5904C153.038 54.5794 152.748 53.295 152.748 51.7371V40.8733H155.384V51.7619C155.384 53.2867 155.748 54.4054 156.477 55.118C157.207 55.8307 158.193 56.187 159.436 56.187C160.662 56.187 161.64 55.8307 162.369 55.118C163.098 54.4054 163.463 53.2867 163.463 51.7619V40.8733H166.098V51.7371C166.098 53.295 165.792 54.5794 165.178 55.5904C164.582 56.6013 163.77 57.3554 162.742 57.8526C161.731 58.3333 160.612 58.5736 159.386 58.5736Z" fill="white"/>
<path d="M172.462 58.2752V40.8733H178.453C179.828 40.8733 180.955 41.1053 181.834 41.5693C182.729 42.0334 183.392 42.6632 183.823 43.4587C184.253 44.2377 184.469 45.1078 184.469 46.069C184.469 47.1463 184.179 48.1241 183.599 49.0025C183.035 49.8809 182.149 50.5107 180.939 50.8918L184.643 58.2752H181.585L178.204 51.2647H175.097V58.2752H172.462ZM175.097 49.2759H178.304C179.497 49.2759 180.367 48.9859 180.914 48.4058C181.477 47.8258 181.759 47.0717 181.759 46.1436C181.759 45.2155 181.486 44.478 180.939 43.931C180.392 43.3676 179.505 43.0858 178.279 43.0858H175.097V49.2759Z" fill="white"/>
</svg>
