<?xml version="1.0" encoding="UTF-8"?> <svg xmlns="http://www.w3.org/2000/svg" width="609" height="407" viewBox="0 0 609 407" fill="none"><rect x="507.624" y="203.129" width="101.377" height="102.306" fill="#FF3621"></rect><ellipse cx="558.312" cy="254.282" rx="50.6883" ry="51.153" fill="#FABFBA"></ellipse><path d="M507.623 305.435V203.871L406.247 305.435H507.623Z" fill="#EEEDE9"></path><path d="M406.247 203.129L609 203.129L406.247 -8.87906e-06L406.247 203.129Z" fill="#FFDB96"></path><path d="M203.117 203.513L406.234 203.513V0.0261993L203.117 0.0261993L203.117 203.513Z" fill="#1B3139"></path><path d="M-3.05176e-05 407H203.117L203.117 203.513L-3.05176e-05 203.513L-3.05176e-05 407Z" fill="#FF3621"></path><path d="M-3.05176e-05 203.513L203.117 203.513L203.117 0.0261993L-3.05176e-05 0.0261993L-3.05176e-05 203.513Z" fill="#618794"></path><path d="M203.117 407H406.234V203.513L203.117 203.513L203.117 407Z" fill="#618794"></path><path d="M406.247 203.487H203.129V0C315.202 0 406.247 91.2101 406.247 203.487Z" fill="#618794"></path><path d="M203.13 0V203.487H0.0126953C0.0126953 91.2101 90.818 0 203.13 0Z" fill="#1B3139"></path><path d="M203.129 203.487V406.974C91.0565 406.974 0.012207 315.764 0.012207 203.487H203.129Z" fill="#FF5F46"></path><path d="M406.247 203.487C406.247 315.764 315.202 406.974 203.129 406.974V203.487H406.247Z" fill="#1B3139"></path><path d="M324.284 69.9038V115.389H278.88" stroke="#EEEDE9" stroke-width="2" stroke-miterlimit="10"></path><path d="M55.2139 203.487C55.2139 196.066 55.6918 188.884 56.8866 181.702C67.4009 110.362 128.814 55.54 203.131 55.54C223.443 55.54 243.038 59.6098 260.721 67.2705C278.404 74.6918 294.414 85.704 307.796 99.1102L324.523 115.868" stroke="#EEEDE9" stroke-width="2" stroke-miterlimit="10"></path><path d="M81.9761 337.07V291.585H127.38" stroke="#EEEDE9" stroke-width="2" stroke-miterlimit="10"></path><path d="M203.129 301.4C257.107 301.4 300.865 257.563 300.865 203.487C300.865 149.411 257.107 105.574 203.129 105.574C149.152 105.574 105.394 149.411 105.394 203.487C105.394 257.563 149.152 301.4 203.129 301.4Z" fill="#EEEDE9"></path><path d="M203.129 256.872C232.56 256.872 256.418 232.971 256.418 203.487C256.418 174.003 232.56 150.102 203.129 150.102C173.699 150.102 149.841 174.003 149.841 203.487C149.841 232.971 173.699 256.872 203.129 256.872Z" stroke="#618794" stroke-width="2" stroke-miterlimit="10"></path><path d="M351.046 203.487C351.046 210.908 350.568 218.09 349.374 225.272C338.859 296.612 277.446 351.434 203.129 351.434C182.817 351.434 163.223 347.364 145.54 339.704C127.856 332.282 111.846 321.27 98.4641 307.864L81.7368 291.106" stroke="#EEEDE9" stroke-width="2" stroke-miterlimit="10"></path><path d="M55.2139 225.272C67.2239 225.272 76.9601 215.519 76.9601 203.487C76.9601 191.455 67.2239 181.702 55.2139 181.702C43.2038 181.702 33.4678 191.455 33.4678 203.487C33.4678 215.519 43.2038 225.272 55.2139 225.272Z" fill="#EEEDE9"></path><path d="M350.808 225.272C362.818 225.272 372.554 215.519 372.554 203.487C372.554 191.455 362.818 181.702 350.808 181.702C338.798 181.702 329.062 191.455 329.062 203.487C329.062 215.519 338.798 225.272 350.808 225.272Z" fill="#EEEDE9"></path><path d="M507.622 305.435H406.247V406.982H507.622V305.435Z" fill="#1B3139"></path><path d="M456.939 305.461L406.255 356.23L456.939 406.999L507.623 356.23L456.939 305.461Z" fill="#618794"></path><path d="M482.277 330.822H431.59V381.594H482.277V330.822Z" fill="#EEEDE9"></path><path d="M456.939 330.804L431.597 356.188L456.939 381.572L482.28 356.188L456.939 330.804Z" fill="#FF5F46"></path><path d="M469.636 343.545H444.292V368.931H469.636V343.545Z" fill="#EEEDE9"></path><path d="M456.981 343.517L444.289 356.23L456.981 368.943L469.673 356.23L456.981 343.517Z" fill="#1B3139"></path><path d="M463.314 349.876H450.613V362.599H463.314V349.876Z" fill="#FF3621"></path></svg> 