<svg width="36" height="41" viewBox="0 0 36 41" fill="none" xmlns="http://www.w3.org/2000/svg">
<g id="Databricks Icon">
<path id="Databricks/icon" d="M33.8186 17.3015L17.92 26.5398L0.895473 16.6692L0.0766602 17.1259V24.2917L17.92 34.6188L33.8186 25.4157V29.2094L17.92 38.4476L0.895473 28.5771L0.0766602 29.0337V30.2632L17.92 40.5903L35.7291 30.2632V23.0974L34.9103 22.6407L17.92 32.4761L1.98722 23.273V19.4794L17.92 28.6825L35.7291 18.3553V11.2949L34.8421 10.768L17.92 20.5683L2.80604 11.8569L17.92 3.11045L30.3386 10.3114L31.4304 9.67909V8.80093L17.92 0.967743L0.0766602 11.2949V12.419L17.92 22.7461L33.8186 13.5079V17.3015Z" fill="white"/>
</g>
</svg>
