<svg width="16" height="16" viewBox="0 0 16 16" fill="none" xmlns="http://www.w3.org/2000/svg">
<path fill-rule="evenodd" clip-rule="evenodd" d="M11.1304 7.65217C11.1304 9.57316 9.57315 11.1304 7.65216 11.1304C5.73117 11.1304 4.1739 9.57316 4.1739 7.65217C4.1739 5.73118 5.73117 4.17391 7.65216 4.17391C9.57315 4.17391 11.1304 5.73118 11.1304 7.65217ZM10.5685 11.5523C9.75552 12.1611 8.74596 12.5217 7.65216 12.5217C4.96277 12.5217 2.78259 10.3416 2.78259 7.65217C2.78259 4.96279 4.96277 2.78261 7.65216 2.78261C10.3415 2.78261 12.5217 4.96279 12.5217 7.65217C12.5217 8.74597 12.1611 9.75554 11.5523 10.5685L14.0571 13.0733C14.3288 13.345 14.3288 13.7854 14.0571 14.0571C13.7854 14.3288 13.345 14.3288 13.0733 14.0571L10.5685 11.5523Z" fill="#90A5B1"/>
</svg>
