<svg xmlns:xlink="http://www.w3.org/1999/xlink" xmlns="http://www.w3.org/2000/svg" width="163" height="94" viewBox="0 0 163 94" fill="none"><path d="M12.4048 90.5717H14.863V78.0718H12.4048V90.5717ZM18.2514 81.6H15.9764V90.5717H18.3285V85.484C18.3285 84.2608 19.0901 83.4226 20.1264 83.4226C20.3389 83.4116 20.5512 83.4473 20.7489 83.5271C20.9465 83.6069 21.1247 83.7291 21.2712 83.8851C21.4177 84.0411 21.5291 84.2273 21.5977 84.431C21.6664 84.6346 21.6906 84.8509 21.6688 85.0649V90.5717H24.0209V84.7238C24.0209 82.7745 22.7918 81.3661 20.9602 81.3661C20.4312 81.3429 19.9061 81.4669 19.442 81.7247C18.9779 81.9825 18.5928 82.3642 18.3285 82.8281H18.2755L18.2514 81.6ZM28.7927 90.8349C31.0099 90.8349 32.533 89.7481 32.533 87.9499C32.533 85.8495 30.8894 85.4304 29.4 85.1185C28.1372 84.8554 26.9611 84.7823 26.9611 84.0172C26.9611 83.369 27.5684 83.0181 28.4842 83.0181C29.4867 83.0181 30.0941 83.369 30.1953 84.3291H32.3209C32.1474 82.5308 30.8749 81.3564 28.5179 81.3564C26.4935 81.3564 24.903 82.2823 24.903 84.2267C24.903 86.1711 26.4598 86.6195 28.0504 86.9363C29.2602 87.1799 30.3881 87.2676 30.3881 88.1253C30.3881 88.754 29.8 89.1536 28.7589 89.1536C27.7178 89.1536 26.9804 88.7004 26.8309 87.6672H24.6523C24.7921 89.5727 26.2285 90.8349 28.8023 90.8349H28.7927ZM33.3716 90.5717H35.7382V81.6H33.362L33.3716 90.5717ZM33.3716 80.2014H35.7382V78.0718H33.362L33.3716 80.2014ZM40.8378 93.6321C42.1536 93.6321 43.296 93.3154 44.0382 92.6185C44.3991 92.268 44.6804 91.8424 44.8626 91.3712C45.0449 90.9001 45.1238 90.3945 45.0938 89.8895V81.6049H42.8284V82.5503H42.7947C42.5149 82.1612 42.1437 81.8487 41.7145 81.6411C41.2853 81.4335 40.8117 81.3373 40.3365 81.3612C38.0904 81.3612 36.4805 83.0766 36.4805 85.7472C36.4805 88.4177 38.4085 90.0308 40.3895 90.0308C40.8293 90.0472 41.2669 89.9608 41.6682 89.7782C42.0695 89.5956 42.4236 89.3218 42.7031 88.9781H42.7561V89.9528C42.7561 91.1809 42.1151 91.8241 40.7848 91.8241C39.6954 91.8241 39.1942 91.3904 39.0062 90.8495H36.7022C36.9432 92.599 38.4326 93.6467 40.8522 93.6467L40.8378 93.6321ZM40.8185 88.1399C39.6087 88.1399 38.8134 87.2481 38.8134 85.7033C38.8134 84.1585 39.6087 83.2667 40.804 83.2667C42.2211 83.2667 42.9104 84.3875 42.9104 85.7033C42.9104 87.0191 42.3079 88.1399 40.8185 88.1399ZM48.4389 78.0864H46.0867V90.5863H48.4389V85.484C48.4389 84.2608 49.2004 83.4226 50.2367 83.4226C50.4492 83.4116 50.6616 83.4473 50.8592 83.5271C51.0568 83.6069 51.235 83.7291 51.3815 83.8851C51.528 84.0411 51.6395 84.2273 51.7081 84.431C51.7767 84.6346 51.8009 84.8509 51.7791 85.0649V90.5717H54.1312V84.7238C54.1312 82.7745 52.9022 81.3661 51.0657 81.3661C50.5495 81.3418 50.0365 81.4611 49.5826 81.7112C49.1288 81.9612 48.7515 82.3324 48.4919 82.7842H48.4389V78.0864ZM54.3433 83.1887H55.5676V88.4518C55.5676 90.1477 56.8304 90.6058 57.9776 90.6058C58.9127 90.6058 59.4236 90.5668 59.4236 90.5668V88.8222C59.4236 88.8222 59.0235 88.8222 58.7295 88.8222C58.6095 88.8403 58.487 88.8297 58.3719 88.7913C58.2567 88.7529 58.152 88.6877 58.0662 88.601C57.9805 88.5143 57.916 88.4084 57.878 88.292C57.84 88.1755 57.8295 88.0517 57.8474 87.9304V83.1741H59.3561V81.6H57.833V78.8028H55.5339V81.6H54.3096L54.3433 83.1887ZM63.8387 90.8495C66.051 90.8495 67.5741 89.7627 67.5741 87.9645C67.5741 85.8641 65.9305 85.445 64.4412 85.1331C63.1831 84.87 62.0071 84.7969 62.0071 84.0318C62.0071 83.3836 62.6096 83.0328 63.5254 83.0328C64.5279 83.0328 65.1352 83.3836 65.2365 84.3437H67.3669C67.1934 82.5454 65.9209 81.371 63.5591 81.371C61.5395 81.371 59.9489 82.2969 59.9489 84.2413C59.9489 86.1858 61.501 86.6341 63.0964 86.9509C64.3062 87.1945 65.4293 87.2823 65.4293 88.1399C65.4293 88.7686 64.8412 89.1682 63.8049 89.1682C62.7686 89.1682 62.0215 88.715 61.8769 87.6819H59.6983C59.8333 89.5873 61.2696 90.8495 63.8483 90.8495" fill="black"/><path d="M37.8398 0.415283H42.0042V22.6179H37.8398V0.415283ZM5.81592 25.3469V29.1383H12.4193V47.5495H16.6223V29.1383H23.2064V25.3469H5.81592ZM43.1273 0.415283V4.20181H50.2367V22.6179H54.4205V4.20181H61.5299V0.415283H43.1273ZM22.1074 37.8614H29.1108C28.9855 35.8439 27.6648 34.4501 25.7368 34.4501C23.5245 34.4501 22.4496 35.7854 22.0833 37.8614H22.1074ZM17.9044 39.5671C17.9044 34.8498 21.0663 31.1851 25.6742 31.1851C30.7448 31.1851 33.444 35.0837 33.444 40.7805H22.0447C22.3532 43.2171 23.7028 44.7571 26.0694 44.7571C27.6938 44.7571 28.6481 44.0115 29.1108 42.8078H33.2223C32.639 45.6343 30.1519 48.0271 26.0983 48.0271C20.8783 48.0271 17.9044 44.3282 17.9044 39.5768V39.5671ZM34.2248 39.6109C34.2248 44.3624 37.3289 48.0271 42.3031 48.0271C46.5109 48.0271 49.1233 45.3224 49.3981 41.9404H45.3782C45.1035 43.7386 43.9081 44.6401 42.2163 44.6401C39.6665 44.6401 38.4712 42.6226 38.4712 39.6109C38.4712 36.5993 39.7581 34.5817 42.279 34.5817C42.9693 34.572 43.6404 34.8123 44.1708 35.2592C44.7012 35.706 45.056 36.33 45.171 37.0184H49.2535C48.704 33.573 46.1831 31.1704 42.1006 31.1704C37.3096 31.1704 34.2344 34.8351 34.2344 39.5866L34.2248 39.6109ZM54.4012 25.3323H50.2223V47.5349H54.4012V38.5144C54.4012 36.341 55.7508 34.8498 57.592 34.8498C59.3465 34.8498 60.3298 36.0583 60.3298 37.7737V47.5543H64.5038V37.1451C64.5038 33.6704 62.3252 31.1851 59.0669 31.1851C56.9172 31.1851 55.6303 32.0233 54.4928 33.6997H54.4012V25.3323ZM69.8588 31.6042H65.7763V47.5349H69.96V38.5144C69.96 36.341 71.3145 34.8498 73.1557 34.8498C74.9053 34.8498 75.8886 36.0583 75.8886 37.7737V47.5543H80.082V37.1451C80.082 33.6704 77.8985 31.1851 74.6451 31.1851C73.7048 31.144 72.7716 31.3656 71.9477 31.8255C71.1238 32.2854 70.4411 32.9659 69.9745 33.7923H69.8829L69.8588 31.6042ZM93.067 39.6158C93.067 36.5115 91.621 34.3965 89.076 34.3965C86.5311 34.3965 85.0803 36.5115 85.0803 39.6158C85.0803 42.7201 86.4925 44.801 89.076 44.801C91.6595 44.801 93.067 42.7201 93.067 39.6158ZM80.8435 39.6158C80.8435 34.8644 84.1886 31.1997 89.076 31.1997C93.9635 31.1997 97.3037 34.8644 97.3037 39.6158C97.3037 44.3672 93.9587 48.0319 89.076 48.0319C84.1934 48.0319 80.8435 44.3672 80.8435 39.6158ZM98.1665 47.5641H102.341V25.3469H98.1665V47.5641ZM115.427 39.6158C115.427 36.5115 113.981 34.3965 111.436 34.3965C108.891 34.3965 107.44 36.5115 107.44 39.6158C107.44 42.7201 108.852 44.801 111.436 44.801C114.019 44.801 115.427 42.7201 115.427 39.6158ZM103.218 39.6158C103.218 34.8644 106.563 31.1997 111.45 31.1997C116.338 31.1997 119.678 34.8644 119.678 39.6158C119.678 44.3672 116.333 48.0319 111.45 48.0319C106.568 48.0319 103.218 44.3526 103.218 39.6158ZM131.656 38.8994C131.656 36.57 130.427 34.5866 127.911 34.5866C125.79 34.5866 124.377 36.263 124.377 38.9335C124.377 41.6041 125.79 43.2171 127.939 43.2171C130.581 43.2171 131.656 41.2678 131.656 38.8994ZM120.618 48.0173H124.763C125.1 48.992 125.992 49.7863 127.925 49.7863C130.292 49.7863 131.429 48.6362 131.429 46.4627V44.723H131.338C130.839 45.3319 130.208 45.8165 129.494 46.1393C128.78 46.4621 128.003 46.6145 127.221 46.5846C123.717 46.5846 120.281 43.7922 120.281 38.9774C120.281 34.1626 123.105 31.1802 127.096 31.1802C127.935 31.1418 128.771 31.3145 129.528 31.6828C130.285 32.051 130.94 32.6034 131.434 33.2903H131.497V31.6139H135.516V46.3409C135.516 48.5729 134.813 50.0982 133.646 51.1849C132.326 52.4276 130.296 52.9832 127.964 52.9832C123.664 52.9832 121.023 51.1216 120.594 48.0173H120.618ZM137.705 52.7736H140.163C143.354 52.7736 144.525 51.4968 145.72 47.9588L151.22 31.6236H147.012L144.8 38.7971C144.318 40.2591 143.879 42.2766 143.879 42.2766H143.816C143.816 42.2766 143.296 40.2591 142.804 38.7971L140.467 31.6236H136.076L140.317 42.9589C141.204 45.3955 141.512 46.4043 141.512 47.2766C141.512 48.5777 140.838 49.45 139.18 49.45H137.705V52.7736ZM16.7717 60.2492H22.1219C24.4547 60.2492 25.6501 59.1625 25.6501 57.2034C25.6501 55.2444 24.3969 54.1917 22.1845 54.1917H16.7717V60.2492ZM21.1386 63.9139H16.7717V72.4811H12.4337V50.2785H22.305C25.1006 50.2785 26.7587 51.0241 28.0456 52.3594C28.6761 52.9845 29.1752 53.7318 29.5131 54.5567C29.851 55.3815 30.0208 56.2668 30.0122 57.1595C30.0122 60.2638 28.4312 62.3886 25.6742 63.3194L31.1545 72.4665H26.2381L21.1386 63.9139ZM33.9356 62.793H40.939C40.8185 60.7755 39.493 59.3818 37.594 59.3818C35.3816 59.3818 34.3067 60.7122 33.9356 62.793ZM29.7615 64.5036C29.7615 59.7814 32.9234 56.1167 37.5313 56.1167C42.5971 56.1167 45.3011 60.0153 45.3011 65.7121H33.8778C34.1814 68.1488 35.5358 69.6887 37.8976 69.6887C39.5268 69.6887 40.4811 68.9431 40.939 67.7394H45.0553C44.4721 70.561 41.985 72.9538 37.9314 72.9538C32.7065 72.9538 29.7374 69.2599 29.7374 64.5084L29.7615 64.5036ZM49.8752 72.486H53.8662L59.7128 56.5553H55.5387L51.9334 67.3642H51.8707L48.2943 56.5553H44.0575L49.8752 72.486ZM60.3201 72.486H64.4942V56.5504H60.3201V72.486ZM60.3201 55.4637H64.4942V51.6771H60.3201V55.4637ZM69.5937 62.7979H76.5971C76.4718 60.7804 75.1512 59.3866 73.2473 59.3866C71.0349 59.3866 69.96 60.717 69.5937 62.7979ZM65.4148 64.5084C65.4148 59.7862 68.5815 56.1215 73.1846 56.1215C78.2552 56.1215 80.9544 60.0202 80.9544 65.717H69.5311C69.8395 68.1536 71.1891 69.6936 73.5557 69.6936C75.1849 69.6936 76.1344 68.948 76.5971 67.7443H80.7134C80.1254 70.5659 77.6383 72.9587 73.5847 72.9587C68.3646 72.9587 65.4148 69.2647 65.4148 64.5133V64.5084ZM84.5067 72.4908H88.2856L91.1775 62.0523H91.2402L94.0358 72.4908H97.8436L102.538 56.5601H98.4894L95.7854 66.7355H95.7228L92.9272 56.5601H89.3845L86.7432 66.7355H86.6805L84.0681 56.5601H79.9229L84.5067 72.4908ZM29.8772 0.415283L24.6524 16.7115L19.2347 0.415283H12.4145V22.6179H16.4584V5.01564L22.387 22.6179H26.6526L32.2872 5.01564V22.6179H36.4324V0.415283H29.8772Z" fill="black"/></svg>
