<svg width="297" height="171" viewBox="0 0 297 171" fill="none" xmlns="http://www.w3.org/2000/svg">
<path d="M22.6025 164.763H27.0816V142.024H22.6025V164.763ZM33.2556 148.443H29.1103V164.763H33.3961V155.508C33.3961 153.283 34.7837 151.758 36.6719 151.758C37.0592 151.738 37.4461 151.803 37.8062 151.948C38.1662 152.093 38.4909 152.316 38.7579 152.599C39.0249 152.883 39.2278 153.222 39.3529 153.592C39.4779 153.963 39.5221 154.356 39.4823 154.746V164.763H43.7681V154.125C43.7681 150.579 41.5286 148.017 38.1913 148.017C37.2274 147.975 36.2705 148.2 35.4249 148.669C34.5794 149.138 33.8776 149.833 33.3961 150.677H33.2995L33.2556 148.443ZM52.4627 165.242C56.5026 165.242 59.2778 163.265 59.2778 159.994C59.2778 156.173 56.283 155.411 53.5693 154.843C51.2683 154.364 49.1254 154.232 49.1254 152.84C49.1254 151.661 50.232 151.022 51.9006 151.022C53.7273 151.022 54.8339 151.661 55.0184 153.407H58.8914C58.5752 150.136 56.2567 147.999 51.9621 147.999C48.2735 147.999 45.3753 149.684 45.3753 153.221C45.3753 156.758 48.212 157.574 51.1102 158.15C53.3146 158.593 55.3697 158.753 55.3697 160.313C55.3697 161.457 54.2982 162.184 52.4012 162.184C50.5042 162.184 49.1605 161.359 48.8882 159.48H44.9186C45.1733 162.946 47.7904 165.242 52.4802 165.242H52.4627ZM60.806 164.763H65.1181V148.443H60.7884L60.806 164.763ZM60.806 145.898H65.1181V142.024H60.7884L60.806 145.898ZM74.4099 170.331C76.8075 170.331 78.8889 169.754 80.2414 168.487C80.8989 167.849 81.4115 167.075 81.7435 166.218C82.0756 165.361 82.2193 164.441 82.1647 163.522V148.451H78.037V150.171H77.9755C77.4658 149.463 76.7894 148.895 76.0073 148.517C75.2253 148.14 74.3624 147.965 73.4965 148.008C69.4039 148.008 66.4706 151.129 66.4706 155.987C66.4706 160.845 69.9836 163.779 73.5931 163.779C74.3944 163.809 75.1917 163.652 75.9229 163.32C76.6541 162.988 77.2995 162.49 77.8087 161.864H77.9053V163.637C77.9053 165.872 76.7372 167.042 74.3133 167.042C72.3285 167.042 71.4151 166.253 71.0726 165.269H66.8746C67.3137 168.451 70.0275 170.357 74.4362 170.357L74.4099 170.331ZM74.3748 160.34C72.1704 160.34 70.7213 158.717 70.7213 155.907C70.7213 153.097 72.1704 151.474 74.3484 151.474C76.9304 151.474 78.1863 153.513 78.1863 155.907C78.1863 158.301 77.0885 160.34 74.3748 160.34ZM88.2597 142.051H83.9739V164.79H88.2597V155.508C88.2597 153.283 89.6473 151.758 91.5356 151.758C91.9228 151.738 92.3097 151.803 92.6698 151.948C93.0298 152.093 93.3545 152.316 93.6215 152.599C93.8885 152.883 94.0915 153.222 94.2165 153.592C94.3416 153.963 94.3857 154.356 94.3459 154.746V164.763H98.6317V154.125C98.6317 150.579 96.3922 148.017 93.0461 148.017C92.1054 147.973 91.1707 148.19 90.3438 148.645C89.5168 149.1 88.8294 149.775 88.3563 150.597H88.2597V142.051ZM99.0182 151.333H101.249V160.907C101.249 163.992 103.55 164.825 105.64 164.825C107.344 164.825 108.275 164.755 108.275 164.755V161.581C108.275 161.581 107.546 161.581 107.01 161.581C106.792 161.614 106.568 161.594 106.358 161.525C106.149 161.455 105.958 161.336 105.802 161.178C105.645 161.021 105.528 160.828 105.459 160.616C105.389 160.404 105.37 160.179 105.403 159.958V151.306H108.152V148.443H105.377V143.354H101.187V148.443H98.9567L99.0182 151.333ZM116.319 165.269C120.351 165.269 123.126 163.292 123.126 160.021C123.126 156.2 120.131 155.437 117.417 154.87C115.125 154.391 112.982 154.258 112.982 152.866C112.982 151.687 114.08 151.049 115.749 151.049C117.575 151.049 118.682 151.687 118.866 153.434H122.748C122.432 150.162 120.113 148.026 115.81 148.026C112.13 148.026 109.232 149.71 109.232 153.247C109.232 156.785 112.06 157.6 114.967 158.177C117.171 158.62 119.218 158.779 119.218 160.34C119.218 161.483 118.146 162.21 116.258 162.21C114.37 162.21 113.009 161.386 112.745 159.506H108.775C109.021 162.973 111.638 165.269 116.337 165.269" fill="white"/>
<path d="M68.9474 0.755554H76.5354V41.1454H68.9474V0.755554ZM10.5972 46.1099V53.007H22.629V86.4997H30.2873V53.007H42.284V46.1099H10.5972ZM78.5817 0.755554V7.64381H91.5357V41.1454H99.1588V7.64381H112.113V0.755554H78.5817ZM40.2817 68.8757H53.0425C52.8141 65.2055 50.4078 62.67 46.8948 62.67C42.8637 62.67 40.9052 65.0991 40.2377 68.8757H40.2817ZM32.6234 71.9785C32.6234 63.397 38.3847 56.7304 46.7806 56.7304C56.0197 56.7304 60.9379 63.8225 60.9379 74.1859H40.1675C40.7296 78.6185 43.1886 81.4199 47.5008 81.4199C50.4605 81.4199 52.1994 80.0635 53.0425 77.8738H60.5339C59.4712 83.0157 54.9395 87.3685 47.5535 87.3685C38.0422 87.3685 32.6234 80.6398 32.6234 71.9962V71.9785ZM62.3606 72.0583C62.3606 80.7018 68.0165 87.3685 77.0799 87.3685C84.7469 87.3685 89.507 82.4483 90.0076 76.2958H82.6831C82.1825 79.5671 80.0044 81.2071 76.9218 81.2071C72.2759 81.2071 70.0979 77.537 70.0979 72.0583C70.0979 66.5796 72.4428 62.9094 77.036 62.9094C78.2939 62.8917 79.5166 63.3288 80.483 64.1417C81.4494 64.9547 82.0959 66.0899 82.3054 67.342H89.7441C88.7429 61.0743 84.1497 56.7038 76.711 56.7038C67.9813 56.7038 62.3782 63.3704 62.3782 72.014L62.3606 72.0583ZM99.1237 46.0833H91.5094V86.4731H99.1237V70.0636C99.1237 66.1097 101.583 63.397 104.938 63.397C108.134 63.397 109.926 65.5956 109.926 68.7161V86.5085H117.532V67.5725C117.532 61.2516 113.562 56.7304 107.625 56.7304C103.708 56.7304 101.363 58.2552 99.2906 61.3048H99.1237V46.0833ZM127.289 57.4928H119.85V86.4731H127.473V70.0636C127.473 66.1097 129.941 63.397 133.296 63.397C136.484 63.397 138.276 65.5956 138.276 68.7161V86.5085H145.916V67.5725C145.916 61.2516 141.938 56.7304 136.01 56.7304C134.297 56.6557 132.596 57.0588 131.095 57.8955C129.594 58.7321 128.35 59.97 127.5 61.4732H127.333L127.289 57.4928ZM169.576 72.0671C169.576 66.42 166.941 62.5725 162.304 62.5725C157.667 62.5725 155.024 66.42 155.024 72.0671C155.024 77.7143 157.597 81.4997 162.304 81.4997C167.012 81.4997 169.576 77.7143 169.576 72.0671ZM147.304 72.0671C147.304 63.4236 153.399 56.757 162.304 56.757C171.21 56.757 177.296 63.4236 177.296 72.0671C177.296 80.7107 171.201 87.3773 162.304 87.3773C153.408 87.3773 147.304 80.7107 147.304 72.0671ZM178.868 86.5263H186.473V46.1099H178.868V86.5263ZM210.318 72.0671C210.318 66.42 207.683 62.5725 203.046 62.5725C198.409 62.5725 195.765 66.42 195.765 72.0671C195.765 77.7143 198.338 81.4997 203.046 81.4997C207.753 81.4997 210.318 77.7143 210.318 72.0671ZM188.072 72.0671C188.072 63.4236 194.167 56.757 203.072 56.757C211.977 56.757 218.064 63.4236 218.064 72.0671C218.064 80.7107 211.969 87.3773 203.072 87.3773C194.176 87.3773 188.072 80.6841 188.072 72.0671ZM239.888 70.764C239.888 66.5264 237.648 62.9183 233.064 62.9183C229.2 62.9183 226.627 65.9679 226.627 70.826C226.627 75.6841 229.2 78.6185 233.117 78.6185C237.929 78.6185 239.888 75.0724 239.888 70.764ZM219.776 87.3507H227.329C227.944 89.1238 229.569 90.5688 233.09 90.5688C237.403 90.5688 239.475 88.4766 239.475 84.5227V81.3579H239.308C238.399 82.4655 237.25 83.3471 235.95 83.9343C234.649 84.5216 233.232 84.7988 231.808 84.7444C225.423 84.7444 219.161 79.6646 219.161 70.9058C219.161 62.147 224.308 56.7215 231.58 56.7215C233.109 56.6517 234.631 56.9659 236.011 57.6358C237.39 58.3057 238.584 59.3105 239.484 60.5601H239.598V57.5105H246.923V84.3011C246.923 88.3614 245.64 91.1362 243.515 93.1131C241.109 95.3737 237.411 96.3843 233.161 96.3843C225.327 96.3843 220.514 92.9979 219.732 87.3507H219.776ZM250.91 96.0032H255.389C261.203 96.0032 263.337 93.6805 265.515 87.2443L275.536 57.5282H267.869L263.837 70.5778C262.959 73.2373 262.16 76.9075 262.16 76.9075H262.046C262.046 76.9075 261.097 73.2373 260.202 70.5778L255.942 57.5282H247.941L255.67 78.1487C257.286 82.5813 257.848 84.4164 257.848 86.0032C257.848 88.3702 256.618 89.9571 253.597 89.9571H250.91V96.0032ZM30.5596 109.602H40.308C44.5587 109.602 46.7367 107.625 46.7367 104.062C46.7367 100.498 44.4533 98.5829 40.4222 98.5829H30.5596V109.602ZM38.5164 116.269H30.5596V131.854H22.6554V91.4642H40.6417C45.7355 91.4642 48.7567 92.8205 51.1016 95.2496C52.2503 96.3868 53.1598 97.7463 53.7755 99.2468C54.3912 100.747 54.7005 102.358 54.6848 103.982C54.6848 109.629 51.8042 113.494 46.7806 115.187L56.7662 131.827H47.8082L38.5164 116.269ZM61.8337 114.23H74.5945C74.3749 110.56 71.9598 108.024 68.4995 108.024C64.4684 108.024 62.5099 110.445 61.8337 114.23ZM54.2281 117.342C54.2281 108.751 59.9894 102.085 68.3853 102.085C77.6156 102.085 82.5425 109.177 82.5425 119.54H61.7283C62.2816 123.973 64.7494 126.774 69.0528 126.774C72.0212 126.774 73.7602 125.418 74.5945 123.228H82.0946C81.032 128.361 76.5003 132.714 69.1143 132.714C59.5942 132.714 54.1842 125.994 54.1842 117.351L54.2281 117.342ZM90.877 131.863H98.1489L108.802 102.883H101.196L94.6271 122.546H94.5129L87.9964 102.883H80.2767L90.877 131.863ZM109.908 131.863H117.514V102.874H109.908V131.863ZM109.908 100.897H117.514V94.0085H109.908V100.897ZM126.806 114.239H139.567C139.338 110.569 136.932 108.033 133.463 108.033C129.432 108.033 127.473 110.453 126.806 114.239ZM119.191 117.351C119.191 108.76 124.962 102.094 133.349 102.094C142.588 102.094 147.506 109.186 147.506 119.549H126.692C127.254 123.982 129.713 126.783 134.025 126.783C136.993 126.783 138.724 125.427 139.567 123.237H147.067C145.995 128.37 141.464 132.723 134.078 132.723C124.566 132.723 119.191 126.003 119.191 117.359V117.351ZM153.979 131.872H160.864L166.133 112.882H166.248L171.341 131.872H178.279L186.833 102.891H179.456L174.529 121.402H174.415L169.321 102.891H162.866L158.054 121.402H157.939L153.179 102.891H145.626L153.979 131.872ZM54.4389 0.755554L44.9188 30.4007L35.0474 0.755554H22.6203V41.1454H29.9887V9.12429L40.791 41.1454H48.5635L58.8301 9.12429V41.1454H66.3829V0.755554H54.4389Z" fill="white"/>
</svg>
