<?xml version="1.0" encoding="UTF-8"?> <svg xmlns="http://www.w3.org/2000/svg" width="66" height="66" viewBox="0 0 66 66" fill="none"><circle cx="33" cy="33" r="33" fill="#FF5F46"></circle><path fill-rule="evenodd" clip-rule="evenodd" d="M23.5548 23.256C22.2764 23.256 21.2401 24.2923 21.2401 25.5707C21.2401 26.849 22.2764 27.8853 23.5548 27.8853C24.8331 27.8853 25.8694 26.849 25.8694 25.5707C25.8694 24.2923 24.8331 23.256 23.5548 23.256ZM20.1201 25.5707C20.1201 23.6737 21.6579 22.136 23.5548 22.136C25.4517 22.136 26.9894 23.6737 26.9894 25.5707C26.9894 27.4676 25.4517 29.0053 23.5548 29.0053C21.6579 29.0053 20.1201 27.4676 20.1201 25.5707Z" fill="#303030"></path><path fill-rule="evenodd" clip-rule="evenodd" d="M10.5255 29.0053C9.24713 29.0053 8.21082 30.0416 8.21082 31.3199C8.21082 32.5983 9.24713 33.6346 10.5255 33.6346C11.8038 33.6346 12.8402 32.5983 12.8402 31.3199C12.8402 30.0416 11.8038 29.0053 10.5255 29.0053ZM7.09082 31.3199C7.09082 29.423 8.62857 27.8853 10.5255 27.8853C12.4224 27.8853 13.9602 29.423 13.9602 31.3199C13.9602 33.2168 12.4224 34.7546 10.5255 34.7546C8.62857 34.7546 7.09082 33.2168 7.09082 31.3199Z" fill="#303030"></path><path fill-rule="evenodd" clip-rule="evenodd" d="M42.5577 20.8292C41.2794 20.8292 40.243 21.8655 40.243 23.1439C40.243 24.4223 41.2794 25.4586 42.5577 25.4586C43.8361 25.4586 44.8724 24.4223 44.8724 23.1439C44.8724 21.8655 43.8361 20.8292 42.5577 20.8292ZM39.123 23.1439C39.123 21.247 40.6608 19.7092 42.5577 19.7092C44.4546 19.7092 45.9924 21.247 45.9924 23.1439C45.9924 25.0408 44.4546 26.5786 42.5577 26.5786C40.6608 26.5786 39.123 25.0408 39.123 23.1439Z" fill="#303030"></path><path fill-rule="evenodd" clip-rule="evenodd" d="M40.7657 34.4559C39.4874 34.4559 38.4511 35.4922 38.4511 36.7706C38.4511 38.049 39.4874 39.0853 40.7657 39.0853C42.0441 39.0853 43.0804 38.049 43.0804 36.7706C43.0804 35.4922 42.0441 34.4559 40.7657 34.4559ZM37.3311 36.7706C37.3311 34.8737 38.8688 33.3359 40.7657 33.3359C42.6626 33.3359 44.2004 34.8737 44.2004 36.7706C44.2004 38.6675 42.6626 40.2053 40.7657 40.2053C38.8688 40.2053 37.3311 38.6675 37.3311 36.7706Z" fill="#303030"></path><path fill-rule="evenodd" clip-rule="evenodd" d="M28.9308 40.5787C27.6524 40.5787 26.6161 41.6151 26.6161 42.8934C26.6161 44.1718 27.6524 45.2081 28.9308 45.2081C30.2091 45.2081 31.2454 44.1718 31.2454 42.8934C31.2454 41.6151 30.2091 40.5787 28.9308 40.5787ZM25.4961 42.8934C25.4961 40.9965 27.0338 39.4587 28.9308 39.4587C30.8277 39.4587 32.3654 40.9965 32.3654 42.8934C32.3654 44.7903 30.8277 46.3281 28.9308 46.3281C27.0338 46.3281 25.4961 44.7903 25.4961 42.8934Z" fill="#303030"></path><path fill-rule="evenodd" clip-rule="evenodd" d="M24.7963 27.9717L28.6789 39.769L27.6151 40.1191L23.7324 28.3218L24.7963 27.9717Z" fill="#303030"></path><path fill-rule="evenodd" clip-rule="evenodd" d="M39.7172 24.0727L26.3892 25.7901L26.2461 24.6792L39.5741 22.9619L39.7172 24.0727Z" fill="#303030"></path><path fill-rule="evenodd" clip-rule="evenodd" d="M40.7314 33.6499L41.5901 25.5859L42.7038 25.7045L41.8451 33.7685L40.7314 33.6499Z" fill="#303030"></path><path fill-rule="evenodd" clip-rule="evenodd" d="M25.9108 26.5183L38.4548 34.5823L37.8492 35.5244L25.3052 27.4604L25.9108 26.5183Z" fill="#303030"></path><path fill-rule="evenodd" clip-rule="evenodd" d="M43.4836 46.4713L41.1689 39.6766L42.2291 39.3154L44.5438 46.1101L43.4836 46.4713Z" fill="#303030"></path><path fill-rule="evenodd" clip-rule="evenodd" d="M31.2114 41.0897L37.9688 37.5803L38.485 38.5743L31.7276 42.0836L31.2114 41.0897Z" fill="#303030"></path><path fill-rule="evenodd" clip-rule="evenodd" d="M21.0586 46.3155L26.1359 43.7021L26.6485 44.698L21.5712 47.3113L21.0586 46.3155Z" fill="#303030"></path><path fill-rule="evenodd" clip-rule="evenodd" d="M27.4799 16.2757L25.1279 22.8837L24.0728 22.5081L26.4248 15.9001L27.4799 16.2757Z" fill="#303030"></path><path fill-rule="evenodd" clip-rule="evenodd" d="M57.937 24.8455L55.3396 29.2862L50.8989 26.6888L51.4644 25.722L54.9383 27.754L56.9703 24.28L57.937 24.8455Z" fill="#303030"></path><path fill-rule="evenodd" clip-rule="evenodd" d="M33.0749 11.048C22.4439 11.048 13.5607 18.5845 11.5223 28.5944L10.4248 28.3709C12.5678 17.8475 21.9032 9.92798 33.0749 9.92798C44.2485 9.92798 53.5826 17.8867 55.725 28.446L54.6274 28.6687C52.5885 18.6199 43.704 11.048 33.0749 11.048Z" fill="#303030"></path><path fill-rule="evenodd" clip-rule="evenodd" d="M55.4747 32.3654C54.1963 32.3654 53.16 33.4017 53.16 34.68C53.16 35.9584 54.1963 36.9947 55.4747 36.9947C56.7531 36.9947 57.7894 35.9584 57.7894 34.68C57.7894 33.4017 56.7531 32.3654 55.4747 32.3654ZM52.04 34.68C52.04 32.7831 53.5778 31.2454 55.4747 31.2454C57.3716 31.2454 58.9094 32.7831 58.9094 34.68C58.9094 36.5769 57.3716 38.1147 55.4747 38.1147C53.5778 38.1147 52.04 36.5769 52.04 34.68Z" fill="#303030"></path><path fill-rule="evenodd" clip-rule="evenodd" d="M10.6609 36.7139L15.1016 39.3113L14.5361 40.278L11.0622 38.2461L9.03025 41.7201L8.06348 41.1546L10.6609 36.7139Z" fill="#303030"></path><path fill-rule="evenodd" clip-rule="evenodd" d="M11.4101 37.3313C13.449 47.3801 22.3336 54.952 32.9627 54.952C43.5557 54.952 52.4394 47.4161 54.4779 37.4056L55.5754 37.6291C53.4326 48.1519 44.0976 56.072 32.9627 56.072C21.7891 56.072 12.455 48.1132 10.3125 37.554L11.4101 37.3313Z" fill="#303030"></path><path fill-rule="evenodd" clip-rule="evenodd" d="M37.5567 50.0255L30.874 45.0601L31.542 44.1611L38.2247 49.1265L37.5567 50.0255Z" fill="#303030"></path><path fill-rule="evenodd" clip-rule="evenodd" d="M52.6782 35.6451L43.6809 36.9145L43.5244 35.8055L52.5218 34.5361L52.6782 35.6451Z" fill="#303030"></path><path fill-rule="evenodd" clip-rule="evenodd" d="M21.167 27.2404L13.3643 30.6751L12.9131 29.65L20.7158 26.2153L21.167 27.2404Z" fill="#303030"></path><path fill-rule="evenodd" clip-rule="evenodd" d="M38.3105 16.3518L41.7079 20.1971L40.8685 20.9387L37.4712 17.0934L38.3105 16.3518Z" fill="#303030"></path></svg> 