<?xml version="1.0" encoding="UTF-8"?> <svg xmlns="http://www.w3.org/2000/svg" width="66" height="66" viewBox="0 0 66 66" fill="none"><circle cx="33" cy="33" r="33" fill="#FF5F46"></circle><path d="M52.1801 29.4648C50.5503 29.4648 49.231 30.629 48.9594 32.1811H39.1807V33.3453H48.9206C49.1922 34.8974 50.5503 36.0616 52.1413 36.0616C53.9651 36.0616 55.4397 34.587 55.4397 32.7632C55.4397 30.9394 54.0039 29.4648 52.1801 29.4648ZM52.1801 34.8586C51.016 34.8586 50.0459 33.8885 50.0459 32.7244C50.0459 31.5603 51.016 30.5902 52.1801 30.5902C53.3442 30.5902 54.3144 31.5603 54.3144 32.7244C54.3144 33.8885 53.3442 34.8586 52.1801 34.8586Z" fill="#303030"></path><path d="M15.355 32.7632C15.355 34.587 16.8295 36.0616 18.6533 36.0616C20.2831 36.0616 21.6025 34.8974 21.8741 33.3453H24.0472V32.1811H21.8741C21.6025 30.629 20.2443 29.4648 18.6533 29.4648C16.8295 29.4648 15.355 30.9394 15.355 32.7632ZM20.7876 32.7632C20.7876 33.9273 19.8175 34.8974 18.6533 34.8974C17.4892 34.8974 16.5191 33.9273 16.5191 32.7632C16.5191 31.5991 17.4892 30.629 18.6533 30.629C19.8175 30.629 20.7876 31.5603 20.7876 32.7632Z" fill="#303030"></path><path d="M30.8377 22.5196L30.2945 21.4718C29.5572 21.8599 28.7423 22.0539 27.8886 22.0539C25.4051 22.0539 23.2709 20.3077 22.7664 17.863L21.6411 18.0959C22.262 21.045 24.9007 23.218 27.9274 23.218C28.8975 23.218 29.9064 22.9852 30.8377 22.5196Z" fill="#303030"></path><path d="M25.9483 25.0024C25.3662 25.6232 24.6677 26.0501 23.8916 26.3605C23.0379 25.662 21.9902 25.08 20.9037 24.7695L20.5933 25.8949C22.7663 26.5157 24.5513 28.1455 25.3274 30.2409L26.4139 29.8141C26.0647 28.844 25.5214 27.9903 24.8229 27.2142C25.5602 26.865 26.2199 26.3993 26.802 25.7784L25.9483 25.0024Z" fill="#303030"></path><path d="M40.3445 50.3031C39.9177 50.3031 39.5296 50.3807 39.1804 50.5359L36.7745 46.6167L35.7656 47.2376L38.1715 51.1568C37.473 51.7777 37.0462 52.6314 37.0462 53.6403C37.0462 55.4641 38.5207 56.9386 40.3445 56.9386C42.1683 56.9386 43.6429 55.4641 43.6429 53.6403C43.6429 51.8165 42.1683 50.3031 40.3445 50.3031ZM40.3445 55.6969C39.1804 55.6969 38.2103 54.7268 38.2103 53.5627C38.2103 52.3985 39.1804 51.4284 40.3445 51.4284C41.5087 51.4284 42.4788 52.3985 42.4788 53.5627C42.4788 54.7268 41.5087 55.6969 40.3445 55.6969Z" fill="#303030"></path><path d="M32.7392 42.5036C32.7392 45.4528 30.3333 47.8198 27.423 47.8198C26.9961 47.8198 26.6081 47.781 26.22 47.6646L25.9484 48.7899C26.4141 48.9064 26.9185 48.9452 27.423 48.9452C29.6348 48.9452 31.575 47.8586 32.7392 46.1513V50.3421C32.7392 53.2912 30.3333 55.6583 27.423 55.6583C24.4738 55.6583 22.1068 53.2524 22.1068 50.3421C22.1068 48.8676 22.6888 47.5094 23.7754 46.5005L22.9605 45.6468C21.9904 46.5781 21.3307 47.7422 21.0979 49.0228C17.295 49.0228 13.725 45.2588 13.725 41.2619C13.725 40.2918 13.9191 39.3217 14.3071 38.4292L14.4235 38.274C12.6385 36.9934 11.6296 34.9368 11.6296 32.7638C11.6296 29.1938 14.3071 26.167 17.8771 25.779L17.7219 24.3432C16.2085 22.7134 15.7041 20.1912 16.3249 17.8241C16.7906 16.0779 17.9159 14.6421 19.5457 13.7496C21.0591 12.8959 22.8053 12.6243 24.3574 13.0512C26.6469 13.672 28.2379 15.8063 28.4707 18.445L29.7512 18.3286C29.5572 15.9615 28.3931 13.9437 26.6469 12.7407C26.7633 11.1498 28.0826 9.86921 29.7124 9.86921C31.4198 9.86921 32.778 11.2662 32.778 12.9347V30.9788H33.9421V12.9347C33.9421 10.6065 32.0407 8.70508 29.7124 8.70508C27.6558 8.70508 25.9484 10.1796 25.5604 12.1199C25.2887 12.0034 24.9783 11.887 24.6679 11.8094C22.8053 11.305 20.7098 11.6154 18.886 12.6243C16.9846 13.7108 15.6265 15.4182 15.0832 17.4361C14.3847 19.9971 14.8504 22.6746 16.2861 24.6149C12.7161 25.6626 10.1938 28.9221 10.1938 32.7638C10.1938 35.0144 11.0863 37.1486 12.6385 38.7008C12.3669 39.5545 12.2117 40.4082 12.2117 41.3007C12.2117 46.0736 16.3637 50.4197 20.9038 50.4973C20.9815 54.0285 23.853 56.8612 27.3842 56.8612C30.9542 56.8612 33.8645 53.9509 33.8645 50.3809V34.51H32.7004V42.5036H32.7392Z" fill="#303030"></path><path d="M46.3206 22.2471C46.8638 22.6351 47.4847 22.8292 48.1832 22.8292C50.007 22.8292 51.4815 21.3546 51.4815 19.5308C51.4815 17.707 50.007 16.2324 48.1832 16.2324C46.3594 16.2324 44.8848 17.707 44.8848 19.5308C44.8848 20.2293 45.1176 20.8889 45.4669 21.3934L40.5775 26.3603H35.5718V27.5245H41.082L46.3206 22.2471ZM48.222 17.3966C49.3861 17.3966 50.3562 18.3667 50.3562 19.5308C50.3562 20.6949 49.3861 21.665 48.222 21.665C47.0579 21.665 46.0877 20.6949 46.0877 19.5308C46.0877 18.3667 47.0191 17.3966 48.222 17.3966Z" fill="#303030"></path><path d="M38.0162 32.1809H35.688V33.345H38.0162V32.1809Z" fill="#303030"></path><path d="M34.5241 32.1809H32.1958V33.345H34.5241V32.1809Z" fill="#303030"></path><path d="M31.0319 32.1809H28.7036V33.345H31.0319V32.1809Z" fill="#303030"></path><path d="M27.5392 32.1809H25.2109V33.345H27.5392V32.1809Z" fill="#303030"></path><path d="M36.7745 18.9101L39.1416 15.0685C39.5296 15.2237 39.9177 15.3013 40.3445 15.3013C42.1683 15.3013 43.6429 13.8268 43.6429 12.003C43.6429 10.1792 42.1683 8.70459 40.3445 8.70459C38.5207 8.70459 37.0462 10.1792 37.0462 12.003C37.0462 12.9731 37.473 13.8656 38.1327 14.4476L35.7656 18.2893L36.7745 18.9101ZM40.3445 9.86872C41.5087 9.86872 42.4788 10.8388 42.4788 12.003C42.4788 13.1671 41.5087 14.1372 40.3445 14.1372C39.1804 14.1372 38.2103 13.1671 38.2103 12.003C38.2103 10.8388 39.1804 9.86872 40.3445 9.86872Z" fill="#303030"></path><path d="M48.222 42.6968C47.5235 42.6968 46.8638 42.9296 46.3594 43.2788L41.0432 38.0015H35.5718V39.1656H40.5775L45.5057 44.0937C45.1176 44.637 44.9236 45.2579 44.9236 45.9563C44.9236 47.7801 46.3982 49.2547 48.222 49.2547C50.0458 49.2547 51.5204 47.7801 51.5204 45.9563C51.5204 44.1325 50.007 42.6968 48.222 42.6968ZM48.222 48.0906C47.0579 48.0906 46.0877 47.1205 46.0877 45.9563C46.0877 44.7922 47.0579 43.8221 48.222 43.8221C49.3861 43.8221 50.3562 44.7922 50.3562 45.9563C50.3562 47.1205 49.3861 48.0906 48.222 48.0906Z" fill="#303030"></path><path d="M27.423 42.3092C27.4618 42.0764 27.5006 41.8824 27.5006 41.6496C27.5006 40.0198 26.3365 38.7004 24.7843 38.4288C25.4828 37.6527 26.0649 36.7214 26.4529 35.6737L25.3664 35.2856C24.8231 36.799 23.7754 38.0408 22.4561 38.8944C22.4173 38.9333 22.3785 38.9333 22.3785 38.9333C21.2531 39.6317 19.9726 40.0198 18.6144 40.0198C18.3816 40.0198 18.11 40.0198 17.8772 39.981L17.7607 41.1451C18.0324 41.1839 18.3428 41.1839 18.6144 41.1839C20.2442 41.1839 21.7964 40.7183 23.0769 39.8646C23.4262 39.6705 23.7754 39.5541 24.2023 39.5541C25.3664 39.5541 26.3365 40.5242 26.3365 41.6884C26.3365 41.8436 26.3365 41.96 26.2977 42.1152L27.423 42.3092Z" fill="#303030"></path></svg> 