<?xml version="1.0" encoding="UTF-8"?> <svg xmlns="http://www.w3.org/2000/svg" width="66" height="66" viewBox="0 0 66 66" fill="none"><circle cx="33" cy="33" r="33" fill="#FF5F46"></circle><path d="M56.3369 29.5692C54.6382 29.5692 53.227 30.8124 52.9582 32.4364H48.4334C48.3326 29.6625 47.4963 27.0529 46.1001 24.8166H47.3358C48.4857 24.8166 49.5683 24.3686 50.3822 23.5548C51.0729 22.8641 51.4985 21.9756 51.6105 21.0198C53.2457 20.7622 54.5038 19.3436 54.5038 17.6374C54.5038 15.7484 52.9657 14.2102 51.0766 14.2102C49.1875 14.2102 47.6457 15.7484 47.6457 17.6374C47.6457 19.3249 48.8739 20.7286 50.4793 21.0124C50.3747 21.6732 50.0686 22.2817 49.587 22.7633C48.9859 23.3644 48.1833 23.6966 47.3321 23.6966H45.3273C43.0761 20.7137 39.7571 18.5521 35.8633 17.8204L35.1987 17.6972V19.4705L35.4041 19.6385C36.4718 20.5158 37.3939 21.9345 38.1145 23.6966H32.4361V32.4401H26.2238C26.2761 29.5356 26.7427 26.7841 27.5827 24.447L27.8515 23.6966H22.1097C24.7902 20.5457 28.6355 18.7313 32.8467 18.679C32.899 18.6753 32.9513 18.6753 33.0035 18.6753H33.5635V13.5158C35.1875 13.247 36.4345 11.8358 36.4345 10.1372C36.4345 8.24809 34.8963 6.70996 33.0035 6.70996C31.1107 6.70996 29.5763 8.24809 29.5763 10.1372C29.5763 11.8358 30.8195 13.247 32.4435 13.5158V17.5702C27.8254 17.7382 23.4686 20.0044 20.6798 23.7004H18.6638C17.0771 23.7004 15.763 22.5356 15.5203 21.0161C17.1294 20.7324 18.3539 19.3286 18.3539 17.6412C18.3539 15.7521 16.8158 14.214 14.9267 14.214C13.0377 14.214 11.4958 15.7521 11.4958 17.6412C11.4958 19.351 12.7539 20.766 14.3891 21.0236C14.643 23.159 16.4611 24.8204 18.6638 24.8204H19.8995C18.4622 27.1126 17.6707 29.7185 17.5737 32.4438H13.0451C12.7763 30.8198 11.3651 29.5766 9.66646 29.5766C7.77739 29.5766 6.23926 31.1148 6.23926 33.0076C6.23926 34.9004 7.77739 36.4348 9.66646 36.4348C11.3651 36.4348 12.7763 35.1916 13.0451 33.5638H17.5699C17.6707 36.3377 18.5033 38.9473 19.9033 41.1873H18.6638C16.4611 41.1873 14.643 42.8486 14.3891 44.9841C12.7539 45.2417 11.4958 46.6604 11.4958 48.3665C11.4958 50.2556 13.0339 51.7974 14.9267 51.7974C16.8195 51.7974 18.3539 50.2593 18.3539 48.3665C18.3539 46.679 17.1257 45.2753 15.5203 44.9916C15.763 43.4721 17.0809 42.3073 18.6675 42.3073H20.6723C22.9235 45.294 26.2462 47.4518 30.1363 48.1836L30.8009 48.3068V46.5334L30.5955 46.3654C29.5278 45.4881 28.6057 44.0657 27.8814 42.3036H33.5598V33.5601H35.3891H39.7758C39.7235 36.4646 39.2569 39.2198 38.4169 41.5569L38.1369 42.3297L38.9582 42.3073L43.8862 42.3036C41.2579 45.3761 37.3529 47.3286 32.9998 47.3286H32.4398V52.4881C30.8158 52.7569 29.5726 54.1681 29.5726 55.8668C29.5726 57.7558 31.1107 59.2977 32.9998 59.2977C34.8889 59.2977 36.4307 57.7596 36.4307 55.8668C36.4307 54.1681 35.1875 52.7569 33.5598 52.4881V48.4374C38.3571 48.2657 42.6057 45.895 45.3235 42.3036H47.3358C48.9225 42.3036 50.2366 43.4684 50.4793 44.9916C48.8702 45.2753 47.6457 46.679 47.6457 48.3665C47.6457 50.2556 49.1838 51.7974 51.0766 51.7974C52.9694 51.7974 54.5038 50.2593 54.5038 48.3665C54.5038 46.6566 53.2457 45.2417 51.6105 44.9841C51.3566 42.8486 49.5385 41.1873 47.3358 41.1873H46.0963C47.4926 38.9622 48.3251 36.3564 48.4259 33.5638H52.9582C53.227 35.1878 54.6382 36.4348 56.3369 36.4348C58.2259 36.4348 59.7641 34.8966 59.7641 33.0076C59.7641 31.1185 58.2259 29.5692 56.3369 29.5692ZM48.7657 17.6374C48.7657 16.3644 49.7998 15.3302 51.0766 15.3302C52.3497 15.3302 53.3838 16.3644 53.3838 17.6374C53.3838 18.9105 52.3497 19.9484 51.0766 19.9484C49.8035 19.9484 48.7657 18.9142 48.7657 17.6374ZM30.6889 10.1334C30.6889 8.86036 31.723 7.82623 32.9961 7.82623C34.2691 7.82623 35.307 8.86036 35.307 10.1334C35.307 11.4065 34.2729 12.4444 32.9961 12.4444C31.7267 12.4444 30.6889 11.4102 30.6889 10.1334ZM12.6158 17.6374C12.6158 16.3644 13.6499 15.3302 14.9267 15.3302C16.1998 15.3302 17.2339 16.3644 17.2339 17.6374C17.2339 18.9105 16.1998 19.9484 14.9267 19.9484C13.6499 19.9484 12.6158 18.9142 12.6158 17.6374ZM9.66272 35.3073C8.38966 35.3073 7.35552 34.2732 7.35552 33.0001C7.35552 31.727 8.38966 30.6892 9.66272 30.6892C10.9358 30.6892 11.9737 31.7233 11.9737 33.0001C11.9737 34.2732 10.9395 35.3073 9.66272 35.3073ZM17.2339 48.359C17.2339 49.6321 16.1998 50.67 14.9267 50.67C13.6537 50.67 12.6158 49.6358 12.6158 48.359C12.6158 47.086 13.6499 46.0518 14.9267 46.0518C16.1961 46.0518 17.2339 47.086 17.2339 48.359ZM35.3107 55.863C35.3107 57.1361 34.2766 58.174 32.9998 58.174C31.7267 58.174 30.6926 57.1398 30.6926 55.863C30.6926 54.59 31.7267 53.5558 32.9998 53.5558C34.2729 53.5558 35.3107 54.59 35.3107 55.863ZM53.3838 48.359C53.3838 49.6321 52.3497 50.67 51.0766 50.67C49.8035 50.67 48.7657 49.6358 48.7657 48.359C48.7657 47.086 49.7998 46.0518 51.0766 46.0518C52.3497 46.0518 53.3838 47.086 53.3838 48.359ZM47.3134 32.4401H40.8958C40.8473 29.6774 40.4329 27.0641 39.7235 24.8204H44.7523C46.2793 27.0081 47.2051 29.6326 47.3134 32.4401ZM36.4942 19.1084C39.4473 19.8476 42.0046 21.4865 43.8937 23.7004H39.3353C38.5998 21.774 37.6366 20.1873 36.4942 19.1084ZM21.2435 24.8166H26.2761C25.5518 27.1014 25.1523 29.711 25.1038 32.4401H18.6974C18.8019 29.6886 19.6681 27.0678 21.2435 24.8166ZM18.6862 33.5601H25.1038C25.1523 36.3228 25.5667 38.9361 26.2761 41.1836H21.2473C19.7203 38.9921 18.7945 36.3676 18.6862 33.5601ZM29.5054 46.8956C26.5486 46.1564 23.9913 44.5137 22.1059 42.3036H26.6681C27.3998 44.2262 28.363 45.8166 29.5054 46.8956ZM32.4398 41.1836H27.4633C26.7203 38.966 26.2761 36.3265 26.2238 33.5601H32.4398V41.1836ZM33.5598 32.4401V24.8166H38.5363C39.2793 27.0342 39.7235 29.67 39.7758 32.4364H35.3891H33.5598V32.4401ZM44.7523 41.1798H39.7235C40.4478 38.895 40.8473 36.2854 40.8958 33.5564H47.3134C47.2051 36.3862 46.2755 39.0033 44.7523 41.1798ZM56.3369 35.3073C55.0638 35.3073 54.0259 34.2732 54.0259 33.0001C54.0259 31.727 55.0601 30.6892 56.3369 30.6892C57.6099 30.6892 58.6441 31.7233 58.6441 33.0001C58.6441 34.2732 57.6099 35.3073 56.3369 35.3073Z" fill="#303030"></path></svg> 