<svg width="1791" height="300" viewBox="0 0 1791 300" fill="none" xmlns="http://www.w3.org/2000/svg">
<g clip-path="url(#clip0_920_16716)">
<rect width="1791" height="300" fill="#F9F7F4"/>
<path d="M0.0698787 101.092C0.0698799 87.9835 2.65175 75.0035 7.66807 62.8931C12.6844 50.7826 20.0369 39.7788 29.3059 30.5098C38.5748 21.2409 49.5787 13.8883 61.6891 8.87202C73.7996 3.8557 86.7795 1.27384 99.8878 1.27384C112.996 1.27384 125.976 3.85571 138.086 8.87203C150.197 13.8884 161.201 21.2409 170.47 30.5098C179.739 39.7788 187.091 50.7826 192.108 62.8931C197.124 75.0036 199.706 87.9835 199.706 101.092L99.8878 101.092L0.0698787 101.092Z" fill="#FABFBA"/>
<path d="M0.867793 198.638C13.9761 198.638 26.956 201.22 39.0665 206.236C51.1769 211.253 62.1808 218.605 71.4497 227.874C80.7187 237.143 88.0712 248.147 93.0875 260.257C98.1038 272.368 100.686 285.348 100.686 298.456L0.867798 298.456L0.867793 198.638Z" fill="#FF9E94"/>
<path d="M199.365 300L199.365 100.704L299.444 199.92L398.66 300L199.365 300Z" fill="#FF5F46"/>
<path d="M199.365 100.704L199.365 300L99.2853 200.784L0.0693235 100.704L199.365 100.704Z" fill="#BD2B26"/>
<path d="M1790.7 0.273926L1790.7 98.8625L1741.2 49.7818L1692.11 0.273921L1790.7 0.273926Z" fill="#FABFBA"/>
<path d="M1592.04 0.273926L1690.96 0.273926L1641.71 49.9503L1592.04 99.1979V0.273926Z" fill="#F8DEDC"/>
<path d="M1591.88 299.612L1391.46 299.612L1491.24 198.968L1591.88 99.1932L1591.88 299.612Z" fill="#FABFBA"/>
<path d="M1790.7 99.1934L1790.7 298.679L1690.53 199.368L1591.22 99.1933L1790.7 99.1934Z" fill="#FF5F46"/>
<path d="M1736.99 245.33C1725.11 257.21 1709 263.883 1692.2 263.883C1675.4 263.883 1659.29 257.21 1647.41 245.33C1635.53 233.451 1628.86 217.339 1628.86 200.54C1628.86 183.74 1635.53 167.628 1647.41 155.749L1692.2 200.54L1736.99 245.33Z" fill="#FF3621"/>
<path d="M1647.77 155.749C1659.65 143.87 1675.76 137.196 1692.56 137.196C1709.36 137.196 1725.47 143.87 1737.35 155.749C1749.23 167.628 1755.91 183.74 1755.91 200.539C1755.91 217.339 1749.23 233.451 1737.35 245.33L1692.56 200.539L1647.77 155.749Z" fill="#801C17"/>
</g>
<defs>
<clipPath id="clip0_920_16716">
<rect width="1791" height="300" fill="white"/>
</clipPath>
</defs>
</svg>
