<svg width="361" height="193" viewBox="0 0 361 193" fill="none" xmlns="http://www.w3.org/2000/svg">
<rect width="361" height="192" transform="translate(0 0.882324)" fill="#EEEDE9"/>
<path d="M213.221 77.7571C223.835 96.1882 217.552 119.728 199.181 130.376C180.809 141.024 157.345 134.722 146.731 116.291C136.117 97.8594 142.4 74.3192 160.772 63.6711C179.143 53.0231 202.655 59.326 213.221 77.7571Z" fill="#FF5F46"/>
<path d="M230.736 95.6631C243.397 103.016 247.775 119.251 240.446 132C233.116 144.701 216.886 149.094 204.226 141.741C191.566 134.388 187.187 118.153 194.517 105.404C201.846 92.7026 218.028 88.3097 230.736 95.6631Z" fill="#FF5F46"/>
<path d="M142.543 48.7256C157.202 48.7256 169.053 60.6151 169.053 75.3218C169.053 90.0284 157.202 101.918 142.543 101.918C127.884 101.918 116.032 90.0284 116.032 75.3218C116.032 60.6151 127.884 48.7256 142.543 48.7256Z" fill="#FF5F46"/>
<path d="M129.264 95.6632C141.924 88.3099 158.154 92.655 165.484 105.404C172.813 118.105 168.482 134.388 155.774 141.741C143.114 149.094 126.884 144.749 119.554 132C112.225 119.299 116.604 103.017 129.264 95.6632Z" fill="#FF5F46"/>
<path d="M190.947 75.3218C190.947 60.6151 202.798 48.7256 217.457 48.7256C232.116 48.7256 243.968 60.6151 243.968 75.3218C243.968 90.0284 232.116 101.918 217.457 101.918C202.798 101.918 190.947 89.9807 190.947 75.3218Z" fill="#FF5F46"/>
<path d="M153.49 140.404C153.49 125.697 165.341 113.808 180 113.808C194.659 113.808 206.511 125.697 206.511 140.404C206.511 155.11 194.659 167 180 167C165.341 167 153.49 155.11 153.49 140.404Z" fill="#FF5F46"/>
<path d="M153.49 53.5962C153.49 38.8895 165.341 27 180 27C194.659 27 206.511 38.8895 206.511 53.5962C206.511 68.3029 194.659 80.1924 180 80.1924C165.341 80.1924 153.49 68.3029 153.49 53.5962Z" fill="#FF5F46"/>
<path d="M159.439 75.3219C159.439 63.9576 168.625 54.6943 180 54.6943C191.375 54.6943 200.561 63.9099 200.561 75.3219C200.561 86.7339 191.375 95.9495 180 95.9495C168.625 95.9495 159.439 86.6861 159.439 75.3219Z" fill="white"/>
<path d="M200.561 118.726C200.561 130.09 191.375 139.353 180 139.353C168.625 139.353 159.439 130.138 159.439 118.726C159.439 107.361 168.625 98.0981 180 98.0981C191.375 98.0981 200.561 107.314 200.561 118.726Z" fill="white"/>
<path d="M200.561 75.3218H159.487V118.726H200.561V75.3218Z" fill="white"/>
<path d="M231.069 76.9932C231.069 84.5375 224.977 90.6016 217.505 90.6016C209.985 90.6016 203.94 84.4898 203.94 76.9932" fill="white"/>
<path d="M128.931 76.9932C128.931 84.5375 135.023 90.6016 142.495 90.6016C150.015 90.6016 156.06 84.4898 156.06 76.9932" fill="white"/>
<path d="M171.623 123.5C171.623 128.132 175.383 131.904 180 131.904C184.617 131.904 188.377 128.132 188.377 123.5" fill="#FF5F46"/>
<path d="M171.861 82.914C171.861 85.5879 169.719 87.7366 167.054 87.7366C164.389 87.7366 162.247 85.5879 162.247 82.914C162.247 80.24 164.389 78.0913 167.054 78.0913C169.719 78.0913 171.861 80.24 171.861 82.914Z" fill="#FF5F46"/>
<path d="M197.087 85.6834H188.044C187.901 85.6834 187.758 85.5402 187.758 85.3969V83.6302C187.758 83.487 187.901 83.3438 188.044 83.3438H197.087C197.229 83.3438 197.372 83.487 197.372 83.6302V85.3969C197.372 85.5402 197.229 85.6834 197.087 85.6834Z" fill="#FF5F46"/>
</svg>
