<svg width="361" height="193" viewBox="0 0 361 193" fill="none" xmlns="http://www.w3.org/2000/svg">
<rect width="361" height="192" transform="translate(0 0.882324)" fill="#4299E0"/>
<path d="M19 97C19 107.768 21.0693 118.431 25.0896 128.38C29.11 138.329 35.0028 147.368 42.4315 154.983C49.8601 162.597 58.6793 168.637 68.3853 172.758C78.0914 176.879 88.4943 179 99 179C109.506 179 119.909 176.879 129.615 172.758C139.321 168.637 148.14 162.597 155.569 154.983C162.997 147.368 168.89 138.329 172.91 128.38C176.931 118.431 179 107.768 179 97L99 97L19 97Z" fill="#04355D"/>
<path d="M341 97C341 75.2523 332.466 54.3952 317.276 39.0172C302.085 23.6393 281.483 15 260 15C238.517 15 217.915 23.6393 202.724 39.0172C187.534 54.3952 179 75.2522 179 97L260 97H341Z" fill="#04355D"/>
</svg>
