<svg width="361" height="193" viewBox="0 0 361 193" fill="none" xmlns="http://www.w3.org/2000/svg">
<rect width="361" height="192" transform="translate(0 0.882324)" fill="#FFAB00"/>
<rect x="32" y="124" width="45" height="45" fill="#1B3139"/>
<rect x="32" y="74" width="45" height="45" fill="#1B3139"/>
<rect x="32" y="24" width="45" height="44" fill="#1B3139"/>
<rect x="82" y="124" width="45" height="45" fill="#1B3139"/>
<rect x="82" y="74" width="45" height="45" fill="#1B3139"/>
<rect x="82" y="24" width="45" height="44" fill="#FFF0D3"/>
<rect x="133" y="124" width="45" height="45" fill="#FFF0D3"/>
<rect x="133" y="74" width="45" height="45" fill="#1B3139"/>
<rect x="133" y="24" width="45" height="44" fill="#1B3139"/>
<rect x="183" y="124" width="45" height="45" fill="#1B3139"/>
<rect x="183" y="74" width="45" height="45" fill="#FFF0D3"/>
<rect x="183" y="24" width="45" height="44" fill="#1B3139"/>
<rect x="234" y="124" width="45" height="45" fill="#FFF0D3"/>
<rect x="234" y="74" width="45" height="45" fill="#1B3139"/>
<rect x="234" y="24" width="45" height="44" fill="#1B3139"/>
<rect x="284" y="124" width="45" height="45" fill="#1B3139"/>
<rect x="284" y="74" width="45" height="45" fill="#1B3139"/>
<rect x="284" y="24" width="45" height="44" fill="#FFF0D3"/>
</svg>
