<?xml version="1.0" encoding="UTF-8"?> <svg xmlns="http://www.w3.org/2000/svg" width="101" height="101" viewBox="0 0 101 101" fill="none"><path d="M16.5638 22.7588C17.8431 22.7588 19.0551 22.3548 20.1325 21.6141L33.5991 35.0808C29.7611 39.2554 27.6065 44.7094 27.6065 50.5001C27.6065 51.3081 27.6738 52.1834 27.7411 52.9914C28.0105 55.3481 29.5591 57.3008 31.8485 58.1088C32.5218 58.3781 33.2625 58.4454 33.9358 58.4454C35.5518 58.4454 37.1005 57.8394 38.3125 56.6274C39.7265 55.2134 40.3998 53.3954 40.1978 51.5101C39.8611 48.4128 40.9385 45.3828 43.0931 43.1608L41.6791 41.7468C39.0531 44.3728 37.7738 48.0088 38.1778 51.7121C38.3125 52.9241 37.8411 54.2034 36.8985 55.2134C35.7538 56.3581 34.0705 56.7621 32.5218 56.2234C30.9731 55.6848 29.9631 54.4054 29.7611 52.7894C29.6938 52.0488 29.6265 51.2408 29.6265 50.5001C29.6265 44.9788 31.7811 39.7268 35.6865 35.8214L36.4271 35.0808L28.8185 27.4048C34.7438 21.8834 42.3525 18.8534 50.4998 18.8534C57.2331 18.8534 63.6298 20.9408 69.0165 24.8461L70.2285 23.2301C64.5051 19.0554 57.6371 16.9008 50.5671 16.9008C41.8811 16.9008 33.7338 20.1328 27.4718 26.0581L21.6138 20.2001C22.3545 19.1901 22.7585 17.9108 22.7585 16.6314C22.7585 14.9481 22.0851 13.3994 20.9405 12.2548C19.7958 11.1101 18.2471 10.4368 16.5638 10.4368C14.8805 10.4368 13.3318 11.1101 12.1871 12.2548C9.76314 14.6788 9.76314 18.5841 12.1871 21.0081C13.3991 22.1528 15.0151 22.7588 16.5638 22.7588ZM13.6685 13.6688C14.4765 12.8608 15.4865 12.4568 16.6311 12.4568C17.7758 12.4568 18.7858 12.8608 19.5938 13.6688C20.4018 14.4768 20.8058 15.4868 20.8058 16.6314C20.8058 17.7761 20.3345 18.7188 19.5265 19.5268C17.9105 21.1428 15.2845 21.1428 13.6685 19.5268C12.0525 17.9108 12.0525 15.2848 13.6685 13.6688Z" fill="#FF5F46"></path><path d="M80.7996 79.3861L67.3329 65.9195C71.2383 61.6775 73.3256 56.2235 73.3256 50.5001C73.3256 49.2881 73.2583 48.0761 73.0563 46.8641C72.7196 44.7095 71.1709 42.9588 69.0836 42.2181C66.9963 41.5448 64.707 42.0835 63.1583 43.6321L62.4176 44.4401C61.1383 45.7195 60.5323 47.4701 60.7343 49.3555C61.0709 52.5201 59.9936 55.5501 57.7716 57.7721L59.2529 59.2535C61.9463 56.5601 63.2256 52.9241 62.8216 49.1535C62.687 47.8741 63.0909 46.7295 63.8989 45.8541L64.6396 45.1135C65.6496 44.1035 67.131 43.6995 68.545 44.1708C69.959 44.6421 70.9016 45.7195 71.1036 47.2008C71.3056 48.2781 71.3729 49.3555 71.3729 50.5001C71.3729 56.0888 69.2183 61.2735 65.2456 65.2461L64.505 65.9868L72.1809 73.6628C66.2556 79.1168 58.6469 82.1468 50.4996 82.1468C43.7663 82.1468 37.3696 80.0595 31.9156 76.1541L30.7036 77.7701C36.4943 81.9448 43.2949 84.1668 50.4323 84.1668C59.1183 84.1668 67.2656 80.9348 73.5276 75.0095L79.3183 80.8001C78.5776 81.8101 78.1736 83.0895 78.1736 84.3688C78.1736 86.0521 78.847 87.6008 79.9916 88.7455C81.2036 89.9575 82.7523 90.5635 84.3683 90.5635C85.9843 90.5635 87.533 89.9575 88.745 88.7455C91.169 86.3215 91.169 82.4161 88.745 79.9921C86.5903 77.8375 83.2236 77.6355 80.7996 79.3861ZM87.3309 87.3315C85.7149 88.9475 83.0889 88.9475 81.4729 87.3315C80.6649 86.5235 80.2609 85.5135 80.2609 84.3688C80.2609 83.2241 80.6649 82.2141 81.4729 81.4061C82.2809 80.5981 83.3583 80.1941 84.4356 80.1941C85.5129 80.1941 86.5903 80.5981 87.3983 81.4061C88.947 83.0895 88.9469 85.7155 87.3309 87.3315Z" fill="#FF5F46"></path><path d="M65.9191 33.6668C61.7444 29.7614 56.2904 27.6068 50.4998 27.6068C49.6244 27.6068 48.7491 27.6741 47.8738 27.7414C45.5171 28.0108 43.5644 29.5594 42.7564 31.8488C41.9484 34.1381 42.5544 36.5621 44.2378 38.2454L44.5071 38.5148C45.7864 39.7941 47.5371 40.4001 49.4224 40.1981C52.5871 39.8614 55.6171 40.9388 57.8391 43.1608L59.2531 41.7468C56.5598 39.0534 52.9238 37.7741 49.1531 38.1781C47.8738 38.3128 46.7291 37.9088 45.8538 37.1008L45.5844 36.8314C44.4398 35.6868 44.0358 34.0708 44.5744 32.5221C45.1131 30.9734 46.3924 29.9634 48.0084 29.7614C48.8164 29.6941 49.6244 29.6268 50.4324 29.6268C56.0211 29.6268 61.2058 31.7814 65.1784 35.7541L65.9191 36.4948L73.5951 28.8188C79.1164 34.7441 82.1464 42.3528 82.1464 50.5001C82.1464 57.2334 80.0591 63.6301 76.1538 69.0841L77.7698 70.2961C81.9444 64.5054 84.1664 57.7048 84.1664 50.5674C84.1664 41.8814 80.9344 33.7341 75.0091 27.4721L80.7998 21.6814C81.8098 22.4221 83.0891 22.8261 84.3684 22.8261C86.0518 22.8261 87.6004 22.1528 88.7451 21.0081C89.8898 19.8634 90.5631 18.3148 90.5631 16.6314C90.5631 14.9481 89.8898 13.3994 88.7451 12.2548C86.3211 9.83077 82.4158 9.83077 79.9918 12.2548C77.8371 14.4094 77.6351 17.7761 79.3184 20.2001L65.9191 33.6668ZM81.4731 13.6688C83.0891 12.0528 85.7151 12.0528 87.3311 13.6688C88.1391 14.4768 88.5431 15.4868 88.5431 16.6314C88.5431 17.7761 88.1391 18.7861 87.3311 19.5941C86.5231 20.4021 85.5131 20.8061 84.3684 20.8061C83.2238 20.8061 82.2138 20.4021 81.4058 19.5941C79.8571 17.9108 79.8571 15.2848 81.4731 13.6688Z" fill="#FF5F46"></path><path d="M35.0805 67.4008C39.3225 71.3062 44.7765 73.3935 50.4999 73.3935C51.3752 73.3935 52.1832 73.3262 53.0585 73.2588C55.4152 72.9895 57.3679 71.4408 58.1759 69.1515C58.9839 66.8622 58.4452 64.4382 56.6945 62.6875L56.4252 62.4182C55.1459 61.1388 53.3952 60.6002 51.5099 60.7348C48.4125 61.0715 45.3152 59.9942 43.1605 57.7722L41.7465 59.2535C44.3725 61.8795 48.0759 63.2262 51.7792 62.8222C53.0585 62.6875 54.2032 63.0915 55.0112 63.8995L55.2805 64.1688C56.4252 65.3135 56.8292 66.9295 56.2905 68.5455C55.7518 70.0942 54.4725 71.1042 52.8565 71.3062C52.1159 71.3735 51.3078 71.4408 50.5672 71.4408C44.9785 71.4408 39.7265 69.2862 35.8212 65.3135L35.0132 64.5055L27.3372 72.1815C21.8832 66.2562 18.7859 58.6475 18.7859 50.5002C18.7859 43.8342 20.8732 37.3702 24.7785 31.9835L23.1625 30.7715C18.9879 36.5622 16.8332 43.3628 16.8332 50.4328C16.8332 59.1188 20.0652 67.2662 25.9905 73.5282L20.1999 79.3188C17.7759 77.5682 14.4092 77.7702 12.2545 79.9922C9.83052 82.4162 9.83052 86.3215 12.2545 88.7455C13.4665 89.9575 15.0152 90.5635 16.6312 90.5635C18.2472 90.5635 19.7959 89.9575 21.0079 88.7455C23.1625 86.5908 23.3645 83.2242 21.6812 80.8002L35.0805 67.4008ZM19.5265 87.3315C17.9105 88.9475 15.2845 88.9475 13.6685 87.3315C12.0525 85.7155 12.0525 83.0895 13.6685 81.4735C14.4765 80.6655 15.5539 80.2615 16.6312 80.2615C17.7085 80.2615 18.7859 80.6655 19.5939 81.4735C21.1425 83.0895 21.1425 85.7155 19.5265 87.3315Z" fill="#FF5F46"></path></svg> 