<svg width="822" height="548" viewBox="0 0 822 548" fill="none" xmlns="http://www.w3.org/2000/svg">
<path d="M548 6.53483e-06L6.53483e-06 0L548 548L548 6.53483e-06Z" fill="#D69EA8"/>
<path d="M548 137L685 137L548 -5.98846e-06L548 137Z" fill="#EEEDE9"/>
<path d="M548 1.63371e-06L411 0L548 137L548 1.63371e-06Z" fill="#AB4057"/>
<path d="M548 411L548 548L685 411L548 411Z" fill="#AB4057"/>
<path d="M616.5 206C654.332 206 685 175.108 685 137H548C548 175.108 578.668 206 616.5 206Z" fill="#FFDB96"/>
<path d="M548 343H685V206L548 206V343Z" fill="#1B3139"/>
<path d="M664.086 237.565C666.182 237.565 667.793 239.257 667.793 241.272V313.479C667.793 315.574 666.101 317.186 664.086 317.186H568.912C566.816 317.186 565.205 315.494 565.205 313.479V229.022C565.205 226.927 566.897 225.315 568.912 225.315H596.553C597.52 225.315 598.407 225.718 599.132 226.363C601.55 228.7 607.433 234.261 609.85 236.598C610.576 237.242 611.462 237.645 612.429 237.645H664.086V237.565Z" fill="#618794"/>
<path d="M609.286 300.182C605.902 299.054 602.759 297.2 600.099 294.541C590.993 285.435 590.993 270.767 600.099 261.661C609.206 252.555 623.873 252.635 632.979 261.661C642.086 270.767 642.086 285.435 632.979 294.541C628.386 299.135 622.422 301.391 616.459 301.31V318.637" stroke="#1B3139" stroke-width="2" stroke-miterlimit="10"/>
<path d="M616.54 291.237V267.544" stroke="#EEEDE9" stroke-width="2" stroke-miterlimit="10"/>
<path d="M607.917 276.247L616.539 267.544L625.243 276.247" stroke="#EEEDE9" stroke-width="2" stroke-miterlimit="10"/>
<line x1="344" y1="272.5" x2="548" y2="272.5" stroke="#1B3139" stroke-width="3"/>
<line x1="30" y1="8.79524e-08" x2="30" y2="412" stroke="#C4CCD6" stroke-width="2"/>
<line x1="548" y1="443" x2="136" y2="443" stroke="#C4CCD6" stroke-width="2"/>
<line x1="68" y1="8.79524e-08" x2="68" y2="412" stroke="#C4CCD6" stroke-width="2"/>
<line x1="548" y1="481" x2="136" y2="481" stroke="#C4CCD6" stroke-width="2"/>
<line x1="106" y1="8.79524e-08" x2="106" y2="412" stroke="#C4CCD6" stroke-width="2"/>
<line x1="548" y1="519" x2="136" y2="519" stroke="#C4CCD6" stroke-width="2"/>
<path d="M136 412H0V548H136V412Z" fill="#EEEDE9"/>
<path d="M77.5999 432H58.3999V451.2H77.5999V432Z" fill="#618794"/>
<path d="M77.5999 470.4H58.3999V489.6H77.5999V470.4Z" fill="#618794"/>
<path d="M77.5999 508.8H58.3999V528H77.5999V508.8Z" fill="#618794"/>
<path d="M29.6001 452.56C35.6532 452.56 40.5602 447.653 40.5602 441.6C40.5602 435.547 35.6532 430.64 29.6001 430.64C23.5471 430.64 18.6401 435.547 18.6401 441.6C18.6401 447.653 23.5471 452.56 29.6001 452.56Z" fill="#FF5F46"/>
<path d="M29.6001 529.36C35.6532 529.36 40.5602 524.453 40.5602 518.4C40.5602 512.347 35.6532 507.44 29.6001 507.44C23.5471 507.44 18.6401 512.347 18.6401 518.4C18.6401 524.453 23.5471 529.36 29.6001 529.36Z" fill="#FF5F46"/>
<path d="M29.6001 490.96C35.6532 490.96 40.5602 486.053 40.5602 480C40.5602 473.947 35.6532 469.04 29.6001 469.04C23.5471 469.04 18.6401 473.947 18.6401 480C18.6401 486.053 23.5471 490.96 29.6001 490.96Z" fill="#FF5F46"/>
<path d="M106.4 430.8L112.32 441.04L118.16 451.2H106.4H94.6401L100.56 441.04L106.4 430.8Z" fill="#1B3139"/>
<path d="M106.4 469.2L112.32 479.44L118.16 489.6H106.4H94.6401L100.56 479.44L106.4 469.2Z" fill="#1B3139"/>
<path d="M106.4 507.6L112.32 517.84L118.16 528H106.4H94.6401L100.56 517.84L106.4 507.6Z" fill="#1B3139"/>
<rect x="685" y="137" width="69" height="69" fill="#D69EA8"/>
<rect x="617" y="343" width="68" height="68" fill="#FFDB96"/>
<rect x="685" y="206" width="137" height="137" fill="#EEEDE9"/>
</svg>
