<svg width="20" height="13" viewBox="0 0 20 13" fill="none" xmlns="http://www.w3.org/2000/svg">
<path d="M5.66419 5.39143C5.66419 5.64252 5.69043 5.84551 5.73654 5.99469C5.78981 6.14387 5.8558 6.3061 5.94802 6.483C5.98141 6.53762 5.99413 6.59142 5.99413 6.63871C5.99413 6.70637 5.95438 6.77403 5.86852 6.84169L5.45192 7.1262C5.39229 7.16696 5.33266 7.18734 5.28019 7.18734C5.2142 7.18734 5.14822 7.1531 5.08223 7.09278C4.99001 6.99088 4.9105 6.88245 4.84451 6.77403C4.77853 6.65909 4.71254 6.53028 4.6394 6.37376C4.12422 6.9974 3.47626 7.30881 2.69634 7.30881C2.1414 7.30881 1.69857 7.14577 1.3742 6.8205C1.05062 6.49523 0.885254 6.06154 0.885254 5.51942C0.885254 4.94307 1.08322 4.47595 1.48709 4.12297C1.89097 3.76998 2.42603 3.59471 3.10657 3.59471C3.33157 3.59471 3.56292 3.61509 3.807 3.64933C4.05187 3.68357 4.3031 3.73737 4.56705 3.79851V3.30368C4.56705 2.78847 4.46131 2.42978 4.25619 2.21945C4.04471 2.00913 3.68774 1.90804 3.17892 1.90804C2.94757 1.90804 2.70985 1.93494 2.46498 1.99608C2.22011 2.05723 1.9824 2.13141 1.75104 2.22679C1.6453 2.27407 1.5658 2.30097 1.51969 2.31483C1.47358 2.32869 1.44019 2.33521 1.41395 2.33521C1.32173 2.33521 1.27482 2.26755 1.27482 2.12489V1.7931C1.27482 1.68467 1.28834 1.60315 1.32093 1.55587C1.35432 1.50859 1.41316 1.46131 1.50617 1.41321C1.73753 1.29093 2.01499 1.18984 2.33937 1.10832C2.66295 1.02028 3.0064 0.979518 3.37052 0.979518C4.15681 0.979518 4.73241 1.16212 5.1021 1.52815C5.46543 1.89418 5.65068 2.45016 5.65068 3.19526V5.39143H5.66419ZM2.98016 6.42186C3.198 6.42186 3.423 6.3811 3.66071 6.29958C3.89843 6.21806 4.1099 6.06887 4.28879 5.86589C4.39453 5.73708 4.47403 5.59442 4.51378 5.43219C4.55353 5.26915 4.57977 5.07269 4.57977 4.8428V4.55829C4.38817 4.51101 4.18305 4.47025 3.97157 4.44335C3.76009 4.41644 3.55497 4.40258 3.34985 4.40258C2.90702 4.40258 2.58344 4.49063 2.36481 4.67405C2.14697 4.85666 2.04123 5.11426 2.04123 5.45339C2.04123 5.77214 2.12073 6.00936 2.2861 6.17159C2.44511 6.34034 2.67646 6.42186 2.98016 6.42186ZM8.2878 7.15392C8.16854 7.15392 8.08984 7.13354 8.03657 7.08626C7.9833 7.0455 7.93719 6.95093 7.89744 6.82213L6.34474 1.58277C6.30499 1.44745 6.28511 1.35941 6.28511 1.31131C6.28511 1.20289 6.33838 1.14174 6.44412 1.14174H7.09128C7.21689 1.14174 7.30275 1.16212 7.34887 1.20941C7.40213 1.25017 7.44109 1.34473 7.48084 1.47353L8.5915 5.96045L9.62266 1.47353C9.65605 1.33821 9.69501 1.25017 9.74827 1.20941C9.80154 1.16865 9.89376 1.14174 10.013 1.14174H10.5417C10.6673 1.14174 10.7532 1.16212 10.8065 1.20941C10.8597 1.25017 10.9058 1.34473 10.9321 1.47353L11.9767 6.01425L13.12 1.47353C13.1598 1.33821 13.2059 1.25017 13.252 1.20941C13.3052 1.16865 13.3911 1.14174 13.5096 1.14174H14.1241C14.2299 1.14174 14.2895 1.19636 14.2895 1.31131C14.2895 1.34555 14.2831 1.37897 14.276 1.41973C14.2696 1.46049 14.2561 1.5143 14.2299 1.58929L12.6366 6.82865C12.5969 6.96397 12.5508 7.05202 12.4975 7.09278C12.4442 7.13354 12.3584 7.16044 12.2463 7.16044H11.6786C11.553 7.16044 11.4671 7.14006 11.4139 7.09278C11.3606 7.0455 11.3145 6.95745 11.2883 6.82131L10.2635 2.45016L9.24581 6.81479C9.21242 6.95012 9.17346 7.03816 9.1202 7.08626C9.06693 7.13354 8.97471 7.15392 8.85545 7.15392H8.2878ZM16.7819 7.33652C16.4385 7.33652 16.0942 7.29576 15.7643 7.21424C15.4335 7.13272 15.176 7.04468 15.0042 6.94278C14.8985 6.88164 14.8261 6.81398 14.7991 6.75283C14.7729 6.69169 14.7594 6.62403 14.7594 6.56289V6.21724C14.7594 6.07458 14.8126 6.00692 14.9112 6.00692C14.951 6.00692 14.9907 6.01344 15.0305 6.0273C15.0702 6.04116 15.1298 6.06806 15.1958 6.09496C15.4208 6.19686 15.6649 6.27757 15.9233 6.33219C16.188 6.38681 16.4456 6.41371 16.7096 6.41371C17.1262 6.41371 17.4498 6.33952 17.6747 6.19034C17.8997 6.04116 18.0182 5.82431 18.0182 5.54632C18.0182 5.35638 17.9586 5.20068 17.8401 5.07187C17.7209 4.94307 17.4967 4.82812 17.1723 4.7197L16.2135 4.41481C15.7309 4.25911 15.3739 4.0284 15.1561 3.72351C14.9382 3.42515 14.8253 3.09336 14.8253 2.74037C14.8253 2.45586 14.885 2.20478 15.0034 1.98793C15.1219 1.77109 15.2809 1.58114 15.4797 1.43196C15.6776 1.27625 15.9026 1.16049 16.1674 1.07979C16.4321 0.998267 16.7096 0.964844 17.0006 0.964844C17.146 0.964844 17.2979 0.971365 17.4434 0.991746C17.5952 1.01213 17.7344 1.03903 17.8727 1.06593C18.0047 1.10017 18.1303 1.13359 18.2496 1.17435C18.3688 1.21511 18.461 1.25587 18.527 1.29663C18.6192 1.35125 18.686 1.40506 18.725 1.4662C18.7647 1.52082 18.7846 1.595 18.7846 1.68957V2.00913C18.7846 2.15179 18.7313 2.22597 18.6328 2.22597C18.5795 2.22597 18.4936 2.19907 18.3815 2.14445C18.0047 1.96837 17.5817 1.88032 17.1127 1.88032C16.7358 1.88032 16.4385 1.94147 16.2334 2.07027C16.0282 2.19907 15.9225 2.39554 15.9225 2.67352C15.9225 2.86347 15.9885 3.02569 16.1205 3.1545C16.2524 3.2833 16.4973 3.4121 16.8479 3.52705L17.7868 3.83194C18.2631 3.98764 18.6065 4.20449 18.8116 4.48248C19.0168 4.76046 19.1153 5.07921 19.1153 5.43138C19.1153 5.72241 19.0557 5.98735 18.9436 6.21724C18.8244 6.44795 18.6662 6.65093 18.461 6.81398C18.2559 6.98354 18.0118 7.10501 17.7272 7.19386C17.4291 7.28924 17.119 7.33652 16.7819 7.33652Z" fill="#232F3E"/>
<path d="M18.0714 10.5483C15.8844 12.1498 12.7067 13.0005 9.9744 13.0005C6.145 13.0005 2.69462 11.5964 0.0886491 9.26319C-0.117654 9.07847 0.0686585 8.82794 0.314943 8.97303C3.13362 10.5943 6.61038 11.5766 10.2071 11.5766C12.6339 11.5766 15.2991 11.0755 17.7523 10.0473C18.1178 9.88237 18.4304 10.2843 18.0714 10.5483Z" fill="#FF9900"/>
<path d="M19.0022 9.39652C18.7253 9.03491 17.1685 9.22256 16.4624 9.30954C16.2513 9.33612 16.218 9.14847 16.4092 9.00833C17.6494 8.12484 19.6877 8.37853 19.925 8.6733C20.1622 8.97451 19.8591 11.0435 18.6983 12.0349C18.5206 12.1887 18.3484 12.1082 18.4277 11.9077C18.692 11.244 19.2791 9.75088 19.0022 9.39652Z" fill="#FF9900"/>
</svg>
