<svg width="1648" height="4469" viewBox="0 0 1648 4469" fill="none" xmlns="http://www.w3.org/2000/svg">
<rect width="1648" height="4469" fill="white"/>
<g clip-path="url(#clip0_114_103)">
<path d="M-414 1442.5V509.5L393 43L1200 509.5V1442.5L393 1909L-414 1442.5Z" fill="#F9F7F4"/>
</g>
<g clip-path="url(#clip1_114_103)">
<path d="M1648 1933C875.547 1933 252 2557.44 252 3331L1648 3331L1648 1933Z" fill="#F9F7F4"/>
</g>
<path d="M1329.04 3674.1C1331.94 3674.1 1334.29 3671.75 1334.29 3668.85C1334.29 3665.95 1331.94 3663.6 1329.04 3663.6C1326.13 3663.6 1323.78 3665.95 1323.78 3668.85C1323.78 3671.75 1326.13 3674.1 1329.04 3674.1Z" fill="#E3E2E0"/>
<path d="M1390.85 3709.71C1393.75 3709.71 1396.1 3707.36 1396.1 3704.46C1396.1 3701.56 1393.75 3699.21 1390.85 3699.21C1387.95 3699.21 1385.59 3701.56 1385.59 3704.46C1385.59 3707.36 1387.95 3709.71 1390.85 3709.71Z" fill="#E3E2E0"/>
<path d="M1452.78 3674.1C1455.68 3674.1 1458.03 3671.75 1458.03 3668.85C1458.03 3665.95 1455.68 3663.6 1452.78 3663.6C1449.87 3663.6 1447.52 3665.95 1447.52 3668.85C1447.52 3671.75 1449.87 3674.1 1452.78 3674.1Z" fill="#E3E2E0"/>
<path d="M1267.11 3781.14C1270.01 3781.14 1272.37 3778.79 1272.37 3775.89C1272.37 3773 1270.01 3770.65 1267.11 3770.65C1264.21 3770.65 1261.86 3773 1261.86 3775.89C1261.86 3778.79 1264.21 3781.14 1267.11 3781.14Z" fill="#E3E2E0"/>
<path d="M1329.04 3745.54C1331.94 3745.54 1334.29 3743.19 1334.29 3740.29C1334.29 3737.39 1331.94 3735.04 1329.04 3735.04C1326.13 3735.04 1323.78 3737.39 1323.78 3740.29C1323.78 3743.19 1326.13 3745.54 1329.04 3745.54Z" fill="#E3E2E0"/>
<path d="M1329.04 3816.87C1331.94 3816.87 1334.29 3814.51 1334.29 3811.62C1334.29 3808.72 1331.94 3806.37 1329.04 3806.37C1326.14 3806.37 1323.78 3808.72 1323.78 3811.62C1323.78 3814.51 1326.14 3816.87 1329.04 3816.87Z" fill="#E3E2E0"/>
<path d="M1329.04 3888.19C1331.94 3888.19 1334.29 3885.84 1334.29 3882.94C1334.29 3880.04 1331.94 3877.69 1329.04 3877.69C1326.14 3877.69 1323.78 3880.04 1323.78 3882.94C1323.78 3885.84 1326.14 3888.19 1329.04 3888.19Z" fill="#E3E2E0"/>
<path d="M1514.7 3781.14C1517.61 3781.14 1519.96 3778.79 1519.96 3775.89C1519.96 3773 1517.61 3770.65 1514.7 3770.65C1511.8 3770.65 1509.45 3773 1509.45 3775.89C1509.45 3778.79 1511.8 3781.14 1514.7 3781.14Z" fill="#E3E2E0"/>
<path d="M1576.63 3745.54C1579.53 3745.54 1581.89 3743.19 1581.89 3740.29C1581.89 3737.39 1579.53 3735.04 1576.63 3735.04C1573.73 3735.04 1571.38 3737.39 1571.38 3740.29C1571.38 3743.19 1573.73 3745.54 1576.63 3745.54Z" fill="#E3E2E0"/>
<path d="M1576.63 3816.87C1579.53 3816.87 1581.89 3814.51 1581.89 3811.62C1581.89 3808.72 1579.53 3806.37 1576.63 3806.37C1573.73 3806.37 1571.38 3808.72 1571.38 3811.62C1571.38 3814.51 1573.73 3816.87 1576.63 3816.87Z" fill="#E3E2E0"/>
<path d="M1452.66 3745.77C1455.56 3745.77 1457.92 3743.42 1457.92 3740.52C1457.92 3737.62 1455.56 3735.27 1452.66 3735.27C1449.76 3735.27 1447.41 3737.62 1447.41 3740.52C1447.41 3743.42 1449.76 3745.77 1452.66 3745.77Z" fill="#E3E2E0"/>
<path d="M1452.66 3816.98C1455.56 3816.98 1457.92 3814.63 1457.92 3811.73C1457.92 3808.83 1455.56 3806.48 1452.66 3806.48C1449.76 3806.48 1447.41 3808.83 1447.41 3811.73C1447.41 3814.63 1449.76 3816.98 1452.66 3816.98Z" fill="#E3E2E0"/>
<path d="M1452.78 3888.19C1455.68 3888.19 1458.03 3885.84 1458.03 3882.94C1458.03 3880.04 1455.68 3877.69 1452.78 3877.69C1449.87 3877.69 1447.52 3880.04 1447.52 3882.94C1447.52 3885.84 1449.87 3888.19 1452.78 3888.19Z" fill="#E3E2E0"/>
<path d="M1576.63 3888.19C1579.53 3888.19 1581.89 3885.84 1581.89 3882.94C1581.89 3880.04 1579.53 3877.69 1576.63 3877.69C1573.73 3877.69 1571.38 3880.04 1571.38 3882.94C1571.38 3885.84 1573.73 3888.19 1576.63 3888.19Z" fill="#E3E2E0"/>
<path d="M1638.44 3852.47C1641.34 3852.47 1643.7 3850.12 1643.7 3847.22C1643.7 3844.32 1641.34 3841.97 1638.44 3841.97C1635.54 3841.97 1633.19 3844.32 1633.19 3847.22C1633.19 3850.12 1635.54 3852.47 1638.44 3852.47Z" fill="#E3E2E0"/>
<path d="M1267.11 4066.57C1270.01 4066.57 1272.37 4064.22 1272.37 4061.32C1272.37 4058.42 1270.01 4056.07 1267.11 4056.07C1264.21 4056.07 1261.86 4058.42 1261.86 4061.32C1261.86 4064.22 1264.21 4066.57 1267.11 4066.57Z" fill="#E3E2E0"/>
<path d="M1329.04 3959.75C1331.94 3959.75 1334.29 3957.4 1334.29 3954.5C1334.29 3951.6 1331.94 3949.25 1329.04 3949.25C1326.13 3949.25 1323.78 3951.6 1323.78 3954.5C1323.78 3957.4 1326.13 3959.75 1329.04 3959.75Z" fill="#E3E2E0"/>
<path d="M1329.04 4030.96C1331.94 4030.96 1334.29 4028.61 1334.29 4025.71C1334.29 4022.81 1331.94 4020.46 1329.04 4020.46C1326.14 4020.46 1323.78 4022.81 1323.78 4025.71C1323.78 4028.61 1326.14 4030.96 1329.04 4030.96Z" fill="#E3E2E0"/>
<path d="M1205.18 3959.86C1208.09 3959.86 1210.44 3957.51 1210.44 3954.61C1210.44 3951.71 1208.09 3949.36 1205.18 3949.36C1202.28 3949.36 1199.93 3951.71 1199.93 3954.61C1199.93 3957.51 1202.28 3959.86 1205.18 3959.86Z" fill="#E3E2E0"/>
<path d="M1205.18 3887.89C1208.09 3887.89 1210.44 3885.54 1210.44 3882.64C1210.44 3879.74 1208.09 3877.39 1205.18 3877.39C1202.28 3877.39 1199.93 3879.74 1199.93 3882.64C1199.93 3885.54 1202.28 3887.89 1205.18 3887.89Z" fill="#E3E2E0"/>
<path d="M1205.18 4031.19C1208.09 4031.19 1210.44 4028.84 1210.44 4025.94C1210.44 4023.04 1208.09 4020.69 1205.18 4020.69C1202.28 4020.69 1199.93 4023.04 1199.93 4025.94C1199.93 4028.84 1202.28 4031.19 1205.18 4031.19Z" fill="#E3E2E0"/>
<path d="M1143.26 3995.35C1146.16 3995.35 1148.51 3993 1148.51 3990.11C1148.51 3987.21 1146.16 3984.86 1143.26 3984.86C1140.35 3984.86 1138 3987.21 1138 3990.11C1138 3993 1140.35 3995.35 1143.26 3995.35Z" fill="#E3E2E0"/>
<path d="M1267.11 3923.91C1270.01 3923.91 1272.37 3921.56 1272.37 3918.66C1272.37 3915.76 1270.01 3913.41 1267.11 3913.41C1264.21 3913.41 1261.86 3915.76 1261.86 3918.66C1261.86 3921.56 1264.21 3923.91 1267.11 3923.91Z" fill="#E3E2E0"/>
<path d="M1205.18 4102.4C1208.09 4102.4 1210.44 4100.05 1210.44 4097.15C1210.44 4094.25 1208.09 4091.9 1205.18 4091.9C1202.28 4091.9 1199.93 4094.25 1199.93 4097.15C1199.93 4100.05 1202.28 4102.4 1205.18 4102.4Z" fill="#E3E2E0"/>
<path d="M1329.04 4102.4C1331.94 4102.4 1334.29 4100.05 1334.29 4097.15C1334.29 4094.25 1331.94 4091.9 1329.04 4091.9C1326.13 4091.9 1323.78 4094.25 1323.78 4097.15C1323.78 4100.05 1326.13 4102.4 1329.04 4102.4Z" fill="#E3E2E0"/>
<path d="M1576.63 3959.75C1579.53 3959.75 1581.89 3957.4 1581.89 3954.5C1581.89 3951.6 1579.53 3949.25 1576.63 3949.25C1573.73 3949.25 1571.38 3951.6 1571.38 3954.5C1571.38 3957.4 1573.73 3959.75 1576.63 3959.75Z" fill="#E3E2E0"/>
<path d="M1452.66 3959.86C1455.56 3959.86 1457.92 3957.51 1457.92 3954.61C1457.92 3951.71 1455.56 3949.36 1452.66 3949.36C1449.76 3949.36 1447.41 3951.71 1447.41 3954.61C1447.41 3957.51 1449.76 3959.86 1452.66 3959.86Z" fill="#E3E2E0"/>
<path d="M1452.66 4031.19C1455.56 4031.19 1457.92 4028.84 1457.92 4025.94C1457.92 4023.04 1455.56 4020.69 1452.66 4020.69C1449.76 4020.69 1447.41 4023.04 1447.41 4025.94C1447.41 4028.84 1449.76 4031.19 1452.66 4031.19Z" fill="#E3E2E0"/>
<path d="M1390.85 3995.35C1393.75 3995.35 1396.1 3993 1396.1 3990.11C1396.1 3987.21 1393.75 3984.86 1390.85 3984.86C1387.95 3984.86 1385.59 3987.21 1385.59 3990.11C1385.59 3993 1387.95 3995.35 1390.85 3995.35Z" fill="#E3E2E0"/>
<path d="M1514.7 3923.91C1517.61 3923.91 1519.96 3921.56 1519.96 3918.66C1519.96 3915.76 1517.61 3913.41 1514.7 3913.41C1511.8 3913.41 1509.45 3915.76 1509.45 3918.66C1509.45 3921.56 1511.8 3923.91 1514.7 3923.91Z" fill="#E3E2E0"/>
<path d="M1390.85 3852.36C1393.75 3852.36 1396.1 3850.01 1396.1 3847.11C1396.1 3844.21 1393.75 3841.86 1390.85 3841.86C1387.95 3841.86 1385.59 3844.21 1385.59 3847.11C1385.59 3850.01 1387.95 3852.36 1390.85 3852.36Z" fill="#E3E2E0"/>
<path opacity="0.3" d="M1266.74 3846.96L1266.74 4132.79" stroke="#E5E3DF" stroke-width="4.05434" stroke-miterlimit="10"/>
<path opacity="0.3" d="M1514.82 3704V3989.76" stroke="#E5E3DF" stroke-width="4.05434" stroke-miterlimit="10"/>
<path opacity="0.3" d="M1390.85 3627.54V3771.22" stroke="#E5E3DF" stroke-width="4.05434" stroke-miterlimit="10"/>
<path opacity="0.3" d="M1638.44 3779.78V3923.46" stroke="#E5E3DF" stroke-width="4.05434" stroke-miterlimit="10"/>
<path opacity="0.3" d="M1143.26 3912.96V4056.64" stroke="#E5E3DF" stroke-width="4.05434" stroke-miterlimit="10"/>
<path opacity="0.3" d="M1390.4 3780.06L1390.4 3920.95" stroke="#E5E3DF" stroke-width="4.05434" stroke-miterlimit="10"/>
<path opacity="0.3" d="M1266.74 3707.09L1266.74 3847.97" stroke="#E5E3DF" stroke-width="4.05434" stroke-miterlimit="10"/>
<path opacity="0.3" d="M1390.4 3923.99L1390.4 4064.88" stroke="#E5E3DF" stroke-width="4.05434" stroke-miterlimit="10"/>
<path opacity="0.3" d="M1390.91 3918.95L1267.25 3848" stroke="#E5E3DF" stroke-width="4.05434" stroke-miterlimit="10"/>
<path opacity="0.3" d="M1264.14 4130.82L1139.49 4059.03" stroke="#E5E3DF" stroke-width="4.05434" stroke-miterlimit="10"/>
<path opacity="0.3" d="M1512.88 3847.11L1388.34 3775.21" stroke="#E5E3DF" stroke-width="4.05434" stroke-miterlimit="10"/>
<path opacity="0.3" d="M1640.61 3776.92L1515.96 3705.14" stroke="#E5E3DF" stroke-width="4.05434" stroke-miterlimit="10"/>
<path opacity="0.3" d="M1396.56 3778.75L1271.91 3706.97" stroke="#E5E3DF" stroke-width="4.05434" stroke-miterlimit="10"/>
<path opacity="0.3" d="M1272.71 3993.87L1148.17 3921.97" stroke="#E5E3DF" stroke-width="4.05434" stroke-miterlimit="10"/>
<path opacity="0.3" d="M1391.12 4061.45L1266.58 3989.55" stroke="#E5E3DF" stroke-width="4.05434" stroke-miterlimit="10"/>
<path opacity="0.3" d="M1515.5 3704.68L1390.85 3632.9" stroke="#E5E3DF" stroke-width="4.05434" stroke-miterlimit="10"/>
<path opacity="0.3" d="M1270.42 3845.28L1394.96 3773.38" stroke="#E5E3DF" stroke-width="4.05434" stroke-miterlimit="10"/>
<path opacity="0.3" d="M1137.57 3921.04L1262.11 3849.14" stroke="#E5E3DF" stroke-width="4.05434" stroke-miterlimit="10"/>
<path opacity="0.3" d="M1390.85 3918.78L1515.5 3846.88" stroke="#E5E3DF" stroke-width="4.05434" stroke-miterlimit="10"/>
<path opacity="0.3" d="M1390.85 4061.66L1515.5 3989.88" stroke="#E5E3DF" stroke-width="4.05434" stroke-miterlimit="10"/>
<path opacity="0.3" d="M1266.66 4133.1L1391.31 4061.2" stroke="#E5E3DF" stroke-width="4.05434" stroke-miterlimit="10"/>
<path opacity="0.3" d="M1514.25 3847.11L1638.9 3775.21" stroke="#E5E3DF" stroke-width="4.05434" stroke-miterlimit="10"/>
<path opacity="0.3" d="M1516.76 3988.74L1641.41 3916.95" stroke="#E5E3DF" stroke-width="4.05434" stroke-miterlimit="10"/>
<path opacity="0.3" d="M1261.17 3993.95L1390.91 3918.95" stroke="#E5E3DF" stroke-width="4.05434" stroke-miterlimit="10"/>
<path opacity="0.3" d="M1142.8 4061.66L1267.45 3989.88" stroke="#E5E3DF" stroke-width="4.05434" stroke-miterlimit="10"/>
<path opacity="0.3" d="M1395.65 3773.96L1520.19 3702.17" stroke="#E5E3DF" stroke-width="4.05434" stroke-miterlimit="10"/>
<path opacity="0.3" d="M1270.88 3702.17L1395.53 3630.28" stroke="#E5E3DF" stroke-width="4.05434" stroke-miterlimit="10"/>
<path d="M1390.85 3642.26C1395.9 3642.26 1399.99 3638.17 1399.99 3633.13C1399.99 3628.09 1395.9 3624 1390.85 3624C1385.8 3624 1381.71 3628.09 1381.71 3633.13C1381.71 3638.17 1385.8 3642.26 1390.85 3642.26Z" fill="#E3E2E0"/>
<path d="M1267.11 3713.24C1272.16 3713.24 1276.25 3709.15 1276.25 3704.11C1276.25 3699.07 1272.16 3694.98 1267.11 3694.98C1262.06 3694.98 1257.97 3699.07 1257.97 3704.11C1257.97 3709.15 1262.06 3713.24 1267.11 3713.24Z" fill="#E3E2E0"/>
<path d="M1267.11 3856.35C1272.16 3856.35 1276.25 3852.26 1276.25 3847.22C1276.25 3842.18 1272.16 3838.09 1267.11 3838.09C1262.06 3838.09 1257.97 3842.18 1257.97 3847.22C1257.97 3852.26 1262.06 3856.35 1267.11 3856.35Z" fill="#E3E2E0"/>
<path d="M1143.26 3927.91C1148.31 3927.91 1152.4 3923.82 1152.4 3918.78C1152.4 3913.74 1148.31 3909.65 1143.26 3909.65C1138.21 3909.65 1134.12 3913.74 1134.12 3918.78C1134.12 3923.82 1138.21 3927.91 1143.26 3927.91Z" fill="#E3E2E0"/>
<path d="M1143.26 4070.33C1148.31 4070.33 1152.4 4066.24 1152.4 4061.2C1152.4 4056.16 1148.31 4052.07 1143.26 4052.07C1138.21 4052.07 1134.12 4056.16 1134.12 4061.2C1134.12 4066.24 1138.21 4070.33 1143.26 4070.33Z" fill="#E3E2E0"/>
<path d="M1267.11 3998.89C1272.16 3998.89 1276.25 3994.8 1276.25 3989.76C1276.25 3984.72 1272.16 3980.63 1267.11 3980.63C1262.06 3980.63 1257.97 3984.72 1257.97 3989.76C1257.97 3994.8 1262.06 3998.89 1267.11 3998.89Z" fill="#E3E2E0"/>
<path d="M1267.11 4142C1272.16 4142 1276.25 4137.91 1276.25 4132.87C1276.25 4127.83 1272.16 4123.74 1267.11 4123.74C1262.06 4123.74 1257.97 4127.83 1257.97 4132.87C1257.97 4137.91 1262.06 4142 1267.11 4142Z" fill="#E3E2E0"/>
<path d="M1514.82 3998.89C1519.87 3998.89 1523.96 3994.8 1523.96 3989.76C1523.96 3984.72 1519.87 3980.63 1514.82 3980.63C1509.77 3980.63 1505.68 3984.72 1505.68 3989.76C1505.68 3994.8 1509.77 3998.89 1514.82 3998.89Z" fill="#E3E2E0"/>
<path d="M1638.56 3927.45C1643.6 3927.45 1647.7 3923.36 1647.7 3918.32C1647.7 3913.28 1643.6 3909.19 1638.56 3909.19C1633.51 3909.19 1629.42 3913.28 1629.42 3918.32C1629.42 3923.36 1633.51 3927.45 1638.56 3927.45Z" fill="#E3E2E0"/>
<path d="M1638.44 3784.91C1643.49 3784.91 1647.58 3780.82 1647.58 3775.78C1647.58 3770.74 1643.49 3766.65 1638.44 3766.65C1633.39 3766.65 1629.3 3770.74 1629.3 3775.78C1629.3 3780.82 1633.39 3784.91 1638.44 3784.91Z" fill="#E3E2E0"/>
<path d="M1390.85 3785.02C1395.9 3785.02 1399.99 3780.94 1399.99 3775.89C1399.99 3770.85 1395.9 3766.76 1390.85 3766.76C1385.8 3766.76 1381.71 3770.85 1381.71 3775.89C1381.71 3780.94 1385.8 3785.02 1390.85 3785.02Z" fill="#E3E2E0"/>
<path d="M1514.82 3713.7C1519.87 3713.7 1523.96 3709.61 1523.96 3704.57C1523.96 3699.53 1519.87 3695.44 1514.82 3695.44C1509.77 3695.44 1505.68 3699.53 1505.68 3704.57C1505.68 3709.61 1509.77 3713.7 1514.82 3713.7Z" fill="#E3E2E0"/>
<path d="M1390.85 3927.91C1395.9 3927.91 1399.99 3923.82 1399.99 3918.78C1399.99 3913.74 1395.9 3909.65 1390.85 3909.65C1385.8 3909.65 1381.71 3913.74 1381.71 3918.78C1381.71 3923.82 1385.8 3927.91 1390.85 3927.91Z" fill="#E3E2E0"/>
<path d="M1514.7 3856.35C1519.75 3856.35 1523.84 3852.26 1523.84 3847.22C1523.84 3842.18 1519.75 3838.09 1514.7 3838.09C1509.66 3838.09 1505.56 3842.18 1505.56 3847.22C1505.56 3852.26 1509.66 3856.35 1514.7 3856.35Z" fill="#E3E2E0"/>
<path d="M1390.85 4070.33C1395.9 4070.33 1399.99 4066.24 1399.99 4061.2C1399.99 4056.16 1395.9 4052.07 1390.85 4052.07C1385.8 4052.07 1381.71 4056.16 1381.71 4061.2C1381.71 4066.24 1385.8 4070.33 1390.85 4070.33Z" fill="#E3E2E0"/>
<defs>
<clipPath id="clip0_114_103">
<rect width="1200" height="1866" fill="white" transform="translate(0 43)"/>
</clipPath>
<clipPath id="clip1_114_103">
<rect width="1396" height="1398" fill="white" transform="translate(252 1933)"/>
</clipPath>
</defs>
</svg>
