<?xml version="1.0" encoding="UTF-8"?> <svg xmlns="http://www.w3.org/2000/svg" width="558" height="450" viewBox="0 0 558 450" fill="none"><g clip-path="url(#clip0)"><path d="M493.906 356.231H442.632V393.8H493.906V356.231Z" fill="#1B5162"></path><path d="M165.704 59H394.501V87.5696H157.668V67.0352C157.668 64.9041 158.515 62.8603 160.022 61.3535C161.529 59.8466 163.573 59 165.704 59V59Z" fill="#1B5162"></path><path d="M489.96 158.931H475.461V215.24H489.96V158.931Z" fill="#FFAB00"></path><path d="M513.128 144.459H498.629V215.24H513.128V144.459Z" fill="#42BA91"></path><path d="M536.296 166.431H521.797V215.24H536.296V166.431Z" fill="#1B5162"></path><path d="M401.671 87.5427H157.454V255.952H401.671V87.5427Z" fill="#F9F7F4"></path><path d="M279.562 87.5427H157.454V215.249H279.562V87.5427Z" fill="#42BA91"></path><path d="M218.513 255.943C218.488 242.3 219.653 228.681 221.994 215.24H164.418C155.145 241.583 155.145 270.303 164.418 296.645H221.994C219.653 283.205 218.488 269.586 218.513 255.943Z" fill="#F9F7F4"></path><path d="M337.139 215.24H394.716C386.29 191.429 370.691 170.815 350.065 156.237C329.44 141.658 304.802 133.831 279.544 133.834C306.15 133.834 328.756 167.814 337.139 215.24Z" fill="#42BA91"></path><path d="M221.995 296.646H164.418C172.844 320.457 188.443 341.07 209.068 355.649C229.694 370.228 254.332 378.054 279.589 378.051C253.011 378.051 230.369 344.044 221.995 296.646Z" fill="#231F20"></path><path d="M279.562 133.834C254.305 133.831 229.667 141.658 209.041 156.237C188.416 170.815 172.816 191.429 164.391 215.24H221.968C230.369 167.814 253.01 133.834 279.562 133.834Z" fill="#9ED6C4"></path><path d="M394.716 215.24H337.139C341.782 242.177 341.782 269.709 337.139 296.645H394.716C403.989 270.303 403.989 241.583 394.716 215.24Z" fill="#1B5162"></path><path d="M279.562 378.051C304.82 378.054 329.458 370.228 350.083 355.649C370.709 341.07 386.308 320.457 394.734 296.646H337.139C328.756 344.044 306.15 378.051 279.562 378.051Z" fill="#231F20"></path><path d="M279.562 296.645H337.139C341.782 269.709 341.782 242.177 337.139 215.24H279.562V296.645Z" fill="#42BA91"></path><path d="M221.995 215.24C217.352 242.177 217.352 269.709 221.995 296.645H279.562V215.24H221.995Z" fill="#9ED6C4"></path><path d="M337.139 215.24C328.756 167.814 306.15 133.834 279.562 133.834V215.24H337.139Z" fill="#F9F7F4"></path><path d="M337.139 296.646H279.562V378.051C306.15 378.051 328.756 344.044 337.139 296.646Z" fill="#231F20"></path><path d="M221.995 296.646C230.369 344.071 252.984 378.051 279.562 378.051V296.646H221.995Z" fill="#231F20"></path><path d="M221.995 215.24H279.562V133.834C253.01 133.834 230.369 167.814 221.995 215.24Z" fill="#1B5162"></path><path d="M225.744 234.641H0V379.221H225.744V234.641Z" fill="#9ED6C4"></path><path d="M25.4269 354.249H165.168V379.328H0" fill="#095A35"></path><path d="M442.632 255.943H250.957V393.8H442.632V255.943Z" fill="#9ED6C4"></path><path d="M442.641 255.943L346.755 324.876L250.966 255.943H442.641Z" fill="#F9F7F4"></path><path d="M376.627 324.867C376.62 318.964 374.864 313.196 371.58 308.292C368.296 303.387 363.632 299.566 358.177 297.311C352.722 295.057 346.721 294.47 340.932 295.624C335.144 296.779 329.828 299.623 325.655 303.798C321.483 307.973 318.641 313.291 317.49 319.08C316.339 324.87 316.93 330.87 319.188 336.324C321.446 341.777 325.27 346.439 330.176 349.72C335.083 353.001 340.852 354.754 346.754 354.758C350.68 354.761 354.567 353.99 358.195 352.489C361.822 350.988 365.117 348.786 367.892 346.01C370.667 343.233 372.867 339.936 374.366 336.308C375.865 332.68 376.633 328.792 376.627 324.867Z" fill="#FF6952"></path><path d="M250.948 393.8L442.641 255.943V393.8H250.948Z" fill="#1B5162"></path><path d="M398.93 348.035C399.78 348.035 400.595 347.697 401.196 347.096C401.797 346.495 402.135 345.68 402.135 344.83V344.705C402.135 343.855 401.797 343.04 401.196 342.439C400.595 341.837 399.78 341.5 398.93 341.5H381.118C380.252 341.5 379.421 341.156 378.808 340.543C378.195 339.93 377.851 339.099 377.851 338.232C377.85 337.802 377.933 337.376 378.097 336.979C378.261 336.581 378.501 336.22 378.805 335.916C379.108 335.611 379.469 335.37 379.866 335.205C380.263 335.04 380.689 334.956 381.118 334.956H404.331C413.239 334.969 421.842 338.197 428.562 344.044L442.597 356.249V393.818H351.531C351.102 393.818 350.677 393.733 350.281 393.569C349.884 393.405 349.524 393.164 349.221 392.861C348.917 392.557 348.676 392.197 348.512 391.801C348.348 391.404 348.263 390.979 348.263 390.55C348.263 390.121 348.348 389.696 348.512 389.3C348.676 388.903 348.917 388.543 349.221 388.24C349.524 387.936 349.884 387.696 350.281 387.531C350.677 387.367 351.102 387.283 351.531 387.283H387.297C387.719 387.283 388.137 387.199 388.527 387.038C388.917 386.876 389.271 386.64 389.569 386.341C389.868 386.043 390.105 385.688 390.266 385.298C390.428 384.908 390.511 384.491 390.511 384.068V383.952C390.511 383.53 390.428 383.112 390.266 382.722C390.105 382.332 389.868 381.978 389.569 381.68C389.271 381.381 388.917 381.145 388.527 380.983C388.137 380.821 387.719 380.738 387.297 380.738H351.576C350.709 380.738 349.878 380.394 349.265 379.781C348.652 379.168 348.308 378.337 348.308 377.471C348.308 376.604 348.652 375.773 349.265 375.16C349.878 374.547 350.709 374.203 351.576 374.203H387.341C388.192 374.203 389.008 373.866 389.611 373.265C390.213 372.664 390.553 371.849 390.555 370.998V370.828C390.553 369.977 390.213 369.162 389.611 368.561C389.008 367.961 388.192 367.623 387.341 367.623H351.576C351.147 367.623 350.722 367.539 350.325 367.374C349.929 367.21 349.569 366.969 349.265 366.666C348.962 366.363 348.721 366.002 348.557 365.606C348.393 365.21 348.308 364.785 348.308 364.355C348.308 363.489 348.652 362.658 349.265 362.045C349.878 361.432 350.709 361.088 351.576 361.088H387.341C388.194 361.088 389.011 360.749 389.614 360.146C390.217 359.544 390.555 358.726 390.555 357.874V357.758C390.555 356.905 390.217 356.088 389.614 355.485C389.011 354.882 388.194 354.544 387.341 354.544H351.576C351.147 354.544 350.722 354.459 350.325 354.295C349.929 354.131 349.569 353.89 349.265 353.587C348.962 353.283 348.721 352.923 348.557 352.526C348.393 352.13 348.308 351.705 348.308 351.276C348.308 350.409 348.652 349.578 349.265 348.965C349.878 348.353 350.709 348.008 351.576 348.008L398.93 348.035Z" fill="#F9F7F4"></path><path d="M401.671 67.4458H384.779V87.5427H401.671V67.4458Z" fill="#1B5162"></path><path d="M401.671 67.4459H384.779V59H393.225C395.465 59 397.613 59.8898 399.197 61.4737C400.781 63.0577 401.671 65.2059 401.671 67.4459Z" fill="#1B5162"></path><path d="M338.228 111.916C338.228 111.487 338.144 111.063 337.979 110.667C337.815 110.271 337.574 109.911 337.271 109.609C336.967 109.306 336.607 109.066 336.21 108.903C335.814 108.74 335.389 108.656 334.961 108.657H334.836C334.407 108.656 333.983 108.74 333.587 108.903C333.191 109.066 332.832 109.306 332.529 109.609C332.226 109.912 331.986 110.272 331.823 110.668C331.659 111.064 331.576 111.488 331.577 111.916V130.04C331.575 130.922 331.223 131.766 330.598 132.389C329.974 133.012 329.128 133.361 328.247 133.361C327.367 133.359 326.523 133.008 325.901 132.386C325.279 131.764 324.928 130.92 324.926 130.04V106.408C324.924 97.3391 328.2 88.5755 334.148 81.7306L346.567 67.4458H384.779V128.603C384.779 129.039 384.693 129.471 384.526 129.874C384.359 130.277 384.114 130.643 383.806 130.951C383.498 131.259 383.132 131.504 382.729 131.671C382.326 131.838 381.894 131.924 381.458 131.924C380.576 131.924 379.73 131.574 379.106 130.952C378.482 130.329 378.13 129.484 378.128 128.603V123.656C378.129 123.228 378.045 122.804 377.882 122.408C377.718 122.012 377.479 121.652 377.176 121.35C376.873 121.047 376.513 120.807 376.117 120.643C375.721 120.48 375.297 120.397 374.869 120.398H374.744C374.315 120.397 373.89 120.48 373.494 120.643C373.098 120.806 372.737 121.046 372.434 121.349C372.13 121.652 371.889 122.011 371.725 122.407C371.561 122.803 371.476 123.228 371.476 123.656V128.603C371.476 129.483 371.126 130.328 370.503 130.951C369.881 131.574 369.036 131.924 368.155 131.924C367.274 131.924 366.429 131.574 365.806 130.951C365.184 130.328 364.834 129.483 364.834 128.603V123.656C364.834 123.228 364.749 122.803 364.585 122.407C364.42 122.011 364.18 121.652 363.876 121.349C363.573 121.046 363.212 120.806 362.816 120.643C362.419 120.48 361.995 120.397 361.566 120.398H361.441C361.013 120.397 360.589 120.48 360.193 120.643C359.797 120.807 359.437 121.047 359.134 121.35C358.831 121.652 358.591 122.012 358.428 122.408C358.265 122.804 358.181 123.228 358.182 123.656V128.603C358.18 129.484 357.828 130.329 357.204 130.952C356.58 131.574 355.734 131.924 354.852 131.924C353.971 131.924 353.127 131.574 352.504 130.951C351.881 130.328 351.531 129.483 351.531 128.603V123.656C351.531 123.228 351.446 122.803 351.282 122.407C351.118 122.011 350.877 121.652 350.573 121.349C350.27 121.046 349.91 120.806 349.513 120.643C349.117 120.48 348.692 120.397 348.263 120.398H348.138C347.71 120.397 347.286 120.48 346.89 120.643C346.494 120.807 346.134 121.047 345.831 121.35C345.529 121.652 345.289 122.012 345.125 122.408C344.962 122.804 344.878 123.228 344.88 123.656V160.047C344.877 160.929 344.525 161.773 343.901 162.396C343.277 163.019 342.431 163.368 341.549 163.368C340.669 163.368 339.824 163.018 339.201 162.395C338.578 161.773 338.228 160.928 338.228 160.047V111.916Z" fill="#9ED6C4"></path><path d="M355.013 59H393.225C390.986 59.0024 388.839 59.893 387.255 61.4764C385.672 63.0598 384.781 65.2066 384.779 67.4459H346.567" fill="#9ED6C4"></path><path d="M450.034 223.766C454.772 219.963 458.622 215.169 461.313 209.721C464.003 204.273 465.469 198.302 465.609 192.227C465.748 186.153 464.557 180.121 462.12 174.555C459.682 168.989 456.056 164.024 451.497 160.007C446.938 155.99 441.555 153.019 435.727 151.302C429.898 149.585 423.764 149.164 417.755 150.068C411.747 150.971 406.008 153.178 400.943 156.534C395.877 159.89 391.606 164.313 388.43 169.493L427.999 180.332V197.625L450.034 223.766Z" fill="#1B5162"></path><path d="M388.457 193.849V169.493L428 180.332V189.733L430.678 187.054C432.723 185.124 435.439 184.068 438.251 184.109C441.062 184.15 443.747 185.285 445.734 187.274C447.722 189.263 448.856 191.948 448.895 194.759C448.934 197.571 447.876 200.287 445.945 202.33L438.356 209.919L450.007 223.775L388.404 243.497V215.24H377.86L388.457 193.849Z" fill="#F9F7F4"></path><path d="M438.374 209.91V227.498L450.034 223.766L438.374 209.91Z" fill="#1B5162"></path><path d="M424.009 149.575H388.457V169.502H424.009V149.575Z" fill="#1B5162"></path><path d="M173.007 78.1061C175.679 78.1061 177.846 75.9396 177.846 73.2671C177.846 70.5946 175.679 68.4281 173.007 68.4281C170.334 68.4281 168.168 70.5946 168.168 73.2671C168.168 75.9396 170.334 78.1061 173.007 78.1061Z" fill="#FF6952"></path><path d="M189.675 78.1061C192.348 78.1061 194.514 75.9396 194.514 73.2671C194.514 70.5946 192.348 68.4281 189.675 68.4281C187.003 68.4281 184.836 70.5946 184.836 73.2671C184.836 75.9396 187.003 78.1061 189.675 78.1061Z" fill="#FFAB00"></path><path d="M206.335 78.1061C209.008 78.1061 211.174 75.9396 211.174 73.2671C211.174 70.5946 209.008 68.4281 206.335 68.4281C203.663 68.4281 201.496 70.5946 201.496 73.2671C201.496 75.9396 203.663 78.1061 206.335 78.1061Z" stroke="#F9F7F4" stroke-width="0.866016" stroke-miterlimit="10"></path><path d="M521.949 330.215C528.062 325.321 533.031 319.149 536.506 312.132C539.981 305.114 541.879 297.421 542.065 289.593C542.251 281.764 540.722 273.989 537.584 266.815C534.447 259.64 529.777 253.238 523.903 248.06C518.029 242.881 511.092 239.051 503.581 236.838C496.069 234.625 488.164 234.083 480.421 235.249C472.677 236.415 465.283 239.262 458.756 243.59C452.23 247.917 446.73 253.621 442.641 260.3V277.852L493.585 286.369V296.494L521.949 330.215Z" fill="#42BA91"></path><path d="M534.457 274.12C547.459 274.12 558 263.58 558 250.577C558 237.575 547.459 227.034 534.457 227.034C521.454 227.034 510.914 237.575 510.914 250.577C510.914 263.58 521.454 274.12 534.457 274.12Z" fill="#42BA91"></path><path d="M442.641 291.682V277.852L493.584 286.369C494.846 284.961 496.382 283.824 498.098 283.028C499.813 282.233 501.673 281.796 503.564 281.744C505.454 281.692 507.335 282.026 509.093 282.725C510.85 283.425 512.445 284.476 513.783 285.813C515.12 287.15 516.171 288.746 516.87 290.503C517.57 292.26 517.904 294.141 517.852 296.032C517.799 297.922 517.362 299.782 516.567 301.498C515.772 303.214 514.635 304.75 513.226 306.011L506.905 312.332L521.913 330.188L442.641 355.651V319.233H428.981L442.641 291.682Z" fill="#F9F7F4"></path><path d="M531.002 288.307H542.09V334.804C542.09 340.487 539.833 345.937 535.814 349.955C531.796 353.973 526.346 356.231 520.663 356.231H493.879V325.394L531.002 288.307Z" fill="#42BA91"></path><path d="M442.632 255.943L346.799 324.876L250.957 393.8" stroke="#F9F7F4" stroke-width="1.88381" stroke-miterlimit="10"></path><path d="M513.128 125.317H498.629V139.816H513.128V125.317Z" fill="#FF6952"></path><path d="M529.046 161.779C533.05 161.779 536.296 158.533 536.296 154.53C536.296 150.526 533.05 147.28 529.046 147.28C525.043 147.28 521.797 150.526 521.797 154.53C521.797 158.533 525.043 161.779 529.046 161.779Z" fill="#42BA91"></path><path d="M346.79 328.563C348.827 328.563 350.478 326.912 350.478 324.876C350.478 322.839 348.827 321.189 346.79 321.189C344.754 321.189 343.103 322.839 343.103 324.876C343.103 326.912 344.754 328.563 346.79 328.563Z" fill="#FF6952"></path><path d="M442.633 261.657C444.669 261.657 446.32 260.006 446.32 257.969C446.32 255.933 444.669 254.282 442.633 254.282C440.596 254.282 438.945 255.933 438.945 257.969C438.945 260.006 440.596 261.657 442.633 261.657Z" fill="#FF6952"></path><path d="M173.007 102.988H193.122" stroke="#F9F7F4" stroke-width="2.6784" stroke-miterlimit="10"></path><path d="M173.007 116.175H183.06" stroke="#F9F7F4" stroke-width="2.6784" stroke-miterlimit="10"></path><path d="M173.007 129.37H197.148" stroke="#F9F7F4" stroke-width="2.6784" stroke-miterlimit="10"></path><path d="M144.401 373.167C136.156 366.566 129.456 358.24 124.77 348.774C120.084 339.308 117.526 328.931 117.276 318.372C117.027 307.813 119.09 297.327 123.323 287.649C127.556 277.972 133.856 269.339 141.779 262.355C149.703 255.371 159.059 250.205 169.191 247.221C179.323 244.237 189.985 243.506 200.43 245.079C210.874 246.653 220.848 250.493 229.65 256.331C238.453 262.168 245.872 269.861 251.386 278.87V298.02L182.64 314.037V327.688L144.401 373.167Z" fill="#42BA91"></path><path d="M251.386 321.198V291.369H182.64V314.019C180.898 312.277 178.829 310.895 176.553 309.952C174.277 309.009 171.837 308.524 169.373 308.524C166.909 308.524 164.469 309.009 162.193 309.952C159.917 310.895 157.848 312.277 156.106 314.019C154.364 315.762 152.982 317.83 152.039 320.106C151.096 322.383 150.611 324.823 150.611 327.286C150.611 329.75 151.096 332.19 152.039 334.467C152.982 336.743 154.364 338.811 156.106 340.553L164.632 349.08L144.384 373.185L164.623 379.658L251.359 393.8V358.329H269.777L251.386 321.198Z" fill="#F9F7F4"></path><path d="M164.65 349.097V379.658L144.401 373.167L164.65 349.097Z" fill="#42BA91"></path><path d="M250.957 397.487C252.994 397.487 254.645 395.836 254.645 393.8C254.645 391.764 252.994 390.113 250.957 390.113C248.921 390.113 247.27 391.764 247.27 393.8C247.27 395.836 248.921 397.487 250.957 397.487Z" fill="#FF6952"></path><path d="M197.88 102.988H206.335" stroke="#F9F7F4" stroke-width="2.6784" stroke-miterlimit="10"></path><path d="M212.763 102.988H242.52" stroke="#F9F7F4" stroke-width="2.6784" stroke-miterlimit="10"></path><path d="M249.038 102.988H261.18" stroke="#F9F7F4" stroke-width="2.6784" stroke-miterlimit="10"></path><path d="M188.658 116.175H205.63" stroke="#F9F7F4" stroke-width="2.6784" stroke-miterlimit="10"></path><path d="M211.183 116.175H234.191" stroke="#F9F7F4" stroke-width="2.6784" stroke-miterlimit="10"></path><path d="M241.029 116.175H261.18" stroke="#F9F7F4" stroke-width="2.6784" stroke-miterlimit="10"></path><path d="M204.424 129.37H227.637" stroke="#F9F7F4" stroke-width="2.6784" stroke-miterlimit="10"></path><path d="M199.577 215.24H24.9717V234.641H199.577V215.24Z" fill="#F9F7F4"></path><path d="M75.0667 181.707C68.7179 176.621 63.5589 170.207 59.9517 162.916C56.3445 155.624 54.3765 147.632 54.1857 139.5C53.995 131.367 55.5861 123.291 58.8475 115.839C62.1089 108.386 66.9615 101.738 73.0649 96.3599C79.1682 90.9819 86.3745 87.0045 94.1781 84.7069C101.982 82.4093 110.193 81.8471 118.237 83.0598C126.281 84.2724 133.962 87.2306 140.742 91.7267C147.521 96.2227 153.234 102.148 157.481 109.086L104.547 136.174V146.682L75.0667 181.707Z" fill="#1B5162"></path><path d="M90.6636 163.172V186.706L75.0664 181.707L90.6636 163.172Z" fill="#1B5162"></path><path d="M57.5766 147.932C68.804 147.932 77.9057 138.83 77.9057 127.603C77.9057 116.375 68.804 107.274 57.5766 107.274C46.3492 107.274 37.2476 116.375 37.2476 127.603C37.2476 138.83 46.3492 147.932 57.5766 147.932Z" fill="#1B5162"></path><path d="M57.5766 178.921C68.804 178.921 77.9057 169.819 77.9057 158.592C77.9057 147.365 68.804 138.263 57.5766 138.263C46.3492 138.263 37.2476 147.365 37.2476 158.592C37.2476 169.819 46.3492 178.921 57.5766 178.921Z" fill="#1B5162"></path><path d="M157.481 141.682V109.086L104.547 136.174L100.975 132.602C99.6566 131.175 98.0633 130.027 96.2908 129.23C94.5184 128.432 92.6032 127.999 90.6599 127.959C88.7165 127.918 86.785 128.27 84.9807 128.993C83.1764 129.716 81.5365 130.796 80.1591 132.167C78.7816 133.538 77.695 135.174 76.964 136.975C76.2331 138.776 75.8729 140.706 75.9051 142.649C75.9373 144.593 76.3611 146.51 77.1512 148.286C77.9413 150.062 79.0815 151.66 80.5036 152.985L90.6636 163.145L75.0664 181.706L157.481 208.098V170.305H171.658L157.481 141.682Z" fill="#F9F7F4"></path><path d="M57.5766 209.91C68.804 209.91 77.9057 200.808 77.9057 189.581C77.9057 178.354 68.804 169.252 57.5766 169.252C46.3492 169.252 37.2476 178.354 37.2476 189.581C37.2476 200.808 46.3492 209.91 57.5766 209.91Z" fill="#1B5162"></path><path d="M82.8608 209.91C94.0882 209.91 103.19 200.808 103.19 189.581C103.19 178.354 94.0882 169.252 82.8608 169.252C71.6334 169.252 62.5317 178.354 62.5317 189.581C62.5317 200.808 71.6334 209.91 82.8608 209.91Z" fill="#1B5162"></path><path d="M0 240.212V215.24H24.9716L0 240.212Z" fill="#F9F7F4"></path><path d="M24.9716 215.24V240.212H0L24.9716 215.24Z" fill="#00B379"></path><path d="M24.9716 215.24V354.249L0 379.212V240.212L24.9716 215.24Z" fill="#42BA91"></path><path d="M39.2208 229.775C41.8933 229.775 44.0598 227.608 44.0598 224.936C44.0598 222.263 41.8933 220.097 39.2208 220.097C36.5483 220.097 34.3818 222.263 34.3818 224.936C34.3818 227.608 36.5483 229.775 39.2208 229.775Z" fill="#095A35"></path><path d="M55.8805 229.775C58.553 229.775 60.7195 227.608 60.7195 224.936C60.7195 222.263 58.553 220.097 55.8805 220.097C53.208 220.097 51.0415 222.263 51.0415 224.936C51.0415 227.608 53.208 229.775 55.8805 229.775Z" fill="#00B379"></path><path d="M72.5489 229.775C75.2214 229.775 77.3879 227.608 77.3879 224.936C77.3879 222.263 75.2214 220.097 72.5489 220.097C69.8764 220.097 67.71 222.263 67.71 224.936C67.71 227.608 69.8764 229.775 72.5489 229.775Z" stroke="#42BA91" stroke-width="0.866016" stroke-miterlimit="10"></path><path d="M493.915 393.8V356.231H520.699C515.016 356.231 509.566 358.488 505.547 362.507C501.529 366.525 499.272 371.975 499.272 377.658V393.8H493.915Z" fill="#1B5162"></path><path d="M57.8714 319.769C57.554 319.77 57.2396 319.709 56.9461 319.588C56.6526 319.468 56.3858 319.29 56.1611 319.066C55.9363 318.842 55.7579 318.576 55.6362 318.283C55.5145 317.99 55.4519 317.676 55.4519 317.359V317.26C55.4519 316.943 55.5145 316.629 55.6362 316.336C55.7579 316.043 55.9363 315.777 56.1611 315.553C56.3858 315.329 56.6526 315.151 56.9461 315.031C57.2396 314.91 57.554 314.849 57.8714 314.85H71.2634C71.9153 314.847 72.5398 314.587 73 314.125C73.4602 313.663 73.7186 313.038 73.7186 312.386C73.7186 311.734 73.4602 311.108 73 310.646C72.5398 310.185 71.9153 309.924 71.2634 309.922H53.818C47.1049 309.922 40.6179 312.347 35.5514 316.751L24.9717 325.947V354.249H93.5387C94.1915 354.247 94.8169 353.986 95.2785 353.525C95.7401 353.063 96.0005 352.438 96.0028 351.785C96.0028 351.131 95.7432 350.505 95.2811 350.042C94.819 349.58 94.1922 349.321 93.5387 349.321H66.594C66.2767 349.321 65.9625 349.258 65.6695 349.136C65.3764 349.015 65.1103 348.836 64.8863 348.612C64.6624 348.387 64.485 348.12 64.3644 347.827C64.2438 347.533 64.1823 347.219 64.1834 346.901V346.812C64.1834 346.172 64.4371 345.558 64.8889 345.104C65.3408 344.651 65.9539 344.395 66.594 344.393H93.5387C94.1907 344.393 94.8161 344.134 95.278 343.674C95.7398 343.214 96.0005 342.589 96.0028 341.937C96.0028 341.284 95.7432 340.657 95.2811 340.195C94.819 339.733 94.1922 339.473 93.5387 339.473H66.594C66.2767 339.473 65.9625 339.411 65.6695 339.289C65.3764 339.167 65.1103 338.989 64.8863 338.764C64.6624 338.539 64.485 338.272 64.3644 337.979C64.2438 337.685 64.1823 337.371 64.1834 337.054V336.964C64.1823 336.647 64.2438 336.333 64.3644 336.039C64.485 335.746 64.6624 335.479 64.8863 335.254C65.1103 335.029 65.3764 334.851 65.6695 334.729C65.9625 334.608 66.2767 334.545 66.594 334.545H93.5387C94.1922 334.545 94.819 334.285 95.2811 333.823C95.7432 333.361 96.0028 332.734 96.0028 332.081C96.0005 331.429 95.7398 330.804 95.278 330.344C94.8161 329.884 94.1907 329.626 93.5387 329.626H66.594C65.9539 329.623 65.3408 329.367 64.8889 328.914C64.4371 328.46 64.1834 327.846 64.1834 327.206V327.081C64.1823 326.764 64.2438 326.449 64.3644 326.156C64.485 325.862 64.6624 325.596 64.8863 325.371C65.1103 325.146 65.3764 324.968 65.6695 324.846C65.9625 324.724 66.2767 324.662 66.594 324.662H93.5387C94.1915 324.659 94.8169 324.399 95.2785 323.937C95.7401 323.476 96.0005 322.85 96.0028 322.198C96.0005 321.545 95.7401 320.919 95.2785 320.458C94.8169 319.996 94.1915 319.736 93.5387 319.733L57.8714 319.769Z" fill="#F9F7F4"></path><path d="M24.9716 325.947L0 350.919V379.212L24.9716 354.249V325.947Z" fill="#9ED6C4"></path><path d="M64.5405 269.79L84.4321 249.899C81.8562 247.238 78.7619 245.134 75.3406 243.716C71.9192 242.299 68.2434 241.598 64.5405 241.658V269.79Z" fill="#F9F7F4"></path><path d="M64.5405 269.79H92.6727C92.7323 266.087 92.0318 262.411 90.6144 258.99C89.197 255.569 87.0929 252.474 84.4321 249.898L64.5405 269.79Z" fill="#1B5162"></path><path d="M64.5405 269.79L84.4321 289.691C87.0923 287.112 89.1959 284.017 90.6132 280.594C92.0305 277.171 92.7314 273.494 92.6727 269.79H64.5405Z" fill="#42BA91"></path><path d="M64.5405 269.79V297.931C68.2431 297.989 71.9182 297.287 75.3393 295.87C78.7604 294.453 81.8549 292.35 84.4321 289.691L64.5405 269.79Z" fill="#FF6952"></path><path d="M64.5406 269.79V241.658C60.7631 241.523 56.9972 242.151 53.4676 243.504C49.938 244.857 46.7171 246.906 43.9971 249.531C41.2771 252.156 39.1138 255.302 37.6363 258.781C36.1587 262.26 35.3972 266.001 35.3972 269.781C35.3972 273.561 36.1587 277.302 37.6363 280.781C39.1138 284.261 41.2771 287.406 43.9971 290.031C46.7171 292.656 49.938 294.706 53.4676 296.059C56.9972 297.411 60.7631 298.039 64.5406 297.904V269.79Z" fill="#FFAB00"></path></g><defs><clipPath id="clip0"><rect width="558" height="450" fill="white"></rect></clipPath></defs></svg> 