<svg width="18" height="18" viewBox="0 0 18 18" fill="none" xmlns="http://www.w3.org/2000/svg"><path d="M4.78067 9.09356L5.49168 8.36382L7.96154 10.7963L13.0696 5.70686L13.7994 6.43659L7.96154 12.2557L4.78067 9.09356ZM9 18C8.0052 18 7.05717 17.8488 6.15593 17.5463C5.2578 17.2438 4.43295 16.8165 3.68139 16.2646C2.93295 15.7157 2.28274 15.0655 1.73077 14.3139C1.18191 13.5655 0.756237 12.7422 0.453742 11.8441C0.151247 10.9428 0 9.9948 0 9C0 8.0052 0.151247 7.05873 0.453742 6.1606C0.756237 5.25936 1.18191 4.43451 1.73077 3.68607C2.28274 2.93451 2.93295 2.2843 3.68139 1.73545C4.43295 1.18347 5.2578 0.756237 6.15593 0.453742C7.05717 0.151247 8.0052 0 9 0C9.9948 0 10.9413 0.151247 11.8394 0.453742C12.7406 0.756237 13.5655 1.18347 14.3139 1.73545C15.0655 2.2843 15.7157 2.93451 16.2646 3.68607C16.8165 4.43451 17.2438 5.25936 17.5463 6.1606C17.8488 7.05873 18 8.0052 18 9C18 9.9948 17.8488 10.9428 17.5463 11.8441C17.2438 12.7422 16.8165 13.5655 16.2646 14.3139C15.7157 15.0655 15.0655 15.7157 14.3139 16.2646C13.5655 16.8165 12.7406 17.2438 11.8394 17.5463C10.9413 17.8488 9.9948 18 9 18ZM9 16.9148C9.8763 16.9148 10.7089 16.7807 11.4979 16.5125C12.29 16.2474 13.0151 15.8716 13.6731 15.3851C14.3342 14.9018 14.9064 14.3311 15.3898 13.6731C15.8763 13.012 16.2521 12.2869 16.5172 11.4979C16.7822 10.7058 16.9148 9.87318 16.9148 9C16.9148 8.1237 16.7822 7.29106 16.5172 6.50208C16.2521 5.70998 15.8763 4.98493 15.3898 4.32692C14.9064 3.6658 14.3342 3.09355 13.6731 2.61019C13.0151 2.1237 12.29 1.74792 11.4979 1.48285C10.7089 1.21777 9.8763 1.08524 9 1.08524C8.1237 1.08524 7.2895 1.21777 6.4974 1.48285C5.70842 1.74792 4.98337 2.1237 4.32225 2.61019C3.66424 3.09355 3.092 3.6658 2.60551 4.32692C2.12214 4.98493 1.74792 5.70998 1.48285 6.50208C1.21778 7.29106 1.08524 8.1237 1.08524 9C1.08524 9.87318 1.21778 10.7058 1.48285 11.4979C1.74792 12.2869 2.12214 13.012 2.60551 13.6731C3.092 14.3311 3.66424 14.9018 4.32225 15.3851C4.98337 15.8716 5.70842 16.2474 6.4974 16.5125C7.2895 16.7807 8.1237 16.9148 9 16.9148Z" fill="currentColor"/></svg>
