<svg width="727" height="64" viewBox="0 0 727 64" fill="none" xmlns="http://www.w3.org/2000/svg">
<path d="M404.95 29.2321C402.367 27.8718 399.499 26.6666 396.424 25.6503L396.396 25.6413C393.199 24.6363 390.904 23.8808 388.953 23.1928C387.017 22.5092 385.516 21.6998 384.474 20.7757C383.995 20.3575 383.357 19.611 383.357 17.9561C383.357 16.4564 383.825 15.4491 384.863 14.6981C386.132 13.7965 387.753 13.367 389.673 13.412H389.725C391.986 13.412 393.651 13.9719 394.814 15.1208C395.968 16.2608 396.55 17.5087 396.593 18.9364L396.641 20.4586C396.652 20.8296 396.947 21.1264 397.307 21.1264H412.197C412.575 21.1264 412.876 20.8004 412.861 20.4114L412.8 18.7768C412.659 14.9499 411.572 11.575 409.563 8.73073C407.567 5.93816 404.822 3.75491 401.404 2.23946C398.051 0.75323 394.178 0 389.89 0C385.603 0 381.822 0.73974 378.518 2.19224C375.111 3.66947 372.375 5.82124 370.387 8.58683C368.347 11.4244 367.349 14.8285 367.416 18.7049C367.421 23.3322 368.883 27.1118 371.754 29.9336C374.427 32.5845 378.299 34.7498 383.268 36.3732L385.731 37.1691C387.696 37.8054 389.578 38.4125 391.377 39.0016C393.644 39.7436 395.447 40.6834 396.739 41.7919C397.978 42.8577 398.238 44.4226 398.238 45.5491C398.238 47.087 397.704 48.1888 396.509 49.1219C395.176 50.1584 393.267 50.6846 390.83 50.6846C387.972 50.6846 385.841 49.9808 384.316 48.5305C382.812 47.1005 382.042 45.4029 381.964 43.3411L381.905 41.8302C381.89 41.4614 381.597 41.1691 381.241 41.1691H366.613C366.242 41.1691 365.943 41.4816 365.947 41.8661L365.965 43.458C366.01 47.7953 367.173 51.5704 369.417 54.68C371.6 57.7065 374.612 60.0516 378.368 61.6502C382.024 63.2062 386.253 63.9954 390.934 63.9954H393.119V63.8964C397.123 63.6761 400.616 62.8397 403.528 61.4007C407.063 59.6536 409.773 57.2972 411.581 54.3922C413.414 51.449 414.343 48.2203 414.343 44.7959C414.343 40.9308 413.449 37.684 411.689 35.1523C409.988 32.6812 407.721 30.6868 404.95 29.2276V29.2321Z" fill="#EDEEF1"/>
<path d="M459.518 38.8084C459.518 42.6645 458.619 45.3941 456.764 47.1591C454.883 48.9646 452.292 49.8415 448.842 49.8415C445.391 49.8415 442.718 48.9421 440.878 47.1591C439.079 45.4323 438.166 42.624 438.166 38.8084V1.68197C438.166 1.30199 437.868 0.991699 437.499 0.991699H423.412C423.046 0.991699 422.746 1.29974 422.746 1.68197V38.7274C422.746 44.3283 423.927 49.0793 426.253 52.8477C428.581 56.6161 431.762 59.4581 435.701 61.2861C439.522 63.0826 443.851 63.9955 448.568 64H448.609C453.273 63.9955 457.636 63.0849 461.579 61.2951C465.611 59.4559 468.874 56.6251 471.279 52.8814C473.702 49.1063 474.933 44.3441 474.933 38.7297V1.68197C474.933 1.30199 474.636 0.991699 474.267 0.991699H460.18C459.813 0.991699 459.513 1.29974 459.513 1.68197V38.8084H459.518Z" fill="#EDEEF1"/>
<path d="M520.573 33.8841L503.409 1.37147C503.292 1.15112 503.068 1.01172 502.825 1.01172H487.276C486.909 1.01172 486.609 1.31976 486.609 1.70199V60.7485L486.625 62.3292C486.629 62.7069 486.924 63.0127 487.291 63.0127H501.384C501.751 63.0127 502.051 62.7047 502.051 62.3224V32.508C502.051 31.7952 502.964 31.5502 503.298 32.173L515.226 54.4461C515.344 54.6642 515.567 54.8014 515.808 54.8014H526.315C526.556 54.8014 526.779 54.6665 526.896 54.4461L538.824 32.173C539.159 31.5502 540.072 31.7952 540.072 32.508V62.3224C540.072 62.7024 540.369 63.0127 540.738 63.0127H554.825C555.192 63.0127 555.492 62.7047 555.492 62.3224V1.70199C555.492 1.322 555.194 1.01172 554.825 1.01172H539.269C539.024 1.01172 538.801 1.15112 538.683 1.37372L521.745 33.8818C521.493 34.363 520.829 34.3652 520.575 33.8841H520.573Z" fill="#EDEEF1"/>
<path d="M601.499 33.8839L584.335 1.36903C584.218 1.14868 583.994 1.00928 583.751 1.00928H568.201C567.835 1.00928 567.535 1.31731 567.535 1.69955V60.7483L567.55 62.329C567.555 62.7067 567.85 63.0125 568.216 63.0125H582.31C582.677 63.0125 582.976 62.7045 582.976 62.3223V32.5078C582.976 31.7951 583.89 31.55 584.224 32.1728L596.152 54.4459C596.269 54.664 596.493 54.8012 596.734 54.8012H607.24C607.481 54.8012 607.705 54.6663 607.822 54.4459L619.75 32.1728C620.084 31.55 620.998 31.7951 620.998 32.5078V62.3223C620.998 62.7023 621.295 63.0125 621.664 63.0125H635.751C636.118 63.0125 636.417 62.7045 636.417 62.3223V1.7018C636.417 1.32181 636.12 1.01153 635.751 1.01153H620.197C619.952 1.01153 619.728 1.15093 619.611 1.37353L602.673 33.8816C602.421 34.3628 601.757 34.365 601.503 33.8839H601.499Z" fill="#EDEEF1"/>
<path d="M663.175 1.01172H649.09C648.722 1.01172 648.424 1.32076 648.424 1.70199V62.3202C648.424 62.7014 648.722 63.0105 649.09 63.0105H663.175C663.543 63.0105 663.841 62.7014 663.841 62.3202V1.70199C663.841 1.32076 663.543 1.01172 663.175 1.01172Z" fill="#EDEEF1"/>
<path d="M675.943 1.70199V13.2972C675.943 13.6772 676.241 13.9875 676.61 13.9875H692.906C693.272 13.9875 693.572 14.2956 693.572 14.6778V62.3224C693.572 62.7024 693.869 63.0127 694.238 63.0127H708.325C708.692 63.0127 708.991 62.7047 708.991 62.3224V14.6755C708.991 14.2956 709.289 13.9853 709.658 13.9853H726.036C726.403 13.9853 726.702 13.6772 726.702 13.295V1.70199C726.702 1.322 726.405 1.01172 726.036 1.01172H676.614C676.247 1.01172 675.948 1.31976 675.948 1.70199H675.943Z" fill="#EDEEF1"/>
<path d="M237.793 11.0947V1.25325C237.793 0.931719 237.541 0.670898 237.231 0.670898H230.05C229.74 0.670898 229.488 0.931719 229.488 1.25325V11.0947C229.488 11.4162 229.237 11.6771 228.926 11.6771H219.279C218.969 11.6771 218.717 11.9379 218.717 12.2594V19.9446C218.717 20.2661 218.969 20.527 219.279 20.527H228.926C229.237 20.527 229.488 20.7878 229.488 21.1093V30.9508C229.488 31.2723 229.74 31.5331 230.05 31.5331H237.231C237.541 31.5331 237.793 31.2723 237.793 30.9508V21.1093C237.793 20.7878 238.044 20.527 238.355 20.527H247.944C248.254 20.527 248.506 20.2661 248.506 19.9446V12.2594C248.506 11.9379 248.254 11.6771 247.944 11.6771H238.355C238.044 11.6771 237.793 11.4162 237.793 11.0947Z" fill="#EDEEF1"/>
<path d="M257.669 51.4566L253.442 62.501C253.338 62.7573 253.104 62.9305 252.846 62.9305H238.528C238.062 62.9305 237.752 62.4336 237.934 61.9906L263.348 1.07337C263.452 0.830539 263.687 0.670898 263.945 0.670898H278.833C279.091 0.670898 279.325 0.832786 279.429 1.08686L304.249 61.9906C304.429 62.4336 304.119 62.917 303.652 62.917H288.725C288.454 62.917 288.22 62.7416 288.116 62.4875L283.967 51.4431H257.656L257.669 51.4566ZM270.921 16.4168L262.157 39.4454H279.531L270.921 16.4168Z" fill="#EDEEF1"/>
<path d="M310.225 62.3026V1.39885C310.225 1.02336 310.511 0.726562 310.873 0.726562H324.891C325.256 0.726562 325.54 1.02111 325.54 1.39885V62.3026C325.54 62.6781 325.256 62.9749 324.891 62.9749H310.873C310.511 62.9749 310.225 62.6804 310.225 62.3026Z" fill="#EDEEF1"/>
<path d="M25.6651 63.0669H0.949589C0.587212 63.0669 0.300781 62.7701 0.300781 62.3946V1.39867C0.300781 1.02318 0.585042 0.712891 0.949589 0.712891H26.2748C33.2121 0.712891 39.06 2.12267 43.8187 4.904C48.7987 7.88769 52.481 11.7685 54.8289 16.4993C57.1767 21.2412 58.355 26.361 58.355 31.8427C58.355 38.5476 56.9164 44.2294 54.0108 48.8792C50.9122 53.7426 46.8783 57.3176 41.9113 59.6133C36.9313 61.9112 31.5239 63.0669 25.6759 63.0669H25.6629H25.6651ZM26.7023 49.9C29.2823 49.9 31.7604 49.2817 34.1451 48.0315C36.5321 46.7814 38.5023 44.7803 40.0842 42.0259C41.5489 39.3795 42.2759 36.0608 42.2759 32.0158C42.2759 27.9709 41.499 24.4925 39.954 21.8326C38.255 19.0378 36.1675 17.0366 33.6786 15.8135C31.1897 14.5903 28.6075 13.972 25.9363 13.972H16.0414V49.8977H26.7001L26.7023 49.9Z" fill="#EDEEF1"/>
<path d="M124.554 63.0668H109.2C108.927 63.0668 108.694 62.8914 108.59 62.6373L104.621 52.0359H78.5563L74.4985 62.6508C74.3943 62.9072 74.1621 63.0803 73.9018 63.0803H59.1701C58.7036 63.0803 58.3933 62.5834 58.5734 62.1404L83.9008 1.13099C84.0049 0.888155 84.2371 0.728516 84.4975 0.728516H99.8129C100.073 0.728516 100.305 0.890404 100.41 1.14448L125.151 62.1427C125.333 62.5856 125.021 63.069 124.554 63.069V63.0668ZM99.9821 39.5817L91.7342 17.3468L83.3062 39.5817H99.9821Z" fill="#EDEEF1"/>
<path d="M150.931 63.0671H136.486C136.124 63.0671 135.837 62.7703 135.837 62.3948V14.1498H118.604C118.242 14.1498 117.955 13.8553 117.955 13.4775V1.39885C117.955 1.02336 118.242 0.726562 118.604 0.726562H169.007C169.369 0.726562 169.656 1.02111 169.656 1.39885V13.4775C169.656 13.853 169.371 14.1498 169.007 14.1498H151.591V62.397C151.591 62.7725 151.294 63.0693 150.929 63.0693L150.931 63.0671Z" fill="#EDEEF1"/>
<path d="M228.372 63.0668H213.017C212.744 63.0668 212.512 62.8914 212.408 62.6373L208.439 52.0359H182.387L178.327 62.6508C178.223 62.9072 177.99 63.0803 177.73 63.0803H162.985C162.519 63.0803 162.206 62.5834 162.389 62.1404L187.718 1.13099C187.822 0.888155 188.055 0.728516 188.315 0.728516H203.63C203.891 0.728516 204.123 0.890404 204.227 1.14448L228.969 62.1427C229.151 62.5856 228.838 63.069 228.372 63.069V63.0668ZM203.8 39.5817L195.552 17.3468L187.124 39.5817H203.8Z" fill="#EDEEF1"/>
</svg>
