<?xml version="1.0" encoding="UTF-8"?> <svg xmlns="http://www.w3.org/2000/svg" width="111" height="53" viewBox="0 0 111 53" fill="none"><g clip-path="url(#clip0_2_421)"><path d="M78.8581 10.1976V14.374C78.8581 14.4277 78.8363 14.4791 78.7976 14.5171C78.7589 14.555 78.7064 14.5763 78.6517 14.5763H77.1457C77.0909 14.5763 77.0383 14.555 76.9995 14.5171C76.9607 14.4792 76.9388 14.4277 76.9387 14.374V10.1976H72.6163C72.5615 10.1974 72.5089 10.176 72.4701 10.138C72.4313 10.1 72.4095 10.0485 72.4093 9.99472V8.42216C72.4095 8.36846 72.4314 8.31701 72.4702 8.2791C72.509 8.24118 72.5615 8.21989 72.6163 8.21989H76.9387V4.04284C76.9388 3.98914 76.9607 3.9377 76.9995 3.89978C77.0383 3.86187 77.0909 3.84058 77.1457 3.84058H78.6517C78.7064 3.84058 78.7589 3.86189 78.7976 3.89982C78.8363 3.93775 78.8581 3.9892 78.8581 4.04284V8.21989H83.1568C83.2116 8.21989 83.2641 8.2412 83.3028 8.27914C83.3415 8.31707 83.3632 8.36852 83.3632 8.42216V9.99472C83.3632 10.0484 83.3415 10.0999 83.3028 10.138C83.2641 10.176 83.2116 10.1974 83.1568 10.1976H78.8581Z" fill="#EDEEF1"></path><path d="M89.275 15.3129L87.927 18.6428C87.9113 18.6798 87.8847 18.7114 87.8507 18.7336C87.8167 18.7558 87.7768 18.7677 87.7359 18.7677H83.1721C83.1378 18.7681 83.1038 18.7601 83.0735 18.7443C83.0431 18.7286 83.0172 18.7056 82.9982 18.6776C82.9792 18.6495 82.9677 18.6172 82.9647 18.5837C82.9617 18.5501 82.9673 18.5164 82.981 18.4855L91.0835 0.119241C91.0993 0.0822665 91.1258 0.0506796 91.1598 0.0284607C91.1938 0.00624178 91.2338 -0.00561481 91.2746 -0.00561481H96.0193C96.0602 -0.00569732 96.1002 0.00612856 96.1342 0.0283578C96.1683 0.050587 96.1948 0.0822176 96.2104 0.119241L104.125 18.4893C104.138 18.5201 104.144 18.5537 104.14 18.587C104.137 18.6203 104.126 18.6523 104.107 18.6801C104.088 18.708 104.062 18.7308 104.032 18.7465C104.002 18.7622 103.968 18.7704 103.934 18.7702H99.1765C99.1352 18.7701 99.0948 18.7577 99.0607 18.7348C99.0266 18.7118 99.0004 18.6794 98.9854 18.6416L97.6642 15.3129H89.275ZM93.4979 4.7489L90.7019 11.694H96.2442L93.4979 4.7489Z" fill="#EDEEF1"></path><path d="M106.03 18.5717V0.205379C106.03 0.151734 106.052 0.100288 106.091 0.0623553C106.13 0.024423 106.182 0.00311279 106.237 0.00311279H110.704C110.759 0.00311279 110.811 0.024423 110.85 0.0623553C110.888 0.100288 110.91 0.151734 110.91 0.205379V18.5717C110.91 18.6253 110.888 18.6768 110.85 18.7147C110.811 18.7526 110.759 18.7739 110.704 18.7739H106.237C106.182 18.7739 106.13 18.7526 106.091 18.7147C106.052 18.6768 106.03 18.6253 106.03 18.5717Z" fill="#EDEEF1"></path><path d="M8.31404 18.8008H0.432553C0.405448 18.8008 0.37861 18.7955 0.353569 18.7854C0.328527 18.7752 0.305772 18.7603 0.286606 18.7415C0.26744 18.7227 0.252233 18.7004 0.241861 18.6759C0.231488 18.6514 0.226152 18.6251 0.226152 18.5985V0.205989C0.226152 0.179427 0.231488 0.153127 0.241861 0.128587C0.252233 0.104046 0.26744 0.0817478 0.286606 0.0629656C0.305772 0.0441835 0.328527 0.0292854 0.353569 0.0191205C0.37861 0.00895571 0.405448 0.00372314 0.432553 0.00372314H8.50515C10.7165 0.00372314 12.5805 0.424072 14.0971 1.26477C15.6859 2.16623 16.8563 3.33155 17.6085 4.76073C18.3581 6.19097 18.7438 7.77756 18.7329 9.38538C18.7329 11.4068 18.271 13.1186 17.3473 14.5207C16.3599 15.9873 15.0735 17.0671 13.4881 17.7601C11.9027 18.453 10.178 18.7999 8.31404 18.8008ZM8.64403 14.8322C9.46915 14.8308 10.2823 14.6383 11.017 14.2704C11.7772 13.8958 12.4077 13.2923 12.9084 12.46C13.376 11.6628 13.6091 10.6608 13.6091 9.44282C13.6091 8.20175 13.3613 7.17606 12.8695 6.37262C12.3297 5.53151 11.6625 4.92595 10.8679 4.55596C10.0979 4.19149 9.25392 4.00179 8.39876 4.00098H5.2454V14.8341H8.64657L8.64403 14.8322Z" fill="#EDEEF1"></path><path d="M39.8399 18.8007H34.9424C34.9009 18.8006 34.8605 18.7881 34.8264 18.7651C34.7923 18.742 34.7661 18.7094 34.7512 18.6715L33.4854 15.4746H25.1771L23.884 18.6728C23.8688 18.7104 23.8425 18.7427 23.8084 18.7655C23.7744 18.7883 23.7341 18.8006 23.6928 18.8007H18.9947C18.9604 18.801 18.9265 18.7928 18.8962 18.7771C18.866 18.7613 18.8402 18.7383 18.8212 18.7103C18.8022 18.6823 18.7907 18.6501 18.7876 18.6166C18.7845 18.5832 18.79 18.5494 18.8036 18.5186L26.88 0.125468C26.8956 0.0884444 26.9221 0.05681 26.9562 0.0345808C26.9902 0.0123516 27.0302 0.000529561 27.0711 0.000612075H31.9527C31.9936 0.000446344 32.0337 0.0122345 32.0677 0.0344741C32.1018 0.0567138 32.1283 0.0883952 32.1438 0.125468L40.0317 18.5179C40.0454 18.5489 40.051 18.5827 40.0479 18.6164C40.0449 18.65 40.0333 18.6823 40.0143 18.7104C39.9952 18.7385 39.9693 18.7615 39.9388 18.7773C39.9084 18.7931 39.8744 18.8011 39.8399 18.8007ZM32.0043 11.7208L29.3733 5.01793L26.6876 11.7208H32.0043Z" fill="#EDEEF1"></path><path d="M48.2482 18.8008H43.645C43.5902 18.8008 43.5377 18.7795 43.499 18.7415C43.4603 18.7036 43.4386 18.6522 43.4386 18.5985V4.04906H37.9428C37.8881 4.04906 37.8356 4.02775 37.7969 3.98982C37.7582 3.95189 37.7364 3.90044 37.7364 3.8468V0.205379C37.7364 0.151734 37.7582 0.100288 37.7969 0.0623553C37.8356 0.024423 37.8881 0.00311279 37.9428 0.00311279H54.0103C54.065 0.00311279 54.1175 0.024423 54.1562 0.0623553C54.1949 0.100288 54.2167 0.151734 54.2167 0.205379V3.85054C54.2167 3.90419 54.1949 3.95563 54.1562 3.99357C54.1175 4.0315 54.065 4.05281 54.0103 4.05281H48.4597L48.4559 18.5985C48.4556 18.6523 48.4335 18.7037 48.3946 18.7416C48.3557 18.7795 48.3031 18.8008 48.2482 18.8008Z" fill="#EDEEF1"></path><path d="M72.9343 18.8008H68.0386C67.9972 18.8004 67.9569 18.7879 67.9228 18.7649C67.8888 18.7418 67.8625 18.7093 67.8475 18.6715L66.5817 15.4746H58.2746L56.9814 18.6728C56.9664 18.7104 56.9401 18.7428 56.906 18.7656C56.8719 18.7884 56.8316 18.8007 56.7903 18.8008H52.0889C52.0546 18.801 52.0208 18.7929 51.9905 18.7771C51.9602 18.7613 51.9345 18.7384 51.9155 18.7104C51.8965 18.6824 51.885 18.6501 51.8819 18.6167C51.8788 18.5832 51.8843 18.5495 51.8978 18.5186L59.9781 0.125468C59.9939 0.0885419 60.0204 0.0569991 60.0544 0.0347904C60.0884 0.0125817 60.1284 0.000693895 60.1692 0.000612075H65.0509C65.0918 0.000446344 65.1318 0.0122345 65.1659 0.0344742C65.1999 0.0567139 65.2264 0.0883954 65.242 0.125468L73.1299 18.518C73.1437 18.5492 73.1493 18.5834 73.1461 18.6173C73.1429 18.6513 73.1309 18.6839 73.1114 18.7121C73.0919 18.7403 73.0654 18.7632 73.0345 18.7787C73.0035 18.7942 72.969 18.8018 72.9343 18.8008ZM65.0986 11.7208L62.4677 5.01794L59.787 11.7208H65.0986Z" fill="#EDEEF1"></path><path d="M110.91 39.5175H0.226151V40.0175H110.91V39.5175Z" fill="#EDEEF1"></path><path d="M4.47458 35.6451C3.60438 35.6451 2.83611 35.4994 2.16977 35.2081C1.5342 34.9399 0.988002 34.5026 0.59309 33.9458C0.210865 33.3977 0.0131655 32.7305 0 31.9443H2.28826C2.29912 32.4604 2.51485 32.952 2.88962 33.3146C3.26802 33.6855 3.79061 33.8709 4.45738 33.8709C5.03369 33.8709 5.49151 33.7352 5.83085 33.4638C6.17018 33.1925 6.34005 32.8298 6.34048 32.3757C6.34048 31.9 6.19184 31.5292 5.89455 31.2633C5.59726 30.9973 5.1989 30.7813 4.69946 30.6153L3.10685 30.084C2.19121 29.7739 1.49344 29.3752 1.01354 28.8879C0.533631 28.4005 0.291553 27.7517 0.287306 26.9414C0.27584 26.2547 0.442531 25.6651 0.787383 25.1728C1.14302 24.6707 1.63271 24.2742 2.20289 24.0266C2.80171 23.7548 3.49099 23.6192 4.27073 23.6196C5.06151 23.6196 5.75928 23.758 6.36405 24.0347C6.93821 24.2873 7.43068 24.6893 7.78784 25.1971C8.13184 25.6965 8.31531 26.289 8.33824 26.9744H6.01623C6.0047 26.5642 5.83166 26.1743 5.53334 25.8863C5.22247 25.5709 4.79034 25.4131 4.23697 25.4131C3.76258 25.4027 3.36422 25.5163 3.04187 25.754C2.71953 25.9916 2.55857 26.3377 2.559 26.7922C2.559 27.1801 2.68322 27.4872 2.93167 27.7136C3.18011 27.94 3.51987 28.131 3.95093 28.2867C4.3803 28.4423 4.87189 28.6088 5.42569 28.7861C5.98221 28.9719 6.52091 29.2054 7.03549 29.4841C7.50714 29.737 7.90863 30.0989 8.2051 30.5385C8.49856 30.9759 8.6455 31.5377 8.64593 32.224C8.6494 32.8208 8.48521 33.4069 8.17134 33.9183C7.85494 34.439 7.38608 34.857 6.76475 35.1725C6.14342 35.488 5.38003 35.6455 4.47458 35.6451Z" fill="#EDEEF1"></path><path d="M15.1355 35.645C14.2653 35.645 13.4796 35.4761 12.7784 35.1381C12.0778 34.8008 11.4963 34.2657 11.1087 33.6018C10.6963 32.9159 10.4902 32.0467 10.4902 30.9942V23.8187H12.6599V31.011C12.6599 31.9187 12.8831 32.5942 13.3294 33.0374C13.7758 33.4807 14.3944 33.7021 15.1851 33.7017C15.9649 33.7017 16.5807 33.4803 17.0326 33.0374C17.4844 32.5946 17.7104 31.9191 17.7104 31.011V23.8187H19.8801V30.9948C19.8801 32.0465 19.6654 32.9157 19.2361 33.6024C18.8294 34.2691 18.2311 34.8035 17.5161 35.1388C16.7719 35.482 15.9579 35.6551 15.1355 35.645Z" fill="#EDEEF1"></path><path d="M22.1187 35.4459V23.8187H24.6949L28.4745 31.1933L32.2031 23.8187H34.7793V35.4459H32.6095V27.4227L29.3045 33.7847H27.5928L24.2878 27.4227V35.4459H22.1187Z" fill="#EDEEF1"></path><path d="M37.2714 35.4459V23.8187H39.8476L43.6278 31.1933L47.3564 23.8187H49.9326V35.4459H47.7628V27.4227L44.4578 33.7847H42.7461L39.4411 27.4227V35.4459H37.2714Z" fill="#EDEEF1"></path><path d="M52.424 35.4459V23.8187H54.5938V35.4459H52.424Z" fill="#EDEEF1"></path><path d="M59.8507 35.4459V25.5292H56.3934V23.8187H65.4949V25.5292H62.0166V35.4459H59.8507Z" fill="#EDEEF1"></path><path d="M71.2199 35.4459V33.9008C71.9419 33.314 72.6454 32.7326 73.3305 32.1566C73.9725 31.6201 74.5835 31.049 75.1607 30.446C75.65 29.9427 76.082 29.3886 76.4488 28.7936C76.7711 28.2563 76.9323 27.7329 76.9323 27.2235C76.9398 26.7719 76.8001 26.3297 76.5335 25.9612C76.2676 25.5962 75.8298 25.4135 75.2199 25.4131C74.599 25.4131 74.1302 25.6125 73.8133 26.0112C73.4965 26.4099 73.3383 26.8916 73.3387 27.4564H71.2365C71.259 26.6036 71.4512 25.8921 71.813 25.322C72.1563 24.7676 72.6568 24.3232 73.2534 24.0428C73.8843 23.7538 74.5739 23.6091 75.2703 23.6195C76.4794 23.6195 77.4203 23.9433 78.093 24.5909C78.7657 25.2385 79.1019 26.0773 79.1014 27.1074C79.0992 27.7583 78.9454 28.4001 78.6517 28.984C78.3361 29.6172 77.9403 30.2088 77.4738 30.7451C76.988 31.3103 76.4613 31.8404 75.8977 32.3314C75.3329 32.8237 74.7848 33.2805 74.2535 33.7016H79.3887V35.4459H71.2199Z" fill="#EDEEF1"></path><path d="M86.0681 35.6451C84.9716 35.6451 84.0336 35.3931 83.2543 34.8891C82.475 34.3851 81.8734 33.6819 81.4496 32.7796C81.0249 31.8777 80.8125 30.8285 80.8125 29.632C80.8125 28.448 81.0249 27.4017 81.4496 26.4931C81.8743 25.5846 82.4758 24.8785 83.2543 24.3749C84.034 23.8709 84.972 23.6192 86.0681 23.6196C87.1643 23.62 88.1022 23.8718 88.8819 24.3749C89.6608 24.8794 90.2624 25.5854 90.6867 26.4931C91.1109 27.4008 91.3233 28.4471 91.3237 29.632C91.3237 30.8281 91.1114 31.8773 90.6867 32.7796C90.262 33.6819 89.6604 34.3851 88.8819 34.8891C88.1018 35.3935 87.1638 35.6455 86.0681 35.6451ZM86.0681 33.7348C86.96 33.7348 87.6888 33.3694 88.2544 32.6385C88.8201 31.9077 89.1025 30.9055 89.1017 29.632C89.1017 28.3589 88.8193 27.3569 88.2544 26.6261C87.6896 25.8953 86.9608 25.5297 86.0681 25.5292C85.1644 25.5292 84.4326 25.8949 83.8729 26.6261C83.3131 27.3573 83.0335 28.3593 83.0339 29.632C83.0339 30.9055 83.3136 31.9077 83.8729 32.6385C84.4322 33.3694 85.1639 33.7348 86.0681 33.7348Z" fill="#EDEEF1"></path><path d="M92.966 35.4459V33.9008C93.688 33.314 94.3915 32.7326 95.0765 32.1566C95.7183 31.62 96.3293 31.0489 96.9067 30.4461C97.3961 29.9427 97.828 29.3886 98.1948 28.7936C98.5172 28.2563 98.6783 27.7329 98.6783 27.2235C98.6859 26.7719 98.5462 26.3297 98.2796 25.9612C98.0141 25.5962 97.5763 25.4135 96.966 25.4131C96.3451 25.4131 95.8762 25.6125 95.5594 26.0112C95.2426 26.4099 95.0844 26.8916 95.0848 27.4564H92.9826C93.0051 26.6036 93.1972 25.8921 93.5591 25.322C93.9022 24.7675 94.4027 24.3231 94.9994 24.0428C95.6303 23.7538 96.32 23.609 97.0163 23.6196C98.2254 23.6196 99.1661 23.9434 99.8384 24.5909C100.511 25.2385 100.847 26.0773 100.847 27.1074C100.845 27.7583 100.691 28.4001 100.398 28.984C100.082 29.6172 99.6864 30.2089 99.2198 30.7451C98.7337 31.31 98.207 31.8401 97.6438 32.3314C97.0781 32.8237 96.53 33.2805 95.9996 33.7017H101.135V35.4459H92.966Z" fill="#EDEEF1"></path><path d="M102.831 35.4459V33.9008C103.553 33.314 104.256 32.7326 104.941 32.1566C105.583 31.6201 106.194 31.049 106.771 30.446C107.261 29.9427 107.693 29.3886 108.059 28.7936C108.382 28.2563 108.543 27.7329 108.543 27.2235C108.55 26.7719 108.411 26.3297 108.144 25.9612C107.878 25.5962 107.44 25.4135 106.831 25.4131C106.21 25.4131 105.741 25.6125 105.424 26.0112C105.107 26.4099 104.949 26.8916 104.949 27.4564H102.847C102.87 26.6036 103.062 25.8921 103.424 25.322C103.767 24.7675 104.267 24.323 104.864 24.0428C105.495 23.7538 106.185 23.6091 106.881 23.6195C108.09 23.6195 109.031 23.9433 109.703 24.5909C110.375 25.2385 110.712 26.0773 110.712 27.1074C110.71 27.7583 110.556 28.4001 110.262 28.984C109.947 29.6172 109.551 30.2088 109.084 30.7451C108.598 31.3101 108.072 31.8402 107.508 32.3314C106.944 32.8237 106.395 33.2805 105.864 33.7016H110.999V35.4459H102.831Z" fill="#EDEEF1"></path><path d="M70.444 51.6978V44.7833H69.4248V47.3591C69.4251 47.3861 69.4169 47.4127 69.4013 47.435C69.3856 47.4573 69.3634 47.4744 69.3375 47.4839C69.3226 47.4894 69.3069 47.4922 69.291 47.492C69.2716 47.492 69.2524 47.488 69.2347 47.4801C69.217 47.4722 69.2012 47.4608 69.1884 47.4465C68.824 47.0276 68.2552 46.7872 67.6283 46.7872C66.2905 46.7872 65.2458 47.8928 65.2458 49.3043C65.2458 49.9966 65.4904 50.6346 65.9344 51.1016C66.1505 51.3301 66.4126 51.512 66.7042 51.6359C66.9958 51.7598 67.3105 51.823 67.6283 51.8214C67.9236 51.8254 68.2163 51.766 68.4857 51.6474C68.7551 51.5288 68.9948 51.3538 69.1878 51.1347C69.2005 51.12 69.2163 51.1083 69.2341 51.1002C69.252 51.0921 69.2714 51.0879 69.291 51.0879C69.3064 51.0881 69.3217 51.0908 69.3362 51.096C69.3623 51.1054 69.3848 51.1224 69.4006 51.1447C69.4165 51.1671 69.4249 51.1936 69.4248 51.2208V51.7022L70.444 51.6978ZM67.8774 50.9212C66.9798 50.9212 66.2771 50.2101 66.2771 49.3024C66.2771 48.3947 66.9779 47.6837 67.8774 47.6837C68.7769 47.6837 69.4776 48.3947 69.4776 49.3024C69.4776 50.2101 68.7737 50.9212 67.8774 50.9212ZM76.3131 51.6978V46.9071H75.304V47.3566C75.3042 47.3838 75.2958 47.4104 75.28 47.4328C75.2641 47.4551 75.2416 47.4721 75.2155 47.4814C75.201 47.4869 75.1857 47.4896 75.1702 47.4895C75.1505 47.4895 75.1311 47.4853 75.1133 47.4771C75.0954 47.4689 75.0797 47.4569 75.067 47.4421C74.7058 47.0194 74.1522 46.7866 73.5076 46.7866C72.1698 46.7866 71.125 47.8922 71.125 49.3037C71.125 50.7152 72.1717 51.8208 73.5076 51.8208C73.8036 51.8248 74.0969 51.7646 74.3664 51.6445C74.6359 51.5244 74.875 51.3473 75.0664 51.126C75.0791 51.111 75.0949 51.0989 75.1129 51.0906C75.1308 51.0823 75.1504 51.0779 75.1702 51.0779C75.1859 51.0781 75.2014 51.0808 75.2161 51.086C75.2421 51.0954 75.2645 51.1124 75.2802 51.1348C75.296 51.1571 75.3043 51.1837 75.304 51.2109V51.7003L76.3131 51.6978ZM73.7554 50.9212C72.8578 50.9212 72.1551 50.2101 72.1551 49.3024C72.1551 48.3947 72.8559 47.6837 73.7554 47.6837C74.6549 47.6837 75.3556 48.3947 75.3556 49.3024C75.3556 50.2101 74.6517 50.9212 73.7541 50.9212H73.7554ZM85.6247 51.6978V46.9071H84.6157V47.3566C84.6159 47.3838 84.6075 47.4104 84.5916 47.4328C84.5758 47.4551 84.5532 47.4721 84.5271 47.4814C84.5127 47.4869 84.4973 47.4896 84.4819 47.4895C84.4622 47.4895 84.4427 47.4853 84.4249 47.4771C84.407 47.4689 84.3913 47.4569 84.3787 47.4421C84.0175 47.0194 83.4639 46.7866 82.8192 46.7866C81.4814 46.7866 80.4367 47.8922 80.4367 49.3037C80.4367 50.7152 81.4833 51.8208 82.8192 51.8208C83.1152 51.8248 83.4085 51.7646 83.6781 51.6445C83.9476 51.5244 84.1866 51.3473 84.378 51.126C84.3906 51.1109 84.4065 51.0988 84.4244 51.0905C84.4424 51.0821 84.462 51.0778 84.4819 51.0779C84.4973 51.0781 84.5126 51.0808 84.5271 51.086C84.5532 51.0953 84.5758 51.1123 84.5916 51.1347C84.6075 51.157 84.6159 51.1836 84.6157 51.2109V51.7003L85.6247 51.6978ZM83.067 50.9212C82.1694 50.9212 81.4668 50.2101 81.4668 49.3024C81.4668 48.3947 82.1675 47.6837 83.067 47.6837C83.9665 47.6837 84.6673 48.3947 84.6673 49.3024C84.6673 50.2101 83.9633 50.9212 83.0657 50.9212H83.067ZM91.0504 47.5051C90.8344 47.2767 90.5722 47.0947 90.2806 46.9708C89.989 46.8469 89.6743 46.7837 89.3565 46.7853C89.0612 46.7813 88.7685 46.8407 88.4991 46.9593C88.2297 47.078 87.9901 47.253 87.797 47.472C87.7843 47.4867 87.7685 47.4984 87.7507 47.5065C87.7328 47.5146 87.7135 47.5188 87.6938 47.5189C87.6782 47.5187 87.6627 47.5159 87.648 47.5108C87.6219 47.5015 87.5994 47.4845 87.5836 47.4621C87.5678 47.4397 87.5596 47.4131 87.5601 47.3859V44.7808H86.5408V51.6953H87.5601V51.2433C87.5601 51.2085 87.5741 51.1751 87.5992 51.1504C87.6243 51.1257 87.6583 51.1118 87.6938 51.1116C87.7132 51.1116 87.7324 51.1157 87.75 51.1237C87.7676 51.1316 87.7832 51.1433 87.7958 51.1578C88.1608 51.5767 88.729 51.817 89.3565 51.817C90.6943 51.817 91.7391 50.7114 91.7391 49.2999C91.7378 48.6101 91.4932 47.9752 91.0491 47.5051H91.0504ZM89.1087 50.9212C88.2111 50.9212 87.5085 50.2101 87.5085 49.3024C87.5085 48.3947 88.2092 47.6837 89.1087 47.6837C90.0082 47.6837 90.7089 48.3947 90.7089 49.3024C90.7089 50.2101 90.005 50.9212 89.1074 50.9212H89.1087ZM94.9415 47.8254C95.0169 47.825 95.0923 47.8302 95.167 47.841V46.8172C95.1195 46.8098 95.0716 46.8061 95.0236 46.8059C94.7556 46.8038 94.4917 46.8696 94.2573 46.9969C94.0229 47.1243 93.826 47.3088 93.6858 47.5326C93.6736 47.5519 93.6566 47.5678 93.6363 47.5788C93.6159 47.5897 93.5931 47.5953 93.5699 47.595C93.5583 47.5951 93.5467 47.5936 93.5355 47.5907C93.5074 47.5832 93.4825 47.567 93.4645 47.5445C93.4466 47.522 93.4366 47.4944 93.4361 47.4658V46.9071H92.4271V51.6978H93.4463V49.5983C93.4425 48.5034 94.0165 47.8254 94.9402 47.8254H94.9415ZM95.9352 46.9071V51.6978H96.9647V46.9071H95.9352ZM96.4372 44.7883C96.312 44.7883 96.1896 44.8247 96.0854 44.8929C95.9813 44.961 95.9001 45.058 95.8522 45.1713C95.8043 45.2847 95.7917 45.4095 95.8162 45.5299C95.8406 45.6502 95.9009 45.7608 95.9895 45.8476C96.078 45.9344 96.1909 45.9935 96.3137 46.0174C96.4365 46.0414 96.5638 46.0291 96.6795 45.9821C96.7952 45.9351 96.8941 45.8556 96.9637 45.7536C97.0333 45.6515 97.0704 45.5315 97.0704 45.4088C97.0686 45.2449 97.001 45.0882 96.8823 44.9727C96.7636 44.8572 96.6033 44.792 96.436 44.7914L96.4372 44.7883ZM98.3917 51.1091C98.8573 51.5667 99.518 51.8195 100.252 51.8195C100.852 51.8195 101.32 51.704 102.194 51.0823L101.623 50.4923C101.183 50.7745 100.77 50.9112 100.365 50.9112C99.423 50.9112 98.7127 50.2195 98.7127 49.3024C98.7127 48.3854 99.423 47.6937 100.365 47.6937C100.802 47.6937 101.208 47.8304 101.605 48.1119L102.246 47.5176C101.458 46.8621 100.738 46.7853 100.262 46.7853C98.7618 46.7853 97.6731 47.8466 97.6731 49.3024C97.6756 50.0122 97.9305 50.654 98.3917 51.1091ZM104.158 49.5609C104.183 49.5389 104.215 49.5266 104.249 49.5266H104.255C104.274 49.5277 104.292 49.5326 104.309 49.541C104.326 49.5494 104.34 49.561 104.352 49.5752L106.099 51.6978H107.347L105.127 49.0658C105.106 49.0407 105.095 49.0087 105.096 48.9759C105.098 48.9432 105.112 48.9122 105.135 48.8892L107.158 46.9071H105.93L104.142 48.6682C104.129 48.6805 104.114 48.6904 104.098 48.697C104.082 48.7037 104.064 48.707 104.047 48.7069C104.029 48.707 104.012 48.7036 103.996 48.6969C103.971 48.6869 103.949 48.6695 103.934 48.6472C103.919 48.6249 103.912 48.5987 103.912 48.572V44.7802H102.893V51.6947H103.912V49.8368C103.912 49.8186 103.916 49.8007 103.924 49.784C103.931 49.7674 103.942 49.7524 103.956 49.7401L104.158 49.5609ZM109.224 51.8195C110.106 51.8195 110.997 51.2983 110.997 50.3032C110.997 49.6564 110.581 49.2094 109.723 48.9354L109.125 48.7431C108.704 48.6057 108.5 48.4053 108.5 48.1294C108.5 47.8135 108.784 47.5925 109.191 47.5925C109.561 47.5925 109.892 47.8204 110.106 48.2168L110.918 47.7886C110.6 47.1643 109.939 46.7828 109.191 46.7828C108.229 46.7828 107.531 47.3865 107.531 48.2187C107.531 48.8742 107.934 49.3187 108.763 49.5765L109.372 49.7688C109.823 49.9086 110.009 50.0865 110.009 50.3824C110.009 50.8238 109.598 50.9799 109.245 50.9799C108.799 50.9799 108.397 50.7027 108.192 50.2538L107.371 50.6727C107.67 51.3819 108.376 51.8195 109.226 51.8195H109.224ZM79.3945 51.7696C79.6604 51.7702 79.926 51.753 80.1895 51.7184V50.865C80.0392 50.8819 79.8213 50.895 79.6799 50.895C79.2276 50.895 78.8517 50.8157 78.8517 49.8393V47.8379C78.8519 47.8031 78.8661 47.7697 78.8913 47.7451C78.9165 47.7206 78.9506 47.7068 78.9861 47.7068H80.0169V46.9065H78.9874C78.9518 46.9065 78.9178 46.8927 78.8926 46.8681C78.8674 46.8435 78.8531 46.8102 78.853 46.7754V45.4019H77.8407V46.7754C77.8407 46.8101 77.8266 46.8435 77.8015 46.8681C77.7764 46.8926 77.7424 46.9065 77.7069 46.9065H76.9807V47.7068H77.7063C77.7418 47.7068 77.7758 47.7206 77.8009 47.7452C77.826 47.7698 77.8401 47.8031 77.8401 47.8379V50.1059C77.8407 51.7696 78.9715 51.7696 79.397 51.7696H79.3945Z" fill="#EDEEF1"></path><path d="M62.7046 50.7276V49.1807L62.5562 49.0995L58.5836 51.2888L54.827 49.2187V48.2873L58.5836 50.3555L62.7046 48.0832V46.5593L62.5352 46.4669L58.5836 48.6456L54.9824 46.6598L58.5836 44.674L61.4834 46.2734L61.7019 46.1523V46.0068L58.5836 44.2863L54.4626 46.5593V46.7603L58.5836 49.0327L62.3402 46.9613V47.8965L58.5836 49.9666L54.611 47.7773L54.4626 47.8578V49.4048L58.5836 51.6771L62.3402 49.6058V50.5403L58.5836 52.6117L54.6123 50.4217L54.4626 50.5035V50.7276L58.5836 53L62.7046 50.7276Z" fill="#EDEEF1"></path><path d="M2.76667 51.7795C2.31834 51.7905 1.87532 51.6826 1.48431 51.4674C1.12076 51.2597 0.823236 50.9571 0.62494 50.5934C0.420514 50.1927 0.314087 49.7508 0.314087 49.3027C0.314087 48.8547 0.420514 48.4128 0.62494 48.012C0.823236 47.6483 1.12076 47.3457 1.48431 47.138C1.87807 46.9311 2.31795 46.8228 2.76476 46.8228C3.21157 46.8228 3.65145 46.9311 4.04521 47.138C4.40963 47.3446 4.70742 47.6475 4.90458 48.012C5.10658 48.4135 5.21164 48.8551 5.21164 49.3027C5.21164 49.7503 5.10658 50.192 4.90458 50.5934C4.70742 50.958 4.40963 51.2608 4.04521 51.4674C3.65522 51.6817 3.21368 51.7895 2.76667 51.7795ZM2.76667 50.9923C3.23384 50.9923 3.60523 50.8417 3.88086 50.5404C4.15648 50.239 4.29493 49.826 4.29621 49.3012C4.29621 48.7768 4.15776 48.3637 3.88086 48.062C3.60396 47.7602 3.23256 47.6096 2.76667 47.61C2.29951 47.61 1.92684 47.7607 1.64866 48.062C1.37049 48.3633 1.23077 48.7764 1.22949 49.3012C1.22949 49.8264 1.36921 50.2395 1.64866 50.5404C1.92811 50.8413 2.30078 50.9919 2.76667 50.9923Z" fill="#EDEEF1"></path><path d="M5.96653 51.6977V46.9052H7.76171C8.15286 46.9052 8.47542 46.9703 8.72938 47.1006C8.96843 47.2168 9.1667 47.4003 9.2989 47.6274C9.42635 47.8525 9.49219 48.1061 9.49001 48.3635C9.49247 48.647 9.41105 48.9252 9.25558 49.1644C9.09972 49.4066 8.85636 49.5825 8.52553 49.6919L9.53906 51.6977H8.51151L7.60373 49.808H6.86285V51.6977H5.96653ZM6.85839 49.1644H7.70375C8.00103 49.1644 8.21996 49.0937 8.36053 48.9522C8.43181 48.8769 8.48707 48.7884 8.52305 48.6919C8.55904 48.5954 8.57504 48.4929 8.57012 48.3903C8.57503 48.2901 8.55934 48.1899 8.52399 48.0958C8.48865 48.0016 8.43436 47.9154 8.36436 47.8422C8.22676 47.7053 8.00422 47.637 7.69674 47.6374H6.85839V49.1644Z" fill="#EDEEF1"></path><path d="M12.4217 51.7795C11.9968 51.7896 11.5775 51.683 11.2113 51.4718C10.8657 51.2658 10.587 50.9679 10.4073 50.6127C10.2171 50.2065 10.1195 49.7645 10.1214 49.3174C10.1232 48.8704 10.2245 48.4292 10.4182 48.0245C10.6076 47.6566 10.901 47.3499 11.2635 47.1411C11.6292 46.9289 12.0634 46.8228 12.5663 46.8228C13.1396 46.8228 13.6146 46.9574 13.9913 47.2267C14.3691 47.4963 14.6308 47.8943 14.7252 48.3429H13.7289C13.6605 48.127 13.5169 47.9416 13.3231 47.8191C13.1273 47.6942 12.8759 47.6318 12.5688 47.6318C12.0796 47.6318 11.7022 47.7837 11.4368 48.0875C11.1714 48.3914 11.0387 48.8075 11.0387 49.3361C11.0387 49.8655 11.1703 50.2752 11.4336 50.5653C11.6969 50.8554 12.0543 51.001 12.5058 51.0023C12.9487 51.0023 13.283 50.8847 13.5085 50.6496C13.734 50.4144 13.8703 50.1052 13.9174 49.7219H12.6803V49.0652H14.8182V51.7009H13.9939L13.9244 51.071C13.774 51.2922 13.5697 51.4732 13.3301 51.5979C13.0918 51.7208 12.7892 51.7795 12.4217 51.7795Z" fill="#EDEEF1"></path><path d="M15.3349 51.6977L17.1237 46.9052H18.1296L19.9177 51.6977H18.9679L18.5768 50.5884H16.6695L16.2707 51.6977H15.3349ZM16.9141 49.9042H18.3328L17.6193 47.9127L16.9141 49.9042Z" fill="#EDEEF1"></path><path d="M20.5115 51.6977V46.9052H21.4033L23.7018 50.28V46.9052H24.5936V51.6977H23.7018L21.4033 48.3266V51.6977H20.5115Z" fill="#EDEEF1"></path><path d="M25.5141 51.6977V46.9052H26.406V51.6977H25.5141Z" fill="#EDEEF1"></path><path d="M27.1768 51.6977V51.0266L29.4262 47.6381H27.1966V46.9052H30.4589V47.5763L28.1954 50.9648H30.4729V51.6977H27.1768Z" fill="#EDEEF1"></path><path d="M31.2431 51.6977V46.9052H34.4327V47.61H32.1394V48.9247H34.2289V49.6114H32.1394V50.9942H34.4327V51.6996L31.2431 51.6977Z" fill="#EDEEF1"></path><path d="M35.2462 51.6977V46.9052H36.9172C37.4901 46.9052 37.9615 47.0044 38.3314 47.2029C38.6908 47.3884 38.9808 47.6809 39.1596 48.0382C39.3369 48.4367 39.4284 48.8667 39.4284 49.3014C39.4284 49.7362 39.3369 50.1662 39.1596 50.5647C38.9808 50.922 38.6908 51.2145 38.3314 51.4C37.9611 51.5985 37.4897 51.6977 36.9172 51.6977H35.2462ZM36.1381 50.9449H36.872C37.2818 50.9449 37.6054 50.8797 37.8428 50.7495C38.0742 50.626 38.2544 50.4273 38.3524 50.1876C38.5572 49.6147 38.5572 48.9907 38.3524 48.4178C38.2548 48.1762 38.0747 47.9752 37.8428 47.8491C37.605 47.7175 37.2814 47.6514 36.872 47.6505H36.14L36.1381 50.9449Z" fill="#EDEEF1"></path><path d="M41.8065 51.6977V46.9052H43.7692C44.2788 46.9052 44.6666 47.0204 44.9324 47.251C45.0628 47.36 45.1665 47.4961 45.2361 47.6495C45.3056 47.803 45.3392 47.9697 45.3344 48.1375C45.3344 48.4384 45.2518 48.6791 45.0866 48.8598C44.9259 49.0371 44.7157 49.1645 44.4821 49.2262C44.7548 49.2767 45.0002 49.4211 45.1739 49.6333C45.3536 49.8457 45.4501 50.114 45.4459 50.3899C45.4503 50.5665 45.415 50.7419 45.3425 50.9037C45.2701 51.0656 45.1623 51.2098 45.0267 51.3263C44.7477 51.5723 44.3519 51.6955 43.8393 51.6959L41.8065 51.6977ZM42.6983 48.9178H43.6348C43.8866 48.9178 44.0799 48.8608 44.2145 48.7468C44.3496 48.6325 44.4171 48.4708 44.4171 48.2605C44.4215 48.1717 44.4059 48.0832 44.3716 48.001C44.3372 47.9188 44.2849 47.845 44.2183 47.7848C44.085 47.6686 43.8858 47.6104 43.6208 47.61H42.6983V48.9178ZM42.6983 50.9854H43.6979C43.9629 50.9854 44.1688 50.9251 44.3158 50.8044C44.3898 50.7415 44.4481 50.6628 44.4863 50.5744C44.5245 50.486 44.5416 50.3902 44.5362 50.2944C44.5411 50.1951 44.5229 50.096 44.4829 50.0046C44.443 49.9132 44.3823 49.8319 44.3056 49.7668C44.1519 49.6395 43.9446 49.5756 43.6838 49.5752H42.6983V50.9854Z" fill="#EDEEF1"></path><path d="M47.4443 51.6977V49.9928L45.8026 46.9052H46.8155L47.8985 49.1164L48.9745 46.9052H49.9765L48.3419 49.9928V51.6977H47.4443Z" fill="#EDEEF1"></path></g><defs><clipPath id="clip0_2_421"><rect width="111" height="53" fill="white"></rect></clipPath></defs></svg> 