<svg width="122" height="70" viewBox="0 0 122 70" fill="none" xmlns="http://www.w3.org/2000/svg">
<path d="M89.4728 3.74931V0.214995C89.4728 0.0995265 89.3797 0.00585938 89.2651 0.00585938H86.6116C86.4969 0.00585938 86.4039 0.0995265 86.4039 0.214995V3.74931C86.4039 3.86478 86.3109 3.95845 86.1962 3.95845H82.631C82.5164 3.95845 82.4233 4.05212 82.4233 4.16758V6.92753C82.4233 7.043 82.5164 7.13667 82.631 7.13667H86.1962C86.3109 7.13667 86.4039 7.23034 86.4039 7.34581V10.8801C86.4039 10.9956 86.4969 11.0893 86.6116 11.0893H89.2651C89.3797 11.0893 89.4728 10.9956 89.4728 10.8801V7.34581C89.4728 7.23034 89.5658 7.13667 89.6805 7.13667H93.224C93.3387 7.13667 93.4317 7.043 93.4317 6.92753V4.16758C93.4317 4.05212 93.3387 3.95845 93.224 3.95845H89.6805C89.5658 3.95845 89.4728 3.86478 89.4728 3.74931Z" fill="#EDEEF1"/>
<path d="M96.8191 18.2443L95.257 22.2106C95.2185 22.3027 95.1319 22.3648 95.0365 22.3648H89.7456C89.5732 22.3648 89.4586 22.1864 89.5259 22.0273L98.9177 0.150397C98.9561 0.0631902 99.0428 0.00585938 99.1382 0.00585938H104.64C104.735 0.00585938 104.822 0.0639978 104.86 0.155242L114.033 22.0273C114.099 22.1864 113.984 22.36 113.812 22.36H108.296C108.196 22.36 108.109 22.297 108.07 22.2058L106.537 18.2395H96.8143L96.8191 18.2443ZM101.716 5.66061L98.4774 13.9308H104.898L101.716 5.66061Z" fill="#EDEEF1"/>
<path d="M116.239 22.1184V0.246318C116.239 0.11147 116.345 0.00488281 116.479 0.00488281H121.659C121.794 0.00488281 121.899 0.110662 121.899 0.246318V22.1184C121.899 22.2532 121.794 22.3598 121.659 22.3598H116.479C116.345 22.3598 116.239 22.2541 116.239 22.1184Z" fill="#EDEEF1"/>
<path d="M11.0811 22.3937H1.9468C1.81288 22.3937 1.70703 22.2871 1.70703 22.1523V0.24628C1.70703 0.111432 1.81208 0 1.9468 0H11.3057C13.8693 0 16.0304 0.506287 17.789 1.50513C19.6293 2.57665 20.9901 3.97036 21.8578 5.66928C22.7254 7.37225 23.1608 9.21087 23.1608 11.1795C23.1608 13.5874 22.6292 15.6279 21.5554 17.2977C20.4103 19.0443 18.9196 20.3282 17.0841 21.1526C15.2438 21.9779 13.2454 22.3929 11.0844 22.3929H11.0795L11.0811 22.3937ZM11.4644 17.6651C12.4179 17.6651 13.3337 17.4431 14.2149 16.9941C15.097 16.5452 15.8251 15.8265 16.4097 14.8374C16.951 13.887 17.2196 12.6951 17.2196 11.2425C17.2196 9.78983 16.9325 8.54067 16.3616 7.58542C15.7337 6.58173 14.9623 5.86308 14.0425 5.42381C13.1228 4.98454 12.1685 4.76249 11.1814 4.76249H7.52475V17.6643H11.4636L11.4644 17.6651Z" fill="#EDEEF1"/>
<path d="M47.6244 22.3939H41.9503C41.8492 22.3939 41.7634 22.3309 41.7249 22.2397L40.2583 18.4324H30.626L29.1264 22.2445C29.0879 22.3366 29.0021 22.3988 28.9059 22.3988H23.4619C23.2895 22.3988 23.1748 22.2203 23.2413 22.0612L32.6018 0.150398C32.6403 0.0631902 32.7261 0.00585938 32.8223 0.00585938H38.4821C38.5783 0.00585938 38.6641 0.0639975 38.7026 0.155242L47.8458 22.0612C47.9131 22.2203 47.7977 22.3939 47.6252 22.3939H47.6244ZM38.5438 13.9598L35.4958 5.97472L32.3813 13.9598H38.5438Z" fill="#EDEEF1"/>
<path d="M57.3719 22.3937H52.0337C51.8998 22.3937 51.7939 22.2872 51.7939 22.1523V4.82551H45.4253C45.2914 4.82551 45.1855 4.71973 45.1855 4.58407V0.246318C45.1855 0.11147 45.2914 0.00488281 45.4253 0.00488281H64.0516C64.1855 0.00488281 64.2914 0.110662 64.2914 0.246318V4.58407C64.2914 4.71892 64.1863 4.82551 64.0516 4.82551H57.6157V22.1523C57.6157 22.2872 57.5058 22.3937 57.3711 22.3937H57.3719Z" fill="#EDEEF1"/>
<path d="M85.9913 22.3939H80.3171C80.2161 22.3939 80.1303 22.3309 80.0918 22.2397L78.6251 18.4324H68.9976L67.4973 22.2445C67.4588 22.3366 67.373 22.3988 67.2767 22.3988H61.8279C61.6555 22.3988 61.54 22.2203 61.6074 22.0612L70.9679 0.150398C71.0063 0.0631902 71.0921 0.00585938 71.1884 0.00585938H76.8481C76.9443 0.00585938 77.0301 0.0639975 77.0686 0.155242L86.2118 22.0612C86.2792 22.2203 86.1637 22.3939 85.9913 22.3939ZM76.9107 13.9598L73.8627 5.97472L70.7481 13.9598H76.9107Z" fill="#EDEEF1"/>
<path d="M14.1045 37.2542C13.2304 36.8061 12.2593 36.4096 11.2177 36.0761L11.2081 36.0729C10.1255 35.7418 9.34847 35.4931 8.68851 35.267C8.03337 35.0426 7.52497 34.7761 7.17214 34.4717C7.01015 34.3344 6.79445 34.0881 6.79445 33.5439C6.79445 33.0505 6.95322 32.7186 7.30445 32.4724C7.73426 32.176 8.28275 32.0347 8.93309 32.0493H8.95073C9.71573 32.0493 10.2795 32.2334 10.674 32.6121C11.0645 32.9875 11.2618 33.3977 11.277 33.8677L11.2923 34.3538C11.2963 34.4846 11.4029 34.588 11.5328 34.588H16.543C16.6794 34.588 16.7884 34.4741 16.7836 34.3368L16.7636 33.8152C16.7154 32.5563 16.3474 31.4453 15.6674 30.5102C14.9914 29.5913 14.062 28.8726 12.9049 28.3744C11.7694 27.8851 10.4583 27.6372 9.00686 27.6372C7.55544 27.6372 6.27562 27.8803 5.15618 28.3591C4.00226 28.8452 3.07688 29.5525 2.40329 30.4634C1.71286 31.3976 1.37446 32.5176 1.39772 33.7926C1.39932 35.3147 1.89409 36.559 2.86598 37.4868C3.77132 38.3589 5.08241 39.0719 6.76397 39.6056L7.59794 39.868C8.26351 40.0772 8.90101 40.2774 9.50965 40.4712C10.2771 40.7159 10.8881 41.0243 11.3251 41.3893C11.7445 41.7398 11.8327 42.2549 11.8327 42.6256C11.8327 43.1318 11.6523 43.4944 11.2473 43.8012C10.7967 44.1428 10.1496 44.3156 9.32441 44.3156C8.35653 44.3156 7.63483 44.0839 7.11921 43.6066C6.61001 43.1359 6.3494 42.5779 6.32213 41.8996L6.30289 41.4176C6.29807 41.2876 6.19142 41.185 6.06232 41.185H1.13951C1.00559 41.185 0.89734 41.2948 0.898943 41.4297L0.904557 41.9376C0.920594 43.3644 1.31352 44.6071 2.07371 45.6302C2.81306 46.6258 3.83306 47.3977 5.10486 47.9234C6.34298 48.4353 7.77436 48.6953 9.35969 48.6953H10.099V48.6631C11.4542 48.5904 12.637 48.315 13.6233 47.8418C14.8198 47.2669 15.7379 46.4909 16.3498 45.5357C16.9704 44.5675 17.2856 43.5049 17.2856 42.3785C17.2856 41.1067 16.9825 40.0384 16.3875 39.2059C15.8117 38.3928 15.0435 37.7371 14.1061 37.2559L14.1045 37.2542Z" fill="#EDEEF1"/>
<path d="M32.504 40.4046C32.504 41.674 32.2001 42.5719 31.5714 43.1516C30.9347 43.7451 30.0575 44.0342 28.8891 44.0342C27.7208 44.0342 26.8162 43.7379 26.1932 43.1516C25.5837 42.5832 25.275 41.6594 25.275 40.4046V28.2045C25.275 28.0704 25.1675 27.9622 25.0344 27.9622H20.2953C20.1621 27.9622 20.0547 28.0704 20.0547 28.2045V40.378C20.0547 42.2206 20.454 43.7839 21.2423 45.0234C22.0305 46.2637 23.1075 47.1979 24.441 47.7995C25.7353 48.3905 27.2011 48.6909 28.7977 48.6925H28.8121C30.3911 48.6909 31.8681 48.3914 33.2033 47.8027C34.5681 47.1971 35.6731 46.2661 36.487 45.0339C37.3082 43.7912 37.7244 42.2247 37.7244 40.3772V28.2037C37.7244 28.0696 37.6169 27.9614 37.4838 27.9614H32.7446C32.6115 27.9614 32.504 28.0696 32.504 28.2037V40.4038V40.4046Z" fill="#EDEEF1"/>
<path d="M52.7028 38.7603L46.9091 28.0952C46.8666 28.0177 46.7856 27.9692 46.6982 27.9692H41.4579C41.3247 27.9692 41.2173 28.0774 41.2173 28.2115V47.624L41.2221 48.1287C41.2237 48.2619 41.3304 48.3685 41.4627 48.3685H46.2042C46.3374 48.3685 46.4448 48.2603 46.4448 48.1262V38.3913C46.4448 38.141 46.7752 38.0554 46.8955 38.2734L50.9009 45.5423C50.9434 45.619 51.0236 45.6667 51.111 45.6667H54.6506C54.738 45.6667 54.8182 45.619 54.8607 45.5423L58.8661 38.2734C58.9864 38.0546 59.3168 38.141 59.3168 38.3913V48.1262C59.3168 48.2603 59.4242 48.3685 59.5573 48.3685H64.2965C64.4296 48.3685 64.5371 48.2603 64.5371 48.1262V28.2115C64.5371 28.0774 64.4296 27.9692 64.2965 27.9692H59.0546C58.9663 27.9692 58.8845 28.0177 58.8428 28.096L53.1254 38.7587C53.0348 38.9275 52.7942 38.9283 52.7028 38.7595V38.7603Z" fill="#EDEEF1"/>
<path d="M79.9284 38.7603L74.1347 28.0952C74.0922 28.0177 74.0112 27.9692 73.9238 27.9692H68.6834C68.5503 27.9692 68.4429 28.0774 68.4429 28.2115V47.624L68.4477 48.1287C68.4493 48.2619 68.5559 48.3685 68.6882 48.3685H73.4298C73.5629 48.3685 73.6704 48.2603 73.6704 48.1262V38.3913C73.6704 38.141 74.0008 38.0554 74.1211 38.2734L78.1265 45.5423C78.169 45.619 78.2492 45.6667 78.3366 45.6667H81.8762C81.9636 45.6667 82.0437 45.619 82.0862 45.5423L86.0917 38.2734C86.212 38.0546 86.5424 38.141 86.5424 38.3913V48.1262C86.5424 48.2603 86.6498 48.3685 86.7829 48.3685H91.5221C91.6552 48.3685 91.7627 48.2603 91.7627 48.1262V28.2115C91.7627 28.0774 91.6552 27.9692 91.5221 27.9692H86.2801C86.1919 27.9692 86.1101 28.0177 86.0684 28.096L80.351 38.7587C80.2603 38.9275 80.0198 38.9283 79.9284 38.7595V38.7603Z" fill="#EDEEF1"/>
<path d="M100.679 27.9692H95.9398C95.8069 27.9692 95.6992 28.0777 95.6992 28.2115V48.1262C95.6992 48.26 95.8069 48.3685 95.9398 48.3685H100.679C100.812 48.3685 100.92 48.26 100.92 48.1262V28.2115C100.92 28.0777 100.812 27.9692 100.679 27.9692Z" fill="#EDEEF1"/>
<path d="M104.565 28.2115V31.9961C104.565 32.1302 104.672 32.2384 104.806 32.2384H110.292C110.425 32.2384 110.533 32.3466 110.533 32.4806V48.1262C110.533 48.2603 110.64 48.3685 110.773 48.3685H115.512C115.645 48.3685 115.753 48.2603 115.753 48.1262V32.4806C115.753 32.3466 115.86 32.2384 115.993 32.2384H121.508C121.641 32.2384 121.749 32.1302 121.749 31.9961V28.2115C121.749 28.0774 121.641 27.9692 121.508 27.9692H104.806C104.672 27.9692 104.565 28.0774 104.565 28.2115Z" fill="#EDEEF1"/>
<path d="M48.6396 66.708V53.9216H46.8018V58.6863C46.8018 58.7841 46.7352 58.8807 46.6451 58.9113C46.6158 58.9184 46.5924 58.9266 46.5632 58.9266C46.4883 58.9266 46.4216 58.8972 46.3772 58.8442C45.7221 58.0726 44.6962 57.6227 43.572 57.6227C41.1693 57.6227 39.2871 59.6675 39.2871 62.2743C39.2871 63.5547 39.7258 64.7315 40.5224 65.5996C41.3179 66.4607 42.3976 66.933 43.5732 66.933C44.6822 66.933 45.7011 66.4689 46.3784 65.6597C46.4228 65.6078 46.4895 65.5702 46.5644 65.5702C46.5936 65.5702 46.617 65.5702 46.6463 65.5855C46.7433 65.6232 46.803 65.7127 46.803 65.8175V66.7092H48.6407L48.6396 66.708ZM44.0201 65.2698C42.4058 65.2698 41.1412 63.9517 41.1412 62.2731C41.1412 60.5946 42.4058 59.2765 44.0201 59.2765C45.6344 59.2765 46.8989 60.5946 46.8989 62.2731C46.8989 63.9517 45.6344 65.2698 44.0201 65.2698ZM59.2051 66.708V57.8465H57.3896V58.6781C57.3896 58.7829 57.3229 58.8724 57.2328 58.9101C57.2036 58.9172 57.1802 58.9254 57.1509 58.9254C57.0761 58.9254 57.0094 58.896 56.9649 58.8359C56.3181 58.0573 55.3202 57.6227 54.1598 57.6227C51.7571 57.6227 49.8749 59.6675 49.8749 62.2743C49.8749 64.8811 51.7571 66.926 54.1598 66.926C55.2688 66.926 56.2947 66.4536 56.9649 65.6455C57.0094 65.5855 57.0761 65.556 57.1509 65.556C57.1802 65.556 57.2106 65.556 57.2328 65.5713C57.3299 65.609 57.3896 65.6985 57.3896 65.7963V66.7033H59.2051V66.7104V66.708ZM54.5996 65.2698C52.9853 65.2698 51.7208 63.9517 51.7208 62.2731C51.7208 60.5946 52.9853 59.2765 54.5996 59.2765C56.2139 59.2765 57.4785 60.5946 57.4785 62.2731C57.4785 63.9517 56.2139 65.2698 54.5996 65.2698ZM75.9588 66.708V57.8465H74.1433V58.6781C74.1433 58.7829 74.0766 58.8724 73.9865 58.9101C73.9561 58.9172 73.9339 58.9254 73.9047 58.9254C73.8298 58.9254 73.7631 58.896 73.7187 58.8359C73.0718 58.0573 72.0739 57.6227 70.9135 57.6227C68.5108 57.6227 66.6286 59.6675 66.6286 62.2743C66.6286 64.8811 68.5108 66.926 70.9135 66.926C72.0225 66.926 73.0484 66.4536 73.7187 65.6455C73.7631 65.5925 73.8298 65.556 73.9047 65.556C73.9351 65.556 73.9573 65.556 73.9865 65.5713C74.0836 65.609 74.1433 65.6985 74.1433 65.8034V66.7104H75.9588V66.708ZM71.3533 65.2698C69.739 65.2698 68.4745 63.9517 68.4745 62.2731C68.4745 60.5946 69.739 59.2765 71.3533 59.2765C72.9677 59.2765 74.2322 60.5946 74.2322 62.2731C74.2322 63.9517 72.9677 65.2698 71.3533 65.2698ZM85.7195 58.9549C84.9241 58.0938 83.8455 57.6215 82.6699 57.6215C81.5609 57.6215 80.542 58.0856 79.8647 58.8948C79.8203 58.9478 79.7536 58.9843 79.6787 58.9843C79.6495 58.9843 79.6261 58.9843 79.5968 58.969C79.4998 58.9313 79.4401 58.8418 79.4401 58.737V53.9204H77.6105V66.7069H79.4401V65.8682C79.4401 65.7633 79.5068 65.6738 79.5968 65.6432C79.6191 65.6361 79.6495 65.6279 79.6787 65.6279C79.7454 65.6279 79.8121 65.6573 79.8647 65.7103C80.5198 66.4819 81.5457 66.9318 82.6699 66.9318C85.0726 66.9318 86.9548 64.887 86.9548 62.2802C86.9548 60.9998 86.5161 59.823 85.7195 58.9537V58.9549ZM82.223 65.2698C80.6087 65.2698 79.3442 63.9517 79.3442 62.2731C79.3442 60.5946 80.6087 59.2765 82.223 59.2765C83.8373 59.2765 85.1019 60.5946 85.1019 62.2731C85.1019 63.9517 83.8373 65.2698 82.223 65.2698ZM92.7207 59.5462C92.8693 59.5462 93.0108 59.5533 93.1301 59.5757V57.6804C93.0634 57.6733 92.9734 57.658 92.8693 57.658C91.8726 57.658 90.9426 58.1751 90.4595 58.9985C90.4139 59.0739 90.332 59.1186 90.2501 59.1186C90.2279 59.1186 90.2057 59.1186 90.1916 59.1116C90.0875 59.0821 90.0126 58.9843 90.0126 58.8795V57.8453H88.1971V66.7069H90.0349V62.8185C90.0349 60.796 91.069 59.545 92.7277 59.545H92.7207V59.5462ZM94.5058 57.8453V66.7069H96.3587V57.8453H94.5058ZM95.4065 53.9275C94.7819 53.9275 94.2683 54.4446 94.2683 55.0736C94.2683 55.7026 94.7819 56.2197 95.4065 56.2197C96.0312 56.2197 96.5447 55.7026 96.5447 55.0736C96.5447 54.4446 96.0312 53.9275 95.4065 53.9275ZM98.9334 65.6137C99.7733 66.4607 100.964 66.9248 102.28 66.9248C103.36 66.9248 104.208 66.7151 105.778 65.5619L104.751 64.4759C103.954 65 103.218 65.2474 102.49 65.2474C100.792 65.2474 99.5137 63.967 99.5137 62.2731C99.5137 60.5793 100.792 59.2988 102.49 59.2988C103.278 59.2988 104.007 59.5533 104.722 60.0704L105.874 58.969C104.461 57.7558 103.159 57.6132 102.304 57.6132C99.6026 57.6132 97.6455 59.5686 97.6455 62.2649C97.6455 63.5759 98.1076 64.7668 98.9405 65.6055L98.9334 65.6126V65.6137ZM109.312 62.7525C109.356 62.7078 109.416 62.6854 109.476 62.6854H109.49C109.564 62.6854 109.624 62.7231 109.669 62.7749L112.808 66.6998H115.054L111.059 61.8385C110.978 61.7407 110.986 61.5993 111.075 61.5086L114.713 57.8453H112.503L109.281 61.1034C109.237 61.1482 109.177 61.1788 109.111 61.1788C109.08 61.1788 109.051 61.1788 109.022 61.1635C108.932 61.1258 108.872 61.0363 108.872 60.9385V53.9275H107.034V66.7139H108.872V63.2755C108.872 63.2084 108.902 63.1401 108.947 63.0953L109.312 62.7584V62.7514V62.7525ZM118.433 66.9248C120.018 66.9248 121.624 65.9589 121.624 64.1237C121.624 62.9257 120.873 62.1011 119.332 61.5923L118.254 61.2401C117.496 60.9856 117.131 60.6181 117.131 60.1093C117.131 59.525 117.644 59.1127 118.373 59.1127C119.035 59.1127 119.631 59.5321 120.018 60.2742L121.482 59.4802C120.902 58.3341 119.719 57.6227 118.373 57.6227C116.639 57.6227 115.382 58.7381 115.382 60.2742C115.382 61.4874 116.104 62.3038 117.6 62.7832L118.692 63.1354C119.504 63.3898 119.839 63.7196 119.839 64.2744C119.839 65.0907 119.095 65.3758 118.462 65.3758C117.658 65.3758 116.938 64.8669 116.566 64.0353L115.092 64.8069C115.627 66.1179 116.9 66.9271 118.426 66.9271H118.433V66.9248ZM64.7476 66.8353C65.3278 66.8353 65.8565 66.7905 66.1759 66.7375V65.1567C65.908 65.1873 65.5138 65.2097 65.2529 65.2097C64.4422 65.2097 63.7649 65.0601 63.7649 63.2543V59.5545C63.7649 59.419 63.8761 59.3153 64.0024 59.3153H65.8553V57.8323H64.0024C63.869 57.8323 63.7649 57.7204 63.7649 57.5932V55.0536H61.9424V57.5932C61.9424 57.7287 61.8301 57.8323 61.7038 57.8323H60.3948V59.3153H61.7038C61.8371 59.3153 61.9424 59.4272 61.9424 59.5545V63.7491C61.9424 66.8282 63.9732 66.8282 64.7394 66.8282L64.7464 66.8353H64.7476Z" fill="#EDEEF1"/>
<path d="M34.7137 64.9188V62.0577L34.4458 61.9081L27.296 65.9531L20.5335 62.1248V60.4015L27.296 64.2298L34.7137 60.0269V57.2105L34.4084 57.0385L27.296 61.0682L20.8166 57.3978L27.296 53.7203L32.5192 56.6792L32.9134 56.4542V56.1845L27.296 53.0088L19.8784 57.2116V57.5792L27.296 61.782L34.0586 57.9537V59.6841L27.296 63.5124L20.1463 59.4603L19.8784 59.6099V62.4711L27.296 66.674L34.0586 62.8457V64.569L27.296 68.4043L20.1533 64.3523L19.8784 64.5019V64.9212L27.296 69.1241L34.7137 64.9212V64.9188Z" fill="#EDEEF1"/>
<path d="M0.898926 66.7649V57.9575H4.41044C5.31851 57.9575 6.00999 58.1714 6.48485 58.5992C6.96805 59.0186 7.20965 59.5596 7.20965 60.2223C7.20965 60.7759 7.05969 61.2205 6.75977 61.556C6.46819 61.8831 6.10996 62.1054 5.68508 62.2228C6.18494 62.3235 6.59732 62.5751 6.92223 62.9777C7.24714 63.372 7.40959 63.8333 7.40959 64.3618C7.40959 65.058 7.15966 65.6325 6.6598 66.0855C6.15994 66.5384 5.45181 66.7649 4.5354 66.7649H0.898926ZM2.49848 61.6566H4.173C4.62288 61.6566 4.96861 61.5518 5.21021 61.3421C5.45181 61.1324 5.57261 60.8346 5.57261 60.4488C5.57261 60.0797 5.45181 59.7903 5.21021 59.5806C4.97694 59.3625 4.62288 59.2535 4.14801 59.2535H2.49848V61.6566ZM2.49848 65.4564H4.28547C4.76034 65.4564 5.1269 65.3474 5.38516 65.1293C5.65175 64.9028 5.78505 64.5882 5.78505 64.1856C5.78505 63.7746 5.64759 63.4517 5.37267 63.2168C5.09774 62.9819 4.72701 62.8645 4.26048 62.8645H2.49848V65.4564Z" fill="#EDEEF1"/>
<path d="M10.666 66.7649V63.632L7.72932 57.9575H9.54131L11.4783 62.0215L13.4027 57.9575H15.1897L12.2655 63.632V66.7649H10.666Z" fill="#EDEEF1"/>
</svg>
