<?xml version="1.0" encoding="UTF-8"?> <svg xmlns="http://www.w3.org/2000/svg" id="Layer_1" data-name="Layer 1" viewBox="0 0 876.13 699"><defs><style>.cls-1{fill:#fff;}.cls-2{fill:#0f6570;}.cls-3,.cls-5{fill:#24211e;}.cls-4{fill:#12100b;}.cls-5{fill-rule:evenodd;}</style></defs><rect class="cls-1" x="9" y="9" width="858.13" height="681"></rect><path class="cls-2" d="M858.13,18V681H18V18H858.13m18-18H0V699H876.13V0Z"></path><path class="cls-3" d="M212.37,270.44H191.88l-3.58,20.1h-16L190.86,199h24.45l18.56,91.53H216.08Zm-18.18-12.55h16l-8.07-44.16Z"></path><path class="cls-3" d="M244.62,199h21.76l13.44,53.89L293.26,199h22.15v91.53H298.25V226.79l-16.77,63.75h-5.12l-16.77-63.75v63.75h-15Z"></path><path class="cls-3" d="M330.76,199h44.55v13.57H348v23.55h22v12.93H348V277H377v13.57H330.76Z"></path><path class="cls-3" d="M389.64,199h25.22c18.69,0,27.9,7.81,27.9,24.07v5.12c0,12.28-5.12,17.92-12.8,20.73l15.75,41.61H427.27l-13.95-38.66h-6.4v38.66H389.64Zm24.58,41.09c7.93,0,11.52-3.33,11.52-11.78v-4.86c0-8.07-3.71-11.14-11.52-11.14h-7.3V240.1Z"></path><path class="cls-3" d="M457.48,199h17.28v91.53H457.48Z"></path><path class="cls-3" d="M489.48,260.2V229.48c0-20.49,12.42-31.62,29.95-31.62,16.13,0,27.78,7.29,28.55,27.65H530.7c-.64-10.24-4.1-13.83-11.4-13.83-7.93,0-12,5.51-12,17.41v31.24c0,11.77,3.59,17.66,12.55,17.66,6.78,0,11.77-4.1,12-15h16.77c-.26,20.36-11.91,28.93-28.55,28.93C500.49,291.94,489.48,280.55,489.48,260.2Z"></path><path class="cls-3" d="M595,270.44H574.47l-3.58,20.1h-16L573.45,199H597.9l18.56,91.53h-17.8Zm-18.17-12.55h16l-8.07-44.16Z"></path><path class="cls-3" d="M616.84,224.74l7.55-26.88,14.85,4.48-12.93,25.73Z"></path><path class="cls-3" d="M645.38,264.55h16.77c.13,10.37,3.2,14.08,10.63,14.08,5.88,0,9.21-3.71,9.21-11.26,0-9.22-4.48-11.65-14.21-16.65-13.82-6.78-21.12-13.82-21.12-28.93s9.6-23.93,25.22-23.93,25.47,7.42,25.6,24.83H681.22c-.12-9.09-4-11.52-9.34-11.52s-8.32,3.07-8.32,9.35c0,7.29,2.82,10.24,12.54,15.23,13.44,6.4,22.92,12,22.92,30.08,0,17-10,26.11-26.24,26.11C655.62,291.94,645.51,283.49,645.38,264.55Z"></path><path class="cls-2" d="M102.16,315h25.22c16.51,0,26.24,6.78,26.24,21.63v4c0,9.86-5.64,15.49-14.34,17.92,10.24,2.05,16.9,7.81,16.9,20.61v2.95c0,16.89-10,24.45-27.65,24.45H102.16Zm23.55,37.89c8.07,0,11.39-3.2,11.39-11.52v-3.59c0-8.44-4-10.36-11.52-10.36h-6.4V352.9Zm1,41.22c8.06,0,12.28-3.84,12.28-13.06v-3.71c0-9.86-3.71-12.67-12.8-12.67h-7v29.44Z"></path><path class="cls-2" d="M164.24,315h44.54v13.57H181.52v23.55h22v12.93h-22V393h28.93v13.57H164.24Z"></path><path class="cls-2" d="M217.87,380.55h16.77c.12,10.37,3.2,14.08,10.62,14.08,5.89,0,9.22-3.71,9.22-11.26,0-9.22-4.48-11.65-14.21-16.65-13.83-6.78-21.12-13.82-21.12-28.93s9.6-23.93,25.21-23.93,25.48,7.42,25.61,24.83H253.71c-.13-9.09-4-11.52-9.35-11.52s-8.32,3.07-8.32,9.35c0,7.29,2.82,10.24,12.55,15.23,13.44,6.4,22.91,12,22.91,30.08,0,17-10,26.11-26.24,26.11C228.11,407.94,218,399.49,217.87,380.55Z"></path><path class="cls-2" d="M293.9,328.58H276.62V315h52.1v13.57H311.31l-.13,78H293.9Z"></path><path class="cls-4" d="M355.21,380.55H372c.13,10.37,3.2,14.08,10.62,14.08,5.89,0,9.22-3.71,9.22-11.26,0-9.22-4.48-11.65-14.21-16.65-13.82-6.78-21.12-13.82-21.12-28.93s9.6-23.93,25.22-23.93,25.47,7.42,25.6,24.83H391.05c-.13-9.09-4-11.52-9.34-11.52s-8.33,3.07-8.33,9.35c0,7.29,2.82,10.24,12.55,15.23,13.44,6.4,22.91,12,22.91,30.08,0,17-10,26.11-26.24,26.11C365.45,407.94,355.34,399.49,355.21,380.55Z"></path><path class="cls-4" d="M431.24,328.58H414V315h52.1v13.57H448.65l-.13,78H431.24Z"></path><path class="cls-4" d="M504.07,386.44H483.59L480,406.54H464L482.57,315H507l18.56,91.53h-17.8ZM485.9,373.89h16l-8.07-44.16Z"></path><path class="cls-4" d="M533.77,315H559c18.69,0,27.91,7.81,27.91,24.07v5.12c0,12.28-5.12,17.92-12.8,20.73l15.74,41.61H571.4l-13.95-38.66h-6.4v38.66H533.77Zm24.57,41.09c7.94,0,11.52-3.33,11.52-11.78v-4.86c0-8.07-3.71-11.14-11.52-11.14h-7.29V356.1Z"></path><path class="cls-4" d="M612.49,328.58H595.21V315H647.3v13.57H629.9l-.13,78H612.49Z"></path><path class="cls-4" d="M713.1,315v64.77c0,19.07-10.5,28.16-28.81,28.16-17.92,0-28.54-9.09-28.54-27.9V315h17.41v64.52c0,10.11,3.45,14.33,11.26,14.33,7.43,0,11.14-4.22,11.14-14.72V315Z"></path><path class="cls-4" d="M723,315H747.4c18.81,0,27.77,7.81,27.77,24.45v6.14c0,16.64-9.72,24.2-27.39,24.2h-7.55v36.74H723ZM747,357.38c7.55,0,11.27-3.71,11.27-12v-5.64c0-8.57-3.84-11.51-11.27-11.51h-6.78v29.18Z"></path><path class="cls-3" d="M151.43,431H196v13.57H168.71v23.55h22v12.93h-22V509h28.93v13.57H151.43Z"></path><path class="cls-3" d="M210.31,431h21.76l13.44,53.89L259,431H281.1v91.53H264V458.79l-16.77,63.75h-5.12l-16.77-63.75v63.75h-15Z"></path><path class="cls-3" d="M296.46,431h24.45c18.81,0,27.77,7.81,27.77,24.45v6.14c0,16.64-9.72,24.2-27.39,24.2h-7.55v36.74H296.46Zm24.06,42.37c7.55,0,11.27-3.71,11.27-12v-5.64c0-8.57-3.84-11.51-11.27-11.51h-6.78v29.18Z"></path><path class="cls-3" d="M360.71,431H378v77.7h26.12v13.83h-43.4Z"></path><path class="cls-3" d="M412,492.58V461.22c0-20.35,12.8-31.36,31-31.36,18.43,0,30.85,10.5,30.85,31.1v31.11c0,20.48-11.78,31.87-30.72,31.87S412,512.68,412,492.58Zm44-.13V461.09c0-11.13-4.35-17.41-13.05-17.41S430,449.57,430,461.09v31.36C430,504.1,434.06,510,443,510,451.72,510,456.07,503.72,456.07,492.45Z"></path><path class="cls-3" d="M499.72,483.37,478.34,431H497l12.29,35.07,12-35.07h16.39l-20.48,52.48v39H499.72Z"></path><path class="cls-3" d="M547.85,431h44.54v13.57H565.13v23.55h22v12.93h-22V509h28.93v13.57H547.85Z"></path><path class="cls-3" d="M606.73,431h25.21c18.69,0,27.91,7.81,27.91,24.07v5.12c0,12.28-5.12,17.92-12.8,20.73l15.74,41.61H644.36l-14-38.66H624v38.66H606.73ZM631.3,472.1c7.94,0,11.52-3.33,11.52-11.78v-4.86c0-8.07-3.71-11.14-11.52-11.14H624V472.1Z"></path><path class="cls-3" d="M670.73,496.55H687.5c.12,10.37,3.2,14.08,10.62,14.08,5.89,0,9.22-3.71,9.22-11.26,0-9.22-4.48-11.65-14.21-16.65C679.3,475.94,672,468.9,672,453.79s9.6-23.93,25.21-23.93,25.48,7.42,25.61,24.83H706.57c-.13-9.09-4-11.52-9.35-11.52s-8.32,3.07-8.32,9.35c0,7.29,2.82,10.24,12.55,15.23,13.44,6.4,22.91,12,22.91,30.08,0,17-10,26.11-26.24,26.11C681,523.94,670.85,515.49,670.73,496.55Z"></path><rect class="cls-2" x="482.55" y="59.52" width="209.45" height="106.8"></rect><path class="cls-1" d="M511.63,141.5,527,119.41c5.42-8,8-13,8-19.47V98.25c0-5.08-1.78-7.36-5.42-7.36s-5.84,2.2-6.09,9.14H512.81c0-11.68,6.1-18.11,16.93-18.11,11.17,0,16.76,5.92,16.76,15.91v1.78c0,8-2.88,13.71-9.4,23.27l-8,11.34h17.52v9h-35Z"></path><path class="cls-1" d="M554.58,124.06V102c0-13.55,7.79-20.06,19-20.06s19,6.26,19,19.89v21.91c0,13.55-7.45,20.4-19,20.4C562.11,144.12,554.58,137.43,554.58,124.06Zm26.49-.25v-22c0-7.54-2.46-10.92-7.45-10.92s-7.53,3.13-7.53,10.92v22.08c0,7.87,2.54,10.92,7.62,10.92S581.07,131.68,581.07,123.81Z"></path><path class="cls-1" d="M597.7,141.5l15.4-22.09c5.41-8,7.95-13,7.95-19.47V98.25c0-5.08-1.77-7.36-5.41-7.36s-5.84,2.2-6.1,9.14H598.88c0-11.68,6.09-18.11,16.93-18.11,11.17,0,16.75,5.92,16.75,15.91v1.78c0,8-2.87,13.71-9.39,23.27l-8,11.34h17.52v9h-35Z"></path><path class="cls-1" d="M649.49,94.36l-8.63,6.43V90.63l10.07-7.95H661v60.51H649.49Z"></path><path class="cls-5" d="M341.68,142.56a14.05,14.05,0,0,1-3.74-.31c-.31-4.35-.62-22.7-.31-38.87a13.85,13.85,0,0,1,4.67-.93c6.84,0,10.57,8.08,10.57,18,0,12.44-4.66,22.08-11.19,22.08Zm7.15-45.09a22.12,22.12,0,0,0-11.2,2.8c0-10,0-19,.31-22.08l-20.83,3.73v1.87l2.18.31c2.8.62,3.73,2.17,4.35,5.9.62,7.47.31,47.27,0,53.81A81,81,0,0,0,341.05,146c16.49,0,26.44-10.26,26.44-26.43,0-12.75-8.09-22.08-18.66-22.08Z"></path><path class="cls-5" d="M238.73,79.43H184v2.8l3.11.31c4,.62,5.6,3.11,6.22,9,.93,11.2.62,31.41,0,41.05-.62,5.91-2.18,8.71-6.22,9l-3.11.62v2.49h35.14v-2.49l-3.73-.62c-4-.31-5.6-3.11-6.22-9-.31-4.05-.62-10.58-.62-18.66l7.46.31c4.67,0,6.84,3.73,7.78,9h2.8V101.2h-2.8c-.94,5.29-3.11,9-7.78,9l-7.46.31c0-10.57.31-20.53.62-26.43h10.88c8.4,0,12.76,5.28,15.87,14.61l3.11-.93-.32-18.35Z"></path><path class="cls-5" d="M255.53,100c-6.84,0-8.71,9.32-8.71,21.45,0,11.82,3.11,21.46,9.33,21.46,7.15,0,9-9.33,9-21.46,0-11.81-3.11-21.45-9.64-21.45Zm.93-3.11c15.55,0,23.33,10.57,23.33,24.56,0,13.38-8.71,24.57-24.26,24.57s-23.32-10.57-23.32-24.57c0-13.37,8.7-24.56,24.25-24.56Z"></path><path class="cls-5" d="M385.84,115.82l14.61-.31c0-6.23-.93-15.55-6.21-15.55s-8.09,8.7-8.4,15.86Zm-14.31,5.91c0-12.75,8.09-24.88,24-24.88,13.06,0,19.28,9.64,19.28,22.39H385.84c-.31,11.5,5.28,19.9,16.48,19.9a15.92,15.92,0,0,0,10.57-3.42l1.25,1.55c-3.11,4.36-9.95,8.71-18.66,8.71-14,0-24-9.95-24-24.25Z"></path><path class="cls-5" d="M451.77,99.34a38,38,0,0,0-14.3-2.49c-11.51,0-18.67,6.84-18.67,14.92s5.29,11.51,12.76,14c7.77,2.79,9.95,5,9.95,8.71s-2.8,7.15-7.78,7.15c-5.91,0-10.26-3.42-13.68-12.75l-2.18.62.31,13.69c3.73,1.55,10.57,2.79,16.49,2.79,12.12,0,19.9-6.22,19.9-15.86,0-6.53-3.42-10.26-11.51-13.37-8.71-3.42-11.81-5.6-11.81-9.64s2.79-6.84,6.52-6.84c5.6,0,9.34,3.42,12.14,11.81l2.17-.62-.31-12.12Z"></path><path class="cls-5" d="M320.22,98.09c-5.29-3.11-14.62-1.56-19.59,9.64l.3-10.88-20.83,4v1.87l2.18.31c2.79.31,4,1.86,4.35,5.91.62,7.46.31,20.52,0,27.05-.31,3.73-1.56,5.6-4.35,5.91l-2.18.31v2.49H309v-2.49l-3.73-.31c-3.11-.31-4-2.18-4.36-5.91-.62-5.91-.62-17.72-.3-25.19,1.55-2.18,8.39-4,14.61,0l5-12.75Z"></path><circle class="cls-2" cx="437.7" cy="571" r="12"></circle><path class="cls-3" d="M284.45,627.5c0,4.19-3.2,7.42-7.87,7.42h-3.49v7.87h-3.74V620.07h7.23C281.25,620.07,284.45,623.31,284.45,627.5Zm-3.68,0c0-2.21-1.57-3.91-4.22-3.91h-3.46v7.81h3.46C279.2,631.4,280.77,629.71,280.77,627.5Z"></path><path class="cls-3" d="M298.15,643.18a11.75,11.75,0,1,1,11.74-11.75A11.67,11.67,0,0,1,298.15,643.18Zm0-3.62a8.13,8.13,0,1,0-8-8.13A8,8,0,0,0,298.15,639.56Z"></path><path class="cls-3" d="M326,628.9l-5.28,13.89h-3.45l-5.86-22.72h3.94l4.16,16.51L326,619.69l6.5,16.89,4.16-16.51h4l-5.88,22.72H331.3Z"></path><path class="cls-3" d="M343.72,620.07h13.66v3.59h-9.92v5.82h8v3.58h-8v6.15h9.92v3.58H343.72Z"></path><path class="cls-3" d="M361.38,620.07h8.19c4.23,0,6.88,2.72,6.88,6.47,0,3.2-1.89,5.28-5.15,6l8.45,10.21h-4.61l-8.32-10h-1.7v10h-3.74Zm7.74,9.47c2.21,0,3.59-1,3.59-3s-1.38-3-3.59-3h-4v6Z"></path><path class="cls-3" d="M381.7,620.07h13.66v3.59h-9.92v5.82h8v3.58h-8v6.15h9.92v3.58H381.7Z"></path><path class="cls-3" d="M399.36,620.07h7c6.75,0,11.9,4.93,11.9,11.36s-5.15,11.36-11.9,11.36h-7Zm7,19.23a7.87,7.87,0,1,0,0-15.74h-3.23V639.3Z"></path><path class="cls-3" d="M429.25,620.07h7.84c4.06,0,6.78,2.88,6.78,6.28a5.22,5.22,0,0,1-2.11,4.38,5.55,5.55,0,0,1,3.65,5.41c0,3.77-3,6.65-7.33,6.65h-8.83Zm7.65,9.57a3,3,0,0,0,3.29-3.07,3.07,3.07,0,0,0-3.29-3.07H433v6.14Zm1.09,9.73c2.4,0,3.77-1.38,3.77-3.27s-1.34-3.26-3.77-3.26h-5v6.53Z"></path><path class="cls-3" d="M454,633.19l-8.61-13.12h4.38l6.08,9.41,6.11-9.41h4.42l-8.64,13.15v9.57H454Z"></path><path class="cls-3" d="M476.61,636.74a6.17,6.17,0,0,0,5.28,2.92c2.11,0,3.68-1.12,3.68-2.82s-1.06-2.66-3.23-3.46l-2.5-.89c-3.61-1.31-5.37-3.3-5.37-6.4,0-4,3.16-6.4,7.39-6.4a8.77,8.77,0,0,1,6.88,3.1l-2.59,2.53a5.51,5.51,0,0,0-4.32-2.11c-1.92,0-3.59,1-3.59,2.62s1.12,2.4,3.46,3.27l2.3.86c3.36,1.25,5.38,3.26,5.35,6.66,0,4-3.14,6.56-7.59,6.56-3.68,0-6.72-1.67-8.09-4.1Z"></path><path class="cls-3" d="M497.22,623.66h-6.59v-3.59h16.95v3.59H501v19.13h-3.74Z"></path><path class="cls-3" d="M515.75,620.07H519l9.92,22.72H525l-2.59-5.95H512.26l-2.56,5.95h-3.87ZM521,633.51l-3.64-8.41-3.65,8.41Z"></path><path class="cls-3" d="M533.83,623.66h-6.6v-3.59h17v3.59h-6.62v19.13h-3.74Z"></path><path class="cls-3" d="M547.24,620.07H551v22.72h-3.74Z"></path><path class="cls-3" d="M557.41,636.74a6.17,6.17,0,0,0,5.28,2.92c2.11,0,3.68-1.12,3.68-2.82s-1.06-2.66-3.23-3.46l-2.5-.89c-3.61-1.31-5.37-3.3-5.37-6.4,0-4,3.16-6.4,7.39-6.4a8.77,8.77,0,0,1,6.88,3.1l-2.6,2.53a5.51,5.51,0,0,0-4.32-2.11c-1.91,0-3.58,1-3.58,2.62s1.12,2.4,3.46,3.27l2.3.86c3.36,1.25,5.38,3.26,5.34,6.66,0,4-3.13,6.56-7.58,6.56-3.68,0-6.72-1.67-8.09-4.1Z"></path><path class="cls-3" d="M578,623.66h-6.59v-3.59h17v3.59h-6.62v19.13H578Z"></path><path class="cls-3" d="M596.55,620.07h3.26l9.92,22.72h-3.9l-2.6-5.95H593.06l-2.56,5.95h-3.87Zm5.24,13.44-3.64-8.41-3.65,8.41Z"></path></svg> 