<svg width="601" height="356" viewBox="0 0 601 356" fill="none" xmlns="http://www.w3.org/2000/svg">
<g clip-path="url(#clip0_601_3270)">
<path d="M346.19 13.769H559.887V185.062H318.518V41.4419C318.518 34.1026 321.433 27.0639 326.623 21.8742C331.812 16.6846 338.851 13.769 346.19 13.769Z" fill="#C4CCD6"/>
<path d="M582.419 13.769H500.928V148.357H582.419V13.769Z" fill="#1B5162"/>
<path d="M582.419 147.906H559.887V185.062H582.419V147.906Z" fill="#1B5162"/>
<path d="M429.689 166.479L474.139 156.121L500.928 148.357L522.74 147.906V185.053H429.689V166.479Z" fill="#1B5162"/>
<path d="M522.738 185.053L559.885 147.906H522.738V185.053Z" fill="#1B5162"/>
<path d="M500.926 129.322L463.779 166.479H500.926V129.322Z" fill="#1B5162"/>
<path d="M147.243 185.053L342.184 185.053V79.7517L147.243 79.7517V185.053Z" fill="#1B5162"/>
<path d="M30.6516 79.761H147.233L177.885 185.052H0L30.6516 79.761Z" fill="#F1C0BB"/>
<path d="M58.1412 138.854H120.011L147.233 79.7612H30.9199L58.1412 138.854Z" fill="#FF6952"/>
<g style="mix-blend-mode:multiply">
<path d="M342.173 247.038H177.885V355.904H342.173V247.038Z" fill="#F1C0BB"/>
</g>
<path d="M342.173 185.062H94.7695V355.914H342.173V185.062Z" fill="#1B5162"/>
<path d="M366.089 272.885H204.664V355.52H366.089V272.885Z" fill="white"/>
<path d="M243.454 342.836H303.633C307.101 342.836 310.428 344.214 312.88 346.666C315.333 349.119 316.71 352.445 316.71 355.914H230.377C230.377 352.445 231.755 349.119 234.207 346.666C236.66 344.214 239.986 342.836 243.454 342.836Z" fill="#1B5162"/>
<path d="M43.8262 80.5302V63.0233C43.8262 51.5352 48.3898 40.5177 56.5131 32.3944C64.6364 24.2711 75.6539 19.7075 87.1419 19.7075C98.63 19.7075 109.648 24.2711 117.771 32.3944C125.894 40.5177 130.458 51.5352 130.458 63.0233V80.5302" stroke="#1B5162" stroke-width="5.76518"/>
<path d="M36.6857 355.914H137.596L137.596 221.95H36.6857L36.6857 355.914Z" fill="white"/>
<path d="M0 221.959H36.6858V355.914H25.9433C19.0627 355.914 12.4639 353.18 7.59862 348.315C2.73331 343.45 0 336.851 0 329.97L0 221.959Z" fill="#1B5162"/>
<path d="M18.3429 185.053L36.6858 221.94H0L18.3429 185.053Z" fill="#1B5162"/>
<path d="M137.597 221.94L119.254 185.053H18.3438L36.6866 221.94H137.597Z" fill="#618794"/>
<path d="M119.254 185.053H18.3632V169.564C18.3632 165.16 20.1125 160.937 23.2263 157.823C26.3401 154.709 30.5633 152.96 34.9669 152.96H102.65C107.054 152.96 111.277 154.709 114.391 157.823C117.505 160.937 119.254 165.16 119.254 169.564V185.053Z" fill="white"/>
<path d="M87.1883 256.867C82.6589 256.862 78.18 257.818 74.0478 259.673C69.9156 261.528 66.2243 264.239 63.2181 267.627C60.2118 271.015 57.9591 275.003 56.609 279.326C55.2588 283.649 54.8419 288.21 55.3859 292.707C55.9299 297.204 57.4224 301.533 59.7647 305.41C62.1069 309.287 65.2456 312.622 68.973 315.196C72.7004 317.769 76.9317 319.521 81.387 320.337C85.8423 321.153 90.4201 321.014 94.8175 319.929V257.79C92.3204 257.179 89.7591 256.869 87.1883 256.867Z" fill="#C4CCD6"/>
<path d="M94.7695 221.959V257.809C101.718 259.52 107.893 263.509 112.307 269.142C116.721 274.774 119.119 281.723 119.119 288.879C119.119 296.035 116.721 302.984 112.307 308.616C107.893 314.248 101.718 318.238 94.7695 319.948V355.933H137.595V221.959H94.7695Z" fill="#C4CCD6"/>
<path d="M119.127 288.855C119.126 281.699 116.726 274.75 112.31 269.118C107.894 263.487 101.719 259.498 94.7695 257.79V319.968C101.725 318.254 107.905 314.258 112.321 308.617C116.737 302.977 119.133 296.018 119.127 288.855Z" fill="#1B5162"/>
<path d="M87.1412 124.009C91.1478 124.009 94.3958 120.761 94.3958 116.755C94.3958 112.748 91.1478 109.5 87.1412 109.5C83.1347 109.5 79.8867 112.748 79.8867 116.755C79.8867 120.761 83.1347 124.009 87.1412 124.009Z" fill="white"/>
<path d="M351.81 50.1089H147.232V79.7515H351.81V50.1089Z" fill="#F1C0BB"/>
<path d="M273.538 50.1089H228.551V185.053H273.538V50.1089Z" fill="#FF6952"/>
<path d="M280.458 260.808H266.621V356.01H280.458V260.808Z" fill="#1B5162"/>
<path d="M309.696 272.568C309.696 273.924 309.158 275.224 308.199 276.183C307.24 277.142 305.94 277.68 304.584 277.68C303.229 277.68 301.929 277.142 300.97 276.183C300.011 275.224 299.473 273.924 299.473 272.568" fill="#1B5162"/>
<path d="M304.584 287.914C307.408 287.914 309.696 285.625 309.696 282.802C309.696 279.979 307.408 277.69 304.584 277.69C301.761 277.69 299.473 279.979 299.473 282.802C299.473 285.625 301.761 287.914 304.584 287.914Z" fill="#1B5162"/>
<path d="M304.584 298.137C307.408 298.137 309.696 295.848 309.696 293.025C309.696 290.202 307.408 287.913 304.584 287.913C301.761 287.913 299.473 290.202 299.473 293.025C299.473 295.848 301.761 298.137 304.584 298.137Z" fill="#1B5162"/>
<path d="M304.584 308.36C307.408 308.36 309.696 306.072 309.696 303.249C309.696 300.425 307.408 298.137 304.584 298.137C301.761 298.137 299.473 300.425 299.473 303.249C299.473 306.072 301.761 308.36 304.584 308.36Z" fill="#1B5162"/>
<path d="M342.174 272.578L318.517 185.053H273.539V272.578H342.174Z" fill="#FF6952"/>
<path d="M204.895 272.578H273.539V185.053H228.551L204.895 272.578Z" fill="#F1C0BB"/>
<path d="M160.466 213.994H182.104C188.159 213.994 193.966 216.399 198.248 220.681C202.529 224.962 204.934 230.769 204.934 236.824V355.971H137.674V236.824C137.674 230.776 140.074 224.975 144.347 220.695C148.62 216.414 154.417 214.004 160.466 213.994Z" fill="#FF6952"/>
<path d="M179.98 168.343H162.521V213.994H179.98V168.343Z" fill="white"/>
<path d="M179.98 185.062H162.521V214.004H179.98V185.062Z" fill="#FF6952"/>
<path d="M185.851 162.761H156.641V168.343H185.851V162.761Z" fill="white"/>
<path d="M188.724 248.383H153.768V318.286H188.724V248.383Z" fill="#FCBA33"/>
<path d="M153.757 283.33H188.713V248.374H153.757V283.33Z" fill="white"/>
<path d="M153.95 318.286C153.895 315.957 154.307 313.641 155.161 311.473C156.014 309.305 157.293 307.33 158.921 305.663C160.548 303.997 162.493 302.672 164.64 301.768C166.787 300.864 169.094 300.398 171.423 300.398C173.753 300.398 176.059 300.864 178.207 301.768C180.354 302.672 182.298 303.997 183.926 305.663C185.554 307.33 186.833 309.305 187.686 311.473C188.54 313.641 188.951 315.957 188.897 318.286" fill="white"/>
<path d="M153.758 283.33C156.053 283.33 158.326 283.782 160.446 284.661C162.567 285.539 164.494 286.826 166.117 288.449C167.74 290.072 169.027 291.999 169.905 294.12C170.784 296.24 171.236 298.513 171.236 300.808H153.758V283.33Z" fill="#095A35"/>
<path d="M171.236 283.33C175.872 283.33 180.317 285.172 183.595 288.449C186.873 291.727 188.714 296.173 188.714 300.808H171.236V283.33Z" fill="#42BA91"/>
<path d="M153.768 248.383H188.714V283.34L153.768 248.383Z" fill="#9ED6C4"/>
<path d="M500.928 79.7612V13.769H582.428L500.928 79.7612Z" fill="#618794"/>
<path d="M429.689 355.904H364.168L342.174 272.578V185.053H429.689V355.904Z" fill="#AE382F"/>
<path d="M417.889 294.918H426.229C431.708 294.918 436.963 297.094 440.837 300.969C444.712 304.843 446.888 310.098 446.888 315.577C446.888 321.056 444.712 326.31 440.837 330.184C436.963 334.059 431.708 336.235 426.229 336.235H408.117" stroke="white" stroke-width="5.76518"/>
<path d="M407.695 355.904H364.168L342.174 272.578H429.689L407.695 355.904Z" fill="#FCBA33"/>
<path d="M385.932 272.568C380.131 272.654 374.372 271.586 368.988 269.426C363.604 267.266 358.704 264.057 354.572 259.985C350.44 255.914 347.158 251.061 344.919 245.71C342.679 240.359 341.525 234.616 341.525 228.815C341.525 223.014 342.679 217.271 344.919 211.92C347.158 206.569 350.44 201.717 354.572 197.646C358.704 193.574 363.604 190.365 368.988 188.205C374.372 186.045 380.131 184.976 385.932 185.062" fill="#FF6952"/>
<path d="M385.932 185.062C391.732 184.976 397.491 186.045 402.875 188.205C408.259 190.365 413.159 193.574 417.291 197.646C421.424 201.717 424.705 206.569 426.945 211.92C429.184 217.271 430.338 223.014 430.338 228.815C430.338 234.616 429.184 240.359 426.945 245.71C424.705 251.061 421.424 255.914 417.291 259.985C413.159 264.057 408.259 267.266 402.875 269.426C397.491 271.586 391.732 272.654 385.932 272.568" fill="#F1C0BB"/>
<path d="M385.932 185.052H318.518C311.637 185.052 305.038 182.319 300.173 177.454C295.307 172.589 292.574 165.99 292.574 159.109V151.067H359.988C366.869 151.067 373.468 153.8 378.333 158.665C383.198 163.531 385.932 170.129 385.932 177.01V185.052Z" fill="#42BA91"/>
<path d="M465.058 43.8922C458.228 43.8848 451.539 45.8356 445.783 49.5133C442.97 37.8128 436.301 27.3996 426.85 19.951C417.398 12.5024 405.714 8.4519 393.68 8.4519C381.647 8.4519 369.963 12.5024 360.511 19.951C351.06 27.3996 344.391 37.8128 341.578 49.5133C336.156 46.0589 329.906 44.1249 323.481 43.9137C317.057 43.7024 310.693 45.2216 305.057 48.3125C299.42 51.4033 294.718 55.952 291.442 61.4829C288.165 67.0137 286.436 73.3233 286.434 79.7517H500.927C500.925 70.2403 497.145 61.1193 490.418 54.3946C483.692 47.6699 474.57 43.8922 465.058 43.8922Z" fill="white"/>
<path d="M429.69 185.062H600.541V329.97C600.541 336.851 597.807 343.45 592.942 348.315C588.077 353.18 581.478 355.914 574.597 355.914H429.69V185.062Z" fill="#FF6952"/>
<path d="M403.996 185.062V153.507C404.172 141.29 409.148 129.633 417.85 121.056C426.551 112.478 438.279 107.67 450.497 107.67C462.715 107.67 474.443 112.478 483.144 121.056C491.846 129.633 496.822 141.29 496.998 153.507V185.062" stroke="white" stroke-width="1.92173"/>
<path d="M450.502 185.062V152.835C450.502 140.503 455.401 128.677 464.12 119.957C472.84 111.237 484.667 106.338 496.998 106.338C509.33 106.338 521.156 111.237 529.876 119.957C538.596 128.677 543.494 140.503 543.494 152.835V185.062" stroke="white" stroke-width="1.92173"/>
<path d="M476.531 270.484C476.531 260.252 480.596 250.439 487.831 243.204C495.065 235.969 504.878 231.905 515.11 231.905C525.342 231.905 535.154 235.969 542.389 243.204C549.624 250.439 553.689 260.252 553.689 270.484" fill="#618794"/>
<path d="M553.689 270.483C553.689 280.715 549.624 290.528 542.389 297.762C535.154 304.997 525.342 309.062 515.11 309.062C504.878 309.062 495.065 304.997 487.831 297.762C480.596 290.528 476.531 280.715 476.531 270.483" fill="#1B5162"/>
<path d="M515.109 231.905C525.341 231.905 535.154 235.969 542.389 243.204C549.624 250.439 553.688 260.252 553.688 270.484C553.688 280.715 549.624 290.528 542.389 297.763C535.154 304.998 525.341 309.062 515.109 309.062" stroke="white" stroke-width="1.92173"/>
<path d="M519.664 231.904C519.664 231.003 519.397 230.123 518.896 229.374C518.396 228.625 517.684 228.041 516.852 227.696C516.02 227.352 515.104 227.261 514.221 227.437C513.337 227.613 512.526 228.047 511.889 228.684C511.252 229.321 510.818 230.132 510.642 231.016C510.466 231.899 510.557 232.815 510.901 233.647C511.246 234.479 511.83 235.191 512.579 235.691C513.328 236.191 514.208 236.459 515.109 236.459C516.317 236.459 517.476 235.979 518.33 235.125C519.184 234.27 519.664 233.112 519.664 231.904Z" fill="#AE382F"/>
<path d="M519.664 309.062C519.664 308.161 519.397 307.28 518.896 306.531C518.396 305.783 517.684 305.199 516.852 304.854C516.02 304.509 515.104 304.419 514.221 304.595C513.337 304.771 512.526 305.204 511.889 305.841C511.252 306.478 510.818 307.29 510.642 308.173C510.466 309.057 510.557 309.972 510.901 310.805C511.246 311.637 511.83 312.348 512.579 312.849C513.328 313.349 514.208 313.616 515.109 313.616C516.317 313.616 517.476 313.136 518.33 312.282C519.184 311.428 519.664 310.27 519.664 309.062Z" fill="#AE382F"/>
<path d="M558.244 270.483C558.244 269.582 557.977 268.702 557.476 267.953C556.976 267.204 556.264 266.62 555.432 266.275C554.6 265.931 553.684 265.84 552.801 266.016C551.917 266.192 551.106 266.626 550.469 267.263C549.832 267.9 549.398 268.711 549.222 269.595C549.047 270.478 549.137 271.394 549.481 272.226C549.826 273.058 550.41 273.77 551.159 274.27C551.908 274.771 552.788 275.038 553.689 275.038C554.897 275.038 556.056 274.558 556.91 273.704C557.764 272.85 558.244 271.691 558.244 270.483Z" fill="#AE382F"/>
<path d="M182.344 356.009L204.895 272.578V356.009H182.344Z" fill="white"/>
<path d="M30.9199 79.7612L58.1412 138.854H120.011" stroke="white" stroke-width="1.92173"/>
<path d="M35.4664 79.7518C35.4664 78.851 35.1993 77.9704 34.6988 77.2214C34.1984 76.4724 33.4871 75.8887 32.6549 75.5439C31.8226 75.1992 30.9069 75.109 30.0234 75.2848C29.1399 75.4605 28.3284 75.8943 27.6914 76.5313C27.0544 77.1682 26.6207 77.9797 26.4449 78.8632C26.2692 79.7467 26.3594 80.6625 26.7041 81.4947C27.0488 82.3269 27.6326 83.0382 28.3816 83.5387C29.1306 84.0391 30.0111 84.3063 30.9119 84.3063C31.51 84.3063 32.1023 84.1884 32.6549 83.9595C33.2074 83.7307 33.7095 83.3952 34.1324 82.9723C34.5554 82.5494 34.8909 82.0473 35.1197 81.4947C35.3486 80.9421 35.4664 80.3499 35.4664 79.7518Z" fill="#AE382F"/>
<path d="M62.3707 138.855C62.3726 137.953 62.1071 137.072 61.6078 136.322C61.1085 135.571 60.3978 134.986 59.5658 134.64C58.7337 134.294 57.8177 134.202 56.9336 134.377C56.0494 134.552 55.237 134.985 54.5991 135.621C53.9612 136.258 53.5265 137.069 53.3499 137.953C53.1734 138.837 53.2631 139.753 53.6075 140.586C53.9519 141.419 54.5357 142.13 55.2849 142.631C56.0341 143.132 56.915 143.4 57.8162 143.4C59.0225 143.4 60.1795 142.921 61.0333 142.069C61.8872 141.217 62.3682 140.061 62.3707 138.855Z" fill="#AE382F"/>
<path d="M124.556 138.855C124.558 137.953 124.293 137.072 123.793 136.322C123.294 135.571 122.583 134.986 121.751 134.64C120.919 134.294 120.003 134.202 119.119 134.377C118.235 134.552 117.423 134.985 116.785 135.621C116.147 136.258 115.712 137.069 115.535 137.953C115.359 138.837 115.449 139.753 115.793 140.586C116.137 141.419 116.721 142.13 117.47 142.631C118.22 143.132 119.101 143.4 120.002 143.4C121.208 143.4 122.365 142.921 123.219 142.069C124.073 141.217 124.554 140.061 124.556 138.855Z" fill="#AE382F"/>
<path d="M214.022 7.51396C217.029 7.52455 219.983 8.30556 222.602 9.78247C225.221 11.2594 227.418 13.3829 228.983 15.9503L229.05 16.0656L244.885 42.5951H213.878C209.296 42.4687 204.946 40.5542 201.757 37.2612C198.569 33.9683 196.795 29.5583 196.817 24.9747C196.838 20.3911 198.652 15.9979 201.871 12.7347C205.09 9.47161 209.458 7.59774 214.041 7.51396H214.022ZM214.041 0C207.479 0.0962707 201.216 2.76337 196.599 7.42811C191.981 12.0928 189.379 18.3828 189.35 24.9461C189.321 31.5094 191.868 37.8221 196.444 42.5274C201.02 47.2327 207.259 49.9549 213.82 50.1091H258.155L235.43 12.0492C233.195 8.37319 230.052 5.33403 226.303 3.22386C222.553 1.11368 218.324 0.00346907 214.022 0H214.041Z" fill="#FF6952"/>
<path d="M288.01 7.51396C292.593 7.59774 296.961 9.47161 300.18 12.7347C303.399 15.9979 305.213 20.3911 305.234 24.9747C305.256 29.5583 303.482 33.9683 300.294 37.2612C297.105 40.5542 292.755 42.4687 288.173 42.5951H257.137L272.972 16.0752L273.049 15.9503C274.612 13.381 276.808 11.256 279.428 9.77883C282.047 8.30166 285.002 7.5218 288.01 7.51396ZM288.01 0C283.71 0.00398643 279.484 1.11457 275.738 3.22485C271.992 5.33514 268.852 8.37406 266.621 12.0492L243.896 50.1091H288.231C294.792 49.9549 301.031 47.2327 305.607 42.5274C310.183 37.8221 312.73 31.5094 312.701 24.9461C312.672 18.3828 310.069 12.0928 305.452 7.42811C300.835 2.76337 294.572 0.0962707 288.01 0Z" fill="#FF6952"/>
</g>
<defs>
<clipPath id="clip0_601_3270">
<rect width="600.54" height="356.01" fill="white"/>
</clipPath>
</defs>
</svg>
