<svg width="558" height="323" viewBox="0 0 558 323" fill="none" xmlns="http://www.w3.org/2000/svg">
<g clip-path="url(#clip0_736_5315)">
<path d="M67.1118 -0.00012207H178.052C186.802 -0.00012207 195.195 3.47602 201.382 9.6636C207.57 15.8512 211.046 24.2433 211.046 32.9939V130.415H67.1118V-0.00012207Z" fill="#BD802B"/>
<path d="M443.136 27.162H211.046V130.415H443.136V27.162Z" fill="#FFDB96"/>
<path d="M67.1116 68.4847C58.0299 68.4847 49.3202 64.8771 42.8985 58.4554C36.4768 52.0337 32.8691 43.324 32.8691 34.2423C32.8691 25.1607 36.4768 16.451 42.8985 10.0293C49.3202 3.60755 58.0299 -0.00012207 67.1116 -0.00012207" fill="#FFDB96"/>
<path d="M443.136 130.416H211.046V322.922H443.136V130.416Z" fill="#BD802B"/>
<path d="M443.136 262.9H557.991V130.416H443.136V262.9Z" fill="#7D5319"/>
<path d="M0.668945 175.671H211.046V303.019H30.9878C22.9467 303.019 15.235 299.824 9.54912 294.139C3.86324 288.453 0.668945 280.741 0.668945 272.7V175.671Z" fill="#FCBA33"/>
<path d="M147.403 86.908H0.668945V175.68H147.403V86.908Z" fill="#F9F7F4"/>
<path d="M147.403 68.4758H0.668945V86.9079H147.403V68.4758Z" fill="#FCBA33"/>
<path d="M10.995 81.5576C13.1275 81.5576 14.8562 79.8289 14.8562 77.6964C14.8562 75.5639 13.1275 73.8352 10.995 73.8352C8.8625 73.8352 7.13379 75.5639 7.13379 77.6964C7.13379 79.8289 8.8625 81.5576 10.995 81.5576Z" fill="#BD2B26"/>
<path d="M22.5785 81.5576C24.711 81.5576 26.4397 79.8289 26.4397 77.6964C26.4397 75.5639 24.711 73.8352 22.5785 73.8352C20.446 73.8352 18.7173 75.5639 18.7173 77.6964C18.7173 79.8289 20.446 81.5576 22.5785 81.5576Z" stroke="#F9F7F4" stroke-width="0.89173" stroke-miterlimit="10"/>
<path d="M34.162 81.5576C36.2944 81.5576 38.0232 79.8289 38.0232 77.6964C38.0232 75.5639 36.2944 73.8352 34.162 73.8352C32.0295 73.8352 30.3008 75.5639 30.3008 77.6964C30.3008 79.8289 32.0295 81.5576 34.162 81.5576Z" fill="#1B5162"/>
<path d="M76.341 274.626C95.3265 274.626 110.717 259.235 110.717 240.25C110.717 221.264 95.3265 205.874 76.341 205.874C57.3556 205.874 41.9648 221.264 41.9648 240.25C41.9648 259.235 57.3556 274.626 76.341 274.626Z" fill="#F9F7F4"/>
<path d="M52.0322 264.567C58.4804 271.014 67.2256 274.636 76.3439 274.635C85.4622 274.634 94.2068 271.011 100.654 264.563C107.101 258.115 110.722 249.369 110.721 240.251C110.721 231.133 107.098 222.388 100.649 215.941" fill="#C4CCD6"/>
<path d="M0.668945 219.624H10.4245" stroke="#F9F7F4" stroke-width="1.78346" stroke-miterlimit="10"/>
<path d="M16.5771 219.624H32.5213" stroke="#F9F7F4" stroke-width="1.78346" stroke-miterlimit="10"/>
<path d="M55.4209 219.624H113.446" stroke="#BD802B" stroke-width="1.78346" stroke-miterlimit="10"/>
<path d="M0.668945 233.375H20.608" stroke="#F9F7F4" stroke-width="1.78346" stroke-miterlimit="10"/>
<path d="M48.189 233.375H67.9765" stroke="#BD802B" stroke-width="1.78346" stroke-miterlimit="10"/>
<path d="M73.1753 233.375H83.0646" stroke="#BD802B" stroke-width="1.78346" stroke-miterlimit="10"/>
<path d="M88.5757 233.375H115.105" stroke="#BD802B" stroke-width="1.78346" stroke-miterlimit="10"/>
<path d="M0.668945 247.125H16.5774" stroke="#F9F7F4" stroke-width="1.78346" stroke-miterlimit="10"/>
<path d="M22.2578 247.125H38.0147" stroke="#F9F7F4" stroke-width="1.78346" stroke-miterlimit="10"/>
<path d="M0.668945 260.876H38.0146" stroke="#F9F7F4" stroke-width="1.78346" stroke-miterlimit="10"/>
<path d="M48.189 247.125H112.411" stroke="#BD802B" stroke-width="1.78346" stroke-miterlimit="10"/>
<path d="M53.7622 260.876H74.6108" stroke="#BD802B" stroke-width="1.78346" stroke-miterlimit="10"/>
<path d="M79.3462 260.876H109.326" stroke="#BD802B" stroke-width="1.78346" stroke-miterlimit="10"/>
<path d="M126.474 219.624H165.318" stroke="#F9F7F4" stroke-width="1.78346" stroke-miterlimit="10"/>
<path d="M129.792 233.375H140.929" stroke="#F9F7F4" stroke-width="1.78346" stroke-miterlimit="10"/>
<path d="M145.896 233.375H165.318" stroke="#F9F7F4" stroke-width="1.78346" stroke-miterlimit="10"/>
<path d="M129.792 247.125H165.318" stroke="#F9F7F4" stroke-width="1.78346" stroke-miterlimit="10"/>
<path d="M127.901 260.876H135.356" stroke="#F9F7F4" stroke-width="1.78346" stroke-miterlimit="10"/>
<path d="M142.097 260.876H170.838" stroke="#F9F7F4" stroke-width="1.78346" stroke-miterlimit="10"/>
<path d="M157.114 303.019H121.097L98.4736 280.387L117.94 263.845L157.114 303.019Z" fill="#BD802B"/>
<path d="M110.726 205.874C117.527 212.674 122.159 221.338 124.036 230.771C125.913 240.204 124.951 249.981 121.271 258.867C117.591 267.753 111.358 275.348 103.361 280.691C95.3647 286.035 85.963 288.887 76.3453 288.887C66.7276 288.887 57.3259 286.035 49.3292 280.691C41.3325 275.348 35.1 267.753 31.4198 258.867C27.7397 249.981 26.7773 240.204 28.6542 230.771C30.5312 221.338 35.1633 212.674 41.9646 205.874C51.0835 196.756 63.4504 191.635 76.3453 191.635C89.2402 191.635 101.607 196.756 110.726 205.874ZM52.0323 215.941C47.2249 220.749 43.9512 226.874 42.625 233.543C41.2988 240.211 41.9797 247.123 44.5816 253.404C47.1836 259.685 51.5896 265.054 57.2427 268.831C62.8958 272.608 69.542 274.624 76.3408 274.624C83.1397 274.624 89.7859 272.608 95.4389 268.831C101.092 265.054 105.498 259.685 108.1 253.404C110.702 247.123 111.383 240.211 110.057 233.543C108.73 226.874 105.457 220.749 100.649 215.941C97.4572 212.749 93.6675 210.217 89.4966 208.489C85.3258 206.761 80.8554 205.872 76.3408 205.872C71.8263 205.872 67.3559 206.761 63.185 208.489C59.0142 210.217 55.2244 212.749 52.0323 215.941Z" fill="#BD802B"/>
<path d="M443.136 131.191H459.812V90.0647H443.136V131.191Z" fill="#BD802B"/>
<path d="M443.145 90.0736H459.811V81.736H451.483C450.388 81.736 449.304 81.9516 448.292 82.3706C447.28 82.7896 446.361 83.4038 445.587 84.178C444.813 84.9522 444.199 85.8714 443.78 86.8829C443.361 87.8945 443.145 88.9787 443.145 90.0736Z" fill="#BD802B"/>
<path d="M505.771 133.929C505.77 133.505 505.853 133.086 506.014 132.694C506.175 132.303 506.412 131.947 506.711 131.647C507.01 131.347 507.365 131.109 507.757 130.947C508.148 130.784 508.567 130.701 508.991 130.701H509.106C509.963 130.701 510.784 131.041 511.389 131.646C511.994 132.252 512.334 133.073 512.334 133.929V151.808C512.334 152.678 512.68 153.513 513.296 154.128C513.911 154.744 514.746 155.09 515.616 155.09C516.486 155.09 517.321 154.744 517.936 154.128C518.552 153.513 518.898 152.678 518.898 151.808V128.525C518.894 119.576 515.662 110.928 509.793 104.172L497.541 90.0736H459.812V150.435C459.808 150.868 459.89 151.298 460.054 151.699C460.217 152.1 460.458 152.465 460.763 152.773C461.068 153.08 461.431 153.324 461.831 153.491C462.231 153.657 462.66 153.743 463.093 153.743C463.964 153.743 464.8 153.398 465.417 152.783C466.034 152.167 466.381 151.333 466.384 150.462V145.584C466.384 144.73 466.723 143.911 467.327 143.307C467.93 142.704 468.749 142.365 469.603 142.365H469.719C470.573 142.365 471.393 142.704 471.998 143.307C472.603 143.91 472.944 144.729 472.947 145.584V150.462C472.947 150.892 473.032 151.319 473.197 151.717C473.362 152.115 473.603 152.477 473.908 152.782C474.213 153.087 474.574 153.328 474.973 153.493C475.371 153.658 475.797 153.743 476.228 153.743C476.659 153.743 477.086 153.658 477.484 153.493C477.882 153.328 478.244 153.087 478.549 152.782C478.854 152.477 479.095 152.115 479.26 151.717C479.425 151.319 479.51 150.892 479.51 150.462V145.584C479.51 145.161 479.593 144.742 479.755 144.352C479.917 143.961 480.154 143.606 480.453 143.307C480.752 143.009 481.107 142.771 481.497 142.61C481.888 142.448 482.306 142.365 482.729 142.365H482.854C483.708 142.365 484.526 142.704 485.13 143.307C485.734 143.911 486.073 144.73 486.073 145.584V150.462C486.073 151.332 486.419 152.167 487.034 152.782C487.65 153.397 488.484 153.743 489.355 153.743C489.786 153.743 490.212 153.658 490.61 153.493C491.009 153.328 491.37 153.087 491.675 152.782C491.98 152.477 492.221 152.115 492.386 151.717C492.551 151.319 492.636 150.892 492.636 150.462V145.584C492.639 144.729 492.98 143.91 493.585 143.307C494.19 142.704 495.01 142.365 495.864 142.365H495.98C496.834 142.365 497.653 142.704 498.256 143.307C498.86 143.911 499.199 144.73 499.199 145.584V181.494C499.199 182.366 499.546 183.203 500.163 183.82C500.78 184.438 501.617 184.784 502.49 184.784C503.361 184.782 504.196 184.434 504.811 183.817C505.426 183.201 505.771 182.365 505.771 181.494V133.929Z" fill="#FCBA33"/>
<path d="M489.203 81.736H451.483C453.693 81.7383 455.811 82.6178 457.373 84.1812C458.934 85.7445 459.812 87.8639 459.812 90.0736H497.541" fill="#FCBA33"/>
<path d="M0.659668 175.689L51.8717 117.432L77.3128 142.873L116.067 98.8928L134.392 117.218L147.403 102.611V175.689H0.659668Z" fill="#7D5319"/>
<path d="M0.668945 131.45L7.70469 124.414C10.0456 122.075 13.2193 120.762 16.5284 120.762C19.8374 120.762 23.0111 122.075 25.352 124.414L36.4808 135.534C37.6401 136.693 39.0164 137.613 40.5312 138.24C42.0459 138.868 43.6694 139.191 45.3089 139.191C46.9485 139.191 48.572 138.868 50.0867 138.24C51.6015 137.613 52.9778 136.693 54.1371 135.534L76.9832 112.688C79.3241 110.349 82.4978 109.035 85.8069 109.035C89.1159 109.035 92.2896 110.349 94.6305 112.688L116.407 134.464C117.566 135.623 118.942 136.543 120.457 137.17C121.972 137.798 123.595 138.121 125.235 138.121C126.874 138.121 128.498 137.798 130.013 137.17C131.527 136.543 132.904 135.623 134.063 134.464L147.688 120.838" stroke="#FCBA33" stroke-width="1.88155" stroke-miterlimit="10"/>
<path d="M284.177 41.0195C278.943 41.0118 273.818 42.5067 269.409 45.3265C267.266 36.3581 262.163 28.3735 254.925 22.6611C247.687 16.9488 238.734 13.8419 229.513 13.8419C220.293 13.8419 211.34 16.9488 204.102 22.6611C196.864 28.3735 191.761 36.3581 189.617 45.3265C185.465 42.6772 180.676 41.1939 175.752 41.032C170.829 40.8702 165.953 42.0359 161.635 44.4068C157.317 46.7777 153.717 50.2665 151.211 54.5076C148.706 58.7486 147.387 63.5856 147.394 68.5115H311.642C311.645 64.9025 310.938 61.3281 309.559 57.9928C308.18 54.6575 306.158 51.6266 303.607 49.0733C301.056 46.5201 298.027 44.4946 294.693 43.1127C291.359 41.7308 287.786 41.0195 284.177 41.0195Z" fill="#F9F7F4"/>
<path d="M67.1118 -0.00012207C76.1935 -0.000121879 84.9032 3.60755 91.3249 10.0293C97.7466 16.451 101.354 25.1607 101.354 34.2423C101.354 43.324 97.7466 52.0337 91.3249 58.4554C84.9032 64.8771 76.1935 68.4847 67.1118 68.4847" fill="#FFDB96"/>
<path d="M67.1118 41.0286C61.7935 41.0297 56.56 42.361 51.8877 44.9012C47.2153 47.4414 43.2525 51.1099 40.3599 55.5727C43.5647 59.5918 47.634 62.8372 52.2654 65.0677C56.8968 67.2982 61.9712 68.4565 67.1118 68.4565C72.2523 68.4565 77.3267 67.2982 81.9581 65.0677C86.5895 62.8372 90.6588 59.5918 93.8637 55.5727C90.9699 51.111 87.0068 47.4435 82.3347 44.9034C77.6626 42.3633 72.4297 41.0314 67.1118 41.0286Z" fill="#00B379"/>
<path d="M52.7813 23.836C52.7795 26.6727 53.6192 29.4462 55.1941 31.8056C56.769 34.165 59.0084 36.0043 61.6288 37.0907C64.2493 38.1771 67.1331 38.4618 69.9155 37.9088C72.6978 37.3558 75.2536 35.99 77.2595 33.9841C79.2654 31.9782 80.6312 29.4224 81.1842 26.6401C81.7372 23.8578 81.4525 20.9739 80.3661 18.3535C79.2797 15.733 77.4404 13.4936 75.081 11.9187C72.7216 10.3438 69.9481 9.5041 67.1113 9.50586C63.3108 9.50586 59.6659 11.0156 56.9784 13.703C54.291 16.3905 52.7813 20.0354 52.7813 23.836Z" fill="#00B379"/>
<path d="M211.055 130.416H147.403V175.689H211.055V130.416Z" fill="#BD2B26"/>
<path d="M188.128 153.048L172.015 143.747V162.357L188.128 153.048Z" fill="#F9F7F4"/>
<path d="M443.136 64.5522H405.746V27.162L443.136 64.5522Z" fill="#7D5319"/>
<path d="M405.746 27.162H443.136V64.5522L405.746 27.162Z" fill="#FCBA33"/>
<path d="M405.746 83.8672H243.585V91.8125H405.746V83.8672Z" fill="#7D5319"/>
<path d="M405.746 107.293H243.585V115.238H405.746V107.293Z" fill="#7D5319"/>
<path d="M211.055 322.922C248.668 296.893 274.697 240.758 274.697 175.689H211.055V322.922Z" fill="#FCBA33"/>
<path d="M211.055 175.689H147.403C147.403 240.785 173.441 296.893 211.055 322.922V175.689Z" fill="#F9F7F4"/>
<path d="M211.046 262.097C225.929 262.097 237.994 250.032 237.994 235.149C237.994 220.266 225.929 208.201 211.046 208.201C196.163 208.201 184.098 220.266 184.098 235.149C184.098 250.032 196.163 262.097 211.046 262.097Z" fill="#1B5162"/>
<path d="M211.046 249.613C219.034 249.613 225.51 243.137 225.51 235.149C225.51 227.161 219.034 220.685 211.046 220.685C203.058 220.685 196.582 227.161 196.582 235.149C196.582 243.137 203.058 249.613 211.046 249.613Z" stroke="#F9F7F4" stroke-width="2.29175" stroke-miterlimit="10"/>
<path d="M205.517 221.782L203.225 216.253" stroke="#F9F7F4" stroke-width="2.29175" stroke-miterlimit="10"/>
<path d="M218.875 254.045L216.583 248.516" stroke="#F9F7F4" stroke-width="2.29175" stroke-miterlimit="10"/>
<path d="M224.413 229.612L229.95 227.32" stroke="#F9F7F4" stroke-width="2.29175" stroke-miterlimit="10"/>
<path d="M192.15 242.979L197.688 240.687" stroke="#F9F7F4" stroke-width="2.29175" stroke-miterlimit="10"/>
<path d="M211.046 220.685V214.693" stroke="#F9F7F4" stroke-width="2.29175" stroke-miterlimit="10"/>
<path d="M211.046 255.605V249.613" stroke="#F9F7F4" stroke-width="2.29175" stroke-miterlimit="10"/>
<path d="M225.519 235.149H231.502" stroke="#F9F7F4" stroke-width="2.29175" stroke-miterlimit="10"/>
<path d="M190.598 235.149H196.582" stroke="#F9F7F4" stroke-width="2.29175" stroke-miterlimit="10"/>
<path d="M200.817 245.377L225.509 220.685" stroke="#F9F7F4" stroke-width="2.29175" stroke-miterlimit="10"/>
<path d="M196.591 249.613L200.818 245.377" stroke="#F9F7F4" stroke-width="2.29175" stroke-miterlimit="10"/>
<path d="M200.817 224.921L225.509 249.613" stroke="#F9F7F4" stroke-width="2.29175" stroke-miterlimit="10"/>
<path d="M196.591 220.685L200.818 224.921" stroke="#F9F7F4" stroke-width="2.29175" stroke-miterlimit="10"/>
<path d="M216.583 221.782L218.875 216.253" stroke="#F9F7F4" stroke-width="2.29175" stroke-miterlimit="10"/>
<path d="M203.225 254.045L205.517 248.516" stroke="#F9F7F4" stroke-width="2.29175" stroke-miterlimit="10"/>
<path d="M224.413 240.687L229.95 242.979" stroke="#F9F7F4" stroke-width="2.29175" stroke-miterlimit="10"/>
<path d="M192.15 227.32L197.688 229.612" stroke="#F9F7F4" stroke-width="2.29175" stroke-miterlimit="10"/>
<path d="M354.855 249.809C356.215 249.809 357.519 249.269 358.481 248.307C359.442 247.346 359.983 246.042 359.983 244.682V244.486C359.983 243.126 359.442 241.821 358.481 240.86C357.519 239.898 356.215 239.358 354.855 239.358H326.4C325.715 239.358 325.037 239.223 324.404 238.961C323.771 238.699 323.196 238.315 322.711 237.83C322.227 237.346 321.843 236.771 321.581 236.138C321.318 235.505 321.183 234.827 321.183 234.141C321.182 233.456 321.316 232.776 321.578 232.142C321.84 231.508 322.224 230.932 322.708 230.447C323.193 229.962 323.768 229.577 324.402 229.314C325.035 229.051 325.714 228.916 326.4 228.916H381.955C396.197 228.917 409.96 234.063 420.709 243.407L443.145 262.9V322.922H283.436C282.751 322.923 282.071 322.789 281.437 322.528C280.803 322.266 280.227 321.882 279.742 321.397C279.257 320.913 278.872 320.337 278.609 319.704C278.346 319.07 278.211 318.391 278.211 317.705C278.211 316.32 278.761 314.99 279.741 314.01C280.721 313.03 282.051 312.48 283.436 312.48H354.855C356.215 312.48 357.519 311.94 358.481 310.978C359.442 310.017 359.983 308.712 359.983 307.352V307.165C359.984 306.492 359.852 305.824 359.595 305.202C359.337 304.579 358.96 304.013 358.483 303.537C358.007 303.061 357.441 302.683 356.819 302.426C356.196 302.168 355.529 302.037 354.855 302.038H283.436C282.051 302.038 280.721 301.487 279.741 300.507C278.761 299.527 278.211 298.198 278.211 296.812C278.211 295.426 278.761 294.097 279.741 293.117C280.721 292.137 282.051 291.587 283.436 291.587H354.855C355.529 291.588 356.196 291.456 356.819 291.199C357.441 290.942 358.007 290.564 358.483 290.088C358.96 289.611 359.337 289.045 359.595 288.423C359.852 287.8 359.984 287.133 359.983 286.459V286.272C359.984 285.598 359.852 284.931 359.595 284.308C359.337 283.686 358.96 283.12 358.483 282.644C358.007 282.167 357.441 281.79 356.819 281.532C356.196 281.275 355.529 281.143 354.855 281.145H283.436C282.051 281.145 280.721 280.594 279.741 279.614C278.761 278.634 278.211 277.305 278.211 275.919C278.211 274.533 278.761 273.204 279.741 272.224C280.721 271.244 282.051 270.693 283.436 270.693H354.855C355.529 270.695 356.196 270.563 356.819 270.306C357.441 270.048 358.007 269.671 358.483 269.194C358.96 268.718 359.337 268.152 359.595 267.53C359.852 266.907 359.984 266.24 359.983 265.566V265.379C359.984 264.705 359.852 264.038 359.595 263.415C359.337 262.793 358.96 262.227 358.483 261.75C358.007 261.274 357.441 260.896 356.819 260.639C356.196 260.382 355.529 260.25 354.855 260.251H283.436C282.051 260.251 280.721 259.701 279.741 258.721C278.761 257.741 278.211 256.412 278.211 255.026C278.211 254.34 278.346 253.661 278.609 253.027C278.872 252.394 279.257 251.818 279.742 251.334C280.227 250.849 280.803 250.465 281.437 250.204C282.071 249.942 282.751 249.808 283.436 249.809H354.855Z" fill="#F9F7F4"/>
<path d="M527.672 322.922H443.136V262.9H557.991V292.603C557.991 300.644 554.797 308.356 549.111 314.042C543.425 319.728 535.713 322.922 527.672 322.922Z" fill="#BD802B"/>
<path d="M442.378 296.117C460.847 296.117 475.818 281.145 475.818 262.677C475.818 244.209 460.847 229.237 442.378 229.237C423.91 229.237 408.938 244.209 408.938 262.677C408.938 281.145 423.91 296.117 442.378 296.117Z" fill="#FCBA33"/>
<path d="M425.221 268.482L438.035 281.296L460.168 259.163" stroke="#7D5319" stroke-width="1.78346" stroke-miterlimit="10"/>
<path d="M445.579 238.136H440.702V254.83H445.579V238.136Z" fill="#BD2B26"/>
<path d="M451.483 248.917V244.04H434.79V248.917H451.483Z" fill="#BD2B26"/>
<path d="M211.055 68.4758H147.403V130.406H211.055V68.4758Z" fill="#FFDB96"/>
<path d="M459.054 206.961L465.01 211.099L462.906 204.153L468.684 199.774L461.434 199.631L459.054 192.774L456.673 199.631L449.423 199.774L455.201 204.153L453.097 211.099L459.054 206.961Z" fill="#FCBA33"/>
<path d="M486.733 206.961L492.681 211.099L490.585 204.153L496.364 199.774L489.114 199.631L486.733 192.774L484.343 199.631L477.093 199.774L482.872 204.153L480.776 211.099L486.733 206.961Z" fill="#FCBA33"/>
<path d="M514.403 206.961L520.36 211.099L518.255 204.153L524.043 199.774L516.784 199.631L514.403 192.774L512.022 199.631L504.772 199.774L510.551 204.153L508.455 211.099L514.403 206.961Z" fill="#FCBA33"/>
<path d="M542.083 206.961L548.04 211.099L545.935 204.153L551.714 199.774L544.464 199.631L542.083 192.774L539.702 199.631L532.452 199.774L538.231 204.153L536.126 211.099L542.083 206.961Z" fill="#F9F7F4"/>
<path d="M228.515 45.8616V155.669H350.387V203.377" stroke="#FCBA33" stroke-width="1.78346" stroke-miterlimit="10"/>
<path d="M219.606 54.761L228.515 45.8616L237.414 54.761" stroke="#FCBA33" stroke-width="1.78346" stroke-miterlimit="10"/>
<path d="M228.515 159.53C230.647 159.53 232.376 157.802 232.376 155.669C232.376 153.537 230.647 151.808 228.515 151.808C226.382 151.808 224.653 153.537 224.653 155.669C224.653 157.802 226.382 159.53 228.515 159.53Z" fill="#BD2B26"/>
<path d="M350.388 159.53C352.52 159.53 354.249 157.802 354.249 155.669C354.249 153.537 352.52 151.808 350.388 151.808C348.255 151.808 346.526 153.537 346.526 155.669C346.526 157.802 348.255 159.53 350.388 159.53Z" fill="#BD2B26"/>
<path d="M350.388 207.238C352.52 207.238 354.249 205.509 354.249 203.377C354.249 201.244 352.52 199.516 350.388 199.516C348.255 199.516 346.526 201.244 346.526 203.377C346.526 205.509 348.255 207.238 350.388 207.238Z" fill="#BD2B26"/>
<path d="M300.388 205.901V175.689H400.913V205.901" stroke="#FCBA33" stroke-width="1.78346" stroke-miterlimit="10"/>
<path d="M309.288 196.992L300.388 205.9L291.48 196.992" stroke="#FCBA33" stroke-width="1.78346" stroke-miterlimit="10"/>
<path d="M409.821 196.992L400.913 205.9L392.013 196.992" stroke="#FCBA33" stroke-width="1.78346" stroke-miterlimit="10"/>
<path d="M76.6352 288.457C63.7955 288.457 51.4817 283.356 42.4027 274.277C33.3237 265.198 28.2231 252.885 28.2231 240.045C28.2231 227.205 33.3237 214.891 42.4027 205.812C51.4817 196.733 63.7955 191.633 76.6352 191.633" stroke="#F9F7F4" stroke-width="1.78346" stroke-miterlimit="10"/>
<path d="M76.6351 195.494C78.7676 195.494 80.4963 193.765 80.4963 191.633C80.4963 189.5 78.7676 187.772 76.6351 187.772C74.5026 187.772 72.7739 189.5 72.7739 191.633C72.7739 193.765 74.5026 195.494 76.6351 195.494Z" fill="#42BA91"/>
<path d="M76.6351 292.309C78.7676 292.309 80.4963 290.58 80.4963 288.448C80.4963 286.315 78.7676 284.587 76.6351 284.587C74.5026 284.587 72.7739 286.315 72.7739 288.448C72.7739 290.58 74.5026 292.309 76.6351 292.309Z" fill="#42BA91"/>
<path d="M28.2235 243.897C30.356 243.897 32.0847 242.168 32.0847 240.036C32.0847 237.903 30.356 236.175 28.2235 236.175C26.091 236.175 24.3623 237.903 24.3623 240.036C24.3623 242.168 26.091 243.897 28.2235 243.897Z" fill="#42BA91"/>
<path d="M523.588 299.559C525.41 299.559 526.887 298.082 526.887 296.259C526.887 294.437 525.41 292.96 523.588 292.96C521.766 292.96 520.289 294.437 520.289 296.259C520.289 298.082 521.766 299.559 523.588 299.559Z" fill="#F9F7F4"/>
<path d="M523.588 322.922V296.259" stroke="#F9F7F4" stroke-width="1.87263" stroke-miterlimit="10"/>
<path d="M501.75 299.559C503.572 299.559 505.049 298.082 505.049 296.259C505.049 294.437 503.572 292.96 501.75 292.96C499.927 292.96 498.45 294.437 498.45 296.259C498.45 298.082 499.927 299.559 501.75 299.559Z" fill="#F9F7F4"/>
<path d="M501.75 322.922V296.259" stroke="#F9F7F4" stroke-width="1.87263" stroke-miterlimit="10"/>
<path d="M479.911 299.559C481.733 299.559 483.211 298.082 483.211 296.259C483.211 294.437 481.733 292.96 479.911 292.96C478.089 292.96 476.612 294.437 476.612 296.259C476.612 298.082 478.089 299.559 479.911 299.559Z" fill="#F9F7F4"/>
<path d="M479.911 322.922V296.259" stroke="#F9F7F4" stroke-width="1.87263" stroke-miterlimit="10"/>
</g>
<defs>
<clipPath id="clip0_736_5315">
<rect width="558" height="322.922" fill="white"/>
</clipPath>
</defs>
</svg>
