<?xml version="1.0" encoding="UTF-8"?> <svg xmlns="http://www.w3.org/2000/svg" width="108" height="108" viewBox="0 0 108 108" fill="none"><rect width="108" height="108" fill="#1B5162"></rect><path d="M81.7863 75.5877L81.597 75.7581L81.8327 75.8547C85.0099 77.1569 87.2104 79.9082 88.0143 83.7169L87.3117 84.56H22.8533V83.28H56.1333H56.2603L56.2891 83.1564C56.6589 81.5716 57.2391 80.1494 58.0273 78.9407L58.1887 78.6933H57.8933H27.0133V77.4133H59.0667H59.135L59.1823 77.3639C60.339 76.1546 61.7591 75.2076 63.3911 74.5759L63.6339 74.4819L63.4404 74.3077C62.9188 73.8383 62.4463 73.2617 62.0227 72.6792L61.9748 72.6133H61.8933H29.6267V39.28H45.52H45.5863L45.6331 39.2331L52.9931 31.8731L53.04 31.8263V31.76V19.8133H64.08V26.6933H56.9333V25.4133H62.64H62.8V25.2533V21.2533V21.0933H62.64H54.48H54.32V21.2533V31.8667V31.9329L54.3669 31.9798L61.6202 39.2331L61.6671 39.28H61.7333H77.6267V62.0533V62.2051L77.7783 62.2131C79.7657 62.3177 81.3901 63.1007 82.519 64.4047C83.6491 65.7101 84.2933 67.5505 84.2933 69.7867C84.2933 72.0896 83.3514 74.1792 81.7863 75.5877ZM70.96 59.2267V59.3443L71.0723 59.3794C72.7411 59.9009 74.043 60.9423 74.9299 62.403L74.9932 62.5074L75.1106 62.4738C75.4718 62.3707 75.8344 62.3186 76.2093 62.2651L76.3467 62.2454V62.1067V48.0267V47.8667H76.1867H71.12H70.96V48.0267V59.2267ZM42.96 48.0267V47.8667H42.8H37.7333H37.5733V48.0267V71.1733V71.3333H37.7333H42.8H42.96V71.1733V48.0267ZM44.4 47.8667H44.24V48.0267V71.1733V71.3333H44.4H49.4667H49.6267V71.1733V48.0267V47.8667H49.4667H44.4ZM51.0667 47.8667H50.9067V48.0267V71.1733V71.3333H51.0667H56.1333H56.2933V71.1733V48.0267V47.8667H56.1333H51.0667ZM40.3402 46.3135L40.0671 46.5867H40.4533H66.8H67.1863L66.9131 46.3135L53.7398 33.1402L53.6267 33.0271L53.5135 33.1402L40.3402 46.3135ZM69.68 48.0267V47.8667H69.52H64.4533H64.2933V48.0267V59.6533V59.9067L64.5221 59.7978C65.6199 59.275 66.9297 58.96 68.4 58.96C68.7752 58.96 69.1371 58.9603 69.4974 59.0117L69.68 59.0378V58.8533V48.0267ZM76.3467 40.72V40.56H76.1867H63.3333H62.9445L63.2207 40.8337L68.9807 46.5403L69.0275 46.5867H69.0933H76.1867H76.3467V46.4267V40.72ZM44.0326 40.8337L44.3088 40.56H43.92H31.0667H30.9067V40.72V46.4267V46.5867H31.0667H38.16H38.2258L38.2726 46.5403L44.0326 40.8337ZM31.0667 47.8667H30.9067V48.0267V71.1733V71.3333H31.0667H36.1333H36.2933V71.1733V48.0267V47.8667H36.1333H31.0667ZM57.5733 71.2267V71.3867H57.7333H61.04H61.2722L61.1895 71.1697C60.7687 70.0651 60.5067 68.8578 60.5067 67.6C60.5067 64.6417 61.3517 62.344 62.9092 60.8903L62.96 60.8429V60.7733V48.0267V47.8667H62.8H57.7333H57.5733V48.0267V71.2267ZM57.6318 83.1333L57.58 83.3333H57.7867H67.3333H78.9067H79.1169L79.0609 83.1307C77.9377 79.066 75.2701 76.3103 71.4762 75.4154L71.2942 74.1415C73.5351 72.9154 74.9067 70.383 74.9067 67.6C74.9067 65.3064 74.2994 63.4642 73.1661 62.1935C72.0306 60.9204 70.3839 60.24 68.3467 60.24C65.4092 60.24 63.7565 61.5241 62.848 63.1001C61.9473 64.6628 61.7867 66.4963 61.7867 67.6C61.7867 70.3861 63.1607 72.8651 65.3994 74.1395L65.2172 75.415C60.4162 76.5272 58.4346 80.0288 57.6318 83.1333ZM80.4577 83.2103L80.4869 83.3333H80.6133H84.4V83.3867H84.56H86.4267H86.6379L86.5807 83.1833C85.6167 79.7557 83.3213 77.4818 80.1163 76.6964L79.9342 75.421C81.8542 74.3561 83.0133 72.1973 83.0133 69.84C83.0133 67.8932 82.4995 66.3179 81.5331 65.2272C80.5644 64.134 79.1577 63.5467 77.4133 63.5467C76.8172 63.5467 76.272 63.6008 75.7786 63.7105L75.5949 63.7513L75.6648 63.9261C76.0822 64.9697 76.2933 66.2287 76.2933 67.6C76.2933 70.2765 75.1914 72.7377 73.3089 74.3588L73.1058 74.5337L73.3562 74.6294C76.9278 75.9951 79.4551 78.989 80.4577 83.2103Z" fill="white" stroke="white" stroke-width="0.32"></path></svg> 