<?xml version="1.0" encoding="UTF-8"?> <svg xmlns="http://www.w3.org/2000/svg" width="108" height="108" viewBox="0 0 108 108" fill="none"><rect width="108" height="108" fill="#1B3139"></rect><path d="M77.4667 60.9867H77.5978L77.6236 60.858C77.9825 59.0635 79.519 57.7333 81.4133 57.7333C83.5677 57.7333 85.3067 59.4244 85.3067 61.5733C85.3067 63.725 83.565 65.4667 81.4133 65.4667C79.573 65.4667 77.9822 64.0837 77.6234 62.3411L77.5971 62.2133H77.4667H71.0133H70.8543L70.8533 62.3723L70.801 70.7467H62.4267H62.2667V70.9067V77.4667V77.5978L62.3953 77.6236C64.1899 77.9825 65.52 79.519 65.52 81.4133C65.52 83.565 63.7783 85.3067 61.6267 85.3067C59.475 85.3067 57.7333 83.565 57.7333 81.4133C57.7333 79.573 59.1163 77.9822 60.8589 77.6234L60.9867 77.5971V77.4667V70.9067V70.7467H60.8267H47.2267H47.0667V70.9067V77.4667V77.5978L47.1953 77.6236C48.9899 77.9825 50.32 79.519 50.32 81.4133C50.32 83.565 48.5783 85.3067 46.4267 85.3067C44.275 85.3067 42.5333 83.565 42.5333 81.4133C42.5333 79.573 43.9163 77.9822 45.6589 77.6234L45.7867 77.5971V77.4667V70.96V70.8H45.6267H37.2533V62.4267V62.2667H37.0933H30.5333H30.4022L30.3764 62.3953C30.0175 64.1899 28.481 65.52 26.5867 65.52C24.435 65.52 22.6933 63.7783 22.6933 61.6267C22.6933 59.475 24.435 57.7333 26.5867 57.7333C28.427 57.7333 30.0178 59.1162 30.3766 60.8589L30.4029 60.9867H30.5333H37.04H37.2V60.8267V51.28H38.48V69.36V69.52H38.64H69.36H69.519L69.52 69.361L69.5723 60.9867H77.4667ZM23.9733 61.5733C23.9733 63.0506 25.1672 64.1867 26.5867 64.1867C28.0061 64.1867 29.2 63.0506 29.2 61.5733C29.2 60.0983 28.0617 58.96 26.5867 58.96C25.1116 58.96 23.9733 60.0983 23.9733 61.5733ZM46.3733 84.0267C47.8506 84.0267 48.9867 82.8328 48.9867 81.4133C48.9867 79.9939 47.8506 78.8 46.3733 78.8C44.8983 78.8 43.76 79.9383 43.76 81.4133C43.76 82.8884 44.8983 84.0267 46.3733 84.0267ZM61.5733 84.0267C63.0506 84.0267 64.1867 82.8328 64.1867 81.4133C64.1867 79.9939 63.0506 78.8 61.5733 78.8C60.0983 78.8 58.96 79.9383 58.96 81.4133C58.96 82.8884 60.0983 84.0267 61.5733 84.0267ZM78.8 61.5733C78.8 63.0506 79.9939 64.1867 81.4133 64.1867C82.8884 64.1867 84.0267 63.0484 84.0267 61.5733C84.0267 60.0983 82.8884 58.96 81.4133 58.96C79.9383 58.96 78.8 60.0983 78.8 61.5733Z" fill="white" stroke="white" stroke-width="0.32"></path><path d="M30.5333 47.0133H30.4022L30.3764 47.1419C30.0175 48.9365 28.481 50.2667 26.5867 50.2667C24.4323 50.2667 22.6933 48.5755 22.6933 46.4267C22.6933 44.275 24.435 42.5333 26.5867 42.5333C28.427 42.5333 30.0178 43.9162 30.3766 45.6589L30.4029 45.7867H30.5333H37.04H37.2V45.6267V37.2533H45.5733H45.7333V37.0933V30.5333V30.4022L45.6047 30.3764C43.8101 30.0175 42.48 28.481 42.48 26.5867C42.48 24.435 44.2217 22.6933 46.3733 22.6933C48.525 22.6933 50.2667 24.435 50.2667 26.5867C50.2667 28.427 48.8837 30.0178 47.1411 30.3766L47.0133 30.4029V30.5333V37.0933V37.2533H47.1733H60.7733H60.9333V37.0933V30.5333V30.4022L60.8047 30.3764C59.0101 30.0175 57.68 28.481 57.68 26.5867C57.68 24.435 59.4217 22.6933 61.5733 22.6933C63.725 22.6933 65.4667 24.435 65.4667 26.5867C65.4667 28.427 64.0837 30.0178 62.3411 30.3766L62.2133 30.4029V30.5333V37.04V37.2H62.3733H70.7467V45.5733V45.7333H70.9067H77.4667H77.5978L77.6236 45.6047C77.9825 43.8101 79.519 42.48 81.4133 42.48C83.565 42.48 85.3067 44.2217 85.3067 46.3733C85.3067 48.525 83.565 50.2667 81.4133 50.2667C79.573 50.2667 77.9822 48.8837 77.6234 47.1411L77.5971 47.0133H77.4667H70.96H70.8V47.1733V54H69.52V38.64V38.48H69.36H38.6933H38.5333V38.64V47.0133H30.5333ZM84.0267 46.4267C84.0267 44.9494 82.8328 43.8133 81.4133 43.8133C79.9939 43.8133 78.8 44.9494 78.8 46.4267C78.8 47.9017 79.9383 49.04 81.4133 49.04C82.8884 49.04 84.0267 47.9017 84.0267 46.4267ZM61.6267 23.9733C60.1494 23.9733 59.0133 25.1672 59.0133 26.5867C59.0133 28.0061 60.1494 29.2 61.6267 29.2C63.1017 29.2 64.24 28.0617 64.24 26.5867C64.24 25.1116 63.1017 23.9733 61.6267 23.9733ZM46.4267 23.9733C44.9494 23.9733 43.8133 25.1672 43.8133 26.5867C43.8133 28.0061 44.9494 29.2 46.4267 29.2C47.9017 29.2 49.04 28.0617 49.04 26.5867C49.04 25.1116 47.9017 23.9733 46.4267 23.9733ZM29.2 46.4267C29.2 44.9494 28.0061 43.8133 26.5867 43.8133C25.1116 43.8133 23.9733 44.9516 23.9733 46.4267C23.9733 47.9017 25.1116 49.04 26.5867 49.04C28.0617 49.04 29.2 47.9017 29.2 46.4267Z" fill="white" stroke="white" stroke-width="0.32"></path><path d="M55.0133 62.16V63.76H63.76V44.24H44.24V63.76H50.32V62.16H45.84V45.84H62.16V62.16H55.0133Z" fill="white"></path></svg> 