<?xml version="1.0" encoding="UTF-8"?> <svg xmlns="http://www.w3.org/2000/svg" width="96" height="96" viewBox="0 0 96 96" fill="none"><path d="M34.0736 29.2289C34.3012 28.057 34.1762 26.8439 33.7143 25.7431C33.2524 24.6423 32.4744 23.7032 31.4788 23.0446C30.4831 22.386 29.3145 22.0374 28.1207 22.043C26.9269 22.0487 25.7616 22.4082 24.7722 23.0762C23.7828 23.7441 23.0137 24.6905 22.5622 25.7956C22.1107 26.9008 21.9971 28.115 22.2357 29.2846C22.4744 30.4543 23.0546 31.527 23.9029 32.3669C24.7512 33.2068 25.8296 33.7763 27.0016 34.0033C27.3816 34.074 27.7671 34.1105 28.1536 34.1121C29.5533 34.1099 30.9088 33.6218 31.9885 32.7311C33.0682 31.8405 33.8052 30.6026 34.0736 29.2289ZM32.192 28.8641C31.983 29.935 31.3573 30.8791 30.4524 31.4888C29.5475 32.0985 28.4374 32.3238 27.3664 32.1153C26.5659 31.9625 25.8289 31.5752 25.2491 31.0025C24.6692 30.4298 24.2728 29.6976 24.1102 28.899C23.9476 28.1005 24.0262 27.2716 24.3359 26.5178C24.6456 25.7639 25.1725 25.1193 25.8496 24.6657C26.5306 24.2023 27.3363 23.9568 28.16 23.9617C28.4264 23.9618 28.6921 23.9876 28.9536 24.0385C29.4831 24.1426 29.987 24.3501 30.4363 24.649C30.8856 24.9479 31.2717 25.3323 31.5724 25.7804C31.8731 26.2286 32.0826 26.7315 32.189 27.2606C32.2953 27.7897 32.2963 28.3346 32.192 28.8641Z" fill="#FF5F46"></path><path d="M42.6112 70.2335C43.9826 70.506 45.406 70.2943 46.6388 69.6347C47.8716 68.975 48.8374 67.9082 49.3716 66.6161C49.9058 65.3241 49.9754 63.8867 49.5684 62.5491C49.1614 61.2114 48.303 60.0564 47.1397 59.2808C45.9763 58.5052 44.58 58.1572 43.1887 58.296C41.7975 58.4347 40.4974 59.0518 39.5102 60.0419C38.5229 61.0319 37.9097 62.3338 37.7749 63.7254C37.6402 65.1171 37.9923 66.5124 38.7712 67.6735C39.662 69.0014 41.0429 69.922 42.6112 70.2335ZM39.7248 63.5199C39.9083 62.5845 40.4105 61.7416 41.1456 61.1348C41.8808 60.528 42.8036 60.1948 43.7568 60.1919C44.0232 60.1921 44.2889 60.2178 44.5504 60.2687C45.4864 60.4521 46.3301 60.9539 46.938 61.689C47.5458 62.424 47.8804 63.3469 47.8848 64.3007C47.8846 64.5671 47.8589 64.8329 47.808 65.0943C47.7046 65.6251 47.4977 66.1303 47.1991 66.5811C46.9005 67.0319 46.516 67.4194 46.0676 67.7216C45.6192 68.0238 45.1157 68.2347 44.5858 68.3423C44.0559 68.4499 43.51 68.4521 42.9792 68.3487C42.4485 68.2454 41.9433 68.0385 41.4925 67.7398C41.0417 67.4412 40.6541 67.0567 40.3519 66.6083C40.0497 66.1599 39.8388 65.6564 39.7312 65.1265C39.6236 64.5966 39.6214 64.0507 39.7248 63.5199Z" fill="#FF5F46"></path><path d="M64.2816 48.736C64.6631 48.8121 65.051 48.8507 65.44 48.8512C66.9953 48.8556 68.4926 48.2614 69.6216 47.1916C70.7505 46.1218 71.4245 44.6586 71.5037 43.1054C71.583 41.5521 71.0614 40.0279 70.0472 38.8488C69.033 37.6697 67.604 36.9261 66.0563 36.7722C64.5087 36.6183 62.9611 37.0658 61.7346 38.0221C60.508 38.9784 59.6965 40.37 59.4683 41.9085C59.2401 43.4469 59.6127 45.0142 60.5088 46.2853C61.405 47.5565 62.7559 48.434 64.2816 48.736ZM61.3952 42.0288C61.5774 41.0922 62.079 40.2479 62.8143 39.6398C63.5496 39.0317 64.4731 38.6976 65.4272 38.6944C65.6936 38.6946 65.9593 38.7203 66.2208 38.7712C67.2917 38.9802 68.2359 39.6059 68.8455 40.5109C69.4552 41.4158 69.6806 42.5258 69.472 43.5968C69.3814 44.1388 69.1832 44.6571 68.8891 45.1212C68.5949 45.5853 68.2108 45.9858 67.7595 46.2991C67.3081 46.6123 66.7985 46.8321 66.2608 46.9452C65.7231 47.0584 65.1682 47.0628 64.6289 46.9581C64.0895 46.8533 63.5765 46.6417 63.1202 46.3355C62.664 46.0294 62.2736 45.635 61.9723 45.1756C61.6709 44.7161 61.4645 44.201 61.3654 43.6606C61.2663 43.1201 61.2764 42.5653 61.3952 42.0288Z" fill="#FF5F46"></path><path d="M74.7648 62.5984C74.6132 63.3767 74.6165 64.1772 74.7744 64.9542C74.9324 65.7312 75.2419 66.4695 75.6853 67.1269C76.1287 67.7842 76.6972 68.3478 77.3585 68.7853C78.0198 69.2228 78.7608 69.5257 79.5392 69.6768C80.3171 69.8283 81.1172 69.8249 81.8938 69.6669C82.6704 69.5089 83.4083 69.1993 84.0651 68.7559C84.722 68.3124 85.2849 67.7438 85.7218 67.0826C86.1587 66.4214 86.4609 65.6805 86.6112 64.9024C86.8846 63.3447 86.5357 61.742 85.6395 60.4389C84.7433 59.1359 83.3715 58.2367 81.8191 57.9348C80.2667 57.6328 78.6578 57.9523 77.3386 58.8245C76.0193 59.6966 75.0951 61.0518 74.7648 62.5984ZM84.7296 64.5184C84.5752 65.3192 84.1867 66.0562 83.6132 66.6361C83.0397 67.216 82.3071 67.6128 81.5081 67.7761C80.709 67.9395 79.8795 67.8621 79.1244 67.5538C78.3694 67.2455 77.7228 66.7201 77.2665 66.0441C76.8101 65.3682 76.5646 64.572 76.561 63.7565C76.5573 62.9409 76.7957 62.1426 77.246 61.4626C77.6963 60.7826 78.3382 60.2514 79.0904 59.9364C79.8427 59.6213 80.6715 59.5365 81.472 59.6928C82.0056 59.7938 82.5138 59.9998 82.9672 60.2988C83.4206 60.5978 83.8101 60.9838 84.1132 61.4345C84.4162 61.8852 84.6267 62.3915 84.7325 62.9242C84.8384 63.4569 84.8374 64.0053 84.7296 64.5376V64.5184Z" fill="#FF5F46"></path><path d="M30.336 36.4415C30.3787 36.5365 30.4279 36.6285 30.4832 36.7167C30.5439 36.8021 30.6101 36.8834 30.6816 36.9599C30.9842 37.2569 31.3905 37.4245 31.8144 37.4271C31.9187 37.4366 32.0237 37.4366 32.128 37.4271C32.334 37.3878 32.5299 37.3073 32.704 37.1903C32.7906 37.1313 32.872 37.0649 32.9472 36.9919C33.0187 36.9154 33.085 36.8341 33.1456 36.7487C33.2626 36.5747 33.3431 36.3787 33.3824 36.1727C33.4025 36.0694 33.4133 35.9644 33.4144 35.8591C33.4131 35.4349 33.2453 35.0282 32.9472 34.7263C32.872 34.6533 32.7906 34.587 32.704 34.5279C32.5299 34.411 32.334 34.3304 32.128 34.2911C31.8697 34.2395 31.6027 34.2522 31.3505 34.3281C31.0982 34.404 30.8685 34.5408 30.6816 34.7263C30.6086 34.8016 30.5422 34.8829 30.4832 34.9695C30.4279 35.0578 30.3787 35.1497 30.336 35.2447C30.2965 35.3419 30.2665 35.4426 30.2464 35.5455C30.202 35.7566 30.202 35.9745 30.2464 36.1855C30.2691 36.2732 30.2991 36.3588 30.336 36.4415Z" fill="#FF5F46"></path><path d="M33.92 42.3489C34.1384 42.3551 34.3559 42.3182 34.56 42.2401C34.8481 42.1164 35.0937 41.9111 35.2666 41.6496C35.4395 41.388 35.532 41.0816 35.5328 40.7681C35.5361 40.5481 35.4925 40.3299 35.4048 40.1281C35.2827 39.8357 35.0762 39.5865 34.8117 39.412C34.5473 39.2376 34.2368 39.146 33.92 39.1489C33.7 39.1456 33.4818 39.1892 33.28 39.2769C32.9397 39.4218 32.6601 39.6802 32.4888 40.0081C32.3175 40.336 32.2651 40.7131 32.3406 41.0752C32.416 41.4374 32.6146 41.7622 32.9026 41.9944C33.1906 42.2266 33.5501 42.3519 33.92 42.3489Z" fill="#FF5F46"></path><path d="M38.0928 52.1983C38.3129 52.2024 38.5312 52.1587 38.7328 52.0703C39.0176 51.9449 39.2593 51.7384 39.4277 51.4767C39.5961 51.215 39.6838 50.9095 39.68 50.5983C39.6833 50.3783 39.6397 50.1601 39.552 49.9583C39.429 49.6697 39.2239 49.4236 38.9622 49.2507C38.7005 49.0777 38.3937 48.9855 38.08 48.9855C37.86 48.9822 37.6418 49.0259 37.44 49.1135C37.0997 49.2585 36.8201 49.5169 36.6488 49.8448C36.4775 50.1727 36.4251 50.5498 36.5006 50.9119C36.576 51.2741 36.7746 51.5989 37.0626 51.8311C37.3506 52.0633 37.7101 52.1885 38.08 52.1855L38.0928 52.1983Z" fill="#FF5F46"></path><path d="M36 47.2767C36.2197 47.2767 36.4372 47.2332 36.64 47.1487C36.9286 47.0257 37.1747 46.8206 37.3476 46.5589C37.5206 46.2972 37.6128 45.9904 37.6128 45.6767C37.6161 45.4567 37.5724 45.2385 37.4848 45.0367C37.3618 44.7481 37.1567 44.502 36.895 44.3291C36.6333 44.1561 36.3265 44.0639 36.0128 44.0639C35.7928 44.0606 35.5746 44.1043 35.3728 44.1919C35.0325 44.3368 34.7529 44.5953 34.5816 44.9231C34.4103 45.251 34.3579 45.6281 34.4334 45.9903C34.5088 46.3524 34.7074 46.6772 34.9954 46.9094C35.2834 47.1417 35.6429 47.2669 36.0128 47.2639L36 47.2767Z" fill="#FF5F46"></path><path d="M39.04 54.3999C38.741 54.6998 38.5732 55.1061 38.5732 55.5295C38.5732 55.953 38.741 56.3592 39.04 56.6591C39.1137 56.7357 39.1952 56.8043 39.2832 56.8639C39.3694 56.9209 39.4617 56.9681 39.5584 57.0047C39.6554 57.0463 39.7561 57.0785 39.8592 57.1007C39.9625 57.1212 40.0675 57.1319 40.1728 57.1327C40.2781 57.1313 40.383 57.1206 40.4864 57.1007C40.5872 57.0775 40.6857 57.0454 40.7808 57.0047C40.8763 56.9656 40.9684 56.9185 41.056 56.8639C41.144 56.8043 41.2255 56.7357 41.2992 56.6591C41.4484 56.5118 41.567 56.3364 41.6483 56.1431C41.7295 55.9498 41.7718 55.7424 41.7728 55.5327C41.7736 55.1106 41.6107 54.7046 41.3184 54.3999C41.2435 54.3266 41.1621 54.2602 41.0752 54.2015C40.9862 54.1437 40.8919 54.0944 40.7936 54.0543C40.6987 54.0148 40.6 53.9848 40.4992 53.9647C40.2884 53.918 40.07 53.918 39.8592 53.9647C39.7563 53.9848 39.6556 54.0148 39.5584 54.0543C39.4615 54.0931 39.3693 54.1425 39.2832 54.2015C39.194 54.2569 39.1122 54.3236 39.04 54.3999Z" fill="#FF5F46"></path><path d="M51.904 59.3599C52.199 59.0613 52.3665 58.6597 52.3712 58.2399C52.3806 58.1356 52.3806 58.0307 52.3712 57.9263C52.3511 57.8234 52.3211 57.7227 52.2816 57.6255C52.2389 57.5305 52.1897 57.4386 52.1344 57.3503C52.0754 57.2637 52.009 57.1824 51.936 57.1071C51.6289 56.8196 51.2239 56.6597 50.8032 56.6597C50.3825 56.6597 49.9775 56.8196 49.6704 57.1071C49.5164 57.2536 49.393 57.4291 49.3073 57.6235C49.2216 57.818 49.1754 58.0275 49.1712 58.2399C49.1583 58.3441 49.1583 58.4494 49.1712 58.5535C49.2105 58.7595 49.291 58.9555 49.408 59.1295C49.465 59.2176 49.5316 59.2992 49.6064 59.3727C49.9074 59.6721 50.3147 59.8401 50.7392 59.8401C51.1637 59.8401 51.571 59.6721 51.872 59.3727L51.904 59.3599Z" fill="#FF5F46"></path><path d="M53.696 52.8321C53.4776 53.0613 53.3322 53.3502 53.278 53.6622C53.2239 53.9741 53.2636 54.2951 53.392 54.5846C53.5204 54.874 53.7317 55.1188 53.9994 55.288C54.267 55.4572 54.5787 55.5432 54.8953 55.5352C55.2118 55.5271 55.5188 55.4253 55.7774 55.2427C56.0361 55.06 56.2347 54.8048 56.3482 54.5092C56.4617 54.2136 56.4849 53.891 56.4149 53.5822C56.345 53.2734 56.185 52.9923 55.9552 52.7745C55.6477 52.483 55.2372 52.3254 54.8137 52.3362C54.3902 52.347 53.9882 52.5253 53.696 52.8321Z" fill="#FF5F46"></path><path d="M57.4592 50.2592C57.4958 50.364 57.543 50.4648 57.6 50.56C57.6587 50.6469 57.7251 50.7283 57.7984 50.8032C57.8723 50.8777 57.9538 50.9442 58.0416 51.0016C58.1277 51.0607 58.2199 51.11 58.3168 51.1488C58.4139 51.1883 58.5147 51.2183 58.6176 51.2384C58.7219 51.2482 58.8269 51.2482 58.9312 51.2384C59.0355 51.2476 59.1405 51.2476 59.2448 51.2384C59.3454 51.2174 59.4439 51.1874 59.5392 51.1488C59.6361 51.11 59.7284 51.0607 59.8144 51.0016C59.9022 50.9442 59.9837 50.8777 60.0576 50.8032C60.1309 50.7283 60.1973 50.6469 60.256 50.56C60.3158 50.4733 60.3672 50.3812 60.4096 50.2848C60.4491 50.1877 60.4791 50.0869 60.4992 49.984C60.5086 49.8797 60.5086 49.7747 60.4992 49.6704C60.4965 49.2465 60.329 48.8402 60.032 48.5376C59.9554 48.4662 59.8742 48.3999 59.7888 48.3392C59.6998 48.2814 59.6055 48.2321 59.5072 48.192C59.4119 48.1534 59.3134 48.1234 59.2128 48.1024C59.002 48.0557 58.7836 48.0557 58.5728 48.1024C58.4699 48.1225 58.3691 48.1525 58.272 48.192C58.1751 48.2308 58.0829 48.2802 57.9968 48.3392C57.909 48.3966 57.8275 48.4631 57.7536 48.5376C57.6803 48.6126 57.6139 48.694 57.5552 48.7808C57.4382 48.9549 57.3577 49.1508 57.3184 49.3568C57.274 49.5679 57.274 49.7858 57.3184 49.9968C57.3572 50.0884 57.4043 50.1763 57.4592 50.2592Z" fill="#FF5F46"></path><path d="M74.3936 57.1457C74.727 57.1462 75.0519 57.0409 75.3216 56.8449C75.5207 56.6962 75.6822 56.503 75.7934 56.2808C75.9045 56.0585 75.9621 55.8133 75.9616 55.5649C75.9614 55.2326 75.8586 54.9085 75.6672 54.6369C75.5484 54.4584 75.3949 54.3057 75.2159 54.1877C75.0369 54.0697 74.8361 53.9889 74.6252 53.9501C74.4144 53.9112 74.1979 53.9152 73.9886 53.9616C73.7793 54.0081 73.5815 54.0961 73.4069 54.2205C73.2323 54.3449 73.0845 54.5032 72.9723 54.6858C72.86 54.8684 72.7856 55.0718 72.7535 55.2837C72.7213 55.4957 72.7321 55.712 72.7852 55.9197C72.8383 56.1274 72.9325 56.3223 73.0624 56.4929C73.2159 56.7002 73.4169 56.8677 73.6485 56.9813C73.8802 57.0949 74.1357 57.1513 74.3936 57.1457Z" fill="#FF5F46"></path><path d="M71.04 52.48C71.2924 52.4809 71.5414 52.4221 71.7668 52.3084C71.9921 52.1947 72.1873 52.0293 72.3365 51.8257C72.4857 51.6221 72.5845 51.3861 72.6251 51.1369C72.6656 50.8878 72.6466 50.6326 72.5697 50.3923C72.4927 50.1519 72.36 49.9331 72.1824 49.7538C72.0047 49.5745 71.7871 49.4398 71.5475 49.3607C71.3078 49.2816 71.0528 49.2603 70.8033 49.2985C70.5538 49.3368 70.3169 49.4335 70.112 49.5808C69.8375 49.7781 69.6325 50.0574 69.5265 50.3784C69.4205 50.6994 69.4189 51.0458 69.522 51.3678C69.6251 51.6898 69.8275 51.9708 70.1002 52.1707C70.3729 52.3705 70.7019 52.4788 71.04 52.48Z" fill="#FF5F46"></path><path d="M87.8976 85.9713H79.9872V82.0865H78.0672V85.9713H67.7696V82.0865H65.8496V85.9713H55.552V82.0865H53.632V85.9713H43.328V82.0865H41.408V85.9713H31.1104V82.0865H29.1904V85.9713H18.8928V82.0865H16.9728V85.9713H10.0224V79.0273H13.9136V77.1073H10.0224V66.8097H13.9136V64.8897H10.0224V54.5921H13.9136V52.6721H10.0224V42.3681H13.9136V40.4481H10.0224V30.1505H13.9136V28.2305H10.0224V17.9329H13.9136V16.0129H10.0224V8.10889H8.10239V87.8913H87.8976V85.9713Z" fill="#FF5F46"></path></svg> 