<?xml version="1.0" encoding="UTF-8"?> <svg xmlns="http://www.w3.org/2000/svg" width="166" height="167" viewBox="0 0 166 167" fill="none"><g clip-path="url(#clip0)"><rect y="0.589844" width="166" height="166" fill="#FF5F46"></rect><circle cx="83" cy="83.5898" r="83" fill="#1B3139"></circle><path fill-rule="evenodd" clip-rule="evenodd" d="M83.1333 117.757C80.4248 117.757 79.0327 116.004 79.0327 116.004C76.8067 115.908 59.4099 115.956 59.4099 115.956L57.7162 101.77C57.7162 101.77 47.0011 94.2749 46.1301 93.4106C40.9867 70.2566 59.5775 48.1831 83.134 48.1831C106.69 48.1831 125.281 70.2566 120.138 93.4106C119.267 94.2749 108.552 101.77 108.552 101.77L106.858 115.956C106.858 115.956 89.4613 115.908 87.2353 116.004C87.2353 116.004 85.8432 117.757 83.1333 117.757Z" fill="#707579"></path><path fill-rule="evenodd" clip-rule="evenodd" d="M83.1575 96.1834L81.5137 55.2334C79.5313 54.8319 74.4741 55.3137 71.7634 57.3211L79.6527 96.344L68.8909 58.9269C66.311 58.8956 61.1051 63.2242 60.7184 64.5074L76.4161 97.709L58.7765 67.3578C57.0368 68.0002 53.2337 74.9456 53.8406 75.7526L73.5031 99.6361L53.2742 79.2414C53.2742 79.2414 50.6444 83.2159 52.3594 89.9481L63.7856 98.1363L65.2161 109.323H79.2251C79.2251 109.323 81.517 111.479 83.1432 111.479C84.7694 111.479 87.0613 109.323 87.0613 109.323H101.07L102.501 98.1363L113.927 89.9481C115.642 83.2159 113.012 79.2414 113.012 79.2414L92.7833 99.6361L112.446 75.7526C113.053 74.9456 109.25 68.0002 107.51 67.3578L89.8703 97.709L105.568 64.5074C105.181 63.2242 99.9754 58.8956 97.3955 58.9269L86.6337 96.344L94.523 57.3211C91.8123 55.3137 86.7551 54.8319 84.7726 55.2334L83.1575 96.1834Z" fill="white"></path></g><defs><clipPath id="clip0"><rect width="166" height="166" fill="white" transform="translate(0 0.589844)"></rect></clipPath></defs></svg> 