<?xml version="1.0" encoding="UTF-8"?> <svg xmlns="http://www.w3.org/2000/svg" width="96" height="96" viewBox="0 0 96 96" fill="none"><path d="M65.28 42.0287C65.1277 41.7148 65.0656 41.3647 65.1008 41.0175L66.112 28.7423C66.17 28.0625 66.0734 27.3783 65.8296 26.741C65.5858 26.1037 65.201 25.5299 64.704 25.0623C64.2113 24.5904 63.6173 24.2373 62.9673 24.0299C62.3173 23.8225 61.6286 23.7663 60.9536 23.8655C59.8979 24.0087 58.8791 24.3519 57.952 24.8767C57.8816 24.7807 57.7984 24.6847 57.728 24.5823C56.8061 23.4876 55.4886 22.8019 54.063 22.6748C52.6374 22.5477 51.2195 22.9895 50.1184 23.9039L41.888 30.8287V29.2735C41.8852 29.1594 41.9188 29.0473 41.984 28.9535L43.7056 26.4447C43.7895 26.3302 43.8494 26.2 43.8818 26.0618C43.9142 25.9236 43.9184 25.7803 43.8942 25.6405C43.87 25.5006 43.8178 25.3671 43.7408 25.2479C43.6638 25.1286 43.5636 25.0262 43.4461 24.9465C43.3286 24.8669 43.1963 24.8118 43.057 24.7845C42.9177 24.7572 42.7744 24.7582 42.6355 24.7875C42.4966 24.8168 42.3651 24.8739 42.2488 24.9552C42.1324 25.0365 42.0337 25.1404 41.9584 25.2607L40.2368 27.7695C39.93 28.2108 39.7668 28.7361 39.7696 29.2735V32.5887L33.1904 38.0991V28.1599C33.1799 27.017 33.5243 25.8989 34.176 24.9599L40.192 16.1279C40.6838 15.3966 41.4457 14.8902 42.3104 14.7199C42.7353 14.6361 43.1727 14.6394 43.5962 14.7296C44.0198 14.8199 44.4206 14.9951 44.7744 15.2447C45.4957 15.7389 45.9925 16.498 46.1568 17.3567C46.2433 17.7845 46.2414 18.2255 46.1511 18.6526C46.0609 19.0796 45.8842 19.4837 45.632 19.8399L44.5184 21.4591C44.4389 21.5738 44.3831 21.7032 44.3542 21.8397C44.3253 21.9763 44.3239 22.1172 44.3502 22.2543C44.3764 22.3913 44.4297 22.5218 44.5069 22.638C44.5841 22.7542 44.6838 22.8539 44.8 22.9311C44.9142 23.0105 45.0431 23.0662 45.1791 23.095C45.3151 23.1238 45.4555 23.1251 45.5921 23.0989C45.7286 23.0726 45.8586 23.0194 45.9742 22.9422C46.0899 22.865 46.189 22.7655 46.2656 22.6495L47.36 21.0303C47.9608 20.15 48.2878 19.1117 48.2997 18.046C48.3117 16.9803 48.0081 15.9348 47.4272 15.0413C46.8464 14.1477 46.0141 13.446 45.0353 13.0244C44.0565 12.6028 42.9748 12.4801 41.9264 12.6719C40.5168 12.9365 39.2695 13.7488 38.4576 14.9311L32.4288 23.7631C31.5401 25.0564 31.0688 26.5908 31.0784 28.1599V39.8719L27.8784 42.5215C26.7569 43.4627 25.8767 44.6583 25.3112 46.0088C24.7456 47.3592 24.5111 48.8253 24.6272 50.2847L25.2672 58.8223C25.2896 59.0872 25.4105 59.334 25.606 59.5141C25.8015 59.6942 26.0574 59.7945 26.3232 59.7951H26.4128C26.5516 59.7846 26.687 59.7468 26.8112 59.6837C26.9353 59.6207 27.0458 59.5338 27.1362 59.4279C27.2266 59.322 27.2952 59.1993 27.338 59.0668C27.3808 58.9343 27.397 58.7947 27.3856 58.6559L26.752 50.0927C26.6606 48.9682 26.8408 47.8383 27.2774 46.798C27.714 45.7577 28.3943 44.8376 29.2608 44.1151L51.4816 25.5103C52.1553 24.9872 53.0056 24.7456 53.8538 24.8363C54.7019 24.927 55.4819 25.3431 56.0297 25.9969C56.5775 26.6508 56.8504 27.4916 56.7912 28.3425C56.7319 29.1934 56.3451 29.9883 55.712 30.5599L44.16 40.2559C43.4162 40.4324 42.7278 40.7908 42.1568 41.2991L36.48 46.2143C36.2687 46.3993 36.1395 46.6607 36.1209 46.941C36.1023 47.2212 36.1958 47.4974 36.3808 47.7087C36.5658 47.9201 36.8272 48.0492 37.1075 48.0678C37.3877 48.0864 37.6639 47.9929 37.8752 47.8079L43.52 42.8799C43.9929 42.4684 44.5987 42.2418 45.2256 42.2418C45.8525 42.2418 46.4583 42.4684 46.9312 42.8799L55.5008 50.1439C56.1618 50.7133 56.5713 51.5206 56.64 52.3903C56.6771 52.8208 56.6277 53.2543 56.4947 53.6654C56.3617 54.0765 56.1478 54.4568 55.8656 54.7839C55.4516 55.2714 54.901 55.6236 54.2848 55.7951L48.2944 50.7135C47.4368 49.9739 46.3421 49.567 45.2096 49.567C44.0771 49.567 42.9824 49.9739 42.1248 50.7135L36.48 55.6799C36.2687 55.8649 36.1395 56.1263 36.1209 56.4066C36.1023 56.6868 36.1958 56.963 36.3808 57.1743C36.5658 57.3857 36.8272 57.5148 37.1075 57.5334C37.3877 57.552 37.6639 57.4585 37.8752 57.2735L43.52 52.3327C43.9892 51.9135 44.5964 51.6818 45.2256 51.6818C45.8548 51.6818 46.462 51.9135 46.9312 52.3327L55.5008 59.5903C55.8285 59.8706 56.0977 60.2127 56.2932 60.597C56.4887 60.9814 56.6065 61.4004 56.64 61.8303C56.6793 62.2609 56.631 62.695 56.4979 63.1064C56.3648 63.5178 56.1497 63.898 55.8656 64.2239C55.5861 64.553 55.2444 64.8237 54.8599 65.0203C54.4755 65.2169 54.056 65.3356 53.6256 65.3695C53.1894 65.4125 52.749 65.3653 52.3317 65.231C51.9145 65.0967 51.5293 64.8781 51.2 64.5887L45.9072 60.1087C45.706 59.9364 45.447 59.8466 45.1823 59.8573C44.9176 59.868 44.6667 59.9784 44.48 60.1663L42.8992 61.7407C42.7045 61.9414 42.5956 62.21 42.5956 62.4895C42.5956 62.7691 42.7045 63.0377 42.8992 63.2383C43.0991 63.4346 43.3679 63.5445 43.648 63.5445C43.9281 63.5445 44.197 63.4346 44.3968 63.2383L45.2864 62.3487L49.8368 66.2271C50.8146 67.0518 52.0521 67.5051 53.3312 67.5071C53.472 67.5071 53.6256 67.5071 53.7664 67.5071C54.8322 67.4229 55.8489 67.0239 56.6875 66.3608C57.5262 65.6977 58.1489 64.8004 58.4767 63.7828C58.8044 62.7652 58.8225 61.6732 58.5285 60.6453C58.2346 59.6174 57.6419 58.7 56.8256 58.0095L56.0384 57.3695C56.5648 57.0587 57.0362 56.6629 57.4336 56.1983C58.3557 55.1035 58.8062 53.6877 58.6862 52.2613C58.5663 50.8349 57.8857 49.5142 56.7936 48.5887L53.0304 45.3887L55.3728 33.5999L57.0752 32.1663C58.1757 31.2465 58.8662 29.9276 58.9952 28.4991C59.0532 27.9243 59.0098 27.3438 58.8672 26.7839C59.6024 26.3381 60.4216 26.0483 61.2736 25.9327C61.6341 25.8846 62.0007 25.917 62.3471 26.0276C62.6935 26.1383 63.0111 26.3245 63.2768 26.5727C63.5414 26.8258 63.7443 27.1364 63.8697 27.4804C63.9951 27.8244 64.0397 28.1927 64 28.5567L63.008 40.8319C62.9471 41.5588 63.0842 42.2887 63.4048 42.9439L65.28 46.8351C66.4499 49.2472 67.0763 51.8865 67.1151 54.5671C67.1538 57.2476 66.6038 59.9039 65.504 62.3487L64.2944 65.0431C64.2369 65.1695 64.2049 65.306 64.2005 65.4448C64.1961 65.5836 64.2193 65.7219 64.2687 65.8517C64.3181 65.9814 64.3928 66.1001 64.4884 66.2008C64.584 66.3015 64.6986 66.3822 64.8256 66.4383C64.9649 66.4995 65.1151 66.5321 65.2672 66.5343C65.4719 66.5352 65.6722 66.4747 65.8422 66.3606C66.0122 66.2465 66.144 66.0841 66.2208 65.8943L67.4368 63.2063C68.6581 60.4824 69.2692 57.5243 69.2271 54.5394C69.1851 51.5545 68.4911 48.6148 67.1936 45.9263L65.28 42.0287ZM51.2 43.7375L48.288 41.2543C47.93 40.9509 47.5315 40.6989 47.104 40.5055L52.768 35.7567L51.2 43.7375Z" fill="#FF5F46"></path><path d="M63.8272 68.6336C63.7005 68.5763 63.5636 68.5447 63.4245 68.5407C63.2854 68.5367 63.1469 68.5605 63.0171 68.6105C62.8873 68.6605 62.7687 68.7358 62.6683 68.8321C62.5678 68.9284 62.4875 69.0436 62.432 69.1712L59.7376 75.1872C59.6797 75.3276 59.6472 75.4771 59.6416 75.6288V83.6288C59.6416 83.9089 59.7529 84.1775 59.9509 84.3755C60.1489 84.5736 60.4175 84.6848 60.6976 84.6848C60.9777 84.6848 61.2463 84.5736 61.4443 84.3755C61.6423 84.1775 61.7536 83.9089 61.7536 83.6288V75.8528L64.3648 70.0288C64.4213 69.9019 64.4522 69.7652 64.4557 69.6263C64.4593 69.4875 64.4354 69.3493 64.3854 69.2197C64.3355 69.0901 64.2605 68.9716 64.1647 68.8711C64.0689 68.7705 63.9542 68.6898 63.8272 68.6336Z" fill="#FF5F46"></path><path d="M57.7088 19.0849C57.989 19.0832 58.2573 18.9716 58.456 18.7741C58.6547 18.5766 58.7679 18.309 58.7712 18.0289V13.5489C58.7505 13.2822 58.6299 13.0331 58.4335 12.8514C58.2372 12.6698 57.9795 12.5688 57.712 12.5688C57.4445 12.5688 57.1868 12.6698 56.9905 12.8514C56.7941 13.0331 56.6735 13.2822 56.6528 13.5489V18.0289C56.6511 18.168 56.6772 18.3061 56.7297 18.435C56.7821 18.5639 56.8599 18.681 56.9583 18.7794C57.0567 18.8778 57.1738 18.9555 57.3027 19.008C57.4316 19.0604 57.5697 19.0866 57.7088 19.0849Z" fill="#FF5F46"></path><path d="M62.208 20.1409C62.3632 20.2251 62.537 20.2691 62.7136 20.2689C62.9009 20.2677 63.0848 20.2182 63.2474 20.1251C63.4099 20.0321 63.5457 19.8986 63.6416 19.7377L65.8112 15.8465C65.9077 15.7274 65.977 15.5888 66.0145 15.4402C66.0521 15.2916 66.0568 15.1367 66.0284 14.9861C66 14.8355 65.9392 14.6929 65.8502 14.5682C65.7611 14.4435 65.646 14.3396 65.5128 14.2639C65.3797 14.1881 65.2316 14.1422 65.0789 14.1294C64.9262 14.1166 64.7725 14.1372 64.6286 14.1897C64.4846 14.2423 64.3539 14.3255 64.2453 14.4337C64.1368 14.5418 64.0531 14.6723 64 14.8161L61.8304 18.7073C61.6924 18.9479 61.6547 19.2332 61.7253 19.5015C61.796 19.7697 61.9694 19.9994 62.208 20.1409Z" fill="#FF5F46"></path><path d="M71.2256 19.7888C71.1525 19.6693 71.0561 19.5657 70.9423 19.4841C70.8285 19.4025 70.6995 19.3444 70.563 19.3134C70.4264 19.2824 70.285 19.279 70.1471 19.3035C70.0092 19.328 69.8776 19.3798 69.76 19.456L65.9712 21.8048C65.7338 21.9526 65.5648 22.1886 65.5012 22.461C65.4376 22.7334 65.4846 23.0198 65.632 23.2576C65.7271 23.4106 65.8601 23.5365 66.0183 23.6229C66.1764 23.7092 66.3542 23.7531 66.5344 23.7504C66.7279 23.7462 66.9172 23.6934 67.0848 23.5968L70.8736 21.2416C71.1084 21.0914 71.2753 20.8555 71.3386 20.5841C71.402 20.3127 71.3568 20.0273 71.2128 19.7888H71.2256Z" fill="#FF5F46"></path><path d="M30.848 70.2977C29.2018 68.2108 28.1474 65.7195 27.7952 63.0849C27.7485 62.8153 27.5996 62.5742 27.3796 62.4117C27.1595 62.2491 26.8852 62.1778 26.6139 62.2124C26.3425 62.2471 26.095 62.385 25.9228 62.5976C25.7506 62.8102 25.6671 63.081 25.6896 63.3537C26.0894 66.3714 27.2992 69.2244 29.1904 71.6097L33.5424 77.0753V83.5457C33.5424 83.8257 33.6537 84.0943 33.8517 84.2924C34.0497 84.4904 34.3183 84.6017 34.5984 84.6017C34.8785 84.6017 35.1471 84.4904 35.3451 84.2924C35.5431 84.0943 35.6544 83.8257 35.6544 83.5457V76.7233C35.6464 76.4922 35.5683 76.2689 35.4304 76.0833L30.848 70.2977Z" fill="#FF5F46"></path></svg> 