<?xml version="1.0" encoding="UTF-8"?> <svg xmlns="http://www.w3.org/2000/svg" width="108" height="108" viewBox="0 0 108 108" fill="none"><path d="M108 0H0V108H108V0Z" fill="#00A972"></path><path d="M63.6991 49.9419L63.7371 49.8227L63.6305 49.7571C62.2879 48.9308 61.36 47.434 61.36 45.7333C61.36 43.155 63.475 41.04 66.0533 41.04C68.6316 41.04 70.7467 43.155 70.7467 45.7333C70.7467 47.434 69.8188 48.9308 68.4761 49.7571L68.3696 49.8227L68.4075 49.9419L77.9586 79.9216L76.7175 80.3068L73.9391 71.6047L73.9035 71.4933H73.7867H58.32H58.2031L58.1676 71.6047L55.3892 80.3068L54.148 79.9216L63.6991 49.9419ZM58.6476 70.0046L58.5809 70.2133H58.8H73.3067H73.5258L73.4591 70.0046L70.5257 60.8313L70.4901 60.72H70.3733H61.7333H61.6165L61.5809 60.8313L58.6476 70.0046ZM69.84 59.44H70.0578L69.9927 59.2322L67.2193 50.3788L67.1777 50.246L67.0404 50.2688C66.7209 50.3221 66.359 50.3733 66.0533 50.3733C65.6949 50.3733 65.3871 50.3223 65.0663 50.2688L64.9289 50.246L64.8873 50.3788L62.114 59.2322L62.0489 59.44H62.2667H69.84ZM69.4667 45.7333C69.4667 43.8299 67.9 42.32 66.0533 42.32C64.2067 42.32 62.64 43.8299 62.64 45.7333C62.64 47.635 64.1516 49.1467 66.0533 49.1467C67.955 49.1467 69.4667 47.635 69.4667 45.7333Z" fill="white" stroke="white" stroke-width="0.32"></path><path d="M59.0546 52.5058L58.1608 53.3996C54.0006 49.1194 53.9997 42.2977 58.1582 38.0165L59.0572 38.9583C55.4084 42.7245 55.4076 48.7386 59.0546 52.5058Z" fill="white" stroke="white" stroke-width="0.32"></path><path d="M73.9467 53.6267C76.08 51.4934 77.2 48.72 77.2 45.7334C77.2 42.7467 76.0267 39.92 73.9467 37.84L72.8267 38.96C74.64 40.7734 75.6533 43.1734 75.6533 45.7334C75.6533 48.2934 74.64 50.6934 72.8267 52.5067L73.9467 53.6267Z" fill="white"></path><path d="M53.3067 32.9866C49.8933 36.4 48.0267 40.88 48.0267 45.7333C48.0267 50.5866 49.8933 55.0666 53.3067 58.48L54.4267 57.36C51.3333 54.2666 49.6267 50.16 49.6267 45.7866C49.6267 41.4133 51.3333 37.3066 54.4267 34.2133L53.3067 32.9866Z" fill="white"></path><path d="M78.8 32.9866L77.68 34.1066C80.7733 37.2 82.48 41.3066 82.48 45.68C82.48 50.0533 80.7733 54.16 77.68 57.2533L78.8 58.3733C82.2133 54.96 84.08 50.48 84.08 45.6266C84.08 40.7733 82.16 36.4 78.8 32.9866Z" fill="white"></path><path d="M65.04 79.8667C65.04 82.0533 63.28 83.8133 61.0933 83.8133H34.8533C32.6667 83.8133 30.9067 82.0533 30.9067 79.8667V28.6133C30.9067 26.4267 32.6667 24.6667 34.8533 24.6667H38.0533V26C38.0533 28.24 39.8667 30.1067 42.16 30.1067H53.7867C56.0267 30.1067 57.8933 28.2933 57.8933 26V24.6667H61.0933C63.28 24.6667 65.04 26.4267 65.04 28.6133V34.9067H66.64V28.6133C66.64 25.52 64.1333 23.0667 61.0933 23.0667H34.8533C31.76 23.0667 29.3067 25.5733 29.3067 28.6133V79.8667C29.3067 82.96 31.8133 85.4133 34.8533 85.4133H61.04C64.1333 85.4133 66.5867 82.9067 66.5867 79.8667V75.1733H64.9867V79.8667H65.04ZM56.24 25.9467C56.24 27.3333 55.12 28.4533 53.7333 28.4533H42.16C40.7733 28.4533 39.6533 27.3333 39.6533 25.9467V24.6133H56.2933V25.9467H56.24Z" fill="white"></path></svg> 