<?xml version="1.0" encoding="UTF-8"?> <svg xmlns="http://www.w3.org/2000/svg" width="108" height="108" viewBox="0 0 108 108" fill="none"><rect width="108" height="108" fill="#FFAB00"></rect><path d="M56.3175 31.1218L56.1984 31.4088C59.1906 33.6136 61.1467 37.7216 61.1467 42.32V49.36H39.76V44.24C39.76 36.697 45.5627 30.4717 52.9481 29.7859L53.0933 29.7725V29.6266V19.7066H63.28V26.1066H56.72V24.8266H61.84H62V24.6666V21.1466V20.9866H61.84H54.5333H54.3733V21.1466V29.5733V29.7312L54.5312 29.7333C62.4434 29.8388 68.8267 36.3272 68.8267 44.24V49.3066H67.5467V44.24C67.5467 37.6002 62.6882 32.0936 56.3175 31.1218ZM59.7067 48.0266H59.8667V47.8666V42.3733C59.8667 37.7986 57.8217 33.7359 54.6114 31.9403L54.3733 31.8071V32.08V45.04H53.0933V32.4V32.0979L52.8434 32.2676C49.9642 34.2233 48.1333 38.0117 48.1333 42.32V45.04H46.8533V42.32C46.8533 37.827 48.7037 33.7713 51.6441 31.5135L51.5129 31.2302C45.5213 32.5257 41.04 37.8159 41.04 44.1866V47.8666V48.0266H41.2H59.7067Z" fill="white" stroke="white" stroke-width="0.32"></path><path d="M81.52 75.6533C83.12 74.2133 84.08 72.08 84.08 69.7333C84.08 66.8533 83.0667 64.6666 81.3067 63.3333V56.24H73.6267V51.8666H35.0133V56.2933H27.3333V74.5866H33.84V66.0533C33.84 64.9866 34.6933 64.1333 35.76 64.1333C36.8267 64.1333 37.68 64.9866 37.68 66.0533V74.5333H43.0133V66.0533C43.0133 64.9866 43.8667 64.1333 44.9333 64.1333C46 64.1333 46.8533 64.9866 46.8533 66.0533V74.5333H52.1867V66.0533C52.1867 64.9866 53.04 64.1333 54.1067 64.1333C55.1733 64.1333 56.0267 64.9866 56.0267 66.0533V74.5333H59.5467V72.9333H57.6267V66.0533C57.6267 64.1333 56.0267 62.5333 54.1067 62.5333C52.1867 62.5333 50.5867 64.1333 50.5867 66.0533V72.9333H48.4533V66.0533C48.4533 64.1333 46.8533 62.5333 44.9333 62.5333C43.0133 62.5333 41.4133 64.1333 41.4133 66.0533V72.9333H39.28V66.0533C39.28 64.1333 37.68 62.5333 35.76 62.5333C33.84 62.5333 32.24 64.1333 32.24 66.0533V72.9333H28.9333V57.84H79.6533V62.4266C78.8533 62.1066 77.9467 61.9466 76.9867 61.9466C76.1867 61.9466 75.3867 62.0533 74.6933 62.2666C73.36 60.0266 71.0133 58.6933 67.9733 58.6933C62.96 58.6933 59.9733 62 59.9733 67.4933C59.9733 70.2133 61.0933 72.72 62.96 74.3733C60.9333 75.12 59.28 76.3466 58 78.0533H27.0133V79.6533H57.0933C56.56 80.6666 56.1333 81.84 55.8133 83.12H25.2533V84.72H87.0667L87.8667 83.76C87.0133 79.76 84.8267 76.9333 81.52 75.6533ZM36.6133 53.4666H71.92V56.2933H36.6133V53.4666ZM57.4133 83.0666C58.2133 79.9733 60.1867 76.5066 64.9867 75.44L65.2 73.9466C62.96 72.72 61.5733 70.2666 61.5733 67.4933C61.5733 65.3066 62.2133 60.2933 67.9733 60.2933C71.9733 60.2933 74.3733 62.96 74.3733 67.4933C74.3733 70.2666 72.9867 72.7733 70.7467 73.9466L70.96 75.44C74.7467 76.2933 77.4133 79.0133 78.5333 83.0666H57.4133ZM80.1867 83.0666C79.1733 78.8 76.6133 75.76 72.9867 74.3733C74.9067 72.72 76.0267 70.2133 76.0267 67.4933C76.0267 66.1066 75.8133 64.8266 75.3867 63.76C75.8667 63.6533 76.4 63.6 76.9867 63.6C80.4 63.6 82.4267 65.8933 82.4267 69.7333C82.4267 72.08 81.2533 74.2133 79.3333 75.2266L79.5467 76.72C82.7467 77.4666 85.04 79.7066 86 83.12H80.1867V83.0666Z" fill="white"></path></svg> 