<?xml version="1.0" encoding="UTF-8"?> <svg xmlns="http://www.w3.org/2000/svg" width="108" height="108" viewBox="0 0 108 108" fill="none"><rect width="108" height="108" fill="#801C17"></rect><path d="M47.4933 39.2267V50.48H46.2133V39.2267C46.2133 38.6409 46.5053 38.1088 46.9862 37.8189C47.5339 37.5211 48.1143 37.4786 48.6434 37.7671L48.646 37.7685L61.926 44.7018L61.9259 44.7021L61.9338 44.7057C62.4532 44.9418 62.8 45.5708 62.8 46.16C62.8 46.7407 62.4595 47.3264 61.9248 47.6188L47.295 55.2242L46.6957 54.0685L61.3782 46.4631C61.3786 46.4629 61.379 46.4627 61.3794 46.4625C61.4184 46.4429 61.4581 46.4159 61.488 46.376C61.5213 46.3317 61.5333 46.2836 61.5333 46.24C61.5333 46.2061 61.5255 46.1753 61.5225 46.1635C61.5223 46.1626 61.5221 46.1619 61.5219 46.1612C61.521 46.1577 61.5204 46.1552 61.52 46.1534C61.5203 46.0973 61.5191 45.9016 61.3263 45.8043L48.0474 38.8715L48.0474 38.8715L48.0449 38.8702C47.957 38.8263 47.8804 38.8234 47.8153 38.8364C47.7934 38.8408 47.7711 38.8476 47.7603 38.8509C47.7584 38.8515 47.7568 38.852 47.7557 38.8523C47.7543 38.8527 47.7532 38.8531 47.7522 38.8533H47.6937L47.6469 38.9002C47.6457 38.9014 47.6445 38.9026 47.6432 38.9038C47.5876 38.9594 47.4933 39.0535 47.4933 39.2267Z" fill="white" stroke="white" stroke-width="0.32"></path><path d="M80.4126 66.8055L81.3538 65.9071L87.76 72.73V75.7067C87.76 77.6983 86.1783 79.28 84.1867 79.28H23.8133C21.8217 79.28 20.24 77.6983 20.24 75.7067V72.7303L29.109 63.3333H77.84H78V63.1733V32.1867C78 30.9755 77.0188 30.0533 75.8666 30.0533H32.1333C30.9221 30.0533 30 31.0345 30 32.1867V60.08H28.72V32.1867C28.72 30.3017 30.2484 28.7733 32.1333 28.7733H75.8133C77.6983 28.7733 79.2266 30.3017 79.2266 32.1867V64.56H29.7333H29.6643L29.617 64.6102L21.5636 73.1435L21.52 73.1898V73.2533V75.6533C21.52 76.915 22.5516 77.9467 23.8133 77.9467H84.1867C85.4483 77.9467 86.48 76.915 86.48 75.6533V73.7333V73.5733H86.32H26.9067V72.2933H85.2533H85.626L85.3693 72.0231L80.4126 66.8055Z" fill="white" stroke="white" stroke-width="0.32"></path></svg> 