<?xml version="1.0" encoding="UTF-8"?> <svg xmlns="http://www.w3.org/2000/svg" width="108" height="108" viewBox="0 0 108 108" fill="none"><path d="M108 0H0V108H108V0Z" fill="#FF9E94"></path><path d="M40.2188 81.0393C29.6367 75.864 22.8533 64.9787 22.8533 53.2C22.8533 36.0619 36.8082 22.16 53.8933 22.16C71.0317 22.16 84.9336 36.0619 84.9867 53.1472C84.9864 70.2851 71.0316 84.1867 53.9467 84.1867H53.3067V72.7733V72.6221L53.1557 72.6136C46.6273 72.245 41.4667 66.822 41.4667 60.1867V44.7733H44.72H44.88V44.6133V36.4533C44.88 34.835 46.2484 33.4667 47.8667 33.4667C49.4867 33.4667 50.8533 34.7835 50.8533 36.4533V44.6133V44.7733H51.0133H56.8267H56.9867V44.6133V36.4533C56.9867 34.8333 58.3034 33.4667 59.9733 33.4667C61.5934 33.4667 62.96 34.7835 62.96 36.4533V44.6133V44.7733H63.12H66.3733V60.1867C66.3733 66.768 61.2132 72.1924 54.683 72.6137L54.5333 72.6233V72.7733V82.7467V82.911L54.6976 82.9066C70.7304 82.4776 83.6533 69.3406 83.6533 53.2C83.6533 36.7914 70.2482 23.44 53.8933 23.44C37.538 23.44 24.1869 36.7918 24.1333 53.1995V53.2C24.1333 64.4616 30.6666 74.9251 40.7734 79.8874L40.2188 81.0393ZM61.4667 44.7733H61.6267V44.6133V36.4533C61.6267 35.5116 60.8617 34.7467 59.92 34.7467C59.0322 34.7467 58.3016 35.4265 58.2207 36.2933H58.16V36.4533V44.6133V44.7733H58.32H61.4667ZM49.4133 44.7733H49.5733V44.6133V36.4533C49.5733 35.5116 48.8084 34.7467 47.8667 34.7467C46.9789 34.7467 46.2482 35.4265 46.1674 36.2933H46.1067V36.4533V44.6133V44.7733H46.2667H49.4133ZM65.0933 46.2133V46.0533H64.9333H42.9067H42.7467V46.2133V49.2V49.36H42.9067H64.9333H65.0933V49.2V46.2133ZM42.9067 50.64H42.7467V50.8V60.1867C42.7467 66.356 47.7793 71.3333 53.9467 71.3333C60.115 71.3333 65.1467 66.3017 65.1467 60.1333V50.8V50.64H64.9867H42.9067Z" fill="white" stroke="white" stroke-width="0.32"></path><path d="M52.9269 58.9535L52.6537 59.2267H53.04H58.2004L51.496 65.9311L50.5977 64.99L54.8591 60.7805L55.1363 60.5067H54.7467H49.5842L56.0778 53.9627L56.9763 54.9041L52.9269 58.9535Z" fill="white" stroke="white" stroke-width="0.32"></path></svg> 