<?xml version="1.0" encoding="UTF-8"?> <svg xmlns="http://www.w3.org/2000/svg" width="108" height="108" viewBox="0 0 108 108" fill="none"><rect width="108" height="108" fill="#BD2B26"></rect><path d="M42.8 69.8933H81.04V71.1733H72.7733H72.4021L72.657 71.4432C73.5393 72.3774 74.1067 73.6192 74.1067 74.96C74.1067 77.6983 71.885 79.92 69.1467 79.92C66.4084 79.92 64.1867 77.6983 64.1867 74.96C64.1867 73.5643 64.7551 72.3245 65.6331 71.4465L65.9063 71.1733H65.52H53.3067H52.9355L53.1903 71.4432C54.0726 72.3774 54.64 73.6192 54.64 74.96C54.64 77.6983 52.4183 79.92 49.68 79.92C46.9417 79.92 44.72 77.6983 44.72 74.96C44.72 73.5643 45.2884 72.3245 46.1665 71.4465L46.4396 71.1733H46.0533H42.8C39.6285 71.1733 36.8687 68.7278 36.452 65.5531C36.452 65.5529 36.452 65.5527 36.452 65.5525L32.3988 32.807L32.3988 32.807L32.3983 32.8034C32.1204 30.9137 30.5082 29.4667 28.56 29.4667H23.8133V28.1867H28.56C31.0914 28.1867 33.2651 30.0989 33.628 32.6345C33.6281 32.635 33.6282 32.6355 33.6283 32.636L37.2012 61.5929L37.2185 61.7333H37.36H75.2267C78.563 61.7333 81.2978 59.2169 81.6259 55.9359L81.6259 55.9357L83.6525 35.349L83.6698 35.1733H83.4933H38.6933V33.8933H85.0769L82.9075 56.0633C82.9075 56.0634 82.9075 56.0636 82.9075 56.0638C82.4892 60.0354 79.1977 63.0138 75.2257 63.0667H37.5733H37.3926L37.4145 63.246L37.6812 65.4327L37.6813 65.434C38.0118 67.968 40.2139 69.8933 42.8 69.8933ZM46 74.9067C46 76.9699 47.6732 78.5867 49.68 78.5867C51.6868 78.5867 53.36 76.9699 53.36 74.9067C53.36 72.8434 51.6868 71.2267 49.68 71.2267C47.6183 71.2267 46 72.845 46 74.9067ZM65.4133 74.9067C65.4133 76.9699 67.0865 78.5867 69.0933 78.5867C71.1001 78.5867 72.7733 76.9699 72.7733 74.9067C72.7733 72.8434 71.1001 71.2267 69.0933 71.2267C67.0316 71.2267 65.4133 72.845 65.4133 74.9067Z" fill="white" stroke="white" stroke-width="0.32"></path><path d="M58.5867 38.4267V40.9867H56.0267C53.7867 40.9867 51.9733 42.8 51.9733 45.04C51.9733 47.28 53.7867 49.0933 56.0267 49.0933H58.5867V54H52.7733V55.6H58.5867V58.2667H60.1867V55.6H62.7467C64.9867 55.6 66.8 53.7867 66.8 51.5467C66.8 49.3067 64.9867 47.4933 62.7467 47.4933H60.1867V42.5867H66V40.9867H60.1867V38.4267H58.5867ZM62.6933 49.1467C64.0267 49.1467 65.1467 50.2667 65.1467 51.6C65.1467 52.9333 64.0267 54.0533 62.6933 54.0533H60.1333V49.1467H62.6933ZM58.5867 47.5467H56.0267C54.6933 47.5467 53.5733 46.4267 53.5733 45.0933C53.5733 43.7067 54.6933 42.64 56.0267 42.64H58.5867V47.5467Z" fill="white"></path></svg> 