<?xml version="1.0" encoding="UTF-8"?> <svg xmlns="http://www.w3.org/2000/svg" width="108" height="108" viewBox="0 0 108 108" fill="none"><path d="M108 0H0V108H108V0Z" fill="#618794"></path><path d="M24.3467 35.4933H24.1867V35.6533V72.3467V72.5067H24.3467H34.16V73.7867H22.9067V34.2667H37.4133H37.5733V34.1067V30.0533C37.5733 26.9941 40.0627 24.4533 43.1733 24.4533H64.8267C67.8859 24.4533 70.4267 26.9427 70.4267 30.0533V43.7067H69.1467V30C69.1467 27.6183 67.2084 25.68 64.8267 25.68H43.12C40.7383 25.68 38.8 27.6183 38.8 30V34.0533V34.2133H38.96H65.8933V35.4933H54.8H54.64V35.6533V42.5867H53.36V35.6533V35.4933H53.2H38.96H38.8V35.6533V49.2533H37.52V35.6533V35.4933H37.36H24.3467Z" fill="white" stroke="white" stroke-width="0.32"></path><path d="M83.6533 72.5067H83.8133V72.3467V49.0933H85.0933V73.7334H70.64H70.48V73.8934V77.9467C70.48 81.006 67.9907 83.5467 64.88 83.5467H43.1733C40.1141 83.5467 37.5733 81.0574 37.5733 77.9467V62.4267H38.8533V78C38.8533 80.3817 40.7916 82.32 43.1733 82.32H64.88C67.2617 82.32 69.2 80.3817 69.2 78V73.9467V73.7867H69.04H42.3733V72.5067H53.2H53.36V72.3467V54.16H54.64V72.3467V72.5067H54.8H83.6533Z" fill="white" stroke="white" stroke-width="0.32"></path><path d="M74 34.0533V35.6533H82.5333L66 52.1867L57.7333 43.92L42.32 59.28L34 50.96L26.48 58.48L27.6 59.6L34 53.2533L42.32 61.5733L57.7333 46.16L66 54.4267L83.6534 36.8267V45.3067H85.2533V34.0533H74Z" fill="white"></path><path d="M57.7333 29.52H50.2667V31.12H57.7333V29.52Z" fill="white"></path><path d="M70.64 55.92H69.04V69.04H70.64V55.92Z" fill="white"></path><path d="M55.6533 77.84C55.6533 76.88 54.9067 76.1334 53.9467 76.1334C52.9867 76.1334 52.24 76.88 52.24 77.84C52.24 78.8 52.9867 79.5467 53.9467 79.5467C54.8533 79.5467 55.6533 78.7467 55.6533 77.84Z" fill="white"></path></svg> 