<?xml version="1.0" encoding="UTF-8"?> <svg xmlns="http://www.w3.org/2000/svg" width="108" height="108" viewBox="0 0 108 108" fill="none"><rect width="108" height="108" fill="#98102A"></rect><path d="M76.0266 53.6267V53.7867H76.1866H87.3867C89.485 53.7867 91.1733 55.475 91.1733 57.5733V74.9067C91.1733 77.005 89.485 78.6933 87.3867 78.6933H60.08C57.9817 78.6933 56.2933 77.005 56.2933 74.9067V60.4V60.24H56.1333H33.0933V59.7067C33.0933 56.9516 30.8884 54.7467 28.1333 54.7467H27.4933V43.1733H28.1333C30.8884 43.1733 33.0933 40.9684 33.0933 38.2133V37.5733H64.0266V38.2133C64.0266 40.9684 66.2316 43.1733 68.9866 43.1733H69.6266V53.68V53.84H69.7866H74.5866H74.7466V53.68V33.2V33.04H74.5866H22.5333H22.3733V33.2V64.6133V64.7733H22.5333H53.04V66.0533H21.0933V31.76H76.0266V53.6267ZM34.3213 58.8206L34.3394 58.96H34.48H56.1333H56.2933V58.8V57.5733C56.2933 55.475 57.9817 53.7867 60.08 53.7867H68.1866H68.3466V53.6267V44.5067V44.3661L68.2072 44.348C65.3993 43.984 63.1626 41.7474 62.7987 38.9394L62.7806 38.8H62.64H34.48H34.3394L34.3213 38.9394C33.9573 41.7474 31.7207 43.984 28.9127 44.348L28.7733 44.3661V44.5067V53.2533V53.3939L28.9127 53.412C31.7207 53.776 33.9573 56.0126 34.3213 58.8206ZM57.7333 60.24H57.5733V60.4V74.9067C57.5733 76.275 58.7116 77.4133 60.08 77.4133H87.3867C88.755 77.4133 89.8933 76.275 89.8933 74.9067V57.52C89.8933 56.1516 88.755 55.0133 87.3867 55.0133H60.08C58.7116 55.0133 57.5733 56.1516 57.5733 57.52V58.8V58.96H57.7333H86.6933V71.0667C86.6933 72.1516 85.805 73.04 84.72 73.04H80.08C78.995 73.04 78.1067 72.1516 78.1067 71.0667V67.5467C78.1067 66.4617 78.995 65.5733 80.08 65.5733H83.1733V66.8533H80.08C79.7355 66.8533 79.3867 67.1281 79.3867 67.5467V71.0667C79.3867 71.4111 79.6614 71.76 80.08 71.76H84.72C85.0644 71.76 85.4133 71.4853 85.4133 71.0667V60.4V60.24H85.2533H57.7333Z" fill="white" stroke="white" stroke-width="0.32"></path><path d="M61.2533 68.56V67.28H70.7467V68.56H61.2533Z" fill="white" stroke="white" stroke-width="0.32"></path><path d="M70.9067 70.8H61.0933V72.4H70.9067V70.8Z" fill="white"></path><path d="M51.0666 47.8667H49.4133V44.6133H53.4666V43.0133H49.36V41.3067H47.76V43.0133H46.1066C44.3466 43.0133 42.9066 44.4533 42.9066 46.2133C42.9066 47.9733 44.3466 49.4133 46.1066 49.4133H47.76V52.6667H43.6533V54.2667H47.76V56.0267H49.36V54.2667H51.0133C52.7733 54.2667 54.2133 52.8267 54.2133 51.0667C54.2133 49.3067 52.8266 47.8667 51.0666 47.8667ZM46.1066 47.8667C45.2 47.8667 44.5066 47.12 44.5066 46.2667C44.5066 45.4133 45.2533 44.6667 46.1066 44.6667H47.76V47.92H46.1066V47.8667ZM51.0666 52.72H49.4133V49.4667H51.0666C51.9733 49.4667 52.6666 50.2133 52.6666 51.0667C52.6666 51.92 51.92 52.72 51.0666 52.72Z" fill="white"></path></svg> 