<?xml version="1.0" encoding="UTF-8"?> <svg xmlns="http://www.w3.org/2000/svg" width="108" height="108" viewBox="0 0 108 108" fill="none"><rect width="108" height="108" fill="#FF5F46"></rect><path d="M74.64 29.7867H68.1333V28.5067H76.08V73.2533H38.4267C35.565 73.2533 33.2 75.6183 33.2 78.48C33.2 81.3417 35.565 83.7067 38.4267 83.7067H74.64H74.8V83.5467V79.6533V79.4933H74.64H36.72V78.2133H76.08V84.9867H38.4267C34.835 84.9867 31.92 82.0716 31.92 78.48V34.96C31.92 31.3684 34.835 28.4533 38.4267 28.4533H55.76V29.7333H38.4267C35.565 29.7333 33.2 32.0983 33.2 34.96V74.2133V74.6479L33.4818 74.3171C34.6795 72.9111 36.449 72.0267 38.4267 72.0267H74.64H74.8V71.8667V29.9467V29.7867H74.64Z" fill="white" stroke="white" stroke-width="0.32"></path><path d="M41.0933 70.2133V31.6533H42.3733V70.2133H41.0933Z" fill="white" stroke="white" stroke-width="0.32"></path><path d="M65.7333 57.84V23.8667C65.7333 22.8533 65.04 22.0533 64.1867 22.0533H59.4933C58.64 22.0533 57.9467 22.8533 57.9467 23.8667V57.84L61.84 66L65.7333 57.84ZM59.5467 23.8667C59.5467 23.76 59.5467 23.6533 59.6 23.6533H64.08C64.08 23.7067 64.1333 23.76 64.1333 23.8667V28.3467H59.6V23.8667H59.5467ZM59.5467 29.8933H64.1333V56.8267H59.6V29.8933H59.5467ZM63.6533 58.48L61.84 62.2667L60.0267 58.48H63.6533Z" fill="white"></path></svg> 