<?xml version="1.0" encoding="UTF-8"?> <svg xmlns="http://www.w3.org/2000/svg" width="108" height="108" viewBox="0 0 108 108" fill="none"><rect width="108" height="108" fill="#BF7080"></rect><path d="M56.88 33.04V33.2H57.04H69.84C74.2309 33.2 77.84 36.8077 77.84 41.2533V77.6267C77.84 82.019 74.2843 85.6267 69.84 85.6267H69.2V71.0133V70.8533H69.04H65.68V69.5733H69.04H69.84C72.4524 69.5733 74.8059 70.8796 76.2712 72.8682L76.56 73.2602V72.7733V41.1467C76.56 37.4316 73.555 34.4267 69.84 34.4267H57.0933H56.9333V34.5867V36.72C56.9333 38.318 57.6511 39.7517 58.9706 40.7413C61.97 43.0041 63.6533 46.4232 63.6533 50.16C63.6533 54.8426 60.8648 59.1051 56.5497 60.9998C56.5495 60.9999 56.5492 61 56.549 61.0002L55.6533 61.384V51.28C55.6533 49.165 53.9284 47.44 51.8133 47.44C49.6983 47.44 47.9733 49.165 47.9733 51.28V61.4907L47.0776 61.1068C47.0774 61.1067 47.0772 61.1066 47.0769 61.1065C42.7618 59.2117 39.9733 54.9492 39.9733 50.2667C39.9733 46.5311 41.7091 43.1108 44.6574 40.8469L44.6586 40.846C45.9205 39.8584 46.6933 38.3734 46.6933 36.8267V34.6933V34.5333H46.5333H38.2133V33.2533H46.5333H46.6933V33.0933V24.24C46.6933 21.4412 48.764 19.168 51.449 18.9598C52.902 18.9087 54.2445 19.3756 55.2765 20.356L55.2764 20.356L55.2796 20.3589C56.3096 21.2859 56.88 22.6811 56.88 24.08V33.04ZM56.88 59.1733V59.4543L57.1216 59.3109C60.3163 57.4158 62.32 53.9505 62.32 50.2133C62.32 46.9106 60.8038 43.8234 58.1505 41.8196C56.5342 40.5679 55.6 38.747 55.6 36.7733V24.08C55.6 23.0212 55.1541 22.019 54.3755 21.2961L54.3752 21.2958C53.6555 20.6314 52.7644 20.24 51.76 20.24H51.7594H51.7587H51.7581H51.7575H51.7569H51.7563H51.7557H51.755H51.7544H51.7538H51.7532H51.7526H51.752H51.7514H51.7508H51.7502H51.7495H51.7489H51.7483H51.7477H51.7471H51.7465H51.7459H51.7453H51.7447H51.7441H51.7436H51.743H51.7424H51.7418H51.7412H51.7406H51.74H51.7394H51.7388H51.7383H51.7377H51.7371H51.7365H51.7359H51.7353H51.7348H51.7342H51.7336H51.733H51.7325H51.7319H51.7313H51.7307H51.7302H51.7296H51.729H51.7285H51.7279H51.7273H51.7268H51.7262H51.7256H51.7251H51.7245H51.724H51.7234H51.7228H51.7223H51.7217H51.7212H51.7206H51.7201H51.7195H51.719H51.7184H51.7179H51.7173H51.7168H51.7162H51.7157H51.7151H51.7146H51.714H51.7135H51.713H51.7124H51.7119H51.7113H51.7108H51.7103H51.7097H51.7092H51.7086H51.7081H51.7076H51.707H51.7065H51.706H51.7054H51.7049H51.7044H51.7039H51.7033H51.7028H51.7023H51.7018H51.7012H51.7007H51.7002H51.6997H51.6991H51.6986H51.6981H51.6976H51.6971H51.6965H51.696H51.6955H51.695H51.6945H51.694H51.6934H51.6929H51.6924H51.6919H51.6914H51.6909H51.6904H51.6899H51.6893H51.6888H51.6883H51.6878H51.6873H51.6868H51.6863H51.6858H51.6853H51.6848H51.6843H51.6838H51.6833H51.6828H51.6823H51.6818H51.6813H51.6808H51.6803H51.6798H51.6793H51.6788H51.6783H51.6778H51.6773H51.6768H51.6763H51.6758H51.6753H51.6748H51.6743H51.6738H51.6733H51.6729H51.6724H51.6719H51.6714H51.6709H51.6704H51.6699H51.6694H51.6689H51.6685H51.668H51.6675H51.667H51.6665H51.666H51.6655H51.6651H51.6646H51.6641H51.6636H51.6631H51.6626H51.6622H51.6617H51.6612H51.6607H51.6602H51.6597H51.6593H51.6588H51.6583H51.6578H51.6574H51.6569H51.6564H51.6559H51.6554H51.655H51.6545H51.654H51.6535H51.6531H51.6526H51.6521H51.6516H51.6512H51.6507H51.6502H51.6497H51.6493H51.6488H51.6483H51.6478H51.6474H51.6469H51.6464H51.6459H51.6455H51.645H51.6445H51.644H51.6436H51.6431H51.6426H51.6422H51.6417H51.6412H51.6407H51.6403H51.6398H51.6393H51.6389H51.6384H51.6379H51.6375H51.637H51.6365H51.636H51.6356H51.6351H51.6346H51.6342H51.6337H51.6332H51.6328H51.6323H51.6318H51.6314H51.6309H51.6304H51.6299H51.6295H51.629H51.6285H51.6281H51.6276H51.6271H51.6267H51.6262H51.6257H51.6253H51.6248H51.6243H51.6239H51.6234H51.6229H51.6224H51.622H51.6215H51.621H51.6206H51.6201H51.6196H51.6192H51.6187H51.6182H51.6178H51.6173H51.6168H51.6163H51.6159H51.6154H51.6149H51.6145H51.614H51.6135H51.6131H51.6126H51.6121H51.6116H51.6112H51.6107H51.6102H51.6098H51.6093H51.6088H51.6083H51.6079H51.6074H51.6069H51.6064H51.606H51.6055H51.605H51.6046H51.6041H51.6036H51.6031H51.6027H51.6022H51.6017H51.6012H51.6008H51.6003H51.5998H51.5993H51.5988H51.5984H51.5979H51.5974H51.5969H51.5965H51.596H51.5955H51.595H51.5945H51.5941H51.5936H51.5931H51.5926H51.5921H51.5917H51.5912H51.5907H51.5902H51.5897H51.5892H51.5888H51.5883H51.5878H51.5873H51.5868H51.5863H51.5858H51.5854H51.5849H51.5844H51.5839H51.5834H51.5829H51.5824H51.5819H51.5815H51.581H51.5805H51.58H51.5795H51.579H51.5785H51.578H51.5775H51.577H51.5765H51.576H51.5755H51.575H51.5745H51.574H51.5735H51.573H51.5725H51.572H51.5715H51.571H51.5705H51.57H51.5695H51.569H51.5685H51.568H51.5675H51.567H51.5665H51.566H51.5655H51.565H51.5645H51.564H51.5635H51.563H51.5625H51.5619H51.5614H51.5609H51.5604H51.5599H51.5594H51.5589H51.5583H51.5578H51.5573H51.5568H51.5563H51.5558H51.5552H51.5547H51.5542H51.5537H51.5531H51.5526H51.5521H51.5516H51.551H51.5505H51.55H51.5495H51.5489H51.5484H51.5479H51.5473H51.5468H51.5463H51.5458H51.5452H51.5447H51.5441H51.5436H51.5431H51.5425H51.542H51.5415H51.5409H51.5404H51.5398H51.5393H51.5387H51.5382H51.5377H51.5371H51.5366H51.536H51.5355H51.5349H51.5344H51.5338H51.5333H51.5327H51.5322H51.5316H51.531H51.5305H51.5299H51.5294H51.5288H51.5282H51.5277H51.5271H51.5266H51.526H51.5254H51.5249H51.5243H51.5237H51.5232H51.5226H51.522H51.5214H51.5209H51.5203H51.5197H51.5191H51.5186H51.518H51.5174H51.5168H51.5162H51.5157H51.5151H51.5145H51.5139H51.5133H51.5127H51.5121H51.5116H51.511H51.5104H51.5098H51.5092H51.5086H51.508H51.5074H51.5068H51.5062H51.5056H51.505H51.5044H51.5038H51.5032H51.5026H51.502H51.5014H51.5007H51.5001H51.4995H51.4989H51.4983H51.4977H51.4971H51.4964H51.4958H51.4952H51.4946H51.494H51.4933V20.2394L51.48 20.2405C49.4729 20.4078 47.92 22.1344 47.92 24.24V36.7733C47.92 38.6929 46.9864 40.514 45.3695 41.7662C42.7162 43.7701 41.2 46.8573 41.2 50.16C41.2 53.951 43.2041 57.3627 46.3984 59.2576L46.64 59.4009V59.12V51.28C46.64 48.435 48.915 46.16 51.76 46.16C54.605 46.16 56.88 48.435 56.88 51.28V59.1733ZM70.48 84.24V84.4194L70.6582 84.3989C73.9925 84.0163 76.56 81.1745 76.56 77.7333C76.56 74.2938 73.9941 71.3972 70.6582 71.0144L70.48 70.9939V71.1733V84.24Z" fill="white" stroke="white" stroke-width="0.32"></path><path d="M51.9733 82.3733C48.8084 82.3733 46.2133 79.7783 46.2133 76.6133C46.2133 73.4484 48.8084 70.8533 51.9733 70.8533C55.1383 70.8533 57.7333 73.4484 57.7333 76.6133C57.7333 79.7783 55.1383 82.3733 51.9733 82.3733ZM51.9733 81.0933C54.4617 81.0933 56.4533 79.1017 56.4533 76.6133C56.4533 74.125 54.4617 72.1333 51.9733 72.1333C49.485 72.1333 47.4933 74.125 47.4933 76.6133C47.4933 79.1017 49.485 81.0933 51.9733 81.0933Z" fill="white" stroke="white" stroke-width="0.32"></path><path d="M40.72 70.1067V83.12L51.9733 89.6267L63.2267 83.12V70.1067L51.9733 63.6L40.72 70.1067ZM61.6267 82.16L51.9733 87.76L42.32 82.16V71.0133L51.9733 65.4133L61.6267 71.0133V82.16Z" fill="white"></path><path d="M28.5067 63.8133C28.56 61.7867 29.5733 60.4533 30.4267 59.6533C31.92 58.2667 33.7867 57.7333 34.96 57.7867L35.8133 57.84V18.3733H35.0133C30.48 18.3733 26.8 22.0533 26.8 26.5867C26.8 42.64 26.9067 64.1333 26.9067 64.1333C27.2267 68.3467 30.7467 71.7066 35.0133 71.7066H38.5333V70.1067H35.0133C31.4933 70.1067 28.6133 67.3333 28.5067 63.8133ZM28.4 26.5867C28.4 23.2267 30.9067 20.4533 34.16 20.0267V56.1867C32.5067 56.3467 30.64 57.2 29.2533 58.48C28.9867 58.7467 28.6667 59.0667 28.4 59.3867V26.5867Z" fill="white"></path></svg> 