<?xml version="1.0" encoding="UTF-8"?> <svg xmlns="http://www.w3.org/2000/svg" width="108" height="108" viewBox="0 0 108 108" fill="none"><rect width="108" height="108" fill="#00875C"></rect><mask id="path-1-inside-1" fill="white"><path d="M76.2933 37.36H64.56V32.8267C64.56 30.48 62.64 28.56 60.2933 28.56H47.7067C45.36 28.56 43.44 30.48 43.44 32.8267V37.36H31.7067C29.2 37.36 27.1733 39.3867 27.1733 41.8933V74.9067C27.1733 77.4133 29.2 79.44 31.7067 79.44H53.0933V77.84H31.7067C30.1067 77.84 28.7733 76.5067 28.7733 74.9067V47.6H35.7067V50.32C35.7067 51.4933 36.6667 52.5067 37.8933 52.5067H40.2933C41.4667 52.5067 42.48 51.5467 42.48 50.32V47.6H50V58.8H43.12V66.2667H50V73.7333H52.9333V72.1333H51.6V64.6667H44.72V60.4H51.6V46H42.48V44.3467C42.48 43.1733 41.52 42.16 40.2933 42.16H37.8933C36.72 42.16 35.7067 43.12 35.7067 44.3467V46H28.7733V41.8933C28.7733 40.2933 30.1067 38.96 31.7067 38.96H45.04V32.8267C45.04 31.3867 46.2133 30.16 47.7067 30.16H60.24C61.68 30.16 62.9067 31.3333 62.9067 32.8267V37.36H48.7733V38.96H76.2933C77.8933 38.96 79.2267 40.2933 79.2267 41.8933V46H72.2933V44.3467C72.2933 43.1733 71.3333 42.16 70.1067 42.16H67.7067C66.5333 42.16 65.52 43.12 65.52 44.3467V46H54.64V47.6H65.52V50.32C65.52 51.4933 66.48 52.5067 67.7067 52.5067H70.1067C71.28 52.5067 72.2933 51.5467 72.2933 50.32V47.6H79.2267V74.9067C79.2267 76.5067 77.8933 77.84 76.2933 77.84H57.4667V66.32H64.88V58.8H57.4667V50.8533H54.64V52.4533H55.8667V60.4H63.28V64.6667H55.8667V79.3867H76.2933C78.8 79.3867 80.8267 77.36 80.8267 74.8533V41.8933C80.8267 39.3867 78.7467 37.36 76.2933 37.36ZM37.36 44.3467C37.36 44.0267 37.6267 43.76 37.9467 43.76H40.3467C40.6667 43.76 40.9333 44.0267 40.9333 44.3467V50.32C40.9333 50.64 40.6667 50.9067 40.3467 50.9067H37.9467C37.6267 50.9067 37.36 50.64 37.36 50.32V44.3467ZM70.64 50.32C70.64 50.64 70.3733 50.9067 70.0533 50.9067H67.6533C67.3333 50.9067 67.0667 50.64 67.0667 50.32V44.3467C67.0667 44.0267 67.3333 43.76 67.6533 43.76H70.0533C70.3733 43.76 70.64 44.0267 70.64 44.3467V50.32Z"></path></mask><path d="M76.2933 37.36H64.56V32.8267C64.56 30.48 62.64 28.56 60.2933 28.56H47.7067C45.36 28.56 43.44 30.48 43.44 32.8267V37.36H31.7067C29.2 37.36 27.1733 39.3867 27.1733 41.8933V74.9067C27.1733 77.4133 29.2 79.44 31.7067 79.44H53.0933V77.84H31.7067C30.1067 77.84 28.7733 76.5067 28.7733 74.9067V47.6H35.7067V50.32C35.7067 51.4933 36.6667 52.5067 37.8933 52.5067H40.2933C41.4667 52.5067 42.48 51.5467 42.48 50.32V47.6H50V58.8H43.12V66.2667H50V73.7333H52.9333V72.1333H51.6V64.6667H44.72V60.4H51.6V46H42.48V44.3467C42.48 43.1733 41.52 42.16 40.2933 42.16H37.8933C36.72 42.16 35.7067 43.12 35.7067 44.3467V46H28.7733V41.8933C28.7733 40.2933 30.1067 38.96 31.7067 38.96H45.04V32.8267C45.04 31.3867 46.2133 30.16 47.7067 30.16H60.24C61.68 30.16 62.9067 31.3333 62.9067 32.8267V37.36H48.7733V38.96H76.2933C77.8933 38.96 79.2267 40.2933 79.2267 41.8933V46H72.2933V44.3467C72.2933 43.1733 71.3333 42.16 70.1067 42.16H67.7067C66.5333 42.16 65.52 43.12 65.52 44.3467V46H54.64V47.6H65.52V50.32C65.52 51.4933 66.48 52.5067 67.7067 52.5067H70.1067C71.28 52.5067 72.2933 51.5467 72.2933 50.32V47.6H79.2267V74.9067C79.2267 76.5067 77.8933 77.84 76.2933 77.84H57.4667V66.32H64.88V58.8H57.4667V50.8533H54.64V52.4533H55.8667V60.4H63.28V64.6667H55.8667V79.3867H76.2933C78.8 79.3867 80.8267 77.36 80.8267 74.8533V41.8933C80.8267 39.3867 78.7467 37.36 76.2933 37.36ZM37.36 44.3467C37.36 44.0267 37.6267 43.76 37.9467 43.76H40.3467C40.6667 43.76 40.9333 44.0267 40.9333 44.3467V50.32C40.9333 50.64 40.6667 50.9067 40.3467 50.9067H37.9467C37.6267 50.9067 37.36 50.64 37.36 50.32V44.3467ZM70.64 50.32C70.64 50.64 70.3733 50.9067 70.0533 50.9067H67.6533C67.3333 50.9067 67.0667 50.64 67.0667 50.32V44.3467C67.0667 44.0267 67.3333 43.76 67.6533 43.76H70.0533C70.3733 43.76 70.64 44.0267 70.64 44.3467V50.32Z" fill="white" stroke="white" stroke-width="0.64" mask="url(#path-1-inside-1)"></path></svg> 