<?xml version="1.0" encoding="UTF-8"?> <svg xmlns="http://www.w3.org/2000/svg" width="109" height="108" viewBox="0 0 109 108" fill="none"><rect width="108.02" height="108" fill="#618794"></rect><path d="M83.12 35.9717V35.9733V57.5733H81.84V35.9733C81.84 31.5116 78.195 27.8667 73.7333 27.8667H34.2133C29.7516 27.8667 26.1067 31.5116 26.1067 35.9733V57.52H24.8267V35.92C24.8267 30.7284 29.0217 26.5333 34.2133 26.5333H73.7867C78.9774 26.5333 83.1724 30.7805 83.12 35.9717Z" fill="white" stroke="white" stroke-width="0.32"></path><path d="M54.0533 55.4933V55.6533H54.2133H69.84C76.9508 55.6533 82.6933 61.4475 82.6933 68.56C82.6933 75.6716 76.8983 81.4667 69.7867 81.4667C64.1506 81.4667 59.1984 77.7793 57.5125 72.4583L57.4771 72.3467H57.36H50.5867H50.4695L50.4341 72.4583C48.7483 77.7793 43.7961 81.4667 38.16 81.4667C31.0484 81.4667 25.2533 75.6716 25.2533 68.56C25.2533 61.5533 30.7307 55.8653 37.7357 55.6533H52.56H52.72V55.4933V53.2C52.72 50.6762 54.7805 48.6667 57.2533 48.6667H64.4533C66.2484 48.6667 67.7067 47.2084 67.7067 45.4133C67.7067 43.6183 66.2484 42.16 64.4533 42.16H41.04C38.5162 42.16 36.5067 40.0995 36.5067 37.6267V34.0533H37.7867V37.6267C37.7867 39.4217 39.245 40.88 41.04 40.88H64.4533C66.9783 40.88 68.9867 42.8884 68.9867 45.4133C68.9867 47.9371 66.9261 49.9467 64.4533 49.9467H57.3067C55.5116 49.9467 54.0533 51.405 54.0533 53.2V55.4933ZM37.7867 56.9333V56.9332L37.7812 56.9334C31.4552 57.1497 26.5333 62.2336 26.5333 68.56C26.5333 74.995 31.725 80.1867 38.16 80.1867C43.4595 80.1867 48.0558 76.6177 49.4078 71.5349C49.4079 71.5348 49.4079 71.5346 49.408 71.5345L49.5355 71.0667H58.4645L58.592 71.5345C58.5921 71.5346 58.5921 71.5348 58.5922 71.5349C59.9443 76.6181 64.5943 80.1867 69.84 80.1867C76.2212 80.1867 81.4667 74.9955 81.4667 68.56C81.4667 62.125 76.275 56.9333 69.84 56.9333H37.7867Z" fill="white" stroke="white" stroke-width="0.32"></path><path d="M41.5733 60.6133H35.1733V64.7733H31.0667V71.12H35.1733V75.28H40.7733V73.68H36.7733V69.52H32.6667V66.3733H36.7733V62.2133H39.9733V66.3733H44.08V69.52H40.7733V71.12H45.68V64.7733H41.5733V60.6133Z" fill="white"></path><path d="M65.6267 64.56C63.8667 64.56 62.4267 66 62.4267 67.76C62.4267 69.52 63.8667 70.96 65.6267 70.96C67.3867 70.96 68.8267 69.52 68.8267 67.76C68.7733 66 67.3333 64.56 65.6267 64.56ZM65.6267 69.3067C64.7733 69.3067 64.0267 68.6133 64.0267 67.7067C64.0267 66.8533 64.72 66.1067 65.6267 66.1067C66.48 66.1067 67.2267 66.8 67.2267 67.7067C67.1733 68.6133 66.48 69.3067 65.6267 69.3067Z" fill="white"></path><path d="M73.7867 64.56C72.0267 64.56 70.5867 66 70.5867 67.76C70.5867 69.52 72.0267 70.96 73.7867 70.96C75.5467 70.96 76.9867 69.52 76.9867 67.76C76.9333 66 75.5467 64.56 73.7867 64.56ZM73.7867 69.3067C72.9333 69.3067 72.1867 68.6133 72.1867 67.7067C72.1867 66.8533 72.88 66.1067 73.7867 66.1067C74.64 66.1067 75.3867 66.8 75.3867 67.7067C75.3333 68.6133 74.64 69.3067 73.7867 69.3067Z" fill="white"></path></svg> 