<svg width="24" height="30" viewBox="0 0 24 30" fill="none" xmlns="http://www.w3.org/2000/svg">
<path d="M0 0H18L24 6V30H0V0Z" fill="white"/>
<path d="M18 6V0L24 6H18Z" fill="#FF5F46"/>
<path d="M10 24L12.0114 26L14 24" stroke="#FF5F46" stroke-miterlimit="10"/>
<path d="M19 8C17.8954 8 17 8.89543 17 10C17 11.1046 17.8954 12 19 12C20.1046 12 21 11.1046 21 10C21 8.89543 20.1046 8 19 8Z" fill="#618794"/>
<path d="M12 8C10.8954 8 10 8.89543 10 10C10 11.1046 10.8954 12 12 12C13.1046 12 14 11.1046 14 10C14 8.89543 13.1046 8 12 8Z" fill="#618794"/>
<path d="M5 8C3.89543 8 3 8.89543 3 10C3 11.1046 3.89543 12 5 12C6.10457 12 7 11.1046 7 10C7 8.89543 6.10457 8 5 8Z" fill="#FF5F46"/>
<path d="M13 18L17.882 18C18.4969 18 19 17.4643 19 16.8095L19 13" stroke="#618794" stroke-miterlimit="10"/>
<path d="M12 26L12 19.3079C12 18.6407 11.5052 18.0949 10.9005 18.0949L6.09948 18.0949C5.49476 18.0949 5 17.549 5 16.8818L5 13" stroke="#FF5F46" stroke-miterlimit="10"/>
<path d="M12 13L12 17" stroke="#618794" stroke-miterlimit="10"/>
</svg>
