<svg width="64" height="64" viewBox="0 0 64 64" fill="none" xmlns="http://www.w3.org/2000/svg">
<g clip-path="url(#clip0_19_134)">
<path d="M43.52 28.0192C43.4185 27.8099 43.3771 27.5765 43.4005 27.345L44.0747 19.1616C44.1133 18.7083 44.049 18.2522 43.8864 17.8273C43.7239 17.4025 43.4673 17.0199 43.136 16.7082C42.8075 16.3936 42.4115 16.1582 41.9782 16.0199C41.5449 15.8817 41.0857 15.8442 40.6357 15.9104C39.9319 16.0058 39.2528 16.2346 38.6347 16.5845C38.5877 16.5205 38.5323 16.4565 38.4853 16.3882C37.8707 15.6584 36.9924 15.2012 36.042 15.1165C35.0916 15.0318 34.1463 15.3264 33.4123 15.936L27.9253 20.5525V19.5157C27.9235 19.4396 27.9459 19.3649 27.9893 19.3024L29.1371 17.6298C29.193 17.5535 29.2329 17.4667 29.2545 17.3745C29.2762 17.2824 29.279 17.1869 29.2628 17.0937C29.2467 17.0004 29.2119 16.9114 29.1606 16.8319C29.1092 16.7524 29.0424 16.6841 28.9641 16.631C28.8857 16.5779 28.7975 16.5412 28.7047 16.523C28.6118 16.5048 28.5162 16.5055 28.4237 16.525C28.3311 16.5446 28.2434 16.5826 28.1658 16.6368C28.0883 16.691 28.0225 16.7603 27.9723 16.8405L26.8245 18.513C26.62 18.8072 26.5112 19.1574 26.5131 19.5157V21.7258L22.1269 25.3994V18.7733C22.12 18.0113 22.3495 17.2659 22.784 16.64L26.7947 10.752C27.1226 10.2644 27.6305 9.92683 28.2069 9.81329C28.4902 9.75742 28.7818 9.75963 29.0642 9.81977C29.3465 9.8799 29.6137 9.99672 29.8496 10.1632C30.3305 10.4926 30.6617 10.9987 30.7712 11.5712C30.8289 11.8564 30.8276 12.1504 30.7674 12.4351C30.7073 12.7198 30.5895 12.9891 30.4213 13.2266L29.6789 14.3061C29.6259 14.3825 29.5887 14.4688 29.5695 14.5598C29.5502 14.6508 29.5493 14.7448 29.5668 14.8362C29.5843 14.9275 29.6198 15.0145 29.6713 15.092C29.7228 15.1695 29.7892 15.2359 29.8667 15.2874C29.9428 15.3403 30.0287 15.3775 30.1194 15.3967C30.2101 15.4159 30.3037 15.4167 30.3947 15.3993C30.4858 15.3818 30.5724 15.3463 30.6495 15.2948C30.7266 15.2434 30.7926 15.177 30.8437 15.0997L31.5733 14.0202C31.9739 13.4334 32.1918 12.7411 32.1998 12.0307C32.2078 11.3202 32.0054 10.6232 31.6182 10.0275C31.2309 9.43182 30.6761 8.96399 30.0235 8.68291C29.371 8.40184 28.6499 8.32009 27.9509 8.44795C27.0112 8.62431 26.1797 9.16589 25.6384 9.95409L21.6192 15.8421C21.0267 16.7042 20.7125 17.7272 20.7189 18.7733V26.5813L18.5856 28.3477C17.838 28.9751 17.2512 29.7722 16.8741 30.6725C16.4971 31.5728 16.3407 32.5502 16.4181 33.5232L16.8448 39.2149C16.8598 39.3915 16.9403 39.556 17.0707 39.6761C17.201 39.7961 17.3716 39.863 17.5488 39.8634H17.6085C17.7011 39.8564 17.7914 39.8312 17.8741 39.7892C17.9569 39.7471 18.0305 39.6892 18.0908 39.6186C18.1511 39.548 18.1968 39.4662 18.2253 39.3779C18.2539 39.2896 18.2647 39.1965 18.2571 39.104L17.8347 33.3952C17.7738 32.6455 17.8939 31.8922 18.185 31.1987C18.476 30.5051 18.9295 29.8917 19.5072 29.4101L34.3211 17.0069C34.7702 16.6581 35.3371 16.497 35.9025 16.5575C36.468 16.618 36.9879 16.8954 37.3531 17.3313C37.7183 17.7672 37.9003 18.3277 37.8608 18.895C37.8213 19.4623 37.5634 19.9922 37.1413 20.3733L29.44 26.8373C28.9441 26.9549 28.4852 27.1939 28.1045 27.5328L24.32 30.8096C24.1791 30.9329 24.093 31.1072 24.0806 31.294C24.0682 31.4808 24.1305 31.6649 24.2539 31.8058C24.3772 31.9467 24.5515 32.0328 24.7383 32.0452C24.9252 32.0576 25.1093 31.9953 25.2501 31.872L29.0133 28.5866C29.3286 28.3123 29.7325 28.1612 30.1504 28.1612C30.5683 28.1612 30.9722 28.3123 31.2875 28.5866L37.0005 33.4293C37.4412 33.8088 37.7142 34.3471 37.76 34.9269C37.7848 35.2139 37.7518 35.5029 37.6632 35.7769C37.5745 36.051 37.4319 36.3045 37.2437 36.5226C36.9677 36.8476 36.6006 37.0824 36.1899 37.1968L32.1963 33.809C31.6246 33.3159 30.8947 33.0447 30.1397 33.0447C29.3848 33.0447 28.6549 33.3159 28.0832 33.809L24.32 37.12C24.1791 37.2433 24.093 37.4176 24.0806 37.6044C24.0682 37.7912 24.1305 37.9753 24.2539 38.1162C24.3772 38.2571 24.5515 38.3432 24.7383 38.3556C24.9252 38.368 25.1093 38.3057 25.2501 38.1824L29.0133 34.8885C29.3262 34.609 29.7309 34.4545 30.1504 34.4545C30.5699 34.4545 30.9747 34.609 31.2875 34.8885L37.0005 39.7269C37.219 39.9137 37.3985 40.1418 37.5288 40.398C37.6591 40.6542 37.7377 40.9336 37.76 41.2202C37.7862 41.5073 37.754 41.7967 37.6653 42.0709C37.5765 42.3452 37.4331 42.5986 37.2437 42.816C37.0574 43.0354 36.8296 43.2158 36.5733 43.3469C36.317 43.4779 36.0374 43.557 35.7504 43.5797C35.4596 43.6083 35.166 43.5769 34.8878 43.4873C34.6097 43.3978 34.3529 43.252 34.1333 43.0592L30.6048 40.0725C30.4706 39.9576 30.298 39.8978 30.1215 39.9049C29.9451 39.912 29.7778 39.9856 29.6533 40.1109L28.5995 41.1605C28.4697 41.2942 28.3971 41.4733 28.3971 41.6597C28.3971 41.8461 28.4697 42.0251 28.5995 42.1589C28.7327 42.2897 28.912 42.363 29.0987 42.363C29.2854 42.363 29.4647 42.2897 29.5979 42.1589L30.1909 41.5658L33.2245 44.1514C33.8764 44.7012 34.7014 45.0034 35.5541 45.0048C35.648 45.0048 35.7504 45.0048 35.8443 45.0048C36.5548 44.9486 37.2326 44.6826 37.7917 44.2405C38.3508 43.7985 38.7659 43.2003 38.9844 42.5219C39.203 41.8435 39.215 41.1154 39.019 40.4302C38.8231 39.7449 38.4279 39.1333 37.8837 38.673L37.3589 38.2464C37.7099 38.0391 38.0242 37.7753 38.2891 37.4656C38.9038 36.7356 39.2041 35.7918 39.1242 34.8408C39.0442 33.8899 38.5905 33.0095 37.8624 32.3925L35.3536 30.2592L36.9152 22.4L38.0501 21.4442C38.7838 20.831 39.2441 19.9517 39.3301 18.9994C39.3688 18.6162 39.3399 18.2292 39.2448 17.856C39.735 17.5587 40.2811 17.3656 40.8491 17.2885C41.0894 17.2564 41.3338 17.278 41.5648 17.3518C41.7957 17.4255 42.0074 17.5497 42.1845 17.7152C42.361 17.8839 42.4962 18.0909 42.5798 18.3203C42.6634 18.5496 42.6931 18.7951 42.6667 19.0378L42.0053 27.2213C41.9647 27.7059 42.0562 28.1925 42.2699 28.6293L43.52 31.2234C44.3 32.8314 44.7176 34.591 44.7434 36.378C44.7692 38.165 44.4025 39.9359 43.6693 41.5658L42.8629 43.3621C42.8246 43.4463 42.8033 43.5373 42.8004 43.6299C42.7974 43.7224 42.8129 43.8146 42.8458 43.9011C42.8787 43.9876 42.9285 44.0667 42.9922 44.1339C43.056 44.201 43.1324 44.2548 43.2171 44.2922C43.31 44.333 43.4101 44.3548 43.5115 44.3562C43.648 44.3568 43.7815 44.3165 43.8948 44.2404C44.0081 44.1643 44.096 44.0561 44.1472 43.9296L44.9579 42.1376C45.7721 40.3216 46.1794 38.3496 46.1514 36.3596C46.1234 34.3697 45.6607 32.4099 44.7957 30.6176L43.52 28.0192ZM34.1333 29.1583L32.192 27.5029C31.9534 27.3006 31.6877 27.1326 31.4027 27.0037L35.1787 23.8378L34.1333 29.1583Z" fill="#FF5F46"/>
<path d="M42.5515 45.7557C42.467 45.7175 42.3757 45.6964 42.283 45.6938C42.1903 45.6911 42.098 45.7069 42.0114 45.7403C41.9249 45.7736 41.8458 45.8239 41.7788 45.888C41.7119 45.9522 41.6583 46.0291 41.6213 46.1141L39.8251 50.1248C39.7865 50.2183 39.7648 50.318 39.7611 50.4192V55.7525C39.7611 55.9392 39.8352 56.1183 39.9673 56.2503C40.0993 56.3823 40.2784 56.4565 40.4651 56.4565C40.6518 56.4565 40.8309 56.3823 40.9629 56.2503C41.0949 56.1183 41.1691 55.9392 41.1691 55.7525V50.5685L42.9099 46.6858C42.9475 46.6013 42.9681 46.5101 42.9705 46.4175C42.9729 46.3249 42.9569 46.2328 42.9236 46.1464C42.8903 46.06 42.8403 45.981 42.7765 45.914C42.7126 45.847 42.6362 45.7932 42.5515 45.7557Z" fill="#FF5F46"/>
<path d="M38.4725 12.7232C38.6593 12.722 38.8382 12.6477 38.9706 12.516C39.1031 12.3843 39.1786 12.2059 39.1808 12.0192V9.03249C39.167 8.85469 39.0866 8.68865 38.9557 8.56754C38.8248 8.44642 38.653 8.37915 38.4747 8.37915C38.2963 8.37915 38.1246 8.44642 37.9937 8.56754C37.8628 8.68865 37.7824 8.85469 37.7685 9.03249V12.0192C37.7674 12.1119 37.7848 12.204 37.8198 12.2899C37.8548 12.3758 37.9066 12.4539 37.9722 12.5195C38.0378 12.5851 38.1159 12.6369 38.2018 12.6719C38.2877 12.7069 38.3798 12.7243 38.4725 12.7232Z" fill="#FF5F46"/>
<path d="M41.472 13.4272C41.5755 13.4834 41.6913 13.5127 41.8091 13.5125C41.934 13.5118 42.0565 13.4788 42.1649 13.4167C42.2733 13.3547 42.3638 13.2657 42.4277 13.1584L43.8741 10.5643C43.9384 10.4849 43.9847 10.3925 44.0097 10.2934C44.0347 10.1944 44.0379 10.0911 44.0189 9.99069C44 9.8903 43.9595 9.79524 43.9001 9.7121C43.8408 9.62895 43.764 9.55972 43.6752 9.50921C43.5864 9.45869 43.4877 9.42811 43.3859 9.41957C43.2841 9.41104 43.1817 9.42476 43.0857 9.45979C42.9898 9.49482 42.9026 9.55031 42.8302 9.62241C42.7579 9.69451 42.702 9.7815 42.6667 9.87733L41.2203 12.4715C41.1283 12.6319 41.1031 12.8221 41.1502 13.0009C41.1973 13.1798 41.3129 13.3329 41.472 13.4272Z" fill="#FF5F46"/>
<path d="M47.4838 13.1924C47.435 13.1128 47.3708 13.0437 47.2949 12.9893C47.219 12.9349 47.133 12.8962 47.042 12.8755C46.9509 12.8548 46.8567 12.8526 46.7647 12.8689C46.6728 12.8852 46.5851 12.9198 46.5067 12.9706L43.9808 14.5364C43.8226 14.635 43.7099 14.7923 43.6675 14.9739C43.6251 15.1555 43.6564 15.3465 43.7547 15.505C43.8181 15.607 43.9068 15.6909 44.0122 15.7485C44.1176 15.8061 44.2362 15.8354 44.3563 15.8335C44.4853 15.8307 44.6115 15.7955 44.7232 15.7311L47.2491 14.161C47.4056 14.0609 47.5169 13.9036 47.5591 13.7227C47.6013 13.5417 47.5712 13.3515 47.4752 13.1924H47.4838Z" fill="#FF5F46"/>
<path d="M20.5654 46.865C19.4679 45.4737 18.7649 43.8129 18.5302 42.0565C18.499 41.8768 18.3998 41.716 18.2531 41.6077C18.1064 41.4993 17.9235 41.4517 17.7426 41.4748C17.5617 41.4979 17.3967 41.5899 17.2819 41.7316C17.1671 41.8734 17.1114 42.0539 17.1264 42.2357C17.393 44.2475 18.1995 46.1495 19.4603 47.7397L22.3616 51.3834V55.697C22.3616 55.8837 22.4358 56.0628 22.5678 56.1948C22.6998 56.3268 22.8789 56.401 23.0656 56.401C23.2523 56.401 23.4314 56.3268 23.5634 56.1948C23.6955 56.0628 23.7696 55.8837 23.7696 55.697V51.1487C23.7643 50.9946 23.7122 50.8458 23.6203 50.7221L20.5654 46.865Z" fill="#FF5F46"/>
</g>
<defs>
<clipPath id="clip0_19_134">
<rect width="64" height="64" fill="white"/>
</clipPath>
</defs>
</svg>
