<?xml version="1.0" encoding="UTF-8"?> <svg xmlns="http://www.w3.org/2000/svg" width="264" height="137" viewBox="0 0 264 137" fill="none"><g clip-path="url(#clip0_705_2924)"><path d="M25.3178 73.1967L42.0723 82.5974L42.6788 75.471L38.0542 70.5053L31.1932 69.3682L25.3178 73.1967Z" fill="#F15A22"></path><path d="M28.1624 40.8247L42.0739 82.5972L55.9854 68.6477L28.1624 40.8247Z" fill="#F58220"></path><path d="M25.8864 62.9241L25.3178 73.1966L46.6968 68.6479L25.8864 62.9241Z" fill="#0057A8"></path><path d="M15.1612 83.5071L17.9283 79.8302L17.4356 75.3573L10.6125 70.9223L0.302032 68.6479L15.1612 83.5071Z" fill="#EF4123"></path><path d="M0.302032 68.6479L17.4356 75.3572L26.6467 42.3411L0.302032 68.6479Z" fill="#F15A22"></path><path d="M15.1588 83.5072L28.1606 96.509L40.3284 84.3032L17.4332 75.3574L15.1588 83.5072Z" fill="#F58220"></path><path d="M220.724 68.9509V70.7325C220.724 73.0448 218.639 74.7885 215.91 74.7885C213.446 74.7885 212.347 73.2722 212.347 71.8318V71.756C212.347 70.4672 213.067 68.913 216.516 68.913H220.724V68.9509ZM216.668 60.3463C214.242 60.3463 212.536 60.9907 211.172 61.673L211.02 61.7488L211.778 63.9473L211.93 63.8715C213.143 63.3029 214.545 62.7343 216.365 62.7343C219.094 62.7343 220.648 63.9852 220.648 66.904H216.213C212.081 66.904 209.693 68.7235 209.693 71.8697V71.9455C209.693 75.2433 212.574 76.9491 215.417 76.9491C218.033 76.9491 219.7 75.7361 220.648 74.561V76.608H223.074V66.904C223.074 64.895 222.543 63.2271 221.482 62.1279C220.459 60.9528 218.791 60.3463 216.668 60.3463ZM74.5203 54.016L71.9048 55.5322V76.608H74.5203V54.016ZM191.043 55.0394H188.352V55.7596V57.8445H191.043V55.0394ZM86.1575 60.3463C84.0726 60.3463 82.4048 61.2181 81.2297 62.9997V60.6874H78.69V76.608H81.2297V67.5105C81.2297 64.7434 83.0113 62.8102 85.5131 62.8102C87.9769 62.8102 89.4553 64.5159 89.4553 67.3589V76.608H91.995V66.7903C91.995 64.895 91.4643 63.3029 90.4408 62.1658C89.4174 60.9907 87.939 60.3463 86.1575 60.3463ZM117.619 68.6477V68.7235C117.619 72.0592 115.345 74.561 112.313 74.561C109.318 74.561 106.968 71.9834 106.968 68.6856V68.6098C106.968 65.2741 109.242 62.7343 112.237 62.7343C115.269 62.7343 117.619 65.3499 117.619 68.6477ZM112.313 60.3463C110.114 60.3463 108.105 61.2181 106.627 62.8102C105.186 64.3643 104.39 66.4491 104.39 68.6477V68.7235C104.39 73.348 107.84 76.9491 112.275 76.9491C114.473 76.9491 116.482 76.0773 117.999 74.4852C119.439 72.9311 120.273 70.8462 120.273 68.6477V68.5719C120.235 63.9853 116.748 60.3463 112.313 60.3463ZM125.883 64.1748V60.6874H123.343V76.608H125.883V70.2397C125.883 65.9943 128.119 63.1513 131.607 63.1513H131.948V60.4221H131.796C129.332 60.3084 127.172 61.7109 125.883 64.1748ZM151.621 60.3463C149.423 60.3463 147.717 61.2939 146.39 63.265C145.405 61.3697 143.737 60.3463 141.576 60.3463C139.188 60.3463 137.823 61.6351 136.952 62.9239V60.6874H134.412V76.608H136.952V67.5484C136.952 64.7813 138.619 62.8102 140.932 62.8102C143.244 62.8102 144.609 64.478 144.609 67.2831V76.608H147.148V67.4726C147.148 66.0701 147.565 64.8571 148.323 64.0232C149.006 63.265 149.991 62.8102 151.09 62.8102C153.441 62.8102 154.767 64.478 154.767 67.3589V76.608H157.307V66.7903C157.307 62.8102 155.146 60.3463 151.621 60.3463ZM185.282 63.0755V60.6874H180.506V55.1531L177.966 56.6315V60.6874H175.199V63.0755H177.966V72.3246C177.966 76.3047 180.695 76.8733 182.325 76.8733C183.349 76.8733 184.22 76.6459 185.092 76.191L185.168 76.1531V73.8029L184.941 73.9166C184.182 74.2957 183.614 74.4473 182.856 74.4473C181.264 74.4473 180.506 73.6513 180.506 72.0213V63.0755H185.282ZM206.433 72.2867C205.069 73.8029 203.628 74.561 201.998 74.561C199.042 74.561 196.691 71.9834 196.691 68.6856V68.6098C196.691 65.312 198.966 62.7343 201.847 62.7343C203.894 62.7343 205.145 63.8336 206.244 65.0466L206.357 65.1982L208.063 63.3408L207.95 63.2271C206.774 61.9004 204.993 60.3842 201.885 60.3842C199.762 60.3842 197.791 61.256 196.312 62.8481C194.872 64.4022 194.076 66.487 194.076 68.6856V68.7614C194.076 70.96 194.872 73.0069 196.312 74.561C197.791 76.1531 199.762 77.0249 201.885 77.0249C205.031 77.0249 206.85 75.395 208.101 73.9545L208.215 73.8408L206.585 72.2109L206.433 72.2867ZM171.067 68.9509V70.7325C171.067 73.0448 168.982 74.7885 166.253 74.7885C163.789 74.7885 162.69 73.2722 162.69 71.8318V71.756C162.69 70.4672 163.41 68.913 166.859 68.913H171.067V68.9509ZM167.011 60.3463C164.585 60.3463 162.879 60.9907 161.515 61.673L161.363 61.7488L162.121 63.9473L162.273 63.8715C163.486 63.3029 164.888 62.7343 166.708 62.7343C169.437 62.7343 170.991 63.9852 170.991 66.904H166.556C162.424 66.904 160.036 68.7235 160.036 71.8697V71.9455C160.036 75.2433 162.917 76.9491 165.76 76.9491C168.376 76.9491 170.044 75.7361 171.029 74.561V76.608H173.455V66.904C173.455 64.895 172.924 63.2271 171.901 62.1279C170.802 60.9528 169.172 60.3463 167.011 60.3463ZM99.1971 59.2091C99.1971 56.9347 99.8036 56.0629 101.585 56.0629C102.268 56.0629 102.836 56.1766 103.708 56.442L103.86 56.4798V54.1297L103.822 54.0918C103.064 53.7885 102.343 53.6748 101.32 53.6748C99.9553 53.6748 98.7802 54.1297 98.022 54.9257C97.1502 55.8355 96.6953 57.2759 96.6953 59.0575V60.6495H93.9282V63.0376H96.6953V76.5701H99.235V63.0376H104.011V60.6495H99.235V59.2091H99.1971ZM190.968 60.6874H188.428V62.3932V76.608H190.968V60.6874ZM224.098 60.6874V60.9907H224.666V62.5448H225.007V60.9907H225.576V60.6874H224.098ZM225.917 62.5448H226.22V61.2181L226.789 62.09L227.357 61.2181V62.5448H227.699V60.6874H227.357L226.789 61.5593L226.22 60.6874H225.879V62.5448H225.917Z" fill="#414042"></path></g><defs><clipPath id="clip0_705_2924"><rect width="264" height="136.082" fill="white"></rect></clipPath></defs></svg> 