<svg width="143" height="36" viewBox="0 0 143 36" fill="none" xmlns="http://www.w3.org/2000/svg">
<path d="M26.4141 0.319794H0.161102V22.2708L13.2876 35.3973V9.03399L26.4141 22.1605V0.319794Z" fill="#7F7F7F"/>
<path d="M26.4141 0.319794H0.161102V22.2708L13.2876 35.3973V9.03399L26.4141 22.1605V0.319794Z" fill="black" fill-opacity="0.2"/>
<path d="M26.4138 22.2707L13.2874 35.3972V9.03391L26.4138 22.2707Z" fill="#999999"/>
<path d="M137.382 2.1958C132.088 2.1958 132.087 6.0557 132.087 10.137C132.087 14.2184 132.088 18.0782 137.382 18.0782C142.677 18.0782 142.678 14.2184 142.678 10.137C142.678 6.0557 142.677 2.1958 137.382 2.1958ZM39.7611 2.5254L35.5686 17.8585H38.6581L39.5414 14.4394H43.9536L44.8348 17.8585H48.2539L44.0635 2.5254H39.7611ZM50.9017 2.5254V17.8585H56.5269C57.8505 17.8585 61.2709 17.6387 61.2709 13.778C61.2709 11.6822 60.7198 10.2482 58.4034 9.9173C60.1683 9.5863 61.0512 8.2609 61.0512 6.496C61.0512 3.1868 59.0656 2.5254 56.6389 2.5254H50.9017ZM65.0218 2.5254V17.8585H67.9992V6.6081H68.1091L72.3016 17.8585H76.4941V2.5254H73.5145V13.1144L69.434 2.5254H65.0218ZM88.848 2.5254L84.6551 17.8585H87.7445L88.628 14.4394H93.04L93.921 17.8585H97.34L93.04 2.5254H88.848ZM99.878 2.5254V17.8585H102.968V6.0565H103.078L105.835 17.8585H108.923L111.902 6.0565V17.8585H114.989V2.5254H110.026L107.49 13.0046L105.062 2.5254H99.878ZM119.182 2.6353V17.8585H122.381V11.4598H123.262C125.689 11.4598 125.581 13.0059 125.581 14.8811C125.581 15.8738 125.469 16.8657 125.91 17.8585H129C128.669 17.1966 128.668 14.3291 128.668 13.3363C128.668 10.5787 126.572 10.3568 125.91 10.3568C128.006 10.0259 128.778 8.5936 128.778 6.6081C128.778 3.9607 127.345 2.6353 125.139 2.6353H119.182ZM137.382 4.6217C139.147 4.6217 139.369 6.2758 139.369 10.2469C139.369 14.2179 139.258 15.8721 137.382 15.8721C135.618 15.8721 135.396 14.2179 135.396 10.2469C135.396 6.2758 135.618 4.6217 137.382 4.6217ZM54.101 4.8414H56.0874C57.1904 4.8414 57.9617 5.7247 57.9617 6.8278C57.9617 8.2618 56.969 8.8142 56.3071 8.8142H54.101V4.8414ZM122.381 4.8414H123.814C124.807 4.8414 125.469 5.3938 125.469 6.8278C125.469 7.8206 125.138 9.0339 123.814 9.0339H122.381V4.8414ZM41.6355 5.505L43.2901 12.1234H40.2028L41.6355 5.505ZM90.722 5.505L92.377 12.1234H89.289L90.722 5.505ZM81.585 6.9571L79.5577 8.9865L81.5872 11.0139L83.6145 8.9844L81.585 6.9571ZM54.101 11.1302H55.9753C57.6299 11.1302 58.0716 12.0127 58.0716 13.3363C58.0716 15.4322 56.5273 15.5425 55.8655 15.5425H54.101V11.1302Z" fill="#7F7F7F"/>
<path d="M137.382 2.1958C132.088 2.1958 132.087 6.0557 132.087 10.137C132.087 14.2184 132.088 18.0782 137.382 18.0782C142.677 18.0782 142.678 14.2184 142.678 10.137C142.678 6.0557 142.677 2.1958 137.382 2.1958ZM39.7611 2.5254L35.5686 17.8585H38.6581L39.5414 14.4394H43.9536L44.8348 17.8585H48.2539L44.0635 2.5254H39.7611ZM50.9017 2.5254V17.8585H56.5269C57.8505 17.8585 61.2709 17.6387 61.2709 13.778C61.2709 11.6822 60.7198 10.2482 58.4034 9.9173C60.1683 9.5863 61.0512 8.2609 61.0512 6.496C61.0512 3.1868 59.0656 2.5254 56.6389 2.5254H50.9017ZM65.0218 2.5254V17.8585H67.9992V6.6081H68.1091L72.3016 17.8585H76.4941V2.5254H73.5145V13.1144L69.434 2.5254H65.0218ZM88.848 2.5254L84.6551 17.8585H87.7445L88.628 14.4394H93.04L93.921 17.8585H97.34L93.04 2.5254H88.848ZM99.878 2.5254V17.8585H102.968V6.0565H103.078L105.835 17.8585H108.923L111.902 6.0565V17.8585H114.989V2.5254H110.026L107.49 13.0046L105.062 2.5254H99.878ZM119.182 2.6353V17.8585H122.381V11.4598H123.262C125.689 11.4598 125.581 13.0059 125.581 14.8811C125.581 15.8738 125.469 16.8657 125.91 17.8585H129C128.669 17.1966 128.668 14.3291 128.668 13.3363C128.668 10.5787 126.572 10.3568 125.91 10.3568C128.006 10.0259 128.778 8.5936 128.778 6.6081C128.778 3.9607 127.345 2.6353 125.139 2.6353H119.182ZM137.382 4.6217C139.147 4.6217 139.369 6.2758 139.369 10.2469C139.369 14.2179 139.258 15.8721 137.382 15.8721C135.618 15.8721 135.396 14.2179 135.396 10.2469C135.396 6.2758 135.618 4.6217 137.382 4.6217ZM54.101 4.8414H56.0874C57.1904 4.8414 57.9617 5.7247 57.9617 6.8278C57.9617 8.2618 56.969 8.8142 56.3071 8.8142H54.101V4.8414ZM122.381 4.8414H123.814C124.807 4.8414 125.469 5.3938 125.469 6.8278C125.469 7.8206 125.138 9.0339 123.814 9.0339H122.381V4.8414ZM41.6355 5.505L43.2901 12.1234H40.2028L41.6355 5.505ZM90.722 5.505L92.377 12.1234H89.289L90.722 5.505ZM81.585 6.9571L79.5577 8.9865L81.5872 11.0139L83.6145 8.9844L81.585 6.9571ZM54.101 11.1302H55.9753C57.6299 11.1302 58.0716 12.0127 58.0716 13.3363C58.0716 15.4322 56.5273 15.5425 55.8655 15.5425H54.101V11.1302Z" fill="black" fill-opacity="0.2"/>
</svg>
