<svg width="173" height="50" viewBox="0 0 173 50" fill="none" xmlns="http://www.w3.org/2000/svg">
<g clip-path="url(#clip0_48_2995)">
<path fill-rule="evenodd" clip-rule="evenodd" d="M68.8661 0.693978C68.0575 0.693978 67.6989 1.17438 67.3988 1.86181C48.5228 45.2378 46.9388 48.6668 46.9388 48.6668H57.6356C59.8618 43.225 59.8618 43.225 59.8618 43.225H75.9779C78.2124 48.6668 78.2124 48.6668 78.2124 48.6668H90.7933C90.7933 48.6668 89.7178 46.4388 70.3333 1.86181C70.0333 1.17438 69.6749 0.693978 68.8661 0.693978ZM63.2634 34.9259C67.9073 23.5705 67.9073 23.5705 67.9073 23.5705C72.5678 34.9259 72.5678 34.9259 72.5678 34.9259H63.2634ZM122.3 26.8754C125.977 24.6886 128.762 20.8703 128.762 15.3955C128.762 11.0968 127.036 7.55188 124.034 5.15846C120.991 2.72324 117.473 1.40616 110.278 1.40616C94.887 1.40616 94.887 1.40616 94.887 1.40616V48.6668H106.259C106.259 31.0744 106.259 31.0744 106.259 31.0744H109.786C113.621 31.0744 115.555 32.5239 117.164 36.3589C118.523 39.6055 119.482 43.457 120.733 48.6668H133.414C131.613 43.3079 130.713 40.7733 129.362 36.9966C127.511 31.8284 125.268 28.6478 122.3 26.8754ZM115.03 21.0775C113.654 22.1293 111.879 22.4606 108.685 22.4606C106.259 22.4606 106.259 22.4606 106.259 22.4606C106.259 22.4606 106.234 9.86296 106.259 9.86296H108.685C112.02 9.86296 113.679 10.2273 115.022 11.2376C116.556 12.3972 117.239 14.1366 117.239 16.1493C117.239 18.3442 116.473 19.9592 115.03 21.0775ZM21.4263 21.4336C2.10869 2.23458 2.10869 2.23458 2.10869 2.23458C1.52509 1.66304 0.941496 1.25726 0.0244141 1.25726V48.6668H9.9543C9.9543 25.9973 9.9543 25.9973 9.9543 25.9973C21.4263 37.3941 21.4263 37.3941 21.4263 37.3941C32.9069 25.9973 32.9069 25.9973 32.9069 25.9973V48.6668H42.8368C42.8368 1.25726 42.8368 1.25726 42.8368 1.25726C41.9197 1.25726 41.3361 1.66304 40.7525 2.23458L21.4263 21.4336ZM168.823 25.0862C163.754 20.299 154.558 19.4788 150.922 16.6629C149.497 15.5613 148.988 13.9378 149.455 12.3889C150.03 10.4675 151.956 9.20854 154.783 9.20854C158.676 9.20854 162.17 10.9727 164.587 13.8302C171.082 7.0799 171.082 7.0799 171.082 7.0799C167.255 3.03807 161.144 0.603027 154.708 0.603027C147.204 0.603027 141.543 4.2059 139.017 9.95391C137.057 14.4182 137.733 19.073 140.142 22.4194C144.803 28.8962 154.641 29.095 158.901 32.4162C160.419 33.6007 161.269 35.5139 160.36 37.5764C159.577 39.3819 157.601 40.6077 154.366 40.6906C149.88 40.7982 145.878 38.711 142.935 35.0585C136.432 41.817 136.432 41.817 136.432 41.817C140.734 46.9936 147.137 49.4868 154.874 49.4868C162.395 49.4868 168.998 46.5796 171.691 40.384C174.05 34.9673 173.2 29.2111 168.823 25.0862Z" fill="#0000A0"/>
</g>
<defs>
<clipPath id="clip0_48_2995">
<rect width="173" height="49.0167" fill="white" transform="translate(0 0.535645)"/>
</clipPath>
</defs>
</svg>
