<svg width="132" height="69" viewBox="0 0 132 69" fill="none" xmlns="http://www.w3.org/2000/svg">
<path d="M45.7867 31.8248H45.8438C47.5203 31.8248 48.7396 33.0827 48.892 34.3217H42.6813C42.7956 33.0827 43.9768 31.8248 45.7867 31.8248ZM45.7676 30.1164C42.8718 30.1164 40.5857 32.388 40.5857 35.2792C40.5857 37.7949 42.5289 40.4045 45.7867 40.4045C46.8154 40.4045 47.787 40.1229 48.5872 39.5784C49.2159 39.1654 49.7493 38.621 50.1494 37.9827C50.2637 37.7949 50.2637 37.5696 50.1684 37.3819C50.0541 37.1941 49.8636 37.0627 49.635 37.0627H48.892C48.6824 37.0627 48.4919 37.1754 48.3776 37.3443C47.8061 38.2267 46.9297 38.6773 45.8057 38.6773C44.3578 38.6773 42.7766 37.7198 42.6432 35.9175H50.3209C50.6447 35.9175 50.9305 35.6547 50.9305 35.3355C50.9495 33.8712 50.4352 32.557 49.4254 31.5432C48.4538 30.6233 47.1583 30.1164 45.7676 30.1164ZM60.7609 35.2041C60.799 36.0865 60.4752 36.9313 59.8465 37.5509C59.2178 38.1704 58.3795 38.5271 57.4841 38.5271C55.3313 38.5271 54.1883 36.875 54.1692 35.2417V35.2229C54.1692 33.3643 55.598 31.9562 57.4841 31.9562C58.3795 31.9562 59.1987 32.2754 59.8084 32.8762C60.418 33.4957 60.7609 34.303 60.7609 35.2041ZM62.0564 26.9436H61.2753C60.9324 26.9436 60.6657 27.2252 60.6657 27.5444V31.7497C60.1894 31.0551 59.0463 30.1164 57.1793 30.1164C54.3216 30.1164 52.1688 32.3129 52.1688 35.2417C52.1688 38.2267 54.2835 40.4045 57.1984 40.4045C59.2178 40.4045 60.2465 39.4095 60.7228 38.6585V39.5033C60.7228 39.8413 60.9896 40.1041 61.3325 40.1041H62.0564C62.3993 40.1041 62.6661 39.8413 62.6661 39.5033V27.5444C62.6661 27.2064 62.3803 26.9436 62.0564 26.9436ZM76.0591 30.1164C75.0494 30.1164 74.1159 30.4731 73.4491 31.149C73.1633 31.4306 72.9728 31.7122 72.8204 31.9938V31.975C72.687 31.7497 72.4774 31.3742 72.2679 31.1677C71.4868 30.3041 70.458 30.1164 69.715 30.1164C68.4005 30.1164 67.3527 30.811 66.8573 31.5432V30.9988C66.8573 30.6608 66.5906 30.398 66.2477 30.398H65.5619C65.2189 30.398 64.9522 30.6608 64.9522 30.9988V39.5221C64.9522 39.86 65.2189 40.1229 65.5619 40.1229H66.3429C66.6859 40.1229 66.9526 39.86 66.9526 39.5221V34.8099C66.9526 34.0214 67.1241 33.383 67.4479 32.8949C67.7908 32.3129 68.4576 31.9938 69.2006 31.9938C70.0008 32.0126 70.5914 32.3129 70.9724 32.9137C71.2582 33.383 71.3725 33.9275 71.3534 34.7723V39.5221C71.3534 39.86 71.6201 40.1229 71.9631 40.1229H72.7632C73.1061 40.1229 73.3729 39.86 73.3729 39.5221V34.7723C73.3729 33.9463 73.43 33.4394 73.811 32.8762C74.154 32.3317 74.8208 31.9938 75.6019 31.9938C76.383 31.9938 76.8973 32.2378 77.2593 32.7447C77.6022 33.1953 77.7737 33.8524 77.7737 34.8286V39.5033C77.7737 39.8413 78.0404 40.1041 78.3833 40.1041H79.1644C79.5074 40.1041 79.7741 39.8413 79.7741 39.5033V34.7535C79.7741 32.8198 79.5074 31.9187 78.6882 31.0926C77.869 30.229 76.6878 30.0976 76.0591 30.1164ZM90.2142 30.3792H89.4331C89.0901 30.3792 88.8234 30.6421 88.8234 30.98V35.8049C88.8234 37.5321 87.909 38.5083 86.2515 38.5271C84.594 38.5271 83.7558 37.5509 83.7558 35.6547V30.9988C83.7558 30.6608 83.4891 30.398 83.1461 30.398H82.365C82.0221 30.398 81.7554 30.6608 81.7554 30.9988V36.0865C81.7554 39.8225 84.2511 40.3857 85.7371 40.4045H85.7943C87.2041 40.4045 88.3281 39.86 88.9187 38.8838V39.5221C88.9187 39.86 89.1854 40.1229 89.5283 40.1229H90.2142C90.5571 40.1229 90.8238 39.86 90.8238 39.5221V30.9988C90.8238 30.6608 90.538 30.3792 90.2142 30.3792ZM98.1585 30.1164C96.7106 30.0976 95.5676 30.6421 94.977 31.6371V30.9988C94.977 30.6608 94.7103 30.398 94.3673 30.398H93.6815C93.3386 30.398 93.0718 30.6608 93.0718 30.9988V39.5221C93.0718 39.86 93.3386 40.1229 93.6815 40.1229H94.4626C94.8055 40.1229 95.0722 39.86 95.0722 39.5221V34.716C95.0722 32.9888 95.9867 32.0126 97.6441 31.9938C98.3871 31.975 98.9777 32.1815 99.3968 32.5945C99.8731 33.0639 100.121 33.8336 100.121 34.8662V39.5221C100.121 39.86 100.388 40.1229 100.73 40.1229H101.531C101.874 40.1229 102.14 39.86 102.14 39.5221V34.4344C102.159 30.6984 99.6445 30.1164 98.1585 30.1164ZM112.409 35.2041C112.447 36.0865 112.123 36.9313 111.494 37.5509C110.866 38.1704 110.027 38.5271 109.132 38.5271C106.979 38.5271 105.836 36.875 105.817 35.2417V35.2229C105.817 33.3643 107.246 31.9562 109.132 31.9562C110.027 31.9562 110.847 32.2754 111.456 32.8762C112.085 33.4957 112.409 34.303 112.409 35.2041ZM113.704 26.9436H112.923C112.58 26.9436 112.314 27.2252 112.314 27.5444V31.7497C111.837 31.0551 110.694 30.1164 108.827 30.1164C105.97 30.1164 103.817 32.3129 103.817 35.2417C103.817 38.2267 105.931 40.4045 108.846 40.4045C110.866 40.4045 111.894 39.4095 112.371 38.6585V39.5033C112.371 39.8413 112.637 40.1041 112.98 40.1041H113.704C114.047 40.1041 114.314 39.8413 114.314 39.5033V27.5444C114.314 27.2064 114.047 26.9436 113.704 26.9436ZM119.991 34.2279L119.953 34.2091C118.962 33.9275 118.296 33.6083 118.258 32.8949C118.258 32.5945 118.353 32.3317 118.562 32.1252C118.81 31.8811 119.153 31.7497 119.572 31.7497H119.61C120.258 31.7497 120.696 32.0501 120.849 32.5945C120.925 32.8574 121.153 33.0451 121.439 33.0451H122.182C122.373 33.0451 122.544 32.9512 122.658 32.8011C122.773 32.6509 122.811 32.4631 122.773 32.2754C122.354 30.6608 120.849 30.0976 119.591 30.0976C117.667 30.0976 116.257 31.3555 116.257 33.0827C116.276 34.6972 117.591 35.298 118.753 35.6359C120.487 36.1991 121.153 36.4995 121.172 37.3819C121.172 38.1328 120.506 38.7336 119.667 38.7336C119.096 38.7336 118.334 38.452 118.105 37.6447C118.029 37.3819 117.8 37.1941 117.515 37.1941H116.714C116.524 37.1941 116.352 37.2692 116.238 37.4194C116.124 37.5696 116.086 37.7574 116.124 37.9451C116.524 39.6348 118.181 40.4045 119.629 40.4045C120.677 40.4045 121.649 40.029 122.296 39.3719C122.868 38.7899 123.173 38.039 123.154 37.1941C123.097 35.0915 121.439 34.6409 119.991 34.2279ZM28.2024 28.07H25.7829C25.2304 28.07 24.7922 28.4267 24.7922 28.8773V30.1727C24.7922 30.2478 24.7922 30.3417 24.8303 30.4168C25.3637 29.7785 26.1639 29.403 27.0021 29.403C27.6308 29.403 28.6596 29.7785 29.174 30.398C29.193 30.3229 29.2121 30.2478 29.2121 30.1727V28.8773C29.193 28.4267 28.7548 28.07 28.2024 28.07Z" fill="#007EE5"/>
<path d="M23.0775 38.8078C22.7917 38.8642 22.5059 38.8829 22.2202 38.9017C21.9344 38.8829 21.6486 38.8642 21.3629 38.8078C19.3053 38.4324 17.705 36.9868 17.0001 35.1469C17.9908 36.2734 19.9912 36.8554 22.2202 36.8741C24.4492 36.8554 26.4305 36.2734 27.4402 35.1469C26.7353 36.9868 25.135 38.4136 23.0775 38.8078ZM15.2855 29.1768V30.4722C15.2855 30.6224 15.3427 30.7539 15.4189 30.8665C14.6378 30.9416 13.8757 31.0542 13.1899 31.1857C13.5709 30.2282 14.352 28.7075 15.3046 27.75C15.476 27.5811 16.1238 27.0178 17.0954 26.8489C17.5717 26.7738 19.2672 26.5297 21.8963 26.5297H22.6012C25.2303 26.5297 26.9258 26.7738 27.4021 26.8489C28.0689 26.9803 28.6976 27.2807 29.1929 27.75C30.1264 28.7075 30.9266 30.247 31.3076 31.1857C29.8216 30.8665 28.107 30.7539 26.2781 30.6975C26.0685 30.6975 25.516 30.6788 25.0017 30.6788H19.6673C19.6864 30.6037 19.7054 30.5286 19.7054 30.4535V29.1581C19.7054 28.7075 19.2672 28.3508 18.7147 28.3508H16.2952C15.7428 28.3883 15.2855 28.745 15.2855 29.1768ZM30.2598 37.5875C29.4787 37.5125 28.8691 36.8929 28.7929 36.1232C28.6976 35.222 29.3644 34.4335 30.2598 34.3397C30.3741 34.3209 30.4884 34.3209 30.6027 34.3397C31.3838 34.4148 31.9935 35.0343 32.0697 35.804C32.1649 36.7052 31.4981 37.4937 30.6027 37.5875C30.4694 37.5875 30.3741 37.5875 30.2598 37.5875ZM13.8757 37.5875C13.0946 37.5125 12.485 36.8929 12.4088 36.1232C12.3135 35.222 12.9803 34.4335 13.8757 34.3397C13.99 34.3209 14.1043 34.3209 14.2187 34.3397C15.1331 34.4523 15.7618 35.2784 15.6475 36.1795C15.5332 37.0243 14.7521 37.6439 13.8757 37.5875ZM35.5751 30.2657C35.556 29.8903 35.2322 29.5899 34.8511 29.6086L33.308 29.6462C32.9651 29.665 32.6793 29.909 32.6412 30.247C32.6412 30.3221 32.6222 30.3971 32.6031 30.4722L32.4316 30.1343C31.8029 28.9891 30.9456 27.5998 30.0883 26.7362C30.0883 26.7362 29.3263 25.8163 27.8212 25.5159C26.5067 25.2343 24.3539 25.1592 22.2392 25.178C20.1245 25.1592 17.9908 25.2343 16.6572 25.5159C15.1522 25.8163 14.3901 26.7362 14.3901 26.7362C13.5328 27.5998 12.6755 28.9891 12.0468 30.1343L11.8563 30.5098C11.8373 30.4159 11.8182 30.3408 11.7991 30.247C11.761 29.909 11.4753 29.665 11.1324 29.6462L9.5892 29.6086C9.20818 29.5899 8.88431 29.8903 8.86526 30.2657L8.84621 30.9979C8.82716 31.3734 9.13198 31.6925 9.513 31.7113L11.1514 31.8991L11.1705 31.8615L11.1324 31.9366C10.5989 32.5561 10.256 33.2696 10.1607 33.8328C9.98928 34.4335 9.89402 35.1845 9.89402 36.1607C9.89402 37.55 10.275 39.4462 10.3703 40.3849V41.7741C10.3703 42.4688 10.9418 43.0132 11.6277 43.0132H13.3423C14.0472 43.0132 14.5997 42.45 14.5997 41.7741V40.7416C16.3905 40.5726 19.3053 40.5163 22.2392 40.5163C25.1731 40.5163 28.088 40.5726 29.8788 40.7416V41.7741C29.8788 42.4688 30.4503 43.0132 31.1362 43.0132H32.8508C33.5557 43.0132 34.1081 42.45 34.1081 41.7741V40.3849C34.2034 39.4649 34.5844 37.55 34.5844 36.1607C34.5844 34.0017 33.7652 32.481 33.3461 31.9366L33.327 31.8803L34.9273 31.6925C35.3084 31.6738 35.6132 31.3546 35.5941 30.9791C35.5941 31.0167 35.5751 30.2657 35.5751 30.2657Z" fill="#007EE5"/>
</svg>
