<?xml version="1.0" encoding="UTF-8"?> <svg xmlns="http://www.w3.org/2000/svg" xmlns:xlink="http://www.w3.org/1999/xlink" xmlns:v="https://vecta.io/nano" width="194" height="100" fill="none"><style><![CDATA[.B{fill:#7f7f7f}.C{fill:#000}.D{fill-opacity:.2}]]></style><use xlink:href="#B" class="B"></use><use xlink:href="#B" class="C D"></use><use xlink:href="#C" class="B"></use><use xlink:href="#C" class="C D"></use><use xlink:href="#D" class="B"></use><use xlink:href="#D" class="C D"></use><use xlink:href="#E" class="B"></use><use xlink:href="#E" class="C D"></use><use xlink:href="#F" class="B"></use><use xlink:href="#F" class="C D"></use><path d="M158.999 37.183h-36.152v-5.271h36.152v5.271z" class="B"></path><path d="M158.999 37.183h-36.152v-5.271h36.152v5.271z" class="C D"></path><path d="M159 23.353h-23.806v-5.271H159v5.271z" class="B"></path><path d="M159 23.353h-23.806v-5.271H159v5.271z" class="C D"></path><path d="M159 30.267h-46.493v-5.269H159v5.269z" class="B"></path><path d="M159 30.267h-46.493v-5.269H159v5.269z" class="C D"></path><defs><path id="B" d="M45.029 68.763c-3.139 0-5.026-2.709-5.026-6.912 0-3.615 1.426-6.912 5.373-6.912 3.801 0 5.443 3.097 5.443 6.712 0 4.144-1.47 7.113-5.789 7.113zm10.57-25.544h-8.05v3.515h3.038v8.291h-.086c-.993-2.187-3.296-3.746-6.507-3.746-5.474 0-9.232 3.802-9.232 10.77 0 5.588 2.895 10.369 9 10.369 3.412 0 5.56-1.31 7.113-4.045h.086v3.498h7.662v-3.514h-3.025v-25.14z"></path><path id="C" d="M63.388 59.906c0-3.023 2.073-5.111 5.14-5.111 3.269 0 4.968 1.988 5.04 5.111h-10.18zm14.866-1.071c-.887-4.716-4.427-7.555-9.469-7.555-6.392 0-10.638 4.019-10.638 10.399 0 6.637 3.873 10.74 10.726 10.74 4.465 0 8.798-1.9 9.476-6.769 0 0-4.81 0-4.81.001-.699 1.984-2.366 3.113-4.816 3.224l-.152-.004c-3.306-.15-5.183-2.153-5.183-5.596H78.58c0-1.443-.046-2.951-.325-4.441"></path><path id="D" d="M102.348 51.828H92.021v3.515h3.213l-4.867 12.295-4.721-12.295h3.208v-3.515H78.084v3.515h2.246l6.798 16.529h6.047l6.925-16.529h2.249v-3.515z"></path><path id="E" d="M112.162 68.763c-3.931 0-5.456-3.428-5.456-6.912s1.525-6.913 5.456-6.913 5.402 3.427 5.402 6.913-1.47 6.912-5.402 6.912zm0-17.483c-6.364 0-10.698 3.933-10.698 10.571s4.334 10.569 10.698 10.569 10.642-3.931 10.642-10.568-4.279-10.571-10.642-10.571z"></path><path id="F" d="M144.531 68.358v-9.389c0-4.967-1.931-7.69-7.14-7.69-2.912 0-5.546 1.458-6.783 4.019h-.088v-3.471h-7.674v3.515h3.011v13.015h-3.011v3.514h10.887v-3.514h-2.867v-7.731c0-2.894 1.441-5.689 4.779-5.689 2.707 0 3.874 1.988 3.874 4.422v8.998h-2.865v3.514h10.886v-3.514h-3.009z"></path></defs></svg> 