<?xml version="1.0" encoding="UTF-8"?> <svg xmlns="http://www.w3.org/2000/svg" xmlns:xlink="http://www.w3.org/1999/xlink" xmlns:v="https://vecta.io/nano" width="194" height="100" fill="none"><style><![CDATA[.B{fill:#7f7f7f}.C{fill:#000}.D{fill-opacity:.2}]]></style><g fill-rule="evenodd"><use xlink:href="#B" class="B"></use><use xlink:href="#B" class="C D"></use><use xlink:href="#C" class="B"></use><use xlink:href="#C" class="C D"></use><use xlink:href="#D" class="B"></use><use xlink:href="#D" class="C D"></use><use xlink:href="#E" class="B"></use><use xlink:href="#E" class="C D"></use><use xlink:href="#F" class="B"></use><use xlink:href="#F" class="C D"></use><use xlink:href="#G" class="B"></use><use xlink:href="#G" class="C D"></use><use xlink:href="#H" class="B"></use><use xlink:href="#H" class="C D"></use><use xlink:href="#I" class="B"></use><use xlink:href="#I" class="C D"></use><use xlink:href="#J" class="B"></use><use xlink:href="#J" class="C D"></use><use xlink:href="#K" class="B"></use><use xlink:href="#K" class="C D"></use><use xlink:href="#L" class="B"></use><use xlink:href="#L" class="C D"></use><use xlink:href="#M" class="B"></use><use xlink:href="#M" class="C D"></use><use xlink:href="#N" class="B"></use><use xlink:href="#N" class="C D"></use></g><defs><path id="B" d="M108.848 24.44c.896 1.806.369 4.179-.564 5.802l-7.242 16.29-.062.073-2.618-16.522c-.209-1.585 1.488-2.263 2.484-3.025-.05-.234-.309-.221-.468-.332l-2.448-.025-.073-.073c.011-2.054 1.119-3.946 2.989-4.942 1.954-1.131 4.708-.823 6.403.628.689.614 1.267 1.326 1.599 2.127z"></path><path id="C" d="M95.509 23.874c.589 1.094.935 2.336.725 3.712l-2.95 18.922c.011.025-.013.05-.037.061l-.764-1.524-7.401-16.524c-.687-2.127-.048-4.351 1.501-5.877 1.561-1.585 4.131-2.015 6.171-1.154a6.14 6.14 0 0 1 2.754 2.384z"></path><path id="D" d="M119.556 31.841c.996 1.697.775 4.267-.332 5.841-.688 1.106-1.82 1.658-2.778 2.384l-15.33 10.524h-.037l.171-.505 8.127-18.342c1.217-2.165 3.539-3.257 6-2.927 1.683.309 3.367 1.403 4.179 3.025z"></path><path id="E" d="M84.728 31.743l8.459 18.847h-.136L75.998 38.835a5.62 5.62 0 0 1-1.856-5.864c.443-1.658 1.82-3.207 3.455-3.822 2.68-.985 5.705.059 7.131 2.593z"></path><path id="F" d="M124.007 45.143c.848 1.795.516 4.254-.701 5.778-1.205 1.464-2.816 2.263-4.71 2.213l-18.181.013 15.231-10.599c1.489-.958 3.75-1.13 5.372-.355 1.256.491 2.436 1.72 2.989 2.95z"></path><path id="G" d="M70.171 45.143c-.848 1.795-.516 4.254.701 5.778 1.205 1.464 2.816 2.263 4.708 2.213l18.185.013-15.233-10.599c-1.487-.958-3.751-1.13-5.374-.355-1.253.491-2.434 1.72-2.987 2.95z"></path><path id="H" d="M64.594 77.899c-3.862 0-7.005-3.143-7.005-7.004s3.142-7.001 7.005-7.001 7.005 3.142 7.005 7.001-3.142 7.004-7.005 7.004zm0-15.724a8.73 8.73 0 0 0-8.719 8.72c0 4.808 3.911 8.722 8.719 8.722s8.719-3.915 8.719-8.722a8.73 8.73 0 0 0-8.719-8.72z"></path><path id="I" d="M139.777 71.007l-3.723-1.924c-1.492-.76-2.022-1.437-2.022-2.58 0-1.585 1.303-2.611 3.323-2.611 1.187 0 2.334.522 3.005.9.123.068.267.104.417.104a.86.86 0 0 0 .857-.857c0-.317-.173-.594-.429-.742-.847-.472-2.292-1.121-3.85-1.121-2.967 0-5.04 1.78-5.04 4.327 0 2.289 1.504 3.368 2.976 4.12l3.722 1.921c1.136.595 1.764 1.488 1.764 2.515 0 1.378-1.165 2.841-3.326 2.841-2.098 0-3.73-1.408-4.181-1.841l-.133-.129-1.27 1.156.15.148c.563.56 2.622 2.384 5.434 2.384 3.155 0 5.041-2.318 5.041-4.558 0-1.673-.989-3.151-2.715-4.052z"></path><path id="J" d="M46.718 63.894a6.96 6.96 0 0 1 4.953 2.049c.314.313.904.313 1.213 0 .164-.159.251-.375.251-.605a.84.84 0 0 0-.251-.605l-.104-.108a8.68 8.68 0 0 0-6.062-2.447A8.73 8.73 0 0 0 38 70.895c0 4.808 3.91 8.722 8.718 8.722 2.538 0 4.824-1.089 6.417-2.825l-1.213-1.215c-1.284 1.425-3.14 2.322-5.204 2.322-3.861 0-7.004-3.142-7.004-7.003s3.142-7.001 7.004-7.001z"></path><path id="K" d="M105.826 63.894a6.96 6.96 0 0 1 4.952 2.049c.314.312.904.312 1.213 0 .164-.16.254-.375.254-.605a.84.84 0 0 0-.254-.605l-.103-.108c-1.636-1.579-3.787-2.447-6.062-2.447a8.73 8.73 0 0 0-8.719 8.719c0 4.809 3.911 8.722 8.719 8.722a8.69 8.69 0 0 0 6.417-2.826l-1.214-1.215c-1.283 1.425-3.139 2.322-5.203 2.322-3.862 0-7.005-3.142-7.005-7.004s3.143-7.001 7.005-7.001z"></path><path id="L" d="M91.056 62.176c-.322 0-.576.208-.714.476s-5.131 12.611-5.131 12.611L80.08 62.652c-.14-.269-.392-.476-.716-.476-.376 0-.659.275-.758.625s-2.915 15.886-2.915 15.886a.81.81 0 0 0-.015.156c0 .427.349.774.775.774.376 0 .692-.27.759-.626l2.438-13.29 4.842 11.9c.139.275.393.49.721.49s.582-.214.72-.49 4.842-11.9 4.842-11.9l2.535 13.819h1.572l-3.065-16.719c-.101-.35-.384-.625-.759-.625z"></path><path id="M" d="M119.465 71.377l2.592-6.376 2.596 6.376h-5.188zm2.592-9.202c-.326 0-.577.212-.72.489s-6.458 15.877-6.458 15.877a.8.8 0 0 0-.059.302c0 .428.347.775.774.775.325 0 .605-.204.719-.492l2.453-6.032h6.585l2.615 6.427h1.671l-6.86-16.856c-.139-.277-.393-.489-.72-.489z"></path><path id="N" d="M156 63.127a.86.86 0 0 0-.858-.858h-9.709c-.473 0-.857.383-.857.858s.384.857.857.857h4.07V79.52h1.571V63.983h4.068a.86.86 0 0 0 .858-.857z"></path></defs></svg> 