<svg width="170" height="29" viewBox="0 0 170 29" fill="none" xmlns="http://www.w3.org/2000/svg">
<path fill-rule="evenodd" clip-rule="evenodd" d="M152.121 2.21486C152.785 2.88912 152.785 3.98386 152.121 4.65812L142.434 14.5015L152.122 24.3397C152.442 24.6651 152.622 25.1052 152.622 25.5639C152.622 26.0225 152.442 26.4626 152.122 26.788L149.945 29L136.825 15.6752C136.518 15.3634 136.346 14.9419 136.346 14.5025C136.346 14.0632 136.518 13.6417 136.825 13.3299L149.941 0.00144496L152.121 2.21486ZM169.549 13.3922C169.838 13.6861 170 14.0836 170 14.4978C170 14.9121 169.838 15.3095 169.549 15.6035L156.367 28.9993L154.091 26.6873C153.797 26.3885 153.632 25.9845 153.632 25.5635C153.632 25.1425 153.797 24.7385 154.091 24.4397L163.874 14.4985L154.174 4.64724C153.857 4.32524 153.68 3.88989 153.68 3.43613C153.68 2.98238 153.857 2.54703 154.174 2.22502L156.363 0L169.549 13.3922ZM131.605 22.7665V22.9122H131.197V23.9947H131.032V22.9122H130.624V22.7658H131.605V22.7665ZM131.752 22.7665H131.986L132.334 23.8046L132.68 22.7657H132.913V23.9946H132.757V23.2696C132.757 23.2443 132.757 23.2029 132.758 23.1449C132.759 23.087 132.76 23.0246 132.76 22.9579L132.414 23.9946H132.252L131.903 22.9579V22.9955C131.903 23.0261 131.904 23.0717 131.906 23.1332L131.908 23.2694V23.9944H131.752V22.7655V22.7665ZM123.133 21.2882C125.895 21.2882 127.789 19.0501 127.789 16.0863C127.789 13.1544 125.895 10.9163 123.133 10.9163C120.403 10.9163 118.51 13.2175 118.51 16.1494C118.51 19.0494 120.403 21.2882 123.133 21.2882ZM123.91 24.252C121.52 24.252 119.502 23.0536 118.447 20.7524V24.0004H115.344V2.53025L118.447 1.89949V11.4521C119.502 9.15022 121.52 7.95251 123.91 7.95251C127.912 7.95251 131.109 11.0736 131.109 16.1182C131.109 21.1309 127.913 24.252 123.91 24.252H123.91ZM99.2503 17.4732V8.20481H102.353V17.7255C102.353 19.8063 103.657 21.2251 105.829 21.2251C108.001 21.2251 109.305 19.807 109.305 17.7255V8.20481H112.408V17.4732C112.408 21.7928 109.77 24.2201 105.829 24.2201C101.888 24.2201 99.2503 21.7928 99.2503 17.4732ZM97.0748 24.2201C93.8785 24.3462 92.1096 22.6439 92.1096 18.8297V2.53025L95.2126 1.89949V18.8297C95.2126 20.3428 96.0196 21.0359 97.1364 21.0359H97.9434V24.1258C97.6582 24.1883 97.3673 24.2198 97.0755 24.22L97.0748 24.2201ZM76.7444 16.0863C76.7444 11.0736 80.1587 7.95251 84.9065 7.95251C87.1409 7.95251 89.1271 8.67753 90.6478 10.2225L88.7541 12.5867C87.5756 11.389 86.179 10.9163 84.9374 10.9163C82.0825 10.9163 80.0648 12.6498 80.0648 16.0551C80.0648 19.4605 82.0825 21.257 84.9374 21.257C86.1783 21.257 87.5756 20.7524 88.7857 19.4916L90.6786 21.8247C89.1579 23.3689 87.2026 24.2201 84.9065 24.2201C80.1888 24.2201 76.7444 21.099 76.7444 16.0863ZM58.312 22.5497L59.7086 19.6808C60.7329 20.437 62.5634 21.2882 63.96 21.2882C65.698 21.2882 66.3809 20.437 66.3809 19.5228C66.4117 18.4513 65.5431 18.0409 63.7118 17.4421C60.6396 16.4966 58.9016 15.3932 58.9016 12.4925C58.9016 9.84404 60.8885 7.95251 64.4879 7.95251C66.35 7.95251 68.0565 8.55138 69.4222 9.52867L68.0256 12.1459C67.2187 11.6413 65.8529 10.8844 64.3323 10.8844C62.9981 10.8844 62.1911 11.4209 62.1911 12.4606C62.1911 13.3117 62.7807 13.8794 64.7361 14.4783C68.0572 15.4874 69.7012 16.7482 69.7012 19.3966C69.7012 22.3916 67.3119 24.2201 63.9916 24.2201C61.7249 24.2201 59.5536 23.4639 58.312 22.5497ZM56.0747 3.66487H59.4259L57.4713 9.87595H54.8955L56.0747 3.66487ZM44.4029 23.9685H41.2991V14.384C41.2991 12.3975 40.2748 10.8844 38.1961 10.8844C35.9302 10.8844 34.3478 12.9021 34.3478 15.4874V23.9685H31.244V8.20481H34.3478V11.0106C35.2788 9.02407 36.9853 7.92134 38.9715 7.92134C41.0517 7.92134 42.7581 9.0248 43.6884 10.9156C44.9925 8.83485 46.7298 7.92134 48.8099 7.92134C52.0679 7.92134 54.4572 10.4117 54.4572 14.4152V23.9685H51.3542V14.384C51.3542 12.3975 50.3299 10.8844 48.2505 10.8844C45.9852 10.8844 44.4029 12.9021 44.4029 15.4874V23.9685ZM20.5441 10.9163C17.7825 10.9163 15.8889 13.1544 15.8889 16.1182C15.8889 19.0501 17.7825 21.2882 20.5441 21.2882C23.2756 21.2882 25.1685 18.987 25.1685 16.0551C25.1685 13.1551 23.2749 10.9163 20.5441 10.9163ZM25.2302 20.7524C24.1758 23.0543 22.158 24.252 19.7687 24.252C15.7655 24.252 12.5685 21.1309 12.5685 16.0863C12.5685 11.0736 15.7655 7.95251 19.7687 7.95251C22.158 7.95251 24.1751 9.15022 25.2302 11.4521V8.20481H28.334V23.9678H25.2302V20.7524ZM0.000706772 22.5497L1.39729 19.6808C2.42159 20.437 4.25213 21.2882 5.64871 21.2882C7.38673 21.2882 8.0696 20.437 8.0696 19.5228C8.10044 18.4513 7.23178 18.0409 5.40125 17.4421C2.32762 16.4966 0.589608 15.3932 0.589608 12.4925C0.589608 9.84404 2.57652 7.95251 6.17593 7.95251C8.03803 7.95251 9.74449 8.55138 11.1102 9.52867L9.71365 12.1459C8.90667 11.6413 7.54095 10.8844 6.02027 10.8844C4.68611 10.8844 3.87913 11.4209 3.87913 12.4606C3.87913 13.3117 4.46876 13.8794 6.4241 14.4783C9.74519 15.4874 11.3892 16.7482 11.3892 19.3966C11.3892 22.3916 8.99993 24.2201 5.67955 24.2201C3.41361 24.2201 1.24164 23.4639 0 22.5497H0.000706772Z" fill="#666666"/>
</svg>
