<svg width="323" height="43" viewBox="0 0 323 43" fill="none" xmlns="http://www.w3.org/2000/svg">
<path d="M219.275 18.6161H196.556L200.24 12.3047C201.774 9.6893 203.156 8.7653 205.459 8.7653C207.762 8.7653 208.53 10.6117 207.302 12.9202H230.482L232.786 8.7653C234.474 5.68633 234.474 2.29883 230.329 2.29883H189.495C185.811 2.29883 182.893 2.76083 180.744 6.30181L173.529 18.6161C171.534 22.1571 171.687 25.0826 176.599 25.0826H200.087L196.25 31.8545C195.175 33.7025 193.793 34.9334 190.569 34.9334C187.805 34.9334 187.96 33.087 189.187 31.2405H166.16L163.396 35.859C161.707 38.7845 163.09 41.4015 167.08 41.4015H207.607C211.291 41.4015 214.515 39.7085 216.358 36.6295L223.265 25.0842C224.802 22.1571 224.034 18.6161 219.275 18.6161Z" fill="black"/>
<path d="M317.9 9.90527C316.026 9.90527 314.507 11.3821 314.507 13.1863C314.507 15.028 316.026 16.5049 317.9 16.5049C319.765 16.5049 321.275 15.028 321.275 13.1863C321.275 11.3821 319.765 9.90527 317.9 9.90527ZM317.9 15.8596C316.371 15.8596 315.15 14.6913 315.15 13.1847C315.15 11.7267 316.37 10.5489 317.9 10.5489C319.411 10.5489 320.632 11.7267 320.632 13.1847C320.632 14.6913 319.411 15.8596 317.9 15.8596Z" fill="black"/>
<path d="M166.928 2.29883H132.233C127.474 2.29883 121.333 2.29883 117.649 8.7653L102.297 34.9334C100.148 38.4744 101.991 41.3999 105.981 41.3999H146.356C150.501 41.3999 153.111 40.1674 156.335 34.9334L171.687 8.7653C173.682 5.37937 170.611 2.29883 166.928 2.29883ZM147.431 12.3047L135.919 31.8545C134.384 34.6265 133.002 34.9334 129.47 34.9334C125.939 34.9334 125.018 33.7025 126.094 31.8545L137.76 12.3047C139.45 9.37921 141.445 8.7653 144.362 8.7653C147.279 8.7653 148.966 9.6893 147.431 12.3047Z" fill="black"/>
<path d="M106.136 2.29883H61.6168L42.4286 34.9334H0.0588379L0.0799708 41.3999H85.5653C91.2455 41.3999 93.0869 38.6279 94.316 36.4729L98.9202 28.4685C100.149 26.3136 100.149 23.8501 97.6926 22.4656C100.154 22.4656 103.526 20.7727 105.522 17.2317L110.128 9.38078C112.431 5.53285 109.667 2.29883 106.136 2.29883ZM83.2632 28.6236L80.9596 32.3165C80.3458 33.549 79.2713 34.9334 76.6615 34.9334H65.3011L71.139 25.0826H82.1871C84.1831 25.0826 84.1831 26.929 83.2632 28.6236ZM92.9338 12.3047L90.6302 15.9992C90.0164 17.2317 88.9419 18.6161 86.3321 18.6161H74.9717L80.805 8.7653H91.8577C93.8553 8.7653 93.8553 10.6117 92.9338 12.3047Z" fill="black"/>
<path d="M319.634 12.3269C319.634 12.0184 319.495 11.6911 319.215 11.5329C318.925 11.3732 318.608 11.356 318.292 11.356H316.641V15.0473H317.201V13.3449H317.861L318.942 15.0457H319.585L318.439 13.3449C319.112 13.3277 319.634 13.0552 319.634 12.3269ZM317.816 12.8876H317.201V11.7757H318.178C318.655 11.7757 319.073 11.8399 319.073 12.3175C319.075 12.9816 318.347 12.8876 317.816 12.8876Z" fill="black"/>
<path d="M262.959 8.76188H320.527L320.509 2.29541H243.771L220.897 41.3965H274.32L278.157 34.93H247.608L253.442 25.0792H283.99L287.675 18.6127H257.281L262.959 8.76188Z" fill="black"/>
</svg>
