<svg width="179" height="64" viewBox="0 0 179 64" fill="none" xmlns="http://www.w3.org/2000/svg">
<path fill-rule="evenodd" clip-rule="evenodd" d="M171.869 1.99888C169.667 1.99888 167.874 3.79023 167.874 5.99449C167.874 8.19876 169.665 9.99225 171.869 9.99225C174.076 9.99225 175.867 8.19876 175.867 5.99449C175.867 3.79234 174.076 1.99888 171.869 1.99888ZM170.872 0C174.734 0 177.866 3.12961 177.866 6.99397C177.866 10.8583 174.732 13.99 170.872 13.99C167.008 13.99 163.876 10.8562 163.876 6.99397C163.876 3.12961 167.01 0 170.872 0ZM157.882 63.9513V0H151.563L139.896 10.2463V17.5516L151.563 7.12734V63.9513H157.882ZM126.67 59.2379C131.35 54.7023 131.9 48.7416 131.9 42.4274C131.9 36.4689 131.259 30.0636 126.486 25.4391C123.918 22.949 120.062 21.4371 115.2 21.4371C110.061 21.4371 106.021 23.0379 103.452 25.7948V5.69382H130.526V0H97.4875V33.2652H103.452C104.738 29.53 108.591 27.0398 114.281 27.0398C123.733 27.0398 125.292 34.6881 125.292 42.4274C125.292 46.963 125.11 52.0343 121.713 55.3227C119.786 57.1924 116.852 58.2596 113.639 58.2596C106.758 58.2596 103.361 54.7023 102.536 48.388H95.9291C96.2933 52.9236 97.6717 56.5699 100.515 59.4157C103.361 62.1726 107.948 63.9513 113.639 63.9513C119.42 63.9513 123.642 62.1727 126.67 59.2379ZM75.9425 63.9513H85.9368V53.959H75.9425V63.9534V63.9513ZM63.9513 54.4841L36.8013 54.4821V43.2172L59.2675 0H15.9868C23.5249 2.4139 28.9625 8.59686 28.9625 17.433C28.9625 24.3846 24.8547 28.6809 21.4985 30.9677C25.1363 33.3456 29.8942 37.6441 29.8942 45.5993C29.8942 55.2676 24.3041 61.5395 16.4081 63.9513H63.9513V54.4841ZM8.99281 53.959C14.0387 53.959 17.9856 50.0333 17.9856 45.0107C17.9856 39.9923 14.0387 35.9734 8.99281 35.9734C3.94692 35.9734 0 39.9902 0 45.0107C0 50.0333 3.94692 53.959 8.99281 53.959ZM10.0388 25.9811C14.6443 25.9811 17.9856 22.6059 17.9856 17.9877C17.9856 13.4564 14.6443 9.99225 10.0388 9.99225C5.43126 9.99225 1.99888 13.4585 1.99888 17.9877C1.99888 22.6038 5.42914 25.9811 10.0388 25.9811ZM72.1077 0H79.9402V43.9668H75.1611V31.5924H63.6633V43.9668H49.9634L72.1077 0Z" fill="black"/>
</svg>
