<svg width="67" height="14" viewBox="0 0 67 14" fill="none" xmlns="http://www.w3.org/2000/svg">
<path d="M3.93015 8.32743C4.25963 8.67382 4.25963 9.19341 3.93015 9.5398L3.64185 9.84289C3.31236 10.1893 2.81813 10.1893 2.48865 9.84289L0.635297 7.89444C0.305812 7.54805 0.305812 7.02846 0.635297 6.68207L0.923596 6.37897C1.25308 6.03258 1.74731 6.03258 2.07679 6.37897L3.93015 8.32743ZM3.72422 4.60372C3.39473 4.25732 2.90051 4.25732 2.57102 4.60372L2.28272 4.90681C1.95324 5.2532 1.95324 5.77279 2.28272 6.11918L4.13607 8.06763C4.46556 8.41403 4.95979 8.41403 5.28927 8.06763L5.57757 7.76454C5.90705 7.41815 5.90705 6.89856 5.57757 6.55217L3.72422 4.60372ZM8.66649 6.33567C8.33701 5.98928 7.84278 5.98928 7.51329 6.33567L7.22499 6.63877C6.89551 6.98516 6.89551 7.50475 7.22499 7.85114L9.07835 9.79959C9.40783 10.146 9.90206 10.146 10.2315 9.79959L10.5198 9.4965C10.8493 9.15011 10.8493 8.63052 10.5198 8.28413L8.66649 6.33567ZM10.3551 4.56042C10.0256 4.21403 9.53139 4.21403 9.2019 4.56042L8.9136 4.86351C8.58412 5.2099 8.58412 5.72949 8.9136 6.07588L10.767 8.02433C11.0964 8.37073 11.5907 8.37073 11.9202 8.02433L12.2085 7.72124C12.5379 7.37485 12.5379 6.85526 12.2085 6.50887L10.3551 4.56042ZM7.26618 2.65526C7.59566 2.30887 7.59566 1.78928 7.26618 1.44289L6.97788 1.1398C6.6484 0.793407 6.15417 0.793407 5.82468 1.1398L3.97133 3.08825C3.64185 3.43464 3.64185 3.95423 3.97133 4.30062L4.25963 4.60372C4.58912 4.95011 5.08334 4.95011 5.41283 4.60372L7.26618 2.65526ZM8.9136 4.38722C9.24309 4.04083 9.24309 3.52124 8.9136 3.17485L8.62531 2.87176C8.29582 2.52537 7.80159 2.52537 7.47211 2.87176L5.61876 4.82021C5.28927 5.1666 5.28927 5.68619 5.61876 6.03258L5.90705 6.33567C6.23654 6.68207 6.73077 6.68207 7.06025 6.33567L8.9136 4.38722ZM7.26618 9.4965C7.59566 9.15011 7.59566 8.63052 7.26618 8.28413L6.97788 7.98104C6.6484 7.63464 6.15417 7.63464 5.82468 7.98104L3.97133 9.92949C3.64185 10.2759 3.64185 10.7955 3.97133 11.1419L4.25963 11.445C4.58912 11.7913 5.08334 11.7913 5.41283 11.445L7.26618 9.4965ZM8.9136 11.2285C9.24309 10.8821 9.24309 10.3625 8.9136 10.0161L8.62531 9.71299C8.29582 9.3666 7.80159 9.3666 7.47211 9.71299L5.65994 11.7047C5.33046 12.0511 5.33046 12.5707 5.65994 12.9171L5.94824 13.2202C6.27773 13.5666 6.77195 13.5666 7.10144 13.2202L8.9136 11.2285ZM22.4225 9.5398C22.4637 9.6264 22.7108 10.0161 22.7108 10.0161C22.5872 10.6223 22.2166 11.445 22.2166 11.445L22.1754 11.4883C20.8162 12.0511 18.6746 12.5274 16.4094 11.5749C15.0503 11.012 14.0618 9.88619 13.6911 8.41402C13.2793 6.89856 13.5676 5.2532 14.4737 3.95423C15.4621 2.56866 17.0272 1.78928 19.1688 1.65939C19.9925 1.61609 21.64 1.83258 22.546 2.39547H22.6284C22.6284 2.39547 22.6696 4.77691 22.6284 4.86351L22.5872 4.99341L21.9283 5.03671L21.8871 4.77691C21.7635 4.08413 21.4752 2.26557 19.0453 2.39547C18.0156 2.43877 17.1507 3.00165 16.5329 3.86763C15.7504 4.95011 15.5445 6.37897 15.874 8.02433C16.2035 9.5831 17.3567 10.579 18.2215 10.9687C18.5922 11.0986 19.7454 11.4017 20.6103 10.9687C21.3517 10.579 22.093 9.97279 22.4225 9.5398ZM30.742 12.0511V3.86763C30.742 3.60784 30.742 3.17485 30.4949 2.87176C30.4537 2.82846 30.083 2.52537 30.083 2.52537V2.17897L32.1835 1.74598L32.3894 1.87588C32.3894 1.87588 32.3894 10.5357 32.3894 10.6656C32.4306 11.4883 32.966 11.5749 32.966 11.5749V12.0944L30.742 12.0511ZM40.0087 11.4883C39.6381 11.4017 39.4321 11.0553 39.4321 10.4924V5.2965L39.2674 5.2099L37.1669 5.64289V5.98928C37.1669 5.98928 37.5376 6.29238 37.5788 6.33567C37.8259 6.63877 37.8259 7.07176 37.8259 7.33155V10.4058C37.1257 10.9687 36.508 11.1419 36.0549 10.9254C35.7254 10.7522 35.5195 10.3192 35.5195 9.71299V5.2965L35.3548 5.2099L33.2543 5.64289V5.98928C33.2543 5.98928 33.625 6.29238 33.6662 6.33567C33.9545 6.63877 33.9545 7.07176 33.9133 7.33155V9.97279C33.9133 10.4924 33.9545 10.6656 33.9956 10.8821C34.1192 11.445 34.4487 11.8346 34.9017 12.0078C35.6431 12.3109 36.7139 12.0078 37.8259 11.2285V11.9645H40.1323V11.4883H40.0087ZM50.4699 11.4883C50.0992 11.4017 49.9345 11.0553 49.8933 10.4924V7.33155C49.8933 6.59547 49.5226 5.2099 48.1635 5.2099C47.1338 5.2099 46.4749 5.85939 46.1042 6.20578C45.8983 5.72949 45.4452 5.2099 44.6215 5.2099C43.9626 5.2099 43.386 5.4697 42.8094 5.98928V5.3398L42.6034 5.2099L40.503 5.64289V5.98928C40.503 5.98928 40.8736 6.29238 40.9148 6.33567C41.1619 6.63877 41.1619 7.07176 41.1619 7.33155V11.9645H43.4683V11.4883L43.3448 11.445C42.9741 11.3584 42.8094 11.0553 42.8094 10.4491C42.8094 10.4491 42.8094 7.24495 42.8094 6.72537C43.2212 6.37897 43.6331 6.29238 44.0449 6.33567C44.3744 6.37897 44.7451 6.63877 44.7451 7.93774V11.9212H47.0103V11.445L46.8867 11.4017C46.5161 11.3151 46.3513 11.012 46.3101 10.4058V7.24495C46.3101 7.15835 46.3101 6.89856 46.2689 6.72537C46.6808 6.33567 47.0927 6.29238 47.5045 6.33567C47.834 6.37897 48.2047 6.63877 48.2047 7.93774V11.9212H50.4699V11.445V11.4883ZM30.0006 8.63052C30.0006 7.63464 29.6711 6.72537 29.0945 6.11918C28.4768 5.4697 27.6119 5.1233 26.541 5.1233C24.5641 5.1233 23.0815 6.63877 23.0815 8.63052C23.0815 10.7522 24.4406 12.1377 26.541 12.1377C27.5295 12.1377 28.4356 11.7913 29.0534 11.1419C29.6711 10.4491 30.0006 9.5831 30.0006 8.63052ZM26.541 11.3584C25.2643 11.3584 24.8936 10.3192 24.8936 8.58722C24.8936 7.33155 25.2643 5.81609 26.541 5.81609C27.8178 5.81609 28.1885 7.33155 28.1885 8.58722C28.1885 10.3192 27.8178 11.3584 26.541 11.3584ZM58.2128 3.08825C58.2128 2.61196 58.5834 2.17897 59.0777 2.17897C59.5307 2.17897 59.9426 2.56866 59.9426 3.08825C59.9426 3.60784 59.5719 3.99753 59.0777 3.99753C58.5834 3.99753 58.2128 3.56454 58.2128 3.08825ZM58.2951 11.9645V7.28825C58.2951 7.02846 58.2951 6.59547 58.048 6.29238C58.0068 6.24908 57.6362 5.94598 57.6362 5.94598V5.59959L59.7366 5.1666L59.9426 5.2965V10.4924C59.9426 11.0553 60.1485 11.4017 60.478 11.4883L60.6015 11.5316V12.0078L58.2951 11.9645ZM57.1008 6.81196C56.6477 5.98928 56.0711 5.4697 55.371 5.2965C54.3825 5.03671 53.3941 5.51299 52.7763 5.85939V1.83258L52.5703 1.70269L50.4699 2.13567V2.48207C50.4699 2.48207 50.8405 2.78516 50.8817 2.82846C51.1288 3.13155 51.1288 3.52124 51.1288 3.82433V11.4017V11.4883L51.2112 11.5316C52.4056 12.181 53.9707 12.2676 55.1239 11.7913C56.4006 11.2285 56.9772 10.2759 57.1831 9.5831C57.595 8.50062 57.4302 7.41815 57.1008 6.81196ZM55.371 10.4491C55.0003 11.0986 54.259 11.4883 53.6824 11.3151C53.1058 11.1419 52.7763 10.4924 52.7763 9.4965C52.7763 9.4965 52.7763 7.20165 52.7763 6.68207C52.7763 6.68207 52.8175 6.68207 52.8586 6.63877C53.2293 6.46557 53.8883 6.07588 54.7532 6.55217C55.2062 6.81196 55.5769 7.28825 55.7416 7.89444C55.9476 8.71712 55.824 9.6264 55.371 10.4491ZM66.2852 11.2718L66.1616 11.2285C66.0792 11.2285 65.9145 10.9687 65.9145 10.579V7.50475C65.9145 6.59547 65.6262 5.90269 65.132 5.55629C64.6789 5.2099 64.0611 5.1666 63.3198 5.4264C62.4549 5.72949 61.1781 6.89856 60.9722 7.15835L60.931 7.20165V7.28825C60.931 7.37485 61.0546 7.50475 61.0958 7.59134L61.137 7.63464H62.5784C62.5784 7.63464 62.5784 7.28825 62.5784 7.20165C62.5784 6.59547 62.9491 6.29238 63.2786 6.24908C63.6081 6.20578 63.814 6.20578 63.9788 6.33567C64.1847 6.50887 64.3082 6.94186 64.3082 7.63464V8.02433L61.3017 9.4099L61.2605 9.4532V9.4965C60.9722 10.3625 61.0546 11.0553 61.4253 11.5316C62.043 12.2676 63.5669 12.3542 65.7909 11.8346C65.9557 11.7913 66.3263 11.748 66.3263 11.748C66.2852 11.7047 66.2852 11.2718 66.2852 11.2718ZM64.3494 8.71712V11.0986C63.8552 11.445 63.361 11.4883 62.9903 11.1852C62.6196 10.8388 62.5373 10.2326 62.7844 9.6264L64.3494 8.71712Z" fill="#7F7F7F"/>
<path d="M3.93015 8.32743C4.25963 8.67382 4.25963 9.19341 3.93015 9.5398L3.64185 9.84289C3.31236 10.1893 2.81813 10.1893 2.48865 9.84289L0.635297 7.89444C0.305812 7.54805 0.305812 7.02846 0.635297 6.68207L0.923596 6.37897C1.25308 6.03258 1.74731 6.03258 2.07679 6.37897L3.93015 8.32743ZM3.72422 4.60372C3.39473 4.25732 2.90051 4.25732 2.57102 4.60372L2.28272 4.90681C1.95324 5.2532 1.95324 5.77279 2.28272 6.11918L4.13607 8.06763C4.46556 8.41403 4.95979 8.41403 5.28927 8.06763L5.57757 7.76454C5.90705 7.41815 5.90705 6.89856 5.57757 6.55217L3.72422 4.60372ZM8.66649 6.33567C8.33701 5.98928 7.84278 5.98928 7.51329 6.33567L7.22499 6.63877C6.89551 6.98516 6.89551 7.50475 7.22499 7.85114L9.07835 9.79959C9.40783 10.146 9.90206 10.146 10.2315 9.79959L10.5198 9.4965C10.8493 9.15011 10.8493 8.63052 10.5198 8.28413L8.66649 6.33567ZM10.3551 4.56042C10.0256 4.21403 9.53139 4.21403 9.2019 4.56042L8.9136 4.86351C8.58412 5.2099 8.58412 5.72949 8.9136 6.07588L10.767 8.02433C11.0964 8.37073 11.5907 8.37073 11.9202 8.02433L12.2085 7.72124C12.5379 7.37485 12.5379 6.85526 12.2085 6.50887L10.3551 4.56042ZM7.26618 2.65526C7.59566 2.30887 7.59566 1.78928 7.26618 1.44289L6.97788 1.1398C6.6484 0.793407 6.15417 0.793407 5.82468 1.1398L3.97133 3.08825C3.64185 3.43464 3.64185 3.95423 3.97133 4.30062L4.25963 4.60372C4.58912 4.95011 5.08334 4.95011 5.41283 4.60372L7.26618 2.65526ZM8.9136 4.38722C9.24309 4.04083 9.24309 3.52124 8.9136 3.17485L8.62531 2.87176C8.29582 2.52537 7.80159 2.52537 7.47211 2.87176L5.61876 4.82021C5.28927 5.1666 5.28927 5.68619 5.61876 6.03258L5.90705 6.33567C6.23654 6.68207 6.73077 6.68207 7.06025 6.33567L8.9136 4.38722ZM7.26618 9.4965C7.59566 9.15011 7.59566 8.63052 7.26618 8.28413L6.97788 7.98104C6.6484 7.63464 6.15417 7.63464 5.82468 7.98104L3.97133 9.92949C3.64185 10.2759 3.64185 10.7955 3.97133 11.1419L4.25963 11.445C4.58912 11.7913 5.08334 11.7913 5.41283 11.445L7.26618 9.4965ZM8.9136 11.2285C9.24309 10.8821 9.24309 10.3625 8.9136 10.0161L8.62531 9.71299C8.29582 9.3666 7.80159 9.3666 7.47211 9.71299L5.65994 11.7047C5.33046 12.0511 5.33046 12.5707 5.65994 12.9171L5.94824 13.2202C6.27773 13.5666 6.77195 13.5666 7.10144 13.2202L8.9136 11.2285ZM22.4225 9.5398C22.4637 9.6264 22.7108 10.0161 22.7108 10.0161C22.5872 10.6223 22.2166 11.445 22.2166 11.445L22.1754 11.4883C20.8162 12.0511 18.6746 12.5274 16.4094 11.5749C15.0503 11.012 14.0618 9.88619 13.6911 8.41402C13.2793 6.89856 13.5676 5.2532 14.4737 3.95423C15.4621 2.56866 17.0272 1.78928 19.1688 1.65939C19.9925 1.61609 21.64 1.83258 22.546 2.39547H22.6284C22.6284 2.39547 22.6696 4.77691 22.6284 4.86351L22.5872 4.99341L21.9283 5.03671L21.8871 4.77691C21.7635 4.08413 21.4752 2.26557 19.0453 2.39547C18.0156 2.43877 17.1507 3.00165 16.5329 3.86763C15.7504 4.95011 15.5445 6.37897 15.874 8.02433C16.2035 9.5831 17.3567 10.579 18.2215 10.9687C18.5922 11.0986 19.7454 11.4017 20.6103 10.9687C21.3517 10.579 22.093 9.97279 22.4225 9.5398ZM30.742 12.0511V3.86763C30.742 3.60784 30.742 3.17485 30.4949 2.87176C30.4537 2.82846 30.083 2.52537 30.083 2.52537V2.17897L32.1835 1.74598L32.3894 1.87588C32.3894 1.87588 32.3894 10.5357 32.3894 10.6656C32.4306 11.4883 32.966 11.5749 32.966 11.5749V12.0944L30.742 12.0511ZM40.0087 11.4883C39.6381 11.4017 39.4321 11.0553 39.4321 10.4924V5.2965L39.2674 5.2099L37.1669 5.64289V5.98928C37.1669 5.98928 37.5376 6.29238 37.5788 6.33567C37.8259 6.63877 37.8259 7.07176 37.8259 7.33155V10.4058C37.1257 10.9687 36.508 11.1419 36.0549 10.9254C35.7254 10.7522 35.5195 10.3192 35.5195 9.71299V5.2965L35.3548 5.2099L33.2543 5.64289V5.98928C33.2543 5.98928 33.625 6.29238 33.6662 6.33567C33.9545 6.63877 33.9545 7.07176 33.9133 7.33155V9.97279C33.9133 10.4924 33.9545 10.6656 33.9956 10.8821C34.1192 11.445 34.4487 11.8346 34.9017 12.0078C35.6431 12.3109 36.7139 12.0078 37.8259 11.2285V11.9645H40.1323V11.4883H40.0087ZM50.4699 11.4883C50.0992 11.4017 49.9345 11.0553 49.8933 10.4924V7.33155C49.8933 6.59547 49.5226 5.2099 48.1635 5.2099C47.1338 5.2099 46.4749 5.85939 46.1042 6.20578C45.8983 5.72949 45.4452 5.2099 44.6215 5.2099C43.9626 5.2099 43.386 5.4697 42.8094 5.98928V5.3398L42.6034 5.2099L40.503 5.64289V5.98928C40.503 5.98928 40.8736 6.29238 40.9148 6.33567C41.1619 6.63877 41.1619 7.07176 41.1619 7.33155V11.9645H43.4683V11.4883L43.3448 11.445C42.9741 11.3584 42.8094 11.0553 42.8094 10.4491C42.8094 10.4491 42.8094 7.24495 42.8094 6.72537C43.2212 6.37897 43.6331 6.29238 44.0449 6.33567C44.3744 6.37897 44.7451 6.63877 44.7451 7.93774V11.9212H47.0103V11.445L46.8867 11.4017C46.5161 11.3151 46.3513 11.012 46.3101 10.4058V7.24495C46.3101 7.15835 46.3101 6.89856 46.2689 6.72537C46.6808 6.33567 47.0927 6.29238 47.5045 6.33567C47.834 6.37897 48.2047 6.63877 48.2047 7.93774V11.9212H50.4699V11.445V11.4883ZM30.0006 8.63052C30.0006 7.63464 29.6711 6.72537 29.0945 6.11918C28.4768 5.4697 27.6119 5.1233 26.541 5.1233C24.5641 5.1233 23.0815 6.63877 23.0815 8.63052C23.0815 10.7522 24.4406 12.1377 26.541 12.1377C27.5295 12.1377 28.4356 11.7913 29.0534 11.1419C29.6711 10.4491 30.0006 9.5831 30.0006 8.63052ZM26.541 11.3584C25.2643 11.3584 24.8936 10.3192 24.8936 8.58722C24.8936 7.33155 25.2643 5.81609 26.541 5.81609C27.8178 5.81609 28.1885 7.33155 28.1885 8.58722C28.1885 10.3192 27.8178 11.3584 26.541 11.3584ZM58.2128 3.08825C58.2128 2.61196 58.5834 2.17897 59.0777 2.17897C59.5307 2.17897 59.9426 2.56866 59.9426 3.08825C59.9426 3.60784 59.5719 3.99753 59.0777 3.99753C58.5834 3.99753 58.2128 3.56454 58.2128 3.08825ZM58.2951 11.9645V7.28825C58.2951 7.02846 58.2951 6.59547 58.048 6.29238C58.0068 6.24908 57.6362 5.94598 57.6362 5.94598V5.59959L59.7366 5.1666L59.9426 5.2965V10.4924C59.9426 11.0553 60.1485 11.4017 60.478 11.4883L60.6015 11.5316V12.0078L58.2951 11.9645ZM57.1008 6.81196C56.6477 5.98928 56.0711 5.4697 55.371 5.2965C54.3825 5.03671 53.3941 5.51299 52.7763 5.85939V1.83258L52.5703 1.70269L50.4699 2.13567V2.48207C50.4699 2.48207 50.8405 2.78516 50.8817 2.82846C51.1288 3.13155 51.1288 3.52124 51.1288 3.82433V11.4017V11.4883L51.2112 11.5316C52.4056 12.181 53.9707 12.2676 55.1239 11.7913C56.4006 11.2285 56.9772 10.2759 57.1831 9.5831C57.595 8.50062 57.4302 7.41815 57.1008 6.81196ZM55.371 10.4491C55.0003 11.0986 54.259 11.4883 53.6824 11.3151C53.1058 11.1419 52.7763 10.4924 52.7763 9.4965C52.7763 9.4965 52.7763 7.20165 52.7763 6.68207C52.7763 6.68207 52.8175 6.68207 52.8586 6.63877C53.2293 6.46557 53.8883 6.07588 54.7532 6.55217C55.2062 6.81196 55.5769 7.28825 55.7416 7.89444C55.9476 8.71712 55.824 9.6264 55.371 10.4491ZM66.2852 11.2718L66.1616 11.2285C66.0792 11.2285 65.9145 10.9687 65.9145 10.579V7.50475C65.9145 6.59547 65.6262 5.90269 65.132 5.55629C64.6789 5.2099 64.0611 5.1666 63.3198 5.4264C62.4549 5.72949 61.1781 6.89856 60.9722 7.15835L60.931 7.20165V7.28825C60.931 7.37485 61.0546 7.50475 61.0958 7.59134L61.137 7.63464H62.5784C62.5784 7.63464 62.5784 7.28825 62.5784 7.20165C62.5784 6.59547 62.9491 6.29238 63.2786 6.24908C63.6081 6.20578 63.814 6.20578 63.9788 6.33567C64.1847 6.50887 64.3082 6.94186 64.3082 7.63464V8.02433L61.3017 9.4099L61.2605 9.4532V9.4965C60.9722 10.3625 61.0546 11.0553 61.4253 11.5316C62.043 12.2676 63.5669 12.3542 65.7909 11.8346C65.9557 11.7913 66.3263 11.748 66.3263 11.748C66.2852 11.7047 66.2852 11.2718 66.2852 11.2718ZM64.3494 8.71712V11.0986C63.8552 11.445 63.361 11.4883 62.9903 11.1852C62.6196 10.8388 62.5373 10.2326 62.7844 9.6264L64.3494 8.71712Z" fill="black" fill-opacity="0.2"/>
</svg>
