<svg width="375" height="51" viewBox="0 0 375 51" fill="none" xmlns="http://www.w3.org/2000/svg">
<path d="M91.7414 2.56533C91.6104 3.13518 91.6104 3.70503 91.785 3.83653C92.2217 4.31871 114.316 4.31871 114.578 3.88037C114.709 3.66119 114.709 3.04751 114.578 2.52149C114.36 1.55713 114.316 1.55713 103.182 1.55713H92.0034L91.7414 2.56533ZM37.6834 8.30767C37.5524 8.57067 37.0721 8.78985 36.6791 8.78985C35.3691 8.78985 32.4872 10.5871 30.8716 12.3843C26.9853 16.6801 27.9896 23.6936 32.8802 26.6306C35.0198 27.9018 38.9497 29.5675 41.6133 30.2688C44.0586 30.8825 46.9405 32.3729 48.5125 33.7318C51.3507 36.2742 51.0887 40.7015 47.8575 43.8138C43.8402 47.715 36.8974 47.9781 30.4349 44.4274C28.601 43.4192 28.1643 43.3316 27.8586 43.9014C27.3347 44.6905 27.7713 46.137 28.6883 46.7068C31.4829 48.4164 33.4042 48.8109 39.037 48.8547C45.3249 48.8986 46.2855 48.6356 50.0408 45.6548C53.5777 42.8932 54.8876 39.5618 54.2763 34.8715C53.8833 31.4524 51.831 29.5236 46.0672 27.0689C44.0149 26.1922 41.8316 25.4032 40.1287 25.0087C39.3427 24.7895 38.4694 24.4388 38.2074 24.1758C37.9454 23.9128 37.4214 23.6936 37.0721 23.6936C35.9804 23.6936 33.2732 20.9321 32.6182 19.1787C31.6139 16.3294 33.2295 13.1295 36.5481 11.3761C38.1201 10.5432 38.906 10.4556 42.6176 10.6309C46.5475 10.7624 47.0278 10.8939 48.9491 12.209C51.2197 13.7432 52.224 13.9623 52.5734 12.998C53.1847 11.4638 51.0451 9.75421 47.2898 8.70218C44.8009 8.00083 38.0764 7.73782 37.6834 8.30767ZM2.92559 9.09669L0 9.27203L0.0873307 28.647L0.130996 48.0219L11.0474 48.2849C20.5665 48.5041 22.0511 48.4164 22.5314 47.8465C22.8371 47.452 23.0118 46.8822 22.9681 46.4877C22.8371 45.9178 21.4835 45.8302 13.6673 45.8302H4.49755V27.8579L12.8377 28.0333C20.3482 28.1648 21.2215 28.0771 21.4835 27.4196C21.6145 27.0251 21.6145 26.4991 21.4835 26.2361C21.3088 25.973 18.0339 25.8415 12.8377 25.9292L4.49755 26.0607V11.2008L13.2307 11.3761C20.6102 11.5076 22.0511 11.4199 22.5314 10.8939C22.8371 10.4994 22.9681 9.88572 22.7934 9.49121C22.5751 8.87752 21.5271 8.78985 14.1476 8.87752C9.56276 8.92135 4.49755 9.00902 2.92559 9.09669ZM55.9356 9.09669C55.0623 9.40353 55.2806 10.4556 56.2849 11.0254C56.9399 11.3761 58.9049 11.4199 62.8348 11.2008L68.4676 10.8939L68.555 29.436L68.686 48.0219L70.6072 48.1534C71.6552 48.2411 72.7032 48.1096 72.9652 47.8465C73.2272 47.5835 73.4018 40.9207 73.4455 29.3045L73.4892 11.2008L79.4277 11.3323C84.4056 11.4638 85.4099 11.3761 85.8902 10.8062C86.1959 10.4117 86.3705 9.84188 86.2395 9.49121C86.0212 9.00903 83.4449 8.87752 71.2186 8.92136C63.0968 8.92136 56.1976 9.00902 55.9356 9.09669ZM95.2346 9.09669L92.0471 9.27203V28.5155C92.0471 39.0796 92.178 47.8465 92.3964 47.9342C92.571 48.0657 97.5926 48.2411 103.531 48.2849C113.618 48.4602 114.404 48.4164 114.84 47.6712C115.146 47.1014 115.102 46.663 114.666 46.1808C114.185 45.611 112.919 45.5233 105.365 45.6548L96.6319 45.8302L96.4136 37.1509C96.2826 31.6277 96.3699 28.3401 96.6319 28.1648C96.8503 28.0333 100.693 27.9018 105.147 27.8579C112.919 27.8579 113.225 27.8141 113.225 26.9812C113.225 26.1484 112.919 26.1045 105.365 26.0169C101.042 25.973 97.2432 25.9292 96.9376 25.9292C96.5009 25.8854 96.4136 24.2635 96.5009 18.5211L96.6319 11.2008H114.535V9.00902L106.457 8.96519C102.003 8.96519 96.9376 9.00902 95.2346 9.09669ZM125.32 9.18436L122.569 9.44737V28.4716C122.569 38.9481 122.7 47.6274 122.875 47.7589C123.181 48.0657 144.402 48.5917 145.232 48.3287C145.537 48.1972 145.756 47.6274 145.668 46.9699L145.537 45.8302L136.499 45.874L127.46 45.9617L127.329 37.2386C127.241 32.4167 127.241 28.3401 127.329 28.1648C127.372 27.9894 130.997 27.9018 135.407 27.9894C139.905 28.0771 143.616 27.9456 143.965 27.6826C144.315 27.4634 144.446 26.9812 144.271 26.5429C144.053 25.8854 143.179 25.7977 135.713 25.973L127.416 26.1045V11.0254L136.193 11.1131C144.227 11.2008 145.057 11.1131 145.494 10.4117C145.887 9.79805 145.843 9.53504 145.319 9.2282C144.62 8.78985 130.036 8.74601 125.32 9.18436ZM169.51 9.31587C169.291 9.66654 169.204 47.8465 169.422 48.0657C169.51 48.1096 174.444 48.2411 180.426 48.2849C190.382 48.4164 191.299 48.3287 191.692 47.6274C191.91 47.2329 191.998 46.5753 191.867 46.1808C191.605 45.5671 190.469 45.5233 182.522 45.6548L173.483 45.8302L173.527 27.5073C173.571 17.4691 173.44 9.22819 173.309 9.18436C171.911 8.92135 169.684 9.00902 169.51 9.31587ZM210.512 9.09669C210.206 9.18436 209.944 9.57888 209.944 9.92955C209.944 10.2802 209.333 11.8583 208.59 13.4802C206.669 17.776 206.233 18.8718 205.316 21.0636C204.617 22.8608 203.525 25.5785 202.521 27.8579C202.346 28.3401 201.167 31.1894 199.901 34.214C197.063 41.1398 197.194 40.8768 195.534 44.4274C194.094 47.4959 194.05 48.6794 195.403 48.6794C196.495 48.6794 198.154 47.452 198.154 46.6192C198.154 45.9617 198.984 43.8138 200.163 41.5344C200.512 40.833 200.774 40.0878 200.774 39.8248C200.774 39.3426 201.735 37.0194 202.87 34.6961L203.613 33.2058L211.909 33.1619C219.856 33.1181 220.206 33.1619 220.337 33.9948C220.511 35.1783 222.258 39.6495 223.742 42.6741C224.092 43.3754 224.354 44.1644 224.354 44.4713C224.354 45.348 225.707 47.8465 226.275 48.0219C226.537 48.1096 227.585 48.2849 228.633 48.3726C231.166 48.6794 231.34 48.0219 229.594 44.3836C228.808 42.7617 227.891 40.833 227.585 40.1316C227.323 39.3865 226.712 38.0276 226.275 37.0632C225.882 36.0989 225.271 34.6961 224.965 33.9948C224.703 33.2496 224.135 31.9784 223.786 31.1455C223.437 30.3127 222.825 28.91 222.476 28.0771C222.127 27.2442 221.516 25.8415 221.166 25.0087C220.817 24.1758 220.206 22.7293 219.813 21.8087C219.42 20.9321 218.808 19.4417 218.415 18.5211C218.022 17.6445 217.411 16.1979 217.062 15.3651C216.712 14.5322 216.145 13.261 215.795 12.6035C215.446 11.9021 215.184 11.0254 215.184 10.5871C215.184 10.1926 214.966 9.62271 214.66 9.31587C214.136 8.78985 211.56 8.65834 210.512 9.09669ZM212.564 14.4884C212.564 14.9705 212.826 15.9787 213.175 16.7678C213.525 17.5568 214.136 19.091 214.529 20.1869C215.97 23.9566 217.542 27.6388 218.546 29.5237C218.896 30.225 219.114 30.8825 218.983 31.014C218.721 31.277 204.617 31.1894 204.355 30.9264C204.18 30.751 205.359 27.9018 206.669 25.3155C207.019 24.6142 207.324 23.869 207.324 23.606C207.324 23.3868 207.63 22.4663 208.023 21.5896C208.416 20.669 208.983 19.3102 209.333 18.5211C209.682 17.7321 209.944 16.7239 209.944 16.2856C209.944 15.2774 211.647 13.0856 212.171 13.3925C212.389 13.5678 212.564 14.05 212.564 14.4884ZM235.008 9.09669C234.703 9.18436 234.615 14.2253 234.746 24.658C234.877 39.0796 234.921 40.1316 235.75 41.7974C236.711 43.6384 240.248 47.3644 241.078 47.3644C241.383 47.3644 242.213 47.715 242.912 48.1096C243.96 48.6794 245.444 48.8547 249.898 48.8547C255.225 48.8986 255.706 48.8109 258.02 47.715C260.596 46.4 262.954 44.1644 264.308 41.6659C265.094 40.2631 265.181 38.9481 265.312 24.8333C265.399 15.1459 265.312 9.40353 265.006 9.09669C264.788 8.87752 264.133 8.78985 263.565 8.92136L262.561 9.18436V24.2197C262.561 39.2111 262.561 39.255 261.513 41.1398C260.247 43.4631 257.802 45.5233 255.924 45.874C255.138 46.0055 254.352 46.3123 254.221 46.5315C253.828 47.189 248.02 46.9699 245.663 46.1808C242.868 45.2603 240.554 42.9371 239.506 40.0001C238.807 38.0276 238.72 36.318 238.807 23.7375C238.851 15.9787 238.763 9.4912 238.589 9.31587C238.239 9.00902 235.75 8.83368 235.008 9.09669ZM276.316 9.09669L273.914 9.27203L274.002 28.4278C274.045 38.9481 274.089 47.715 274.089 47.8465C274.133 48.0219 277.014 48.2849 280.595 48.4602C287.32 48.7671 293.127 48.1096 296.271 46.663C297.013 46.3123 297.756 46.0493 297.887 46.0493C298.585 46.0493 302.952 42.4549 304.087 40.9207C305.834 38.5974 306.663 36.7125 307.493 33.0743C308.41 28.9976 308.366 27.1566 307.362 22.9485C306.008 17.2938 303.214 13.261 299.371 11.3761C294.568 9.05286 294.786 9.05286 286.577 9.00902C282.254 8.96519 277.626 9.00902 276.316 9.09669ZM292.341 11.6391C297.843 13.0856 299.677 14.7514 302.253 20.8005C303.257 23.1238 303.301 34.0825 302.297 36.0989C301.947 36.8002 301.642 37.5892 301.642 37.8084C301.642 38.5536 298.804 42.0165 297.232 43.1124C294.306 45.2603 291.948 45.7425 284.831 45.7863L278.281 45.8302L278.15 28.9538C278.106 19.6608 278.15 11.8144 278.281 11.5514C278.586 10.7186 289.066 10.8062 292.341 11.6391ZM317.667 9.09669L314.742 9.27203L314.829 28.647L314.96 48.0219L325.876 48.2849C331.902 48.4164 337.011 48.4164 337.317 48.3287C338.146 48.0657 338.496 46.4438 337.841 45.9617C337.491 45.7425 333.43 45.611 328.496 45.6986L319.763 45.8302V27.8579L327.798 28.0333C336.05 28.1648 336.88 28.0333 336.269 26.4552C336.05 25.9292 334.609 25.8415 327.885 25.9292L319.763 26.0607V11.2008H328.453C336.312 11.2008 337.186 11.1131 337.622 10.4117C337.972 9.79805 337.972 9.53504 337.448 9.2282C336.836 8.83368 324.435 8.74601 317.667 9.09669ZM348.233 9.18436L345.7 9.44737V28.4278C345.744 38.9043 345.831 47.6274 345.962 47.8465C346.137 48.0657 347.098 48.2411 348.189 48.2411C349.718 48.2411 350.111 48.0657 350.111 47.452C350.111 47.0575 350.198 42.7617 350.242 37.9399L350.329 29.173L354.259 29.3045C358.058 29.436 358.232 29.5237 359.368 30.8387C360.023 31.6277 360.59 32.3729 360.59 32.5482C360.59 32.7236 361.464 34.1263 362.555 35.7043C363.647 37.3262 364.52 38.6851 364.52 38.7728C364.52 38.9043 365.35 40.2193 366.354 41.7535C368.799 45.3918 369.236 46.137 369.585 47.0137C369.76 47.452 370.677 47.9342 371.987 48.1972C374.956 48.8547 375 48.8547 375 47.3644C375 46.6192 374.825 46.0493 374.607 46.0493C374.389 46.0493 371.9 42.5864 369.105 38.3783C366.311 34.1701 363.822 30.6195 363.603 30.488C363.385 30.3127 363.21 29.8305 363.21 29.3921C363.21 28.7785 363.734 28.384 365.088 27.9894C369.018 26.8497 372.031 24.0005 372.598 20.9321C372.773 20.0115 372.773 18.2143 372.598 16.8993C372.38 14.9705 372.031 14.2254 370.633 12.7788C367.577 9.62271 365.743 9.09669 357.752 8.96519C353.91 8.92135 349.63 9.00902 348.233 9.18436ZM359.63 11.1131C363.341 11.2446 366.311 12.6035 367.533 14.7514C368.843 16.9431 368.799 21.0197 367.49 22.9485C365.044 26.3676 362.774 27.2442 355.7 27.4196L350.111 27.5073V19.3102C350.111 14.7952 350.198 11.0254 350.329 10.9377C350.416 10.8062 351.901 10.8062 353.604 10.8501C355.263 10.9377 357.97 11.0254 359.63 11.1131Z" fill="black"/>
</svg>
