<svg width="57" height="8" viewBox="0 0 57 8" fill="none" xmlns="http://www.w3.org/2000/svg">
<path fill-rule="evenodd" clip-rule="evenodd" d="M4.48089 0.908952H1.51255L0.193359 7.08536H1.56337L2.07077 4.66523H3.36467C3.89745 4.66523 4.25264 4.81649 4.25264 5.42152C4.25264 5.63905 4.23302 5.85658 4.21371 6.07081C4.19496 6.27865 4.1765 6.48338 4.1765 6.682C4.1765 6.78996 4.19508 6.89793 4.21637 7.02174C4.21994 7.04247 4.22358 7.06366 4.22723 7.08536H5.57186C5.52114 6.90889 5.49573 6.65679 5.49573 6.37948C5.49573 6.15897 5.51089 5.93846 5.52463 5.73855C5.53603 5.57278 5.54645 5.42117 5.54645 5.29547C5.54645 4.81649 5.4196 4.36272 4.9122 4.21146V4.18621C5.74942 4.06016 6.33294 3.35429 6.33294 2.52237C6.33294 1.33752 5.5972 0.883703 4.48089 0.908952ZM3.56844 3.70774H2.29992L2.68047 1.96827H3.97438C4.50715 1.96827 4.98919 2.06912 4.98919 2.72456C4.98919 3.43044 4.27882 3.70774 3.56844 3.70774Z" fill="#7F7F7F"/>
<path fill-rule="evenodd" clip-rule="evenodd" d="M4.48089 0.908952H1.51255L0.193359 7.08536H1.56337L2.07077 4.66523H3.36467C3.89745 4.66523 4.25264 4.81649 4.25264 5.42152C4.25264 5.63905 4.23302 5.85658 4.21371 6.07081C4.19496 6.27865 4.1765 6.48338 4.1765 6.682C4.1765 6.78996 4.19508 6.89793 4.21637 7.02174C4.21994 7.04247 4.22358 7.06366 4.22723 7.08536H5.57186C5.52114 6.90889 5.49573 6.65679 5.49573 6.37948C5.49573 6.15897 5.51089 5.93846 5.52463 5.73855C5.53603 5.57278 5.54645 5.42117 5.54645 5.29547C5.54645 4.81649 5.4196 4.36272 4.9122 4.21146V4.18621C5.74942 4.06016 6.33294 3.35429 6.33294 2.52237C6.33294 1.33752 5.5972 0.883703 4.48089 0.908952ZM3.56844 3.70774H2.29992L2.68047 1.96827H3.97438C4.50715 1.96827 4.98919 2.06912 4.98919 2.72456C4.98919 3.43044 4.27882 3.70774 3.56844 3.70774Z" fill="black" fill-opacity="0.2"/>
<path d="M11.5346 5.95379L11.2809 7.08822H6.48584L7.80511 0.911865H12.5494L12.2957 2.0463H8.92141L8.64233 3.38241H11.7629L11.5346 4.44121H8.414L8.10955 5.95379H11.5346Z" fill="#7F7F7F"/>
<path d="M11.5346 5.95379L11.2809 7.08822H6.48584L7.80511 0.911865H12.5494L12.2957 2.0463H8.92141L8.64233 3.38241H11.7629L11.5346 4.44121H8.414L8.10955 5.95379H11.5346Z" fill="black" fill-opacity="0.2"/>
<path d="M16.9892 6.45916V6.45916C16.5579 7.01377 15.9744 7.24066 15.4163 7.24066C13.6657 7.24066 12.6509 6.25748 12.6509 4.51802C12.6509 2.52646 13.9448 0.786987 16.0505 0.786987C17.4966 0.786987 18.6891 1.46765 18.6891 2.98023H17.3191C17.2936 2.22394 16.8116 1.92143 16.0505 1.92143C14.6552 1.92143 14.0209 3.33316 14.0209 4.51802C14.0209 5.37514 14.4268 6.10622 15.4416 6.10622C16.4818 6.10622 16.9385 5.55161 17.1668 4.77011H15.7207L15.949 3.76173H18.5876L17.8772 7.0894H16.9892V6.45916Z" fill="#7F7F7F"/>
<path d="M16.9892 6.45916V6.45916C16.5579 7.01377 15.9744 7.24066 15.4163 7.24066C13.6657 7.24066 12.6509 6.25748 12.6509 4.51802C12.6509 2.52646 13.9448 0.786987 16.0505 0.786987C17.4966 0.786987 18.6891 1.46765 18.6891 2.98023H17.3191C17.2936 2.22394 16.8116 1.92143 16.0505 1.92143C14.6552 1.92143 14.0209 3.33316 14.0209 4.51802C14.0209 5.37514 14.4268 6.10622 15.4416 6.10622C16.4818 6.10622 16.9385 5.55161 17.1668 4.77011H15.7207L15.949 3.76173H18.5876L17.8772 7.0894H16.9892V6.45916Z" fill="black" fill-opacity="0.2"/>
<path d="M23.9408 5.95379L23.7125 7.08822H18.9175L20.2114 0.911865H24.9557L24.7273 2.0463H21.3531L21.074 3.38241H24.1945L23.9662 4.44121H20.8456L20.5158 5.95379H23.9408Z" fill="#7F7F7F"/>
<path d="M23.9408 5.95379L23.7125 7.08822H18.9175L20.2114 0.911865H24.9557L24.7273 2.0463H21.3531L21.074 3.38241H24.1945L23.9662 4.44121H20.8456L20.5158 5.95379H23.9408Z" fill="black" fill-opacity="0.2"/>
<path d="M26.8825 2.75217L25.9946 7.08822H24.7007L26.02 0.911865H27.4407L29.1152 5.29834H29.1405L30.0285 0.911865H31.297L29.9778 7.08822H28.6077L26.9079 2.75217H26.8825Z" fill="#7F7F7F"/>
<path d="M26.8825 2.75217L25.9946 7.08822H24.7007L26.02 0.911865H27.4407L29.1152 5.29834H29.1405L30.0285 0.911865H31.297L29.9778 7.08822H28.6077L26.9079 2.75217H26.8825Z" fill="black" fill-opacity="0.2"/>
<path d="M36.2201 5.95379L35.9664 7.08822H31.1714L32.4653 0.911865H37.2096L36.9812 2.0463H33.607L33.3279 3.38241H36.4485L36.2201 4.44121H33.0995L32.7697 5.95379H36.2201Z" fill="#7F7F7F"/>
<path d="M36.2201 5.95379L35.9664 7.08822H31.1714L32.4653 0.911865H37.2096L36.9812 2.0463H33.607L33.3279 3.38241H36.4485L36.2201 4.44121H33.0995L32.7697 5.95379H36.2201Z" fill="black" fill-opacity="0.2"/>
<path fill-rule="evenodd" clip-rule="evenodd" d="M41.2431 0.908952H38.2747L36.9556 7.08536H38.3256L38.833 4.66523H40.1269C40.6597 4.66523 41.0148 4.81649 41.0148 5.42152C41.0148 5.63905 40.9952 5.85658 40.9759 6.07081C40.9572 6.27865 40.9387 6.48338 40.9387 6.682C40.9387 6.78996 40.9573 6.89793 40.9786 7.02174C40.9821 7.04247 40.9858 7.06366 40.9894 7.08536H42.3341C42.2833 6.90889 42.2579 6.65679 42.2579 6.37948C42.2579 6.15897 42.2731 5.93846 42.2868 5.73855C42.2982 5.57278 42.3087 5.42117 42.3087 5.29547C42.3087 4.81649 42.1818 4.36272 41.6744 4.21146V4.18621C42.5116 4.06016 43.0951 3.35429 43.0951 2.52237C43.0951 1.33752 42.3594 0.883703 41.2431 0.908952ZM40.3306 3.70774H39.0621L39.4427 1.96827H40.7366C41.2694 1.96827 41.7514 2.06912 41.7514 2.72456C41.7514 3.43044 41.0664 3.70774 40.3306 3.70774Z" fill="#7F7F7F"/>
<path fill-rule="evenodd" clip-rule="evenodd" d="M41.2431 0.908952H38.2747L36.9556 7.08536H38.3256L38.833 4.66523H40.1269C40.6597 4.66523 41.0148 4.81649 41.0148 5.42152C41.0148 5.63905 40.9952 5.85658 40.9759 6.07081C40.9572 6.27865 40.9387 6.48338 40.9387 6.682C40.9387 6.78996 40.9573 6.89793 40.9786 7.02174C40.9821 7.04247 40.9858 7.06366 40.9894 7.08536H42.3341C42.2833 6.90889 42.2579 6.65679 42.2579 6.37948C42.2579 6.15897 42.2731 5.93846 42.2868 5.73855C42.2982 5.57278 42.3087 5.42117 42.3087 5.29547C42.3087 4.81649 42.1818 4.36272 41.6744 4.21146V4.18621C42.5116 4.06016 43.0951 3.35429 43.0951 2.52237C43.0951 1.33752 42.3594 0.883703 41.2431 0.908952ZM40.3306 3.70774H39.0621L39.4427 1.96827H40.7366C41.2694 1.96827 41.7514 2.06912 41.7514 2.72456C41.7514 3.43044 41.0664 3.70774 40.3306 3.70774Z" fill="black" fill-opacity="0.2"/>
<path fill-rule="evenodd" clip-rule="evenodd" d="M49.7935 3.40703C49.7935 1.66756 48.7025 0.76001 47.0281 0.76001C44.9223 0.76001 43.6284 2.49948 43.6284 4.51625C43.6284 6.25571 44.6432 7.23889 46.3938 7.23889C48.5757 7.23889 49.7935 5.449 49.7935 3.40703ZM48.3974 3.50686C48.3974 4.69171 47.7377 6.10345 46.3931 6.10345C45.4037 6.10345 44.9978 5.34716 44.9724 4.49004C44.9724 3.30519 45.6066 1.89345 47.002 1.89345C48.0168 1.89345 48.3974 2.64973 48.3974 3.50686Z" fill="#7F7F7F"/>
<path fill-rule="evenodd" clip-rule="evenodd" d="M49.7935 3.40703C49.7935 1.66756 48.7025 0.76001 47.0281 0.76001C44.9223 0.76001 43.6284 2.49948 43.6284 4.51625C43.6284 6.25571 44.6432 7.23889 46.3938 7.23889C48.5757 7.23889 49.7935 5.449 49.7935 3.40703ZM48.3974 3.50686C48.3974 4.69171 47.7377 6.10345 46.3931 6.10345C45.4037 6.10345 44.9978 5.34716 44.9724 4.49004C44.9724 3.30519 45.6066 1.89345 47.002 1.89345C48.0168 1.89345 48.3974 2.64973 48.3974 3.50686Z" fill="black" fill-opacity="0.2"/>
<path d="M51.3154 7.08822H50.0469L51.3408 0.911865H52.7615L54.4613 5.29834L55.3493 0.911865H56.6178L55.2986 7.08822H53.9286L52.2287 2.75217H52.2034L51.3154 7.08822Z" fill="#7F7F7F"/>
<path d="M51.3154 7.08822H50.0469L51.3408 0.911865H52.7615L54.4613 5.29834L55.3493 0.911865H56.6178L55.2986 7.08822H53.9286L52.2287 2.75217H52.2034L51.3154 7.08822Z" fill="black" fill-opacity="0.2"/>
</svg>
