<?xml version="1.0" encoding="UTF-8"?> <svg xmlns="http://www.w3.org/2000/svg" width="124" height="20" viewBox="0 0 124 20" fill="none"><path d="M6.982 19.208C5.682 19.208 4.538 18.9567 3.55 18.454C2.562 17.934 1.79933 17.2147 1.262 16.296C0.724667 15.3773 0.456 14.3113 0.456 13.098V6.676C0.456 5.46267 0.724667 4.39667 1.262 3.478C1.79933 2.55933 2.562 1.84867 3.55 1.346C4.538 0.843333 5.682 0.592 6.982 0.592C8.26467 0.592 9.4 0.834667 10.388 1.32C11.376 1.80533 12.1387 2.49 12.676 3.374C13.2133 4.258 13.482 5.28067 13.482 6.442C13.482 6.52867 13.4473 6.60667 13.378 6.676C13.326 6.728 13.2567 6.754 13.17 6.754L10.778 6.884C10.57 6.884 10.466 6.78867 10.466 6.598C10.466 5.57533 10.1453 4.752 9.504 4.128C8.88 3.504 8.03933 3.192 6.982 3.192C5.92467 3.192 5.07533 3.504 4.434 4.128C3.79267 4.752 3.472 5.57533 3.472 6.598V13.228C3.472 14.2333 3.79267 15.048 4.434 15.672C5.07533 16.296 5.92467 16.608 6.982 16.608C8.03933 16.608 8.88 16.3047 9.504 15.698C10.1453 15.074 10.466 14.2507 10.466 13.228C10.466 13.0373 10.57 12.942 10.778 12.942L13.17 13.046C13.2567 13.046 13.326 13.072 13.378 13.124C13.4473 13.176 13.482 13.2367 13.482 13.306C13.482 14.4847 13.2133 15.5247 12.676 16.426C12.1387 17.31 11.376 17.9947 10.388 18.48C9.4 18.9653 8.26467 19.208 6.982 19.208ZM21.1177 19C20.9443 19 20.8317 18.9133 20.7797 18.74L15.3197 1.164L15.2937 1.06C15.2937 0.886665 15.389 0.799999 15.5797 0.799999H18.1537C18.3443 0.799999 18.4657 0.886665 18.5177 1.06L22.4177 14.632C22.435 14.684 22.461 14.71 22.4957 14.71C22.5303 14.71 22.5563 14.684 22.5737 14.632L26.4477 1.06C26.4997 0.886665 26.621 0.799999 26.8117 0.799999H29.3337C29.4377 0.799999 29.5157 0.834665 29.5677 0.903999C29.6197 0.973332 29.6283 1.06 29.5937 1.164L24.0557 18.74C24.0037 18.9133 23.891 19 23.7177 19H21.1177ZM37.7252 19.208C36.3732 19.208 35.1945 18.9913 34.1892 18.558C33.1838 18.1247 32.4038 17.518 31.8492 16.738C31.3118 15.958 31.0432 15.0393 31.0432 13.982V13.332C31.0432 13.2453 31.0692 13.176 31.1212 13.124C31.1905 13.0547 31.2685 13.02 31.3552 13.02H33.6692C33.7558 13.02 33.8252 13.0547 33.8772 13.124C33.9465 13.176 33.9812 13.2453 33.9812 13.332V13.826C33.9812 14.6233 34.3365 15.2907 35.0472 15.828C35.7578 16.348 36.7285 16.608 37.9592 16.608C39.0165 16.608 39.8138 16.3827 40.3512 15.932C40.8885 15.4813 41.1572 14.9007 41.1572 14.19C41.1572 13.7047 41.0098 13.2973 40.7152 12.968C40.4205 12.6213 39.9958 12.3093 39.4412 12.032C38.9038 11.7547 38.0892 11.408 36.9972 10.992C35.7665 10.5413 34.7698 10.1167 34.0072 9.718C33.2445 9.31933 32.6032 8.782 32.0832 8.106C31.5805 7.41267 31.3292 6.55467 31.3292 5.532C31.3292 4.00667 31.8838 2.802 32.9932 1.918C34.1025 1.034 35.5845 0.592 37.4392 0.592C38.7392 0.592 39.8832 0.817333 40.8712 1.268C41.8765 1.71867 42.6565 2.35133 43.2112 3.166C43.7658 3.96333 44.0432 4.89067 44.0432 5.948V6.39C44.0432 6.47667 44.0085 6.55467 43.9392 6.624C43.8872 6.676 43.8178 6.702 43.7312 6.702H41.3912C41.3045 6.702 41.2265 6.676 41.1572 6.624C41.1052 6.55467 41.0792 6.47667 41.0792 6.39V6.104C41.0792 5.28933 40.7412 4.60467 40.0652 4.05C39.4065 3.478 38.4878 3.192 37.3092 3.192C36.3558 3.192 35.6105 3.39133 35.0732 3.79C34.5532 4.18867 34.2932 4.752 34.2932 5.48C34.2932 6 34.4318 6.42467 34.7092 6.754C34.9865 7.08333 35.4025 7.38667 35.9572 7.664C36.5118 7.924 37.3698 8.262 38.5312 8.678C39.7618 9.146 40.7412 9.57067 41.4692 9.952C42.2145 10.3333 42.8472 10.8707 43.3672 11.564C43.9045 12.24 44.1732 13.0893 44.1732 14.112C44.1732 15.672 43.5925 16.9113 42.4312 17.83C41.2872 18.7487 39.7185 19.208 37.7252 19.208ZM62.3216 1.112C62.3216 1.02533 62.3476 0.955999 62.3996 0.903999C62.4689 0.834665 62.5469 0.799999 62.6336 0.799999H65.0256C65.1122 0.799999 65.1816 0.834665 65.2336 0.903999C65.3029 0.955999 65.3376 1.02533 65.3376 1.112V18.688C65.3376 18.7747 65.3029 18.8527 65.2336 18.922C65.1816 18.974 65.1122 19 65.0256 19H62.6336C62.5469 19 62.4689 18.974 62.3996 18.922C62.3476 18.8527 62.3216 18.7747 62.3216 18.688V11.252C62.3216 11.1653 62.2782 11.122 62.1916 11.122H55.5616C55.4749 11.122 55.4316 11.1653 55.4316 11.252V18.688C55.4316 18.7747 55.3969 18.8527 55.3276 18.922C55.2756 18.974 55.2062 19 55.1196 19H52.7276C52.6409 19 52.5629 18.974 52.4936 18.922C52.4416 18.8527 52.4156 18.7747 52.4156 18.688V1.112C52.4156 1.02533 52.4416 0.955999 52.4936 0.903999C52.5629 0.834665 52.6409 0.799999 52.7276 0.799999H55.1196C55.2062 0.799999 55.2756 0.834665 55.3276 0.903999C55.3969 0.955999 55.4316 1.02533 55.4316 1.112V8.392C55.4316 8.47867 55.4749 8.522 55.5616 8.522H62.1916C62.2782 8.522 62.3216 8.47867 62.3216 8.392V1.112ZM79.8903 10.862C79.9596 11.2953 79.9943 11.7807 79.9943 12.318L79.9683 13.124C79.9683 13.332 79.8643 13.436 79.6563 13.436H71.5183C71.4316 13.436 71.3883 13.4793 71.3883 13.566C71.4403 14.138 71.5183 14.528 71.6223 14.736C72.0383 15.984 73.0523 16.6167 74.6643 16.634C75.8429 16.634 76.7789 16.1487 77.4723 15.178C77.5416 15.074 77.6283 15.022 77.7323 15.022C77.8016 15.022 77.8623 15.048 77.9143 15.1L79.5263 16.426C79.6823 16.5473 79.7083 16.686 79.6043 16.842C79.0669 17.6047 78.3476 18.194 77.4463 18.61C76.5623 19.026 75.5743 19.234 74.4823 19.234C73.1303 19.234 71.9776 18.9307 71.0243 18.324C70.0883 17.7173 69.4036 16.868 68.9703 15.776C68.5716 14.84 68.3723 13.54 68.3723 11.876C68.3723 10.8707 68.4763 10.056 68.6843 9.432C69.0309 8.21867 69.6809 7.26533 70.6343 6.572C71.6049 5.86133 72.7663 5.506 74.1183 5.506C77.5329 5.506 79.4569 7.29133 79.8903 10.862ZM74.1183 8.106C73.4769 8.106 72.9396 8.27067 72.5063 8.6C72.0903 8.912 71.7956 9.354 71.6223 9.926C71.5183 10.2207 71.4489 10.602 71.4143 11.07C71.3796 11.1567 71.4143 11.2 71.5183 11.2H76.7963C76.8829 11.2 76.9263 11.1567 76.9263 11.07C76.8916 10.6367 76.8396 10.3073 76.7703 10.082C76.6143 9.458 76.3023 8.97267 75.8343 8.626C75.3836 8.27933 74.8116 8.106 74.1183 8.106ZM87.6937 5.506C88.7857 5.506 89.7477 5.69667 90.5797 6.078C91.4117 6.45933 92.0531 6.988 92.5037 7.664C92.9544 8.32267 93.1797 9.07667 93.1797 9.926V18.688C93.1797 18.7747 93.1451 18.8527 93.0757 18.922C93.0237 18.974 92.9544 19 92.8677 19H90.4757C90.3891 19 90.3111 18.974 90.2417 18.922C90.1897 18.8527 90.1637 18.7747 90.1637 18.688V17.856C90.1637 17.804 90.1464 17.778 90.1117 17.778C90.0771 17.7607 90.0424 17.7693 90.0077 17.804C89.1584 18.74 87.9277 19.208 86.3157 19.208C85.0157 19.208 83.9411 18.8787 83.0917 18.22C82.2597 17.5613 81.8437 16.582 81.8437 15.282C81.8437 13.93 82.3117 12.8813 83.2477 12.136C84.2011 11.3733 85.5357 10.992 87.2517 10.992H90.0337C90.1204 10.992 90.1637 10.9487 90.1637 10.862V10.238C90.1637 9.562 89.9644 9.042 89.5657 8.678C89.1671 8.29667 88.5691 8.106 87.7717 8.106C87.1131 8.106 86.5757 8.22733 86.1597 8.47C85.7611 8.69533 85.5097 9.016 85.4057 9.432C85.3537 9.64 85.2324 9.72667 85.0417 9.692L82.5197 9.38C82.4331 9.36267 82.3551 9.33667 82.2857 9.302C82.2337 9.25 82.2164 9.18933 82.2337 9.12C82.3724 8.06267 82.9357 7.196 83.9237 6.52C84.9291 5.844 86.1857 5.506 87.6937 5.506ZM87.0697 16.816C87.9191 16.816 88.6471 16.5907 89.2537 16.14C89.8604 15.6893 90.1637 15.1173 90.1637 14.424V13.202C90.1637 13.1153 90.1204 13.072 90.0337 13.072H87.8497C86.9311 13.072 86.2031 13.2453 85.6657 13.592C85.1457 13.9387 84.8857 14.4327 84.8857 15.074C84.8857 15.6287 85.0851 16.062 85.4837 16.374C85.8997 16.6687 86.4284 16.816 87.0697 16.816ZM96.5197 19C96.433 19 96.355 18.974 96.2857 18.922C96.2337 18.8527 96.2077 18.7747 96.2077 18.688V1.112C96.2077 1.02533 96.2337 0.955999 96.2857 0.903999C96.355 0.834665 96.433 0.799999 96.5197 0.799999H98.9117C98.9984 0.799999 99.0677 0.834665 99.1197 0.903999C99.189 0.955999 99.2237 1.02533 99.2237 1.112V18.688C99.2237 18.7747 99.189 18.8527 99.1197 18.922C99.0677 18.974 98.9984 19 98.9117 19H96.5197ZM109.474 7.846C109.474 7.93267 109.44 8.01067 109.37 8.08C109.318 8.132 109.249 8.158 109.162 8.158H106.51C106.424 8.158 106.38 8.20133 106.38 8.288V14.554C106.38 15.2127 106.519 15.6893 106.796 15.984C107.091 16.2787 107.55 16.426 108.174 16.426H108.954C109.041 16.426 109.11 16.4607 109.162 16.53C109.232 16.582 109.266 16.6513 109.266 16.738V18.688C109.266 18.8787 109.162 18.9913 108.954 19.026L107.602 19.052C106.233 19.052 105.21 18.818 104.534 18.35C103.858 17.882 103.512 16.998 103.494 15.698V8.288C103.494 8.20133 103.451 8.158 103.364 8.158H101.882C101.796 8.158 101.718 8.132 101.648 8.08C101.596 8.01067 101.57 7.93267 101.57 7.846V6.026C101.57 5.93933 101.596 5.87 101.648 5.818C101.718 5.74867 101.796 5.714 101.882 5.714H103.364C103.451 5.714 103.494 5.67067 103.494 5.584V2.542C103.494 2.45533 103.52 2.386 103.572 2.334C103.642 2.26467 103.72 2.23 103.806 2.23H106.068C106.155 2.23 106.224 2.26467 106.276 2.334C106.346 2.386 106.38 2.45533 106.38 2.542V5.584C106.38 5.67067 106.424 5.714 106.51 5.714H109.162C109.249 5.714 109.318 5.74867 109.37 5.818C109.44 5.87 109.474 5.93933 109.474 6.026V7.846ZM118.523 5.506C119.927 5.506 121.045 5.922 121.877 6.754C122.726 7.586 123.151 8.72133 123.151 10.16V18.688C123.151 18.7747 123.116 18.8527 123.047 18.922C122.995 18.974 122.926 19 122.839 19H120.447C120.36 19 120.282 18.974 120.213 18.922C120.161 18.8527 120.135 18.7747 120.135 18.688V10.784C120.135 9.98667 119.91 9.34533 119.459 8.86C119.008 8.35733 118.41 8.106 117.665 8.106C116.92 8.106 116.313 8.34867 115.845 8.834C115.394 9.31933 115.169 9.96067 115.169 10.758V18.688C115.169 18.7747 115.134 18.8527 115.065 18.922C115.013 18.974 114.944 19 114.857 19H112.465C112.378 19 112.3 18.974 112.231 18.922C112.179 18.8527 112.153 18.7747 112.153 18.688V1.112C112.153 1.02533 112.179 0.955999 112.231 0.903999C112.3 0.834665 112.378 0.799999 112.465 0.799999H114.857C114.944 0.799999 115.013 0.834665 115.065 0.903999C115.134 0.955999 115.169 1.02533 115.169 1.112V6.858C115.169 6.91 115.186 6.94467 115.221 6.962C115.256 6.97933 115.282 6.962 115.299 6.91C116.01 5.974 117.084 5.506 118.523 5.506Z" fill="#858585"></path></svg> 