<svg width="164" height="33" viewBox="0 0 164 33" fill="none" xmlns="http://www.w3.org/2000/svg">
<g clip-path="url(#clip0_803_3037)">
<path d="M102.912 5.67051H103.606L103.028 0.0555932L102.97 0H102.796V0.0555932L102.16 5.67051H102.912ZM106.21 6.05966V6.00407L107.193 1.00068V0.945084L107.019 0.889491L106.962 0.945084L104.821 5.7261L106.21 6.05966ZM105.168 8.22779C105.573 8.22779 105.978 7.89423 105.978 7.44949C105.978 7.00474 105.631 6.67119 105.168 6.67119C104.705 6.67119 104.358 7.00474 104.358 7.44949C104.358 7.89423 104.705 8.22779 105.168 8.22779ZM102.912 7.94983C103.317 7.94983 103.722 7.61627 103.722 7.17152C103.722 6.72678 103.375 6.39322 102.912 6.39322C102.449 6.39322 102.102 6.72678 102.102 7.17152C102.044 7.67186 102.449 7.94983 102.912 7.94983ZM99.6148 6.05966L100.945 5.7261H101.003L98.8049 0.945084L98.7471 0.889491L98.6314 0.945084L98.5735 1.00068L99.557 6.00407L99.6148 6.05966H99.6148ZM99.7884 7.3939C99.7884 7.83864 100.135 8.1722 100.598 8.1722C101.003 8.1722 101.408 7.83864 101.408 7.3939C101.408 6.94915 101.061 6.61559 100.598 6.61559C100.193 6.67119 99.7884 7.00474 99.7884 7.3939ZM6.99965 9.61763H0C0 9.61763 0.173545 11.2298 0.173545 14.0095V28.0746C0.173545 30.8542 0 32.4664 0 32.4664L0.0578483 32.522H4.62787V32.4664C4.62787 32.4664 4.45432 30.8542 4.45432 28.0746V23.9607L4.51217 23.9051C5.1485 23.9607 6.53686 24.0163 6.99965 24.0163C11.6854 24.0163 15.7347 21.2922 15.7347 16.6224C15.6769 12.1749 11.6275 9.61763 6.99965 9.61763ZM6.76825 20.2915C6.24762 20.2915 4.97496 20.2359 4.45432 20.1247V13.3424H7.11535C9.48713 13.3424 11.3383 14.2319 11.3383 16.6224C11.3383 19.0129 9.71853 20.2915 6.76826 20.2915L6.76825 20.2915ZM28.6928 11.4522C28.1721 10.2847 27.9986 9.61763 27.9986 9.61763L27.9407 9.56203H24.2963L24.2384 9.61763C24.2384 9.61763 24.1227 10.2847 23.6021 11.4522L15.5612 30.0203C14.867 31.577 14.1728 32.4664 14.1728 32.4664V32.522H18.8586L18.9164 32.4664C18.9164 32.3553 19.0321 31.7993 19.6106 30.4095L21.0568 26.9071H31.4116L32.9735 30.4095C33.4942 31.7437 33.7834 32.4664 33.7834 32.4664L33.8413 32.522H38.527V32.4664C38.527 32.4664 37.8907 31.6325 37.1386 30.0203L28.6928 11.4522V11.4522ZM22.6765 23.1268L26.0317 15.0658H26.0896L29.734 23.1268H22.6765ZM62.0134 9.61763L57.8483 9.56203L57.7905 9.61763C57.7905 9.61763 57.964 11.2298 57.964 14.0095V25.5173H57.9062L45.0638 9.61763H40.4938C41.0145 10.6739 41.3037 11.3966 41.3037 11.8969V28.0746C41.3037 30.8542 41.1302 32.4664 41.1302 32.4664L41.188 32.522H45.3531L45.4109 32.4664C45.4109 32.4664 45.2374 30.8542 45.2374 28.0746V16.3444H45.2952L58.1954 32.4664H62.0713L62.1291 32.4108C62.1291 32.4108 61.9556 30.7986 61.9556 28.019V14.0095C61.8399 11.2298 62.0134 9.61763 62.0134 9.61763H62.0134ZM74.9714 9.61763H66.9884L66.9305 9.67322C66.9305 9.67322 67.104 11.2854 67.104 14.0651V28.1302C67.104 30.9098 66.9305 32.522 66.9305 32.522L66.9884 32.5776H69.418C71.0377 32.5776 72.831 32.8 74.8557 32.8C82.1446 32.8 87.351 27.8522 87.351 21.181C87.351 14.3987 82.3182 9.61763 74.9714 9.61763V9.61763ZM74.6822 28.9085C73.5252 28.9085 72.4839 28.8529 71.8476 28.6861C71.5005 28.5749 71.3848 28.4637 71.3848 27.8522V13.3424H74.5665C79.715 13.3424 83.0123 16.678 83.0123 21.1254C83.0123 25.5173 79.715 28.9085 74.6822 28.9085H74.6822ZM102.912 9.28407C96.0282 9.28407 90.7062 14.3986 90.7062 21.0142C90.7062 27.6854 96.0282 32.7444 102.912 32.7444C109.854 32.7444 115.118 27.6854 115.118 21.0142C115.118 14.3986 109.854 9.28407 102.912 9.28407ZM102.912 29.0197C98.5157 29.0197 95.0448 25.5729 95.0448 21.0698C95.0448 16.5668 98.4578 13.12 102.912 13.12C107.366 13.12 110.78 16.5668 110.78 21.0698C110.78 25.5173 107.366 29.0197 102.912 29.0197ZM132.068 24.739C131.489 23.8495 130.622 23.1268 129.696 22.8488V22.7932C132.183 22.2929 134.497 19.5132 134.497 16.7336C134.497 12.9532 131.489 9.61763 126.804 9.61763H119.168L119.11 9.67322C119.11 9.67322 119.283 11.2854 119.283 14.0651V28.1302C119.283 30.9098 119.11 32.522 119.11 32.522L119.168 32.5776H123.738L123.795 32.522C123.795 32.522 123.622 30.9098 123.622 28.1302V23.7383C125.878 23.7383 126.804 24.1831 127.613 25.4061L129.58 28.3525C131.2 30.8542 131.836 32.4109 131.836 32.4109L131.894 32.4664H137.332V32.4109C137.332 32.4109 135.944 30.7987 134.382 28.3525L132.068 24.739ZM125.762 20.0692C125.242 20.0692 124.258 20.0692 123.622 19.958V13.3424H126.225C128.77 13.3424 130.159 14.9546 130.159 16.7892C130.159 18.5125 128.77 20.0692 125.762 20.0692V20.0692ZM162.612 30.0203L154.166 11.4522C153.645 10.2847 153.472 9.61763 153.472 9.61763L153.414 9.56203H149.711L149.654 9.61763C149.654 9.61763 149.538 10.2847 149.017 11.4522L141.034 30.0203C140.34 31.577 139.646 32.4664 139.646 32.4664V32.522H144.332L144.389 32.4664C144.389 32.3553 144.505 31.7993 145.084 30.4095L146.53 26.9071H156.885L158.447 30.4095C158.967 31.7437 159.256 32.4664 159.256 32.4664L159.314 32.522H164V32.4664C164 32.4664 163.364 31.6325 162.612 30.0203ZM148.15 23.1268L151.505 15.0658H151.563L155.207 23.1268H148.15Z" fill="black"/>
</g>
<defs>
<clipPath id="clip0_803_3037">
<rect width="164" height="32.8" fill="white"/>
</clipPath>
</defs>
</svg>
