<svg width="94" height="48" viewBox="0 0 94 48" fill="none" xmlns="http://www.w3.org/2000/svg">
<path d="M19.3047 19.7038V24.9808C19.3047 25.1521 19.4483 25.2977 19.6173 25.2977C19.668 25.2977 19.7271 25.2806 19.7694 25.2549L24.2811 22.6164C24.4332 22.5308 24.4839 22.3337 24.3994 22.1881C24.374 22.1367 24.3318 22.1024 24.2811 22.0682L19.7694 19.4297C19.6173 19.344 19.4314 19.3954 19.3469 19.5496C19.3131 19.601 19.3047 19.6524 19.3047 19.7038Z" fill="#90A5B1"/>
<path d="M9.20808 27.6623V22.3853C9.20808 22.214 9.07289 22.0684 8.89547 22.0684C8.83633 22.0684 8.78563 22.0855 8.73494 22.1112L4.23168 24.7497C4.0796 24.8353 4.0289 25.0324 4.12184 25.1866C4.14719 25.238 4.18943 25.2722 4.23168 25.2979L8.74339 27.9364C8.89547 28.0221 9.08134 27.9707 9.16583 27.8165C9.19118 27.7736 9.20808 27.7137 9.20808 27.6623Z" fill="#90A5B1"/>
<path d="M11.6921 24.1498V29.4268C11.6921 29.5981 11.8358 29.7438 12.0047 29.7438C12.0554 29.7438 12.1146 29.7266 12.1568 29.7009L16.6601 27.0625C16.8122 26.9768 16.8629 26.7798 16.7699 26.6341C16.7446 26.5827 16.7023 26.5485 16.6601 26.5228L12.1568 23.8843C12.0047 23.7986 11.8189 23.85 11.7344 24.0042C11.709 24.047 11.6921 24.0984 11.6921 24.1498Z" fill="#90A5B1"/>
<path d="M16.8375 23.2245V17.9476C16.8375 17.7762 16.6938 17.6306 16.5249 17.6306C16.4742 17.6306 16.415 17.6477 16.3728 17.6734L11.8611 20.3119C11.709 20.3976 11.6583 20.5946 11.7512 20.7403C11.7766 20.7917 11.8188 20.8259 11.8611 20.8516L16.3728 23.4901C16.5249 23.5758 16.7107 23.5244 16.7952 23.3787C16.829 23.3359 16.8375 23.2845 16.8375 23.2245Z" fill="#90A5B1"/>
<path d="M45.0061 29.7524H43.6627C43.4684 29.7524 43.3079 29.5896 43.3079 29.3926V21.3058C43.3079 21.1088 43.4684 20.946 43.6627 20.946H45.0061C45.2004 20.946 45.3609 21.1088 45.3609 21.3058V29.4012C45.3609 29.5982 45.2004 29.7524 45.0061 29.7524Z" fill="#90A5B1"/>
<path d="M51.4527 19.9182C54.3929 19.9182 56.0573 22.0341 56.0573 24.9896V25.2294C56.0573 25.4265 55.8968 25.5892 55.7025 25.5892H48.9856C48.8842 25.5892 48.8082 25.6663 48.8082 25.7691V25.8034C49.0785 27.294 50.3121 28.0478 51.6216 28.0478C52.551 28.0564 53.4551 27.7137 54.1479 27.0969C54.2915 26.9684 54.5196 26.9856 54.6464 27.1398L55.4321 28.0906C55.5504 28.2363 55.5419 28.4504 55.4068 28.5789C54.4858 29.427 53.2776 29.9838 51.647 29.9838C48.6138 29.9838 46.7044 27.945 46.7044 24.9896C46.6959 22.1712 48.5293 19.9182 51.4527 19.9182ZM51.4104 21.7686C49.991 21.7686 49.1377 22.5224 48.8419 23.7988C48.8166 23.8931 48.8757 23.9873 48.9771 24.013C48.9856 24.013 49.0025 24.0216 49.0109 24.0216H53.6156C53.717 24.0216 53.793 23.9445 53.793 23.8417C53.793 23.8331 53.793 23.8245 53.793 23.816C53.5987 22.591 52.8129 21.7686 51.4104 21.7686Z" fill="#90A5B1"/>
<path d="M74.0789 19.9182C77.0191 19.9182 78.6835 22.0341 78.6835 24.9896V25.2294C78.6835 25.4265 78.523 25.5892 78.3287 25.5892H71.6118C71.5189 25.5892 71.4344 25.6749 71.4428 25.7691V25.7948C71.7132 27.2854 72.9467 28.0392 74.2563 28.0392C75.1857 28.0478 76.0813 27.7052 76.7825 27.0884C76.9262 26.9599 77.1543 26.977 77.281 27.1312L78.0668 28.0821C78.185 28.2277 78.1766 28.4419 78.033 28.5704C77.112 29.4185 75.9038 29.9753 74.2732 29.9753C71.24 29.9753 69.3306 27.9365 69.3306 24.981C69.3221 22.1712 71.164 19.9182 74.0789 19.9182ZM74.0366 21.7686C72.6172 21.7686 71.7639 22.5224 71.4682 23.7988C71.4428 23.8931 71.502 23.9873 71.6034 24.013C71.6118 24.013 71.6287 24.0216 71.6371 24.0216H76.2418C76.3432 24.0216 76.4192 23.9445 76.4192 23.8417C76.4192 23.8331 76.4192 23.8245 76.4192 23.816C76.2249 22.591 75.4391 21.7686 74.0366 21.7686Z" fill="#90A5B1"/>
<path d="M59.1327 29.7519H57.7555C57.5612 29.7519 57.4006 29.5892 57.4006 29.3921V17.9987C57.4006 17.8017 57.5612 17.6389 57.7555 17.6389H59.1327C59.327 17.6389 59.4875 17.8017 59.4875 17.9987V29.4007C59.4875 29.5977 59.327 29.7519 59.1327 29.7519Z" fill="#90A5B1"/>
<path d="M64.6075 19.9182C66.1705 19.9182 67.328 20.4322 68.1391 21.4002C68.2658 21.5544 68.249 21.7771 68.0969 21.9056L67.1337 22.728C66.9901 22.848 66.7873 22.8394 66.6606 22.7109C66.1198 22.1626 65.3932 21.8285 64.4554 21.8285C63.5091 21.8285 62.9177 22.1712 62.9177 22.788C62.9177 23.439 63.5429 23.5932 65.1566 23.9787C67.0492 24.4413 68.3757 24.9981 68.3757 26.9342C68.3757 28.913 66.9732 29.9838 64.5314 29.9838C62.8839 29.9838 61.2786 29.3328 60.4591 28.2705C60.3492 28.1249 60.3661 27.9108 60.5013 27.7823L61.456 26.9256C61.5997 26.7971 61.8278 26.8142 61.9545 26.9599C62.5459 27.6281 63.4331 28.0992 64.6835 28.0992C65.6889 28.0992 66.2888 27.7566 66.2888 27.0455C66.2888 26.3345 65.7058 26.1889 64.1935 25.8377C62.5628 25.4693 60.8393 24.8953 60.8393 22.8565C60.8393 21.0319 62.2756 19.9182 64.6075 19.9182Z" fill="#90A5B1"/>
<path d="M80.3732 20.1492H81.6574C81.8517 20.1492 82.0122 20.312 82.0122 20.509V21.0744C82.0122 21.1687 82.0883 21.2543 82.1897 21.2543C82.2404 21.2543 82.2911 21.2286 82.3249 21.1944C83.0346 20.3463 84.0062 19.9265 85.1383 19.9265C87.3181 19.9265 88.5686 21.3657 88.5686 23.8671V29.4096C88.5686 29.6067 88.4081 29.7694 88.2137 29.7694H86.8366C86.6422 29.7694 86.4817 29.6067 86.4817 29.4096V24.2269C86.4817 22.7106 85.7636 21.8882 84.4202 21.8882C82.8825 21.8882 82.0714 23.0362 82.0714 25.2292V29.4096C82.0714 29.6067 81.9109 29.7694 81.7165 29.7694H80.3732C80.1788 29.7694 80.0183 29.6067 80.0183 29.4096V20.509C80.0268 20.312 80.1788 20.1492 80.3732 20.1492Z" fill="#90A5B1"/>
<path d="M43.0543 18.8299C43.029 18.136 43.5697 17.5535 44.2456 17.5364H44.3301C45.0736 17.5364 45.6059 18.0846 45.6059 18.8299C45.6059 19.5752 45.0652 20.1235 44.3301 20.1235C43.5951 20.1235 43.0543 19.5838 43.0543 18.8299Z" fill="#90A5B1"/>
<path d="M29.9164 17.6389H31.3527C31.5555 17.6389 31.7498 17.7246 31.885 17.8788L38.9905 26.1026C39.0581 26.1797 39.1679 26.1883 39.2355 26.1197C39.2778 26.0855 39.2947 26.0341 39.2947 25.9827V17.9987C39.2947 17.8017 39.4552 17.6475 39.6411 17.6389H41.0943C41.2886 17.6389 41.4491 17.8017 41.4491 17.9987V29.4007C41.4491 29.5977 41.2886 29.7605 41.0943 29.7605H39.6326C39.4298 29.7605 39.2355 29.6748 39.1003 29.5121L32.0286 21.3054C31.961 21.2283 31.8512 21.2197 31.7836 21.2882C31.7413 21.3225 31.7244 21.3739 31.7244 21.4253V29.4007C31.7244 29.5977 31.5639 29.7605 31.3696 29.7605H29.9164C29.7221 29.7605 29.5615 29.5977 29.5615 29.4007V17.9987C29.5615 17.8017 29.7221 17.6389 29.9164 17.6389Z" fill="#90A5B1"/>
</svg>
