<svg width="109" height="39" viewBox="0 0 109 39" fill="none" xmlns="http://www.w3.org/2000/svg">
<path fill-rule="evenodd" clip-rule="evenodd" d="M104.733 1.2181C103.391 1.2181 102.298 2.3097 102.298 3.6529C102.298 4.9961 103.39 6.089 104.733 6.089C106.077 6.089 107.169 4.9961 107.169 3.6529C107.169 2.311 106.077 1.2181 104.733 1.2181ZM104.125 0C106.479 0 108.387 1.9071 108.387 4.2619C108.387 6.6168 106.477 8.5252 104.125 8.5252C101.77 8.5252 99.862 6.6155 99.862 4.2619C99.862 1.9071 101.772 0 104.125 0ZM96.209 38.9703V0H92.359L85.249 6.2439V10.6955L92.359 4.3432V38.9703H96.209ZM77.19 36.0981C80.041 33.3342 80.377 29.7019 80.377 25.8542C80.377 22.2232 79.986 18.32 77.077 15.5019C75.512 13.9845 73.163 13.0632 70.2 13.0632C67.068 13.0632 64.606 14.0387 63.041 15.7187V3.4697H79.539V0H59.406V20.271H63.041C63.825 17.9948 66.173 16.4774 69.64 16.4774C75.4 16.4774 76.35 21.1381 76.35 25.8542C76.35 28.618 76.239 31.7084 74.169 33.7123C72.995 34.8516 71.206 35.5019 69.249 35.5019C65.055 35.5019 62.986 33.3342 62.483 29.4864H58.457C58.679 32.2503 59.519 34.4723 61.252 36.2065C62.986 37.8865 65.781 38.9703 69.249 38.9703C72.772 38.9703 75.345 37.8865 77.19 36.0981ZM46.2774 38.9703H52.3678V32.8813H46.2774V38.9716V38.9703ZM38.9703 33.2013L22.4258 33.2V26.3355L36.1161 0H9.7419C14.3355 1.471 17.649 5.2387 17.649 10.6232C17.649 14.8594 15.1458 17.4774 13.1006 18.871C15.3174 20.32 18.2168 22.9394 18.2168 27.7871C18.2168 33.6787 14.8103 37.5006 9.9987 38.9703H38.9703V33.2013ZM5.48 32.8813C8.5548 32.8813 10.96 30.489 10.96 27.4284C10.96 24.3703 8.5548 21.9213 5.48 21.9213C2.4052 21.9213 0 24.369 0 27.4284C0 30.489 2.4052 32.8813 5.48 32.8813ZM6.1174 15.8322C8.9239 15.8322 10.96 13.7755 10.96 10.9613C10.96 8.2 8.9239 6.089 6.1174 6.089C3.3097 6.089 1.2181 8.2013 1.2181 10.9613C1.2181 13.7742 3.3084 15.8322 6.1174 15.8322ZM43.9406 0H48.7136V26.7923H45.8013V19.2516H38.7948V26.7923H30.4464L43.9406 0Z" fill="#999999"/>
</svg>
