<svg width="47" height="24" viewBox="0 0 47 24" fill="none" xmlns="http://www.w3.org/2000/svg">
<path d="M25.6047 8.73954H26.1339L27.6422 7.19431L27.7163 6.53826C26.8522 5.75694 25.808 5.21419 24.6823 4.96127C23.5565 4.70835 22.3864 4.75362 21.2825 5.09279C20.1786 5.43196 19.1773 6.05384 18.3732 6.89969C17.5691 7.74554 16.9888 8.78742 16.687 9.92693C16.855 9.85637 17.0412 9.84493 17.2162 9.8944L20.2329 9.38474C20.2329 9.38474 20.3864 9.12449 20.4658 9.14076C21.1121 8.41351 22.0054 7.96687 22.9627 7.89228C23.92 7.81769 24.8689 8.1208 25.6152 8.73954H25.6047Z" fill="#EA4335"/>
<path d="M29.7905 9.9272C29.4438 8.61924 28.732 7.4434 27.7424 6.54395L25.6254 8.71269C26.0666 9.08201 26.4202 9.54915 26.6595 10.0789C26.8987 10.6086 27.0175 11.187 27.0067 11.7706V12.1556C27.2541 12.1556 27.4991 12.2055 27.7277 12.3025C27.9563 12.3995 28.164 12.5417 28.339 12.7209C28.5139 12.9002 28.6527 13.1129 28.7474 13.3471C28.8421 13.5813 28.8908 13.8323 28.8908 14.0858C28.8908 14.3392 28.8421 14.5902 28.7474 14.8244C28.6527 15.0586 28.5139 15.2714 28.339 15.4506C28.164 15.6299 27.9563 15.772 27.7277 15.869C27.4991 15.966 27.2541 16.016 27.0067 16.016H23.2386L22.8628 16.4063V18.7215L23.2386 19.1064H27.0067C28.059 19.1148 29.0859 18.776 29.9356 18.1401C30.7853 17.5042 31.4127 16.605 31.7249 15.5756C32.0371 14.5461 32.0176 13.441 31.6692 12.4237C31.3209 11.4065 30.6621 10.5312 29.7905 9.9272Z" fill="#4285F4"/>
<path d="M19.4653 19.084H23.2334V15.9936H19.4653C19.1968 15.9935 18.9315 15.9343 18.6873 15.8201L18.1581 15.9881L16.6391 17.5334L16.5068 18.0756C17.3586 18.7345 18.3979 19.0888 19.4653 19.084Z" fill="#34A853"/>
<path d="M19.4652 9.05985C18.4442 9.06609 17.4506 9.39888 16.6232 10.0117C15.7958 10.6245 15.1759 11.4868 14.85 12.4781C14.5242 13.4694 14.5087 14.5402 14.8057 15.541C15.1027 16.5417 15.6974 17.4225 16.5068 18.0602L18.6925 15.8209C18.4148 15.6924 18.1716 15.4967 17.9839 15.2507C17.7962 15.0047 17.6695 14.7157 17.6148 14.4085C17.5601 14.1013 17.5789 13.7851 17.6697 13.487C17.7605 13.1889 17.9205 12.9179 18.136 12.6971C18.3515 12.4763 18.6161 12.3124 18.9071 12.2193C19.198 12.1263 19.5067 12.107 19.8065 12.1631C20.1064 12.2192 20.3885 12.3489 20.6286 12.5412C20.8687 12.7335 21.0597 12.9827 21.1852 13.2672L23.371 11.028C22.9122 10.4136 22.3209 9.91618 21.6434 9.57475C20.9658 9.23332 20.2203 9.05709 19.4652 9.05985Z" fill="#FBBC05"/>
</svg>
