<svg width="265" height="97" viewBox="0 0 265 97" fill="none" xmlns="http://www.w3.org/2000/svg">
<path d="M136.961 42.754L129.262 60.3972V60.4412H125.874V60.3972L119.846 46.5818L113.774 60.3972V60.4412H110.387V60.3972L102.687 42.754H106.075L112.103 56.5254L118.13 42.754H121.518L127.546 56.5254L133.573 42.754H136.961ZM145.453 60.6612C140.393 60.6612 136.301 56.5694 136.301 51.5976C136.301 46.5818 140.393 42.534 145.453 42.534C150.513 42.534 154.604 46.6258 154.604 51.5976V53.1375H139.601C140.305 55.7334 142.637 57.6253 145.453 57.6253V60.6612ZM139.601 50.0577H151.349C150.645 47.4618 148.313 45.5699 145.497 45.5699C142.681 45.5699 140.305 47.5058 139.601 50.0577ZM165.076 42.534C169.828 42.534 173.656 46.3618 173.656 51.0256V60.4412H170.576V51.0256C170.576 48.0338 168.112 45.5699 165.076 45.5699C162.04 45.5699 159.576 47.9898 159.576 51.0256V60.4412H156.496V38.2222H159.576V44.4699C161.116 43.194 163.052 42.534 165.076 42.534ZM188.835 55.7774C189.671 56.5694 191.211 57.6693 192.179 57.6693V60.7491C189.627 60.7491 186.943 58.2413 186.679 57.9773L186.635 57.9333C185.271 56.4814 182.235 53.2695 181.135 52.1696L179.155 54.0615V60.4852H176.075V38.2662H179.155V49.7937L186.547 42.798H191.035L183.379 50.0577C184.391 51.1136 187.471 54.3255 188.835 55.7774ZM210.218 56.0854C210.218 57.1413 211.054 58.1973 211.406 58.5053L209.294 60.7491C209.118 60.6172 208.062 59.6052 207.49 58.0653C205.774 59.7372 203.442 60.7052 201.066 60.7052C196.007 60.7052 191.915 56.6134 191.915 51.6416C191.915 46.6258 196.007 42.578 201.066 42.578C203.398 42.578 205.51 43.458 207.138 44.8659V42.842H210.218V56.0854ZM201.022 57.6253C204.366 57.6253 207.094 54.9414 207.094 51.5976C207.094 48.2977 204.366 45.5699 201.022 45.5699C197.678 45.5699 194.951 48.2537 194.951 51.5976C194.951 54.8974 197.678 57.6253 201.022 57.6253ZM235.693 42.534C240.444 42.534 244.272 46.3618 244.272 51.0256V60.4412H241.192V51.0256C241.192 48.0338 238.728 45.5699 235.693 45.5699C232.657 45.5699 230.193 47.9898 230.193 51.0256V60.4412H227.113V51.0256C227.113 48.0338 224.649 45.5699 221.613 45.5699C218.577 45.5699 216.114 47.9898 216.114 51.0256V60.4412H213.034V42.754H216.114V44.4699C217.653 43.194 219.589 42.49 221.613 42.49C224.517 42.49 227.113 43.942 228.653 46.1419C230.281 43.898 232.877 42.534 235.693 42.534ZM255.844 42.534C260.903 42.534 264.995 46.6258 264.995 51.5976C264.995 56.6133 260.903 60.6612 255.844 60.6612C253.6 60.6612 251.444 59.8692 249.772 58.3733V64.929H246.692V42.71H249.772V44.7779C251.444 43.326 253.6 42.534 255.844 42.534ZM255.844 57.6253C259.188 57.6253 261.915 54.9414 261.915 51.5976C261.915 48.2977 259.188 45.5699 255.844 45.5699C252.5 45.5699 249.772 48.2537 249.772 51.5976C249.772 54.9414 252.5 57.6253 255.844 57.6253ZM48.0416 1C74.0003 1 95.0753 22.031 95.0753 48.0338C95.0753 73.9925 74.0443 95.0675 48.0416 95.0675C22.0388 95.0675 1.00781 73.9925 1.00781 48.0338C1.00781 22.075 22.0388 1 48.0416 1ZM83.5039 31.9745H76.5082L64.0128 60.7931L51.5174 31.9745H44.4777L31.9823 60.7931L19.4869 31.9745H12.5793L28.5505 68.8008L28.5065 68.8888H35.5462L35.5022 68.8008L47.9976 39.9381L60.493 68.8008L60.449 68.8888H67.4886L67.4446 68.8008L83.5039 31.9745Z" fill="#FF5555"/>
</svg>
