<svg width="136" height="48" viewBox="0 0 136 48" fill="none" xmlns="http://www.w3.org/2000/svg">
<path fill-rule="evenodd" clip-rule="evenodd" d="M98.226 15.361V11.611L92.89 11.106L94.044 14.279L98.226 15.361V15.361Z" fill="#7F7F7F"/>
<path fill-rule="evenodd" clip-rule="evenodd" d="M98.226 15.361V11.611L92.89 11.106L94.044 14.279L98.226 15.361V15.361Z" fill="black" fill-opacity="0.2"/>
<path fill-rule="evenodd" clip-rule="evenodd" d="M98.226 10.962V6.563H91.303L92.673 10.241L98.226 10.962V10.962Z" fill="#7F7F7F"/>
<path fill-rule="evenodd" clip-rule="evenodd" d="M98.226 10.962V6.563H91.303L92.673 10.241L98.226 10.962V10.962Z" fill="black" fill-opacity="0.2"/>
<path fill-rule="evenodd" clip-rule="evenodd" d="M98.226 19.472V16.01L94.404 14.928L95.558 17.957L98.226 19.471V19.472Z" fill="#7F7F7F"/>
<path fill-rule="evenodd" clip-rule="evenodd" d="M98.226 19.472V16.01L94.404 14.928L95.558 17.957L98.226 19.471V19.472Z" fill="black" fill-opacity="0.2"/>
<path fill-rule="evenodd" clip-rule="evenodd" d="M98.226 22.934V20.194L95.846 18.824L96.712 21.276L98.226 22.935V22.934Z" fill="#7F7F7F"/>
<path fill-rule="evenodd" clip-rule="evenodd" d="M98.226 22.934V20.194L95.846 18.824L96.712 21.276L98.226 22.935V22.934Z" fill="black" fill-opacity="0.2"/>
<path fill-rule="evenodd" clip-rule="evenodd" d="M98.226 25.386V23.944L97.289 22.934L98.226 25.386Z" fill="#7F7F7F"/>
<path fill-rule="evenodd" clip-rule="evenodd" d="M98.226 25.386V23.944L97.289 22.934L98.226 25.386Z" fill="black" fill-opacity="0.2"/>
<path fill-rule="evenodd" clip-rule="evenodd" d="M92.024 10.313L90.654 6.635H83.514L86.183 9.664L92.024 10.313Z" fill="#7F7F7F"/>
<path fill-rule="evenodd" clip-rule="evenodd" d="M92.024 10.313L90.654 6.635H83.514L86.183 9.664L92.024 10.313Z" fill="black" fill-opacity="0.2"/>
<path fill-rule="evenodd" clip-rule="evenodd" d="M90.51 5.986L88.274 0.0719986H77.601L82.937 5.986H90.51V5.986Z" fill="#7F7F7F"/>
<path fill-rule="evenodd" clip-rule="evenodd" d="M90.51 5.986L88.274 0.0719986H77.601L82.937 5.986H90.51V5.986Z" fill="black" fill-opacity="0.2"/>
<path fill-rule="evenodd" clip-rule="evenodd" d="M95.053 18.318L93.25 17.308L95.558 19.904L95.053 18.317V18.318Z" fill="#7F7F7F"/>
<path fill-rule="evenodd" clip-rule="evenodd" d="M95.053 18.318L93.25 17.308L95.558 19.904L95.053 18.317V18.318Z" fill="black" fill-opacity="0.2"/>
<path fill-rule="evenodd" clip-rule="evenodd" d="M94.693 17.525L93.611 14.857L89.861 13.775L91.952 16.011L94.693 17.526V17.525Z" fill="#7F7F7F"/>
<path fill-rule="evenodd" clip-rule="evenodd" d="M94.693 17.525L93.611 14.857L89.861 13.775L91.952 16.011L94.693 17.526V17.525Z" fill="black" fill-opacity="0.2"/>
<path fill-rule="evenodd" clip-rule="evenodd" d="M90.149 15.001L88.706 13.414L87.192 12.981L89.644 14.784L90.149 15V15.001Z" fill="#7F7F7F"/>
<path fill-rule="evenodd" clip-rule="evenodd" d="M90.149 15.001L88.706 13.414L87.192 12.981L89.644 14.784L90.149 15V15.001Z" fill="black" fill-opacity="0.2"/>
<path fill-rule="evenodd" clip-rule="evenodd" d="M88.995 12.765L93.394 14.063L92.24 10.89L86.759 10.241L88.995 12.765V12.765Z" fill="#7F7F7F"/>
<path fill-rule="evenodd" clip-rule="evenodd" d="M88.995 12.765L93.394 14.063L92.24 10.89L86.759 10.241L88.995 12.765V12.765Z" fill="black" fill-opacity="0.2"/>
<path fill-rule="evenodd" clip-rule="evenodd" d="M66.927 3.245L73.994 5.913H82.072L76.663 0H56.83L66.927 3.245V3.245Z" fill="#7F7F7F"/>
<path fill-rule="evenodd" clip-rule="evenodd" d="M66.927 3.245L73.994 5.913H82.072L76.663 0H56.83L66.927 3.245V3.245Z" fill="black" fill-opacity="0.2"/>
<path fill-rule="evenodd" clip-rule="evenodd" d="M98.226 5.986V0.0719986H88.923L91.086 5.986H98.226V5.986Z" fill="#7F7F7F"/>
<path fill-rule="evenodd" clip-rule="evenodd" d="M98.226 5.986V0.0719986H88.923L91.086 5.986H98.226V5.986Z" fill="black" fill-opacity="0.2"/>
<path fill-rule="evenodd" clip-rule="evenodd" d="M81.928 9.736L85.389 11.755L87.841 12.548L85.822 10.24L81.928 9.735V9.736Z" fill="#7F7F7F"/>
<path fill-rule="evenodd" clip-rule="evenodd" d="M81.928 9.736L85.389 11.755L87.841 12.548L85.822 10.24L81.928 9.735V9.736Z" fill="black" fill-opacity="0.2"/>
<path fill-rule="evenodd" clip-rule="evenodd" d="M85.173 9.52L82.649 6.563H75.581L80.341 8.871L85.173 9.52Z" fill="#7F7F7F"/>
<path fill-rule="evenodd" clip-rule="evenodd" d="M85.173 9.52L82.649 6.563H75.581L80.341 8.871L85.173 9.52Z" fill="black" fill-opacity="0.2"/>
<path fill-rule="evenodd" clip-rule="evenodd" d="M120.8 21.78L127.363 14.857L116.04 13.631L112.218 19.328L120.8 21.78V21.78Z" fill="#7F7F7F"/>
<path fill-rule="evenodd" clip-rule="evenodd" d="M120.8 21.78L127.363 14.857L116.04 13.631L112.218 19.328L120.8 21.78V21.78Z" fill="black" fill-opacity="0.2"/>
<path fill-rule="evenodd" clip-rule="evenodd" d="M105.727 12.405L98.948 11.612V15.507L103.996 16.949L105.727 12.405V12.405Z" fill="#7F7F7F"/>
<path fill-rule="evenodd" clip-rule="evenodd" d="M105.727 12.405L98.948 11.612V15.507L103.996 16.949L105.727 12.405V12.405Z" fill="black" fill-opacity="0.2"/>
<path fill-rule="evenodd" clip-rule="evenodd" d="M98.948 6.563V11.034L105.943 11.827L107.89 6.634H98.948V6.562V6.563Z" fill="#7F7F7F"/>
<path fill-rule="evenodd" clip-rule="evenodd" d="M98.948 6.563V11.034L105.943 11.827L107.89 6.634H98.948V6.562V6.563Z" fill="black" fill-opacity="0.2"/>
<path fill-rule="evenodd" clip-rule="evenodd" d="M106.304 12.477L104.717 17.165L111.569 19.112L115.319 13.487L106.304 12.477V12.477Z" fill="#7F7F7F"/>
<path fill-rule="evenodd" clip-rule="evenodd" d="M106.304 12.477L104.717 17.165L111.569 19.112L115.319 13.487L106.304 12.477V12.477Z" fill="black" fill-opacity="0.2"/>
<path fill-rule="evenodd" clip-rule="evenodd" d="M98.948 19.833L102.409 21.852L103.852 17.597L98.948 16.227V19.833V19.833Z" fill="#7F7F7F"/>
<path fill-rule="evenodd" clip-rule="evenodd" d="M98.948 19.833L102.409 21.852L103.852 17.597L98.948 16.227V19.833V19.833Z" fill="black" fill-opacity="0.2"/>
<path fill-rule="evenodd" clip-rule="evenodd" d="M98.948 20.554V23.655L100.967 25.891L102.193 22.357L98.948 20.554Z" fill="#7F7F7F"/>
<path fill-rule="evenodd" clip-rule="evenodd" d="M98.948 20.554V23.655L100.967 25.891L102.193 22.357L98.948 20.554Z" fill="black" fill-opacity="0.2"/>
<path fill-rule="evenodd" clip-rule="evenodd" d="M104.501 17.813L102.986 22.068L107.818 24.736L111.208 19.688L104.501 17.813Z" fill="#7F7F7F"/>
<path fill-rule="evenodd" clip-rule="evenodd" d="M104.501 17.813L102.986 22.068L107.818 24.736L111.208 19.688L104.501 17.813Z" fill="black" fill-opacity="0.2"/>
<path fill-rule="evenodd" clip-rule="evenodd" d="M106.665 11.9L115.824 12.982L120.079 6.635H108.54L106.665 11.9Z" fill="#7F7F7F"/>
<path fill-rule="evenodd" clip-rule="evenodd" d="M106.665 11.9L115.824 12.982L120.079 6.635H108.54L106.665 11.9Z" fill="black" fill-opacity="0.2"/>
<path fill-rule="evenodd" clip-rule="evenodd" d="M108.323 25.025L114.381 28.342L120.223 22.284L111.785 19.904L108.323 25.025V25.025Z" fill="#7F7F7F"/>
<path fill-rule="evenodd" clip-rule="evenodd" d="M108.323 25.025L114.381 28.342L120.223 22.284L111.785 19.904L108.323 25.025V25.025Z" fill="black" fill-opacity="0.2"/>
<path fill-rule="evenodd" clip-rule="evenodd" d="M113.948 28.848L107.962 25.603L104.861 30.219L108.612 34.474L113.948 28.849V28.848Z" fill="#7F7F7F"/>
<path fill-rule="evenodd" clip-rule="evenodd" d="M113.948 28.848L107.962 25.603L104.861 30.219L108.612 34.474L113.948 28.849V28.848Z" fill="black" fill-opacity="0.2"/>
<path fill-rule="evenodd" clip-rule="evenodd" d="M104.429 29.713L107.53 25.242L102.842 22.646L101.472 26.396L104.429 29.714V29.713Z" fill="#7F7F7F"/>
<path fill-rule="evenodd" clip-rule="evenodd" d="M104.429 29.713L107.53 25.242L102.842 22.646L101.472 26.396L104.429 29.714V29.713Z" fill="black" fill-opacity="0.2"/>
<path fill-rule="evenodd" clip-rule="evenodd" d="M101.183 27.117L100.102 30.218L101.472 34.113L103.996 30.291L101.183 27.118V27.117Z" fill="#7F7F7F"/>
<path fill-rule="evenodd" clip-rule="evenodd" d="M101.183 27.117L100.102 30.218L101.472 34.113L103.996 30.291L101.183 27.118V27.117Z" fill="black" fill-opacity="0.2"/>
<path fill-rule="evenodd" clip-rule="evenodd" d="M99.741 29.28L100.679 26.54L99.02 24.593V27.117L99.741 29.281V29.28Z" fill="#7F7F7F"/>
<path fill-rule="evenodd" clip-rule="evenodd" d="M99.741 29.28L100.679 26.54L99.02 24.593V27.117L99.741 29.281V29.28Z" fill="black" fill-opacity="0.2"/>
<path fill-rule="evenodd" clip-rule="evenodd" d="M99.38 30.218L98.948 28.92V31.516L99.38 30.218Z" fill="#7F7F7F"/>
<path fill-rule="evenodd" clip-rule="evenodd" d="M99.38 30.218L98.948 28.92V31.516L99.38 30.218Z" fill="black" fill-opacity="0.2"/>
<path fill-rule="evenodd" clip-rule="evenodd" d="M99.741 31.083L98.948 33.391V37.935L101.039 34.762L99.741 31.084V31.083Z" fill="#7F7F7F"/>
<path fill-rule="evenodd" clip-rule="evenodd" d="M99.741 31.083L98.948 33.391V37.935L101.039 34.762L99.741 31.084V31.083Z" fill="black" fill-opacity="0.2"/>
<path fill-rule="evenodd" clip-rule="evenodd" d="M104.501 30.723L101.76 34.834L103.635 39.666L108.251 34.834L104.501 30.723V30.723Z" fill="#7F7F7F"/>
<path fill-rule="evenodd" clip-rule="evenodd" d="M104.501 30.723L101.76 34.834L103.635 39.666L108.251 34.834L104.501 30.723V30.723Z" fill="black" fill-opacity="0.2"/>
<path fill-rule="evenodd" clip-rule="evenodd" d="M127.94 14.352L135.368 6.563H120.728L116.329 13.054L127.94 14.352Z" fill="#7F7F7F"/>
<path fill-rule="evenodd" clip-rule="evenodd" d="M127.94 14.352L135.368 6.563H120.728L116.329 13.054L127.94 14.352Z" fill="black" fill-opacity="0.2"/>
<path fill-rule="evenodd" clip-rule="evenodd" d="M98.948 44.425L103.131 40.17L101.328 35.41L98.948 39.016V44.425Z" fill="#7F7F7F"/>
<path fill-rule="evenodd" clip-rule="evenodd" d="M98.948 44.425L103.131 40.17L101.328 35.41L98.948 39.016V44.425Z" fill="black" fill-opacity="0.2"/>
<path d="M46.3 25.025C45.29 24.52 44.064 24.16 42.478 24.088H29.569V47.887H33.752V28.199H41.829C42.911 28.199 43.776 28.415 44.209 28.92C44.642 29.425 44.93 30.074 44.93 30.939V47.959H49.185V30.362C49.185 29.28 48.969 28.271 48.464 27.333C48.031 26.468 47.238 25.674 46.301 25.025H46.3ZM20.338 47.887H24.593V24.088H20.338V47.887ZM88.924 47.887V30.29C88.924 29.208 88.707 28.199 88.202 27.261C87.842 26.396 87.049 25.674 86.039 25.025C85.101 24.52 83.803 24.16 82.289 24.088H73.418C72.625 24.088 72.192 24.232 71.904 24.521C71.616 24.81 71.471 25.314 71.399 25.891L71.182 28.127H81.568C82.649 28.127 83.515 28.343 84.02 28.848C84.452 29.353 84.669 30.002 84.669 30.867V32.237L75.87 34.617C73.49 35.266 71.759 36.131 70.605 37.213C69.452 38.367 68.802 39.809 68.802 41.54C68.802 42.91 69.091 43.992 69.74 45.002C70.245 45.867 71.11 46.516 72.12 47.093C73.057 47.742 74.211 47.886 75.365 47.886H88.924V47.887ZM84.597 36.564V43.848H75.654C74.86 43.848 74.284 43.56 73.779 43.127C73.418 42.694 73.13 42.189 73.13 41.54C73.13 41.035 73.346 40.458 73.634 40.026C73.995 39.665 74.716 39.233 75.582 39.088L84.597 36.564V36.564ZM54.523 27.261C54.162 28.199 53.802 29.208 53.802 30.29V47.887H58.129V30.867C58.129 30.002 58.345 29.425 58.85 28.848C59.283 28.415 60.148 28.127 61.23 28.127H68.298L68.009 25.891C68.009 25.242 67.865 24.809 67.576 24.521C67.287 24.233 66.711 24.088 66.062 24.088H60.58C59.066 24.16 57.767 24.449 56.83 25.026C55.676 25.675 55.027 26.468 54.522 27.262L54.523 27.261ZM17.31 28.199L17.094 25.963C17.094 25.314 16.878 24.881 16.589 24.593C16.3 24.305 15.723 24.16 15.074 24.16H6.636C5.049 24.232 3.895 24.521 2.814 25.098C1.877 25.747 1.227 26.468 0.723 27.334C0.29 28.272 0.0019989 29.281 0.0019989 30.363V47.96H4.257V37.718H14.931L14.715 35.482C14.643 34.833 14.499 34.4 14.21 34.184C13.922 33.823 13.345 33.679 12.696 33.679H4.33V31.011C4.33 30.146 4.618 29.569 5.123 28.992C5.556 28.559 6.349 28.271 7.431 28.271H17.311V28.199H17.31Z" fill="#7F7F7F"/>
<path d="M46.3 25.025C45.29 24.52 44.064 24.16 42.478 24.088H29.569V47.887H33.752V28.199H41.829C42.911 28.199 43.776 28.415 44.209 28.92C44.642 29.425 44.93 30.074 44.93 30.939V47.959H49.185V30.362C49.185 29.28 48.969 28.271 48.464 27.333C48.031 26.468 47.238 25.674 46.301 25.025H46.3ZM20.338 47.887H24.593V24.088H20.338V47.887ZM88.924 47.887V30.29C88.924 29.208 88.707 28.199 88.202 27.261C87.842 26.396 87.049 25.674 86.039 25.025C85.101 24.52 83.803 24.16 82.289 24.088H73.418C72.625 24.088 72.192 24.232 71.904 24.521C71.616 24.81 71.471 25.314 71.399 25.891L71.182 28.127H81.568C82.649 28.127 83.515 28.343 84.02 28.848C84.452 29.353 84.669 30.002 84.669 30.867V32.237L75.87 34.617C73.49 35.266 71.759 36.131 70.605 37.213C69.452 38.367 68.802 39.809 68.802 41.54C68.802 42.91 69.091 43.992 69.74 45.002C70.245 45.867 71.11 46.516 72.12 47.093C73.057 47.742 74.211 47.886 75.365 47.886H88.924V47.887ZM84.597 36.564V43.848H75.654C74.86 43.848 74.284 43.56 73.779 43.127C73.418 42.694 73.13 42.189 73.13 41.54C73.13 41.035 73.346 40.458 73.634 40.026C73.995 39.665 74.716 39.233 75.582 39.088L84.597 36.564V36.564ZM54.523 27.261C54.162 28.199 53.802 29.208 53.802 30.29V47.887H58.129V30.867C58.129 30.002 58.345 29.425 58.85 28.848C59.283 28.415 60.148 28.127 61.23 28.127H68.298L68.009 25.891C68.009 25.242 67.865 24.809 67.576 24.521C67.287 24.233 66.711 24.088 66.062 24.088H60.58C59.066 24.16 57.767 24.449 56.83 25.026C55.676 25.675 55.027 26.468 54.522 27.262L54.523 27.261ZM17.31 28.199L17.094 25.963C17.094 25.314 16.878 24.881 16.589 24.593C16.3 24.305 15.723 24.16 15.074 24.16H6.636C5.049 24.232 3.895 24.521 2.814 25.098C1.877 25.747 1.227 26.468 0.723 27.334C0.29 28.272 0.0019989 29.281 0.0019989 30.363V47.96H4.257V37.718H14.931L14.715 35.482C14.643 34.833 14.499 34.4 14.21 34.184C13.922 33.823 13.345 33.679 12.696 33.679H4.33V31.011C4.33 30.146 4.618 29.569 5.123 28.992C5.556 28.559 6.349 28.271 7.431 28.271H17.311V28.199H17.31Z" fill="black" fill-opacity="0.2"/>
</svg>
