<svg width="47" height="24" viewBox="0 0 47 24" fill="none" xmlns="http://www.w3.org/2000/svg">
<path d="M20.7416 4.61011H25.4801L20.5613 19.1844C20.5107 19.3342 20.4145 19.4644 20.286 19.5566C20.1576 19.6488 20.0035 19.6984 19.8454 19.6984H16.1578C16.038 19.6984 15.9199 19.6699 15.8134 19.6152C15.7068 19.5605 15.6148 19.4813 15.5449 19.384C15.475 19.2867 15.4294 19.1741 15.4116 19.0557C15.3939 18.9372 15.4046 18.8162 15.4429 18.7028L20.0257 5.12407C20.0763 4.97427 20.1725 4.8441 20.301 4.75189C20.4294 4.65969 20.5835 4.6101 20.7416 4.61011Z" fill="url(#paint0_linear_364_1465)"/>
<path d="M27.6276 14.3855H20.1136C20.0437 14.3855 19.9755 14.4065 19.9178 14.4458C19.86 14.4851 19.8155 14.5408 19.7899 14.6058C19.7642 14.6708 19.7588 14.742 19.7742 14.8101C19.7896 14.8782 19.8251 14.9401 19.8762 14.9877L24.7046 19.4942C24.8452 19.6253 25.0302 19.6983 25.2225 19.6983H29.477L27.6276 14.3855Z" fill="#0078D4"/>
<path d="M20.7416 4.61011C20.5818 4.60952 20.426 4.66003 20.2969 4.75426C20.1678 4.8485 20.0723 4.98153 20.0242 5.13393L15.4486 18.6904C15.4077 18.8043 15.3949 18.9264 15.4112 19.0463C15.4274 19.1662 15.4724 19.2805 15.5421 19.3793C15.6119 19.4782 15.7045 19.5588 15.812 19.6144C15.9195 19.6699 16.0388 19.6987 16.1598 19.6984H19.9426C20.0836 19.6732 20.2153 19.6111 20.3243 19.5183C20.4334 19.4256 20.5159 19.3055 20.5633 19.1705L21.4756 16.4816L24.7349 19.5214C24.8715 19.6344 25.0428 19.6969 25.2201 19.6984H29.4589L27.5997 14.3856L22.1801 14.3868L25.4973 4.61011H20.7416Z" fill="url(#paint1_linear_364_1465)"/>
<path d="M26.794 5.12325C26.7435 4.97369 26.6474 4.84374 26.5192 4.75168C26.391 4.65963 26.2371 4.61011 26.0793 4.61011H20.7983C20.9562 4.61011 21.1101 4.65962 21.2383 4.75167C21.3665 4.84373 21.4627 4.97369 21.5132 5.12325L26.0962 18.7027C26.1345 18.8162 26.1453 18.9372 26.1275 19.0556C26.1098 19.1741 26.0641 19.2866 25.9942 19.3839C25.9244 19.4812 25.8324 19.5605 25.7258 19.6152C25.6192 19.6699 25.5012 19.6984 25.3814 19.6984H30.6623C30.7821 19.6984 30.9001 19.6698 31.0067 19.6152C31.1133 19.5605 31.2053 19.4812 31.2751 19.3839C31.345 19.2866 31.3906 19.1741 31.4084 19.0556C31.4261 18.9372 31.4154 18.8162 31.3771 18.7027L26.794 5.12325Z" fill="url(#paint2_linear_364_1465)"/>
<defs>
<linearGradient id="paint0_linear_364_1465" x1="22.4687" y1="5.72817" x2="17.5477" y2="20.266" gradientUnits="userSpaceOnUse">
<stop stop-color="#114A8B"/>
<stop offset="1" stop-color="#0669BC"/>
</linearGradient>
<linearGradient id="paint1_linear_364_1465" x1="24.0059" y1="12.5031" x2="22.8675" y2="12.888" gradientUnits="userSpaceOnUse">
<stop stop-opacity="0.3"/>
<stop offset="0.071" stop-opacity="0.2"/>
<stop offset="0.321" stop-opacity="0.1"/>
<stop offset="0.623" stop-opacity="0.05"/>
<stop offset="1" stop-opacity="0"/>
</linearGradient>
<linearGradient id="paint2_linear_364_1465" x1="23.3801" y1="5.30406" x2="28.7818" y2="19.6955" gradientUnits="userSpaceOnUse">
<stop stop-color="#3CCBF4"/>
<stop offset="1" stop-color="#2892DF"/>
</linearGradient>
</defs>
</svg>
