<?xml version="1.0" encoding="UTF-8"?> <svg xmlns="http://www.w3.org/2000/svg" width="194" height="100" viewBox="0 0 194 100" fill="none"><path d="M38.3378 60.336C36.3591 60.336 34.6605 59.916 33.2418 59.076C31.8231 58.2173 30.7311 57.032 29.9658 55.52C29.2005 53.9893 28.8178 52.2253 28.8178 50.228C28.8178 48.2307 29.2005 46.4667 29.9658 44.936C30.7311 43.4053 31.8231 42.2107 33.2418 41.352C34.6605 40.4933 36.3591 40.064 38.3378 40.064C40.6898 40.064 42.6125 40.652 44.1058 41.828C45.6178 42.9853 46.5605 44.6187 46.9338 46.728H42.9858C42.7431 45.664 42.2205 44.8333 41.4178 44.236C40.6338 43.62 39.5885 43.312 38.2818 43.312C36.4711 43.312 35.0525 43.928 34.0258 45.16C32.9991 46.392 32.4858 48.0813 32.4858 50.228C32.4858 52.3747 32.9991 54.064 34.0258 55.296C35.0525 56.5093 36.4711 57.116 38.2818 57.116C39.5885 57.116 40.6338 56.836 41.4178 56.276C42.2205 55.6973 42.7431 54.904 42.9858 53.896H46.9338C46.5605 55.912 45.6178 57.4893 44.1058 58.628C42.6125 59.7667 40.6898 60.336 38.3378 60.336ZM54.3903 60L47.2223 40.4H51.0583L56.6023 56.332L62.1743 40.4H65.9543L58.7863 60H54.3903ZM72.7288 60.336C71.2915 60.336 70.0221 60.0933 68.9208 59.608C67.8195 59.104 66.9515 58.3947 66.3168 57.48C65.6821 56.5467 65.3555 55.4173 65.3368 54.092H69.1168C69.1541 55.0067 69.4808 55.7813 70.0968 56.416C70.7315 57.032 71.5995 57.34 72.7008 57.34C73.6528 57.34 74.4088 57.116 74.9688 56.668C75.5288 56.2013 75.8088 55.5853 75.8088 54.82C75.8088 54.0173 75.5568 53.392 75.0528 52.944C74.5675 52.496 73.9141 52.132 73.0928 51.852C72.2715 51.572 71.3941 51.2733 70.4608 50.956C68.9488 50.4333 67.7915 49.7613 66.9888 48.94C66.2048 48.1187 65.8128 47.0267 65.8128 45.664C65.7941 44.5067 66.0648 43.5173 66.6248 42.696C67.2035 41.856 67.9875 41.212 68.9768 40.764C69.9661 40.2973 71.1048 40.064 72.3928 40.064C73.6995 40.064 74.8475 40.2973 75.8368 40.764C76.8448 41.2307 77.6288 41.884 78.1888 42.724C78.7675 43.564 79.0755 44.5627 79.1128 45.72H75.2768C75.2581 45.0293 74.9875 44.4227 74.4648 43.9C73.9608 43.3587 73.2515 43.088 72.3368 43.088C71.5528 43.0693 70.8901 43.2653 70.3488 43.676C69.8261 44.068 69.5648 44.6467 69.5648 45.412C69.5648 46.0653 69.7701 46.588 70.1808 46.98C70.5915 47.3533 71.1515 47.6707 71.8608 47.932C72.5701 48.1933 73.3821 48.4733 74.2968 48.772C75.2675 49.108 76.1541 49.5 76.9568 49.948C77.7595 50.396 78.4035 50.9933 78.8888 51.74C79.3741 52.468 79.6168 53.4107 79.6168 54.568C79.6168 55.5947 79.3555 56.5467 78.8328 57.424C78.3101 58.3013 77.5355 59.0107 76.5088 59.552C75.4821 60.0747 74.2221 60.336 72.7288 60.336ZM86.6157 60V40.4H90.1997V48.548H98.9917V40.4H102.576V60H98.9917V51.46H90.1997V60H86.6157ZM111.649 60.336C110.249 60.336 109.008 60.0373 107.925 59.44C106.843 58.8427 105.993 58.0027 105.377 56.92C104.761 55.8373 104.453 54.5867 104.453 53.168C104.453 51.7307 104.752 50.452 105.349 49.332C105.965 48.212 106.805 47.344 107.869 46.728C108.952 46.0933 110.221 45.776 111.677 45.776C113.04 45.776 114.244 46.0747 115.289 46.672C116.335 47.2693 117.147 48.0907 117.725 49.136C118.323 50.1627 118.621 51.3107 118.621 52.58C118.621 52.7853 118.612 53 118.593 53.224C118.593 53.448 118.584 53.6813 118.565 53.924H108.009C108.084 55.0067 108.457 55.856 109.129 56.472C109.82 57.088 110.651 57.396 111.621 57.396C112.349 57.396 112.956 57.2373 113.441 56.92C113.945 56.584 114.319 56.1547 114.561 55.632H118.201C117.94 56.5093 117.501 57.312 116.885 58.04C116.288 58.7493 115.541 59.3093 114.645 59.72C113.768 60.1307 112.769 60.336 111.649 60.336ZM111.677 48.688C110.8 48.688 110.025 48.94 109.353 49.444C108.681 49.9293 108.252 50.676 108.065 51.684H114.981C114.925 50.7693 114.589 50.0413 113.973 49.5C113.357 48.9587 112.592 48.688 111.677 48.688ZM125.024 60.336C123.829 60.336 122.849 60.1493 122.084 59.776C121.318 59.384 120.749 58.8707 120.376 58.236C120.002 57.6013 119.816 56.9013 119.816 56.136C119.816 54.848 120.32 53.8027 121.328 53C122.336 52.1973 123.848 51.796 125.864 51.796H129.392V51.46C129.392 50.508 129.121 49.808 128.58 49.36C128.038 48.912 127.366 48.688 126.564 48.688C125.836 48.688 125.201 48.8653 124.66 49.22C124.118 49.556 123.782 50.06 123.652 50.732H120.152C120.245 49.724 120.581 48.8467 121.16 48.1C121.757 47.3533 122.522 46.784 123.456 46.392C124.389 45.9813 125.434 45.776 126.592 45.776C128.57 45.776 130.129 46.2707 131.268 47.26C132.406 48.2493 132.976 49.6493 132.976 51.46V60H129.924L129.588 57.76C129.177 58.5067 128.598 59.1227 127.852 59.608C127.124 60.0933 126.181 60.336 125.024 60.336ZM125.836 57.536C126.862 57.536 127.656 57.2 128.216 56.528C128.794 55.856 129.158 55.0253 129.308 54.036H126.256C125.304 54.036 124.622 54.2133 124.212 54.568C123.801 54.904 123.596 55.324 123.596 55.828C123.596 56.3693 123.801 56.7893 124.212 57.088C124.622 57.3867 125.164 57.536 125.836 57.536ZM134.996 60V39.84H138.58V60H134.996ZM147.03 60C145.574 60 144.407 59.6453 143.53 58.936C142.653 58.2267 142.214 56.9667 142.214 55.156V49.108H139.834V46.112H142.214L142.634 42.388H145.798V46.112H149.55V49.108H145.798V55.184C145.798 55.856 145.938 56.3227 146.218 56.584C146.517 56.8267 147.021 56.948 147.73 56.948H149.466V60H147.03ZM151.227 60V39.84H154.811V48.24C155.278 47.4747 155.903 46.8773 156.687 46.448C157.49 46 158.404 45.776 159.431 45.776C161.148 45.776 162.474 46.3173 163.407 47.4C164.359 48.4827 164.835 50.0693 164.835 52.16V60H161.279V52.496C161.279 51.3013 161.036 50.3867 160.551 49.752C160.084 49.1173 159.338 48.8 158.311 48.8C157.303 48.8 156.463 49.1547 155.791 49.864C155.138 50.5733 154.811 51.5627 154.811 52.832V60H151.227Z" fill="#7F7F7F"></path><path d="M38.3378 60.336C36.3591 60.336 34.6605 59.916 33.2418 59.076C31.8231 58.2173 30.7311 57.032 29.9658 55.52C29.2005 53.9893 28.8178 52.2253 28.8178 50.228C28.8178 48.2307 29.2005 46.4667 29.9658 44.936C30.7311 43.4053 31.8231 42.2107 33.2418 41.352C34.6605 40.4933 36.3591 40.064 38.3378 40.064C40.6898 40.064 42.6125 40.652 44.1058 41.828C45.6178 42.9853 46.5605 44.6187 46.9338 46.728H42.9858C42.7431 45.664 42.2205 44.8333 41.4178 44.236C40.6338 43.62 39.5885 43.312 38.2818 43.312C36.4711 43.312 35.0525 43.928 34.0258 45.16C32.9991 46.392 32.4858 48.0813 32.4858 50.228C32.4858 52.3747 32.9991 54.064 34.0258 55.296C35.0525 56.5093 36.4711 57.116 38.2818 57.116C39.5885 57.116 40.6338 56.836 41.4178 56.276C42.2205 55.6973 42.7431 54.904 42.9858 53.896H46.9338C46.5605 55.912 45.6178 57.4893 44.1058 58.628C42.6125 59.7667 40.6898 60.336 38.3378 60.336ZM54.3903 60L47.2223 40.4H51.0583L56.6023 56.332L62.1743 40.4H65.9543L58.7863 60H54.3903ZM72.7288 60.336C71.2915 60.336 70.0221 60.0933 68.9208 59.608C67.8195 59.104 66.9515 58.3947 66.3168 57.48C65.6821 56.5467 65.3555 55.4173 65.3368 54.092H69.1168C69.1541 55.0067 69.4808 55.7813 70.0968 56.416C70.7315 57.032 71.5995 57.34 72.7008 57.34C73.6528 57.34 74.4088 57.116 74.9688 56.668C75.5288 56.2013 75.8088 55.5853 75.8088 54.82C75.8088 54.0173 75.5568 53.392 75.0528 52.944C74.5675 52.496 73.9141 52.132 73.0928 51.852C72.2715 51.572 71.3941 51.2733 70.4608 50.956C68.9488 50.4333 67.7915 49.7613 66.9888 48.94C66.2048 48.1187 65.8128 47.0267 65.8128 45.664C65.7941 44.5067 66.0648 43.5173 66.6248 42.696C67.2035 41.856 67.9875 41.212 68.9768 40.764C69.9661 40.2973 71.1048 40.064 72.3928 40.064C73.6995 40.064 74.8475 40.2973 75.8368 40.764C76.8448 41.2307 77.6288 41.884 78.1888 42.724C78.7675 43.564 79.0755 44.5627 79.1128 45.72H75.2768C75.2581 45.0293 74.9875 44.4227 74.4648 43.9C73.9608 43.3587 73.2515 43.088 72.3368 43.088C71.5528 43.0693 70.8901 43.2653 70.3488 43.676C69.8261 44.068 69.5648 44.6467 69.5648 45.412C69.5648 46.0653 69.7701 46.588 70.1808 46.98C70.5915 47.3533 71.1515 47.6707 71.8608 47.932C72.5701 48.1933 73.3821 48.4733 74.2968 48.772C75.2675 49.108 76.1541 49.5 76.9568 49.948C77.7595 50.396 78.4035 50.9933 78.8888 51.74C79.3741 52.468 79.6168 53.4107 79.6168 54.568C79.6168 55.5947 79.3555 56.5467 78.8328 57.424C78.3101 58.3013 77.5355 59.0107 76.5088 59.552C75.4821 60.0747 74.2221 60.336 72.7288 60.336ZM86.6157 60V40.4H90.1997V48.548H98.9917V40.4H102.576V60H98.9917V51.46H90.1997V60H86.6157ZM111.649 60.336C110.249 60.336 109.008 60.0373 107.925 59.44C106.843 58.8427 105.993 58.0027 105.377 56.92C104.761 55.8373 104.453 54.5867 104.453 53.168C104.453 51.7307 104.752 50.452 105.349 49.332C105.965 48.212 106.805 47.344 107.869 46.728C108.952 46.0933 110.221 45.776 111.677 45.776C113.04 45.776 114.244 46.0747 115.289 46.672C116.335 47.2693 117.147 48.0907 117.725 49.136C118.323 50.1627 118.621 51.3107 118.621 52.58C118.621 52.7853 118.612 53 118.593 53.224C118.593 53.448 118.584 53.6813 118.565 53.924H108.009C108.084 55.0067 108.457 55.856 109.129 56.472C109.82 57.088 110.651 57.396 111.621 57.396C112.349 57.396 112.956 57.2373 113.441 56.92C113.945 56.584 114.319 56.1547 114.561 55.632H118.201C117.94 56.5093 117.501 57.312 116.885 58.04C116.288 58.7493 115.541 59.3093 114.645 59.72C113.768 60.1307 112.769 60.336 111.649 60.336ZM111.677 48.688C110.8 48.688 110.025 48.94 109.353 49.444C108.681 49.9293 108.252 50.676 108.065 51.684H114.981C114.925 50.7693 114.589 50.0413 113.973 49.5C113.357 48.9587 112.592 48.688 111.677 48.688ZM125.024 60.336C123.829 60.336 122.849 60.1493 122.084 59.776C121.318 59.384 120.749 58.8707 120.376 58.236C120.002 57.6013 119.816 56.9013 119.816 56.136C119.816 54.848 120.32 53.8027 121.328 53C122.336 52.1973 123.848 51.796 125.864 51.796H129.392V51.46C129.392 50.508 129.121 49.808 128.58 49.36C128.038 48.912 127.366 48.688 126.564 48.688C125.836 48.688 125.201 48.8653 124.66 49.22C124.118 49.556 123.782 50.06 123.652 50.732H120.152C120.245 49.724 120.581 48.8467 121.16 48.1C121.757 47.3533 122.522 46.784 123.456 46.392C124.389 45.9813 125.434 45.776 126.592 45.776C128.57 45.776 130.129 46.2707 131.268 47.26C132.406 48.2493 132.976 49.6493 132.976 51.46V60H129.924L129.588 57.76C129.177 58.5067 128.598 59.1227 127.852 59.608C127.124 60.0933 126.181 60.336 125.024 60.336ZM125.836 57.536C126.862 57.536 127.656 57.2 128.216 56.528C128.794 55.856 129.158 55.0253 129.308 54.036H126.256C125.304 54.036 124.622 54.2133 124.212 54.568C123.801 54.904 123.596 55.324 123.596 55.828C123.596 56.3693 123.801 56.7893 124.212 57.088C124.622 57.3867 125.164 57.536 125.836 57.536ZM134.996 60V39.84H138.58V60H134.996ZM147.03 60C145.574 60 144.407 59.6453 143.53 58.936C142.653 58.2267 142.214 56.9667 142.214 55.156V49.108H139.834V46.112H142.214L142.634 42.388H145.798V46.112H149.55V49.108H145.798V55.184C145.798 55.856 145.938 56.3227 146.218 56.584C146.517 56.8267 147.021 56.948 147.73 56.948H149.466V60H147.03ZM151.227 60V39.84H154.811V48.24C155.278 47.4747 155.903 46.8773 156.687 46.448C157.49 46 158.404 45.776 159.431 45.776C161.148 45.776 162.474 46.3173 163.407 47.4C164.359 48.4827 164.835 50.0693 164.835 52.16V60H161.279V52.496C161.279 51.3013 161.036 50.3867 160.551 49.752C160.084 49.1173 159.338 48.8 158.311 48.8C157.303 48.8 156.463 49.1547 155.791 49.864C155.138 50.5733 154.811 51.5627 154.811 52.832V60H151.227Z" fill="black" fill-opacity="0.2"></path></svg> 