<svg width="47" height="24" viewBox="0 0 47 24" fill="none" xmlns="http://www.w3.org/2000/svg">
<path d="M18.5968 10.7807C18.5968 11.0519 18.6251 11.2711 18.6749 11.4322C18.7325 11.5934 18.8037 11.7686 18.9033 11.9596C18.9394 12.0186 18.9531 12.0767 18.9531 12.1278C18.9531 12.2008 18.9102 12.2739 18.8175 12.347L18.3675 12.6543C18.3031 12.6983 18.2388 12.7203 18.1821 12.7203C18.1108 12.7203 18.0395 12.6833 17.9683 12.6182C17.8687 12.5081 17.7828 12.391 17.7115 12.2739C17.6403 12.1498 17.569 12.0107 17.49 11.8416C16.9336 12.5152 16.2338 12.8515 15.3915 12.8515C14.7922 12.8515 14.3139 12.6754 13.9636 12.3241C13.6141 11.9728 13.4355 11.5044 13.4355 10.9189C13.4355 10.2965 13.6493 9.792 14.0855 9.41077C14.5217 9.02955 15.0996 8.84026 15.8346 8.84026C16.0776 8.84026 16.3274 8.86227 16.591 8.89925C16.8555 8.93622 17.1268 8.99433 17.4119 9.06036V8.52594C17.4119 7.96951 17.2977 7.58213 17.0762 7.35498C16.8478 7.12783 16.4622 7.01865 15.9127 7.01865C15.6628 7.01865 15.4061 7.04771 15.1417 7.11374C14.8772 7.17977 14.6205 7.25989 14.3706 7.3629C14.2564 7.41397 14.1705 7.44302 14.1207 7.45799C14.0709 7.47295 14.0349 7.48 14.0065 7.48C13.9069 7.48 13.8563 7.40692 13.8563 7.25285V6.89451C13.8563 6.77742 13.8709 6.68937 13.9061 6.63831C13.9421 6.58724 14.0057 6.53618 14.1061 6.48423C14.356 6.35217 14.6557 6.243 15.006 6.15496C15.3555 6.05987 15.7264 6.01585 16.1196 6.01585C16.9688 6.01585 17.5905 6.21306 17.9897 6.60837C18.3821 7.00369 18.5822 7.60414 18.5822 8.40885V10.7807H18.5968ZM15.6981 11.8936C15.9333 11.8936 16.1763 11.8496 16.433 11.7615C16.6898 11.6735 16.9182 11.5124 17.1114 11.2931C17.2256 11.154 17.3114 10.9999 17.3544 10.8247C17.3973 10.6487 17.4256 10.4365 17.4256 10.1882V9.88092C17.2187 9.82986 16.9972 9.78584 16.7688 9.75678C16.5404 9.72773 16.3188 9.71276 16.0973 9.71276C15.6191 9.71276 15.2696 9.80785 15.0335 10.0059C14.7982 10.2032 14.684 10.4814 14.684 10.8476C14.684 11.1919 14.7699 11.4481 14.9485 11.6233C15.1202 11.8055 15.3701 11.8936 15.6981 11.8936ZM21.4303 12.6842C21.3015 12.6842 21.2165 12.6622 21.159 12.6111C21.1014 12.5671 21.0516 12.465 21.0087 12.3259L19.3318 6.66736C19.2889 6.52121 19.2674 6.42613 19.2674 6.37418C19.2674 6.25708 19.3249 6.19105 19.4391 6.19105H20.1381C20.2737 6.19105 20.3664 6.21306 20.4162 6.26413C20.4738 6.30815 20.5159 6.41028 20.5588 6.54939L21.7583 11.3953L22.8719 6.54939C22.908 6.40324 22.9501 6.30815 23.0076 6.26413C23.0651 6.22011 23.1647 6.19105 23.2935 6.19105H23.8645C24.0002 6.19105 24.0929 6.21306 24.1505 6.26413C24.208 6.30815 24.2578 6.41028 24.2861 6.54939L25.4144 11.4534L26.6491 6.54939C26.692 6.40324 26.7418 6.30815 26.7916 6.26413C26.8491 6.22011 26.9419 6.19105 27.0698 6.19105H27.7335C27.8477 6.19105 27.9121 6.25004 27.9121 6.37418C27.9121 6.41116 27.9053 6.44726 27.8975 6.49128C27.8907 6.5353 27.8761 6.59341 27.8477 6.67441L26.127 12.3329C26.0841 12.4791 26.0343 12.5741 25.9768 12.6182C25.9192 12.6622 25.8265 12.6912 25.7054 12.6912H25.0924C24.9567 12.6912 24.864 12.6692 24.8064 12.6182C24.7489 12.5671 24.6991 12.472 24.6708 12.325L23.564 7.60414L22.465 12.3179C22.4289 12.4641 22.3868 12.5592 22.3293 12.6111C22.2718 12.6622 22.1722 12.6842 22.0434 12.6842H21.4303V12.6842ZM30.604 12.8814C30.233 12.8814 29.8612 12.8374 29.5049 12.7494C29.1477 12.6613 28.8695 12.5662 28.684 12.4562C28.5698 12.3901 28.4917 12.3171 28.4625 12.251C28.4342 12.185 28.4196 12.1119 28.4196 12.0459V11.6726C28.4196 11.5185 28.4771 11.4454 28.5836 11.4454C28.6265 11.4454 28.6694 11.4525 28.7124 11.4674C28.7553 11.4824 28.8197 11.5115 28.891 11.5405C29.134 11.6506 29.3976 11.7377 29.6766 11.7967C29.9626 11.8557 30.2408 11.8848 30.5258 11.8848C30.9757 11.8848 31.3252 11.8047 31.5682 11.6435C31.8112 11.4824 31.9391 11.2482 31.9391 10.948C31.9391 10.7429 31.8747 10.5747 31.7468 10.4356C31.618 10.2965 31.3759 10.1723 31.0255 10.0552L29.99 9.72597C29.4688 9.5578 29.0833 9.30864 28.848 8.97936C28.6128 8.65713 28.4909 8.29879 28.4909 7.91757C28.4909 7.6103 28.5552 7.33913 28.6832 7.10494C28.8111 6.87074 28.9829 6.6656 29.1975 6.50448C29.4113 6.33632 29.6543 6.2113 29.9402 6.12414C30.2262 6.0361 30.5258 6 30.8401 6C30.9972 6 31.1612 6.00704 31.3183 6.02905C31.4823 6.05106 31.6326 6.08012 31.782 6.10917C31.9245 6.14615 32.0602 6.18225 32.189 6.22627C32.3178 6.27029 32.4174 6.31431 32.4887 6.35833C32.5883 6.41732 32.6604 6.47543 32.7025 6.54146C32.7454 6.60045 32.7669 6.68057 32.7669 6.7827V7.12783C32.7669 7.2819 32.7093 7.36202 32.6029 7.36202C32.5453 7.36202 32.4526 7.33297 32.3315 7.27398C31.9245 7.08381 31.4677 6.98872 30.9611 6.98872C30.5542 6.98872 30.233 7.05475 30.0115 7.19386C29.79 7.33297 29.6758 7.54515 29.6758 7.84537C29.6758 8.05051 29.747 8.22572 29.8896 8.36483C30.0321 8.50393 30.2966 8.64304 30.6752 8.76718L31.6893 9.09646C32.2036 9.26462 32.5745 9.49882 32.796 9.79904C33.0176 10.0993 33.124 10.4435 33.124 10.8239C33.124 11.1382 33.0597 11.4243 32.9386 11.6726C32.8098 11.9218 32.6389 12.141 32.4174 12.3171C32.1959 12.5002 31.9323 12.6314 31.6249 12.7273C31.3029 12.8304 30.968 12.8814 30.604 12.8814Z" fill="#232F3E"/>
<path d="M31.9971 16.3499C29.6352 18.0795 26.2032 18.9983 23.2523 18.9983C19.1166 18.9983 15.3902 17.4819 12.5757 14.962C12.3529 14.7625 12.5541 14.4919 12.8201 14.6486C15.8643 16.3996 19.6192 17.4605 23.5036 17.4605C26.1246 17.4605 29.003 16.9193 31.6525 15.8088C32.0472 15.6307 32.3848 16.0648 31.9971 16.3499Z" fill="#FF9900"/>
<path d="M33.0024 15.1062C32.7034 14.7157 31.0221 14.9184 30.2594 15.0123C30.0315 15.041 29.9955 14.8384 30.202 14.687C31.5414 13.7328 33.7428 14.0068 33.999 14.3252C34.2552 14.6505 33.9279 16.885 32.6742 17.9557C32.4823 18.1218 32.2963 18.0349 32.382 17.8183C32.6674 17.1016 33.3015 15.489 33.0024 15.1062Z" fill="#FF9900"/>
</svg>
