<svg width="65" height="16" viewBox="0 0 65 16" fill="none" xmlns="http://www.w3.org/2000/svg">
<path d="M2.57668 12.633L3.62574 9.81112L4.62181 12.633H2.57668ZM5.63908 15.4759H6.60337L4.11318 8.67395H3.15949L0.552734 15.4759H1.51702L2.27997 13.3911H4.88673L5.63908 15.4759ZM10.1956 14.0334C10.1956 14.5915 9.73995 14.8863 8.9664 14.8863C8.34121 14.8863 7.92794 14.7073 7.69482 14.3072L6.77291 14.4651C7.1332 15.1916 7.87496 15.5496 8.93461 15.5496C10.3651 15.5496 11.1069 14.7599 11.1069 13.9281C11.1069 12.8541 10.1108 12.5593 8.9558 12.3276C8.40478 12.2118 7.7478 12.0118 7.7478 11.5274C7.7478 11.1799 8.08689 10.7798 8.77566 10.7798C9.47504 10.7798 9.8883 11.2536 9.95188 11.4432L10.7572 11.1062C10.3863 10.4008 9.64458 10.1165 8.86044 10.1165C7.66303 10.1165 6.85769 10.7061 6.85769 11.6432C6.85769 12.7067 7.77959 12.9173 8.6697 13.1068C9.45384 13.2648 10.1956 13.4543 10.1956 14.0334ZM13.0249 8.67395L12.1242 9.04248V10.2955H11.2976V11.022H12.1242V14.3387C12.1136 15.0126 12.1136 15.497 13.1203 15.497C13.4487 15.497 13.809 15.4338 13.968 15.4127V14.6967C13.7984 14.7494 13.5653 14.8126 13.3958 14.8126C13.0249 14.8126 13.0249 14.5493 13.0249 13.9386V11.0115H13.968V10.2849H13.0249V8.67395ZM14.7521 10.306V15.4759H15.621V13.0963C15.621 12.654 15.6104 12.1276 15.8436 11.7591C16.1297 11.2958 16.5429 11.1273 17.4013 11.1168V10.2218C17.0516 10.2323 16.1191 10.2534 15.621 11.2326V10.306H14.7521ZM22.5724 8.68448V9.52683H26.4613L22.5724 14.602V15.4864H27.5952V14.6757H23.6214L27.4892 9.54789V8.69501H22.5724V8.68448ZM33.063 10.306V15.4759H33.9319V12.5488C33.9319 12.1697 33.9319 11.7696 34.3134 11.3905C34.5889 11.1168 34.9174 11.0009 35.3094 11.0009C35.7863 11.0009 36.2737 11.2221 36.4221 11.7064C36.4751 11.8854 36.4751 12.0328 36.4751 12.5593V15.4759H37.344V12.4119C37.344 11.9696 37.344 11.6643 37.2592 11.3589C37.0049 10.5061 36.2102 10.1797 35.5532 10.1797C35.2459 10.1797 34.4193 10.2534 33.9319 11.0957V10.306H33.063ZM46.616 14.2229C46.4358 14.5809 46.0861 14.8968 45.4186 14.8968C44.8358 14.8968 43.8503 14.5283 43.8503 12.8225C43.8503 12.3592 43.935 10.7377 45.3656 10.7377C46.0861 10.7377 46.4252 11.1273 46.5736 11.4642L47.3895 11.1273C46.8809 10.2955 45.9802 10.0954 45.3232 10.0954C43.6701 10.0954 42.8648 11.4221 42.8648 12.8752C42.8648 14.1387 43.5536 15.5496 45.3974 15.5496C46.457 15.5496 47.0504 15.0337 47.3789 14.5283L46.616 14.2229ZM28.8455 12.3592H31.6007C31.5265 11.0115 30.7423 10.7798 30.2125 10.7798C29.4707 10.7693 28.9409 11.3168 28.8455 12.3592ZM32.3212 14.4862C32.0245 14.9916 31.4523 15.5707 30.3185 15.5707C28.782 15.5707 27.9025 14.5388 27.9025 12.7909C27.9025 10.8535 29.1952 10.1059 30.2867 10.1059C31.2404 10.1059 32.1517 10.6324 32.459 11.9275C32.5543 12.3592 32.5543 12.7593 32.5543 12.9699H28.8244C28.8032 13.8333 29.1634 14.9284 30.3926 14.9073C30.8907 14.8968 31.251 14.6757 31.4735 14.3177L32.3212 14.4862ZM38.7639 12.3592H41.519C41.4449 11.0115 40.6607 10.7798 40.1309 10.7798C39.3891 10.7693 38.8593 11.3168 38.7639 12.3592ZM42.2396 14.4862C41.9429 14.9916 41.3707 15.5707 40.2368 15.5707C38.7003 15.5707 37.8208 14.5388 37.8208 12.7909C37.8208 10.8535 39.103 10.1059 40.2051 10.1059C41.1587 10.1059 42.0701 10.6324 42.3774 11.9275C42.4727 12.3592 42.4727 12.7593 42.4727 12.9699H38.7427C38.7215 13.8333 39.0818 14.9284 40.311 14.9073C40.8091 14.8968 41.1693 14.6757 41.3919 14.3177L42.2396 14.4862ZM52.158 15.4759H51.2467C51.2467 15.4759 51.1725 15.1074 51.1407 14.7178C50.8758 14.9916 50.3883 15.5496 49.4029 15.5496C48.3962 15.5496 47.6438 14.9495 47.6438 14.086C47.6438 13.8123 47.718 13.5385 47.877 13.3069C48.1737 12.8646 48.7247 12.5172 50.2718 12.4013L51.0983 12.3382V12.2118C51.0983 11.6748 51.0983 10.7798 49.9327 10.7798C49.2015 10.7798 48.9578 11.1273 48.873 11.4537L48.0677 11.1168C48.0783 11.0852 48.0889 11.0641 48.1101 11.0325C48.4174 10.4639 49.0214 10.1165 49.9009 10.1165C50.3778 10.1165 51.0029 10.2323 51.4162 10.5587C51.999 10.9904 51.9778 11.8538 51.9778 11.8538L52.0096 14.5072C52.0202 14.4862 52.0414 15.2548 52.158 15.4759ZM50.9606 14.0545C51.0877 13.7702 51.0983 13.6543 51.0983 12.8962C50.7592 12.9489 50.3036 13.012 49.742 13.1384C48.7777 13.349 48.6081 13.707 48.6081 14.065C48.6081 14.4756 48.9366 14.8336 49.583 14.8336C50.1976 14.8231 50.7168 14.5809 50.9606 14.0545ZM21.9472 15.4759H21.0359C21.0359 15.4759 20.9617 15.1074 20.9299 14.7178C20.665 14.9916 20.1776 15.5496 19.1921 15.5496C18.1854 15.5496 17.4331 14.9495 17.4331 14.086C17.4331 13.8123 17.5072 13.5385 17.6662 13.3069C17.9629 12.8646 18.5139 12.5172 20.061 12.4013L20.8875 12.3382V12.2118C20.8875 11.6748 20.8875 10.7798 19.7325 10.7798C19.0013 10.7798 18.7576 11.1273 18.6728 11.4537L17.8675 11.1168C17.8781 11.0852 17.8993 11.0641 17.9099 11.0325C18.2172 10.4639 18.8212 10.1165 19.7007 10.1165C20.1776 10.1165 20.8028 10.2323 21.216 10.5587C21.7988 10.9904 21.7776 11.8538 21.7776 11.8538L21.8094 14.5072C21.8094 14.4862 21.8412 15.2548 21.9472 15.4759ZM20.7604 14.0545C20.8875 13.7702 20.9087 13.6543 20.9087 12.8962C20.5696 12.9489 20.114 13.012 19.5524 13.1384C18.5881 13.349 18.4185 13.707 18.4185 14.065C18.4185 14.4756 18.747 14.8336 19.3934 14.8336C19.9868 14.8231 20.5061 14.5809 20.7604 14.0545Z" fill="#7F7F7F"/>
<path d="M2.57668 12.633L3.62574 9.81112L4.62181 12.633H2.57668ZM5.63908 15.4759H6.60337L4.11318 8.67395H3.15949L0.552734 15.4759H1.51702L2.27997 13.3911H4.88673L5.63908 15.4759ZM10.1956 14.0334C10.1956 14.5915 9.73995 14.8863 8.9664 14.8863C8.34121 14.8863 7.92794 14.7073 7.69482 14.3072L6.77291 14.4651C7.1332 15.1916 7.87496 15.5496 8.93461 15.5496C10.3651 15.5496 11.1069 14.7599 11.1069 13.9281C11.1069 12.8541 10.1108 12.5593 8.9558 12.3276C8.40478 12.2118 7.7478 12.0118 7.7478 11.5274C7.7478 11.1799 8.08689 10.7798 8.77566 10.7798C9.47504 10.7798 9.8883 11.2536 9.95188 11.4432L10.7572 11.1062C10.3863 10.4008 9.64458 10.1165 8.86044 10.1165C7.66303 10.1165 6.85769 10.7061 6.85769 11.6432C6.85769 12.7067 7.77959 12.9173 8.6697 13.1068C9.45384 13.2648 10.1956 13.4543 10.1956 14.0334ZM13.0249 8.67395L12.1242 9.04248V10.2955H11.2976V11.022H12.1242V14.3387C12.1136 15.0126 12.1136 15.497 13.1203 15.497C13.4487 15.497 13.809 15.4338 13.968 15.4127V14.6967C13.7984 14.7494 13.5653 14.8126 13.3958 14.8126C13.0249 14.8126 13.0249 14.5493 13.0249 13.9386V11.0115H13.968V10.2849H13.0249V8.67395ZM14.7521 10.306V15.4759H15.621V13.0963C15.621 12.654 15.6104 12.1276 15.8436 11.7591C16.1297 11.2958 16.5429 11.1273 17.4013 11.1168V10.2218C17.0516 10.2323 16.1191 10.2534 15.621 11.2326V10.306H14.7521ZM22.5724 8.68448V9.52683H26.4613L22.5724 14.602V15.4864H27.5952V14.6757H23.6214L27.4892 9.54789V8.69501H22.5724V8.68448ZM33.063 10.306V15.4759H33.9319V12.5488C33.9319 12.1697 33.9319 11.7696 34.3134 11.3905C34.5889 11.1168 34.9174 11.0009 35.3094 11.0009C35.7863 11.0009 36.2737 11.2221 36.4221 11.7064C36.4751 11.8854 36.4751 12.0328 36.4751 12.5593V15.4759H37.344V12.4119C37.344 11.9696 37.344 11.6643 37.2592 11.3589C37.0049 10.5061 36.2102 10.1797 35.5532 10.1797C35.2459 10.1797 34.4193 10.2534 33.9319 11.0957V10.306H33.063ZM46.616 14.2229C46.4358 14.5809 46.0861 14.8968 45.4186 14.8968C44.8358 14.8968 43.8503 14.5283 43.8503 12.8225C43.8503 12.3592 43.935 10.7377 45.3656 10.7377C46.0861 10.7377 46.4252 11.1273 46.5736 11.4642L47.3895 11.1273C46.8809 10.2955 45.9802 10.0954 45.3232 10.0954C43.6701 10.0954 42.8648 11.4221 42.8648 12.8752C42.8648 14.1387 43.5536 15.5496 45.3974 15.5496C46.457 15.5496 47.0504 15.0337 47.3789 14.5283L46.616 14.2229ZM28.8455 12.3592H31.6007C31.5265 11.0115 30.7423 10.7798 30.2125 10.7798C29.4707 10.7693 28.9409 11.3168 28.8455 12.3592ZM32.3212 14.4862C32.0245 14.9916 31.4523 15.5707 30.3185 15.5707C28.782 15.5707 27.9025 14.5388 27.9025 12.7909C27.9025 10.8535 29.1952 10.1059 30.2867 10.1059C31.2404 10.1059 32.1517 10.6324 32.459 11.9275C32.5543 12.3592 32.5543 12.7593 32.5543 12.9699H28.8244C28.8032 13.8333 29.1634 14.9284 30.3926 14.9073C30.8907 14.8968 31.251 14.6757 31.4735 14.3177L32.3212 14.4862ZM38.7639 12.3592H41.519C41.4449 11.0115 40.6607 10.7798 40.1309 10.7798C39.3891 10.7693 38.8593 11.3168 38.7639 12.3592ZM42.2396 14.4862C41.9429 14.9916 41.3707 15.5707 40.2368 15.5707C38.7003 15.5707 37.8208 14.5388 37.8208 12.7909C37.8208 10.8535 39.103 10.1059 40.2051 10.1059C41.1587 10.1059 42.0701 10.6324 42.3774 11.9275C42.4727 12.3592 42.4727 12.7593 42.4727 12.9699H38.7427C38.7215 13.8333 39.0818 14.9284 40.311 14.9073C40.8091 14.8968 41.1693 14.6757 41.3919 14.3177L42.2396 14.4862ZM52.158 15.4759H51.2467C51.2467 15.4759 51.1725 15.1074 51.1407 14.7178C50.8758 14.9916 50.3883 15.5496 49.4029 15.5496C48.3962 15.5496 47.6438 14.9495 47.6438 14.086C47.6438 13.8123 47.718 13.5385 47.877 13.3069C48.1737 12.8646 48.7247 12.5172 50.2718 12.4013L51.0983 12.3382V12.2118C51.0983 11.6748 51.0983 10.7798 49.9327 10.7798C49.2015 10.7798 48.9578 11.1273 48.873 11.4537L48.0677 11.1168C48.0783 11.0852 48.0889 11.0641 48.1101 11.0325C48.4174 10.4639 49.0214 10.1165 49.9009 10.1165C50.3778 10.1165 51.0029 10.2323 51.4162 10.5587C51.999 10.9904 51.9778 11.8538 51.9778 11.8538L52.0096 14.5072C52.0202 14.4862 52.0414 15.2548 52.158 15.4759ZM50.9606 14.0545C51.0877 13.7702 51.0983 13.6543 51.0983 12.8962C50.7592 12.9489 50.3036 13.012 49.742 13.1384C48.7777 13.349 48.6081 13.707 48.6081 14.065C48.6081 14.4756 48.9366 14.8336 49.583 14.8336C50.1976 14.8231 50.7168 14.5809 50.9606 14.0545ZM21.9472 15.4759H21.0359C21.0359 15.4759 20.9617 15.1074 20.9299 14.7178C20.665 14.9916 20.1776 15.5496 19.1921 15.5496C18.1854 15.5496 17.4331 14.9495 17.4331 14.086C17.4331 13.8123 17.5072 13.5385 17.6662 13.3069C17.9629 12.8646 18.5139 12.5172 20.061 12.4013L20.8875 12.3382V12.2118C20.8875 11.6748 20.8875 10.7798 19.7325 10.7798C19.0013 10.7798 18.7576 11.1273 18.6728 11.4537L17.8675 11.1168C17.8781 11.0852 17.8993 11.0641 17.9099 11.0325C18.2172 10.4639 18.8212 10.1165 19.7007 10.1165C20.1776 10.1165 20.8028 10.2323 21.216 10.5587C21.7988 10.9904 21.7776 11.8538 21.7776 11.8538L21.8094 14.5072C21.8094 14.4862 21.8412 15.2548 21.9472 15.4759ZM20.7604 14.0545C20.8875 13.7702 20.9087 13.6543 20.9087 12.8962C20.5696 12.9489 20.114 13.012 19.5524 13.1384C18.5881 13.349 18.4185 13.707 18.4185 14.065C18.4185 14.4756 18.747 14.8336 19.3934 14.8336C19.9868 14.8231 20.5061 14.5809 20.7604 14.0545Z" fill="black" fill-opacity="0.2"/>
<path d="M57.8376 11.1273C57.6999 11.2116 57.5621 11.2958 57.435 11.3906C55.8667 10.5272 52.497 8.86353 52.2109 8.70559C51.9036 8.54765 51.3525 8.32653 51.4267 7.81059C51.5221 7.08407 52.7831 5.50466 53.3235 4.85184C56.227 1.32451 57.5303 0.229454 58.3887 0.345277C59.3106 0.4611 59.8192 1.40874 59.8828 5.83107C59.3741 5.67313 58.8019 5.51519 58.1979 5.35725C58.1449 4.71496 58.0284 3.74626 57.986 3.40932C57.933 3.03026 57.8588 2.88285 57.7105 2.87233C57.5409 2.85127 57.1171 3.25138 56.725 3.64097C56.5449 3.81997 56.0574 4.31485 55.5064 4.86237C55.0507 4.83079 54.7434 4.92555 54.5739 5.14666C54.4361 5.32566 54.4149 5.56784 54.4891 5.87319C54.1924 6.16802 53.9381 6.42072 53.7792 6.57866C53.1751 7.17883 52.5288 7.67371 52.497 7.91589C52.4758 8.11595 52.7725 8.316 53.2175 8.57924C54.2878 9.22153 56.9051 10.6325 57.8376 11.1273ZM61.9173 6.70501C60.8894 6.34701 58.3569 5.4099 55.6865 5.06243C54.7646 4.94661 54.3938 5.26249 54.7752 6.13643C55.1461 6.99983 56.1104 8.43182 57.1277 9.51635C58.1449 10.6009 59.2364 10.8852 59.5861 9.22153C59.5967 9.15835 59.6073 9.1057 59.6179 9.04253C59.7026 8.61082 59.7662 8.20018 59.798 7.84218C59.3529 7.64212 58.8443 7.42101 58.3357 7.21042C58.3675 7.58948 58.4098 8.25283 58.431 8.75824C58.431 8.82141 58.4416 8.88459 58.4416 8.94776C58.4734 9.76905 58.1873 9.76906 57.7211 9.43212C57.1701 9.04253 55.4958 6.84189 55.3051 5.87319C55.2945 5.81002 55.3262 5.81002 55.358 5.82055C55.3686 5.82055 55.3792 5.83107 55.4004 5.8416C55.7819 5.98901 57.0429 6.48389 58.3145 7.02089C58.8231 7.23148 59.3423 7.4526 59.798 7.66318C60.2537 7.86324 60.6563 8.05277 60.9636 8.22124C61.5146 8.51606 61.7266 8.71612 61.504 8.94776C60.349 10.106 56.3329 11.7591 54.9448 13.8018C54.9448 13.8018 54.9342 13.8123 54.9342 13.8229C54.913 13.8439 54.9024 13.865 54.8918 13.8966C54.8918 13.9071 54.8812 13.9176 54.8812 13.9176C54.8176 14.044 54.7117 14.2651 54.6799 14.5283C54.6163 14.9706 54.8494 15.3812 55.4958 15.5602C55.6547 15.6129 55.8455 15.6444 56.0468 15.6655C56.0786 15.6655 56.121 15.676 56.1634 15.676C57.4032 15.7392 60.6245 15.0337 61.5994 14.602C62.6167 14.1598 62.3094 13.707 62.0127 13.4859C61.7902 13.3069 60.6669 12.6857 60.1159 12.3909C59.9675 12.4856 59.851 12.5593 59.7132 12.6541C60.6457 13.2227 61.006 13.4964 61.2285 13.6649C61.3133 13.7281 61.2709 13.8018 61.1438 13.8123C61.112 13.8123 61.0802 13.8123 61.0484 13.8229C60.1689 13.886 58.4946 14.0019 57.7105 14.044C57.5939 14.0545 57.4668 14.0545 57.3926 14.0545C57.5833 13.8755 57.8058 13.707 57.9118 13.6333C59.5967 12.4646 62.3942 10.8115 63.2207 10.0955C63.8247 9.54794 65.4778 7.94748 61.9173 6.70501Z" fill="#7F7F7F"/>
<path d="M57.8376 11.1273C57.6999 11.2116 57.5621 11.2958 57.435 11.3906C55.8667 10.5272 52.497 8.86353 52.2109 8.70559C51.9036 8.54765 51.3525 8.32653 51.4267 7.81059C51.5221 7.08407 52.7831 5.50466 53.3235 4.85184C56.227 1.32451 57.5303 0.229454 58.3887 0.345277C59.3106 0.4611 59.8192 1.40874 59.8828 5.83107C59.3741 5.67313 58.8019 5.51519 58.1979 5.35725C58.1449 4.71496 58.0284 3.74626 57.986 3.40932C57.933 3.03026 57.8588 2.88285 57.7105 2.87233C57.5409 2.85127 57.1171 3.25138 56.725 3.64097C56.5449 3.81997 56.0574 4.31485 55.5064 4.86237C55.0507 4.83079 54.7434 4.92555 54.5739 5.14666C54.4361 5.32566 54.4149 5.56784 54.4891 5.87319C54.1924 6.16802 53.9381 6.42072 53.7792 6.57866C53.1751 7.17883 52.5288 7.67371 52.497 7.91589C52.4758 8.11595 52.7725 8.316 53.2175 8.57924C54.2878 9.22153 56.9051 10.6325 57.8376 11.1273ZM61.9173 6.70501C60.8894 6.34701 58.3569 5.4099 55.6865 5.06243C54.7646 4.94661 54.3938 5.26249 54.7752 6.13643C55.1461 6.99983 56.1104 8.43182 57.1277 9.51635C58.1449 10.6009 59.2364 10.8852 59.5861 9.22153C59.5967 9.15835 59.6073 9.1057 59.6179 9.04253C59.7026 8.61082 59.7662 8.20018 59.798 7.84218C59.3529 7.64212 58.8443 7.42101 58.3357 7.21042C58.3675 7.58948 58.4098 8.25283 58.431 8.75824C58.431 8.82141 58.4416 8.88459 58.4416 8.94776C58.4734 9.76905 58.1873 9.76906 57.7211 9.43212C57.1701 9.04253 55.4958 6.84189 55.3051 5.87319C55.2945 5.81002 55.3262 5.81002 55.358 5.82055C55.3686 5.82055 55.3792 5.83107 55.4004 5.8416C55.7819 5.98901 57.0429 6.48389 58.3145 7.02089C58.8231 7.23148 59.3423 7.4526 59.798 7.66318C60.2537 7.86324 60.6563 8.05277 60.9636 8.22124C61.5146 8.51606 61.7266 8.71612 61.504 8.94776C60.349 10.106 56.3329 11.7591 54.9448 13.8018C54.9448 13.8018 54.9342 13.8123 54.9342 13.8229C54.913 13.8439 54.9024 13.865 54.8918 13.8966C54.8918 13.9071 54.8812 13.9176 54.8812 13.9176C54.8176 14.044 54.7117 14.2651 54.6799 14.5283C54.6163 14.9706 54.8494 15.3812 55.4958 15.5602C55.6547 15.6129 55.8455 15.6444 56.0468 15.6655C56.0786 15.6655 56.121 15.676 56.1634 15.676C57.4032 15.7392 60.6245 15.0337 61.5994 14.602C62.6167 14.1598 62.3094 13.707 62.0127 13.4859C61.7902 13.3069 60.6669 12.6857 60.1159 12.3909C59.9675 12.4856 59.851 12.5593 59.7132 12.6541C60.6457 13.2227 61.006 13.4964 61.2285 13.6649C61.3133 13.7281 61.2709 13.8018 61.1438 13.8123C61.112 13.8123 61.0802 13.8123 61.0484 13.8229C60.1689 13.886 58.4946 14.0019 57.7105 14.044C57.5939 14.0545 57.4668 14.0545 57.3926 14.0545C57.5833 13.8755 57.8058 13.707 57.9118 13.6333C59.5967 12.4646 62.3942 10.8115 63.2207 10.0955C63.8247 9.54794 65.4778 7.94748 61.9173 6.70501Z" fill="black" fill-opacity="0.2"/>
</svg>
