<svg width="42" height="26" viewBox="0 0 42 26" fill="none" xmlns="http://www.w3.org/2000/svg">
<path d="M19.4243 0.187988C15.5677 0.187988 12.4448 3.29575 12.4448 7.12323C12.4448 8.70401 12.9769 10.1624 13.8733 11.3322L19.6755 3.75632H18.4341C17.7742 3.75632 17.1534 3.80036 16.7053 3.88843C16.4343 3.94222 16.1931 4.04005 15.9962 4.17716C15.7645 4.33854 15.474 4.68133 15.2869 5.01886C15.2673 5.05815 15.2325 5.11695 15.1932 5.195L14.8533 5.1217L15.4198 2.94392H22.6901L16.9075 10.6176C17.282 10.5834 17.4345 10.5736 17.74 10.5736C17.9714 10.5736 18.3262 10.5884 18.8089 10.6176L19.8334 10.6764C20.2028 10.701 20.513 10.7107 20.7494 10.7107C21.2812 10.7107 21.6262 10.6714 21.9659 10.5639C22.232 10.4805 22.4831 10.3632 22.7147 10.2066C23.1234 9.92759 23.5124 9.48226 23.7489 9.03188C23.7735 8.98784 23.808 8.91928 23.8523 8.82647L24.1578 8.90478C24.0593 9.28158 24.0052 9.42846 23.8523 9.77098C23.5421 10.4611 23.1924 10.9212 22.7097 11.2735C22.2172 11.6358 21.6655 11.8169 21.0204 11.8267H20.9217C20.439 11.8267 20.0696 11.7874 18.9221 11.6112C17.7547 11.4351 17.1588 11.3713 16.5726 11.3713C16.1785 11.3713 15.8142 11.4008 15.4349 11.4644C14.9323 11.5477 14.7354 11.6015 14.2822 11.8069C15.5578 13.192 17.3901 14.0582 19.4244 14.0582C23.281 14.0582 26.4087 10.9555 26.4087 7.11827C26.4039 3.29592 23.2811 0.188428 19.4244 0.188428" fill="#7F7F7F"/>
<path d="M19.4243 0.187988C15.5677 0.187988 12.4448 3.29575 12.4448 7.12323C12.4448 8.70401 12.9769 10.1624 13.8733 11.3322L19.6755 3.75632H18.4341C17.7742 3.75632 17.1534 3.80036 16.7053 3.88843C16.4343 3.94222 16.1931 4.04005 15.9962 4.17716C15.7645 4.33854 15.474 4.68133 15.2869 5.01886C15.2673 5.05815 15.2325 5.11695 15.1932 5.195L14.8533 5.1217L15.4198 2.94392H22.6901L16.9075 10.6176C17.282 10.5834 17.4345 10.5736 17.74 10.5736C17.9714 10.5736 18.3262 10.5884 18.8089 10.6176L19.8334 10.6764C20.2028 10.701 20.513 10.7107 20.7494 10.7107C21.2812 10.7107 21.6262 10.6714 21.9659 10.5639C22.232 10.4805 22.4831 10.3632 22.7147 10.2066C23.1234 9.92759 23.5124 9.48226 23.7489 9.03188C23.7735 8.98784 23.808 8.91928 23.8523 8.82647L24.1578 8.90478C24.0593 9.28158 24.0052 9.42846 23.8523 9.77098C23.5421 10.4611 23.1924 10.9212 22.7097 11.2735C22.2172 11.6358 21.6655 11.8169 21.0204 11.8267H20.9217C20.439 11.8267 20.0696 11.7874 18.9221 11.6112C17.7547 11.4351 17.1588 11.3713 16.5726 11.3713C16.1785 11.3713 15.8142 11.4008 15.4349 11.4644C14.9323 11.5477 14.7354 11.6015 14.2822 11.8069C15.5578 13.192 17.3901 14.0582 19.4244 14.0582C23.281 14.0582 26.4087 10.9555 26.4087 7.11827C26.4039 3.29592 23.2811 0.188428 19.4244 0.188428" fill="black" fill-opacity="0.2"/>
<path d="M23.8425 19.9337C23.8443 19.4902 23.8557 19.3689 23.9123 19.1888C23.9356 19.1171 23.9682 19.0474 24.0086 18.9823C24.0765 18.8697 24.1259 18.8159 24.2588 18.7054H22.1157C22.2542 18.8246 22.3002 18.8731 22.3641 18.9675C22.4068 19.0372 22.4432 19.1086 22.4673 19.1843C22.5164 19.3443 22.5334 19.5044 22.5371 19.8983C22.5371 20.1006 22.5382 20.2337 22.5382 20.2986V24.2707C22.5382 24.5044 22.4965 24.752 22.4331 24.9136C22.4063 24.9806 22.3699 25.0465 22.3264 25.1066C22.2765 25.1797 22.2404 25.2197 22.1229 25.3405H24.2418C24.1375 25.2511 24.1001 25.2097 24.0364 25.1066C23.9918 25.0418 23.9557 24.9721 23.93 24.9044C23.8732 24.7535 23.84 24.5315 23.84 24.3224V20.3232L23.8424 19.9337" fill="#7F7F7F"/>
<path d="M23.8425 19.9337C23.8443 19.4902 23.8557 19.3689 23.9123 19.1888C23.9356 19.1171 23.9682 19.0474 24.0086 18.9823C24.0765 18.8697 24.1259 18.8159 24.2588 18.7054H22.1157C22.2542 18.8246 22.3002 18.8731 22.3641 18.9675C22.4068 19.0372 22.4432 19.1086 22.4673 19.1843C22.5164 19.3443 22.5334 19.5044 22.5371 19.8983C22.5371 20.1006 22.5382 20.2337 22.5382 20.2986V24.2707C22.5382 24.5044 22.4965 24.752 22.4331 24.9136C22.4063 24.9806 22.3699 25.0465 22.3264 25.1066C22.2765 25.1797 22.2404 25.2197 22.1229 25.3405H24.2418C24.1375 25.2511 24.1001 25.2097 24.0364 25.1066C23.9918 25.0418 23.9557 24.9721 23.93 24.9044C23.8732 24.7535 23.84 24.5315 23.84 24.3224V20.3232L23.8424 19.9337" fill="black" fill-opacity="0.2"/>
<path d="M38.1104 19.9309C38.1104 19.6361 38.1329 19.4115 38.1839 19.228C38.2072 19.1428 38.2441 19.0605 38.2895 18.9833C38.3593 18.8699 38.4113 18.8156 38.5533 18.7051H36.3746C36.501 18.8098 36.5445 18.857 36.6188 18.9748C36.6668 19.0516 36.7034 19.1304 36.7297 19.2061C36.7804 19.3627 36.8011 19.5568 36.8011 19.9038V21.5154H33.8091V20.3056C33.8091 19.9383 33.8115 19.6986 33.8269 19.5183C33.8354 19.4104 33.8529 19.3142 33.881 19.2301C33.9264 19.0874 34.0487 18.8897 34.157 18.7768C34.1716 18.7607 34.1992 18.7357 34.2307 18.7051H32.0908C32.2193 18.8359 32.2538 18.8762 32.3106 18.9609C32.357 19.0284 32.3979 19.104 32.4265 19.1853C32.482 19.3532 32.4923 19.4452 32.4987 19.8874L32.5059 20.3075V23.9407C32.5059 24.3088 32.4987 24.4705 32.4788 24.6395C32.4669 24.7252 32.4435 24.8128 32.4125 24.9032C32.357 25.0461 32.2806 25.1582 32.1548 25.274C32.1394 25.2892 32.1152 25.3103 32.0815 25.3401H34.196C34.1039 25.2455 34.0721 25.2054 34.0166 25.1213C33.9779 25.0585 33.9402 24.9897 33.9097 24.9156C33.8422 24.74 33.821 24.615 33.8115 24.3334C33.8099 24.1921 33.8091 24.0615 33.8091 23.9373V22.3297H36.8011V23.9487C36.8011 24.3065 36.7974 24.437 36.7706 24.6232C36.7599 24.7236 36.7371 24.8204 36.6992 24.9098C36.6509 25.034 36.5745 25.1471 36.4593 25.2576C36.4394 25.2747 36.411 25.3045 36.3672 25.3401H38.5002C38.4123 25.2534 38.3794 25.2162 38.3221 25.135C38.2688 25.062 38.2282 24.9897 38.1982 24.9172C38.1329 24.7603 38.1181 24.6445 38.1104 24.3168C38.1064 24.1219 38.1053 24.0083 38.1053 23.9732L38.1104 20.3228V19.9309" fill="#7F7F7F"/>
<path d="M38.1104 19.9309C38.1104 19.6361 38.1329 19.4115 38.1839 19.228C38.2072 19.1428 38.2441 19.0605 38.2895 18.9833C38.3593 18.8699 38.4113 18.8156 38.5533 18.7051H36.3746C36.501 18.8098 36.5445 18.857 36.6188 18.9748C36.6668 19.0516 36.7034 19.1304 36.7297 19.2061C36.7804 19.3627 36.8011 19.5568 36.8011 19.9038V21.5154H33.8091V20.3056C33.8091 19.9383 33.8115 19.6986 33.8269 19.5183C33.8354 19.4104 33.8529 19.3142 33.881 19.2301C33.9264 19.0874 34.0487 18.8897 34.157 18.7768C34.1716 18.7607 34.1992 18.7357 34.2307 18.7051H32.0908C32.2193 18.8359 32.2538 18.8762 32.3106 18.9609C32.357 19.0284 32.3979 19.104 32.4265 19.1853C32.482 19.3532 32.4923 19.4452 32.4987 19.8874L32.5059 20.3075V23.9407C32.5059 24.3088 32.4987 24.4705 32.4788 24.6395C32.4669 24.7252 32.4435 24.8128 32.4125 24.9032C32.357 25.0461 32.2806 25.1582 32.1548 25.274C32.1394 25.2892 32.1152 25.3103 32.0815 25.3401H34.196C34.1039 25.2455 34.0721 25.2054 34.0166 25.1213C33.9779 25.0585 33.9402 24.9897 33.9097 24.9156C33.8422 24.74 33.821 24.615 33.8115 24.3334C33.8099 24.1921 33.8091 24.0615 33.8091 23.9373V22.3297H36.8011V23.9487C36.8011 24.3065 36.7974 24.437 36.7706 24.6232C36.7599 24.7236 36.7371 24.8204 36.6992 24.9098C36.6509 25.034 36.5745 25.1471 36.4593 25.2576C36.4394 25.2747 36.411 25.3045 36.3672 25.3401H38.5002C38.4123 25.2534 38.3794 25.2162 38.3221 25.135C38.2688 25.062 38.2282 24.9897 38.1982 24.9172C38.1329 24.7603 38.1181 24.6445 38.1104 24.3168C38.1064 24.1219 38.1053 24.0083 38.1053 23.9732L38.1104 20.3228V19.9309" fill="black" fill-opacity="0.2"/>
<path d="M18.501 21.6279C18.263 21.7666 18.0183 21.8457 17.6606 21.8966C17.5245 21.9177 17.4058 21.9285 17.3116 21.9285C17.2779 21.9285 17.2543 21.9275 17.2031 21.9235V19.4675C17.2883 19.4652 17.3204 19.4652 17.378 19.4652C17.7049 19.4652 18.0249 19.5034 18.2755 19.5743C18.4437 19.6221 18.6008 19.7054 18.7298 19.8146C18.9551 20.006 19.0737 20.2834 19.0737 20.6293C19.0737 20.9304 18.9856 21.1862 18.8126 21.3789C18.7314 21.471 18.6257 21.5535 18.501 21.6279L18.501 21.6279ZM21.0512 24.8809C20.8161 24.6587 20.6059 24.4474 20.2946 24.1097C20.0964 23.8987 19.934 23.7162 19.8074 23.5704L18.77 22.3569C18.8979 22.3195 18.9505 22.3016 19.0656 22.2557C19.4029 22.1233 19.6587 21.9764 19.8893 21.7829C20.1539 21.5617 20.3161 21.3249 20.4148 21.0258C20.4718 20.8579 20.497 20.6865 20.497 20.5146C20.497 20.1066 20.345 19.7365 20.0462 19.4266C19.7713 19.1403 19.3897 18.9293 18.9611 18.8281C18.6617 18.7592 18.3507 18.7273 17.82 18.7131C17.6196 18.7081 17.4119 18.7054 17.2004 18.7054H15.4774C15.5933 18.8125 15.6363 18.8597 15.7 18.9554C15.7502 19.0319 15.7932 19.1136 15.8186 19.1969C15.8635 19.3467 15.882 19.5524 15.882 19.9042V24.2578C15.882 24.5714 15.8621 24.7536 15.8083 24.9002C15.7778 24.9748 15.7401 25.0449 15.6931 25.1101C15.6305 25.1884 15.592 25.2285 15.4673 25.3405H17.5902C17.4941 25.2385 17.4647 25.2058 17.4058 25.1248C17.3591 25.0613 17.3203 24.9925 17.2927 24.9223C17.2354 24.7755 17.2089 24.6167 17.2081 24.3093C17.2046 24.2096 17.203 24.0978 17.203 23.977V22.4846L18.4407 23.9583C18.4983 24.0282 18.5917 24.1345 18.7162 24.2798C18.8616 24.4409 18.9693 24.5616 19.0444 24.6365C19.283 24.881 19.5096 25.0605 19.7333 25.1813C19.9273 25.2833 20.1078 25.3266 20.3957 25.3363C20.5048 25.3398 20.6213 25.3406 20.7436 25.3406H21.5811C21.4707 25.253 21.4232 25.2156 21.3372 25.1412C21.2467 25.0624 21.1504 24.9772 21.0512 24.881" fill="#7F7F7F"/>
<path d="M18.501 21.6279C18.263 21.7666 18.0183 21.8457 17.6606 21.8966C17.5245 21.9177 17.4058 21.9285 17.3116 21.9285C17.2779 21.9285 17.2543 21.9275 17.2031 21.9235V19.4675C17.2883 19.4652 17.3204 19.4652 17.378 19.4652C17.7049 19.4652 18.0249 19.5034 18.2755 19.5743C18.4437 19.6221 18.6008 19.7054 18.7298 19.8146C18.9551 20.006 19.0737 20.2834 19.0737 20.6293C19.0737 20.9304 18.9856 21.1862 18.8126 21.3789C18.7314 21.471 18.6257 21.5535 18.501 21.6279L18.501 21.6279ZM21.0512 24.8809C20.8161 24.6587 20.6059 24.4474 20.2946 24.1097C20.0964 23.8987 19.934 23.7162 19.8074 23.5704L18.77 22.3569C18.8979 22.3195 18.9505 22.3016 19.0656 22.2557C19.4029 22.1233 19.6587 21.9764 19.8893 21.7829C20.1539 21.5617 20.3161 21.3249 20.4148 21.0258C20.4718 20.8579 20.497 20.6865 20.497 20.5146C20.497 20.1066 20.345 19.7365 20.0462 19.4266C19.7713 19.1403 19.3897 18.9293 18.9611 18.8281C18.6617 18.7592 18.3507 18.7273 17.82 18.7131C17.6196 18.7081 17.4119 18.7054 17.2004 18.7054H15.4774C15.5933 18.8125 15.6363 18.8597 15.7 18.9554C15.7502 19.0319 15.7932 19.1136 15.8186 19.1969C15.8635 19.3467 15.882 19.5524 15.882 19.9042V24.2578C15.882 24.5714 15.8621 24.7536 15.8083 24.9002C15.7778 24.9748 15.7401 25.0449 15.6931 25.1101C15.6305 25.1884 15.592 25.2285 15.4673 25.3405H17.5902C17.4941 25.2385 17.4647 25.2058 17.4058 25.1248C17.3591 25.0613 17.3203 24.9925 17.2927 24.9223C17.2354 24.7755 17.2089 24.6167 17.2081 24.3093C17.2046 24.2096 17.203 24.0978 17.203 23.977V22.4846L18.4407 23.9583C18.4983 24.0282 18.5917 24.1345 18.7162 24.2798C18.8616 24.4409 18.9693 24.5616 19.0444 24.6365C19.283 24.881 19.5096 25.0605 19.7333 25.1813C19.9273 25.2833 20.1078 25.3266 20.3957 25.3363C20.5048 25.3398 20.6213 25.3406 20.7436 25.3406H21.5811C21.4707 25.253 21.4232 25.2156 21.3372 25.1412C21.2467 25.0624 21.1504 24.9772 21.0512 24.881" fill="black" fill-opacity="0.2"/>
<path d="M30.2492 24.3814C29.8477 24.5499 29.48 24.6274 29.0838 24.6274C28.393 24.6274 27.8021 24.3824 27.364 23.9136C26.9303 23.4485 26.6989 22.804 26.6989 22.075C26.6989 21.3802 26.9152 20.7344 27.3016 20.2846C27.4685 20.0881 27.6723 19.9233 27.9061 19.7931C28.2842 19.5834 28.7229 19.474 29.1989 19.474C29.6057 19.474 30.0001 19.5534 30.3978 19.7137C30.6449 19.8142 30.7348 19.8637 30.9469 20.0135V18.7658C30.7829 18.7128 30.7173 18.6949 30.5419 18.6572C30.1553 18.5762 29.7856 18.5396 29.3656 18.5396C28.6483 18.5396 28.0279 18.6543 27.4634 18.8918C27.1256 19.0326 26.8183 19.2151 26.545 19.4326C25.7224 20.0916 25.2744 21.0445 25.2744 22.1446C25.2744 23.2113 25.7062 24.1333 26.494 24.7525C27.1447 25.2627 27.9822 25.5198 28.9882 25.5198C29.6163 25.5198 30.2039 25.4267 30.8625 25.2224C30.8874 25.2152 30.9238 25.2031 30.9713 25.1881V23.983C30.8102 24.0885 30.7561 24.1228 30.66 24.1789C30.5308 24.2522 30.3955 24.3213 30.2492 24.3814" fill="#7F7F7F"/>
<path d="M30.2492 24.3814C29.8477 24.5499 29.48 24.6274 29.0838 24.6274C28.393 24.6274 27.8021 24.3824 27.364 23.9136C26.9303 23.4485 26.6989 22.804 26.6989 22.075C26.6989 21.3802 26.9152 20.7344 27.3016 20.2846C27.4685 20.0881 27.6723 19.9233 27.9061 19.7931C28.2842 19.5834 28.7229 19.474 29.1989 19.474C29.6057 19.474 30.0001 19.5534 30.3978 19.7137C30.6449 19.8142 30.7348 19.8637 30.9469 20.0135V18.7658C30.7829 18.7128 30.7173 18.6949 30.5419 18.6572C30.1553 18.5762 29.7856 18.5396 29.3656 18.5396C28.6483 18.5396 28.0279 18.6543 27.4634 18.8918C27.1256 19.0326 26.8183 19.2151 26.545 19.4326C25.7224 20.0916 25.2744 21.0445 25.2744 22.1446C25.2744 23.2113 25.7062 24.1333 26.494 24.7525C27.1447 25.2627 27.9822 25.5198 28.9882 25.5198C29.6163 25.5198 30.2039 25.4267 30.8625 25.2224C30.8874 25.2152 30.9238 25.2031 30.9713 25.1881V23.983C30.8102 24.0885 30.7561 24.1228 30.66 24.1789C30.5308 24.2522 30.3955 24.3213 30.2492 24.3814" fill="black" fill-opacity="0.2"/>
<path d="M12.4946 18.9628C12.5368 19.0335 12.5716 19.1094 12.5934 19.1885C12.6401 19.3489 12.6523 19.5102 12.6523 19.8831V22.4057C12.6523 22.9476 12.6366 23.2685 12.5957 23.5327C12.57 23.7091 12.51 23.8728 12.4241 24.0192C12.2619 24.2892 11.9605 24.4967 11.6038 24.5874C11.4587 24.6225 11.3005 24.6412 11.1293 24.6412C10.5567 24.6412 10.0644 24.4282 9.82536 24.0793C9.64146 23.8082 9.59104 23.5506 9.58255 22.8687L9.5783 22.3216V20.3213C9.5783 19.9334 9.57989 19.7488 9.59396 19.551C9.60032 19.4327 9.61758 19.3298 9.64279 19.2468C9.68949 19.0941 9.80307 18.8911 9.91001 18.7658C9.92514 18.7521 9.94106 18.7339 9.9668 18.707H7.79639C7.9296 18.8172 7.97259 18.8678 8.03814 18.9754C8.08033 19.0482 8.1135 19.1257 8.1326 19.2062C8.15914 19.3066 8.17506 19.4092 8.17825 19.512C8.17904 19.5769 8.18037 19.7145 8.18064 19.9234L8.18409 20.3076V22.2076C8.18409 22.9135 8.18674 23.0923 8.21062 23.3758C8.24937 23.8607 8.39612 24.2472 8.67846 24.5987C9.18399 25.2305 9.99678 25.5614 11.0333 25.5614C11.5288 25.5614 12.0088 25.4866 12.3747 25.3513C12.7598 25.2094 13.1146 24.9729 13.3688 24.6929C13.6777 24.3488 13.8552 23.9258 13.907 23.4034C13.9409 23.0999 13.9537 22.7384 13.9537 22.2187V20.3104L13.9481 19.9315V19.8568C13.9481 19.5715 13.964 19.4052 14.0052 19.2512C14.029 19.157 14.0678 19.0661 14.1206 18.9833C14.1914 18.8701 14.2413 18.8179 14.3822 18.7069H12.2535C12.383 18.8084 12.4281 18.8564 12.4947 18.9627" fill="#7F7F7F"/>
<path d="M12.4946 18.9628C12.5368 19.0335 12.5716 19.1094 12.5934 19.1885C12.6401 19.3489 12.6523 19.5102 12.6523 19.8831V22.4057C12.6523 22.9476 12.6366 23.2685 12.5957 23.5327C12.57 23.7091 12.51 23.8728 12.4241 24.0192C12.2619 24.2892 11.9605 24.4967 11.6038 24.5874C11.4587 24.6225 11.3005 24.6412 11.1293 24.6412C10.5567 24.6412 10.0644 24.4282 9.82536 24.0793C9.64146 23.8082 9.59104 23.5506 9.58255 22.8687L9.5783 22.3216V20.3213C9.5783 19.9334 9.57989 19.7488 9.59396 19.551C9.60032 19.4327 9.61758 19.3298 9.64279 19.2468C9.68949 19.0941 9.80307 18.8911 9.91001 18.7658C9.92514 18.7521 9.94106 18.7339 9.9668 18.707H7.79639C7.9296 18.8172 7.97259 18.8678 8.03814 18.9754C8.08033 19.0482 8.1135 19.1257 8.1326 19.2062C8.15914 19.3066 8.17506 19.4092 8.17825 19.512C8.17904 19.5769 8.18037 19.7145 8.18064 19.9234L8.18409 20.3076V22.2076C8.18409 22.9135 8.18674 23.0923 8.21062 23.3758C8.24937 23.8607 8.39612 24.2472 8.67846 24.5987C9.18399 25.2305 9.99678 25.5614 11.0333 25.5614C11.5288 25.5614 12.0088 25.4866 12.3747 25.3513C12.7598 25.2094 13.1146 24.9729 13.3688 24.6929C13.6777 24.3488 13.8552 23.9258 13.907 23.4034C13.9409 23.0999 13.9537 22.7384 13.9537 22.2187V20.3104L13.9481 19.9315V19.8568C13.9481 19.5715 13.964 19.4052 14.0052 19.2512C14.029 19.157 14.0678 19.0661 14.1206 18.9833C14.1914 18.8701 14.2413 18.8179 14.3822 18.7069H12.2535C12.383 18.8084 12.4281 18.8564 12.4947 18.9627" fill="black" fill-opacity="0.2"/>
<path d="M5.17375 24.4075C4.87734 24.4616 4.54165 24.4916 4.12554 24.5016C3.98489 24.5056 3.80922 24.5056 3.59135 24.5056H2.56814L6.6163 18.7051H1.36496L0.720124 20.1213C0.935868 20.0071 1.02184 19.9673 1.20787 19.8924C1.5072 19.7748 1.83572 19.6815 2.15228 19.6271C2.42826 19.5802 2.68195 19.5583 3.0935 19.5465C3.27846 19.5404 3.45227 19.537 3.61256 19.537H4.38904L0.303711 25.3401H6.07862L6.74548 23.8271C6.51355 23.9595 6.43129 24.0017 6.25482 24.0821C5.91727 24.2345 5.55347 24.345 5.17373 24.4075" fill="#7F7F7F"/>
<path d="M5.17375 24.4075C4.87734 24.4616 4.54165 24.4916 4.12554 24.5016C3.98489 24.5056 3.80922 24.5056 3.59135 24.5056H2.56814L6.6163 18.7051H1.36496L0.720124 20.1213C0.935868 20.0071 1.02184 19.9673 1.20787 19.8924C1.5072 19.7748 1.83572 19.6815 2.15228 19.6271C2.42826 19.5802 2.68195 19.5583 3.0935 19.5465C3.27846 19.5404 3.45227 19.537 3.61256 19.537H4.38904L0.303711 25.3401H6.07862L6.74548 23.8271C6.51355 23.9595 6.43129 24.0017 6.25482 24.0821C5.91727 24.2345 5.55347 24.345 5.17373 24.4075" fill="black" fill-opacity="0.2"/>
<path d="M40.3248 16.9072H40.1438V16.6538H40.3147C40.4334 16.6538 40.5177 16.6775 40.5177 16.7793C40.5177 16.8652 40.4594 16.9072 40.3248 16.9072ZM40.6443 16.7774C40.6443 16.5715 40.5016 16.5356 40.2683 16.5356H40.0273V17.3306H40.1438V17.0211H40.3529C40.3609 17.0211 40.3689 17.0211 40.375 17.019L40.5419 17.3306H40.6764L40.4936 16.9931C40.596 16.9512 40.6443 16.8673 40.6443 16.7774" fill="#7F7F7F"/>
<path d="M40.3248 16.9072H40.1438V16.6538H40.3147C40.4334 16.6538 40.5177 16.6775 40.5177 16.7793C40.5177 16.8652 40.4594 16.9072 40.3248 16.9072ZM40.6443 16.7774C40.6443 16.5715 40.5016 16.5356 40.2683 16.5356H40.0273V17.3306H40.1438V17.0211H40.3529C40.3609 17.0211 40.3689 17.0211 40.375 17.019L40.5419 17.3306H40.6764L40.4936 16.9931C40.596 16.9512 40.6443 16.8673 40.6443 16.7774" fill="black" fill-opacity="0.2"/>
<path d="M40.3104 17.5979C39.9567 17.5979 39.6773 17.3382 39.6773 16.9566C39.6773 16.5711 39.9567 16.3138 40.3104 16.3138C40.6703 16.3138 40.9415 16.5711 40.9415 16.9566C40.9415 17.3382 40.6703 17.5979 40.3104 17.5979ZM40.3104 16.2059C39.8922 16.2059 39.5547 16.5113 39.5547 16.9566C39.5547 17.4041 39.8922 17.7058 40.3104 17.7058C40.7265 17.7058 41.0641 17.4041 41.0641 16.9566C41.0641 16.5113 40.7266 16.2059 40.3104 16.2059Z" fill="#7F7F7F"/>
<path d="M40.3104 17.5979C39.9567 17.5979 39.6773 17.3382 39.6773 16.9566C39.6773 16.5711 39.9567 16.3138 40.3104 16.3138C40.6703 16.3138 40.9415 16.5711 40.9415 16.9566C40.9415 17.3382 40.6703 17.5979 40.3104 17.5979ZM40.3104 16.2059C39.8922 16.2059 39.5547 16.5113 39.5547 16.9566C39.5547 17.4041 39.8922 17.7058 40.3104 17.7058C40.7265 17.7058 41.0641 17.4041 41.0641 16.9566C41.0641 16.5113 40.7266 16.2059 40.3104 16.2059Z" fill="black" fill-opacity="0.2"/>
</svg>
