<svg width="94" height="48" viewBox="0 0 94 48" fill="none" xmlns="http://www.w3.org/2000/svg">
<path d="M73.8349 21.0598C72.4623 19.6879 70.6611 18.9323 68.7622 18.9323C67.3735 18.9323 65.9782 19.4495 65.2113 19.9602C63.6235 21.0178 62.3186 22.1657 59.9694 25.2009V27.3826C61.9626 24.786 63.8487 22.7399 65.2806 21.6145C66.2217 20.8588 67.557 20.3906 68.7622 20.3906C71.8729 20.3906 74.5022 23.0188 74.5022 26.1311V27.4442C74.5022 28.982 73.8984 30.4268 72.798 31.5143C71.7089 32.5917 70.2743 33.185 68.7622 33.185C66.2057 33.185 63.9554 31.4302 63.3439 29.0338L62.3163 30.2795C63.0657 32.7904 65.7726 34.643 68.7622 34.643C70.6611 34.643 72.4623 33.8861 73.8349 32.5169C75.2057 31.145 75.9602 29.3439 75.9602 27.4442V26.1311C75.9602 24.2321 75.2057 22.4302 73.8349 21.0598ZM42.6024 20.3906C43.593 20.3906 44.4496 20.6033 45.2228 21.0411C45.5862 20.587 45.9531 20.2181 46.2266 19.945C45.4086 19.3202 44.0234 18.9323 42.6024 18.9323C40.5773 18.9323 38.7383 19.6626 37.4252 20.9897C36.1219 22.3048 35.4021 24.1305 35.4021 26.1311V34.643H36.86V26.1311C36.86 22.7512 39.2213 20.3906 42.6024 20.3906ZM56.4578 34.643V26.1311C56.4578 23.5142 54.4078 21.4638 51.7905 21.4638C50.5717 21.4638 49.4082 21.9573 48.5115 22.8528C47.6168 23.7476 47.1236 24.913 47.1236 26.1311V27.4442C47.1236 29.9733 49.2618 32.1118 51.7905 32.1118C52.4839 32.1118 53.4277 31.9412 54.0054 31.4672V29.9262C53.4379 30.3823 52.614 30.6538 51.7905 30.6538C49.9917 30.6538 48.5816 29.243 48.5816 27.4442V26.1311C48.5816 24.3319 49.9917 22.9233 51.7905 22.9233C53.5909 22.9233 54.9998 24.3319 54.9998 26.1311V34.643H56.4578ZM17.4001 25.2862V25.7571C17.4001 28.2851 18.3592 30.6441 20.1015 32.3985C21.8396 34.1491 24.1693 35.1116 26.6615 35.1116C28.6652 35.1116 30.4395 34.6582 31.9372 33.7673C33.172 33.0311 33.7193 32.2871 33.7664 32.219V24.37H26.3074V25.8288H32.3084V31.7659L32.3026 31.771C31.5999 32.4749 29.9319 33.6524 26.6615 33.6524C24.5304 33.6524 22.5575 32.8403 21.1026 31.362C19.6551 29.8908 18.8581 27.8999 18.8581 25.7571V25.2862C18.8581 23.263 19.7708 21.2445 21.3608 19.751C22.9844 18.2292 25.0995 17.3901 27.3178 17.3901C29.3866 17.3901 30.8279 17.7041 31.9855 18.4052V16.7688C30.7803 16.2562 29.3399 16.026 27.3178 16.026C21.9424 16.026 17.4001 20.2675 17.4001 25.2862ZM42.6024 22.9233C43.1556 22.9233 43.6242 23.0149 43.9973 23.1964C44.1788 22.7438 44.365 22.3706 44.6365 21.9176C44.24 21.634 43.2962 21.4638 42.6024 21.4638C39.942 21.4638 37.9351 23.4702 37.9351 26.1311V34.643H39.3931V26.1311C39.3931 24.2415 40.7132 22.9233 42.6024 22.9233ZM31.9855 21.2114V19.4873C30.6662 18.7796 29.2265 18.464 27.3178 18.464C25.3702 18.464 23.5239 19.1788 22.1169 20.4736C20.7088 21.7731 19.9324 23.4823 19.9324 25.2862V25.7571C19.9324 29.5195 22.9505 32.58 26.6615 32.58C29.6799 32.58 30.919 31.5922 31.2345 31.2798V26.9023H26.3074V28.3599H29.8704V30.5533L29.8576 30.5576C29.3991 30.7403 28.4471 31.1213 26.6615 31.1213C25.246 31.1213 23.9216 30.5709 22.9314 29.5686C21.9366 28.5629 21.3904 27.2085 21.3904 25.7571V25.2862C21.3904 22.3788 24.105 19.9228 27.3178 19.9228C29.5405 19.9228 30.8547 20.2827 31.9855 21.2114ZM66.4036 23.9583C67.0615 23.3019 67.9227 22.9233 68.7622 22.9233C70.561 22.9233 71.9719 24.3319 71.9719 26.1311V27.4442C71.9719 29.243 70.561 30.6538 68.7622 30.6538C67.8912 30.6538 67.0498 30.1751 66.3907 29.31C65.8064 28.545 65.4278 27.51 65.3694 26.5798L64.1887 28.0214C64.4205 29.1242 64.997 30.181 65.8115 30.9238C66.6521 31.6888 67.6999 32.1118 68.7622 32.1118C71.3365 32.1118 73.4291 30.0177 73.4291 27.4442V26.1311C73.4291 24.913 72.9359 23.7476 72.0412 22.8528C71.1449 21.9573 69.981 21.4638 68.7622 21.4638C67.9917 21.4638 66.7662 21.74 65.3059 23.053L65.3008 23.0581C64.9101 23.4492 63.9924 24.3669 63.4342 25.0213C62.4955 26.0454 61.1314 27.5914 59.9694 29.1382V31.415C61.2591 29.7579 62.0016 28.8297 63.2138 27.4297C64.2994 26.163 65.6432 24.6236 66.4036 23.9583ZM44.5925 27.4442C44.5925 29.3439 45.3478 31.145 46.7185 32.5169C48.0905 33.8861 49.892 34.643 51.7905 34.643C52.5949 34.643 53.4211 34.4712 54.0054 34.1833V32.7265C53.3229 33.0124 52.4983 33.185 51.7905 33.185C48.6798 33.185 46.0497 30.5565 46.0497 27.4442V26.1311C46.0497 23.0188 48.6798 20.3906 51.7905 20.3906C53.3374 20.3906 54.7833 20.9827 55.8619 22.0613C56.9393 23.1387 57.5314 24.5843 57.5314 26.1311V34.643H58.9894V25.8506C58.8986 23.993 58.1055 22.2549 56.7566 20.9554C55.4057 19.6509 53.64 18.9323 51.7905 18.9323C49.892 18.9323 48.0905 19.6879 46.7185 21.0598C45.3478 22.4302 44.5925 24.2321 44.5925 26.1311V27.4442ZM61.4706 21.7995C61.917 21.2636 62.379 20.719 62.9267 20.2594V12.5573H61.4706V21.7995ZM64.001 19.6626V12.5573H65.4582V18.6627C65.0625 18.8625 64.5093 19.2427 64.001 19.6626Z" fill="#90A5B1"/>
</svg>
