<svg width="132" height="69" viewBox="0 0 132 69" fill="none" xmlns="http://www.w3.org/2000/svg">
<path d="M27.365 27.9307V35.411C27.365 35.6538 27.5686 35.8603 27.8081 35.8603C27.88 35.8603 27.9638 35.836 28.0237 35.7995L34.4192 32.0594C34.6348 31.938 34.7066 31.6587 34.5869 31.4523C34.5509 31.3794 34.491 31.3308 34.4192 31.2823L28.0237 27.5421C27.8081 27.4207 27.5447 27.4936 27.4249 27.7121C27.377 27.785 27.365 27.8579 27.365 27.9307V27.9307Z" fill="#6E37FA"/>
<path d="M13.0529 39.2119V31.7316C13.0529 31.4888 12.8612 31.2823 12.6097 31.2823C12.5259 31.2823 12.454 31.3066 12.3822 31.3431L5.99868 35.0832C5.7831 35.2046 5.71124 35.4839 5.84298 35.7025C5.87891 35.7753 5.9388 35.8239 5.99868 35.8603L12.3941 39.6005C12.6097 39.7219 12.8732 39.649 12.993 39.4305C13.0289 39.3697 13.0529 39.2847 13.0529 39.2119V39.2119Z" fill="#F40953"/>
<path d="M16.5741 34.233V41.7133C16.5741 41.9561 16.7777 42.1626 17.0172 42.1626C17.0891 42.1626 17.1729 42.1383 17.2328 42.1018L23.6163 38.3617C23.8319 38.2403 23.9037 37.961 23.772 37.7546C23.736 37.6817 23.6762 37.6331 23.6163 37.5967L17.2328 33.8566C17.0172 33.7352 16.7537 33.808 16.634 34.0266C16.598 34.0873 16.5741 34.1602 16.5741 34.233Z" fill="#FF9408"/>
<path d="M23.8677 32.9213V25.4411C23.8677 25.1983 23.6641 24.9918 23.4246 24.9918C23.3527 24.9918 23.2689 25.0161 23.209 25.0525L16.8135 28.7926C16.5979 28.9141 16.5261 29.1934 16.6578 29.3998C16.6937 29.4727 16.7536 29.5212 16.8135 29.5577L23.209 33.2978C23.4246 33.4192 23.688 33.3464 23.8078 33.1399C23.8557 33.0792 23.8677 33.0063 23.8677 32.9213Z" fill="#32BBB9"/>
<path d="M63.7976 42.1749H61.8933C61.6178 42.1749 61.3903 41.9442 61.3903 41.6649V30.2017C61.3903 29.9224 61.6178 29.6917 61.8933 29.6917H63.7976C64.073 29.6917 64.3006 29.9224 64.3006 30.2017V41.677C64.3006 41.9563 64.073 42.1749 63.7976 42.1749Z" fill="#002041"/>
<path d="M72.9358 28.2344C77.1037 28.2344 79.4631 31.2338 79.4631 35.4232V35.7632C79.4631 36.0425 79.2355 36.2732 78.9601 36.2732H69.4387C69.295 36.2732 69.1872 36.3825 69.1872 36.5282V36.5768C69.5704 38.6897 71.319 39.7583 73.1754 39.7583C74.4928 39.7704 75.7743 39.2847 76.7564 38.4104C76.96 38.2282 77.2833 38.2525 77.463 38.4711L78.5768 39.819C78.7445 40.0254 78.7325 40.329 78.5409 40.5112C77.2354 41.7134 75.5228 42.5027 73.2113 42.5027C68.9117 42.5027 66.205 39.6126 66.205 35.4232C66.1931 31.428 68.792 28.2344 72.9358 28.2344V28.2344ZM72.876 30.8573C70.8639 30.8573 69.6543 31.9259 69.2351 33.7353C69.1992 33.8688 69.283 34.0024 69.4267 34.0388C69.4387 34.0388 69.4626 34.051 69.4746 34.051H76.0018C76.1456 34.051 76.2533 33.9417 76.2533 33.796C76.2533 33.7838 76.2533 33.7717 76.2533 33.7595C75.9779 32.0231 74.8641 30.8573 72.876 30.8573Z" fill="#002041"/>
<path d="M105.009 28.2344C109.177 28.2344 111.536 31.2338 111.536 35.4232V35.7632C111.536 36.0425 111.309 36.2732 111.033 36.2732H101.512C101.38 36.2732 101.26 36.3946 101.272 36.5282V36.5646C101.655 38.6775 103.404 39.7462 105.26 39.7462C106.578 39.7583 107.847 39.2726 108.841 38.3983C109.045 38.2161 109.368 38.2404 109.548 38.459L110.662 39.8069C110.829 40.0133 110.818 40.3169 110.614 40.499C109.308 41.7012 107.596 42.4905 105.284 42.4905C100.985 42.4905 98.2781 39.6004 98.2781 35.411C98.2661 31.428 100.877 28.2344 105.009 28.2344V28.2344ZM104.949 30.8573C102.937 30.8573 101.727 31.9259 101.308 33.7353C101.272 33.8688 101.356 34.0024 101.5 34.0388C101.512 34.0388 101.536 34.051 101.548 34.051H108.075C108.219 34.051 108.326 33.9417 108.326 33.796C108.326 33.7838 108.326 33.7717 108.326 33.7595C108.051 32.0231 106.937 30.8573 104.949 30.8573Z" fill="#002041"/>
<path d="M83.8223 42.1743H81.8701C81.5946 42.1743 81.3671 41.9436 81.3671 41.6643V25.5138C81.3671 25.2345 81.5946 25.0038 81.8701 25.0038H83.8223C84.0977 25.0038 84.3253 25.2345 84.3253 25.5138V41.6764C84.3253 41.9557 84.0977 42.1743 83.8223 42.1743Z" fill="#002041"/>
<path d="M91.5831 28.2344C93.7987 28.2344 95.4395 28.963 96.5893 30.3352C96.7689 30.5537 96.745 30.8695 96.5294 31.0516L95.1641 32.2174C94.9605 32.3874 94.673 32.3752 94.4934 32.1931C93.7269 31.4159 92.6969 30.9423 91.3675 30.9423C90.0261 30.9423 89.1878 31.428 89.1878 32.3024C89.1878 33.2252 90.074 33.4438 92.3615 33.9903C95.0443 34.646 96.9246 35.4353 96.9246 38.1797C96.9246 40.9848 94.9365 42.5027 91.4753 42.5027C89.1399 42.5027 86.8643 41.5798 85.7026 40.074C85.5469 39.8676 85.5708 39.564 85.7625 39.3819L87.1158 38.1675C87.3194 37.9854 87.6428 38.0097 87.8224 38.2161C88.6608 39.1633 89.9183 39.8312 91.6909 39.8312C93.1161 39.8312 93.9664 39.3454 93.9664 38.3375C93.9664 37.3297 93.14 37.1232 90.9962 36.6253C88.6847 36.1032 86.2415 35.2896 86.2415 32.3995C86.2415 29.813 88.2775 28.2344 91.5831 28.2344V28.2344Z" fill="#002041"/>
<path d="M113.931 28.5621H115.752C116.027 28.5621 116.255 28.7928 116.255 29.0721V29.8735C116.255 30.0071 116.362 30.1285 116.506 30.1285C116.578 30.1285 116.65 30.0921 116.698 30.0435C117.704 28.8414 119.081 28.2463 120.686 28.2463C123.776 28.2463 125.548 30.2864 125.548 33.8322V41.6889C125.548 41.9682 125.321 42.1989 125.045 42.1989H123.093C122.818 42.1989 122.59 41.9682 122.59 41.6889V34.3422C122.59 32.1929 121.572 31.0271 119.668 31.0271C117.488 31.0271 116.338 32.6543 116.338 35.763V41.6889C116.338 41.9682 116.111 42.1989 115.835 42.1989H113.931C113.656 42.1989 113.428 41.9682 113.428 41.6889V29.0721C113.44 28.7928 113.656 28.5621 113.931 28.5621V28.5621Z" fill="#002041"/>
<path d="M61.031 26.6919C60.9951 25.7083 61.7616 24.8826 62.7197 24.8583H62.8395C63.8934 24.8583 64.6479 25.6354 64.6479 26.6919C64.6479 27.7484 63.8814 28.5255 62.8395 28.5255C61.7975 28.5255 61.031 27.7605 61.031 26.6919V26.6919Z" fill="#002041"/>
<path d="M42.4075 25.0038H44.4435C44.731 25.0038 45.0064 25.1252 45.198 25.3438L55.2703 37.0013C55.3661 37.1106 55.5218 37.1227 55.6176 37.0256C55.6775 36.977 55.7015 36.9041 55.7015 36.8313V25.5138C55.7015 25.2345 55.929 25.0159 56.1925 25.0038H58.2525C58.5279 25.0038 58.7555 25.2345 58.7555 25.5138V41.6764C58.7555 41.9557 58.5279 42.1865 58.2525 42.1865H56.1805C55.8931 42.1865 55.6176 42.065 55.426 41.8343L45.4016 30.2011C45.3058 30.0918 45.1501 30.0797 45.0543 30.1768C44.9944 30.2254 44.9705 30.2982 44.9705 30.3711V41.6764C44.9705 41.9557 44.7429 42.1865 44.4675 42.1865H42.4075C42.1321 42.1865 41.9045 41.9557 41.9045 41.6764V25.5138C41.9045 25.2345 42.1321 25.0038 42.4075 25.0038V25.0038Z" fill="#002041"/>
</svg>
