<?xml version="1.0" encoding="UTF-8"?> <svg xmlns="http://www.w3.org/2000/svg" xmlns:xlink="http://www.w3.org/1999/xlink" xmlns:v="https://vecta.io/nano" width="194" height="100" fill="none"><style><![CDATA[.B{fill:#7f7f7f}.C{fill:#000}.D{fill-opacity:.2}]]></style><use xlink:href="#B" class="B"></use><use xlink:href="#B" class="C D"></use><use xlink:href="#C" class="B"></use><use xlink:href="#C" class="C D"></use><use xlink:href="#D" class="B"></use><use xlink:href="#D" class="C D"></use><use xlink:href="#E" class="B"></use><use xlink:href="#E" class="C D"></use><use xlink:href="#F" class="B"></use><use xlink:href="#F" class="C D"></use><use xlink:href="#G" class="B"></use><use xlink:href="#G" class="C D"></use><use xlink:href="#H" class="B"></use><use xlink:href="#H" class="C D"></use><use xlink:href="#I" class="B"></use><use xlink:href="#I" class="C D"></use><use xlink:href="#J" class="B"></use><use xlink:href="#J" class="C D"></use><use xlink:href="#K" class="B"></use><use xlink:href="#K" class="C D"></use><use xlink:href="#L" class="B"></use><use xlink:href="#L" class="C D"></use><use xlink:href="#M" class="B"></use><use xlink:href="#M" class="C D"></use><defs><path id="B" d="M110.375 45.404a7.08 7.08 0 0 0-1.651-.728c-.579-.172-1.177-.266-1.787-.278-.609-.018-1.207.047-1.798.19a6.87 6.87 0 0 0-1.687.651v-7.437l-3.656.888v22.412h1.994l.58-.847v-.053l.118-.172c.142-.154.243 0 .438.089a6.8 6.8 0 0 0 1.231.568 7.16 7.16 0 0 0 1.319.326 7.4 7.4 0 0 0 1.355.071c.456-.018.899-.083 1.343-.183.444-.107.87-.249 1.284-.432a6.8 6.8 0 0 0 1.178-.669c.372-.261.715-.557 1.035-.882.314-.326.598-.681.846-1.06.615-1.012 1.035-2.096 1.272-3.251.231-1.161.261-2.321.083-3.494a7.13 7.13 0 0 0-.314-1.729c-.177-.562-.42-1.096-.733-1.593-.314-.503-.681-.959-1.101-1.368a7.36 7.36 0 0 0-1.402-1.054l.053.036zm-.444 9.646c-.041.195-.106.391-.183.574-.077.189-.166.367-.272.539a4.21 4.21 0 0 1-.361.486 3.61 3.61 0 0 1-.438.414c-.16.124-.325.237-.503.337a3.78 3.78 0 0 1-.55.243c-.189.065-.385.113-.586.148s-.402.047-.603.047c-.829.16-1.616.047-2.367-.338-.302-.166-.503-.414-.616-.74V48.75c.107-.314.308-.539.604-.675a4.03 4.03 0 0 1 .852-.332c.296-.077.598-.124.905-.136s.61.006.917.059c.302.053.598.142.882.261s.55.267.805.444c.248.178.479.379.686.61.207.225.385.474.538.74s.273.545.367.841c.373 1.516.344 3.02-.077 4.518v-.03z"></path><path id="C" d="M126.777 45.404a7.08 7.08 0 0 0-1.651-.728c-.58-.172-1.178-.266-1.787-.278-.61-.018-1.207.047-1.799.19s-1.154.361-1.686.651v-7.437l-3.657.888v22.412h2.012l.58-.847.047-.053.119-.172c.142-.154.242 0 .437.089a6.83 6.83 0 0 0 1.231.568 7.18 7.18 0 0 0 1.319.326c.45.065.9.089 1.355.071s.906-.083 1.344-.183c.443-.107.869-.249 1.284-.432s.81-.409 1.177-.669a7.3 7.3 0 0 0 1.035-.882 7.31 7.31 0 0 0 .847-1.06c.615-1.012 1.035-2.096 1.266-3.251.23-1.161.26-2.321.083-3.494a6.95 6.95 0 0 0-.32-1.729 6.79 6.79 0 0 0-.734-1.593 7.22 7.22 0 0 0-1.1-1.368c-.426-.409-.894-.758-1.408-1.054v.036h.006zm-.444 9.646a3.87 3.87 0 0 1-.178.574 3.06 3.06 0 0 1-.278.539 3.53 3.53 0 0 1-.361.486 3.61 3.61 0 0 1-.438.414 4.06 4.06 0 0 1-.503.337c-.177.095-.36.178-.55.243s-.384.113-.586.148-.402.047-.603.047c-.828.16-1.615.047-2.367-.338a1.29 1.29 0 0 1-.615-.74V48.75a1.1 1.1 0 0 1 .603-.675 4.07 4.07 0 0 1 .852-.332c.296-.077.598-.124.906-.136a4.34 4.34 0 0 1 .917.059 4.18 4.18 0 0 1 .881.261c.284.118.551.267.805.444.249.178.479.379.686.61.208.225.385.474.539.74a4.27 4.27 0 0 1 .367.841 8.74 8.74 0 0 1-.077 4.518v-.03z"></path><path id="D" d="M82.945 38.832h-4.29l-7.041 10.422-.059-10.422h-3.662v21.962h3.722v-6.016l2.284-3.292 5.887 9.308h4.325l-7.739-12.382 6.574-9.581z"></path><path id="E" d="M96.968 57.579c-.106-.912-.142-1.83-.118-2.747.059-1.782-.012-3.565-.213-5.341-.302-1.782-.888-3.499-2.722-4.299a9.65 9.65 0 0 0-1.858-.58 9.68 9.68 0 0 0-1.935-.213c-.651-.012-1.296.047-1.941.16-.639.118-1.266.29-1.87.533l-.249.089-.42.154.828 2.919.349-.142.355-.119c1.012-.272 2.047-.408 3.094-.403 1.781.101 2.81.888 2.97 2.374a.44.44 0 0 1 0 .124v.19l-.385-.053c-1.124-.136-2.243-.118-3.361.053-3.556.515-5.55 2.872-5.337 6.407.012.456.089.894.237 1.32s.361.823.639 1.184c.272.361.598.669.97.93s.775.45 1.213.58c.55.207 1.112.332 1.698.373a6.09 6.09 0 0 0 1.734-.124 6.12 6.12 0 0 0 1.627-.604c.515-.278.976-.628 1.39-1.042a4.12 4.12 0 0 0 .888 1.243 2.38 2.38 0 0 0 .385.249 2.22 2.22 0 0 0 .426.172 2.89 2.89 0 0 0 .45.089c.154.012.308.012.456 0 .154-.018.302-.047.45-.089a2.22 2.22 0 0 0 .426-.172 2.67 2.67 0 0 0 .385-.249c.118-.095.231-.201.325-.32.112-.16.266-.32 0-.533a3.43 3.43 0 0 1-.888-2.143v.03zm-3.704-3.742c-.012.19-.012.373 0 .563v.746c0 2.41-2.065 3.505-4.402 2.724-1.26-.42-1.568-2.499-.597-3.642a2.9 2.9 0 0 1 1.58-.888c.976-.219 1.964-.278 2.959-.19.249 0 .42.059.444.136.035.201.035.397 0 .598l.018-.047z"></path><path id="F" d="M144.74 57.579c-.106-.912-.142-1.83-.118-2.747.059-1.782-.012-3.565-.213-5.341-.302-1.782-.888-3.499-2.722-4.299a9.64 9.64 0 0 0-1.858-.58 9.68 9.68 0 0 0-1.935-.213c-.65-.012-1.295.047-1.94.16-.639.118-1.266.29-1.87.533l-.248.089-.421.154.829 2.919.337-.142.367-.119c1.012-.272 2.047-.408 3.094-.403 1.781.101 2.811.888 2.971 2.374v.349l-.385-.053a12.29 12.29 0 0 0-3.361.053c-3.556.515-5.556 2.872-5.337 6.407a4.34 4.34 0 0 0 .237 1.32 4.18 4.18 0 0 0 .639 1.184 4.27 4.27 0 0 0 .97.93c.373.255.775.45 1.213.58a5.94 5.94 0 0 0 1.698.373c.586.041 1.16.006 1.734-.118a5.94 5.94 0 0 0 1.627-.61 5.99 5.99 0 0 0 1.391-1.042c.219.468.514.888.887 1.243.119.095.249.178.385.249a2.67 2.67 0 0 0 .426.172c.148.041.296.071.449.089.154.012.308.012.456 0 .154-.018.302-.047.45-.089s.29-.101.426-.172.26-.154.384-.249.231-.201.326-.32c.118-.16.266-.32.047-.533a3.43 3.43 0 0 1-.887-2.143l-.048-.006zm-3.71-3.742v.563.746c0 2.41-2.065 3.505-4.443 2.724-1.26-.42-1.562-2.499-.598-3.642a2.9 2.9 0 0 1 1.586-.888c.976-.219 1.964-.278 2.958-.19.243 0 .42.065.444.136.042.201.042.397 0 .598l.053-.047z"></path><path id="G" d="M175.04 48.004c-2.284-4.352-9.142-5.01-12.396-.533-1.893 2.605-2.012 5.519-1.254 8.497.071.314.165.616.278.912s.254.586.408.865c.16.278.337.545.533.793a6.64 6.64 0 0 0 .644.705c.231.219.48.42.74.604a6.36 6.36 0 0 0 .823.486c.284.142.579.261.881.361a6.25 6.25 0 0 0 .929.225c1.45.29 2.899.29 4.349 0a6.7 6.7 0 0 0 2.881-1.137c.089-.065.302-.207.35-.249v-.071-.071l-.048-.089-1.272-2.671-.408.373c-.45.337-.947.586-1.485.752a4.86 4.86 0 0 1-1.651.195c-2.284.065-4.035-.888-4.532-3.322-.006-.113-.006-.225 0-.338v-.337h5.431 4.941.532l.142-.782a7.64 7.64 0 0 0 .054-2.647 7.75 7.75 0 0 0-.829-2.517l-.041-.006zm-2.74 3.073h-.177c-.083.006-.166.006-.249 0h-3.266-3.284-.426c-.017 0 0-.189 0-.261.006-.112.024-.219.06-.332a3.57 3.57 0 0 1 .26-.734c.112-.237.242-.456.402-.663a3.7 3.7 0 0 1 .527-.569 3.6 3.6 0 0 1 .633-.45 3.44 3.44 0 0 1 .71-.314 3.76 3.76 0 0 1 .757-.166 3.77 3.77 0 0 1 .775-.006 3.7 3.7 0 0 1 .764.148 3.53 3.53 0 0 1 .952.426 3.23 3.23 0 0 1 .775.699 3.2 3.2 0 0 1 .527.9 3.37 3.37 0 0 1 .231 1.018v.278l.029.024z"></path><path id="H" d="M157 57.685c-1.432-.32-2.858-.29-4.278.089-.515.148-1.03.172-1.556.071-.196-.012-.332-.106-.409-.284-.1-.231.32-.598.497-.722.213-.184.456-.302.728-.355a5.65 5.65 0 0 0 .888.095h.639a5.44 5.44 0 0 0 2.171-.337c2.479-.794 3.645-2.907 3.728-5.418.065-.598.041-1.19-.083-1.776s-.337-1.143-.639-1.658v-.101l1.58-1.457-.337-.32c-.113-.142-.243-.261-.391-.367l-1.781-1.652-1.432 1.729a6.59 6.59 0 0 0-3.272-.829 6.46 6.46 0 0 0-2.568.468 6.63 6.63 0 0 0-2.183 1.433 5.6 5.6 0 0 0-1.13 1.664 5.71 5.71 0 0 0-.485 1.954c-.048.527-.03 1.048.059 1.563.089.521.248 1.018.473 1.498a6.06 6.06 0 0 0 .846 1.32 5.76 5.76 0 0 0 1.166 1.048l-.888.687c-.213.16-.402.349-.568.563-.159.213-.29.45-.378.699a2.71 2.71 0 0 0-.166.782 2.75 2.75 0 0 0 .065.794 2.3 2.3 0 0 0 .296.728 2.46 2.46 0 0 0 .509.598c.201.172.426.308.674.403a2.45 2.45 0 0 0 .769.166 10.89 10.89 0 0 0 3.397 0c.887-.16 1.781-.16 2.668 0a1.34 1.34 0 0 1 .704.373c.196.195.326.426.391.699.012.142.006.284-.024.42a1.38 1.38 0 0 1-.148.397c-.071.124-.16.231-.26.332a1.59 1.59 0 0 1-.349.237 3.65 3.65 0 0 1-1.255.438c-.467.112-.94.172-1.42.166a5.68 5.68 0 0 1-1.414-.178c-.467-.118-.911-.29-1.331-.515s-.811-.497-1.172-.817l-.065-.053-.23-.19-2.373 2.819.314.249.071.071h.065c.781.563 1.627 1.001 2.532 1.326.905.32 1.84.509 2.799.563.562.059 1.124.059 1.686.006s1.112-.16 1.657-.326 1.065-.379 1.562-.645.97-.58 1.408-.936c.314-.296.58-.622.799-.989a4.68 4.68 0 0 0 .497-1.173 4.81 4.81 0 0 0 .165-1.261 4.79 4.79 0 0 0-.183-1.261 3.98 3.98 0 0 0-.402-1.048 3.85 3.85 0 0 0-.699-.882c-.278-.261-.585-.468-.923-.634a3.57 3.57 0 0 0-1.07-.332l.059.071zm-6.71-6.851v-.438c-.012-.184-.012-.367 0-.551.053-.278.142-.539.266-.788a3.19 3.19 0 0 1 .48-.681c.189-.201.408-.373.65-.515s.497-.243.77-.314h.213a3.26 3.26 0 0 1 1.621.314c.225.148.432.32.609.521s.332.42.456.657c.124.243.213.492.266.752s.077.527.065.799c.012.19.006.373-.018.557a2.88 2.88 0 0 1-.13.545c-.059.178-.142.343-.236.503a2.47 2.47 0 0 1-.338.444 2.73 2.73 0 0 1-.42.367c-.154.107-.313.201-.485.278s-.349.136-.532.172c-.184.042-.367.059-.557.065-.301.006-.597-.041-.881-.136a2.65 2.65 0 0 1-.787-.42c-.237-.184-.438-.403-.604-.657s-.284-.527-.355-.817c-.047-.207-.077-.421-.1-.634l.047-.024z"></path><path id="I" d="M18.126 50.935c.237 1.303.586 2.57 1.059 3.807.266.693.633 1.332 1.083 1.924a7.82 7.82 0 0 0 1.586 1.54 18.88 18.88 0 0 0 7.769 2.937c-4.059-2.676-9.461-6.312-11.479-10.208h-.018z"></path><path id="J" d="M34.492 37.298c.976-.9 2.012-1.723 3.1-2.481l-.248-.16c-.941-.403-1.349-.604-1.272-1.54 0-.296-.243-.231-.408-.231a9.29 9.29 0 0 0-2.905.409c-1.432.337-2.793.864-4.071 1.593a15.25 15.25 0 0 1 5.337 2.422c.059.065.13.095.219.095s.16-.03.219-.095l.03-.012z"></path><path id="K" d="M32.776 38.885c-.947-.776-1.964-1.457-3.041-2.037a16.96 16.96 0 0 0-4.881-1.699 16.99 16.99 0 0 0-5.165-.154 5.81 5.81 0 0 1 .793 1.782v.154c.077.87-.118 1.676-.568 2.422-.242.444-.426.888-.639 1.398-.408.711-.71 1.462-.888 2.262a6.9 6.9 0 0 0-.278 3.5c.041.859.29 1.658.74 2.392a5.69 5.69 0 0 0 .296.604 17.54 17.54 0 0 0 2.479 3.014 39.67 39.67 0 0 0 3.87 3.659c1.308 1.19 2.669 2.268 4.189 3.381l.231-2.215c.047-.349.071-.699.065-1.048a37.2 37.2 0 0 0-.083-3.896c-.006-1.143-.142-2.268-.402-3.381a12.7 12.7 0 0 0-.633-2.511c-.343-1.244-.834-2.428-1.456-3.559-.231-.456-.598-.989-1.26-2.084l-.177-.261c-.704-.983-1.509-1.871-2.42-2.671-.065-.16.887.545 1.047.669.988.639 1.876 1.398 2.668 2.268a26.5 26.5 0 0 1 3.639 5.205 21.91 21.91 0 0 1 1.314-5.341l.686-1.386c.053-.083.071-.172.047-.266s-.077-.166-.16-.213v.012h-.012z"></path><path id="L" d="M46.195 57.235a14.72 14.72 0 0 0-3.236 2.819h.568.225c3.183-.296 6.609-1.782 7.727-4.109l-3.337.794c-.669.03-1.308.178-1.923.438l-.024.059z"></path><path id="M" d="M55.781 42.509c-.077.018-.154.03-.231.03a1.66 1.66 0 0 1-.237-.018c-.077-.018-.154-.041-.225-.071s-.142-.071-.201-.118a1.1 1.1 0 0 1-.172-.16c-.053-.059-.095-.124-.136-.195a1.42 1.42 0 0 1-.089-.219c-.024-.077-.036-.154-.036-.231-.112-.728-.112-1.451 0-2.179a15.52 15.52 0 0 0 .083-4.056c-.006-.195-.03-.391-.071-.586a3.26 3.26 0 0 0-.178-.562 3.07 3.07 0 0 0-.278-.515c-.112-.166-.231-.314-.373-.456a3.05 3.05 0 0 0-.45-.379 3.32 3.32 0 0 0-.509-.29 3.08 3.08 0 0 0-.556-.19c-.189-.047-.385-.077-.58-.083-1.426-.237-2.858-.29-4.296-.16s-2.84.444-4.195.936c-.698.237-1.367.533-2.018.876s-1.272.734-1.858 1.178c-.592.438-1.142.924-1.657 1.451a12.14 12.14 0 0 0-1.432 1.688 14.53 14.53 0 0 0-1.136 1.889c-.331.657-.609 1.338-.828 2.043-.225.699-.391 1.415-.509 2.144-.112.728-.172 1.462-.172 2.197a17.49 17.49 0 0 0 .615 4.358c.385 1.427.941 2.789 1.663 4.074.183.42.432.805.74 1.149l.225-.776a42.65 42.65 0 0 1 6.065-13.169c1.45-2.155 3.225-3.991 5.337-5.507.846-.622.722-.48.16.16l-2.669 3.695a47.84 47.84 0 0 0-6.349 16.076c-.231.876-.361 1.765-.385 2.671 0 .474.089.888.296.959s.532-.053.941-.302c.231-.142.45-.302.657-.48l2.142-1.913c.763-.811 1.639-1.474 2.621-2.001a10.21 10.21 0 0 1 3.124-1.06 8.22 8.22 0 0 0 2.343-.758c.74-.367 1.414-.835 2.018-1.409 2.775-2.57 3.923-5.874 4.248-9.539a.39.39 0 0 0 0-.118v-.385l-.462.136a5.61 5.61 0 0 1-.988.189v-.012h-.006z"></path></defs></svg> 