<svg width="132" height="69" viewBox="0 0 132 69" fill="none" xmlns="http://www.w3.org/2000/svg">
<path d="M104.493 29.8532C102.547 27.9084 99.9936 26.8372 97.3018 26.8372C95.3334 26.8372 93.3555 27.5705 92.2683 28.2944C90.0177 29.7935 88.168 31.4207 84.8379 35.7232V38.8159C87.6633 35.1351 90.3369 32.2346 92.3666 30.6394C93.7006 29.5682 95.5934 28.9045 97.3018 28.9045C101.711 28.9045 105.438 32.63 105.438 37.0418V38.9031C105.438 41.083 104.583 43.131 103.023 44.6726C101.479 46.1999 99.4453 47.0409 97.3018 47.0409C93.678 47.0409 90.4881 44.5534 89.6213 41.1565L88.1646 42.9223C89.227 46.4815 93.064 49.1076 97.3018 49.1076C99.9936 49.1076 102.547 48.0347 104.493 46.0939C106.436 44.1492 107.505 41.596 107.505 38.9031V37.0418C107.505 34.35 106.436 31.7957 104.493 29.8532ZM60.2197 28.9045C61.6239 28.9045 62.8381 29.206 63.9341 29.8267C64.4493 29.1828 64.9694 28.6599 65.357 28.2729C64.1975 27.3872 62.234 26.8372 60.2197 26.8372C57.349 26.8372 54.7423 27.8726 52.8809 29.7538C51.0334 31.6179 50.013 34.2058 50.013 37.0418V49.1076H52.0798V37.0418C52.0798 32.2506 55.427 28.9045 60.2197 28.9045V28.9045ZM79.8601 49.1076V37.0418C79.8601 33.3323 76.9541 30.4257 73.2441 30.4257C71.5164 30.4257 69.8671 31.1253 68.596 32.3948C67.3277 33.6631 66.6287 35.3151 66.6287 37.0418V38.9031C66.6287 42.4883 69.6595 45.5196 73.2441 45.5196C74.227 45.5196 75.5649 45.2778 76.3837 44.6058V42.4215C75.5792 43.068 74.4114 43.4529 73.2441 43.4529C70.6942 43.4529 68.6954 41.453 68.6954 38.9031V37.0418C68.6954 34.4913 70.6942 32.4947 73.2441 32.4947C75.7962 32.4947 77.7934 34.4913 77.7934 37.0418V49.1076H79.8601ZM24.4948 35.8441V36.5117C24.4948 40.0952 25.8543 43.4391 28.3241 45.926C30.7878 48.4075 34.0903 49.7719 37.623 49.7719C40.4634 49.7719 42.9785 49.1291 45.1015 47.8663C46.8519 46.8228 47.6277 45.7681 47.6945 45.6715V34.5454H37.1211V36.6133H45.6277V45.0293L45.6195 45.0365C44.6234 46.0343 42.259 47.7035 37.623 47.7035C34.6022 47.7035 31.8055 46.5522 29.7431 44.4567C27.6913 42.3712 26.5616 39.5491 26.5616 36.5117V35.8441C26.5616 32.9762 27.8553 30.1149 30.1092 27.9979C32.4106 25.8406 35.4089 24.6512 38.5534 24.6512C41.486 24.6512 43.529 25.0963 45.17 26.0902V23.7705C43.4616 23.0439 41.4197 22.7176 38.5534 22.7176C30.9336 22.7176 24.4948 28.7301 24.4948 35.8441V35.8441ZM60.2197 32.4947C61.0038 32.4947 61.668 32.6245 62.197 32.8818C62.4543 32.2402 62.7183 31.7112 63.1031 31.069C62.541 30.667 61.2031 30.4257 60.2197 30.4257C56.4485 30.4257 53.6037 33.2699 53.6037 37.0418V49.1076H55.6705V37.0418C55.6705 34.3632 57.5417 32.4947 60.2197 32.4947V32.4947ZM45.17 30.0679V27.6241C43.2998 26.6208 41.259 26.1735 38.5534 26.1735C35.7926 26.1735 33.1754 27.1868 31.181 29.0222C29.1849 30.8642 28.0844 33.2871 28.0844 35.8441V36.5117C28.0844 41.845 32.3626 46.1833 37.623 46.1833C41.9017 46.1833 43.6582 44.7831 44.1054 44.3402V38.135H37.1211V40.2012H42.1718V43.3104L42.1535 43.3165C41.5036 43.5755 40.1542 44.1155 37.623 44.1155C35.6165 44.1155 33.7391 43.3353 32.3355 41.9146C30.9253 40.4889 30.1512 38.569 30.1512 36.5117V35.8441C30.1512 31.7228 33.9992 28.2414 38.5534 28.2414C41.7041 28.2414 43.5671 28.7516 45.17 30.0679V30.0679ZM93.9585 33.9618C94.8911 33.0314 96.1119 32.4947 97.3018 32.4947C99.8517 32.4947 101.852 34.4913 101.852 37.0418V38.9031C101.852 41.453 99.8517 43.4529 97.3018 43.4529C96.0672 43.4529 94.8745 42.7743 93.9403 41.5479C93.112 40.4635 92.5753 38.9964 92.4925 37.6778L90.8189 39.7214C91.1474 41.2846 91.9646 42.7826 93.1192 43.8356C94.3108 44.92 95.7961 45.5196 97.3018 45.5196C100.951 45.5196 103.917 42.5512 103.917 38.9031V37.0418C103.917 35.3151 103.218 33.6631 101.95 32.3948C100.679 31.1253 99.0295 30.4257 97.3018 30.4257C96.2097 30.4257 94.4725 30.8172 92.4025 32.6786L92.3953 32.6857C91.8415 33.2401 90.5406 34.541 89.7493 35.4686C88.4186 36.9203 86.485 39.1118 84.8379 41.3044V44.5318C86.6661 42.1829 87.7185 40.8671 89.4368 38.8827C90.9757 37.087 92.8807 34.9049 93.9585 33.9618ZM63.0407 38.9031C63.0407 41.596 64.1114 44.1492 66.0544 46.0939C67.9991 48.0347 70.5529 49.1076 73.2441 49.1076C74.3843 49.1076 75.5555 48.8641 76.3837 48.456V46.391C75.4163 46.7962 74.2474 47.0409 73.2441 47.0409C68.8346 47.0409 65.1064 43.3149 65.1064 38.9031V37.0418C65.1064 32.63 68.8346 28.9045 73.2441 28.9045C75.4368 28.9045 77.4864 29.7438 79.0153 31.2728C80.5426 32.8 81.3819 34.8491 81.3819 37.0418V49.1076H83.4486V36.6442C83.32 34.0109 82.1958 31.5472 80.2836 29.7052C78.3687 27.856 75.8658 26.8372 73.2441 26.8372C70.5529 26.8372 67.9991 27.9084 66.0544 29.8532C64.1114 31.7957 63.0407 34.35 63.0407 37.0418V38.9031ZM86.9659 30.9017C87.5987 30.1419 88.2535 29.37 89.0299 28.7185V17.8006H86.9659V30.9017ZM90.5527 27.8725V17.8006H92.6184V26.4552C92.0574 26.7384 91.2733 27.2773 90.5527 27.8725" fill="#1AAE48"/>
</svg>
