<?xml version="1.0" encoding="UTF-8"?> <svg xmlns="http://www.w3.org/2000/svg" width="249" height="128" viewBox="0 0 249 128" fill="none"><g clip-path="url(#clip0)"><path d="M37.2222 52.0705C39.4427 52.0705 41.6503 52.0705 43.8708 52.0705C44.079 52.0386 44.2916 52.0851 44.4672 52.2011C44.6428 52.3171 44.7688 52.4941 44.8206 52.6977C46.2325 56.4097 47.6957 60.1089 49.146 63.7953L49.4284 64.4481C49.6723 64.2945 49.6851 64.0641 49.7493 63.8721C51.0328 60.1345 52.4318 56.3969 53.741 52.6465C53.7784 52.4615 53.8861 52.2982 54.0417 52.1908C54.1973 52.0834 54.3885 52.0403 54.5752 52.0705C56.7187 52.0705 58.875 52.0705 60.9928 52.0705C60.8773 52.6273 60.6963 53.1687 60.4537 53.6833C56.5604 63.9233 52.6671 74.1633 48.7738 84.4033C48.6968 84.6209 48.7096 84.9281 48.3246 84.9281H41.2781C41.3083 84.5714 41.418 84.226 41.599 83.9169C43.0365 80.4097 44.4869 76.8897 45.9501 73.3825C46.0226 73.2192 46.0601 73.0426 46.0601 72.8641C46.0601 72.6855 46.0226 72.5089 45.9501 72.3457C43.1007 65.8006 40.2599 59.2641 37.4276 52.7361C37.3634 52.6081 37.3634 52.4417 37.1966 52.3649L37.2222 52.0705Z" fill="#316B7E"></path><path d="M103.887 42.24C104.574 42.4012 105.208 42.7335 105.731 43.2058C106.254 43.6782 106.649 44.2751 106.877 44.9408C107.202 45.8852 107.145 46.9186 106.719 47.8218C106.292 48.7251 105.53 49.4271 104.593 49.7792C103.66 50.1331 102.628 50.121 101.704 49.7453C100.78 49.3697 100.033 48.6585 99.6147 47.7553C99.196 46.8521 99.1366 45.8241 99.4483 44.8788C99.76 43.9336 100.42 43.1415 101.294 42.6624C101.551 42.5344 101.885 42.5088 102.064 42.24H103.887Z" fill="#316B7E"></path><path d="M68.1037 42.24C69.1635 42.5505 70.0751 43.2324 70.6707 44.16C70.9423 44.6161 71.1177 45.1227 71.1864 45.6487C71.2551 46.1748 71.2156 46.7092 71.0702 47.2195C70.9249 47.7298 70.6768 48.2052 70.3411 48.6167C70.0054 49.0281 69.5891 49.3671 69.1177 49.6128C68.637 49.856 68.1119 49.9996 67.574 50.035C67.0362 50.0703 66.4967 49.9967 65.9882 49.8184C65.4796 49.6402 65.0126 49.3611 64.6151 48.998C64.2177 48.6349 63.8981 48.1952 63.6756 47.7056C63.4589 47.2144 63.3457 46.6841 63.343 46.1475C63.3404 45.6109 63.4483 45.0795 63.6601 44.5862C63.8719 44.0929 64.1831 43.6483 64.5744 43.2799C64.9656 42.9116 65.4286 42.6273 65.9346 42.4448C66.0886 42.4448 66.294 42.4448 66.3967 42.24H68.1037Z" fill="#316B7E"></path><path d="M80.6651 53.939C82.1807 52.6537 84.0812 51.9063 86.0686 51.8142C87.7088 51.6778 89.3568 51.9584 90.8585 52.63C92.3602 53.3016 93.6666 54.3421 94.6553 55.6542C96.5099 58.1762 97.385 61.2831 97.1183 64.3992C96.8516 67.5153 95.4613 70.4294 93.2049 72.6014C91.7487 73.8665 89.9976 74.7473 88.1119 75.1632C86.2262 75.5791 84.266 75.5169 82.4107 74.9822C81.9743 74.8926 81.4352 74.5086 81.1272 74.739C80.8191 74.9694 81.0373 75.5966 81.0373 76.019C81.0373 78.7198 81.0373 81.4206 81.0373 84.1214C81.0373 84.6334 80.9346 84.8382 80.3699 84.8254C78.5601 84.8254 76.7632 84.8254 74.9535 84.8254C74.5299 84.8254 74.3631 84.7358 74.3631 84.2622C74.3631 73.715 74.3631 63.1678 74.3631 52.6206C74.3631 52.147 74.5043 52.0446 74.9535 52.0574C76.6734 52.0574 78.3804 52.0574 80.0875 52.0574C80.5752 52.0574 80.6908 52.2238 80.6523 52.659C80.6137 53.0942 80.6651 53.4398 80.6651 53.939ZM81.0373 63.8334V66.675C81.0373 68.3646 81.0373 68.3646 82.6674 68.787C83.4572 69.0728 84.3028 69.1714 85.1374 69.075C85.9721 68.9786 86.7727 68.6899 87.4762 68.2318C88.1796 67.7736 88.7666 67.1585 89.1906 66.4351C89.6146 65.7118 89.864 64.8999 89.9192 64.0638C90.0747 62.9841 89.9153 61.8826 89.4601 60.8907C89.005 59.8989 88.2732 59.0586 87.3522 58.4702C86.3781 57.9771 85.2785 57.7856 84.1945 57.9201C83.1104 58.0547 82.0915 58.5092 81.2683 59.2254C81.1852 59.3079 81.1231 59.4091 81.0874 59.5205C81.0516 59.6318 81.0433 59.7502 81.063 59.8654L81.0373 63.8334Z" fill="#316B7E"></path><path d="M131.7 63.5904V52.7488C131.7 52.3776 131.7 52.096 132.213 52.1088C135.191 52.1856 138.169 51.968 141.198 52.2496C142.918 52.2993 144.604 52.7416 146.126 53.5427C147.647 54.3437 148.965 55.4821 149.977 56.8704C151.423 59.0772 152.074 61.7083 151.825 64.3328C151.842 65.9293 151.49 67.5083 150.795 68.9469C150.101 70.3854 149.083 71.6449 147.82 72.6272C145.912 74.0262 143.628 74.8241 141.262 74.9184C138.246 75.1488 135.229 74.9184 132.2 75.0208C131.687 75.0208 131.725 74.752 131.725 74.4064L131.7 63.5904ZM136.962 63.5904C136.962 65.664 136.962 67.7376 136.962 69.8112C136.962 70.336 137.116 70.464 137.617 70.4512C138.669 70.4512 139.709 70.4512 140.748 70.336C142.007 70.2996 143.218 69.8474 144.192 69.0505C145.165 68.2536 145.845 67.157 146.126 65.9328C146.441 64.5379 146.441 63.0908 146.126 61.696C145.953 60.6078 145.463 59.5945 144.716 58.782C143.97 57.9696 143.001 57.3938 141.929 57.1264C140.471 56.7851 138.972 56.6472 137.475 56.7168C137.013 56.7168 136.898 56.8704 136.898 57.3056C136.962 59.3408 136.962 61.44 136.962 63.5904V63.5904Z" fill="#626767"></path><path d="M119.916 47.872C119.916 49.152 119.916 50.432 119.916 51.6352C119.916 52.032 120.044 52.1344 120.442 52.1344C121.931 52.1344 123.432 52.1344 124.934 52.1344C125.396 52.1344 125.524 52.2752 125.512 52.7232C125.512 54.3104 125.512 55.9104 125.512 57.5104C125.512 57.9584 125.409 58.112 124.947 58.0992C123.445 58.0992 121.943 58.0992 120.442 58.0992C120.07 58.0992 119.916 58.176 119.916 58.5984C119.916 60.9792 119.916 63.3472 119.916 65.728C119.936 66.1585 119.992 66.5866 120.082 67.008C120.506 69.2096 122.38 69.4784 124.267 69.0304C124.652 68.9408 125.101 68.4928 125.306 68.672C125.512 68.8512 125.409 69.4784 125.409 69.952C125.409 71.3856 125.409 72.8064 125.409 74.24C125.409 74.5088 125.409 74.7264 125.062 74.8288C122.571 75.7073 119.853 75.7073 117.361 74.8288C116.265 74.3909 115.311 73.6597 114.604 72.7156C113.898 71.7716 113.466 70.6514 113.357 69.4784C113.18 68.4599 113.098 67.4272 113.113 66.3936C113.113 63.8336 113.113 61.376 113.113 58.8672C113.113 58.2144 112.933 58.0736 112.317 58.112C111.701 58.1504 110.841 58.112 110.11 58.112C109.776 58.112 109.648 58.0224 109.66 57.6768C109.66 55.9872 109.66 54.2976 109.66 52.5568C109.66 52.1856 109.776 52.0704 110.135 52.0832C110.918 52.0832 111.701 52.0832 112.484 52.0832C112.959 52.0832 113.126 51.9936 113.113 51.4816C113.113 49.8432 113.113 48.2048 113.113 46.5536C113.093 46.3969 113.131 46.2383 113.222 46.1084C113.312 45.9784 113.447 45.8862 113.601 45.8496C115.475 45.12 117.361 44.3904 119.222 43.6352C119.71 43.4304 119.903 43.456 119.877 44.0576C119.89 45.3632 119.916 46.6176 119.916 47.872Z" fill="#316B7E"></path><path d="M209.108 75.0208C208.39 75.0208 207.671 75.0208 206.965 75.0208C206.776 75.0547 206.582 75.0133 206.423 74.9056C206.265 74.7978 206.155 74.6324 206.118 74.4448C205.463 72.6656 204.757 70.8992 204.09 69.12C204.056 68.9649 203.964 68.8284 203.833 68.7381C203.702 68.6478 203.541 68.6105 203.384 68.6336C201.433 68.6336 199.469 68.6336 197.518 68.6336C197.34 68.6069 197.159 68.649 197.011 68.7513C196.863 68.8536 196.76 69.0084 196.722 69.184C196.068 70.9376 195.362 72.6784 194.72 74.4448C194.677 74.6293 194.566 74.7908 194.409 74.8975C194.252 75.0042 194.061 75.0482 193.873 75.0208C192.436 75.0208 190.998 75.0208 189.573 75.0208C189.021 75.0208 188.906 74.9184 189.111 74.3808C191.49 67.9723 193.856 61.5723 196.209 55.1808C196.517 54.3488 196.851 53.5296 197.12 52.6848C197.262 52.2496 197.48 52.1472 197.916 52.1472C199.585 52.1472 201.266 52.1472 202.935 52.1472C203.111 52.124 203.289 52.1677 203.434 52.2697C203.579 52.3717 203.68 52.5245 203.718 52.6976C205.968 58.8416 208.223 64.9813 210.482 71.1168C210.892 72.2304 211.265 73.3568 211.765 74.4448C211.996 75.008 211.829 75.0848 211.316 75.0592C210.571 74.9952 209.827 75.0208 209.108 75.0208ZM200.419 57.1904C200.201 57.9456 200.034 58.4704 199.854 59.0976C199.379 60.6464 198.815 62.1568 198.442 63.7312C198.352 64.0768 198.442 64.1792 198.776 64.1792H202.023C202.396 64.1792 202.473 64.0512 202.396 63.7184C201.869 61.6064 201.022 59.5584 200.419 57.1904Z" fill="#626767"></path><path d="M163.084 68.7103C162.134 68.7103 161.171 68.7103 160.222 68.7103C160.042 68.684 159.859 68.7278 159.71 68.8328C159.562 68.9377 159.46 69.0956 159.426 69.2735C158.758 71.0527 158.065 72.8191 157.398 74.5983C157.367 74.755 157.276 74.8934 157.144 74.9842C157.012 75.075 156.85 75.1111 156.692 75.0847H152.2C151.725 75.0847 151.648 74.9823 151.815 74.5343C154.493 67.2383 157.171 59.9423 159.849 52.6463C159.851 52.5632 159.869 52.4812 159.904 52.4058C159.94 52.3304 159.99 52.2633 160.053 52.2089C160.116 52.1545 160.19 52.114 160.27 52.0901C160.35 52.0662 160.434 52.0595 160.517 52.0703H165.805C165.941 52.0519 166.078 52.087 166.189 52.1683C166.299 52.2496 166.373 52.3706 166.395 52.5055C169.074 59.8271 171.765 67.1402 174.469 74.4447C174.623 74.8543 174.571 74.9823 174.122 74.9695C172.595 74.9695 171.08 74.9695 169.553 74.9695C169.394 74.9853 169.235 74.9416 169.107 74.847C168.979 74.7523 168.891 74.6135 168.86 74.4575C168.205 72.6911 167.512 70.9503 166.87 69.1839C166.827 68.9876 166.709 68.8155 166.542 68.7034C166.375 68.5914 166.17 68.548 165.972 68.5823C165.048 68.7103 164.098 68.7103 163.084 68.7103ZM163.084 57.1903C162.481 59.5327 161.608 61.6319 161.082 63.8335C160.979 64.2431 161.21 64.2559 161.505 64.2431C162.532 64.2431 163.546 64.2431 164.573 64.2431C165.035 64.2431 165.163 64.1791 165.035 63.6671C164.611 61.5295 163.751 59.4943 163.187 57.1903H163.084Z" fill="#626767"></path><path d="M179.462 65.8815C179.462 63.0911 179.462 60.3007 179.462 57.5103C179.462 56.9599 179.359 56.7679 178.756 56.7807C177.087 56.7807 175.406 56.7807 173.737 56.7807C173.224 56.7807 173.121 56.6271 173.134 56.1663C173.134 55.0015 173.134 53.8239 173.134 52.6591C173.134 52.1983 173.275 52.0959 173.724 52.0959H190.41C190.872 52.0959 191.064 52.1855 191.052 52.6975C191.052 53.8623 191.052 55.0271 191.052 56.1919C191.052 56.6399 190.949 56.7935 190.474 56.7807C188.805 56.7807 187.137 56.7807 185.455 56.7807C184.942 56.7807 184.801 56.9215 184.801 57.4335C184.801 63.0271 184.801 68.6335 184.801 74.2271C184.801 74.9183 184.583 75.0591 183.954 75.0335C182.67 75.0335 181.387 75.0335 180.103 75.0335C179.641 75.0335 179.513 74.9055 179.513 74.4575C179.479 71.5989 179.462 68.7402 179.462 65.8815Z" fill="#626767"></path><path d="M99.8427 63.5904C99.8427 59.9936 99.8427 56.4096 99.8427 52.8256C99.8427 52.3264 99.9582 52.16 100.484 52.1728C102.307 52.1728 104.13 52.1728 105.952 52.1728C106.389 52.1728 106.504 52.3008 106.504 52.7232C106.504 60.0192 106.504 67.3195 106.504 74.624C106.504 75.0336 106.389 75.136 105.991 75.136C104.142 75.136 102.294 75.136 100.446 75.136C99.9582 75.136 99.8427 75.008 99.8427 74.5216C99.8555 70.8224 99.8427 67.1744 99.8427 63.5904Z" fill="#316B7E"></path><path d="M70.6694 63.5903C70.6694 67.1871 70.6694 70.7711 70.6694 74.3679C70.6694 74.9567 70.5025 75.0719 69.9506 75.0591C68.1666 75.0591 66.3825 75.0591 64.5984 75.0591C64.2134 75.0591 64.085 74.9695 64.085 74.5599C64.085 67.2554 64.085 59.9466 64.085 52.6335C64.085 52.1983 64.2134 52.0831 64.6369 52.0959C66.4338 52.0959 68.2436 52.0959 70.0533 52.0959C70.5282 52.0959 70.6694 52.2111 70.6694 52.7103C70.6694 56.3583 70.6694 59.9935 70.6694 63.5903Z" fill="#316B7E"></path></g><defs><clipPath id="clip0"><rect width="249" height="128" fill="white"></rect></clipPath></defs></svg> 