<svg width="302" height="65" viewBox="0 0 302 65" fill="none" xmlns="http://www.w3.org/2000/svg">
<g clip-path="url(#clip0_48_3259)">
<path d="M286.072 37.6224C291.749 30.5105 284.31 20.0769 292.347 17.2531C292.163 15.2534 290.284 14.0569 287.887 14.0569C286.73 14.0993 285.596 14.3982 284.568 14.9321C283.54 15.4661 282.643 16.2216 281.943 17.1443C273.475 28.0674 264.686 36.4803 259.657 36.4803C257.984 36.4803 257.394 35.7106 257.394 34.3886C257.394 30.3139 262.51 24.3482 266.447 20.1648C266.879 19.7463 267.138 19.18 267.171 18.5792C267.171 17.3576 265.769 16.5419 264.046 16.5419C259.724 16.5419 250.742 23.386 244.111 29.6362C246.488 25.1473 249.132 21.5746 249.132 19.6418C249.132 17.6045 247.006 17.0146 244.559 17.0606C235.092 29.6487 222.939 38.9486 215.141 38.9486C213.12 38.9486 211.773 38.2667 210.924 37.2752C220.855 33.2172 229.151 26.4358 229.151 21.4324C229.151 18.3366 226.549 16.956 222.91 16.956C213.555 16.956 201.72 26.9085 201.155 36.8694C192.144 40.1116 185.43 39.5343 183.359 37.2878C193.278 33.234 201.553 26.4567 201.553 21.4533C201.553 18.3533 198.955 16.9728 195.311 16.9728C185.877 16.9728 173.921 27.0968 173.524 37.1455C169.014 38.5344 163.902 39.141 163.902 35.4219C163.902 29.2889 173.105 24.252 173.105 20.1689C173.126 19.6533 173.008 19.1414 172.763 18.6873C172.518 18.2331 172.155 17.8533 171.712 17.5877C168.784 19.098 164.424 20.3488 161.253 20.3488C162.065 17.8136 161.207 15.8223 158.718 15.8223C155.049 15.8223 152.255 19.9389 152.255 23.2898C152.218 23.8938 152.329 24.4977 152.577 25.0494C152.826 25.6011 153.205 26.0841 153.681 26.4567C149.822 31.7316 144.898 36.1371 139.227 39.3879C141.081 35.5391 142.52 31.3932 144.515 25.5447C149.339 22.7 151.786 16.9058 142.068 16.9058C134.119 16.9058 125.301 21.6917 119.795 28.1343C112.604 36.5389 103.852 41.2328 102.296 34.853C114.168 25.9254 125.208 13.2997 125.087 7.0119C125.045 4.73609 123.69 3.19238 120.506 3.19238C112.976 3.19238 95.4054 20.3447 93.8993 35.5767C81.3154 42.3163 82.742 31.6986 86.5991 26.1137C92.1925 23.2438 96.0622 16.91 85.6328 16.91C70.5053 16.91 58.0511 30.9791 58.2644 39.9777C58.323 42.6426 59.6617 44.8389 62.4939 44.8431C65.7361 44.8431 70.9404 42.5966 76.4249 36.9322C75.3665 42.3707 76.6257 44.8431 81.0728 44.8431C84.6873 44.8431 89.3226 43.0233 94.2173 40.2078C95.033 42.7179 97.1457 44.8431 101.296 44.8431C105.605 44.8431 110.918 41.4503 115.072 37.0702C114.857 38.0316 114.748 39.0135 114.746 39.9986C114.746 43.1446 116.419 44.8557 118.929 44.8599C121.753 44.8599 125.982 42.6175 130.643 38.2207C129.903 40.2716 129.049 42.28 128.087 44.2365C118.071 47.7757 107.734 51.6036 107.734 58.5398C107.734 61.4683 110.177 63.2337 113.252 63.2337C120.782 63.2337 129.986 54.2643 135.755 45.5167C142.896 42.3121 151.209 36.2544 157.618 27.5863C159.385 27.5922 161.144 27.3571 162.847 26.8876C157.363 32.7152 154.832 36.4845 154.832 40.1534C154.832 43.1865 157.141 44.8599 161.216 44.8599C164.772 44.8599 169.24 43.6048 174.523 41.2746C176.067 43.6425 179.288 44.8599 183.43 44.8599C189.605 44.8599 196.436 42.7681 201.737 40.5634C202.912 43.0735 205.736 44.8599 210.267 44.8599C219.471 44.8599 227.808 39.003 234.841 32.7529C231.666 37.5806 226.942 44.8599 233.586 44.8599C234.843 44.8544 236.092 44.6612 237.292 44.2867C242.003 35.6855 248.115 30.1173 254.227 26.4525C249.207 32.6985 247.115 37.4509 247.115 40.5299C247.115 43.3831 248.881 44.8599 251.78 44.8599C260.603 44.8599 270.969 35.7901 279.893 25.4025C280.353 29.3684 282.767 33.6272 278.537 37.3212C272.149 37.1706 268.576 38.9946 268.581 42.0067C268.581 43.8516 270.133 44.8599 272.321 44.8599C274.561 44.8094 276.76 44.2485 278.751 43.2199C282.327 44.2532 286.022 45.3661 290.339 45.3661C296.639 45.3661 301.074 42.2033 301.216 36.9656C297.606 38.8566 291.786 38.1454 286.076 37.6434L286.072 37.6224ZM116.402 10.0826C116.544 10.0612 116.688 10.0734 116.824 10.1183C116.96 10.1631 117.084 10.2393 117.185 10.3408C117.286 10.4422 117.361 10.5659 117.406 10.7021C117.45 10.8382 117.462 10.9828 117.44 11.1243C117.44 14.2493 109.972 23.9341 102.459 30.0461C104.358 23.3902 112.867 10.0826 116.402 10.0826ZM65.2634 34.1794C65.2634 28.9082 73.4588 22.6707 80.0227 22.6707C81.2738 22.646 82.5162 22.8825 83.6707 23.3651C75.7221 35.857 65.2634 39.961 65.2634 34.1794ZM114.587 59.3389C113.855 59.3389 113.382 58.9707 113.382 58.1926C113.382 56.4941 116.729 52.0722 125.514 48.9095C121.782 55.009 117.44 59.3389 114.599 59.3389H114.587ZM121.74 34.1794C121.74 28.7409 130.04 22.6916 136.458 22.6916C137.717 22.6788 138.966 22.9075 140.139 23.3651C132.617 35.3843 121.74 40.1785 121.74 34.1794ZM192.609 22.0473C193.567 22.0473 194.186 22.4657 194.186 23.4279C194.186 25.9631 188.827 30.4812 182.175 33.6941C182.175 29.1174 189.132 22.0473 192.609 22.0473ZM209.761 33.6816C209.761 29.1049 216.714 22.0348 220.194 22.0348C221.148 22.0348 221.772 22.4531 221.772 23.4153C221.772 25.9505 216.413 30.4687 209.761 33.6816Z" fill="#E42B25"/>
<path d="M63.2501 0.859375C60.4262 0.859375 57.7028 2.55369 55.9373 5.11816C64.275 10.5567 54.0589 37.7158 38.9942 37.7158C37.187 37.7158 35.6474 37.1929 34.6309 36.1178C42.7845 28.7716 48.679 18.7814 48.679 12.8869C48.679 9.87478 47.2064 7.96293 43.7592 7.96293C33.7523 7.97129 23.2016 24.3831 25.1553 36.2265C18.8466 38.4689 15.7132 35.6659 15.7132 30.035C15.7132 18.2752 27.9959 6.08036 27.2847 2.424C14.5543 6.3481 4.60183 -2.79699 0 12.0837C6.18737 8.73687 11.8978 14.1001 18.9595 10.1676C12.8977 17.175 6.77724 27.0605 6.86091 35.4233C6.91529 40.8953 9.86883 44.8445 16.2737 44.8445C19.9092 44.8445 23.6827 43.5895 27.3139 41.4977C28.8702 43.443 31.3803 44.8445 35.2124 44.8445C50.8418 44.8445 67.9188 22.8854 67.9188 7.21827C67.9188 3.05989 66.2705 0.876109 63.2501 0.859375V0.859375ZM33.1834 31.0516C33.3172 22.5884 39.2954 13.6901 42.3285 13.6901C43.2237 13.6901 43.412 14.2716 43.412 14.8908C43.412 17.7857 39.1114 25.5294 33.1834 31.0516Z" fill="#E42B25"/>
</g>
<defs>
<clipPath id="clip0_48_3259">
<rect width="301.949" height="64" fill="white" transform="translate(0 0.859375)"/>
</clipPath>
</defs>
</svg>
