<svg width="160" height="50" viewBox="0 0 160 50" fill="none" xmlns="http://www.w3.org/2000/svg">
<path d="M113.57 9.2201C114.084 9.1008 114.618 9.1045 115.13 9.2309C115.642 9.3573 116.117 9.6028 116.517 9.9474C116.916 10.2921 117.228 10.7261 117.428 11.2142C117.628 11.7023 117.709 12.2306 117.666 12.7563C117.623 13.2819 117.457 13.79 117.181 14.2392C116.904 14.6883 116.526 15.0659 116.076 15.3411C115.626 15.6163 115.117 15.7814 114.591 15.8229C114.066 15.8644 113.537 15.7812 113.05 15.5801C112.409 15.2956 111.873 14.8189 111.515 14.2161C111.157 13.6133 110.996 12.9142 111.053 12.2156C111.11 11.5169 111.383 10.8533 111.834 10.3166C112.285 9.78 112.892 9.3968 113.57 9.2201ZM59.1699 12.6201H65.1099C65.1099 18.4901 65.1099 24.3501 65.1099 30.2101C67.4999 30.2101 69.8999 30.2101 72.2899 30.2101V35.4301H59.1899C59.1899 27.8301 59.1899 20.2401 59.1899 12.6401L59.1699 12.6201ZM96.01 12.6201C98.01 12.6201 100.01 12.6201 101.95 12.6201C101.95 18.4801 101.95 24.3401 101.95 30.2101C104.34 30.2101 106.73 30.2101 109.12 30.2101V35.4301H96.02C96.02 27.8301 96.02 20.2401 96.02 12.6401L96.01 12.6201ZM75.4099 20.0701C76.7159 18.3934 78.5972 17.2604 80.6899 16.8901C82.1571 16.6129 83.674 16.7872 85.04 17.3901C85.86 17.8144 86.62 18.3457 87.3 18.9701C87.3 18.3601 87.3 17.7501 87.3 17.1301H92.75C92.75 23.2168 92.75 29.3101 92.75 35.4101C90.9 35.4101 89.05 35.4101 87.2 35.4101C87.2 34.8301 87.2 34.2501 87.2 33.6601C85.823 34.9942 84.005 35.777 82.0899 35.8601C80.9469 35.9347 79.801 35.7706 78.7249 35.378C77.6489 34.9855 76.6663 34.3732 75.8399 33.5801C74.1874 31.805 73.2598 29.4753 73.2399 27.0501C73.074 24.5321 73.8391 22.0409 75.3899 20.0501L75.4099 20.0701ZM82.3899 21.9301C81.8521 22.0009 81.3339 22.1779 80.8652 22.4509C80.3965 22.7238 79.9868 23.0873 79.6599 23.5201C78.9807 24.4951 78.6766 25.6826 78.8033 26.864C78.9301 28.0455 79.4793 29.1414 80.3499 29.9501C81.2395 30.6261 82.3513 30.9418 83.463 30.8343C84.576 30.7268 85.606 30.204 86.35 29.3701C87.098 28.465 87.484 27.3144 87.432 26.1412C87.38 24.968 86.895 23.8558 86.07 23.0201C85.581 22.5757 84.998 22.2471 84.364 22.0584C83.73 21.8697 83.063 21.8259 82.4099 21.9301H82.3899ZM122.31 18.6701C123.61 17.4862 125.289 16.8038 127.046 16.7451C128.803 16.6865 130.524 17.2555 131.9 18.3501C132.2 18.6001 132.48 18.8701 132.75 19.1401C132.75 18.4601 132.75 17.7901 132.75 17.1401C134.51 17.1401 136.26 17.1401 138.02 17.1401C138.02 22.5501 138.02 27.9601 138.02 33.3601C138.066 35.5219 137.262 37.6154 135.78 39.1901C133.936 40.9313 131.486 41.8855 128.95 41.8501C126.424 41.9878 123.935 41.1983 121.95 39.6301C120.709 38.5654 119.896 37.0878 119.66 35.4701C121.72 35.4701 123.78 35.4701 125.83 35.4701C126.202 36.088 126.773 36.5607 127.45 36.8101C128.471 37.041 129.536 36.9891 130.53 36.6601C130.937 36.5327 131.31 36.3144 131.62 36.0215C131.93 35.7287 132.169 35.3692 132.32 34.9701C132.48 34.2313 132.52 33.4717 132.44 32.7201C130.934 34.0694 128.982 34.8138 126.96 34.8101C125.028 34.7709 123.189 33.9735 121.84 32.5901C120.994 31.6778 120.336 30.6077 119.903 29.4409C119.471 28.2741 119.273 27.0335 119.32 25.7901C119.299 24.4686 119.549 23.1567 120.054 21.9355C120.56 20.7144 121.311 19.6098 122.26 18.6901L122.31 18.6701ZM127.44 21.6901C126.609 21.9173 125.895 22.4494 125.44 23.1801C124.726 24.3653 124.503 25.783 124.82 27.1301C124.927 27.7036 125.162 28.2454 125.509 28.7148C125.855 29.1841 126.303 29.5689 126.82 29.8401C127.639 30.2018 128.553 30.2921 129.427 30.0978C130.302 29.9035 131.091 29.4348 131.68 28.7601C132.079 28.2751 132.373 27.7132 132.546 27.1093C132.718 26.5054 132.763 25.8725 132.68 25.2501C132.634 24.6272 132.446 24.023 132.131 23.4839C131.815 22.9448 131.381 22.4851 130.86 22.1401C129.818 21.5505 128.588 21.3892 127.43 21.6901H127.44ZM144.65 18.1501C145.565 17.5528 146.589 17.1427 147.664 16.9436C148.738 16.7445 149.842 16.7603 150.91 16.9901C152.23 17.3508 153.437 18.0387 154.42 18.9901V17.1301C156.24 17.1301 158.06 17.1301 159.88 17.1301V35.4301H154.31V33.6901C153.697 34.2738 152.995 34.7565 152.23 35.1201C151.196 35.5885 150.079 35.8465 148.944 35.8792C147.809 35.9118 146.679 35.7183 145.62 35.3101C144.65 34.9333 143.765 34.3669 143.016 33.6441C142.267 32.9212 141.67 32.0564 141.26 31.1001C140.427 29.1115 140.15 26.9338 140.46 24.8001C140.654 23.4589 141.128 22.1733 141.849 21.0262C142.571 19.8791 143.525 18.8959 144.65 18.1401V18.1501ZM149.46 21.9901C148.772 22.0943 148.121 22.3733 147.572 22.8005C147.022 23.2277 146.591 23.7888 146.32 24.4301C145.928 25.3757 145.836 26.4188 146.056 27.4185C146.276 28.4182 146.797 29.3263 147.55 30.0201C148.446 30.6912 149.563 30.9983 150.676 30.8796C151.789 30.7608 152.816 30.2251 153.55 29.3801C154.294 28.464 154.669 27.3035 154.602 26.1255C154.536 24.9474 154.032 23.8366 153.19 23.0101C152.689 22.5751 152.095 22.2592 151.455 22.0861C150.814 21.9129 150.142 21.8869 149.49 22.0101L149.46 21.9901ZM111.46 17.1501H116.98V35.4301H111.46V17.1501Z" fill="#7F7F7F"/>
<path d="M113.57 9.2201C114.084 9.1008 114.618 9.1045 115.13 9.2309C115.642 9.3573 116.117 9.6028 116.517 9.9474C116.916 10.2921 117.228 10.7261 117.428 11.2142C117.628 11.7023 117.709 12.2306 117.666 12.7563C117.623 13.2819 117.457 13.79 117.181 14.2392C116.904 14.6883 116.526 15.0659 116.076 15.3411C115.626 15.6163 115.117 15.7814 114.591 15.8229C114.066 15.8644 113.537 15.7812 113.05 15.5801C112.409 15.2956 111.873 14.8189 111.515 14.2161C111.157 13.6133 110.996 12.9142 111.053 12.2156C111.11 11.5169 111.383 10.8533 111.834 10.3166C112.285 9.78 112.892 9.3968 113.57 9.2201ZM59.1699 12.6201H65.1099C65.1099 18.4901 65.1099 24.3501 65.1099 30.2101C67.4999 30.2101 69.8999 30.2101 72.2899 30.2101V35.4301H59.1899C59.1899 27.8301 59.1899 20.2401 59.1899 12.6401L59.1699 12.6201ZM96.01 12.6201C98.01 12.6201 100.01 12.6201 101.95 12.6201C101.95 18.4801 101.95 24.3401 101.95 30.2101C104.34 30.2101 106.73 30.2101 109.12 30.2101V35.4301H96.02C96.02 27.8301 96.02 20.2401 96.02 12.6401L96.01 12.6201ZM75.4099 20.0701C76.7159 18.3934 78.5972 17.2604 80.6899 16.8901C82.1571 16.6129 83.674 16.7872 85.04 17.3901C85.86 17.8144 86.62 18.3457 87.3 18.9701C87.3 18.3601 87.3 17.7501 87.3 17.1301H92.75C92.75 23.2168 92.75 29.3101 92.75 35.4101C90.9 35.4101 89.05 35.4101 87.2 35.4101C87.2 34.8301 87.2 34.2501 87.2 33.6601C85.823 34.9942 84.005 35.777 82.0899 35.8601C80.9469 35.9347 79.801 35.7706 78.7249 35.378C77.6489 34.9855 76.6663 34.3732 75.8399 33.5801C74.1874 31.805 73.2598 29.4753 73.2399 27.0501C73.074 24.5321 73.8391 22.0409 75.3899 20.0501L75.4099 20.0701ZM82.3899 21.9301C81.8521 22.0009 81.3339 22.1779 80.8652 22.4509C80.3965 22.7238 79.9868 23.0873 79.6599 23.5201C78.9807 24.4951 78.6766 25.6826 78.8033 26.864C78.9301 28.0455 79.4793 29.1414 80.3499 29.9501C81.2395 30.6261 82.3513 30.9418 83.463 30.8343C84.576 30.7268 85.606 30.204 86.35 29.3701C87.098 28.465 87.484 27.3144 87.432 26.1412C87.38 24.968 86.895 23.8558 86.07 23.0201C85.581 22.5757 84.998 22.2471 84.364 22.0584C83.73 21.8697 83.063 21.8259 82.4099 21.9301H82.3899ZM122.31 18.6701C123.61 17.4862 125.289 16.8038 127.046 16.7451C128.803 16.6865 130.524 17.2555 131.9 18.3501C132.2 18.6001 132.48 18.8701 132.75 19.1401C132.75 18.4601 132.75 17.7901 132.75 17.1401C134.51 17.1401 136.26 17.1401 138.02 17.1401C138.02 22.5501 138.02 27.9601 138.02 33.3601C138.066 35.5219 137.262 37.6154 135.78 39.1901C133.936 40.9313 131.486 41.8855 128.95 41.8501C126.424 41.9878 123.935 41.1983 121.95 39.6301C120.709 38.5654 119.896 37.0878 119.66 35.4701C121.72 35.4701 123.78 35.4701 125.83 35.4701C126.202 36.088 126.773 36.5607 127.45 36.8101C128.471 37.041 129.536 36.9891 130.53 36.6601C130.937 36.5327 131.31 36.3144 131.62 36.0215C131.93 35.7287 132.169 35.3692 132.32 34.9701C132.48 34.2313 132.52 33.4717 132.44 32.7201C130.934 34.0694 128.982 34.8138 126.96 34.8101C125.028 34.7709 123.189 33.9735 121.84 32.5901C120.994 31.6778 120.336 30.6077 119.903 29.4409C119.471 28.2741 119.273 27.0335 119.32 25.7901C119.299 24.4686 119.549 23.1567 120.054 21.9355C120.56 20.7144 121.311 19.6098 122.26 18.6901L122.31 18.6701ZM127.44 21.6901C126.609 21.9173 125.895 22.4494 125.44 23.1801C124.726 24.3653 124.503 25.783 124.82 27.1301C124.927 27.7036 125.162 28.2454 125.509 28.7148C125.855 29.1841 126.303 29.5689 126.82 29.8401C127.639 30.2018 128.553 30.2921 129.427 30.0978C130.302 29.9035 131.091 29.4348 131.68 28.7601C132.079 28.2751 132.373 27.7132 132.546 27.1093C132.718 26.5054 132.763 25.8725 132.68 25.2501C132.634 24.6272 132.446 24.023 132.131 23.4839C131.815 22.9448 131.381 22.4851 130.86 22.1401C129.818 21.5505 128.588 21.3892 127.43 21.6901H127.44ZM144.65 18.1501C145.565 17.5528 146.589 17.1427 147.664 16.9436C148.738 16.7445 149.842 16.7603 150.91 16.9901C152.23 17.3508 153.437 18.0387 154.42 18.9901V17.1301C156.24 17.1301 158.06 17.1301 159.88 17.1301V35.4301H154.31V33.6901C153.697 34.2738 152.995 34.7565 152.23 35.1201C151.196 35.5885 150.079 35.8465 148.944 35.8792C147.809 35.9118 146.679 35.7183 145.62 35.3101C144.65 34.9333 143.765 34.3669 143.016 33.6441C142.267 32.9212 141.67 32.0564 141.26 31.1001C140.427 29.1115 140.15 26.9338 140.46 24.8001C140.654 23.4589 141.128 22.1733 141.849 21.0262C142.571 19.8791 143.525 18.8959 144.65 18.1401V18.1501ZM149.46 21.9901C148.772 22.0943 148.121 22.3733 147.572 22.8005C147.022 23.2277 146.591 23.7888 146.32 24.4301C145.928 25.3757 145.836 26.4188 146.056 27.4185C146.276 28.4182 146.797 29.3263 147.55 30.0201C148.446 30.6912 149.563 30.9983 150.676 30.8796C151.789 30.7608 152.816 30.2251 153.55 29.3801C154.294 28.464 154.669 27.3035 154.602 26.1255C154.536 24.9474 154.032 23.8366 153.19 23.0101C152.689 22.5751 152.095 22.2592 151.455 22.0861C150.814 21.9129 150.142 21.8869 149.49 22.0101L149.46 21.9901ZM111.46 17.1501H116.98V35.4301H111.46V17.1501Z" fill="black" fill-opacity="0.2"/>
<path d="M20.18 0.299901C20.8492 0.0745009 21.5546 -0.0238 22.26 0.00990001C22.87 3.2199 23.46 6.4399 24.06 9.6599C24.12 9.8899 24.16 10.2499 23.82 10.2399C22.3359 10.5143 20.9215 11.0819 19.6594 11.9095C18.3974 12.7371 17.3131 13.8082 16.4699 15.0599C16.289 15.3823 16.0781 15.687 15.84 15.9699C15.5041 15.8677 15.1867 15.7124 14.9 15.5099L7.90001 11.4399C7.54741 11.2544 7.21261 11.0368 6.90001 10.7899C6.88961 10.637 6.93201 10.4853 7.02001 10.3599C9.91951 5.4122 14.6449 1.7999 20.18 0.299901Z" fill="#999999"/>
<path d="M24.6699 2.5901C27.8081 2.1015 31.0152 2.3057 34.0661 3.1885C37.117 4.0713 39.9375 5.6112 42.3299 7.7002C42.3671 7.727 42.3973 7.7623 42.4182 7.8032C42.4391 7.844 42.45 7.8893 42.45 7.9352C42.45 7.981 42.4391 8.0262 42.4182 8.0671C42.3973 8.1079 42.3671 8.1433 42.3299 8.1702C40.2399 10.6002 38.1299 13.0101 36.0399 15.4401C35.8799 15.6501 35.5899 15.8901 35.3699 15.6001C33.3232 13.8336 30.7136 12.855 28.0099 12.8401C27.2999 12.8401 26.5999 12.9701 25.8999 12.9601C25.3899 9.6801 24.8999 6.3901 24.4299 3.1001C24.4299 2.9101 24.4299 2.5901 24.6499 2.5901H24.6699Z" fill="#999999"/>
<path d="M3.2899 10.8501C3.4799 10.8501 3.6499 10.9701 3.8199 11.0401C6.6099 12.5501 9.4099 14.0401 12.1999 15.5501C12.4599 15.6301 12.4699 15.9101 12.3199 16.1101C11.6025 17.4577 11.1662 18.9369 11.0373 20.4582C10.9083 21.9794 11.0895 23.511 11.5699 24.9601C11.6831 25.2269 11.7669 25.5052 11.8199 25.7901C11.7499 25.9801 11.5099 26.0001 11.3599 26.0901C8.4099 27.2101 5.4699 28.3601 2.5299 29.4901C2.3499 29.5401 2.0699 29.6701 1.9999 29.4001C0.837999 26.4683 0.325598 23.3193 0.498298 20.1704C0.670898 17.0214 1.5244 13.9473 2.9999 11.1601C3.0692 11.0342 3.1689 10.9276 3.2899 10.8501Z" fill="#999999"/>
<path d="M41.6101 11.4899C41.7701 11.3199 41.9801 11.3999 42.1101 11.5599C44.4036 13.7333 46.1971 16.3794 47.3661 19.3148C48.5351 22.2503 49.0517 25.4049 48.8801 28.5599C48.8801 28.8599 48.5301 28.7899 48.3401 28.7999C45.1201 28.6399 41.9001 28.4999 38.6801 28.3299C38.3501 28.3299 38.3901 27.9399 38.3901 27.7199C38.4482 25.9983 38.1058 24.2868 37.3901 22.7199C36.722 21.2911 35.785 20.0043 34.6301 18.9299C34.8101 18.6999 35.0001 18.4699 35.2001 18.2499C37.3401 15.9999 39.4601 13.7299 41.6101 11.4899Z" fill="#999999"/>
<path d="M22.4799 16.7701C24.4168 16.396 26.4236 16.7318 28.1332 17.716C29.8428 18.7003 31.1409 20.2672 31.7899 22.1301C32.3433 23.7133 32.3992 25.4278 31.9502 27.0437C31.5011 28.6595 30.5685 30.0993 29.2775 31.1699C27.9866 32.2405 26.3991 32.8905 24.728 33.0329C23.057 33.1753 21.3824 32.8031 19.929 31.9663C18.4756 31.1295 17.3129 29.8682 16.5969 28.3516C15.881 26.835 15.6461 25.1357 15.9237 23.4818C16.2014 21.8278 16.9783 20.2984 18.1502 19.0987C19.3221 17.899 20.8329 17.0864 22.4799 16.7701ZM17.8699 20.4901C18.1599 20.3601 18.4399 20.2101 18.7199 20.0701C18.3521 20.8782 18.1874 21.7639 18.2399 22.6501C18.9658 22.941 19.6737 23.275 20.3599 23.6501C19.5899 23.5201 18.8299 23.3401 18.0599 23.1901C17.505 23.8898 17.1092 24.702 16.8999 25.5701C16.7499 25.2701 16.5999 24.9701 16.4699 24.6601C16.4704 26.3615 17.0134 28.0184 18.0199 29.3901C17.9499 29.0701 17.8799 28.7401 17.8199 28.3901C18.4833 28.9956 19.2878 29.4253 20.1599 29.6401C20.6899 29.0701 21.1599 28.4501 21.7599 27.9301C21.4299 28.6401 21.0099 29.3001 20.6299 29.9801C21.1055 30.7447 21.7657 31.3775 22.5499 31.8201L21.5499 31.9601C22.3637 32.2089 23.2089 32.3402 24.0599 32.3501C24.8721 32.3189 25.6777 32.1913 26.4599 31.9701L25.4599 31.8301C26.2373 31.3776 26.8929 30.7427 27.3699 29.9801C26.9999 29.3001 26.5699 28.6401 26.2399 27.9301C26.8299 28.4501 27.3199 29.0701 27.8499 29.6401C28.7181 29.423 29.5188 28.9934 30.1799 28.3901C30.1199 28.7101 30.0599 29.0401 29.9899 29.3901C30.9848 28.0238 31.5269 26.3802 31.5399 24.6901C31.3999 24.9801 31.2599 25.2801 31.1099 25.5701C30.8948 24.7052 30.4957 23.8968 29.9399 23.2001C29.1699 23.3501 28.4099 23.5401 27.6299 23.6601C28.3099 23.2501 29.0599 22.9801 29.7699 22.6601C29.8189 21.773 29.6507 20.8874 29.2799 20.0801L30.1199 20.5001C29.1279 19.1359 27.7267 18.1235 26.1199 17.6101C26.3599 17.8401 26.5999 18.1001 26.8399 18.3401C25.9542 18.23 25.0552 18.3506 24.2299 18.6901C24.1199 19.4701 24.0799 20.2701 23.9199 21.0601C23.8099 20.2701 23.7399 19.4801 23.6399 18.6901C22.8145 18.3506 21.9155 18.23 21.0299 18.3401C21.2759 18.0559 21.5507 17.7978 21.8499 17.5701C20.2134 18.0891 18.7846 19.1153 17.7699 20.5001L17.8699 20.4901Z" fill="#7F7F7F"/>
<path d="M22.4799 16.7701C24.4168 16.396 26.4236 16.7318 28.1332 17.716C29.8428 18.7003 31.1409 20.2672 31.7899 22.1301C32.3433 23.7133 32.3992 25.4278 31.9502 27.0437C31.5011 28.6595 30.5685 30.0993 29.2775 31.1699C27.9866 32.2405 26.3991 32.8905 24.728 33.0329C23.057 33.1753 21.3824 32.8031 19.929 31.9663C18.4756 31.1295 17.3129 29.8682 16.5969 28.3516C15.881 26.835 15.6461 25.1357 15.9237 23.4818C16.2014 21.8278 16.9783 20.2984 18.1502 19.0987C19.3221 17.899 20.8329 17.0864 22.4799 16.7701ZM17.8699 20.4901C18.1599 20.3601 18.4399 20.2101 18.7199 20.0701C18.3521 20.8782 18.1874 21.7639 18.2399 22.6501C18.9658 22.941 19.6737 23.275 20.3599 23.6501C19.5899 23.5201 18.8299 23.3401 18.0599 23.1901C17.505 23.8898 17.1092 24.702 16.8999 25.5701C16.7499 25.2701 16.5999 24.9701 16.4699 24.6601C16.4704 26.3615 17.0134 28.0184 18.0199 29.3901C17.9499 29.0701 17.8799 28.7401 17.8199 28.3901C18.4833 28.9956 19.2878 29.4253 20.1599 29.6401C20.6899 29.0701 21.1599 28.4501 21.7599 27.9301C21.4299 28.6401 21.0099 29.3001 20.6299 29.9801C21.1055 30.7447 21.7657 31.3775 22.5499 31.8201L21.5499 31.9601C22.3637 32.2089 23.2089 32.3402 24.0599 32.3501C24.8721 32.3189 25.6777 32.1913 26.4599 31.9701L25.4599 31.8301C26.2373 31.3776 26.8929 30.7427 27.3699 29.9801C26.9999 29.3001 26.5699 28.6401 26.2399 27.9301C26.8299 28.4501 27.3199 29.0701 27.8499 29.6401C28.7181 29.423 29.5188 28.9934 30.1799 28.3901C30.1199 28.7101 30.0599 29.0401 29.9899 29.3901C30.9848 28.0238 31.5269 26.3802 31.5399 24.6901C31.3999 24.9801 31.2599 25.2801 31.1099 25.5701C30.8948 24.7052 30.4957 23.8968 29.9399 23.2001C29.1699 23.3501 28.4099 23.5401 27.6299 23.6601C28.3099 23.2501 29.0599 22.9801 29.7699 22.6601C29.8189 21.773 29.6507 20.8874 29.2799 20.0801L30.1199 20.5001C29.1279 19.1359 27.7267 18.1235 26.1199 17.6101C26.3599 17.8401 26.5999 18.1001 26.8399 18.3401C25.9542 18.23 25.0552 18.3506 24.2299 18.6901C24.1199 19.4701 24.0799 20.2701 23.9199 21.0601C23.8099 20.2701 23.7399 19.4801 23.6399 18.6901C22.8145 18.3506 21.9155 18.23 21.0299 18.3401C21.2759 18.0559 21.5507 17.7978 21.8499 17.5701C20.2134 18.0891 18.7846 19.1153 17.7699 20.5001L17.8699 20.4901Z" fill="black" fill-opacity="0.2"/>
<path d="M20.6699 23.7301C21.7899 22.9401 22.8799 22.1201 23.9999 21.3301C25.1099 22.1501 26.2399 22.9301 27.3399 23.7701C26.9099 25.0701 26.4799 26.3701 26.0699 27.6801C24.6899 27.6801 23.2999 27.6801 21.9199 27.6801C21.5599 26.3601 21.0799 25.0601 20.6699 23.7301Z" fill="#7F7F7F"/>
<path d="M20.6699 23.7301C21.7899 22.9401 22.8799 22.1201 23.9999 21.3301C25.1099 22.1501 26.2399 22.9301 27.3399 23.7701C26.9099 25.0701 26.4799 26.3701 26.0699 27.6801C24.6899 27.6801 23.2999 27.6801 21.9199 27.6801C21.5599 26.3601 21.0799 25.0601 20.6699 23.7301Z" fill="black" fill-opacity="0.2"/>
<path d="M8.56 28.59C8.8783 28.4316 9.2139 28.3108 9.56 28.23C9.786 28.5415 9.9772 28.8768 10.13 29.23C10.8523 30.5996 11.8452 31.8084 13.0484 32.783C14.2517 33.7576 15.6402 34.4778 17.13 34.9C17.07 35.19 17.01 35.49 16.92 35.78C16.11 38.34 15.32 40.91 14.52 43.48C14.4023 43.9148 14.2587 44.3423 14.09 44.76C13.95 44.96 13.71 44.82 13.53 44.76C10.5157 43.8085 7.7444 42.213 5.4081 40.0839C3.0719 37.9548 1.2265 35.3432 0 32.43V32.31C2.82 30.99 5.71 29.83 8.56 28.56V28.59Z" fill="#999999"/>
<path d="M35.33 29.5802C35.5465 29.5247 35.7736 29.5247 35.9901 29.5802C39.2301 29.8502 42.4601 30.0602 45.6901 30.3502C45.6901 30.5202 45.6901 30.6902 45.6901 30.8602C45.4331 33.9866 44.5051 37.0209 42.9692 39.7561C41.4333 42.4913 39.3257 44.8633 36.7901 46.7102C36.5601 46.9302 36.3301 46.6602 36.2001 46.4802C34.3201 43.8802 32.4001 41.3002 30.5101 38.7002C30.2801 38.4702 30.5101 38.2302 30.7201 38.1002C33.0207 36.3908 34.5778 33.8638 35.0701 31.0402C35.1133 30.5627 35.1868 30.0884 35.2901 29.6202L35.33 29.5802Z" fill="#999999"/>
<path d="M27.34 36.6201C27.53 36.4901 27.6501 36.7401 27.7501 36.8501C29.5201 39.4701 31.27 42.1001 33.04 44.7201C33.12 44.8501 33.1901 44.9801 33.2601 45.1101C33.3301 45.2401 33.05 45.4101 32.91 45.5301C30.1695 47.343 27.0558 48.5153 23.8001 48.9601C23.2513 49.0766 22.6874 49.1036 22.1301 49.0401C21.0094 49.0066 19.8878 49.0333 18.7701 49.1201C17.4566 48.9335 16.157 48.6595 14.88 48.3001C14.65 48.2401 14.77 47.9501 14.79 47.7901C15.65 44.7101 16.49 41.6301 17.35 38.5501C17.35 38.2301 17.6701 38.1201 17.9301 38.2501C20.003 38.8075 22.1919 38.7624 24.2401 38.1201C25.3325 37.7528 26.3741 37.2488 27.34 36.6201Z" fill="#999999"/>
</svg>
