<svg width="94" height="48" viewBox="0 0 94 48" fill="none" xmlns="http://www.w3.org/2000/svg">
<path d="M32.6605 22.451H32.7008C33.8835 22.451 34.7437 23.3384 34.8512 24.2125H30.4698C30.5505 23.3384 31.3837 22.451 32.6605 22.451ZM32.6471 21.2458C30.6042 21.2458 28.9914 22.8484 28.9914 24.888C28.9914 26.6627 30.3623 28.5036 32.6605 28.5036C33.3862 28.5036 34.0717 28.3049 34.6361 27.9209C35.0797 27.6295 35.456 27.2454 35.7382 26.7951C35.8188 26.6627 35.8188 26.5037 35.7516 26.3713C35.671 26.2389 35.5366 26.1462 35.3753 26.1462H34.8512C34.7033 26.1462 34.5689 26.2256 34.4883 26.3448C34.0851 26.9673 33.4669 27.2851 32.6739 27.2851C31.6525 27.2851 30.537 26.6097 30.4429 25.3383H35.8592C36.0876 25.3383 36.2892 25.1528 36.2892 24.9277C36.3027 23.8947 35.9398 22.9676 35.2275 22.2524C34.5421 21.6034 33.6282 21.2458 32.6471 21.2458ZM43.2242 24.835C43.2511 25.4575 43.0226 26.0534 42.5791 26.4905C42.1355 26.9276 41.5442 27.1792 40.9125 27.1792C39.3938 27.1792 38.5874 26.0137 38.574 24.8615V24.8482C38.574 23.5371 39.582 22.5438 40.9125 22.5438C41.5442 22.5438 42.1221 22.7689 42.5522 23.1927C42.9823 23.6298 43.2242 24.1993 43.2242 24.835ZM44.1381 19.0076H43.587C43.3451 19.0076 43.157 19.2062 43.157 19.4314V22.3981C42.821 21.908 42.0146 21.2458 40.6975 21.2458C38.6815 21.2458 37.1628 22.7954 37.1628 24.8615C37.1628 26.9673 38.6546 28.5036 40.7109 28.5036C42.1355 28.5036 42.8613 27.8017 43.1973 27.2719V27.8679C43.1973 28.1063 43.3854 28.2917 43.6274 28.2917H44.1381C44.38 28.2917 44.5681 28.1063 44.5681 27.8679V19.4314C44.5681 19.193 44.3666 19.0076 44.1381 19.0076ZM54.0163 21.2458C53.304 21.2458 52.6455 21.4975 52.1751 21.9743C51.9735 22.1729 51.8391 22.3716 51.7316 22.5702V22.557C51.6375 22.3981 51.4896 22.1332 51.3418 21.9875C50.7908 21.3783 50.065 21.2458 49.5409 21.2458C48.6135 21.2458 47.8743 21.7359 47.5249 22.2524V21.8683C47.5249 21.6299 47.3367 21.4445 47.0948 21.4445H46.611C46.3691 21.4445 46.1809 21.6299 46.1809 21.8683V27.8811C46.1809 28.1195 46.3691 28.3049 46.611 28.3049H47.162C47.4039 28.3049 47.5921 28.1195 47.5921 27.8811V24.5569C47.5921 24.0006 47.7131 23.5503 47.9415 23.206C48.1835 22.7954 48.6538 22.5702 49.178 22.5702C49.7425 22.5835 50.1591 22.7954 50.4279 23.2192C50.6295 23.5503 50.7101 23.9344 50.6967 24.5304V27.8811C50.6967 28.1195 50.8848 28.3049 51.1268 28.3049H51.6912C51.9332 28.3049 52.1213 28.1195 52.1213 27.8811V24.5304C52.1213 23.9476 52.1616 23.59 52.4304 23.1927C52.6723 22.8086 53.1427 22.5702 53.6938 22.5702C54.2448 22.5702 54.6077 22.7424 54.863 23.1C55.1049 23.4179 55.2259 23.8814 55.2259 24.5701V27.8679C55.2259 28.1063 55.4141 28.2917 55.656 28.2917H56.207C56.4489 28.2917 56.6371 28.1063 56.6371 27.8679V24.5171C56.6371 23.153 56.4489 22.5173 55.871 21.9345C55.2931 21.3253 54.4598 21.2326 54.0163 21.2458ZM64.0021 21.4312H63.451C63.2091 21.4312 63.021 21.6167 63.021 21.8551V25.2588C63.021 26.4773 62.3759 27.1659 61.2066 27.1792C60.0373 27.1792 59.446 26.4905 59.446 25.1528V21.8683C59.446 21.6299 59.2578 21.4445 59.0159 21.4445H58.4649C58.223 21.4445 58.0348 21.6299 58.0348 21.8683V25.4575C58.0348 28.093 59.7954 28.4904 60.8437 28.5036H60.8841C61.8786 28.5036 62.6715 28.1195 63.0882 27.4308V27.8811C63.0882 28.1195 63.2763 28.3049 63.5182 28.3049H64.0021C64.244 28.3049 64.4322 28.1195 64.4322 27.8811V21.8683C64.4322 21.6299 64.2306 21.4312 64.0021 21.4312ZM69.6065 21.2458C68.585 21.2326 67.7787 21.6167 67.362 22.3186V21.8683C67.362 21.6299 67.1739 21.4445 66.932 21.4445H66.4481C66.2062 21.4445 66.0181 21.6299 66.0181 21.8683V27.8811C66.0181 28.1195 66.2062 28.3049 66.4481 28.3049H66.9992C67.2411 28.3049 67.4292 28.1195 67.4292 27.8811V24.4906C67.4292 23.2722 68.0743 22.5835 69.2436 22.5702C69.7678 22.557 70.1844 22.7027 70.4801 22.9941C70.816 23.3252 70.9908 23.8682 70.9908 24.5966V27.8811C70.9908 28.1195 71.1789 28.3049 71.4208 28.3049H71.9853C72.2272 28.3049 72.4154 28.1195 72.4154 27.8811V24.292C72.4288 21.6564 70.6548 21.2458 69.6065 21.2458ZM79.6594 24.835C79.6863 25.4575 79.4578 26.0534 79.0143 26.4905C78.5708 26.9276 77.9795 27.1792 77.3478 27.1792C75.8291 27.1792 75.0227 26.0137 75.0093 24.8615V24.8482C75.0093 23.5371 76.0173 22.5438 77.3478 22.5438C77.9795 22.5438 78.5574 22.7689 78.9874 23.1927C79.431 23.6298 79.6594 24.1993 79.6594 24.835ZM80.5733 19.0076H80.0223C79.7804 19.0076 79.5922 19.2062 79.5922 19.4314V22.3981C79.2562 21.908 78.4498 21.2458 77.1327 21.2458C75.1168 21.2458 73.5981 22.7954 73.5981 24.8615C73.5981 26.9673 75.0899 28.5036 77.1462 28.5036C78.5708 28.5036 79.2966 27.8017 79.6326 27.2719V27.8679C79.6326 28.1063 79.8207 28.2917 80.0626 28.2917H80.5733C80.8153 28.2917 81.0034 28.1063 81.0034 27.8679V19.4314C81.0034 19.193 80.8153 19.0076 80.5733 19.0076ZM85.0085 24.1463L84.9816 24.133C84.2827 23.9344 83.8123 23.7092 83.7854 23.206C83.7854 22.9941 83.8526 22.8086 84.0005 22.6629C84.1752 22.4908 84.4171 22.3981 84.7128 22.3981H84.7397C85.1966 22.3981 85.5057 22.61 85.6133 22.9941C85.667 23.1795 85.8283 23.3119 86.0299 23.3119H86.554C86.6884 23.3119 86.8094 23.2457 86.89 23.1397C86.9707 23.0338 86.9976 22.9013 86.9707 22.7689C86.675 21.6299 85.6133 21.2326 84.7262 21.2326C83.3688 21.2326 82.3743 22.1199 82.3743 23.3384C82.3877 24.4774 83.3151 24.9012 84.1349 25.1396C85.3579 25.5369 85.8283 25.7488 85.8417 26.3713C85.8417 26.9011 85.3713 27.3249 84.78 27.3249C84.3768 27.3249 83.8392 27.1262 83.6779 26.5567C83.6242 26.3713 83.4629 26.2389 83.2613 26.2389H82.6968C82.5624 26.2389 82.4415 26.2918 82.3608 26.3978C82.2802 26.5037 82.2533 26.6362 82.2802 26.7686C82.5624 27.9606 83.7317 28.5036 84.7531 28.5036C85.4923 28.5036 86.1777 28.2387 86.6347 27.7752C87.0379 27.3646 87.2529 26.8348 87.2395 26.2389C87.1992 24.7555 86.0299 24.4377 85.0085 24.1463ZM20.2556 19.8022H18.5487C18.159 19.8022 17.8499 20.0539 17.8499 20.3717V21.2856C17.8499 21.3385 17.8499 21.4048 17.8767 21.4577C18.253 21.0074 18.8175 20.7425 19.4089 20.7425C19.8524 20.7425 20.5781 21.0074 20.941 21.4445C20.9544 21.3915 20.9679 21.3385 20.9679 21.2856V20.3717C20.9544 20.0539 20.6453 19.8022 20.2556 19.8022Z" fill="#90A5B1"/>
<path d="M16.6402 27.3772C16.4386 27.4169 16.237 27.4301 16.0354 27.4434C15.8338 27.4301 15.6322 27.4169 15.4306 27.3772C13.9791 27.1123 12.8502 26.0925 12.3529 24.7946C13.0518 25.5892 14.463 25.9998 16.0354 26.013C17.6079 25.9998 19.0056 25.5892 19.7179 24.7946C19.2206 26.0925 18.0917 27.099 16.6402 27.3772ZM11.1433 20.5829V21.4968C11.1433 21.6027 11.1837 21.6954 11.2374 21.7749C10.6864 21.8279 10.1488 21.9073 9.66497 22C9.93376 21.3246 10.4848 20.2518 11.1568 19.5764C11.2777 19.4572 11.7347 19.0598 12.4201 18.9407C12.7561 18.8877 13.9523 18.7155 15.8069 18.7155H16.3042C18.1589 18.7155 19.355 18.8877 19.691 18.9407C20.1614 19.0334 20.6049 19.2453 20.9544 19.5764C21.6129 20.2518 22.1774 21.3378 22.4462 22C21.3979 21.7749 20.1883 21.6954 18.8981 21.6557C18.7503 21.6557 18.3605 21.6425 17.9976 21.6425H14.2345C14.2479 21.5895 14.2614 21.5365 14.2614 21.4835V20.5697C14.2614 20.2518 13.9523 20.0002 13.5625 20.0002H11.8556C11.4659 20.0267 11.1433 20.2783 11.1433 20.5829ZM21.707 26.5163C21.156 26.4633 20.7259 26.0263 20.6721 25.4832C20.6049 24.8475 21.0753 24.2913 21.707 24.2251C21.7876 24.2118 21.8683 24.2118 21.9489 24.2251C22.5 24.278 22.93 24.7151 22.9838 25.2581C23.051 25.8938 22.5806 26.4501 21.9489 26.5163C21.8548 26.5163 21.7876 26.5163 21.707 26.5163ZM10.1488 26.5163C9.59777 26.4633 9.16769 26.0263 9.11393 25.4832C9.04674 24.8475 9.51713 24.2913 10.1488 24.2251C10.2294 24.2118 10.3101 24.2118 10.3907 24.2251C11.0358 24.3045 11.4793 24.8873 11.3987 25.523C11.3181 26.119 10.767 26.556 10.1488 26.5163ZM25.4567 21.3511C25.4433 21.0862 25.2148 20.8743 24.946 20.8875L23.8574 20.914C23.6155 20.9273 23.4139 21.0994 23.387 21.3378C23.387 21.3908 23.3735 21.4438 23.3601 21.4968L23.2391 21.2584C22.7956 20.4505 22.1908 19.4704 21.5861 18.8612C21.5861 18.8612 21.0485 18.2122 19.9867 18.0003C19.0594 17.8017 17.5407 17.7487 16.0489 17.7619C14.557 17.7487 13.0518 17.8017 12.111 18.0003C11.0493 18.2122 10.5117 18.8612 10.5117 18.8612C9.90688 19.4704 9.30209 20.4505 8.85858 21.2584L8.72418 21.5233C8.71074 21.457 8.6973 21.4041 8.68386 21.3378C8.65698 21.0994 8.45538 20.9273 8.21347 20.914L7.12485 20.8875C6.85605 20.8743 6.62757 21.0862 6.61413 21.3511L6.6007 21.8676C6.58726 22.1325 6.80229 22.3576 7.07109 22.3709L8.22691 22.5033L8.24035 22.4768L8.21347 22.5298C7.83715 22.9669 7.59524 23.4701 7.52804 23.8675C7.40708 24.2913 7.33988 24.821 7.33988 25.5097C7.33988 26.4898 7.60868 27.8275 7.67588 28.4897V29.4697C7.67588 29.9598 8.07907 30.3438 8.5629 30.3438H9.77248C10.2698 30.3438 10.6595 29.9465 10.6595 29.4697V28.7413C11.9228 28.6221 13.9791 28.5824 16.0489 28.5824C18.1186 28.5824 20.1749 28.6221 21.4382 28.7413V29.4697C21.4382 29.9598 21.8414 30.3438 22.3252 30.3438H23.5348C24.0321 30.3438 24.4218 29.9465 24.4218 29.4697V28.4897C24.489 27.8407 24.7578 26.4898 24.7578 25.5097C24.7578 23.9867 24.1799 22.9139 23.8843 22.5298L23.8708 22.4901L24.9998 22.3576C25.2685 22.3444 25.4836 22.1192 25.4701 21.8544C25.4701 21.8808 25.4567 21.3511 25.4567 21.3511Z" fill="#90A5B1"/>
</svg>
