<svg width="54" height="54" viewBox="0 0 54 54" fill="none" xmlns="http://www.w3.org/2000/svg">
<path d="M53.9284 25.2947C53.0759 11.2263 41.3525 0 26.9998 0C12.6472 0 0.92347 11.2263 0.0708771 25.2947C0.0708771 25.8632 0.141886 26.4316 0.212963 27C0.781382 31.6895 2.55771 36.0237 5.25771 39.6473C10.1604 46.3263 18.0472 50.6605 26.9998 50.6605C14.4945 50.6605 4.26296 40.9263 3.4103 28.7053C3.33929 28.1368 3.33929 27.5684 3.33929 27C3.33929 26.4316 3.33929 25.8632 3.4103 25.2947C4.26296 13.0737 14.4945 3.3395 26.9998 3.3395C35.9525 3.3395 43.8392 7.67367 48.7418 14.3527C51.4418 17.9763 53.2183 22.3105 53.7867 27C53.8576 27.5684 53.9284 28.1368 53.9284 28.6342C53.9284 28.0658 54 27.4973 54 26.9289C54 26.4316 54 25.8632 53.9284 25.2947Z" fill="#999999"/>
<path d="M0.0710782 28.7052C0.92367 42.7736 12.6473 53.9999 27 53.9999C41.3525 53.9999 53.0766 42.7736 53.9291 28.7052C53.9291 28.1368 53.8576 27.5683 53.7867 26.9999C53.2183 22.3104 51.4424 17.9763 48.7424 14.3526C43.8392 7.67359 35.9525 3.33942 27 3.33942C39.5051 3.33942 49.7367 13.0736 50.5892 25.2947C50.6608 25.8631 50.6608 26.4315 50.6608 26.9999C50.6608 27.5683 50.6608 28.1368 50.5892 28.7052C49.7367 40.9973 39.5051 50.6604 27 50.6604C18.0473 50.6604 10.1605 46.3263 5.25791 39.6473C2.55791 36.0236 0.781583 31.6894 0.213165 26.9999C0.142088 26.4315 0.0710782 25.8631 0.0710782 25.3657C0.0710782 25.9342 0 26.5026 0 27.071C0 27.5683 6.08526e-07 28.1368 0.0710782 28.7052Z" fill="#7F7F7F"/>
<path d="M0.0710782 28.7052C0.92367 42.7736 12.6473 53.9999 27 53.9999C41.3525 53.9999 53.0766 42.7736 53.9291 28.7052C53.9291 28.1368 53.8576 27.5683 53.7867 26.9999C53.2183 22.3104 51.4424 17.9763 48.7424 14.3526C43.8392 7.67359 35.9525 3.33942 27 3.33942C39.5051 3.33942 49.7367 13.0736 50.5892 25.2947C50.6608 25.8631 50.6608 26.4315 50.6608 26.9999C50.6608 27.5683 50.6608 28.1368 50.5892 28.7052C49.7367 40.9973 39.5051 50.6604 27 50.6604C18.0473 50.6604 10.1605 46.3263 5.25791 39.6473C2.55791 36.0236 0.781583 31.6894 0.213165 26.9999C0.142088 26.4315 0.0710782 25.8631 0.0710782 25.3657C0.0710782 25.9342 0 26.5026 0 27.071C0 27.5683 6.08526e-07 28.1368 0.0710782 28.7052Z" fill="black" fill-opacity="0.2"/>
<path d="M23.6606 5.1864V12.647H28.8475C30.1266 12.647 31.1209 11.6522 31.1209 10.3732C31.1209 9.73375 30.8367 9.16533 30.4108 8.739C30.6949 8.38375 30.9082 7.88641 30.9791 7.389C30.9791 6.18108 29.9842 5.1864 28.7763 5.1864H23.6606ZM25.3658 6.74957H28.4921C28.8474 6.74957 29.1316 7.03375 29.1316 7.389C29.1316 7.74425 28.8474 8.0285 28.4921 8.0285H25.3658V6.74957ZM25.3658 9.59159H28.5632C28.9895 9.59159 29.2741 9.87584 29.2741 10.3022C29.2741 10.7285 28.9895 11.0127 28.5632 11.0127H25.3658V9.59159Z" fill="#999999"/>
<path d="M26.1471 14.0676L22.4523 21.5281H24.3708L24.9392 20.2492H29.1317L29.7 21.5281H31.6184L27.8523 14.0676H26.1471ZM26.9997 15.9861L28.2787 18.6861H25.7208L26.9997 15.9861Z" fill="#999999"/>
<path d="M29.5576 23.1623H31.6892L27.9235 27.9939V30.6228H26.1473V27.9939L22.3814 23.1623H24.513L27.0709 26.5728L29.5576 23.1623Z" fill="#999999"/>
<path d="M41.7791 23.1623V30.6228H43.5551V27.7807H44.9051L47.0367 30.6228H49.1684L46.9658 27.7096C47.8892 27.4255 48.6 26.5729 48.6 25.507C48.6 24.2281 47.605 23.1623 46.3259 23.1623H41.7791ZM43.6259 24.7254H46.1842C46.5392 24.7254 46.8949 25.0807 46.8949 25.436C46.8949 25.7912 46.6108 26.1465 46.1842 26.1465H43.6259V24.7254Z" fill="#999999"/>
<path d="M5.47087 23.1623V30.6228H10.6577C11.9366 30.6228 12.9314 29.6281 12.9314 28.3491C12.9314 27.7096 12.6472 27.1412 12.2209 26.7149C12.505 26.3596 12.7182 25.8622 12.7892 25.3649C12.7892 24.157 11.7945 23.1623 10.5866 23.1623H5.47087ZM7.17606 24.7254H10.3024C10.6576 24.7254 10.9419 25.0096 10.9419 25.3649C10.9419 25.7201 10.6576 26.0043 10.3024 26.0043H7.17606V24.7254ZM7.17606 27.5675H10.3735C10.7998 27.5675 11.084 27.8517 11.084 28.278C11.084 28.7043 10.7998 28.9886 10.3735 28.9886H7.17606V27.5675Z" fill="#999999"/>
<path d="M17.6922 23.1623L13.9973 30.6228H15.9158L16.4842 29.3439H20.6764L21.2447 30.6228H23.1631L19.3973 23.1623H17.6922ZM18.5447 25.0807L19.8237 27.7807H17.2658L18.5447 25.0807Z" fill="#999999"/>
<path d="M39.4342 23.1623V24.766H34.4601V26.021H39.2918V27.6247H34.4601V29.0191H39.4342V30.6228H32.6842V23.1623H39.4342Z" fill="#999999"/>
<path d="M23.5891 41.4941V48.9546H25.3654V46.1125H26.7154L28.847 48.9546H30.9784L28.7759 46.0414C29.6993 45.7572 30.4101 44.9047 30.4101 43.8388C30.4101 42.5599 29.4151 41.4941 28.1365 41.4941H23.5891ZM25.4365 43.0572H27.9944C28.3497 43.0572 28.7049 43.4125 28.7049 43.7678C28.7049 44.123 28.4207 44.4783 27.9944 44.4783H25.4365V43.0572Z" fill="#999999"/>
<path d="M30.4108 32.2411V33.8448H25.4369V35.0999H30.2683V36.7035H25.4369V38.098H30.4108V39.7017H23.6606V32.2411H30.4108Z" fill="#999999"/>
</svg>
