<svg width="118" height="43" viewBox="0 0 118 43" fill="none" xmlns="http://www.w3.org/2000/svg">
<path d="M60.987 19.041L57.559 26.897V26.917H56.05V26.897L53.366 20.745L50.662 26.897V26.917H49.153V26.897L45.725 19.041H47.234L49.918 25.173L52.602 19.041H54.111L56.795 25.173L59.479 19.041H60.987ZM64.768 27.015C62.515 27.015 60.693 25.193 60.693 22.979C60.693 20.746 62.515 18.943 64.768 18.943C67.021 18.943 68.843 20.765 68.843 22.979V23.665H62.162C62.476 24.821 63.514 25.663 64.768 25.663V27.015V27.015ZM62.162 22.294H67.393C67.2402 21.7201 66.9019 21.213 66.4306 20.8515C65.9594 20.4901 65.3819 20.2948 64.788 20.296C64.1928 20.2988 63.6147 20.4952 63.1411 20.8557C62.6675 21.2162 62.3242 21.7211 62.163 22.294H62.162ZM73.506 18.944C75.622 18.944 77.326 20.649 77.326 22.725V26.918H75.955V22.725C75.955 21.393 74.858 20.296 73.506 20.296C72.154 20.296 71.057 21.374 71.057 22.725V26.918H69.686V17.024H71.057V19.806C71.743 19.238 72.605 18.944 73.506 18.944ZM84.085 24.841C84.458 25.194 85.143 25.683 85.574 25.683V27.054C84.438 27.054 83.243 25.937 83.125 25.82L83.106 25.8L80.657 23.233L79.775 24.075V26.935H78.404V17.041H79.775V22.174L83.067 19.059H85.065L81.656 22.292L84.085 24.839V24.841ZM93.607 24.978C93.607 25.448 93.979 25.918 94.136 26.056L93.195 27.055C93.117 26.996 92.647 26.546 92.392 25.86C91.628 26.604 90.59 27.035 89.532 27.035C87.279 27.035 85.457 25.213 85.457 22.999C85.457 20.766 87.279 18.963 89.532 18.963C90.57 18.963 91.511 19.355 92.235 19.982V19.081H93.607V24.978V24.978ZM89.512 25.664C91.001 25.664 92.216 24.469 92.216 22.98C92.216 21.511 91.001 20.296 89.512 20.296C88.023 20.296 86.809 21.491 86.809 22.98C86.809 24.449 88.023 25.664 89.512 25.664ZM104.95 18.944C107.066 18.944 108.771 20.649 108.771 22.725V26.918H107.399V22.725C107.399 21.393 106.302 20.296 104.95 20.296C103.598 20.296 102.501 21.374 102.501 22.725V26.918H101.13V22.725C101.13 21.393 100.033 20.296 98.681 20.296C97.329 20.296 96.232 21.374 96.232 22.725V26.918H94.861V19.042H96.232V19.806C96.9203 19.2351 97.7867 18.9231 98.681 18.924C99.974 18.924 101.13 19.571 101.816 20.55C102.174 20.0533 102.645 19.6487 103.19 19.3693C103.734 19.09 104.338 18.9439 104.95 18.943V18.944ZM113.923 18.944C116.176 18.944 117.998 20.766 117.998 22.98C117.998 25.213 116.176 27.016 113.923 27.016C112.924 27.016 111.964 26.663 111.22 25.997V28.916H109.848V19.022H111.22V19.943C111.964 19.296 112.924 18.944 113.923 18.944ZM113.923 25.664C115.412 25.664 116.627 24.469 116.627 22.98C116.627 21.511 115.412 20.296 113.923 20.296C112.434 20.296 111.22 21.491 111.22 22.98C111.22 24.469 112.434 25.664 113.923 25.664ZM21.393 0.450012C32.952 0.450012 42.336 9.81501 42.336 21.393C42.336 32.952 32.971 42.336 21.393 42.336C9.81501 42.336 0.450012 32.952 0.450012 21.393C0.450012 9.83401 9.81501 0.450012 21.393 0.450012V0.450012ZM37.184 14.242H34.069L28.505 27.074L22.941 14.242H19.806L14.242 27.074L8.67801 14.242H5.60201L12.714 30.64L12.694 30.679H15.829L15.809 30.64L21.373 17.788L26.937 30.64L26.917 30.679H30.052L30.032 30.64L37.183 14.242H37.184Z" fill="#7F7F7F"/>
<path d="M60.987 19.041L57.559 26.897V26.917H56.05V26.897L53.366 20.745L50.662 26.897V26.917H49.153V26.897L45.725 19.041H47.234L49.918 25.173L52.602 19.041H54.111L56.795 25.173L59.479 19.041H60.987ZM64.768 27.015C62.515 27.015 60.693 25.193 60.693 22.979C60.693 20.746 62.515 18.943 64.768 18.943C67.021 18.943 68.843 20.765 68.843 22.979V23.665H62.162C62.476 24.821 63.514 25.663 64.768 25.663V27.015V27.015ZM62.162 22.294H67.393C67.2402 21.7201 66.9019 21.213 66.4306 20.8515C65.9594 20.4901 65.3819 20.2948 64.788 20.296C64.1928 20.2988 63.6147 20.4952 63.1411 20.8557C62.6675 21.2162 62.3242 21.7211 62.163 22.294H62.162ZM73.506 18.944C75.622 18.944 77.326 20.649 77.326 22.725V26.918H75.955V22.725C75.955 21.393 74.858 20.296 73.506 20.296C72.154 20.296 71.057 21.374 71.057 22.725V26.918H69.686V17.024H71.057V19.806C71.743 19.238 72.605 18.944 73.506 18.944ZM84.085 24.841C84.458 25.194 85.143 25.683 85.574 25.683V27.054C84.438 27.054 83.243 25.937 83.125 25.82L83.106 25.8L80.657 23.233L79.775 24.075V26.935H78.404V17.041H79.775V22.174L83.067 19.059H85.065L81.656 22.292L84.085 24.839V24.841ZM93.607 24.978C93.607 25.448 93.979 25.918 94.136 26.056L93.195 27.055C93.117 26.996 92.647 26.546 92.392 25.86C91.628 26.604 90.59 27.035 89.532 27.035C87.279 27.035 85.457 25.213 85.457 22.999C85.457 20.766 87.279 18.963 89.532 18.963C90.57 18.963 91.511 19.355 92.235 19.982V19.081H93.607V24.978V24.978ZM89.512 25.664C91.001 25.664 92.216 24.469 92.216 22.98C92.216 21.511 91.001 20.296 89.512 20.296C88.023 20.296 86.809 21.491 86.809 22.98C86.809 24.449 88.023 25.664 89.512 25.664ZM104.95 18.944C107.066 18.944 108.771 20.649 108.771 22.725V26.918H107.399V22.725C107.399 21.393 106.302 20.296 104.95 20.296C103.598 20.296 102.501 21.374 102.501 22.725V26.918H101.13V22.725C101.13 21.393 100.033 20.296 98.681 20.296C97.329 20.296 96.232 21.374 96.232 22.725V26.918H94.861V19.042H96.232V19.806C96.9203 19.2351 97.7867 18.9231 98.681 18.924C99.974 18.924 101.13 19.571 101.816 20.55C102.174 20.0533 102.645 19.6487 103.19 19.3693C103.734 19.09 104.338 18.9439 104.95 18.943V18.944ZM113.923 18.944C116.176 18.944 117.998 20.766 117.998 22.98C117.998 25.213 116.176 27.016 113.923 27.016C112.924 27.016 111.964 26.663 111.22 25.997V28.916H109.848V19.022H111.22V19.943C111.964 19.296 112.924 18.944 113.923 18.944ZM113.923 25.664C115.412 25.664 116.627 24.469 116.627 22.98C116.627 21.511 115.412 20.296 113.923 20.296C112.434 20.296 111.22 21.491 111.22 22.98C111.22 24.469 112.434 25.664 113.923 25.664ZM21.393 0.450012C32.952 0.450012 42.336 9.81501 42.336 21.393C42.336 32.952 32.971 42.336 21.393 42.336C9.81501 42.336 0.450012 32.952 0.450012 21.393C0.450012 9.83401 9.81501 0.450012 21.393 0.450012V0.450012ZM37.184 14.242H34.069L28.505 27.074L22.941 14.242H19.806L14.242 27.074L8.67801 14.242H5.60201L12.714 30.64L12.694 30.679H15.829L15.809 30.64L21.373 17.788L26.937 30.64L26.917 30.679H30.052L30.032 30.64L37.183 14.242H37.184Z" fill="black" fill-opacity="0.2"/>
</svg>
