<svg width="262" height="45" viewBox="0 0 262 45" fill="none" xmlns="http://www.w3.org/2000/svg">
<path fill-rule="evenodd" clip-rule="evenodd" d="M192.781 39.0172L182.694 24.7793C182.648 24.7158 182.617 24.6423 182.605 24.5647C182.593 24.4872 182.6 24.4081 182.624 24.3335C182.649 24.2591 182.691 24.1915 182.748 24.1364C182.804 24.0812 182.873 24.0401 182.949 24.0164C185.204 23.2807 187.165 21.8593 188.552 19.9556C189.94 18.0521 190.681 15.7636 190.673 13.4181C190.673 13.4181 191.383 1.50741 177.01 1.50741C172.807 1.44078 168.647 2.3256 164.845 4.09403V4.71206C165.491 4.93441 166.053 5.34531 166.456 5.89033C166.861 6.43536 167.088 7.08881 167.108 7.76413V38.9943C167.149 39.6131 167.016 40.231 166.722 40.7793C166.429 41.3276 165.987 41.7847 165.448 42.0997V42.8628H174.159V42.0997C174.159 42.0997 172.854 41.3368 172.854 39.0477V25.4889C172.854 25.2865 172.936 25.0925 173.08 24.9494C173.225 24.8063 173.422 24.726 173.626 24.726H175.402C175.607 24.7264 175.806 24.7751 175.987 24.8681C176.166 24.9611 176.322 25.0955 176.437 25.2601L188.673 42.5271C188.743 42.6232 188.836 42.7016 188.944 42.7559C189.051 42.8103 189.169 42.839 189.29 42.8399H196.179V42.0768C194.825 41.3426 193.669 40.2955 192.812 39.0248L192.781 39.0172ZM175.858 21.6281H173.612C173.406 21.6281 173.209 21.5477 173.065 21.4046C172.92 21.2616 172.839 21.0674 172.839 20.865V6.62723C172.836 6.3242 172.946 6.03089 173.149 5.80301C173.351 5.57512 173.631 5.42856 173.935 5.39116C174.759 5.2804 175.591 5.22177 176.423 5.21566C181.328 5.21566 184.424 8.22194 184.424 13.4257C184.424 19.2398 181.018 21.6281 175.858 21.6281ZM84.1332 24.7793L94.2279 39.0172V39.0248C95.0887 40.2951 96.2464 41.3419 97.6031 42.0768V42.8399H90.7292C90.6073 42.8402 90.4871 42.812 90.3783 42.7576C90.2696 42.7033 90.1754 42.6243 90.1035 42.5271L77.877 25.2601C77.7594 25.0949 77.6032 24.9602 77.4218 24.8672C77.2402 24.7743 77.0387 24.7259 76.8344 24.726H75.0656C74.8609 24.726 74.6644 24.8063 74.5195 24.9494C74.3747 25.0925 74.2934 25.2865 74.2934 25.4889V39.0477C74.2934 41.3368 75.6064 42.0997 75.6064 42.0997V42.8628H66.8941V42.0997C67.4333 41.7838 67.8732 41.3262 68.1651 40.778C68.4568 40.2297 68.589 39.6123 68.5469 38.9943V7.76413C68.5271 7.08881 68.3001 6.43536 67.896 5.89033C67.4919 5.34531 66.9297 4.93441 66.2839 4.71206V4.09403C70.0863 2.32741 74.2471 1.44267 78.4486 1.50741C92.83 1.50741 92.1193 13.4181 92.1193 13.4181C92.1272 15.7634 91.3846 18.0512 89.9974 19.9546C88.6102 21.858 86.6497 23.2796 84.3958 24.0164C84.3195 24.0392 84.2498 24.0796 84.1925 24.1344C84.1353 24.1893 84.0919 24.2568 84.0662 24.3313C84.0406 24.4058 84.0334 24.4853 84.0449 24.5633C84.0565 24.6412 84.0868 24.7153 84.1332 24.7793ZM75.058 21.6281H77.3132C82.4726 21.6281 85.871 19.2398 85.871 13.4257C85.871 8.22194 82.7738 5.21566 77.877 5.21566C77.0425 5.22176 76.2092 5.28038 75.3824 5.39116C75.0786 5.43013 74.7997 5.57716 74.5978 5.8047C74.3959 6.03223 74.2849 6.32466 74.2856 6.62723V20.865C74.2856 21.0674 74.367 21.2616 74.5117 21.4046C74.6566 21.5477 74.8531 21.6281 75.058 21.6281ZM21.3208 20.8179C21.3707 20.8814 21.4358 20.9316 21.5102 20.9643V21.0025C25.457 22.6963 28.1835 26.3893 28.1835 31.4404C28.1835 38.6814 22.8619 42.8856 16.3123 42.8856H0.610164V42.1227C1.14876 41.8059 1.5882 41.3482 1.8799 40.8002C2.17161 40.2521 2.3042 39.6351 2.26301 39.0172V8.03881C2.2432 7.36349 2.01621 6.71005 1.61209 6.16501C1.20797 5.61999 0.645784 5.20909 0 4.98676V4.36871C2.6492 2.78927 6.95124 1.50741 12.0565 1.50741C25.2484 1.50741 24.592 12.4414 24.592 12.4414C24.6272 13.8788 24.3591 15.3079 23.8045 16.6373C23.2501 17.9668 22.4213 19.1675 21.3712 20.1631C21.312 20.2184 21.2676 20.2872 21.2419 20.3634C21.2161 20.4398 21.2098 20.5212 21.2236 20.6004C21.2373 20.6797 21.2707 20.7545 21.3208 20.8179ZM8.38819 5.60094C8.18788 5.8283 8.07797 6.1198 8.07889 6.42122H8.06344V19.1559C8.06344 19.3583 8.14481 19.5524 8.28965 19.6955C8.4345 19.8385 8.63096 19.919 8.83579 19.919H11.5931C16.181 19.919 19.2704 17.4544 19.2704 12.6169C19.2704 7.77939 16.3818 4.98676 11.8171 4.98676C10.9306 4.9962 10.0457 5.06246 9.16792 5.18513C8.86559 5.22582 8.58852 5.37358 8.38819 5.60094ZM9.08295 39.7497H13.5704L13.5859 39.7344C18.5675 39.7344 21.85 36.5756 21.85 31.3871C21.85 26.0917 18.5675 23.0396 13.5859 23.0396H8.85125C8.64641 23.0396 8.44994 23.1201 8.30511 23.2631C8.16026 23.4063 8.07889 23.6003 8.07889 23.8027V38.7502C8.07887 39.0139 8.18442 39.267 8.3725 39.4542C8.56057 39.6415 8.81595 39.7476 9.08295 39.7497ZM122.411 20.9643C122.337 20.9316 122.272 20.8814 122.222 20.8179C122.172 20.7545 122.138 20.6797 122.125 20.6004C122.111 20.5212 122.117 20.4398 122.143 20.3634C122.169 20.2872 122.213 20.2184 122.272 20.1631C123.322 19.1675 124.151 17.9668 124.706 16.6373C125.26 15.3079 125.528 13.8788 125.493 12.4414C125.493 12.4414 126.157 1.50741 112.958 1.50741C107.875 1.50741 103.558 2.78927 100.901 4.36871V4.98676C101.548 5.20876 102.111 5.61936 102.516 6.16429C102.922 6.70923 103.15 7.36285 103.172 8.03881V39.0172C103.212 39.6358 103.079 40.2534 102.785 40.8015C102.492 41.3496 102.051 41.807 101.511 42.1227V42.8856H117.213C123.771 42.8856 129.085 38.6814 129.085 31.4404C129.085 26.3893 126.366 22.6963 122.411 21.0025V20.9643ZM108.98 6.42122C108.979 6.11865 109.09 5.82621 109.292 5.59867C109.494 5.37114 109.773 5.22412 110.077 5.18513C110.967 5.06024 111.865 4.99395 112.765 4.98676C117.329 4.98676 120.21 7.77939 120.21 12.6169C120.21 17.4544 117.121 19.919 112.533 19.919H109.776C109.571 19.919 109.374 19.8385 109.229 19.6955C109.085 19.5524 109.003 19.3583 109.003 19.1559V6.42122H108.98ZM114.471 39.7497H109.969C109.836 39.7497 109.704 39.7238 109.581 39.6736C109.459 39.6233 109.347 39.5497 109.253 39.457C109.159 39.3641 109.085 39.2539 109.034 39.1326C108.983 39.0114 108.957 38.8815 108.957 38.7502V23.8027C108.957 23.6003 109.038 23.4063 109.183 23.2631C109.328 23.1201 109.524 23.0396 109.729 23.0396H114.464C119.453 23.0396 122.736 26.0917 122.736 31.3871C122.736 36.5756 119.453 39.7344 114.464 39.7344L114.471 39.7497ZM54.4283 2.88847V2.12546H61.3486V2.88847C60.8085 3.20228 60.3674 3.65807 60.0741 4.20504C59.7809 4.75202 59.6473 5.36868 59.6881 5.9863V31.532C59.6881 39.1317 55.4632 43.4274 47.3302 43.4274C39.1973 43.4274 34.0301 39.1622 34.0301 31.532V6.00919C34.0709 5.39158 33.9373 4.77491 33.6441 4.22793C33.3508 3.68096 32.9097 3.22516 32.3696 2.91135V2.14834H41.0819V2.91135C41.0819 2.91135 39.7766 3.67437 39.7766 5.96342V30.5554C39.7766 37.0257 42.1941 39.7803 47.6778 39.7803C53.1615 39.7803 55.7336 37.1173 55.7336 31.265V5.94052C55.7258 3.65148 54.4283 2.88847 54.4283 2.88847ZM217.481 24.7793L227.568 39.0172V39.0248C228.425 40.2955 229.58 41.3427 230.936 42.0768V42.8399H224.077C223.955 42.8402 223.834 42.812 223.726 42.7576C223.617 42.7033 223.524 42.6243 223.452 42.5271L211.224 25.2601C211.109 25.0955 210.953 24.9611 210.774 24.8681C210.593 24.7751 210.394 24.7264 210.189 24.726H208.413C208.209 24.726 208.012 24.8063 207.867 24.9494C207.723 25.0925 207.642 25.2865 207.642 25.4889V39.0477C207.642 41.3368 208.946 42.0997 208.946 42.0997V42.8628H200.235V42.0997C200.775 41.7847 201.216 41.3276 201.509 40.7793C201.803 40.231 201.936 39.6131 201.895 38.9943V7.76413C201.874 7.08817 201.644 6.43455 201.24 5.88961C200.833 5.34468 200.27 4.93408 199.624 4.71206V4.09403C203.429 2.32652 207.593 1.44177 211.797 1.50741C226.17 1.50741 225.46 13.4181 225.46 13.4181C225.468 15.7636 224.727 18.0521 223.339 19.9556C221.952 21.8593 219.991 23.2807 217.736 24.0164C217.66 24.0401 217.591 24.0812 217.535 24.1364C217.478 24.1915 217.436 24.2591 217.412 24.3335C217.387 24.4081 217.38 24.4872 217.392 24.5647C217.404 24.6423 217.435 24.7158 217.481 24.7793ZM208.399 21.6281H210.645C215.805 21.6281 219.211 19.2398 219.211 13.4257C219.211 8.22194 216.115 5.21566 211.21 5.21566C210.376 5.22176 209.542 5.28038 208.714 5.39116C208.412 5.43027 208.134 5.57758 207.934 5.80529C207.732 6.033 207.623 6.32537 207.626 6.62723V20.865C207.626 21.0674 207.707 21.2616 207.852 21.4046C207.997 21.5477 208.193 21.6281 208.399 21.6281ZM254.169 2.10256V2.86558C254.169 2.86558 255.806 3.39968 254.407 5.91763L246.6 19.8198C246.554 19.8958 246.49 19.9588 246.412 20.0027C246.335 20.0464 246.249 20.0695 246.159 20.0695C246.07 20.0695 245.983 20.0464 245.905 20.0027C245.828 19.9588 245.764 19.8958 245.718 19.8198L237.887 5.87948C236.489 3.39206 238.127 2.82742 238.127 2.82742V2.06441H227.923V2.82742C229.363 3.44076 230.548 4.51627 231.291 5.87948L241.802 24.5886C241.988 24.923 242.087 25.2982 242.088 25.6797V38.9943C242.13 39.6131 241.996 40.231 241.703 40.7793C241.411 41.3276 240.969 41.7847 240.428 42.0997V42.8628H249.472V42.0997C248.931 41.7847 248.49 41.3276 248.197 40.7793C247.904 40.231 247.771 39.6131 247.811 38.9943V25.7407C247.814 25.3593 247.912 24.9841 248.097 24.6496L258.632 5.94052C259.375 4.57731 260.562 3.50181 262 2.88847V2.12546L254.169 2.10256ZM143.365 39.7725H155.815C156.443 39.8134 157.068 39.6816 157.623 39.392C158.177 39.1023 158.641 38.6662 158.959 38.1321H159.732V42.8856H134.955V42.1227C135.493 41.8059 135.932 41.3482 136.224 40.8002C136.516 40.2521 136.649 39.6351 136.607 39.0172V5.9863C136.649 5.36944 136.516 4.7533 136.224 4.20639C135.932 3.65949 135.493 3.20327 134.955 2.88847V2.12546H158.017V6.8485H157.245C156.921 6.31805 156.456 5.88621 155.9 5.60073C155.344 5.31525 154.719 5.18727 154.094 5.23092H143.357C143.09 5.23092 142.832 5.33623 142.642 5.52368C142.452 5.71114 142.346 5.96537 142.346 6.23047V19.2933C142.346 19.4957 142.427 19.6897 142.573 19.8328C142.717 19.9759 142.913 20.0562 143.119 20.0562H149.907C152.225 20.0562 152.996 18.7439 152.996 18.7439H153.769V24.4741H152.996C152.996 24.4741 152.225 23.1541 149.907 23.1541H143.127C142.921 23.1541 142.724 23.2346 142.58 23.3776C142.435 23.5207 142.354 23.7148 142.354 23.9172V38.773C142.354 39.0381 142.46 39.2924 142.65 39.4799C142.84 39.6672 143.097 39.7725 143.365 39.7725Z" fill="black"/>
</svg>
