<svg width="49" height="34" viewBox="0 0 49 34" fill="none" xmlns="http://www.w3.org/2000/svg">
<g clip-path="url(#clip0_1188_782)">
<path d="M14.9786 23.6931C14.9786 21.4996 12.6365 20.4425 9.8545 20.4425C6.87822 20.4425 4.14773 21.7527 3.14518 23.7844C2.86877 24.3256 2.72459 24.9246 2.72533 25.5311C2.71263 26.0559 2.85906 26.5726 3.14518 27.0143C3.57474 27.6445 4.34122 28.0401 5.46628 28.0401C6.84685 28.0401 7.94128 27.2882 7.94128 25.978C7.94128 25.978 7.96145 25.6128 7.5319 25.6128C7.18451 25.6128 7.09188 25.8562 7.10234 25.978C7.15389 27.0039 6.5398 27.8271 5.44537 27.8271C4.2187 27.8271 3.70697 26.7908 3.70697 25.684C3.70697 23.4185 5.4252 21.9153 7.21514 21.2657C8.05185 20.9517 8.9401 20.7966 9.83358 20.8085C11.8588 20.8085 13.5158 21.5805 13.5158 23.653C13.5158 25.3797 12.0531 26.8524 10.3042 26.9846L10.3759 26.7507C10.7338 25.4806 11.1738 24.0895 11.8895 23.0636C11.9306 23.002 12.0023 22.9011 12.0837 22.7994L11.9814 22.6776C11.8282 22.7697 11.681 22.8714 11.5413 22.982C8.18706 25.5823 8.08546 32.8956 3.61508 32.8956C3.46118 32.8956 3.30729 32.8853 3.15489 32.8652C2.22406 32.713 1.73324 32.0932 1.73324 31.2299C1.73324 31.0569 1.7945 30.8231 1.7945 30.6917C1.80122 30.446 1.60699 30.2419 1.36046 30.2344C1.35822 30.2344 1.35673 30.2344 1.35448 30.2344H1.30368C0.904756 30.2344 0.74115 30.5492 0.730691 30.9961C0.700062 32.2862 1.66152 33.0374 3.14443 33.18C3.30804 33.1904 3.47164 33.2 3.64571 33.2C7.13297 33.2 9.2703 30.5796 10.181 27.4003C10.6419 27.3468 11.0976 27.2518 11.5413 27.116C13.158 26.6683 14.9778 25.592 14.9778 23.6924L14.9786 23.6931ZM48.1979 24.4547H46.9705L46.6949 25.0946L46.2137 26.171H45.6415L45.4667 26.5369H46.0606L45.3442 28.1114C44.8339 29.2182 44.0353 30.3057 43.5751 30.3057C43.4728 30.3057 43.4115 30.2649 43.4115 30.1639C43.4115 30.063 43.4422 29.9709 43.555 29.6866C43.6984 29.3511 43.9337 28.8641 44.1078 28.5085C44.3633 27.9904 44.7727 27.188 44.7727 26.7923C44.7727 26.3966 44.5172 26.0812 44.0159 26.0812C43.4534 26.0812 42.9424 26.4167 42.471 26.9037L42.778 26.1725H41.6231L40.6818 28.3059C40.3038 29.0579 39.5366 30.3072 39.0555 30.3072C38.9531 30.3072 38.912 30.2463 38.912 30.1446C38.9217 30.0533 38.9464 29.9642 38.9837 29.8804C39.0248 29.789 39.5874 28.4789 39.5874 28.4789L40.6101 26.1524H39.3625L38.3704 28.4172C38.0641 29.118 37.2864 30.3064 36.7851 30.3064C36.6977 30.3146 36.62 30.2515 36.6111 30.1647V30.1238C36.6111 30.0021 36.703 29.7787 36.7747 29.6161L37.2961 28.4789L38.3697 26.1524H37.1325L36.886 26.681C36.7022 27.0365 36.3952 27.453 35.9044 27.453C35.669 27.453 35.557 27.3617 35.5054 27.2704C35.4337 26.488 34.9324 26.0715 34.1958 26.0715C33.1731 26.0715 32.447 26.6706 31.9659 27.4025C31.6506 27.9065 31.4033 28.4492 31.23 29.017C30.79 29.7386 30.3298 30.2975 29.9615 30.2975C29.8696 30.2975 29.8076 30.2463 29.8076 30.1246C29.8076 30.0028 29.9302 29.7282 29.9712 29.6265L30.7796 27.9199C31.0044 27.3921 31.1583 27.0462 31.1583 26.701C31.1583 26.335 30.9028 26.0708 30.483 26.0708C29.9003 26.0708 29.266 26.4063 28.7647 26.9541C28.7819 26.8673 28.7886 26.7782 28.7849 26.6899C28.7849 26.2838 28.5802 26.07 28.1611 26.07C27.6292 26.07 27.0771 26.3855 26.5759 26.9541L26.9031 26.1613H25.778L24.827 28.2948C24.3773 29.3006 23.6511 30.296 23.2418 30.296C23.1499 30.296 23.0886 30.2448 23.0886 30.1231C23.0886 29.9301 23.3038 29.4528 23.3852 29.2598L24.6432 26.4256C24.7351 26.2126 24.1315 26.0804 23.365 26.0804C22.5985 26.0804 21.7693 26.4664 21.1761 26.9638C20.757 27.309 20.45 27.4819 20.2961 27.4819C20.2461 27.4923 20.1968 27.4611 20.1855 27.4114C20.1841 27.4047 20.1833 27.398 20.1833 27.3906C20.1833 27.2177 20.6024 26.7299 20.6024 26.3543C20.6024 26.1814 20.5105 26.07 20.2752 26.07C19.8255 26.07 19.2936 26.4969 18.9051 26.9437L19.2323 26.1613H18.1281L17.1771 28.2948C16.7267 29.3006 15.9804 30.3465 15.571 30.3465C15.4791 30.3465 15.4178 30.296 15.4178 30.1736C15.4178 29.9806 15.6225 29.5136 15.7346 29.2694L16.9926 26.4256C17.0845 26.2126 16.4809 26.0804 15.7137 26.0804C14.5781 26.0804 13.474 26.842 12.8905 27.6244C12.2466 28.467 11.8066 29.3615 11.7961 30.0927C11.7864 30.6821 12.0927 31.0473 12.706 31.0473C13.3911 31.0473 13.9439 30.5091 14.2606 30.1023C14.242 30.1825 14.2278 30.2641 14.2195 30.3465C14.2195 30.7526 14.3832 31.0473 14.8844 31.0473C15.3244 31.0473 15.9071 30.6813 16.3778 30.1023L15.999 30.9656H17.1958L18.3724 28.3141C18.7617 27.4507 19.2017 27.0039 19.3242 27.0039C19.3526 26.9987 19.3795 27.0165 19.3847 27.0447C19.3847 27.0477 19.3854 27.0514 19.3854 27.0543C19.3854 27.1456 19.2017 27.3899 19.2017 27.6133C19.2017 27.8367 19.3242 28.0097 19.6521 28.0097C19.9076 28.0097 20.1938 27.888 20.45 27.7254C19.8464 28.5382 19.437 29.3912 19.437 30.0927C19.4265 30.6821 19.7336 31.0473 20.3477 31.0473C20.9916 31.0473 21.5952 30.4378 21.9225 30.0318C21.9105 30.1261 21.903 30.2211 21.9023 30.3161C21.9023 30.7125 22.1271 31.0473 22.5873 31.0473C23.0983 31.0473 23.5077 30.7325 24.0194 30.1127L23.6407 30.9656H24.8681L25.9932 28.4365C26.484 27.3394 27.1489 26.75 27.4761 26.75C27.5575 26.7418 27.6315 26.8005 27.6397 26.8821V26.9126C27.6262 27.0358 27.5919 27.156 27.5373 27.2681L25.9229 30.976H27.181L28.3262 28.3957C28.817 27.2889 29.3594 26.75 29.768 26.75C29.8906 26.75 29.9421 26.8116 29.9421 26.943C29.9309 27.0848 29.8928 27.2228 29.8293 27.3498L28.7244 29.6859C28.6228 29.9108 28.5608 30.1513 28.5406 30.397C28.5406 30.7526 28.7349 31.0681 29.2877 31.0681C30.0041 31.0681 30.5457 30.5299 31.1591 29.7274V29.8997C31.2106 30.5395 31.5684 31.0985 32.5195 31.0985C33.6445 31.0985 34.5552 30.3265 35.1065 29.0979C35.3149 28.6659 35.4502 28.202 35.5062 27.7261C35.6294 27.7885 35.7669 27.8167 35.9051 27.8078C36.0911 27.81 36.2742 27.764 36.437 27.6757L36.2428 28.0921C36.0172 28.5598 35.7714 29.0779 35.5779 29.5144C35.4554 29.7727 35.3822 30.0518 35.3628 30.3369C35.3628 30.7734 35.6078 31.0888 36.1091 31.0888C36.6103 31.0888 37.2954 30.6212 37.7862 29.9613H37.7967C37.7638 30.0978 37.7466 30.2374 37.7451 30.3777C37.7451 30.7437 37.8579 31.0888 38.3697 31.0888C38.9636 31.0888 39.423 30.662 39.8735 30.1238L39.4947 30.9775H40.7326L41.7247 28.7431C42.2872 27.4834 42.8498 26.7218 43.3705 26.7218C43.4601 26.7188 43.5363 26.7856 43.5453 26.874V26.9037C43.5453 27.1174 43.2382 27.6964 42.9626 28.2747C42.7063 28.8032 42.5121 29.2093 42.3799 29.524C42.2566 29.7898 42.1841 30.0748 42.1647 30.3666C42.1647 30.7526 42.3799 31.0473 42.8602 31.0473C43.5759 31.0473 44.302 30.3569 44.6898 29.8388C44.6023 30.0875 44.5538 30.3473 44.5471 30.6108C44.5471 31.3219 44.9759 31.6775 45.5795 31.6775C45.9807 31.6745 46.3706 31.5469 46.6949 31.3123C47.1648 30.9871 47.5443 30.4994 47.861 30.0526L47.6459 29.8492C47.3493 30.2656 47.0213 30.662 46.6836 30.9055C46.5058 31.0547 46.2825 31.1408 46.0494 31.149C45.7939 31.149 45.6303 31.0168 45.6303 30.6917C45.6303 30.3666 45.7834 29.9301 46.0188 29.3407C46.0285 29.331 46.3661 28.5791 46.6836 27.8583C46.9496 27.2481 47.2155 26.6594 47.2663 26.5377H48.0739L48.2375 26.1717H47.4397L48.1964 24.4547H48.1979ZM13.3119 30.3161C13.1378 30.3161 13.0153 30.2552 13.0153 30.0318C13.0258 29.4327 13.5263 28.366 14.1508 27.5124C14.5901 26.923 15.1631 26.4865 15.7772 26.4865L14.9995 28.2131C14.4168 29.5136 13.7825 30.3161 13.3119 30.3161ZM20.9617 30.3161C20.7877 30.3161 20.6652 30.2552 20.6554 30.0318C20.6659 29.4327 21.1664 28.366 21.791 27.5124C22.2302 26.923 22.8032 26.4865 23.4173 26.4865L22.6396 28.2131C22.0465 29.5441 21.4436 30.3161 20.9625 30.3161H20.9617ZM34.5432 26.9541C34.5126 27.614 33.9299 29.2086 33.2448 30.1639C32.9692 30.5499 32.7331 30.6613 32.5292 30.6613C32.2423 30.6613 32.1601 30.4274 32.2012 30.0823C32.2625 29.4832 32.7637 28.081 33.4592 27.116C33.776 26.6795 33.9912 26.4961 34.2369 26.4961C34.4827 26.4961 34.5537 26.6995 34.5432 26.9534V26.9541Z" fill="#7F7F7F"/>
<path d="M14.9786 23.6931C14.9786 21.4996 12.6365 20.4425 9.8545 20.4425C6.87822 20.4425 4.14773 21.7527 3.14518 23.7844C2.86877 24.3256 2.72459 24.9246 2.72533 25.5311C2.71263 26.0559 2.85906 26.5726 3.14518 27.0143C3.57474 27.6445 4.34122 28.0401 5.46628 28.0401C6.84685 28.0401 7.94128 27.2882 7.94128 25.978C7.94128 25.978 7.96145 25.6128 7.5319 25.6128C7.18451 25.6128 7.09188 25.8562 7.10234 25.978C7.15389 27.0039 6.5398 27.8271 5.44537 27.8271C4.2187 27.8271 3.70697 26.7908 3.70697 25.684C3.70697 23.4185 5.4252 21.9153 7.21514 21.2657C8.05185 20.9517 8.9401 20.7966 9.83358 20.8085C11.8588 20.8085 13.5158 21.5805 13.5158 23.653C13.5158 25.3797 12.0531 26.8524 10.3042 26.9846L10.3759 26.7507C10.7338 25.4806 11.1738 24.0895 11.8895 23.0636C11.9306 23.002 12.0023 22.9011 12.0837 22.7994L11.9814 22.6776C11.8282 22.7697 11.681 22.8714 11.5413 22.982C8.18706 25.5823 8.08546 32.8956 3.61508 32.8956C3.46118 32.8956 3.30729 32.8853 3.15489 32.8652C2.22406 32.713 1.73324 32.0932 1.73324 31.2299C1.73324 31.0569 1.7945 30.8231 1.7945 30.6917C1.80122 30.446 1.60699 30.2419 1.36046 30.2344C1.35822 30.2344 1.35673 30.2344 1.35448 30.2344H1.30368C0.904756 30.2344 0.74115 30.5492 0.730691 30.9961C0.700062 32.2862 1.66152 33.0374 3.14443 33.18C3.30804 33.1904 3.47164 33.2 3.64571 33.2C7.13297 33.2 9.2703 30.5796 10.181 27.4003C10.6419 27.3468 11.0976 27.2518 11.5413 27.116C13.158 26.6683 14.9778 25.592 14.9778 23.6924L14.9786 23.6931ZM48.1979 24.4547H46.9705L46.6949 25.0946L46.2137 26.171H45.6415L45.4667 26.5369H46.0606L45.3442 28.1114C44.8339 29.2182 44.0353 30.3057 43.5751 30.3057C43.4728 30.3057 43.4115 30.2649 43.4115 30.1639C43.4115 30.063 43.4422 29.9709 43.555 29.6866C43.6984 29.3511 43.9337 28.8641 44.1078 28.5085C44.3633 27.9904 44.7727 27.188 44.7727 26.7923C44.7727 26.3966 44.5172 26.0812 44.0159 26.0812C43.4534 26.0812 42.9424 26.4167 42.471 26.9037L42.778 26.1725H41.6231L40.6818 28.3059C40.3038 29.0579 39.5366 30.3072 39.0555 30.3072C38.9531 30.3072 38.912 30.2463 38.912 30.1446C38.9217 30.0533 38.9464 29.9642 38.9837 29.8804C39.0248 29.789 39.5874 28.4789 39.5874 28.4789L40.6101 26.1524H39.3625L38.3704 28.4172C38.0641 29.118 37.2864 30.3064 36.7851 30.3064C36.6977 30.3146 36.62 30.2515 36.6111 30.1647V30.1238C36.6111 30.0021 36.703 29.7787 36.7747 29.6161L37.2961 28.4789L38.3697 26.1524H37.1325L36.886 26.681C36.7022 27.0365 36.3952 27.453 35.9044 27.453C35.669 27.453 35.557 27.3617 35.5054 27.2704C35.4337 26.488 34.9324 26.0715 34.1958 26.0715C33.1731 26.0715 32.447 26.6706 31.9659 27.4025C31.6506 27.9065 31.4033 28.4492 31.23 29.017C30.79 29.7386 30.3298 30.2975 29.9615 30.2975C29.8696 30.2975 29.8076 30.2463 29.8076 30.1246C29.8076 30.0028 29.9302 29.7282 29.9712 29.6265L30.7796 27.9199C31.0044 27.3921 31.1583 27.0462 31.1583 26.701C31.1583 26.335 30.9028 26.0708 30.483 26.0708C29.9003 26.0708 29.266 26.4063 28.7647 26.9541C28.7819 26.8673 28.7886 26.7782 28.7849 26.6899C28.7849 26.2838 28.5802 26.07 28.1611 26.07C27.6292 26.07 27.0771 26.3855 26.5759 26.9541L26.9031 26.1613H25.778L24.827 28.2948C24.3773 29.3006 23.6511 30.296 23.2418 30.296C23.1499 30.296 23.0886 30.2448 23.0886 30.1231C23.0886 29.9301 23.3038 29.4528 23.3852 29.2598L24.6432 26.4256C24.7351 26.2126 24.1315 26.0804 23.365 26.0804C22.5985 26.0804 21.7693 26.4664 21.1761 26.9638C20.757 27.309 20.45 27.4819 20.2961 27.4819C20.2461 27.4923 20.1968 27.4611 20.1855 27.4114C20.1841 27.4047 20.1833 27.398 20.1833 27.3906C20.1833 27.2177 20.6024 26.7299 20.6024 26.3543C20.6024 26.1814 20.5105 26.07 20.2752 26.07C19.8255 26.07 19.2936 26.4969 18.9051 26.9437L19.2323 26.1613H18.1281L17.1771 28.2948C16.7267 29.3006 15.9804 30.3465 15.571 30.3465C15.4791 30.3465 15.4178 30.296 15.4178 30.1736C15.4178 29.9806 15.6225 29.5136 15.7346 29.2694L16.9926 26.4256C17.0845 26.2126 16.4809 26.0804 15.7137 26.0804C14.5781 26.0804 13.474 26.842 12.8905 27.6244C12.2466 28.467 11.8066 29.3615 11.7961 30.0927C11.7864 30.6821 12.0927 31.0473 12.706 31.0473C13.3911 31.0473 13.9439 30.5091 14.2606 30.1023C14.242 30.1825 14.2278 30.2641 14.2195 30.3465C14.2195 30.7526 14.3832 31.0473 14.8844 31.0473C15.3244 31.0473 15.9071 30.6813 16.3778 30.1023L15.999 30.9656H17.1958L18.3724 28.3141C18.7617 27.4507 19.2017 27.0039 19.3242 27.0039C19.3526 26.9987 19.3795 27.0165 19.3847 27.0447C19.3847 27.0477 19.3854 27.0514 19.3854 27.0543C19.3854 27.1456 19.2017 27.3899 19.2017 27.6133C19.2017 27.8367 19.3242 28.0097 19.6521 28.0097C19.9076 28.0097 20.1938 27.888 20.45 27.7254C19.8464 28.5382 19.437 29.3912 19.437 30.0927C19.4265 30.6821 19.7336 31.0473 20.3477 31.0473C20.9916 31.0473 21.5952 30.4378 21.9225 30.0318C21.9105 30.1261 21.903 30.2211 21.9023 30.3161C21.9023 30.7125 22.1271 31.0473 22.5873 31.0473C23.0983 31.0473 23.5077 30.7325 24.0194 30.1127L23.6407 30.9656H24.8681L25.9932 28.4365C26.484 27.3394 27.1489 26.75 27.4761 26.75C27.5575 26.7418 27.6315 26.8005 27.6397 26.8821V26.9126C27.6262 27.0358 27.5919 27.156 27.5373 27.2681L25.9229 30.976H27.181L28.3262 28.3957C28.817 27.2889 29.3594 26.75 29.768 26.75C29.8906 26.75 29.9421 26.8116 29.9421 26.943C29.9309 27.0848 29.8928 27.2228 29.8293 27.3498L28.7244 29.6859C28.6228 29.9108 28.5608 30.1513 28.5406 30.397C28.5406 30.7526 28.7349 31.0681 29.2877 31.0681C30.0041 31.0681 30.5457 30.5299 31.1591 29.7274V29.8997C31.2106 30.5395 31.5684 31.0985 32.5195 31.0985C33.6445 31.0985 34.5552 30.3265 35.1065 29.0979C35.3149 28.6659 35.4502 28.202 35.5062 27.7261C35.6294 27.7885 35.7669 27.8167 35.9051 27.8078C36.0911 27.81 36.2742 27.764 36.437 27.6757L36.2428 28.0921C36.0172 28.5598 35.7714 29.0779 35.5779 29.5144C35.4554 29.7727 35.3822 30.0518 35.3628 30.3369C35.3628 30.7734 35.6078 31.0888 36.1091 31.0888C36.6103 31.0888 37.2954 30.6212 37.7862 29.9613H37.7967C37.7638 30.0978 37.7466 30.2374 37.7451 30.3777C37.7451 30.7437 37.8579 31.0888 38.3697 31.0888C38.9636 31.0888 39.423 30.662 39.8735 30.1238L39.4947 30.9775H40.7326L41.7247 28.7431C42.2872 27.4834 42.8498 26.7218 43.3705 26.7218C43.4601 26.7188 43.5363 26.7856 43.5453 26.874V26.9037C43.5453 27.1174 43.2382 27.6964 42.9626 28.2747C42.7063 28.8032 42.5121 29.2093 42.3799 29.524C42.2566 29.7898 42.1841 30.0748 42.1647 30.3666C42.1647 30.7526 42.3799 31.0473 42.8602 31.0473C43.5759 31.0473 44.302 30.3569 44.6898 29.8388C44.6023 30.0875 44.5538 30.3473 44.5471 30.6108C44.5471 31.3219 44.9759 31.6775 45.5795 31.6775C45.9807 31.6745 46.3706 31.5469 46.6949 31.3123C47.1648 30.9871 47.5443 30.4994 47.861 30.0526L47.6459 29.8492C47.3493 30.2656 47.0213 30.662 46.6836 30.9055C46.5058 31.0547 46.2825 31.1408 46.0494 31.149C45.7939 31.149 45.6303 31.0168 45.6303 30.6917C45.6303 30.3666 45.7834 29.9301 46.0188 29.3407C46.0285 29.331 46.3661 28.5791 46.6836 27.8583C46.9496 27.2481 47.2155 26.6594 47.2663 26.5377H48.0739L48.2375 26.1717H47.4397L48.1964 24.4547H48.1979ZM13.3119 30.3161C13.1378 30.3161 13.0153 30.2552 13.0153 30.0318C13.0258 29.4327 13.5263 28.366 14.1508 27.5124C14.5901 26.923 15.1631 26.4865 15.7772 26.4865L14.9995 28.2131C14.4168 29.5136 13.7825 30.3161 13.3119 30.3161ZM20.9617 30.3161C20.7877 30.3161 20.6652 30.2552 20.6554 30.0318C20.6659 29.4327 21.1664 28.366 21.791 27.5124C22.2302 26.923 22.8032 26.4865 23.4173 26.4865L22.6396 28.2131C22.0465 29.5441 21.4436 30.3161 20.9625 30.3161H20.9617ZM34.5432 26.9541C34.5126 27.614 33.9299 29.2086 33.2448 30.1639C32.9692 30.5499 32.7331 30.6613 32.5292 30.6613C32.2423 30.6613 32.1601 30.4274 32.2012 30.0823C32.2625 29.4832 32.7637 28.081 33.4592 27.116C33.776 26.6795 33.9912 26.4961 34.2369 26.4961C34.4827 26.4961 34.5537 26.6995 34.5432 26.9534V26.9541Z" fill="black" fill-opacity="0.2"/>
<path d="M24.4803 17.0101C24.3548 16.9582 24.1494 16.7295 24.4915 16.0911L25.2857 14.4417C25.3096 14.392 25.252 14.3296 25.2154 14.3719L24.5207 15.066C24.192 15.4067 23.6347 16.365 23.5263 16.5425L22.6829 17.9284C22.7457 17.9261 22.7979 17.9751 22.8002 18.0375C22.8002 18.0583 22.7957 18.0783 22.786 18.0961L22.015 19.3833C21.8268 19.7025 22.1652 19.9259 22.2108 19.8525C23.4232 17.912 24.1277 18.0672 24.1277 18.0672L24.5326 17.1363C24.5543 17.0895 24.5326 17.0346 24.4863 17.0138C24.4848 17.0131 24.4826 17.0123 24.4803 17.0116V17.0101Z" fill="#7F7F7F"/>
<path d="M24.4803 17.0101C24.3548 16.9582 24.1494 16.7295 24.4915 16.0911L25.2857 14.4417C25.3096 14.392 25.252 14.3296 25.2154 14.3719L24.5207 15.066C24.192 15.4067 23.6347 16.365 23.5263 16.5425L22.6829 17.9284C22.7457 17.9261 22.7979 17.9751 22.8002 18.0375C22.8002 18.0583 22.7957 18.0783 22.786 18.0961L22.015 19.3833C21.8268 19.7025 22.1652 19.9259 22.2108 19.8525C23.4232 17.912 24.1277 18.0672 24.1277 18.0672L24.5326 17.1363C24.5543 17.0895 24.5326 17.0346 24.4863 17.0138C24.4848 17.0131 24.4826 17.0123 24.4803 17.0116V17.0101Z" fill="black" fill-opacity="0.2"/>
<path d="M27.2361 0.800049C20.3056 0.800049 14.687 6.38006 14.687 13.2628C14.6833 15.9278 15.5439 18.5222 17.1404 20.663C17.667 20.4374 17.9591 20.0996 18.1683 19.8413L20.5051 16.8735C20.5544 16.8111 20.6187 16.7614 20.6919 16.7302L21.0437 16.5795L24.8858 11.7396L25.4431 11.3061L26.5876 9.72347C26.6175 9.68264 26.6534 9.64627 26.6945 9.61657L27.1942 9.25581C27.3175 9.16673 27.4841 9.16524 27.6089 9.25209L28.2147 9.67447C28.536 9.89865 28.7967 10.1986 28.9737 10.5467L31.4017 14.7816C31.4413 14.8625 31.5085 14.9264 31.5914 14.9628C32.0673 15.1981 32.3586 15.2396 32.9817 15.9122C33.2723 16.2254 34.5468 17.641 36.3322 19.8398C36.5915 20.1924 36.9388 20.4722 37.34 20.6511C38.932 18.5118 39.7896 15.9211 39.7851 13.2606C39.7844 6.38006 34.1665 0.800049 27.2361 0.800049ZM18.0712 13.9502L17.2576 13.6875L16.7549 14.3748V13.5256L15.9413 13.2628L16.7549 13.0001V12.1509L17.2576 12.8382L18.0712 12.5755L17.5684 13.2628L18.0712 13.9495V13.9502ZM17.8784 16.7295L17.614 17.5371L17.3495 16.7295H16.4942L17.1859 16.2299L16.9215 15.4222L17.6132 15.9218L18.305 15.4222L18.0406 16.2299L18.7323 16.7295H17.877H17.8784ZM18.0421 10.2965L18.3065 11.1042L17.6147 10.6046L16.923 11.1042L17.1874 10.2965L16.4956 9.79696H17.351L17.6155 8.98931L17.8799 9.79696H18.7353L18.0435 10.2965H18.0421ZM19.4159 7.61973V8.46895L18.9139 7.7823L18.1003 8.04508L18.6031 7.3577L18.1003 6.67031L18.9139 6.93309L19.4166 6.2457V7.09491L20.2302 7.35695L19.4166 7.61973H19.4159ZM21.554 5.4967L21.2895 6.3036L21.025 5.49596H20.1697L20.8614 4.99638L20.597 4.18874L21.2888 4.68757L21.9805 4.18799L21.7161 4.99638L22.4079 5.49596H21.5525L21.554 5.4967ZM24.2486 4.13232L23.7458 4.81971V3.97049L22.9323 3.70771L23.7458 3.44493V2.59572L24.2486 3.28311L25.0621 3.02033L24.5594 3.70771L25.0621 4.3951L24.2486 4.13232ZM27.6634 3.35363L27.9279 4.16127L27.2361 3.66169L26.5443 4.16127L26.808 3.35363L26.1162 2.85405H26.9716L27.2361 2.0464L27.5005 2.85405H28.3559L27.6641 3.35288L27.6634 3.35363ZM30.7256 3.97049V4.81971L30.2228 4.13232L29.4093 4.3951L29.912 3.70771L29.4093 3.02033L30.2228 3.28311L30.7256 2.59572V3.44493L31.5391 3.70771L30.7256 3.97049ZM36.4002 12.5769L37.2138 12.8397L37.7165 12.1523V13.0015L38.5301 13.2643L37.7165 13.5271V14.3763L37.2138 13.6889L36.4002 13.9517L36.9037 13.2643L36.4002 12.5769ZM36.8574 8.99006L37.1219 9.7977H37.9773L37.2855 10.2973L37.5499 11.1049L36.8574 10.6053L36.1656 11.1049L36.4301 10.2973L35.7376 9.7977H36.5922L36.8567 8.99006H36.8574ZM33.1826 6.30435L32.9182 5.4967H32.0628L32.7546 4.99712L32.4909 4.18948L33.1826 4.68906L33.8744 4.19022L33.6107 4.99786L34.3025 5.49744H33.4471L33.1826 6.30509V6.30435ZM35.057 8.46969V7.62048L34.2435 7.3577L35.057 7.09566V6.2457L35.5598 6.93309L36.3733 6.67031L35.8706 7.3577L36.3733 8.04508L35.5598 7.7823L35.057 8.46969ZM37.1219 16.7295L36.8574 17.5371L36.593 16.7295H35.7376L36.4301 16.2299L36.1656 15.4222L36.8574 15.9218L37.5499 15.4222L37.2855 16.2299L37.9773 16.7295H37.1226H37.1219Z" fill="#7F7F7F"/>
<path d="M27.2361 0.800049C20.3056 0.800049 14.687 6.38006 14.687 13.2628C14.6833 15.9278 15.5439 18.5222 17.1404 20.663C17.667 20.4374 17.9591 20.0996 18.1683 19.8413L20.5051 16.8735C20.5544 16.8111 20.6187 16.7614 20.6919 16.7302L21.0437 16.5795L24.8858 11.7396L25.4431 11.3061L26.5876 9.72347C26.6175 9.68264 26.6534 9.64627 26.6945 9.61657L27.1942 9.25581C27.3175 9.16673 27.4841 9.16524 27.6089 9.25209L28.2147 9.67447C28.536 9.89865 28.7967 10.1986 28.9737 10.5467L31.4017 14.7816C31.4413 14.8625 31.5085 14.9264 31.5914 14.9628C32.0673 15.1981 32.3586 15.2396 32.9817 15.9122C33.2723 16.2254 34.5468 17.641 36.3322 19.8398C36.5915 20.1924 36.9388 20.4722 37.34 20.6511C38.932 18.5118 39.7896 15.9211 39.7851 13.2606C39.7844 6.38006 34.1665 0.800049 27.2361 0.800049ZM18.0712 13.9502L17.2576 13.6875L16.7549 14.3748V13.5256L15.9413 13.2628L16.7549 13.0001V12.1509L17.2576 12.8382L18.0712 12.5755L17.5684 13.2628L18.0712 13.9495V13.9502ZM17.8784 16.7295L17.614 17.5371L17.3495 16.7295H16.4942L17.1859 16.2299L16.9215 15.4222L17.6132 15.9218L18.305 15.4222L18.0406 16.2299L18.7323 16.7295H17.877H17.8784ZM18.0421 10.2965L18.3065 11.1042L17.6147 10.6046L16.923 11.1042L17.1874 10.2965L16.4956 9.79696H17.351L17.6155 8.98931L17.8799 9.79696H18.7353L18.0435 10.2965H18.0421ZM19.4159 7.61973V8.46895L18.9139 7.7823L18.1003 8.04508L18.6031 7.3577L18.1003 6.67031L18.9139 6.93309L19.4166 6.2457V7.09491L20.2302 7.35695L19.4166 7.61973H19.4159ZM21.554 5.4967L21.2895 6.3036L21.025 5.49596H20.1697L20.8614 4.99638L20.597 4.18874L21.2888 4.68757L21.9805 4.18799L21.7161 4.99638L22.4079 5.49596H21.5525L21.554 5.4967ZM24.2486 4.13232L23.7458 4.81971V3.97049L22.9323 3.70771L23.7458 3.44493V2.59572L24.2486 3.28311L25.0621 3.02033L24.5594 3.70771L25.0621 4.3951L24.2486 4.13232ZM27.6634 3.35363L27.9279 4.16127L27.2361 3.66169L26.5443 4.16127L26.808 3.35363L26.1162 2.85405H26.9716L27.2361 2.0464L27.5005 2.85405H28.3559L27.6641 3.35288L27.6634 3.35363ZM30.7256 3.97049V4.81971L30.2228 4.13232L29.4093 4.3951L29.912 3.70771L29.4093 3.02033L30.2228 3.28311L30.7256 2.59572V3.44493L31.5391 3.70771L30.7256 3.97049ZM36.4002 12.5769L37.2138 12.8397L37.7165 12.1523V13.0015L38.5301 13.2643L37.7165 13.5271V14.3763L37.2138 13.6889L36.4002 13.9517L36.9037 13.2643L36.4002 12.5769ZM36.8574 8.99006L37.1219 9.7977H37.9773L37.2855 10.2973L37.5499 11.1049L36.8574 10.6053L36.1656 11.1049L36.4301 10.2973L35.7376 9.7977H36.5922L36.8567 8.99006H36.8574ZM33.1826 6.30435L32.9182 5.4967H32.0628L32.7546 4.99712L32.4909 4.18948L33.1826 4.68906L33.8744 4.19022L33.6107 4.99786L34.3025 5.49744H33.4471L33.1826 6.30509V6.30435ZM35.057 8.46969V7.62048L34.2435 7.3577L35.057 7.09566V6.2457L35.5598 6.93309L36.3733 6.67031L35.8706 7.3577L36.3733 8.04508L35.5598 7.7823L35.057 8.46969ZM37.1219 16.7295L36.8574 17.5371L36.593 16.7295H35.7376L36.4301 16.2299L36.1656 15.4222L36.8574 15.9218L37.5499 15.4222L37.2855 16.2299L37.9773 16.7295H37.1226H37.1219Z" fill="black" fill-opacity="0.2"/>
<path d="M31.7813 20.4656C31.8418 20.3787 31.9397 20.1397 31.7559 19.6973L31.2009 18.2141C31.1254 18.0248 31.2905 17.9098 31.4011 18.0345C31.4011 18.0345 32.4507 19.2363 32.7219 19.7381L33.2396 20.5918C33.6848 20.62 34.9137 20.6534 36.0963 20.6534C35.9775 20.5361 35.867 20.4099 35.7669 20.2755C33.7483 17.7903 32.4686 16.4081 32.4559 16.394C32.0465 15.9523 31.8575 15.8677 31.546 15.7266C31.5012 15.7066 31.4519 15.6843 31.4011 15.6606V16.0376C31.4041 16.0629 31.3861 16.0866 31.36 16.0896C31.3391 16.0918 31.3196 16.0807 31.3114 16.0614L28.3441 10.8845L28.3359 10.8681C28.2119 10.6239 28.0296 10.4146 27.8047 10.2572L27.5156 10.0553L26.1 13.2992C26.2688 13.2992 26.4063 13.4351 26.4063 13.6036C26.4063 13.6452 26.398 13.6867 26.3809 13.7246L25.0728 16.7295H26.2733C26.7372 16.7295 27.1966 16.8193 27.6262 16.9938L27.9429 17.1229C27.9429 17.1229 26.9882 19.0737 26.9882 20.1011C26.9897 20.2882 27.0159 20.4737 27.0659 20.6541H29.2667L29.1651 20.038C30.0287 20.2295 30.902 20.3728 31.7813 20.4663V20.4656Z" fill="#7F7F7F"/>
<path d="M31.7813 20.4656C31.8418 20.3787 31.9397 20.1397 31.7559 19.6973L31.2009 18.2141C31.1254 18.0248 31.2905 17.9098 31.4011 18.0345C31.4011 18.0345 32.4507 19.2363 32.7219 19.7381L33.2396 20.5918C33.6848 20.62 34.9137 20.6534 36.0963 20.6534C35.9775 20.5361 35.867 20.4099 35.7669 20.2755C33.7483 17.7903 32.4686 16.4081 32.4559 16.394C32.0465 15.9523 31.8575 15.8677 31.546 15.7266C31.5012 15.7066 31.4519 15.6843 31.4011 15.6606V16.0376C31.4041 16.0629 31.3861 16.0866 31.36 16.0896C31.3391 16.0918 31.3196 16.0807 31.3114 16.0614L28.3441 10.8845L28.3359 10.8681C28.2119 10.6239 28.0296 10.4146 27.8047 10.2572L27.5156 10.0553L26.1 13.2992C26.2688 13.2992 26.4063 13.4351 26.4063 13.6036C26.4063 13.6452 26.398 13.6867 26.3809 13.7246L25.0728 16.7295H26.2733C26.7372 16.7295 27.1966 16.8193 27.6262 16.9938L27.9429 17.1229C27.9429 17.1229 26.9882 19.0737 26.9882 20.1011C26.9897 20.2882 27.0159 20.4737 27.0659 20.6541H29.2667L29.1651 20.038C30.0287 20.2295 30.902 20.3728 31.7813 20.4663V20.4656Z" fill="black" fill-opacity="0.2"/>
</g>
<defs>
<clipPath id="clip0_1188_782">
<rect width="47.5076" height="32.4" fill="white" transform="translate(0.731445 0.800049)"/>
</clipPath>
</defs>
</svg>
