<svg width="341" height="59" viewBox="0 0 341 59" fill="none" xmlns="http://www.w3.org/2000/svg">
<g clip-path="url(#clip0_48_3138)">
<path fill-rule="evenodd" clip-rule="evenodd" d="M305.137 4.53357C306.469 5.88606 306.469 8.08198 305.137 9.43447L285.707 29.179L305.139 48.9134C305.781 49.5662 306.141 50.4489 306.141 51.3689C306.141 52.289 305.781 53.1717 305.139 53.8245L300.773 58.2614L274.454 31.5335C273.84 30.908 273.495 30.0625 273.495 29.1812C273.495 28.2999 273.84 27.4544 274.454 26.8289L300.764 0.0937187L305.137 4.53357ZM340.095 26.954C340.675 27.5435 341 28.3408 341 29.1717C341 30.0027 340.675 30.7999 340.095 31.3895L313.654 58.26L309.088 53.6223C308.499 53.023 308.169 52.2127 308.169 51.3682C308.169 50.5237 308.499 49.7134 309.088 49.1141L328.712 29.1732L309.254 9.41265C308.62 8.76674 308.264 7.89348 308.264 6.9833C308.264 6.07312 308.62 5.19987 309.254 4.55396L313.646 0.0908203L340.095 26.954ZM263.985 45.7576V46.0501H263.166V48.2213H262.835V46.0501H262.017V45.7563H263.985V45.7576ZM264.279 45.7576H264.749L265.447 47.8401L266.14 45.7562H266.608V48.2212H266.294V46.7669C266.294 46.7161 266.294 46.6331 266.297 46.5168C266.299 46.4005 266.301 46.2755 266.301 46.1416L265.608 48.2212H265.281L264.582 46.1416V46.2172C264.582 46.2784 264.583 46.3699 264.588 46.4933L264.592 46.7665V48.2208H264.279V45.7558V45.7576ZM246.991 42.7924C252.531 42.7924 256.329 38.3031 256.329 32.358C256.329 26.477 252.531 21.9877 246.991 21.9877C241.514 21.9877 237.717 26.6035 237.717 32.4846C237.717 38.3016 241.514 42.7924 246.991 42.7924ZM248.548 48.7374C243.754 48.7374 239.708 46.3335 237.591 41.7177V48.2328H231.367V5.16621L237.591 3.90097V23.0624C239.708 18.4451 243.754 16.0426 248.548 16.0426C256.577 16.0426 262.989 22.3032 262.989 32.422C262.989 42.4768 256.578 48.7374 248.548 48.7374H248.548ZM199.084 35.1401V16.5487H205.309V35.6461C205.309 39.8199 207.923 42.6659 212.281 42.6659C216.638 42.6659 219.254 39.8213 219.254 35.6461V16.5487H225.478V35.1401C225.478 43.8046 220.186 48.6734 212.281 48.6734C204.375 48.6734 199.084 43.8046 199.084 35.1401ZM194.721 48.6734C188.309 48.9265 184.761 45.5119 184.761 37.861V5.16621L190.985 3.90097V37.861C190.985 40.896 192.604 42.2863 194.844 42.2863H196.463V48.4844C195.891 48.6096 195.307 48.673 194.722 48.6733L194.721 48.6734ZM153.94 32.358C153.94 22.3032 160.789 16.0426 170.312 16.0426C174.794 16.0426 178.778 17.4969 181.829 20.5959L178.03 25.3383C175.666 22.9359 172.865 21.9877 170.374 21.9877C164.648 21.9877 160.6 25.4648 160.6 32.2955C160.6 39.1262 164.648 42.7299 170.374 42.7299C172.863 42.7299 175.666 41.7177 178.094 39.1887L181.891 43.8686C178.84 46.9661 174.918 48.6734 170.312 48.6734C160.849 48.6734 153.94 42.4128 153.94 32.358ZM116.967 45.3228L119.768 39.5683C121.823 41.0851 125.495 42.7924 128.296 42.7924C131.782 42.7924 133.152 41.0851 133.152 39.2512C133.214 37.1019 131.472 36.2787 127.798 35.0775C121.636 33.1812 118.15 30.9678 118.15 25.1493C118.15 19.8368 122.135 16.0426 129.355 16.0426C133.09 16.0426 136.513 17.2439 139.253 19.2042L136.451 24.4541C134.833 23.442 132.093 21.9237 129.043 21.9237C126.367 21.9237 124.748 22.9998 124.748 25.0853C124.748 26.7926 125.931 27.9312 129.853 29.1325C136.515 31.1568 139.812 33.6858 139.812 38.9982C139.812 45.0058 135.02 48.6734 128.36 48.6734C123.813 48.6734 119.458 47.1566 116.967 45.3228ZM112.479 7.44211H119.201L115.281 19.9008H110.114L112.479 7.44211ZM89.0669 48.1688H82.8412V28.9434C82.8412 24.9587 80.7866 21.9237 76.6169 21.9237C72.0717 21.9237 68.8976 25.9709 68.8976 31.1568V48.1688H62.6719V16.5487H68.8976V22.1767C70.7652 18.192 74.1882 15.9801 78.1722 15.9801C82.3448 15.9801 85.7677 18.1935 87.6339 21.9862C90.2496 17.8125 93.7344 15.9801 97.907 15.9801C104.442 15.9801 109.235 20.9755 109.235 29.006V48.1688H103.01V28.9434C103.01 24.9587 100.956 21.9237 96.7847 21.9237C92.241 21.9237 89.0669 25.9709 89.0669 31.1568V48.1688ZM41.2091 21.9877C35.6696 21.9877 31.8712 26.477 31.8712 32.422C31.8712 38.3031 35.6696 42.7924 41.2091 42.7924C46.6881 42.7924 50.4851 38.1766 50.4851 32.2955C50.4851 26.4785 46.6867 21.9877 41.2091 21.9877ZM50.6089 41.7177C48.4938 46.335 44.4464 48.7374 39.6537 48.7374C31.6237 48.7374 25.2109 42.4768 25.2109 32.358C25.2109 22.3032 31.6237 16.0426 39.6537 16.0426C44.4464 16.0426 48.4924 18.4451 50.6089 23.0624V16.5487H56.8346V48.1674H50.6089V41.7177ZM0.0014177 45.3228L2.80279 39.5683C4.85743 41.0851 8.52927 42.7924 11.3307 42.7924C14.8169 42.7924 16.1867 41.0851 16.1867 39.2512C16.2485 37.1019 14.5061 36.2787 10.8343 35.0775C4.66894 33.1812 1.18268 30.9678 1.18268 25.1493C1.18268 19.8368 5.1682 16.0426 12.3882 16.0426C16.1234 16.0426 19.5463 17.2439 22.2858 19.2042L19.4844 24.4541C17.8657 23.442 15.1263 21.9237 12.0759 21.9237C9.39978 21.9237 7.78108 22.9998 7.78108 25.0853C7.78108 26.7926 8.9638 27.9312 12.886 29.1325C19.5477 31.1568 22.8455 33.6858 22.8455 38.9982C22.8455 45.0058 18.0528 48.6734 11.3925 48.6734C6.8473 48.6734 2.49058 47.1566 0 45.3228H0.0014177Z" fill="#0067A0"/>
</g>
<defs>
<clipPath id="clip0_48_3138">
<rect width="341" height="58.1706" fill="white" transform="translate(0 0.0908203)"/>
</clipPath>
</defs>
</svg>
