<?xml version="1.0" encoding="UTF-8"?> <svg xmlns="http://www.w3.org/2000/svg" xmlns:xlink="http://www.w3.org/1999/xlink" xmlns:v="https://vecta.io/nano" width="194" height="100" fill="none"><style><![CDATA[.B{fill:#7f7f7f}.C{fill:#000}.D{fill-opacity:.2}]]></style><use xlink:href="#B" class="B"></use><use xlink:href="#B" class="C D"></use><use xlink:href="#C" class="B"></use><use xlink:href="#C" class="C D"></use><use xlink:href="#D" class="B"></use><use xlink:href="#D" class="C D"></use><use xlink:href="#E" class="B"></use><use xlink:href="#E" class="C D"></use><use xlink:href="#F" class="B"></use><use xlink:href="#F" class="C D"></use><use xlink:href="#G" class="B"></use><use xlink:href="#G" class="C D"></use><use xlink:href="#H" class="B"></use><use xlink:href="#H" class="C D"></use><use xlink:href="#I" class="B"></use><use xlink:href="#I" class="C D"></use><use xlink:href="#J" class="B"></use><use xlink:href="#J" class="C D"></use><use xlink:href="#K" class="B"></use><use xlink:href="#K" class="C D"></use><use xlink:href="#L" class="B"></use><use xlink:href="#L" class="C D"></use><use xlink:href="#M" class="B"></use><use xlink:href="#M" class="C D"></use><use xlink:href="#N" class="B"></use><use xlink:href="#N" class="C D"></use><use xlink:href="#O" class="B"></use><use xlink:href="#O" class="C D"></use><use xlink:href="#P" class="B"></use><use xlink:href="#P" class="C D"></use><use xlink:href="#Q" class="B"></use><use xlink:href="#Q" class="C D"></use><use xlink:href="#R" class="B"></use><use xlink:href="#R" class="C D"></use><use xlink:href="#S" class="B"></use><use xlink:href="#S" class="C D"></use><defs><path id="B" d="M184.591 43.05a.31.31 0 0 1-.307-.309v-2.078h-.593c-.146 0-.271-.122-.271-.27s.125-.272.271-.272h1.798c.143 0 .268.12.268.272s-.125.27-.268.27h-.596v2.078a.31.31 0 0 1-.302.309h0zm4.444 0a.31.31 0 0 1-.303-.309v-1.808l-.773 2.004c-.025.065-.09.113-.164.113s-.136-.046-.162-.113l-.773-2.004v1.808c0 .166-.131.309-.298.309s-.309-.143-.309-.309v-2.147a.5.5 0 0 1 .496-.505.5.5 0 0 1 .467.328l.579 1.512.586-1.512a.49.49 0 0 1 .462-.328.5.5 0 0 1 .499.505v2.147a.31.31 0 0 1-.307.309z"></path><path id="C" d="M26.502 39.206c0-1.039.323-2.001.87-2.8-1.646.485-2.856 1.99-2.856 3.793v3.177l1.985.099v-4.269z"></path><path id="D" d="M24.516 61.05c0 1.803 1.21 3.308 2.858 3.793a4.92 4.92 0 0 1-.873-2.8v-5.958h-1.985v4.966z"></path><path id="E" d="M29.481 56.085h-1.985v5.958c0 1.803 1.21 3.308 2.856 3.793-.547-.799-.87-1.761-.87-2.8v-6.951z"></path><path id="F" d="M29.481 38.213a4.94 4.94 0 0 1 .87-2.8c-1.646.485-2.856 1.99-2.856 3.793v4.319l1.985.099v-5.411z"></path><path id="G" d="M7.093 36.941c-1.452.866-2.436 2.438-2.436 4.25v18.865c0 1.815.983 3.384 2.436 4.25-.289-.697-.45-1.461-.45-2.265V39.206c0-.801.162-1.565.45-2.265z"></path><path id="H" d="M9.623 37.22c0-.801.162-1.565.45-2.265-1.452.866-2.435 2.435-2.435 4.25v22.839c0 2.133 1.353 3.936 3.243 4.638-.785-1.009-1.258-2.272-1.258-3.645V37.22z"></path><path id="I" d="M34.445 34.242a3.97 3.97 0 0 0-3.971 3.971v6.455l-9.929-.496V37.22c0-2.74-2.223-4.963-4.966-4.963s-4.963 2.223-4.963 4.963v25.817c0 2.743 2.221 4.963 4.963 4.963s4.966-2.221 4.966-4.963v-7.944h9.929v7.944a3.97 3.97 0 1 0 7.941 0V38.213a3.97 3.97 0 0 0-3.971-3.971"></path><path id="J" d="M68.728 58.423V51.07H58.002v7.353c0 .785-.64 1.452-1.424 1.452-.813 0-1.482-.667-1.482-1.452V41.651a1.48 1.48 0 0 1 1.454-1.452c.813 0 1.452.667 1.452 1.452v6.831h10.725v-6.831c0-.785.639-1.452 1.454-1.452s1.452.667 1.452 1.452v16.772c0 .785-.64 1.452-1.452 1.452s-1.454-.667-1.454-1.452z"></path><path id="K" d="M73.689 52.697c0-4.04 2.733-7.353 7.092-7.353 4.388 0 7.092 3.313 7.092 7.353 0 4.07-2.703 7.383-7.092 7.383-4.359 0-7.092-3.313-7.092-7.383zm11.453 0c0-2.646-1.542-5.028-4.361-5.028-2.791 0-4.359 2.382-4.359 5.028 0 2.673 1.567 5.058 4.359 5.058 2.819 0 4.361-2.385 4.361-5.058z"></path><path id="L" d="M103.077 45.343c4.216 0 6.831 3.285 6.831 6.976 0 .785-.554 1.249-1.542 1.249h-9.562c.203 2.382 1.948 4.361 4.767 4.361 1.191 0 2.443-.379 3.488-1.136.146-.115.349-.143.582-.143a1.04 1.04 0 0 1 1.046 1.046c0 .376-.175.667-.464.873-1.397 1.016-3.054 1.51-4.913 1.51-4.185 0-7.267-2.964-7.267-7.383 0-4.068 2.936-7.353 7.034-7.353h0zm-4.301 6.337h8.574c-.057-1.861-1.309-4.185-4.273-4.185-2.819 0-4.157 2.267-4.301 4.185z"></path><path id="M" d="M111.572 58.568V41.505c0-.725.582-1.307 1.309-1.307.697 0 1.307.582 1.307 1.307v17.063c0 .727-.61 1.309-1.307 1.309-.727 0-1.309-.582-1.309-1.309z"></path><path id="N" d="M115.871 57.58c0-.639.494-1.133 1.133-1.133.233 0 .464.088.64.203 1.075.785 2.47 1.337 3.952 1.337 1.976 0 3.022-.813 3.022-2.006 0-1.394-1.598-1.858-3.401-2.265-2.382-.554-5.171-1.194-5.171-4.215 0-2.237 1.916-4.155 5.347-4.155 1.948 0 3.488.579 4.679 1.452.261.203.464.494.464.873 0 .579-.494 1.074-1.073 1.074a1 1 0 0 1-.582-.203c-.9-.667-2.122-1.073-3.458-1.073-1.773 0-2.879.697-2.879 1.831 0 1.221 1.512 1.628 3.255 2.034 2.442.552 5.349 1.221 5.349 4.446 0 2.412-1.976 4.303-5.668 4.303-1.948 0-3.691-.494-5.115-1.57-.291-.203-.494-.552-.494-.93"></path><path id="O" d="M130.579 56.417c.988 0 1.831.815 1.831 1.803s-.843 1.831-1.831 1.831-1.803-.843-1.803-1.831.815-1.803 1.803-1.803z"></path><path id="P" d="M145.991 52.697c0-4.04 2.731-7.353 7.092-7.353 4.388 0 7.092 3.313 7.092 7.353 0 4.07-2.704 7.383-7.092 7.383-4.361 0-7.092-3.313-7.092-7.383zm11.452 0c0-2.646-1.542-5.028-4.36-5.028-2.791 0-4.361 2.382-4.361 5.028 0 2.673 1.57 5.058 4.361 5.058 2.818 0 4.36-2.385 4.36-5.058z"></path><path id="Q" d="M181.817 49.586v8.983c0 .725-.612 1.307-1.337 1.307-.697 0-1.279-.582-1.279-1.307v-8.198c0-1.627-.727-2.412-2.442-2.412-1.425 0-2.819 1.602-3.488 2.62v7.99a1.3 1.3 0 0 1-1.307 1.307c-.697 0-1.309-.582-1.309-1.307v-8.198c0-1.627-.697-2.412-2.47-2.412-1.367 0-2.731 1.699-3.431 2.715v7.895a1.32 1.32 0 0 1-1.306 1.307c-.728 0-1.309-.582-1.309-1.307V46.855c0-.727.581-1.309 1.279-1.309.727 0 1.336.582 1.336 1.309v.813c.582-.873 2.443-2.325 4.534-2.325 2.124 0 3.373 1.103 3.809 2.616.813-1.309 2.713-2.616 4.777-2.616 2.588 0 3.943 1.424 3.943 4.243z"></path><path id="R" d="M140.25 45.343c2.006 0 3.401.639 4.476 1.628.231.203.407.552.407.873 0 .667-.524 1.191-1.161 1.191-.321 0-.582-.118-.788-.291-.812-.755-1.713-1.076-2.818-1.076-2.761 0-4.534 2.121-4.534 5.028s1.775 4.966 4.534 5.058c1.863.065 3.739-1.291 5.247-3.671l.688-1.131c.427-.54.732-.281.983-.02.462.482.457 1.628.157 2.191-.847 1.581-1.56 2.318-2.371 3.11-1.128 1.094-2.814 1.844-4.82 1.844-4.243 0-7.149-3.167-7.149-7.383s2.906-7.353 7.149-7.353"></path><path id="S" d="M97.911 57.578c0 .494-1.415 1.6-2.433 2.094-.579.281-1.163.406-2.006.406-2.209 0-3.343-1.249-3.343-3.458v-8.632h-1.337a1.19 1.19 0 0 1-1.163-1.163c0-.609.554-1.133 1.163-1.133h1.337v-2.673c0-.727.582-1.309 1.309-1.309.697 0 1.307.582 1.307 1.309v2.673h1.833c.637 0 1.161.524 1.161 1.133a1.17 1.17 0 0 1-1.161 1.163h-1.833v8.05c0 .988.466 1.715 1.367 1.715 1.6 0 2.858-2.484 3.567-2.484.667 0 .233 1.669.233 2.309"></path></defs></svg> 