<svg width="278" height="54" viewBox="0 0 278 54" fill="none" xmlns="http://www.w3.org/2000/svg">
<g clip-path="url(#clip0_48_2746)">
<path d="M14.9332 31.6828C16.3223 33.1525 16.3223 35.3571 14.9332 36.8268L13.7177 38.1128C12.3285 39.5826 10.2448 39.5826 8.85571 38.1128L1.04185 29.8456C-0.347283 28.3759 -0.347283 26.1713 1.04185 24.7015L2.25734 23.4155C3.64647 21.9458 5.73017 21.9458 7.1193 23.4155L14.9332 31.6828ZM14.065 15.8831C12.6758 14.4134 10.5921 14.4134 9.203 15.8831L7.98751 17.1691C6.59838 18.6389 6.59838 20.8435 7.98751 22.3132L15.8014 30.5805C17.1905 32.0502 19.2742 32.0502 20.6633 30.5805L21.8788 29.2944C23.268 27.8247 23.268 25.6201 21.8788 24.1504L14.065 15.8831ZM34.9019 23.2318C33.5128 21.7621 31.4291 21.7621 30.04 23.2318L28.8245 24.5178C27.4354 25.9875 27.4354 28.1921 28.8245 29.6619L36.6384 37.9291C38.0275 39.3989 40.1112 39.3989 41.5003 37.9291L42.7158 36.6431C44.1049 35.1734 44.1049 32.9688 42.7158 31.499L34.9019 23.2318ZM42.0212 15.6994C40.6321 14.2297 38.5484 14.2297 37.1593 15.6994L35.9438 16.9854C34.5547 18.4552 34.5547 20.6598 35.9438 22.1295L43.7577 30.3967C45.1468 31.8665 47.2305 31.8665 48.6196 30.3967L49.8351 29.1107C51.2242 27.641 51.2242 25.4364 49.8351 23.9667L42.0212 15.6994ZM28.9981 7.61588C30.3873 6.14614 30.3873 3.94155 28.9981 2.47181L27.7826 1.1858C26.3935 -0.283937 24.3098 -0.283937 22.9207 1.1858L15.1068 9.45304C13.7177 10.9228 13.7177 13.1274 15.1068 14.5971L16.3223 15.8831C17.7114 17.3529 19.7951 17.3529 21.1843 15.8831L28.9981 7.61588ZM35.9438 14.9645C37.3329 13.4948 37.3329 11.2902 35.9438 9.82048L34.7283 8.53446C33.3392 7.06473 31.2555 7.06473 29.8663 8.53446L22.0525 16.8017C20.6633 18.2714 20.6633 20.476 22.0525 21.9458L23.268 23.2318C24.6571 24.7015 26.7408 24.7015 28.1299 23.2318L35.9438 14.9645ZM28.9981 36.6431C30.3873 35.1734 30.3873 32.9688 28.9981 31.499L27.7826 30.213C26.3935 28.7433 24.3098 28.7433 22.9207 30.213L15.1068 38.4803C13.7177 39.95 13.7177 42.1546 15.1068 43.6243L16.3223 44.9104C17.7114 46.3801 19.7951 46.3801 21.1843 44.9104L28.9981 36.6431ZM35.9438 43.9918C37.3329 42.522 37.3329 40.3174 35.9438 38.8477L34.7283 37.5617C33.3392 36.092 31.2555 36.092 29.8663 37.5617L22.2261 46.0127C20.837 47.4824 20.837 49.687 22.2261 51.1567L23.4416 52.4427C24.8307 53.9125 26.9144 53.9125 28.3036 52.4427L35.9438 43.9918ZM92.8982 36.8268C93.0718 37.1943 94.1137 38.8477 94.1137 38.8477C93.5928 41.4197 92.03 44.9104 92.03 44.9104L91.8563 45.0941C86.1262 47.4824 77.0968 49.5033 67.5465 45.4615C61.8164 43.0732 57.649 38.2966 56.0862 32.0502C54.3498 25.6201 55.5653 18.6389 59.3854 13.1274C63.5528 7.24844 70.1512 3.94155 79.1805 3.3904C82.6533 3.20668 89.599 4.12526 93.4191 6.51358H93.7664C93.7664 6.51358 93.94 16.618 93.7664 16.9854L93.5928 17.5366L90.8145 17.7203L90.6408 16.618C90.1199 13.6785 88.9044 5.96243 78.6596 6.51358C74.3186 6.69729 70.6721 9.08561 68.0675 12.7599C64.7683 17.3529 63.9001 23.4155 65.2892 30.3967C66.6783 37.0105 71.5403 41.236 75.1868 42.8895C76.7495 43.4406 81.6115 44.7266 85.258 42.8895C88.3835 41.236 91.5091 38.664 92.8982 36.8268ZM127.974 47.4824V12.7599C127.974 11.6576 127.974 9.82048 126.932 8.53446C126.758 8.35074 125.195 7.06473 125.195 7.06473V5.595L134.051 3.75783L134.919 4.30898C134.919 4.30898 134.919 41.0523 134.919 41.6035C135.093 45.0941 137.35 45.4615 137.35 45.4615V47.6661L127.974 47.4824ZM167.043 45.0941C165.48 44.7266 164.612 43.2569 164.612 40.8686V18.8226L163.918 18.4552L155.062 20.2923V21.7621C155.062 21.7621 156.625 23.0481 156.798 23.2318C157.84 24.5178 157.84 26.355 157.84 27.4573V40.5012C154.888 42.8895 152.284 43.6243 150.374 42.7058C148.984 41.9709 148.116 40.1337 148.116 37.5617V18.8226L147.422 18.4552L138.566 20.2923V21.7621C138.566 21.7621 140.129 23.0481 140.302 23.2318C141.518 24.5178 141.518 26.355 141.344 27.4573V38.664C141.344 40.8686 141.518 41.6035 141.691 42.522C142.212 44.9104 143.602 46.5638 145.512 47.2987C148.637 48.5847 153.152 47.2987 157.84 43.9918V47.115H167.564V45.0941H167.043ZM211.148 45.0941C209.585 44.7266 208.891 43.2569 208.717 40.8686V27.4573C208.717 24.3341 207.154 18.4552 201.424 18.4552C197.083 18.4552 194.305 21.2109 192.742 22.6806C191.874 20.6598 189.964 18.4552 186.491 18.4552C183.713 18.4552 181.282 19.5575 178.851 21.7621V19.0063L177.982 18.4552L169.127 20.2923V21.7621C169.127 21.7621 170.69 23.0481 170.863 23.2318C171.905 24.5178 171.905 26.355 171.905 27.4573V47.115H181.629V45.0941L181.108 44.9104C179.545 44.5429 178.851 43.2569 178.851 40.6849C178.851 40.6849 178.851 27.0898 178.851 24.8852C180.587 23.4155 182.324 23.0481 184.06 23.2318C185.449 23.4155 187.012 24.5178 187.012 30.0293V46.9312H196.562V44.9104L196.041 44.7266C194.478 44.3592 193.784 43.0732 193.61 40.5012V27.0898C193.61 26.7224 193.61 25.6201 193.437 24.8852C195.173 23.2318 196.909 23.0481 198.646 23.2318C200.035 23.4155 201.598 24.5178 201.598 30.0293V46.9312H211.148V44.9104V45.0941ZM124.848 32.9688C124.848 28.7433 123.459 24.8852 121.028 22.3132C118.423 19.5575 114.777 18.0877 110.262 18.0877C101.928 18.0877 95.6764 24.5178 95.6764 32.9688C95.6764 41.9709 101.407 47.8498 110.262 47.8498C114.43 47.8498 118.25 46.3801 120.854 43.6243C123.459 40.6849 124.848 37.0105 124.848 32.9688ZM110.262 44.5429C104.879 44.5429 103.317 40.1337 103.317 32.7851C103.317 27.4573 104.879 21.0272 110.262 21.0272C115.645 21.0272 117.208 27.4573 117.208 32.7851C117.208 40.1337 115.645 44.5429 110.262 44.5429ZM243.793 9.45304C243.793 7.43216 245.355 5.595 247.439 5.595C249.349 5.595 251.086 7.24844 251.086 9.45304C251.086 11.6576 249.523 13.3111 247.439 13.3111C245.355 13.3111 243.793 11.4739 243.793 9.45304ZM244.14 47.115V27.2736C244.14 26.1713 244.14 24.3341 243.098 23.0481C242.924 22.8644 241.362 21.5783 241.362 21.5783V20.1086L250.217 18.2714L251.086 18.8226V40.8686C251.086 43.2569 251.954 44.7266 253.343 45.0941L253.864 45.2778V47.2987L244.14 47.115ZM239.104 25.2527C237.194 21.7621 234.763 19.5575 231.811 18.8226C227.644 17.7203 223.477 19.7412 220.872 21.2109V4.12526L220.004 3.57411L211.148 5.41128V6.88101C211.148 6.88101 212.711 8.16703 212.884 8.35074C213.926 9.63676 213.926 11.2902 213.926 12.5762V44.7266V45.0941L214.274 45.2778C219.309 48.0335 225.908 48.401 230.77 46.3801C236.152 43.9918 238.583 39.95 239.452 37.0105C241.188 32.4176 240.493 27.8247 239.104 25.2527ZM231.811 40.6849C230.249 43.4406 227.123 45.0941 224.692 44.3592C222.261 43.6243 220.872 40.8686 220.872 36.6431C220.872 36.6431 220.872 26.9061 220.872 24.7015C220.872 24.7015 221.046 24.7015 221.219 24.5178C222.782 23.7829 225.56 22.1295 229.207 24.1504C231.117 25.2527 232.68 27.2736 233.374 29.8456C234.242 33.3362 233.721 37.1943 231.811 40.6849ZM277.826 44.1755L277.305 43.9918C276.958 43.9918 276.264 42.8895 276.264 41.236V28.1921C276.264 24.3341 275.048 21.3946 272.964 19.9249C271.054 18.4552 268.45 18.2714 265.324 19.3737C261.678 20.6598 256.295 25.6201 255.427 26.7224L255.253 26.9061V27.2736C255.253 27.641 255.774 28.1921 255.948 28.5596L256.121 28.7433H262.199C262.199 28.7433 262.199 27.2736 262.199 26.9061C262.199 24.3341 263.761 23.0481 265.151 22.8644C266.54 22.6806 267.408 22.6806 268.102 23.2318C268.971 23.9667 269.492 25.8038 269.492 28.7433V30.3967L256.816 36.2757L256.642 36.4594V36.6431C255.427 40.3174 255.774 43.2569 257.337 45.2778C259.941 48.401 266.366 48.7684 275.743 46.5638C276.437 46.3801 278 46.1964 278 46.1964C277.826 46.0127 277.826 44.1755 277.826 44.1755ZM269.665 33.3362V43.4406C267.582 44.9104 265.498 45.0941 263.935 43.8081C262.372 42.3383 262.025 39.7663 263.067 37.1943L269.665 33.3362Z" fill="#1987C7"/>
</g>
<defs>
<clipPath id="clip0_48_2746">
<rect width="278" height="53.4615" fill="white" transform="translate(0 0.0834961)"/>
</clipPath>
</defs>
</svg>
