<svg width="122" height="36" viewBox="0 0 122 36" fill="none" xmlns="http://www.w3.org/2000/svg">
<path fill-rule="evenodd" clip-rule="evenodd" d="M48.768 1.10899C48.2072 1.10899 47.9584 1.44222 47.7503 1.91904C34.6571 32.0064 33.5584 34.3849 33.5584 34.3849H40.9781C42.5223 30.6103 42.5223 30.6103 42.5223 30.6103H53.7011C55.251 34.3849 55.251 34.3849 55.251 34.3849H63.9777C63.9777 34.3849 63.2317 32.8395 49.7858 1.91904C49.5777 1.44222 49.3291 1.10899 48.768 1.10899V1.10899ZM44.8818 24.8537C48.103 16.9771 48.103 16.9771 48.103 16.9771C51.3357 24.8537 51.3357 24.8537 51.3357 24.8537H44.8818ZM85.8322 19.2695C88.3826 17.7527 90.3141 15.1041 90.3141 11.3066C90.3141 8.32482 89.1171 5.86591 87.0351 4.20573C84.9243 2.51656 82.4838 1.60298 77.4929 1.60298C66.8173 1.60298 66.8173 1.60298 66.8173 1.60298V34.3849H74.7054C74.7054 22.1821 74.7054 22.1821 74.7054 22.1821H77.1517C79.812 22.1821 81.1537 23.1875 82.2698 25.8476C83.2124 28.0996 83.8775 30.7712 84.7451 34.3849H93.5412C92.292 30.6678 91.6674 28.9097 90.7306 26.29C89.4467 22.7051 87.891 20.4989 85.8322 19.2695V19.2695ZM80.7893 15.2479C79.8351 15.9774 78.6033 16.2072 76.3884 16.2072C74.7054 16.2072 74.7054 16.2072 74.7054 16.2072C74.7054 16.2072 74.6881 7.46897 74.7054 7.46897H76.3884C78.7016 7.46897 79.8524 7.72169 80.7836 8.4225C81.8477 9.22683 82.3218 10.4333 82.3218 11.8295C82.3218 13.3519 81.7898 14.4721 80.7893 15.2479ZM15.8619 15.4949C2.46234 2.17761 2.46234 2.17761 2.46234 2.17761C2.05754 1.78117 1.65273 1.4997 1.0166 1.4997V34.3849H7.90439C7.90439 18.6604 7.90439 18.6604 7.90439 18.6604C15.8619 26.5657 15.8619 26.5657 15.8619 26.5657C23.8253 18.6604 23.8253 18.6604 23.8253 18.6604V34.3849H30.7131C30.7131 1.4997 30.7131 1.4997 30.7131 1.4997C30.0769 1.4997 29.6721 1.78117 29.2673 2.17761L15.8619 15.4949ZM118.102 18.0284C114.586 14.7078 108.207 14.1389 105.686 12.1857C104.697 11.4216 104.344 10.2955 104.668 9.2211C105.067 7.88831 106.403 7.01504 108.363 7.01504C111.064 7.01504 113.487 8.23871 115.164 10.2208C119.669 5.53853 119.669 5.53853 119.669 5.53853C117.015 2.73494 112.776 1.0459 108.311 1.0459C103.106 1.0459 99.1798 3.545 97.4275 7.53206C96.0683 10.6287 96.5369 13.8575 98.2082 16.1786C101.441 20.6712 108.265 20.8091 111.22 23.1129C112.273 23.9345 112.863 25.2616 112.232 26.6922C111.689 27.9446 110.318 28.7948 108.074 28.8523C104.963 28.927 102.187 27.4792 100.145 24.9456C95.6346 29.6336 95.6346 29.6336 95.6346 29.6336C98.6188 33.2244 103.06 34.9537 108.427 34.9537C113.643 34.9537 118.224 32.9372 120.092 28.6396C121.728 24.8824 121.138 20.8896 118.102 18.0284" fill="#666666"/>
</svg>
