<?xml version="1.0" encoding="UTF-8"?> <svg xmlns="http://www.w3.org/2000/svg" width="249" height="128" viewBox="0 0 249 128" fill="none"><g clip-path="url(#clip0)"><path d="M172.221 47.4734C169.746 49.7457 165.104 49.1566 163.332 46.239C160.8 42.0871 166.708 38.412 170.224 38.9451C173.065 39.3939 174.078 41.9468 173.656 44.7241C173.487 45.8743 172.953 46.8001 172.221 47.4734Z" fill="#F5896B"></path><path d="M187.555 47.754C186.852 48.2029 185.98 48.4834 184.967 48.5676C182.661 48.7359 179.932 48.2309 178.301 46.4075C176.191 44.0229 176.275 40.5162 178.497 38.3561C181.254 35.6629 186.374 36.0276 188.653 39.1135C190.565 41.6664 190.397 45.9305 187.555 47.754Z" fill="#F6B76D"></path><path d="M56.4943 64.0813C56.4943 64.6984 56.4099 65.512 56.2692 66.3817L54.4689 77.6873H49.6305L51.3464 66.7183C51.3745 66.4097 51.4308 65.9889 51.4308 65.5961C51.4027 64.8387 51.0932 64.2776 49.9961 64.2776C48.9553 64.2776 47.8582 64.8107 47.0143 65.4278L45.0733 77.6592H40.2349L43.8356 54.7394H48.7303L47.5769 61.865C48.7865 61.0234 50.5588 60.2659 52.4998 60.2659C55.4816 60.3221 56.4943 61.7809 56.4943 64.0813ZM64.624 70.6458C64.3427 70.6458 64.0051 70.6458 63.7238 70.6178C63.7238 73.0304 64.9053 74.0403 67.212 74.0403C68.7592 74.0403 70.1938 73.4792 71.4597 72.834L70.8408 76.9859C69.575 77.6312 67.7746 78.08 65.693 78.08C60.7139 78.08 58.801 74.9661 58.801 71.0666C58.801 66.1011 61.5859 60.3501 67.7746 60.3501C71.2065 60.3501 73.0069 62.2017 73.0069 64.7545C73.0069 68.9065 68.7311 70.6458 64.624 70.6458ZM63.9207 67.5038C64.1177 67.5319 64.3427 67.5319 64.5396 67.5319C66.4525 67.5319 68.8436 66.8305 68.8436 65.0912C68.8436 64.1654 68.3372 63.7166 67.4089 63.7166C65.6648 63.6885 64.1458 65.512 63.9207 67.5038ZM74.4978 71.2911C74.4978 66.3536 77.0296 60.3221 82.3462 60.3221C83.809 60.3221 85.1593 60.7709 86.172 61.6967L86.5939 60.6026H90.7572L88.7881 73.1987C88.6475 73.9842 88.76 74.6014 89.5195 74.6014C89.9696 74.6014 90.5041 74.4331 90.8979 74.3489L90.4478 77.547C89.5195 77.8556 88.5912 78.052 87.5504 78.052C85.75 78.052 84.7654 77.2945 84.2872 76.1724C83.1901 77.1262 81.8961 78.0239 79.6176 78.0239C76.4388 78.0239 74.4978 75.7516 74.4978 71.2911ZM81.5586 74.2086C82.4025 74.2086 83.2183 73.8439 83.8371 73.4231L85.2437 64.7545C84.6811 64.2776 84.0059 63.969 83.2183 63.969C80.3208 63.969 79.505 68.7382 79.505 70.9544C79.505 73.1145 80.152 74.2086 81.5586 74.2086ZM96.1864 54.7674H101.081L98.465 71.3752C98.4087 71.796 98.3243 72.2449 98.3243 72.6376C98.3243 73.3951 98.5494 74.0123 99.5058 74.0123C100.04 74.0123 101.109 73.872 102.038 73.4792L101.475 77.2945C100.097 77.8276 98.69 78.0239 97.4804 78.0239C94.2454 78.0239 93.2046 76.6213 93.2046 74.405C93.2046 73.9281 93.2327 73.4231 93.3452 72.8621L96.1864 54.7674ZM110.561 64.0251L109.295 71.796C109.267 72.1327 109.211 72.4693 109.211 72.7779C109.211 73.5634 109.548 74.0403 110.477 74.0403C111.152 74.0403 112.305 73.7878 113.093 73.4231L112.558 77.2665C111.461 77.7434 109.745 77.9959 108.339 77.9959C105.301 77.9959 104.147 76.4249 104.147 74.405C104.147 73.8439 104.204 73.3951 104.288 72.9462L105.723 63.9971H103.472L104.007 60.5745H106.201L106.735 57.4886L111.911 55.4407L111.067 60.5745H114.668L114.162 63.9971L110.561 64.0251ZM131.265 64.0813C131.265 64.6984 131.181 65.512 131.04 66.3817L129.24 77.6873H124.373L126.089 66.7183C126.117 66.4097 126.174 65.9889 126.174 65.5961C126.145 64.8387 125.836 64.2776 124.739 64.2776C123.698 64.2776 122.601 64.8107 121.757 65.4278L119.816 77.6592H114.949L118.55 54.7394H123.445L122.292 61.865C123.501 61.0234 125.273 60.2659 127.214 60.2659C130.252 60.3221 131.265 61.7809 131.265 64.0813Z" fill="#1E4759"></path><path d="M159.703 50.6716C158.634 52.3548 155.961 52.1865 155.342 49.9983C154.892 48.4834 156.074 47.1649 157.452 46.9124C159.196 46.6318 160.547 48.3151 159.984 50.0544C159.9 50.3069 159.815 50.5033 159.703 50.6716ZM145.75 61.9772L146.875 54.7674H149.013L145.412 77.6873H143.387L143.64 76.0321C142.402 77.0701 140.771 77.9959 138.774 77.9959C135.961 77.9959 134.216 76.1443 134.216 72.1607C134.216 67.1952 136.467 60.4904 141.981 60.4904C143.668 60.5184 144.681 61.1917 145.75 61.9772ZM139.477 76.0882C141.052 76.0882 142.684 75.2185 143.725 74.3769L145.356 63.9129C144.372 63.0152 143.275 62.4261 141.812 62.4261C137.873 62.4261 136.467 69.0187 136.467 72.1046C136.495 74.938 137.367 76.0882 139.477 76.0882ZM155.652 60.8551L153.008 77.6873H150.898L153.542 60.8551H155.652ZM155.483 55.076C156.355 55.076 156.749 55.5529 156.749 56.2823C156.749 57.2361 156.074 58.1339 155.005 58.1339C154.245 58.1339 153.795 57.6008 153.795 56.8153C153.795 55.8896 154.442 55.076 155.483 55.076ZM170.167 63.1835L168.226 64.0812C167.945 63.1555 167.664 62.5383 166.567 62.5383C165.301 62.5383 163.697 63.7446 162.713 64.6984L160.659 77.6592H158.521L161.166 60.827H163.191L162.91 62.6224C164.119 61.4722 165.638 60.4904 167.354 60.4904C169.183 60.5184 169.914 61.9211 170.167 63.1835ZM172.84 69.8883C172.783 70.5055 172.755 71.0666 172.755 71.5996C172.755 74.405 173.881 76.2004 176.722 76.2004C178.438 76.2004 179.985 75.5832 181.166 75.0222L180.857 77.0981C179.816 77.6312 178.297 78.08 176.187 78.08C171.968 78.08 170.589 75.1063 170.589 71.4874C170.589 66.9708 172.699 60.5184 178.578 60.5184C181.532 60.5184 182.995 62.1736 182.995 64.3057C182.967 68.9906 176.778 69.7761 172.84 69.8883ZM180.744 64.474C180.744 63.0994 179.844 62.37 178.156 62.37C175.343 62.37 173.599 65.6242 173.205 68.2051C175.85 68.2051 180.744 67.3355 180.744 64.474ZM196.104 74.9941L195.794 77.0701C194.613 77.6312 192.953 78.08 191.012 78.08C186.539 78.08 185.161 75.0222 185.161 71.5996C185.161 66.6902 187.214 60.5184 193.15 60.5184C196.582 60.5184 197.566 63.1274 197.679 65.2314L195.71 65.6803C195.513 63.941 194.781 62.398 192.84 62.398C188.79 62.398 187.411 68.0929 187.411 71.263C187.411 74.5733 188.508 76.2285 191.35 76.2285C192.897 76.2285 194.641 75.7235 196.104 74.9941ZM204.346 62.5944L202.686 72.9743C202.602 73.5914 202.489 74.2086 202.489 74.6855C202.489 75.6674 202.855 76.2285 203.98 76.2285C204.852 76.2285 205.921 75.8357 206.709 75.4991L206.428 77.4348C205.752 77.7434 204.487 78.08 203.333 78.08C201.167 78.08 200.323 76.9859 200.323 75.1344C200.323 74.7416 200.351 74.3489 200.408 73.9L202.236 62.5944H200.07L200.323 60.8831H202.489L202.939 58.1339L205.246 56.9275L204.599 60.8831H209.016L208.762 62.5944H204.346Z" fill="#E25553"></path></g><defs><clipPath id="clip0"><rect width="249" height="128" fill="white"></rect></clipPath></defs></svg> 