<svg width="149" height="45" viewBox="0 0 149 45" fill="none" xmlns="http://www.w3.org/2000/svg">
<path d="M52.851 0.606873H0.661316V44.3006H52.851V0.606873Z" fill="white"/>
<path d="M75.3062 20.751H77.387C78.833 20.751 80.276 21.0678 80.276 22.801C80.276 24.3582 78.745 24.8801 77.329 24.8801H75.3062V20.751ZM68.0227 29.0419H79.727C83.917 29.0419 88.021 28.5188 88.021 23.4358C88.021 21.4161 86.288 19.2242 83.484 18.8479V18.7884C86.17 18.0966 87.645 16.6208 87.645 13.8523C87.645 10.0109 84.208 8.88818 80.712 8.88818H68.0227V29.0419ZM75.3062 12.7005H77.412C78.799 12.7005 80.072 13.1605 80.072 14.6642C80.072 16.1899 78.598 16.594 77.24 16.594H75.305V12.7005H75.3062Z" fill="#7F7F7F"/>
<path d="M75.3062 20.751H77.387C78.833 20.751 80.276 21.0678 80.276 22.801C80.276 24.3582 78.745 24.8801 77.329 24.8801H75.3062V20.751ZM68.0227 29.0419H79.727C83.917 29.0419 88.021 28.5188 88.021 23.4358C88.021 21.4161 86.288 19.2242 83.484 18.8479V18.7884C86.17 18.0966 87.645 16.6208 87.645 13.8523C87.645 10.0109 84.208 8.88818 80.712 8.88818H68.0227V29.0419ZM75.3062 12.7005H77.412C78.799 12.7005 80.072 13.1605 80.072 14.6642C80.072 16.1899 78.598 16.594 77.24 16.594H75.305V12.7005H75.3062Z" fill="black" fill-opacity="0.2"/>
<path d="M99.784 22.8858C99.784 24.1857 99.029 25.5729 97.529 25.5729C96.399 25.5729 95.824 25.1663 95.824 24.1286C95.824 22.5726 97.558 22.4258 99.06 22.4258H99.786V22.8858H99.784ZM90.91 18.7288C92.356 18.0091 94.202 17.4605 95.938 17.4605C97.762 17.4605 99.755 17.6911 99.784 19.627C99.119 19.5663 97.964 19.4231 96.949 19.4231C93.335 19.4231 89.177 20.3491 89.177 24.9673C89.177 28.1157 91.895 29.3876 94.694 29.3876C96.749 29.3876 98.602 28.5781 99.61 26.8728H99.669V29.0429H106.428V19.8879C106.428 14.4007 101.372 13.6494 97.21 13.6494C94.381 13.6494 93.077 13.9091 90.911 14.5148V18.7288H90.91Z" fill="#7F7F7F"/>
<path d="M99.784 22.8858C99.784 24.1857 99.029 25.5729 97.529 25.5729C96.399 25.5729 95.824 25.1663 95.824 24.1286C95.824 22.5726 97.558 22.4258 99.06 22.4258H99.786V22.8858H99.784ZM90.91 18.7288C92.356 18.0091 94.202 17.4605 95.938 17.4605C97.762 17.4605 99.755 17.6911 99.784 19.627C99.119 19.5663 97.964 19.4231 96.949 19.4231C93.335 19.4231 89.177 20.3491 89.177 24.9673C89.177 28.1157 91.895 29.3876 94.694 29.3876C96.749 29.3876 98.602 28.5781 99.61 26.8728H99.669V29.0429H106.428V19.8879C106.428 14.4007 101.372 13.6494 97.21 13.6494C94.381 13.6494 93.077 13.9091 90.911 14.5148V18.7288H90.91Z" fill="black" fill-opacity="0.2"/>
<path d="M108.48 13.9978H115.362V16.5939H115.42C116.286 14.4869 118.279 13.6494 120.334 13.6494C124.203 13.6494 125.618 15.6715 125.618 18.5844V29.0405H118.337V20.3758C118.337 19.5092 118.337 18.3259 117.068 18.3259C115.764 18.3259 115.764 19.5092 115.764 20.3758V29.0405H108.482V13.9978H108.48Z" fill="#7F7F7F"/>
<path d="M108.48 13.9978H115.362V16.5939H115.42C116.286 14.4869 118.279 13.6494 120.334 13.6494C124.203 13.6494 125.618 15.6715 125.618 18.5844V29.0405H118.337V20.3758C118.337 19.5092 118.337 18.3259 117.068 18.3259C115.764 18.3259 115.764 19.5092 115.764 20.3758V29.0405H108.482V13.9978H108.48Z" fill="black" fill-opacity="0.2"/>
<path d="M135.357 19.9693H135.421L139.58 13.9954H147.812L142.728 20.6344L148.018 29.0418H139.523L135.421 21.7352H135.357V29.0418H128.077V7.38428H135.357V19.9693Z" fill="#7F7F7F"/>
<path d="M135.357 19.9693H135.421L139.58 13.9954H147.812L142.728 20.6344L148.018 29.0418H139.523L135.421 21.7352H135.357V29.0418H128.077V7.38428H135.357V19.9693Z" fill="black" fill-opacity="0.2"/>
<path d="M0 44.9074H53.4033V0H0V44.9074ZM35.0557 35.1928H22.6151V14.1167H28.8645V31.4643H34.8724C39.0209 31.4643 40.765 28.7529 40.765 21.8007C40.765 14.7952 38.7806 12.761 34.5738 12.761H20.8722V35.1928H14.6811V12.761H5.6061V9.0288H36.4951C43.9485 9.0288 47.4938 12.6445 47.4938 21.7449C47.4938 33.723 42.2044 35.1928 35.0557 35.1928Z" fill="#7F7F7F"/>
<path d="M0 44.9074H53.4033V0H0V44.9074ZM35.0557 35.1928H22.6151V14.1167H28.8645V31.4643H34.8724C39.0209 31.4643 40.765 28.7529 40.765 21.8007C40.765 14.7952 38.7806 12.761 34.5738 12.761H20.8722V35.1928H14.6811V12.761H5.6061V9.0288H36.4951C43.9485 9.0288 47.4938 12.6445 47.4938 21.7449C47.4938 33.723 42.2044 35.1928 35.0557 35.1928Z" fill="black" fill-opacity="0.2"/>
</svg>
