<?xml version="1.0" encoding="UTF-8"?> <svg xmlns="http://www.w3.org/2000/svg" xmlns:xlink="http://www.w3.org/1999/xlink" xmlns:v="https://vecta.io/nano" width="194" height="100" fill="none"><style><![CDATA[.B{fill:#7f7f7f}.C{fill:#000}.D{fill-opacity:.2}]]></style><path d="M20.814 58.383H18V35.478h2.814v9.957h11.96v-9.957h2.846v22.905h-2.846V47.885h-11.96v10.498z" class="B"></path><path d="M20.814 58.383H18V35.478h2.814v9.957h11.96v-9.957h2.846v22.905h-2.846V47.885h-11.96v10.498z" class="C D"></path><use xlink:href="#B" class="B"></use><use xlink:href="#B" class="C D"></use><use xlink:href="#C" class="B"></use><use xlink:href="#C" class="C D"></use><use xlink:href="#D" class="B"></use><use xlink:href="#D" class="C D"></use><use xlink:href="#E" class="B"></use><use xlink:href="#E" class="C D"></use><use xlink:href="#F" class="B"></use><use xlink:href="#F" class="C D"></use><use xlink:href="#G" class="B"></use><use xlink:href="#G" class="C D"></use><use xlink:href="#H" class="B"></use><use xlink:href="#H" class="C D"></use><defs><path id="B" d="M48.921 39.869c0-1.527-.927-2.481-2.59-2.481-1.631 0-2.622.986-2.622 2.481 0 1.114.544 2.227 2.11 4.104 2.175-1.4 3.102-2.418 3.102-4.104zm-3.741 7.19c-3.102 1.941-3.869 3.277-3.869 5.122 0 2.64 1.95 4.294 4.988 4.294 2.079 0 3.773-.7 5.084-2.036l-6.204-7.38zm-4.125-7.19c0-2.799 2.175-4.867 5.244-4.867 3.102 0 5.276 2.131 5.276 4.867 0 2.132-1.343 4.008-4.285 5.854l5.532 6.553c.735-1.559 1.119-3.372 1.215-5.408h2.654c-.096 2.799-.8 5.281-2.143 7.444l3.454 4.072H54.74l-1.791-2.099c-1.823 1.749-4.061 2.576-6.651 2.576-4.733 0-7.707-2.672-7.707-6.68 0-2.609 1.535-4.772 5.117-6.872-2.015-2.259-2.654-3.881-2.654-5.44z"></path><path id="C" d="M72.806 58.383H70.12l-6.747-17.846h-.064v17.846h-2.654V35.478h3.486l7.387 19.596 7.419-19.596h3.357v22.905h-2.686V40.537h-.032l-6.779 17.846z"></path><path id="D" d="M108.747 49.349h-6.779v-2.418h9.721v11.452h-2.015l-.64-2.959c-1.822 2.481-4.38 3.436-7.066 3.436-7.003 0-10.809-5.026-10.809-11.929 0-6.585 3.773-11.93 10.809-11.93 4.668 0 8.474 2.513 9.337 7.094h-2.942c-.735-2.99-3.262-4.581-6.395-4.581-5.501 0-7.899 4.613-7.899 9.417 0 5.249 2.367 9.448 7.899 9.448 3.197 0 6.523-2.704 6.779-7.03z"></path><path id="E" d="M115.236 42.382h2.623v2.227c.831-1.781 2.494-2.704 4.796-2.704.544 0 1.024.032 1.471.096v2.354c-.512-.064-.991-.096-1.471-.096-3.166 0-4.796 1.623-4.796 4.772v9.353h-2.623V42.382z"></path><path id="F" d="M137.588 50.398c0-4.072-2.271-6.108-5.244-6.108-3.038 0-5.245 2.036-5.245 6.108 0 4.04 2.207 6.076 5.245 6.076 3.006 0 5.244-2.036 5.244-6.076zm2.718 0c0 5.345-3.581 8.462-7.962 8.462-4.413 0-7.931-3.149-7.931-8.462 0-5.281 3.518-8.494 7.931-8.494 4.348 0 7.962 3.118 7.962 8.494z"></path><path id="G" d="M153.543 58.383v-1.877c-1.183 1.559-2.878 2.354-5.149 2.354-3.773 0-5.66-2.163-5.66-6.458V42.382h2.623v9.893c0 2.927 1.087 4.263 3.581 4.263 2.654 0 4.605-1.718 4.605-4.644v-9.512h2.622v16.001h-2.622z"></path><path id="H" d="M167.324 56.538c3.07 0 4.957-2.195 4.957-6.172 0-3.945-1.919-6.14-4.957-6.14-3.293 0-5.084 2.004-5.084 6.171 0 4.04 1.791 6.14 5.084 6.14zm-5.084-12.184c1.215-1.623 2.942-2.45 5.276-2.45 4.445 0 7.483 3.436 7.483 8.494 0 5.026-2.974 8.462-7.483 8.462-2.334 0-4.093-.795-5.276-2.449V65h-2.622V42.382h2.622v1.973z"></path></defs></svg> 