<svg width="187" height="47" viewBox="0 0 187 47" fill="none" xmlns="http://www.w3.org/2000/svg">
<path d="M59.6551 23.3853L54.2319 9.9193H56.7427L59.8058 17.9886L63.1702 9.5596L66.5346 17.9886L69.5977 9.9193H72.008L66.635 23.3853L63.0697 14.6992L59.6551 23.3853Z" fill="#7F7F7F"/>
<path d="M59.6551 23.3853L54.2319 9.9193H56.7427L59.8058 17.9886L63.1702 9.5596L66.5346 17.9886L69.5977 9.9193H72.008L66.635 23.3853L63.0697 14.6992L59.6551 23.3853Z" fill="black" fill-opacity="0.2"/>
<path d="M83.6577 22.8712H81.1971L79.8915 20.0958H74.5186L73.213 22.8712H70.7524L77.2302 9.4053L83.6577 22.8712ZM75.322 18.2455H79.0379L77.1799 14.2366L75.322 18.2455Z" fill="#7F7F7F"/>
<path d="M83.6577 22.8712H81.1971L79.8915 20.0958H74.5186L73.213 22.8712H70.7524L77.2302 9.4053L83.6577 22.8712ZM75.322 18.2455H79.0379L77.1799 14.2366L75.322 18.2455Z" fill="black" fill-opacity="0.2"/>
<path d="M87.6247 22.8709H85.2646V9.9189H88.8299C91.6419 9.9189 93.6003 11.4094 93.6003 13.9279C93.6003 15.6754 92.6462 16.9089 91.1398 17.4743L95.0565 22.8709H92.3449L88.7295 17.8854H87.6247V22.8709ZM87.6247 15.9324H88.8801C90.3363 15.9324 91.2904 15.2128 91.2904 13.9279C91.2904 12.5916 90.3363 11.872 88.8801 11.872H87.6247V15.9324Z" fill="#7F7F7F"/>
<path d="M87.6247 22.8709H85.2646V9.9189H88.8299C91.6419 9.9189 93.6003 11.4094 93.6003 13.9279C93.6003 15.6754 92.6462 16.9089 91.1398 17.4743L95.0565 22.8709H92.3449L88.7295 17.8854H87.6247V22.8709ZM87.6247 15.9324H88.8801C90.3363 15.9324 91.2904 15.2128 91.2904 13.9279C91.2904 12.5916 90.3363 11.872 88.8801 11.872H87.6247V15.9324Z" fill="black" fill-opacity="0.2"/>
<path d="M124.281 22.8709H121.921V9.9189H125.487C128.299 9.9189 130.257 11.4094 130.257 13.9279C130.257 15.6754 129.303 16.9089 127.797 17.4743L131.713 22.8709H129.052L125.436 17.8854H124.332V22.8709H124.281ZM124.281 15.9324H125.537C126.993 15.9324 127.947 15.2128 127.947 13.9279C127.947 12.5916 126.993 11.872 125.537 11.872H124.281V15.9324Z" fill="#7F7F7F"/>
<path d="M124.281 22.8709H121.921V9.9189H125.487C128.299 9.9189 130.257 11.4094 130.257 13.9279C130.257 15.6754 129.303 16.9089 127.797 17.4743L131.713 22.8709H129.052L125.436 17.8854H124.332V22.8709H124.281ZM124.281 15.9324H125.537C126.993 15.9324 127.947 15.2128 127.947 13.9279C127.947 12.5916 126.993 11.872 125.537 11.872H124.281V15.9324Z" fill="black" fill-opacity="0.2"/>
<path d="M106.003 9.9192H108.313V23.3852L99.375 14.5963V22.8712H97.065V9.4053L106.003 18.1941V9.9192Z" fill="#7F7F7F"/>
<path d="M106.003 9.9192H108.313V23.3852L99.375 14.5963V22.8712H97.065V9.4053L106.003 18.1941V9.9192Z" fill="black" fill-opacity="0.2"/>
<path d="M111.376 9.9189H119.21V11.9234H113.686V15.2642H118.758V17.2687H113.686V20.9178H119.26V22.9223H111.427V9.9189H111.376Z" fill="#7F7F7F"/>
<path d="M111.376 9.9189H119.21V11.9234H113.686V15.2642H118.758V17.2687H113.686V20.9178H119.26V22.9223H111.427V9.9189H111.376Z" fill="black" fill-opacity="0.2"/>
<path d="M137.94 9.9189H141.606C144.418 9.9189 145.924 11.2553 145.924 13.3625C145.924 14.6988 145.121 15.624 144.167 16.0865C145.623 16.4977 146.728 17.577 146.728 19.2217C146.728 21.5346 144.97 22.9223 142.258 22.9223H137.99V9.9189H137.94ZM141.455 15.4184C142.761 15.4184 143.614 14.8016 143.614 13.6709C143.614 12.5402 142.761 11.9234 141.455 11.9234H140.25V15.4184H141.455ZM142.058 20.8664C143.413 20.8664 144.317 20.1469 144.317 19.0162C144.317 17.8854 143.413 17.1659 142.058 17.1659H140.25V20.8664H142.058Z" fill="#7F7F7F"/>
<path d="M137.94 9.9189H141.606C144.418 9.9189 145.924 11.2553 145.924 13.3625C145.924 14.6988 145.121 15.624 144.167 16.0865C145.623 16.4977 146.728 17.577 146.728 19.2217C146.728 21.5346 144.97 22.9223 142.258 22.9223H137.99V9.9189H137.94ZM141.455 15.4184C142.761 15.4184 143.614 14.8016 143.614 13.6709C143.614 12.5402 142.761 11.9234 141.455 11.9234H140.25V15.4184H141.455ZM142.058 20.8664C143.413 20.8664 144.317 20.1469 144.317 19.0162C144.317 17.8854 143.413 17.1659 142.058 17.1659H140.25V20.8664H142.058Z" fill="black" fill-opacity="0.2"/>
<path d="M151.498 22.8709H149.138V9.9189H152.703C155.515 9.9189 157.474 11.4094 157.474 13.9279C157.474 15.6754 156.52 16.9089 155.013 17.4743L158.93 22.8709H156.218L152.603 17.8854H151.498V22.8709ZM151.498 15.9324H152.754C154.21 15.9324 155.164 15.2128 155.164 13.9279C155.164 12.5916 154.21 11.872 152.754 11.872H151.498V15.9324Z" fill="#7F7F7F"/>
<path d="M151.498 22.8709H149.138V9.9189H152.703C155.515 9.9189 157.474 11.4094 157.474 13.9279C157.474 15.6754 156.52 16.9089 155.013 17.4743L158.93 22.8709H156.218L152.603 17.8854H151.498V22.8709ZM151.498 15.9324H152.754C154.21 15.9324 155.164 15.2128 155.164 13.9279C155.164 12.5916 154.21 11.872 152.754 11.872H151.498V15.9324Z" fill="black" fill-opacity="0.2"/>
<path d="M172.639 16.3954C172.639 20.096 169.776 23.077 166.161 23.077C162.545 23.077 159.683 20.096 159.683 16.3954C159.683 12.6949 162.545 9.7139 166.161 9.7139C169.776 9.7139 172.639 12.6949 172.639 16.3954ZM162.043 16.3954C162.043 18.9653 163.901 20.8669 166.161 20.8669C168.471 20.8669 170.278 18.9653 170.278 16.3954C170.278 13.8256 168.42 11.9239 166.161 11.9239C163.901 11.9239 162.043 13.8256 162.043 16.3954Z" fill="#7F7F7F"/>
<path d="M172.639 16.3954C172.639 20.096 169.776 23.077 166.161 23.077C162.545 23.077 159.683 20.096 159.683 16.3954C159.683 12.6949 162.545 9.7139 166.161 9.7139C169.776 9.7139 172.639 12.6949 172.639 16.3954ZM162.043 16.3954C162.043 18.9653 163.901 20.8669 166.161 20.8669C168.471 20.8669 170.278 18.9653 170.278 16.3954C170.278 13.8256 168.42 11.9239 166.161 11.9239C163.901 11.9239 162.043 13.8256 162.043 16.3954Z" fill="black" fill-opacity="0.2"/>
<path d="M178.162 21.0208C179.467 21.0208 180.371 20.4554 180.371 19.3761C180.371 18.5537 179.819 18.1426 179.016 17.7828L176.906 16.7548C175.551 16.0867 174.396 15.2643 174.396 13.4141C174.396 11.1526 176.203 9.66211 178.564 9.66211C180.02 9.66211 181.275 10.2789 181.978 10.947V13.4141C181.024 12.4375 179.719 11.6666 178.463 11.6666C177.409 11.6666 176.605 12.1805 176.605 13.1571C176.605 13.8766 177.107 14.2364 177.81 14.5962L179.769 15.5213C181.627 16.3951 182.581 17.2688 182.581 19.0677C182.581 21.4833 180.622 22.9738 178.112 22.9738C176.505 22.9738 175.099 22.3571 174.245 21.6889V19.2219C175.35 20.2498 176.706 21.0208 178.162 21.0208Z" fill="#7F7F7F"/>
<path d="M178.162 21.0208C179.467 21.0208 180.371 20.4554 180.371 19.3761C180.371 18.5537 179.819 18.1426 179.016 17.7828L176.906 16.7548C175.551 16.0867 174.396 15.2643 174.396 13.4141C174.396 11.1526 176.203 9.66211 178.564 9.66211C180.02 9.66211 181.275 10.2789 181.978 10.947V13.4141C181.024 12.4375 179.719 11.6666 178.463 11.6666C177.409 11.6666 176.605 12.1805 176.605 13.1571C176.605 13.8766 177.107 14.2364 177.81 14.5962L179.769 15.5213C181.627 16.3951 182.581 17.2688 182.581 19.0677C182.581 21.4833 180.622 22.9738 178.112 22.9738C176.505 22.9738 175.099 22.3571 174.245 21.6889V19.2219C175.35 20.2498 176.706 21.0208 178.162 21.0208Z" fill="black" fill-opacity="0.2"/>
<path d="M187 21.4837C187 22.3574 186.347 22.9742 185.544 22.9742H185.493C184.69 22.9742 184.037 22.306 184.037 21.4837C184.037 20.6613 184.69 19.9932 185.493 19.9932H185.544C186.347 19.9932 187 20.6613 187 21.4837Z" fill="#7F7F7F"/>
<path d="M187 21.4837C187 22.3574 186.347 22.9742 185.544 22.9742H185.493C184.69 22.9742 184.037 22.306 184.037 21.4837C184.037 20.6613 184.69 19.9932 185.493 19.9932H185.544C186.347 19.9932 187 20.6613 187 21.4837Z" fill="black" fill-opacity="0.2"/>
<path d="M134.174 40.2436H131.814V27.2402H135.379C138.191 27.2402 140.15 28.7307 140.15 31.2492C140.15 32.9967 139.196 34.2302 137.689 34.7955L141.606 40.1922H138.894L135.279 35.2067H134.174V40.2436ZM134.174 33.305H135.429C136.886 33.305 137.84 32.5855 137.84 31.3006C137.84 29.9643 136.886 29.2447 135.429 29.2447H134.174V33.305Z" fill="#7F7F7F"/>
<path d="M134.174 40.2436H131.814V27.2402H135.379C138.191 27.2402 140.15 28.7307 140.15 31.2492C140.15 32.9967 139.196 34.2302 137.689 34.7955L141.606 40.1922H138.894L135.279 35.2067H134.174V40.2436ZM134.174 33.305H135.429C136.886 33.305 137.84 32.5855 137.84 31.3006C137.84 29.9643 136.886 29.2447 135.429 29.2447H134.174V33.305Z" fill="black" fill-opacity="0.2"/>
<path d="M121.118 27.2402H128.952V29.2447H123.428V32.5855H128.5V34.59H123.428V38.2391H129.002V40.2436H121.168V27.2402H121.118Z" fill="#7F7F7F"/>
<path d="M121.118 27.2402H128.952V29.2447H123.428V32.5855H128.5V34.59H123.428V38.2391H129.002V40.2436H121.168V27.2402H121.118Z" fill="black" fill-opacity="0.2"/>
<path d="M106.405 33.7672C106.405 37.4677 103.543 40.4487 99.927 40.4487C96.3119 40.4487 93.4497 37.4677 93.4497 33.7672C93.4497 30.0666 96.3119 27.0856 99.927 27.0856C103.543 27.0342 106.405 30.0666 106.405 33.7672ZM95.8098 33.7672C95.8098 36.337 97.668 38.2387 99.927 38.2387C102.237 38.2387 104.045 36.337 104.045 33.7672C104.045 31.1973 102.187 29.2957 99.927 29.2957C97.668 29.2443 95.8098 31.1973 95.8098 33.7672Z" fill="#7F7F7F"/>
<path d="M106.405 33.7672C106.405 37.4677 103.543 40.4487 99.927 40.4487C96.3119 40.4487 93.4497 37.4677 93.4497 33.7672C93.4497 30.0666 96.3119 27.0856 99.927 27.0856C103.543 27.0342 106.405 30.0666 106.405 33.7672ZM95.8098 33.7672C95.8098 36.337 97.668 38.2387 99.927 38.2387C102.237 38.2387 104.045 36.337 104.045 33.7672C104.045 31.1973 102.187 29.2957 99.927 29.2957C97.668 29.2443 95.8098 31.1973 95.8098 33.7672Z" fill="black" fill-opacity="0.2"/>
<path d="M58.1487 27.2402C61.7642 27.2402 64.6766 30.0157 64.6766 33.7162C64.6766 37.4168 61.7642 40.1922 58.1487 40.1922H54.2319V27.2402H58.1487ZM56.592 29.2447V38.2391H57.998C60.559 38.2391 62.3165 36.2346 62.3165 33.7676C62.3165 31.3006 60.559 29.2961 57.998 29.2961H56.592V29.2447Z" fill="#7F7F7F"/>
<path d="M58.1487 27.2402C61.7642 27.2402 64.6766 30.0157 64.6766 33.7162C64.6766 37.4168 61.7642 40.1922 58.1487 40.1922H54.2319V27.2402H58.1487ZM56.592 29.2447V38.2391H57.998C60.559 38.2391 62.3165 36.2346 62.3165 33.7676C62.3165 31.3006 60.559 29.2961 57.998 29.2961H56.592V29.2447Z" fill="black" fill-opacity="0.2"/>
<path d="M69.3967 27.2402V40.1922H67.0366V27.2402H69.3967Z" fill="#7F7F7F"/>
<path d="M69.3967 27.2402V40.1922H67.0366V27.2402H69.3967Z" fill="black" fill-opacity="0.2"/>
<path d="M75.7239 38.3928C77.0295 38.3928 77.9333 37.8275 77.9333 36.7481C77.9333 35.9258 77.381 35.5146 76.5775 35.1549L74.4685 34.1269C73.1127 33.4588 71.9578 32.6364 71.9578 30.7861C71.9578 28.5247 73.7655 27.0342 76.1256 27.0342C77.5818 27.0342 78.8372 27.6509 79.5402 28.3191V30.8375C78.5861 29.861 77.2805 29.09 76.0252 29.09C74.9707 29.09 74.1672 29.604 74.1672 30.5805C74.1672 31.3001 74.6694 31.6599 75.3724 32.0197L77.3308 32.9448C79.1887 33.8185 80.1428 34.6923 80.1428 36.4912C80.1428 38.9068 78.1844 40.3973 75.6737 40.3973C74.0668 40.3973 72.6608 39.7805 71.8071 39.1124V36.6454C72.9119 37.6219 74.2677 38.3928 75.7239 38.3928Z" fill="#7F7F7F"/>
<path d="M75.7239 38.3928C77.0295 38.3928 77.9333 37.8275 77.9333 36.7481C77.9333 35.9258 77.381 35.5146 76.5775 35.1549L74.4685 34.1269C73.1127 33.4588 71.9578 32.6364 71.9578 30.7861C71.9578 28.5247 73.7655 27.0342 76.1256 27.0342C77.5818 27.0342 78.8372 27.6509 79.5402 28.3191V30.8375C78.5861 29.861 77.2805 29.09 76.0252 29.09C74.9707 29.09 74.1672 29.604 74.1672 30.5805C74.1672 31.3001 74.6694 31.6599 75.3724 32.0197L77.3308 32.9448C79.1887 33.8185 80.1428 34.6923 80.1428 36.4912C80.1428 38.9068 78.1844 40.3973 75.6737 40.3973C74.0668 40.3973 72.6608 39.7805 71.8071 39.1124V36.6454C72.9119 37.6219 74.2677 38.3928 75.7239 38.3928Z" fill="black" fill-opacity="0.2"/>
<path d="M91.642 36.7485V39.5239C90.6879 40.0893 89.5832 40.4491 88.378 40.4491C84.7626 40.4491 81.8501 37.4681 81.8501 33.7675C81.8501 30.0669 84.7626 27.0859 88.378 27.0859C89.5832 27.0859 90.7381 27.3943 91.642 28.0111V30.7865C90.8888 29.9128 89.7338 29.3988 88.4282 29.3988C86.0179 29.3988 84.2102 31.3005 84.2102 33.8189C84.2102 36.2859 86.0681 38.239 88.4282 38.239C89.7338 38.1362 90.8888 37.6223 91.642 36.7485Z" fill="#7F7F7F"/>
<path d="M91.642 36.7485V39.5239C90.6879 40.0893 89.5832 40.4491 88.378 40.4491C84.7626 40.4491 81.8501 37.4681 81.8501 33.7675C81.8501 30.0669 84.7626 27.0859 88.378 27.0859C89.5832 27.0859 90.7381 27.3943 91.642 28.0111V30.7865C90.8888 29.9128 89.7338 29.3988 88.4282 29.3988C86.0179 29.3988 84.2102 31.3005 84.2102 33.8189C84.2102 36.2859 86.0681 38.239 88.4282 38.239C89.7338 38.1362 90.8888 37.6223 91.642 36.7485Z" fill="black" fill-opacity="0.2"/>
<path d="M106.606 27.2402H109.217L113.134 35.9263L117.051 27.2402H119.511L113.033 40.7062L106.606 27.2402Z" fill="#7F7F7F"/>
<path d="M106.606 27.2402H109.217L113.134 35.9263L117.051 27.2402H119.511L113.033 40.7062L106.606 27.2402Z" fill="black" fill-opacity="0.2"/>
<path d="M145.924 40.2436V34.3844L141.204 27.2402H143.865L147.129 32.1743L150.393 27.2402H153.055L148.335 34.3844V40.1922H145.924V40.2436Z" fill="#7F7F7F"/>
<path d="M145.924 40.2436V34.3844L141.204 27.2402H143.865L147.129 32.1743L150.393 27.2402H153.055L148.335 34.3844V40.1922H145.924V40.2436Z" fill="black" fill-opacity="0.2"/>
<path d="M43.5867 15.0082C43.2854 17.1668 42.2811 24.2595 37.2094 31.1981C32.0875 38.3422 25.3085 41.8372 23.2999 42.8651C21.2411 41.7858 14.5123 38.3422 9.3402 31.1981C4.26848 24.2595 3.26418 17.1668 2.96289 15.0082L6.026 13.3121V10.9478L9.0891 9.2517V6.9389C13.3071 4.883 17.9269 3.5467 23.2999 2.8271C28.6227 3.5467 33.2926 4.883 37.5107 6.9389V9.2517L40.5738 10.9478V13.3121L43.5867 15.0082Z" fill="#7F7F7F"/>
<path d="M43.5867 15.0082C43.2854 17.1668 42.2811 24.2595 37.2094 31.1981C32.0875 38.3422 25.3085 41.8372 23.2999 42.8651C21.2411 41.7858 14.5123 38.3422 9.3402 31.1981C4.26848 24.2595 3.26418 17.1668 2.96289 15.0082L6.026 13.3121V10.9478L9.0891 9.2517V6.9389C13.3071 4.883 17.9269 3.5467 23.2999 2.8271C28.6227 3.5467 33.2926 4.883 37.5107 6.9389V9.2517L40.5738 10.9478V13.3121L43.5867 15.0082Z" fill="black" fill-opacity="0.2"/>
<path d="M43.235 11.667V9.3542L40.1719 7.6581V5.2425L38.6654 4.4201C34.2465 2.2615 29.3255 0.822299 23.6512 0.0513992L23.2997 0L22.9482 0.0513992C17.2739 0.822299 12.4031 2.2615 7.9339 4.4201L6.37728 5.1911V7.6067L3.31418 9.3028V11.6156L0 13.4659L0.25107 15.419C1.10473 21.895 3.41461 27.8056 7.1305 32.8939C10.8464 38.0335 15.8679 42.248 22.0443 45.4346L23.2495 46.0514L24.4546 45.4346C30.6813 42.248 35.7027 38.0335 39.4186 32.8425C43.0843 27.7542 45.3942 21.8436 46.2981 15.3676L46.5491 13.4145L43.235 11.667ZM43.5865 15.0078C43.2852 17.1665 42.2809 24.2592 37.2092 31.1978C32.0873 38.3419 25.3083 41.8369 23.2997 42.8648C21.2409 41.7855 14.5121 38.3419 9.34 31.1978C4.26826 24.2592 3.26396 17.1665 2.96267 15.0078L6.02578 13.3117V10.9475L9.0889 9.2514V6.9385C13.3069 4.8827 17.9267 3.5464 23.2997 2.8268C28.6225 3.5464 33.2924 4.8827 37.5105 6.9385V9.2514L40.5736 10.9475V13.3117L43.5865 15.0078Z" fill="#999999"/>
<path d="M18.7304 8.48041L18.881 27.4972L18.7304 27.6C16.772 22.5117 15.5668 16.1385 15.2153 9.81671C14.2612 10.2793 13.2067 10.7933 12.1522 11.5128C12.5539 17.2692 13.5582 22.3575 15.2655 27.1374L14.2612 27.7027C11.6501 24.0022 9.9428 19.4279 8.7878 14.0826C7.9844 14.8022 7.181 15.6245 6.42773 16.5497C7.9342 23.0257 10.3445 27.9083 13.8595 31.8659L16.5711 30.2212C17.8767 33.048 19.7347 35.8234 21.7935 38.0335V7.91501C20.7892 8.01781 19.7849 8.17201 18.7304 8.48041Z" fill="#999999"/>
<path d="M36.1043 18.2458C37.2091 17.0122 37.4601 16.0871 37.4601 15.0078C37.4601 13.4659 36.2048 12.0782 34.397 10.896C33.2923 10.1765 31.585 9.30271 29.1245 8.58321C27.7185 8.17201 26.212 7.96641 24.7056 7.91501V38.0335C30.882 34.7955 38.2134 25.8525 38.2636 21.3296C38.3138 19.8905 37.5606 18.9653 36.1043 18.2458ZM27.7687 11.5128C29.2751 11.5128 34.1962 13.1061 34.1962 15.1106C34.1962 15.8301 33.5936 16.8581 31.6352 17.9374L27.7687 20.0446V11.5128ZM31.585 28.1653C30.7313 29.1933 29.2751 30.7352 27.7687 31.9687V23.3854C27.7687 23.3854 33.3425 20.1474 33.5434 20.0446C35.2005 20.4558 35.1503 21.7407 35.1503 21.8435C35.1503 23.4368 33.5434 25.8525 31.585 28.1653Z" fill="#999999"/>
</svg>
