<?xml version="1.0" encoding="UTF-8"?> <svg xmlns="http://www.w3.org/2000/svg" width="88" height="46" viewBox="0 0 88 46" fill="none"><path d="M47.3486 44.6243H50.7307V31.0961H47.3486V44.6243ZM3.38205 33.0689V31.0961H0V44.6243H3.38205V38.2359C3.38205 36.357 3.56994 35.6994 4.13361 35.0418C4.60334 34.4781 5.35491 34.1023 6.10647 34.1963C6.5762 34.1963 7.04593 34.2902 7.51566 34.4781L9.20668 31.4719C8.36117 31.0021 7.51566 30.8142 6.67015 30.8142C5.26096 30.7203 3.85177 31.6597 3.38205 33.0689ZM14.6555 33.6326C16.3466 33.6326 17.1921 35.1357 17.1921 36.7328H11.8372C12.119 34.666 13.1524 33.6326 14.6555 33.6326ZM8.36117 37.9541C8.36117 42.4635 10.8977 45 15.4071 45C17.0042 45 18.6012 44.7182 20.1044 44.0606L18.977 41.2422C17.9436 41.7119 16.8163 41.9938 15.6889 41.9938C13.4342 41.9938 12.2129 41.0543 11.9311 39.2693H20.4802C20.5741 38.6117 20.5741 38.0481 20.5741 37.3904C20.5741 34.0084 19.1649 30.9082 15.0313 30.9082C10.5219 30.8142 8.45511 34.2902 8.36117 37.9541ZM21.7015 37.9541C21.7015 42.4635 24.4259 45 28.5595 45C29.9687 45 31.2839 44.7182 32.5992 44.1545L31.4718 41.2422C30.6263 41.7119 29.6868 41.9938 28.7474 41.8998C26.5866 41.8998 25.1775 40.5846 25.1775 37.8602C25.1775 35.3236 26.4927 33.8205 28.8413 33.8205C29.7808 33.8205 30.7202 34.0084 31.5658 34.5721L32.6931 31.6597C31.3779 31.0961 29.9687 30.8142 28.5595 30.8142C24.238 30.8142 21.7015 33.7266 21.7015 37.9541ZM62.0981 28.6535V31.0961H57.4948V26.3048L54.1127 28.6535V31.0961H52.0459V33.9144H54.1127V40.5846C53.8309 42.6514 55.2401 44.6243 57.3069 45C57.6827 45.094 58.0584 45.094 58.4342 45C59.4676 45 60.501 44.8121 61.4405 44.3424L60.3131 41.524C59.8434 41.8059 59.3737 41.8998 58.904 41.8998C57.8706 41.8998 57.4948 41.3362 57.4948 40.3967V34.0084H62.0981V40.6785C61.8163 42.7453 63.2255 44.7182 65.2923 45.094C65.6681 45.1879 66.0438 45.1879 66.4196 45.094C67.453 45.094 68.4864 44.9061 69.4259 44.4364L68.2985 41.618C67.8288 41.8998 67.3591 41.9938 66.8893 41.9938C65.8559 41.9938 65.4802 41.4301 65.4802 40.3967V34.0084H69.0501V31.19H65.4802V26.3048L62.0981 28.6535ZM46.8789 27.5261C46.8789 28.6535 47.8184 29.5929 49.0397 29.5929C50.167 29.5929 51.1065 28.6535 51.1065 27.4322C51.1065 26.3048 50.167 25.3654 49.0397 25.3654C47.8184 25.3654 46.8789 26.3048 46.8789 27.5261ZM34.0083 27.1504V44.6243H37.3904V38.3299L41.7119 44.6243H45.9395L40.5845 37.1086L46.0334 31.0961H41.618L37.3904 36.0752V24.7078L34.0083 27.1504Z" fill="#858585"></path><path d="M57.4948 16.3466C57.4948 19.3528 58.1524 22.2651 59.4676 24.9896L63.4133 22.1712C62.4739 20.1983 62.0041 18.0376 62.0981 15.8768C62.0981 9.11274 67.0772 3.94572 73.4655 3.94572C79.6659 3.94572 83.5177 8.36117 83.5177 13.9979C83.5177 19.071 80.1357 22.3591 75.7202 22.3591C71.4927 22.3591 68.5803 19.4468 68.5803 15.4071C68.5803 11.8372 70.835 9.39457 73.5595 9.39457C75.6263 9.39457 76.7536 10.334 76.7536 11.8372C76.7536 13.5282 74.9687 14.4676 73.1837 13.9979L71.3048 15.3132C72.9018 17.286 74.6868 18.977 76.7536 20.3862L78.7265 18.977C77.5991 18.1315 76.4718 17.1921 75.5323 16.1587C77.787 15.9708 79.572 13.9979 79.478 11.7432C79.478 8.73695 77.3173 6.5762 73.5595 6.5762C69.0501 6.5762 65.2922 10.2401 65.2922 15.501C65.2922 21.3257 69.5198 25.6472 75.7202 25.6472C82.5783 25.7411 87.3695 20.6681 87.3695 13.904C87.3695 5.82464 81.8267 0 73.2776 0C64.5407 0 57.4948 6.76409 57.4948 16.3466Z" fill="#858585"></path></svg> 