<svg width="51" height="18" viewBox="0 0 51 18" fill="none" xmlns="http://www.w3.org/2000/svg">
<path d="M3.00781 6.79849C3.33639 6.47454 3.58283 6.27207 3.87034 6.11009C4.11677 5.94812 4.44536 5.86714 4.85608 5.86714C5.47217 5.86714 5.8829 6.06961 6.17041 6.47455C6.41685 6.87949 6.54006 7.4059 6.54006 8.0943V12.4676C6.54006 12.6701 6.45792 12.7511 6.25256 12.8321C6.04719 12.8726 5.80075 12.9131 5.51325 12.9536V13.156H9.08657V12.994C8.96335 12.994 8.88121 12.9536 8.75799 12.9536C8.63477 12.9536 8.51155 12.9131 8.42941 12.8726C8.30619 12.8321 8.22405 12.7916 8.1419 12.7511C8.05976 12.7106 8.01868 12.6296 8.01868 12.5486V7.44638C8.01868 6.677 7.85439 6.02911 7.48474 5.50269C7.11508 5.01676 6.58114 4.7738 5.92397 4.7738C5.59539 4.7738 5.30788 4.85479 5.02037 4.97627C4.73287 5.09775 4.44536 5.25972 4.19892 5.42169C3.95248 5.62416 3.74712 5.82663 3.54176 6.0291C3.3364 6.27206 3.1721 6.47455 3.04888 6.67702" fill="#7F7F7F"/>
<path d="M3.00781 6.79849C3.33639 6.47454 3.58283 6.27207 3.87034 6.11009C4.11677 5.94812 4.44536 5.86714 4.85608 5.86714C5.47217 5.86714 5.8829 6.06961 6.17041 6.47455C6.41685 6.87949 6.54006 7.4059 6.54006 8.0943V12.4676C6.54006 12.6701 6.45792 12.7511 6.25256 12.8321C6.04719 12.8726 5.80075 12.9131 5.51325 12.9536V13.156H9.08657V12.994C8.96335 12.994 8.88121 12.9536 8.75799 12.9536C8.63477 12.9536 8.51155 12.9131 8.42941 12.8726C8.30619 12.8321 8.22405 12.7916 8.1419 12.7511C8.05976 12.7106 8.01868 12.6296 8.01868 12.5486V7.44638C8.01868 6.677 7.85439 6.02911 7.48474 5.50269C7.11508 5.01676 6.58114 4.7738 5.92397 4.7738C5.59539 4.7738 5.30788 4.85479 5.02037 4.97627C4.73287 5.09775 4.44536 5.25972 4.19892 5.42169C3.95248 5.62416 3.74712 5.82663 3.54176 6.0291C3.3364 6.27206 3.1721 6.47455 3.04888 6.67702" fill="black" fill-opacity="0.2"/>
<path d="M2.55616 7.08201V12.4677C2.59723 12.5892 2.63831 12.6701 2.67938 12.7106C2.72045 12.7511 2.8026 12.7916 2.88474 12.8321C2.96689 12.8726 3.04903 12.8726 3.17225 12.8726C3.29547 12.8726 3.37761 12.8726 3.50083 12.9131V13.0751H0.0917969V12.9131C0.379306 12.8726 0.584668 12.8321 0.790031 12.7511C0.995395 12.6702 1.07754 12.5487 1.07754 12.3462V6.39361C1.07754 6.31263 1.07754 6.23164 1.03647 6.19115C1.03647 6.15065 0.954324 6.11015 0.872179 6.02916C0.748961 5.98867 0.625742 5.90768 0.502524 5.82669C0.379306 5.7457 0.215015 5.70521 0.0917969 5.62422V5.50275L2.39187 4.69287H2.51509L2.55616 7.08201Z" fill="#7F7F7F"/>
<path d="M2.55616 7.08201V12.4677C2.59723 12.5892 2.63831 12.6701 2.67938 12.7106C2.72045 12.7511 2.8026 12.7916 2.88474 12.8321C2.96689 12.8726 3.04903 12.8726 3.17225 12.8726C3.29547 12.8726 3.37761 12.8726 3.50083 12.9131V13.0751H0.0917969V12.9131C0.379306 12.8726 0.584668 12.8321 0.790031 12.7511C0.995395 12.6702 1.07754 12.5487 1.07754 12.3462V6.39361C1.07754 6.31263 1.07754 6.23164 1.03647 6.19115C1.03647 6.15065 0.954324 6.11015 0.872179 6.02916C0.748961 5.98867 0.625742 5.90768 0.502524 5.82669C0.379306 5.7457 0.215015 5.70521 0.0917969 5.62422V5.50275L2.39187 4.69287H2.51509L2.55616 7.08201Z" fill="black" fill-opacity="0.2"/>
<path d="M44.7378 6.79849C45.0664 6.47454 45.3128 6.27207 45.5592 6.11009C45.8057 5.94812 46.1343 5.86714 46.545 5.86714C47.1611 5.86714 47.5718 6.06961 47.8593 6.47455C48.1058 6.87949 48.229 7.4059 48.229 8.0943V12.4676C48.229 12.6701 48.1468 12.7511 47.9415 12.8321C47.7361 12.8726 47.4897 12.9131 47.2022 12.9536V13.156H50.7755V12.994C50.6523 12.994 50.5701 12.9536 50.4469 12.9536C50.3237 12.9536 50.2005 12.9131 50.1183 12.8726C49.9951 12.8321 49.913 12.7916 49.8308 12.7511C49.7487 12.7106 49.7076 12.6296 49.7076 12.5486V7.44638C49.7076 6.677 49.5433 6.02911 49.1736 5.50269C48.804 5.01676 48.27 4.7738 47.6129 4.7738C47.2843 4.7738 46.9968 4.81431 46.7093 4.93579C46.4218 5.05727 46.1343 5.21924 45.8878 5.38121C45.6414 5.58368 45.436 5.78615 45.2307 5.98862C45.0253 6.23158 44.861 6.43404 44.7378 6.63651" fill="#7F7F7F"/>
<path d="M44.7378 6.79849C45.0664 6.47454 45.3128 6.27207 45.5592 6.11009C45.8057 5.94812 46.1343 5.86714 46.545 5.86714C47.1611 5.86714 47.5718 6.06961 47.8593 6.47455C48.1058 6.87949 48.229 7.4059 48.229 8.0943V12.4676C48.229 12.6701 48.1468 12.7511 47.9415 12.8321C47.7361 12.8726 47.4897 12.9131 47.2022 12.9536V13.156H50.7755V12.994C50.6523 12.994 50.5701 12.9536 50.4469 12.9536C50.3237 12.9536 50.2005 12.9131 50.1183 12.8726C49.9951 12.8321 49.913 12.7916 49.8308 12.7511C49.7487 12.7106 49.7076 12.6296 49.7076 12.5486V7.44638C49.7076 6.677 49.5433 6.02911 49.1736 5.50269C48.804 5.01676 48.27 4.7738 47.6129 4.7738C47.2843 4.7738 46.9968 4.81431 46.7093 4.93579C46.4218 5.05727 46.1343 5.21924 45.8878 5.38121C45.6414 5.58368 45.436 5.78615 45.2307 5.98862C45.0253 6.23158 44.861 6.43404 44.7378 6.63651" fill="black" fill-opacity="0.2"/>
<path d="M44.2861 7.08201V12.4677C44.3272 12.5892 44.3683 12.6701 44.4094 12.7106C44.4504 12.7511 44.5326 12.7916 44.6147 12.8321C44.6969 12.8726 44.779 12.8726 44.9022 12.8726C45.0254 12.8726 45.1076 12.8726 45.2308 12.9131V13.0751H41.8218V12.9131C42.1093 12.8726 42.3146 12.8321 42.52 12.7511C42.7254 12.6702 42.8075 12.5487 42.8075 12.3462V6.39361C42.8075 6.31263 42.8075 6.23164 42.7664 6.19115C42.7664 6.15065 42.6843 6.11015 42.6022 6.02916C42.4789 5.98867 42.3557 5.90768 42.2325 5.82669C42.1093 5.7457 41.945 5.70521 41.8218 5.62422V5.50275L44.1218 4.69287H44.2451L44.2861 7.08201Z" fill="#7F7F7F"/>
<path d="M44.2861 7.08201V12.4677C44.3272 12.5892 44.3683 12.6701 44.4094 12.7106C44.4504 12.7511 44.5326 12.7916 44.6147 12.8321C44.6969 12.8726 44.779 12.8726 44.9022 12.8726C45.0254 12.8726 45.1076 12.8726 45.2308 12.9131V13.0751H41.8218V12.9131C42.1093 12.8726 42.3146 12.8321 42.52 12.7511C42.7254 12.6702 42.8075 12.5487 42.8075 12.3462V6.39361C42.8075 6.31263 42.8075 6.23164 42.7664 6.19115C42.7664 6.15065 42.6843 6.11015 42.6022 6.02916C42.4789 5.98867 42.3557 5.90768 42.2325 5.82669C42.1093 5.7457 41.945 5.70521 41.8218 5.62422V5.50275L44.1218 4.69287H44.2451L44.2861 7.08201Z" fill="black" fill-opacity="0.2"/>
<path d="M9.49756 13.1155V12.9535C9.62078 12.9535 9.78507 12.913 9.90829 12.913C10.0315 12.913 10.1958 12.8726 10.2779 12.8321C10.4012 12.7916 10.4833 12.7511 10.5655 12.6701C10.6476 12.5891 10.6887 12.5081 10.6887 12.3866V6.35307C10.6887 6.27208 10.6887 6.19108 10.6476 6.11009C10.6476 6.0291 10.5655 5.98861 10.4833 5.90762C10.3601 5.82663 10.2369 5.78614 10.1136 5.70515C9.94936 5.62417 9.82614 5.58367 9.62078 5.50268V5.38121L12.0441 4.61182H12.1673V12.4676C12.2084 12.5891 12.2494 12.6701 12.3316 12.7106C12.4137 12.7511 12.4959 12.7916 12.6191 12.8321C12.7423 12.8726 12.8245 12.8726 12.9477 12.8726C13.0709 12.8726 13.1941 12.8725 13.3173 12.913V13.075L9.49756 13.1155Z" fill="#7F7F7F"/>
<path d="M9.49756 13.1155V12.9535C9.62078 12.9535 9.78507 12.913 9.90829 12.913C10.0315 12.913 10.1958 12.8726 10.2779 12.8321C10.4012 12.7916 10.4833 12.7511 10.5655 12.6701C10.6476 12.5891 10.6887 12.5081 10.6887 12.3866V6.35307C10.6887 6.27208 10.6887 6.19108 10.6476 6.11009C10.6476 6.0291 10.5655 5.98861 10.4833 5.90762C10.3601 5.82663 10.2369 5.78614 10.1136 5.70515C9.94936 5.62417 9.82614 5.58367 9.62078 5.50268V5.38121L12.0441 4.61182H12.1673V12.4676C12.2084 12.5891 12.2494 12.6701 12.3316 12.7106C12.4137 12.7511 12.4959 12.7916 12.6191 12.8321C12.7423 12.8726 12.8245 12.8726 12.9477 12.8726C13.0709 12.8726 13.1941 12.8725 13.3173 12.913V13.075L9.49756 13.1155Z" fill="black" fill-opacity="0.2"/>
<path d="M12.0442 2.83014C11.8799 2.99212 11.6335 3.1136 11.3871 3.1136C11.1406 3.1136 10.8942 3.03261 10.7299 2.83014C10.5656 2.62767 10.4424 2.42519 10.4424 2.18223C10.4424 1.89877 10.5245 1.69631 10.7299 1.53433C10.8942 1.37236 11.1406 1.29138 11.3871 1.29138C11.6335 1.29138 11.8799 1.37236 12.0442 1.53433C12.2085 1.69631 12.3317 1.93926 12.3317 2.18223C12.3317 2.42519 12.2085 2.66817 12.0442 2.83014Z" fill="#7F7F7F"/>
<path d="M12.0442 2.83014C11.8799 2.99212 11.6335 3.1136 11.3871 3.1136C11.1406 3.1136 10.8942 3.03261 10.7299 2.83014C10.5656 2.62767 10.4424 2.42519 10.4424 2.18223C10.4424 1.89877 10.5245 1.69631 10.7299 1.53433C10.8942 1.37236 11.1406 1.29138 11.3871 1.29138C11.6335 1.29138 11.8799 1.37236 12.0442 1.53433C12.2085 1.69631 12.3317 1.93926 12.3317 2.18223C12.3317 2.42519 12.2085 2.66817 12.0442 2.83014Z" fill="black" fill-opacity="0.2"/>
<path d="M35.3322 7.24391C35.3733 7.12243 35.4144 6.91996 35.5376 6.63651C35.6608 6.35305 35.784 6.1101 35.9894 5.86714C36.1948 5.62418 36.4001 5.38121 36.6876 5.17874C36.9752 4.97627 37.2627 4.89528 37.5912 4.89528C38.0841 4.89528 38.4948 5.05726 38.8234 5.38121C39.1109 5.70516 39.2752 6.0696 39.2752 6.51503C39.2752 6.677 39.2341 6.7985 39.1931 6.87948C39.152 6.96047 39.0699 7.04146 38.9877 7.16294C38.8645 7.20344 38.7413 7.24391 38.577 7.24391C38.4127 7.24391 38.2484 7.24391 38.0841 7.24391C37.7966 7.24391 37.5502 7.24391 37.3448 7.24391C37.0984 7.24391 36.893 7.24391 36.6876 7.24391C36.4823 7.24391 36.3591 7.24391 36.1537 7.24391L36.0716 7.48689H41.0413C41.0003 7.00096 40.8771 6.55553 40.7128 6.19108C40.5074 5.82664 40.261 5.54318 39.9735 5.30022C39.686 5.05725 39.3163 4.89528 38.9056 4.7738C38.4948 4.65232 38.043 4.61182 37.5912 4.61182C37.0162 4.61182 36.4823 4.73331 36.0305 4.97627C35.5787 5.21923 35.168 5.54318 34.8394 5.90762C34.5108 6.31256 34.2644 6.7175 34.059 7.20343C33.8947 7.68935 33.7715 8.17527 33.7715 8.66119C33.7715 9.2686 33.8536 9.83553 34.059 10.4024C34.2644 10.9289 34.5108 11.4148 34.8804 11.8197C35.2501 12.2247 35.6608 12.5486 36.1537 12.7511C36.6466 12.9536 37.2216 13.075 37.8377 13.075C38.3305 13.075 38.7824 12.994 39.152 12.7916C39.5627 12.6296 39.8913 12.3866 40.1788 12.1032C40.4663 11.8197 40.7128 11.5363 40.8771 11.2123C41.0414 10.8884 41.1646 10.6049 41.2056 10.3215L41.0824 10.2809C40.9592 10.7264 40.6306 11.0908 40.1788 11.3743C39.727 11.6577 39.1931 11.8197 38.6181 11.8197C38.0841 11.8197 37.5912 11.7387 37.1805 11.5363C36.7698 11.3338 36.4001 11.0503 36.1537 10.7264C35.8662 10.3619 35.6608 9.9975 35.5376 9.51158C35.4144 9.06615 35.3322 8.58022 35.3322 8.0943C35.3322 7.97282 35.3322 7.85132 35.3322 7.72984C35.3322 7.60836 35.3322 7.48689 35.3322 7.4059V7.24391Z" fill="#7F7F7F"/>
<path d="M35.3322 7.24391C35.3733 7.12243 35.4144 6.91996 35.5376 6.63651C35.6608 6.35305 35.784 6.1101 35.9894 5.86714C36.1948 5.62418 36.4001 5.38121 36.6876 5.17874C36.9752 4.97627 37.2627 4.89528 37.5912 4.89528C38.0841 4.89528 38.4948 5.05726 38.8234 5.38121C39.1109 5.70516 39.2752 6.0696 39.2752 6.51503C39.2752 6.677 39.2341 6.7985 39.1931 6.87948C39.152 6.96047 39.0699 7.04146 38.9877 7.16294C38.8645 7.20344 38.7413 7.24391 38.577 7.24391C38.4127 7.24391 38.2484 7.24391 38.0841 7.24391C37.7966 7.24391 37.5502 7.24391 37.3448 7.24391C37.0984 7.24391 36.893 7.24391 36.6876 7.24391C36.4823 7.24391 36.3591 7.24391 36.1537 7.24391L36.0716 7.48689H41.0413C41.0003 7.00096 40.8771 6.55553 40.7128 6.19108C40.5074 5.82664 40.261 5.54318 39.9735 5.30022C39.686 5.05725 39.3163 4.89528 38.9056 4.7738C38.4948 4.65232 38.043 4.61182 37.5912 4.61182C37.0162 4.61182 36.4823 4.73331 36.0305 4.97627C35.5787 5.21923 35.168 5.54318 34.8394 5.90762C34.5108 6.31256 34.2644 6.7175 34.059 7.20343C33.8947 7.68935 33.7715 8.17527 33.7715 8.66119C33.7715 9.2686 33.8536 9.83553 34.059 10.4024C34.2644 10.9289 34.5108 11.4148 34.8804 11.8197C35.2501 12.2247 35.6608 12.5486 36.1537 12.7511C36.6466 12.9536 37.2216 13.075 37.8377 13.075C38.3305 13.075 38.7824 12.994 39.152 12.7916C39.5627 12.6296 39.8913 12.3866 40.1788 12.1032C40.4663 11.8197 40.7128 11.5363 40.8771 11.2123C41.0414 10.8884 41.1646 10.6049 41.2056 10.3215L41.0824 10.2809C40.9592 10.7264 40.6306 11.0908 40.1788 11.3743C39.727 11.6577 39.1931 11.8197 38.6181 11.8197C38.0841 11.8197 37.5912 11.7387 37.1805 11.5363C36.7698 11.3338 36.4001 11.0503 36.1537 10.7264C35.8662 10.3619 35.6608 9.9975 35.5376 9.51158C35.4144 9.06615 35.3322 8.58022 35.3322 8.0943C35.3322 7.97282 35.3322 7.85132 35.3322 7.72984C35.3322 7.60836 35.3322 7.48689 35.3322 7.4059V7.24391Z" fill="black" fill-opacity="0.2"/>
<path d="M15.4528 7.24391C15.4939 7.12243 15.535 6.91996 15.6582 6.63651C15.7814 6.35305 15.9046 6.1101 16.11 5.86714C16.3154 5.62418 16.5207 5.38121 16.8082 5.17874C17.0958 4.97627 17.3833 4.89528 17.7118 4.89528C18.2047 4.89528 18.6154 5.05726 18.944 5.38121C19.2315 5.70516 19.3958 6.0696 19.3958 6.51503C19.3958 6.677 19.3548 6.7985 19.3137 6.87948C19.2726 6.96047 19.1905 7.04146 19.1083 7.16294C18.9851 7.20344 18.8619 7.24391 18.6976 7.24391C18.5333 7.24391 18.369 7.24391 18.2047 7.24391C17.9172 7.24391 17.6708 7.24391 17.4654 7.24391C17.219 7.24391 17.0136 7.24391 16.8082 7.24391C16.6029 7.24391 16.4797 7.24391 16.2743 7.24391L16.1922 7.48689H21.162C21.1209 7.00096 20.9977 6.55553 20.8334 6.19108C20.628 5.82664 20.3816 5.54318 20.0941 5.30022C19.8066 5.05725 19.4369 4.89528 19.0262 4.7738C18.6154 4.65232 18.1636 4.61182 17.7118 4.61182C17.1368 4.61182 16.6029 4.73331 16.1511 4.97627C15.6993 5.21923 15.2886 5.54318 14.96 5.90762C14.6314 6.31256 14.385 6.7175 14.1796 7.20343C14.0153 7.68935 13.8921 8.17527 13.8921 8.66119C13.8921 9.2686 13.9742 9.83553 14.1796 10.4024C14.385 10.9289 14.6314 11.4148 15.0011 11.8197C15.3707 12.2247 15.7814 12.5486 16.2743 12.7511C16.7672 12.9536 17.3422 13.075 17.9583 13.075C18.4512 13.075 18.903 12.994 19.2726 12.7916C19.6833 12.6296 20.0119 12.3866 20.2994 12.1032C20.5869 11.8197 20.8334 11.5363 20.9977 11.2123C21.162 10.8884 21.2852 10.6049 21.3262 10.3215L21.203 10.2809C21.0798 10.7264 20.7512 11.0908 20.2994 11.3743C19.8476 11.6577 19.3137 11.8197 18.7387 11.8197C18.2047 11.8197 17.7118 11.7387 17.3011 11.5363C16.8904 11.3338 16.5207 11.0503 16.2743 10.7264C15.9868 10.3619 15.7814 9.9975 15.6582 9.51158C15.535 9.06615 15.4528 8.58022 15.4528 8.0943C15.4528 7.97282 15.4528 7.85132 15.4528 7.72984C15.4528 7.60836 15.4528 7.48689 15.4528 7.4059V7.24391Z" fill="#7F7F7F"/>
<path d="M15.4528 7.24391C15.4939 7.12243 15.535 6.91996 15.6582 6.63651C15.7814 6.35305 15.9046 6.1101 16.11 5.86714C16.3154 5.62418 16.5207 5.38121 16.8082 5.17874C17.0958 4.97627 17.3833 4.89528 17.7118 4.89528C18.2047 4.89528 18.6154 5.05726 18.944 5.38121C19.2315 5.70516 19.3958 6.0696 19.3958 6.51503C19.3958 6.677 19.3548 6.7985 19.3137 6.87948C19.2726 6.96047 19.1905 7.04146 19.1083 7.16294C18.9851 7.20344 18.8619 7.24391 18.6976 7.24391C18.5333 7.24391 18.369 7.24391 18.2047 7.24391C17.9172 7.24391 17.6708 7.24391 17.4654 7.24391C17.219 7.24391 17.0136 7.24391 16.8082 7.24391C16.6029 7.24391 16.4797 7.24391 16.2743 7.24391L16.1922 7.48689H21.162C21.1209 7.00096 20.9977 6.55553 20.8334 6.19108C20.628 5.82664 20.3816 5.54318 20.0941 5.30022C19.8066 5.05725 19.4369 4.89528 19.0262 4.7738C18.6154 4.65232 18.1636 4.61182 17.7118 4.61182C17.1368 4.61182 16.6029 4.73331 16.1511 4.97627C15.6993 5.21923 15.2886 5.54318 14.96 5.90762C14.6314 6.31256 14.385 6.7175 14.1796 7.20343C14.0153 7.68935 13.8921 8.17527 13.8921 8.66119C13.8921 9.2686 13.9742 9.83553 14.1796 10.4024C14.385 10.9289 14.6314 11.4148 15.0011 11.8197C15.3707 12.2247 15.7814 12.5486 16.2743 12.7511C16.7672 12.9536 17.3422 13.075 17.9583 13.075C18.4512 13.075 18.903 12.994 19.2726 12.7916C19.6833 12.6296 20.0119 12.3866 20.2994 12.1032C20.5869 11.8197 20.8334 11.5363 20.9977 11.2123C21.162 10.8884 21.2852 10.6049 21.3262 10.3215L21.203 10.2809C21.0798 10.7264 20.7512 11.0908 20.2994 11.3743C19.8476 11.6577 19.3137 11.8197 18.7387 11.8197C18.2047 11.8197 17.7118 11.7387 17.3011 11.5363C16.8904 11.3338 16.5207 11.0503 16.2743 10.7264C15.9868 10.3619 15.7814 9.9975 15.6582 9.51158C15.535 9.06615 15.4528 8.58022 15.4528 8.0943C15.4528 7.97282 15.4528 7.85132 15.4528 7.72984C15.4528 7.60836 15.4528 7.48689 15.4528 7.4059V7.24391Z" fill="black" fill-opacity="0.2"/>
<path d="M21.6548 13.1155V12.9131C22.1887 12.8726 22.5584 12.8321 22.7637 12.7511C22.928 12.6701 23.0513 12.5486 23.0513 12.3462V2.22271C23.0513 2.14173 23.0513 2.06074 23.0102 2.02025C23.0102 1.97975 22.928 1.93925 22.8459 1.85826C22.7227 1.81777 22.5584 1.69628 22.353 1.5748C22.1477 1.45332 21.9423 1.37235 21.8191 1.29136V1.16986L24.3656 0.359985H24.4888V12.4272C24.4888 12.5486 24.5299 12.6296 24.5709 12.7106C24.612 12.7511 24.6942 12.7916 24.8174 12.8321C24.9406 12.8726 25.0638 12.8726 25.2281 12.8726C25.3924 12.8726 25.5978 12.9131 25.8031 12.9131V13.1155H21.6548Z" fill="#7F7F7F"/>
<path d="M21.6548 13.1155V12.9131C22.1887 12.8726 22.5584 12.8321 22.7637 12.7511C22.928 12.6701 23.0513 12.5486 23.0513 12.3462V2.22271C23.0513 2.14173 23.0513 2.06074 23.0102 2.02025C23.0102 1.97975 22.928 1.93925 22.8459 1.85826C22.7227 1.81777 22.5584 1.69628 22.353 1.5748C22.1477 1.45332 21.9423 1.37235 21.8191 1.29136V1.16986L24.3656 0.359985H24.4888V12.4272C24.4888 12.5486 24.5299 12.6296 24.5709 12.7106C24.612 12.7511 24.6942 12.7916 24.8174 12.8321C24.9406 12.8726 25.0638 12.8726 25.2281 12.8726C25.3924 12.8726 25.5978 12.9131 25.8031 12.9131V13.1155H21.6548Z" fill="black" fill-opacity="0.2"/>
<path d="M32.4163 11.6983C32.252 12.0223 31.9645 12.3057 31.677 12.5082C31.3484 12.7107 31.0198 12.8727 30.6091 12.9536C30.1984 13.0346 29.7877 13.0751 29.3359 13.0751C28.8019 13.0751 28.309 13.0346 27.8572 12.9536C27.4054 12.8727 26.9536 12.7107 26.584 12.5487V10.2001H26.7072C26.7893 10.4835 26.9126 10.767 27.0769 11.0909C27.2411 11.4149 27.4054 11.6983 27.6108 11.9413C27.8162 12.1843 28.0626 12.4272 28.3501 12.5892C28.6376 12.7512 28.9662 12.8322 29.3769 12.8322C29.9519 12.8322 30.4037 12.6702 30.7323 12.3462C31.0609 12.0223 31.2252 11.5364 31.2252 10.848C31.2252 10.4835 31.102 10.2001 30.8966 9.9571C30.6502 9.71413 30.3627 9.55215 29.9519 9.47117C29.6234 9.43067 29.3359 9.34968 29.0073 9.2687C28.7198 9.18771 28.4323 9.10673 28.1858 9.02574C27.734 8.86377 27.3644 8.62081 27.0769 8.21587C26.7893 7.85142 26.6661 7.40598 26.6661 6.83907C26.6661 6.47463 26.7483 6.15069 26.9126 5.86723C27.0769 5.58378 27.2822 5.30031 27.5287 5.09784C27.7751 4.89537 28.1037 4.73339 28.4323 4.61191C28.7608 4.49043 29.1305 4.44995 29.5412 4.44995C30.0341 4.44995 30.4859 4.49044 30.8555 4.57143C31.2252 4.65242 31.5949 4.77389 31.9645 4.89537L32.1699 7.08205L32.0467 7.12253C31.8824 6.75809 31.7181 6.43415 31.5538 6.15069C31.3895 5.86724 31.1841 5.58377 30.9788 5.3813C30.7734 5.17883 30.527 4.97636 30.2805 4.89537C30.0341 4.77389 29.7466 4.73341 29.3769 4.73341C29.1716 4.73341 28.9662 4.7739 28.7608 4.85489C28.5555 4.93588 28.3912 5.01686 28.2269 5.17883C28.0626 5.30032 27.9394 5.50278 27.8572 5.70525C27.7751 5.90772 27.734 6.15068 27.734 6.43413C27.734 6.87956 27.8572 7.16304 28.1037 7.36551C28.3501 7.56798 28.6787 7.68946 29.0483 7.77045C29.2948 7.81094 29.5823 7.89193 29.9109 7.97292C30.2395 8.0539 30.4859 8.0944 30.7323 8.17538C31.2663 8.29687 31.7181 8.58032 32.0877 8.98526C32.4574 9.3902 32.6627 9.9166 32.6627 10.4835C32.6627 10.9694 32.5806 11.3744 32.4163 11.6983Z" fill="#7F7F7F"/>
<path d="M32.4163 11.6983C32.252 12.0223 31.9645 12.3057 31.677 12.5082C31.3484 12.7107 31.0198 12.8727 30.6091 12.9536C30.1984 13.0346 29.7877 13.0751 29.3359 13.0751C28.8019 13.0751 28.309 13.0346 27.8572 12.9536C27.4054 12.8727 26.9536 12.7107 26.584 12.5487V10.2001H26.7072C26.7893 10.4835 26.9126 10.767 27.0769 11.0909C27.2411 11.4149 27.4054 11.6983 27.6108 11.9413C27.8162 12.1843 28.0626 12.4272 28.3501 12.5892C28.6376 12.7512 28.9662 12.8322 29.3769 12.8322C29.9519 12.8322 30.4037 12.6702 30.7323 12.3462C31.0609 12.0223 31.2252 11.5364 31.2252 10.848C31.2252 10.4835 31.102 10.2001 30.8966 9.9571C30.6502 9.71413 30.3627 9.55215 29.9519 9.47117C29.6234 9.43067 29.3359 9.34968 29.0073 9.2687C28.7198 9.18771 28.4323 9.10673 28.1858 9.02574C27.734 8.86377 27.3644 8.62081 27.0769 8.21587C26.7893 7.85142 26.6661 7.40598 26.6661 6.83907C26.6661 6.47463 26.7483 6.15069 26.9126 5.86723C27.0769 5.58378 27.2822 5.30031 27.5287 5.09784C27.7751 4.89537 28.1037 4.73339 28.4323 4.61191C28.7608 4.49043 29.1305 4.44995 29.5412 4.44995C30.0341 4.44995 30.4859 4.49044 30.8555 4.57143C31.2252 4.65242 31.5949 4.77389 31.9645 4.89537L32.1699 7.08205L32.0467 7.12253C31.8824 6.75809 31.7181 6.43415 31.5538 6.15069C31.3895 5.86724 31.1841 5.58377 30.9788 5.3813C30.7734 5.17883 30.527 4.97636 30.2805 4.89537C30.0341 4.77389 29.7466 4.73341 29.3769 4.73341C29.1716 4.73341 28.9662 4.7739 28.7608 4.85489C28.5555 4.93588 28.3912 5.01686 28.2269 5.17883C28.0626 5.30032 27.9394 5.50278 27.8572 5.70525C27.7751 5.90772 27.734 6.15068 27.734 6.43413C27.734 6.87956 27.8572 7.16304 28.1037 7.36551C28.3501 7.56798 28.6787 7.68946 29.0483 7.77045C29.2948 7.81094 29.5823 7.89193 29.9109 7.97292C30.2395 8.0539 30.4859 8.0944 30.7323 8.17538C31.2663 8.29687 31.7181 8.58032 32.0877 8.98526C32.4574 9.3902 32.6627 9.9166 32.6627 10.4835C32.6627 10.9694 32.5806 11.3744 32.4163 11.6983Z" fill="black" fill-opacity="0.2"/>
<path d="M2.63825 17.084C2.63825 17.5699 2.22752 17.9748 1.73465 17.9748C1.24178 17.9748 0.831055 17.5699 0.831055 17.084C0.831055 16.598 1.24178 16.1931 1.73465 16.1931C2.22752 16.1526 2.63825 16.5575 2.63825 17.084Z" fill="#7F7F7F"/>
<path d="M2.63825 17.084C2.63825 17.5699 2.22752 17.9748 1.73465 17.9748C1.24178 17.9748 0.831055 17.5699 0.831055 17.084C0.831055 16.598 1.24178 16.1931 1.73465 16.1931C2.22752 16.1526 2.63825 16.5575 2.63825 17.084Z" fill="black" fill-opacity="0.2"/>
<path d="M8.55281 17.084C8.55281 17.5699 8.14208 17.9748 7.64921 17.9748C7.15633 17.9748 6.74561 17.5699 6.74561 17.084C6.74561 16.598 7.15633 16.1931 7.64921 16.1931C8.14208 16.1526 8.55281 16.5575 8.55281 17.084Z" fill="#7F7F7F"/>
<path d="M8.55281 17.084C8.55281 17.5699 8.14208 17.9748 7.64921 17.9748C7.15633 17.9748 6.74561 17.5699 6.74561 17.084C6.74561 16.598 7.15633 16.1931 7.64921 16.1931C8.14208 16.1526 8.55281 16.5575 8.55281 17.084Z" fill="black" fill-opacity="0.2"/>
<path d="M14.4669 17.084C14.4669 17.5699 14.0561 17.9748 13.5633 17.9748C13.0704 17.9748 12.6597 17.5699 12.6597 17.084C12.6597 16.598 13.0704 16.1931 13.5633 16.1931C14.0561 16.1526 14.4669 16.5575 14.4669 17.084Z" fill="#7F7F7F"/>
<path d="M14.4669 17.084C14.4669 17.5699 14.0561 17.9748 13.5633 17.9748C13.0704 17.9748 12.6597 17.5699 12.6597 17.084C12.6597 16.598 13.0704 16.1931 13.5633 16.1931C14.0561 16.1526 14.4669 16.5575 14.4669 17.084Z" fill="black" fill-opacity="0.2"/>
<path d="M20.3814 17.084C20.3814 17.5699 19.9707 17.9748 19.4778 17.9748C18.9849 17.9748 18.5742 17.5699 18.5742 17.084C18.5742 16.598 18.9849 16.1931 19.4778 16.1931C19.9707 16.1526 20.3814 16.5575 20.3814 17.084Z" fill="#7F7F7F"/>
<path d="M20.3814 17.084C20.3814 17.5699 19.9707 17.9748 19.4778 17.9748C18.9849 17.9748 18.5742 17.5699 18.5742 17.084C18.5742 16.598 18.9849 16.1931 19.4778 16.1931C19.9707 16.1526 20.3814 16.5575 20.3814 17.084Z" fill="black" fill-opacity="0.2"/>
<path d="M26.296 17.084C26.296 17.5699 25.8852 17.9748 25.3924 17.9748C24.8995 17.9748 24.4888 17.5699 24.4888 17.084C24.4888 16.598 24.8995 16.1931 25.3924 16.1931C25.8852 16.1526 26.296 16.5575 26.296 17.084Z" fill="#7F7F7F"/>
<path d="M26.296 17.084C26.296 17.5699 25.8852 17.9748 25.3924 17.9748C24.8995 17.9748 24.4888 17.5699 24.4888 17.084C24.4888 16.598 24.8995 16.1931 25.3924 16.1931C25.8852 16.1526 26.296 16.5575 26.296 17.084Z" fill="black" fill-opacity="0.2"/>
<path d="M32.1695 17.084C32.1695 17.5699 31.7588 17.9748 31.2659 17.9748C30.773 17.9748 30.3623 17.5699 30.3623 17.084C30.3623 16.598 30.773 16.1931 31.2659 16.1931C31.7588 16.1526 32.1695 16.5575 32.1695 17.084Z" fill="#7F7F7F"/>
<path d="M32.1695 17.084C32.1695 17.5699 31.7588 17.9748 31.2659 17.9748C30.773 17.9748 30.3623 17.5699 30.3623 17.084C30.3623 16.598 30.773 16.1931 31.2659 16.1931C31.7588 16.1526 32.1695 16.5575 32.1695 17.084Z" fill="black" fill-opacity="0.2"/>
<path d="M38.084 17.084C38.084 17.5699 37.6733 17.9748 37.1805 17.9748C36.6876 17.9748 36.2769 17.5699 36.2769 17.084C36.2769 16.598 36.6876 16.1931 37.1805 16.1931C37.6733 16.1526 38.084 16.5575 38.084 17.084Z" fill="#7F7F7F"/>
<path d="M38.084 17.084C38.084 17.5699 37.6733 17.9748 37.1805 17.9748C36.6876 17.9748 36.2769 17.5699 36.2769 17.084C36.2769 16.598 36.6876 16.1931 37.1805 16.1931C37.6733 16.1526 38.084 16.5575 38.084 17.084Z" fill="black" fill-opacity="0.2"/>
<path d="M49.9132 17.084C49.9132 17.5699 49.5024 17.9748 49.0096 17.9748C48.5167 17.9748 48.106 17.5699 48.106 17.084C48.106 16.598 48.5167 16.1931 49.0096 16.1931C49.5024 16.1526 49.9132 16.5575 49.9132 17.084Z" fill="#7F7F7F"/>
<path d="M49.9132 17.084C49.9132 17.5699 49.5024 17.9748 49.0096 17.9748C48.5167 17.9748 48.106 17.5699 48.106 17.084C48.106 16.598 48.5167 16.1931 49.0096 16.1931C49.5024 16.1526 49.9132 16.5575 49.9132 17.084Z" fill="black" fill-opacity="0.2"/>
<path d="M43.9986 17.084C43.9986 17.5699 43.5879 17.9748 43.095 17.9748C42.6021 17.9748 42.1914 17.5699 42.1914 17.084C42.1914 16.598 42.6021 16.1931 43.095 16.1931C43.5879 16.1526 43.9986 16.5575 43.9986 17.084Z" fill="#7F7F7F"/>
<path d="M43.9986 17.084C43.9986 17.5699 43.5879 17.9748 43.095 17.9748C42.6021 17.9748 42.1914 17.5699 42.1914 17.084C42.1914 16.598 42.6021 16.1931 43.095 16.1931C43.5879 16.1526 43.9986 16.5575 43.9986 17.084Z" fill="black" fill-opacity="0.2"/>
</svg>
