<?xml version="1.0" encoding="UTF-8"?> <svg xmlns="http://www.w3.org/2000/svg" width="106" height="55" viewBox="0 0 106 55" fill="none"><g clip-path="url(#clip0_2314_21945)"><path d="M68.4244 32.4283C66.5688 32.4283 64.9452 31.809 63.7081 30.4931C62.4711 29.2546 61.8525 27.6291 61.8525 25.7714C61.8525 23.8362 62.4711 22.2881 63.7081 21.0496C64.9452 19.7337 66.4915 19.1145 68.4244 19.1145C70.3573 19.1145 71.9036 19.8112 73.0633 21.2045L71.9036 22.3655C70.9758 21.2819 69.8161 20.74 68.4244 20.74C67.0327 20.74 65.873 21.2045 64.8679 22.1333C63.9401 23.0622 63.4762 24.3007 63.4762 25.7714C63.4762 27.2421 63.9401 28.4806 64.8679 29.4094C65.7956 30.3383 67.0327 30.8027 68.4244 30.8027C69.8934 30.8027 71.2078 30.1835 72.2902 28.945L73.4499 30.1061C72.8314 30.8027 72.1355 31.422 71.2077 31.809C70.28 32.196 69.4295 32.4283 68.4244 32.4283Z" fill="#5F6368"></path><path d="M76.4654 19.4241V32.196H74.8418V19.4241H76.4654Z" fill="#5F6368"></path><path d="M77.8564 27.7839C77.8564 26.468 78.243 25.3069 79.0935 24.4554C79.944 23.604 81.0264 23.1395 82.3408 23.1395C83.6551 23.1395 84.7376 23.604 85.5107 24.4554C86.3612 25.3069 86.8251 26.468 86.8251 27.7839C86.8251 29.0998 86.3612 30.2608 85.5107 31.1123C84.6602 31.9638 83.5778 32.4282 82.3408 32.4282C81.0264 32.4282 79.944 31.9638 79.0935 31.1123C78.243 30.2608 77.8564 29.1772 77.8564 27.7839ZM79.4801 27.7839C79.4801 28.7127 79.7893 29.4868 80.3306 30.0286C80.8718 30.6479 81.5676 30.8801 82.3408 30.8801C83.1139 30.8801 83.8098 30.5705 84.351 30.0286C84.8922 29.4094 85.2015 28.7127 85.2015 27.7839C85.2015 26.855 84.8922 26.0809 84.351 25.5391C83.8098 24.9199 83.1139 24.6102 82.3408 24.6102C81.5676 24.6102 80.8718 24.9199 80.3306 25.5391C79.7893 26.1583 79.4801 26.855 79.4801 27.7839Z" fill="#5F6368"></path><path d="M95.8712 32.1962H94.3249V30.9577H94.2476C94.0157 31.4221 93.6291 31.7317 93.0879 32.0413C92.5467 32.351 92.0054 32.5058 91.4642 32.5058C90.3818 32.5058 89.6086 32.1962 88.9901 31.5769C88.4489 30.9577 88.1396 30.1062 88.1396 28.9451V23.4493H89.7633V28.7903C89.7633 30.1836 90.5364 30.9577 91.9281 30.9577C92.5467 30.9577 93.0879 30.7255 93.5518 30.1836C94.0157 29.6418 94.2476 29.0225 94.2476 28.3259V23.4493H95.8712V32.1962Z" fill="#5F6368"></path><path d="M101.361 32.4282C100.201 32.4282 99.2731 31.9638 98.4226 31.1123C97.6494 30.1834 97.1855 29.0998 97.1855 27.7839C97.1855 26.468 97.5721 25.3843 98.4226 24.4554C99.2731 23.5266 100.201 23.1395 101.361 23.1395C101.979 23.1395 102.598 23.2943 103.139 23.5266C103.68 23.8362 104.067 24.1458 104.376 24.6102H104.453L104.376 23.4492V19.4241H106V32.196H104.453V30.9575H104.376C104.067 31.4219 103.68 31.809 103.139 32.0412C102.598 32.2734 102.056 32.4282 101.361 32.4282ZM101.67 30.9575C102.443 30.9575 103.139 30.6479 103.68 30.106C104.221 29.4868 104.453 28.7901 104.453 27.8613C104.453 26.9324 104.221 26.1584 103.68 25.6165C103.139 24.9973 102.52 24.6876 101.67 24.6876C100.897 24.6876 100.201 24.9973 99.6596 25.6165C99.1184 26.2358 98.8865 26.9324 98.8865 27.8613C98.8865 28.7901 99.1184 29.5642 99.6596 30.106C100.201 30.6479 100.897 30.9575 101.67 30.9575Z" fill="#5F6368"></path><path d="M7.26769 32.4283C3.32458 32.4283 0 29.1773 0 25.2296C0 21.2819 3.32458 18.0309 7.26769 18.0309C9.43253 18.0309 11.0562 18.8823 12.2159 20.0434L10.8242 21.4367C9.97374 20.6627 8.814 20.0434 7.26769 20.0434C4.407 20.0434 2.08753 22.3656 2.08753 25.307C2.08753 28.171 4.32969 30.5706 7.26769 30.5706C9.12327 30.5706 10.2057 29.7965 10.9015 29.0999C11.4427 28.558 11.8293 27.7066 11.984 26.6229H7.26769V24.6104H13.9168C13.9942 24.9974 13.9942 25.3844 13.9942 25.8488C13.9942 27.3195 13.6076 29.1773 12.2932 30.4158C11.0562 31.7317 9.43253 32.4283 7.26769 32.4283Z" fill="#4285F4"></path><path d="M23.9683 27.7841C23.9683 30.4933 21.8808 32.4284 19.3294 32.4284C16.778 32.4284 14.6904 30.4933 14.6904 27.7841C14.6904 25.0749 16.778 23.1398 19.3294 23.1398C21.8808 23.1398 23.9683 25.1523 23.9683 27.7841ZM21.9581 27.7841C21.9581 26.0812 20.7211 24.9975 19.3294 24.9975C17.9377 24.9975 16.7006 26.1586 16.7006 27.7841C16.7006 29.4096 17.9377 30.5707 19.3294 30.5707C20.7211 30.6481 21.9581 29.487 21.9581 27.7841Z" fill="#EA4335"></path><path d="M34.0963 27.7841C34.0963 30.4933 32.0087 32.4284 29.4573 32.4284C26.9059 32.4284 24.8184 30.4933 24.8184 27.7841C24.8184 25.0749 26.9059 23.1398 29.4573 23.1398C32.0087 23.1398 34.0963 25.1523 34.0963 27.7841ZM32.086 27.7841C32.086 26.0812 30.849 24.9975 29.4573 24.9975C28.0656 24.9975 26.8286 26.1586 26.8286 27.7841C26.8286 29.4096 28.0656 30.5707 29.4573 30.5707C30.849 30.5707 32.086 29.487 32.086 27.7841Z" fill="#FBBC04"></path><path d="M43.7614 23.4494V31.8092C43.7614 35.215 41.7512 36.6083 39.3544 36.6083C37.1123 36.6083 35.7206 35.0602 35.2567 33.8991L37.035 33.1251C37.3442 33.8991 38.1174 34.7506 39.3544 34.7506C40.9008 34.7506 41.8285 33.8217 41.8285 32.0414V31.3448H41.7512C41.2873 31.8866 40.4369 32.4284 39.2771 32.4284C36.9576 32.4284 34.8701 30.4159 34.8701 27.7841C34.8701 25.1523 36.9576 23.1398 39.2771 23.1398C40.3595 23.1398 41.2873 23.6042 41.7512 24.146H41.8285V23.4494H43.7614ZM41.9832 27.7841C41.9832 26.1586 40.9008 24.9201 39.5091 24.9201C38.1174 24.9201 36.9576 26.0812 36.9576 27.7841C36.9576 29.4096 38.1174 30.5707 39.5091 30.5707C40.9008 30.6481 41.9832 29.4096 41.9832 27.7841Z" fill="#4285F4"></path><path d="M47.2397 18.4954V32.1187H45.2295V18.4954H47.2397Z" fill="#34A853"></path><path d="M55.1262 29.3321L56.6725 30.4158C56.1313 31.1898 54.9716 32.5057 52.8068 32.5057C50.178 32.5057 48.2451 30.4932 48.2451 27.8614C48.2451 25.0748 50.2553 23.217 52.5748 23.217C54.9716 23.217 56.1313 25.1522 56.5179 26.1585L56.7499 26.7003L50.5646 29.2547C51.0285 30.1835 51.8016 30.648 52.8068 30.648C53.8892 30.648 54.6623 30.1061 55.1262 29.3321ZM50.3326 27.6292L54.5077 25.9262C54.2757 25.3844 53.5799 24.92 52.8068 24.92C51.7243 24.92 50.2553 25.8488 50.3326 27.6292Z" fill="#EA4335"></path></g><defs><clipPath id="clip0_2314_21945"><rect width="106" height="18.5773" fill="white" transform="translate(0 18.0309)"></rect></clipPath></defs></svg> 