<?xml version="1.0" encoding="UTF-8"?> <svg xmlns="http://www.w3.org/2000/svg" width="106" height="55" viewBox="0 0 106 55" fill="none"><path d="M45.0191 28.9045L48.7993 39.1016H46.881L45.9895 36.5667H42.04L41.1824 39.1016H39.2754L43.0556 28.9045H45.0191V28.9045ZM43.9809 30.7857L42.5027 35.0756H45.5043L44.0373 30.7857H43.9809Z" fill="#737373"></path><path d="M49.6453 31.7836H55.3889V32.4718L51.62 37.7252H55.4115V39.0901H49.3857V38.2757L53.0983 33.1485H49.6453V31.7836Z" fill="#737373"></path><path d="M62.6118 31.7836V39.0901H60.9079V38.1266H60.8853C60.6596 38.4593 60.3437 38.7346 59.9826 38.9066C59.5876 39.1016 59.1588 39.1934 58.7187 39.1819C57.8837 39.1819 57.2518 38.941 56.8117 38.4593C56.3716 37.9775 56.1572 37.232 56.1572 36.2226V31.7836H57.8724V36.0161C57.8724 36.6355 57.9965 37.0943 58.2335 37.404C58.4705 37.7137 58.8316 37.8743 59.3168 37.8743C59.7569 37.8858 60.1857 37.7022 60.4678 37.3581C60.7612 37.014 60.8966 36.5667 60.8966 36.0161V31.7836H62.6118V31.7836Z" fill="#737373"></path><path d="M67.7005 31.6689C67.8246 31.6689 67.9487 31.6803 68.0616 31.6918C68.1519 31.7033 68.2421 31.7262 68.3324 31.7606V33.5041C68.2083 33.4238 68.0841 33.355 67.9487 33.3206C67.7456 33.2518 67.5425 33.2288 67.3281 33.2288C66.9106 33.2288 66.5269 33.4238 66.2787 33.7565C65.9966 34.112 65.8499 34.6626 65.8499 35.3967V39.0901H64.1572V31.7836H65.8499V32.9306H65.8724C66.0078 32.5521 66.2561 32.2309 66.5721 32.0015C66.9106 31.7721 67.3055 31.6574 67.7005 31.6689Z" fill="#737373"></path><path d="M74.4261 37.2549V38.6658C74.0875 38.8722 73.7152 39.0213 73.3315 39.1016C72.8576 39.2163 72.3723 39.2737 71.8871 39.2737C70.7925 39.2737 69.9349 38.941 69.3369 38.2872C68.7275 37.6334 68.4229 36.7158 68.4229 35.5344C68.4229 34.3988 68.7501 33.4697 69.3933 32.7356C70.0139 32.013 70.9167 31.6115 71.8645 31.6345C72.8576 31.6345 73.6249 31.9442 74.1778 32.5636C74.7307 33.183 75.0016 34.0318 75.0016 35.1214V35.9588H70.0816C70.1606 36.6929 70.3863 37.209 70.7813 37.4958C71.1762 37.7826 71.6727 37.9317 72.2934 37.9317C72.6883 37.9317 73.0832 37.8743 73.4556 37.7481C73.7942 37.6334 74.1327 37.4614 74.4261 37.2549ZM73.3428 34.697C73.3428 34.1235 73.2187 33.6991 72.9591 33.4009C72.6996 33.1027 72.3385 32.9536 71.8645 32.9536C71.4583 32.9536 71.0634 33.1141 70.77 33.4009C70.454 33.6991 70.2283 34.135 70.1268 34.7085L73.3428 34.697Z" fill="#737373"></path><path d="M50.7285 14.8879V25.085H48.9907V17.0902H48.9681L45.8537 25.085H44.7027L41.5093 17.0902H41.4867V25.085H39.873V14.8879H42.3669L45.2443 22.4468H45.2895L48.3362 14.8879H50.7285V14.8879ZM52.1842 15.6679C52.1842 15.3926 52.2857 15.1402 52.4888 14.9567C52.6807 14.7732 52.9402 14.67 53.211 14.67C53.4818 14.6585 53.7527 14.7732 53.9558 14.9682C54.1476 15.1517 54.2492 15.4041 54.2492 15.6793C54.2492 15.9432 54.1476 16.207 53.9445 16.379C53.7414 16.5626 53.4818 16.6658 53.211 16.6658C52.9402 16.6773 52.6807 16.574 52.4775 16.379C52.297 16.184 52.1842 15.9317 52.1842 15.6679ZM54.0573 17.7784V25.085H52.3647V17.7784H54.0573ZM59.1917 23.8347C59.4738 23.8232 59.7559 23.7659 60.0267 23.6627C60.3314 23.5479 60.6135 23.3874 60.8617 23.1924V24.7867C60.5683 24.9473 60.2637 25.0735 59.9477 25.1423C59.5753 25.2226 59.203 25.2685 58.8193 25.2685C57.7586 25.2685 56.901 24.9244 56.2352 24.2476C55.5694 23.5709 55.2422 22.6991 55.2422 21.6439C55.2422 20.4739 55.5807 19.4989 56.2578 18.7419C56.9348 17.9849 57.894 17.6063 59.1352 17.6063C59.4625 17.6063 59.7785 17.6522 60.0944 17.7325C60.3652 17.7899 60.6248 17.8931 60.8617 18.0193V19.6481C60.6135 19.4645 60.3427 19.3154 60.0606 19.2007C59.7897 19.0975 59.5076 19.0401 59.2255 19.0401C58.5598 19.0401 58.0181 19.2581 57.6119 19.7054C57.2056 20.1527 56.9912 20.7377 56.9912 21.4833C56.9912 22.2174 57.1831 22.8024 57.578 23.2153C57.973 23.6282 58.5146 23.8347 59.1917 23.8347ZM65.6801 17.6522C65.8042 17.6522 65.9284 17.6637 66.0412 17.6752C66.1315 17.6866 66.2218 17.7096 66.312 17.744V19.4875C66.1879 19.4072 66.0638 19.3384 65.9284 19.3039C65.7252 19.2351 65.5221 19.2122 65.3077 19.2122C64.8902 19.2122 64.5066 19.4072 64.2583 19.7398C63.9762 20.0954 63.8295 20.646 63.8295 21.3801V25.0735H62.1369V17.7669H63.8295V18.914H63.8521C63.9875 18.5354 64.2357 18.2143 64.5517 17.9849C64.8789 17.7555 65.2739 17.6408 65.6801 17.6522ZM66.4023 21.5292C66.4023 20.3248 66.7408 19.3613 67.4066 18.6616C68.0724 17.9505 69.009 17.6063 70.2051 17.6063C71.3335 17.6063 72.2024 17.9505 72.8343 18.6272C73.4662 19.3039 73.7822 20.2216 73.7822 21.3801C73.7822 22.5615 73.4437 23.5135 72.7779 24.2132C72.1121 24.9129 71.1981 25.2685 70.0358 25.2685C68.9187 25.2685 68.0385 24.9359 67.384 24.2706C66.7295 23.5938 66.4023 22.6877 66.4023 21.5292ZM68.1626 21.4718C68.1626 22.2403 68.3319 22.8139 68.6704 23.2153C69.009 23.6168 69.4942 23.8232 70.1374 23.8232C70.758 23.8232 71.2207 23.6168 71.5479 23.2153C71.8639 22.8139 72.0331 22.2174 72.0331 21.4259C72.0331 20.6345 71.8639 20.0495 71.5366 19.6481C71.1981 19.2466 70.7355 19.0516 70.1374 19.0516C69.5168 19.0516 69.0315 19.2581 68.693 19.6825C68.3319 20.0954 68.1626 20.7033 68.1626 21.4718ZM76.3099 19.6939C76.2986 19.9119 76.3776 20.1298 76.5356 20.2675C76.6935 20.4051 77.0321 20.5886 77.5511 20.7951C78.2282 21.0704 78.7021 21.3801 78.9729 21.7242C79.2438 22.0798 79.3905 22.5156 79.3792 22.9744C79.4018 23.6168 79.1084 24.2362 78.6006 24.6262C78.0815 25.0391 77.3819 25.257 76.4904 25.257C76.1632 25.257 75.8246 25.2111 75.4974 25.1423C75.1814 25.085 74.8768 24.9932 74.5834 24.867V23.1809C74.8881 23.3988 75.2266 23.5709 75.5764 23.6971C75.8811 23.8118 76.2083 23.8806 76.5468 23.8921C76.9305 23.8921 77.2126 23.8347 77.3932 23.7315C77.5737 23.6168 77.6865 23.3988 77.664 23.1809C77.664 22.9515 77.5624 22.7221 77.3819 22.5844C77.19 22.4239 76.8402 22.2289 76.3099 22.0224C75.6892 21.7586 75.2379 21.4604 74.9783 21.1277C74.7075 20.7607 74.5721 20.3133 74.5834 19.866C74.5721 19.2351 74.8542 18.6272 75.3507 18.2372C75.8698 17.8128 76.5356 17.6063 77.3593 17.6063C77.6414 17.6063 77.9235 17.6408 78.2056 17.6866C78.4764 17.7325 78.736 17.8013 78.9842 17.9046V19.5334C78.736 19.3728 78.4764 19.2351 78.2056 19.1434C77.9235 19.0401 77.6188 18.9828 77.3142 18.9828C77.0546 18.9713 76.7838 19.0287 76.5581 19.1778C76.4001 19.281 76.2986 19.476 76.3099 19.6939ZM80.1127 21.5292C80.1127 20.3248 80.4512 19.3613 81.117 18.6616C81.7827 17.9505 82.7193 17.6063 83.9155 17.6063C85.0439 17.6063 85.9128 17.9505 86.5447 18.6272C87.1766 19.3039 87.4926 20.2216 87.4926 21.3801C87.4926 22.5615 87.154 23.5135 86.4883 24.2132C85.8225 24.9129 84.9085 25.2685 83.7462 25.2685C82.629 25.2685 81.7489 24.9359 81.0944 24.2706C80.4399 23.5938 80.1127 22.6877 80.1127 21.5292ZM81.8843 21.4718C81.8843 22.2403 82.0536 22.8139 82.3921 23.2153C82.7306 23.6168 83.2158 23.8232 83.859 23.8232C84.4797 23.8232 84.9423 23.6168 85.2696 23.2153C85.5855 22.8139 85.7548 22.2174 85.7548 21.4259C85.7548 20.6345 85.5855 20.0495 85.2583 19.6481C84.9197 19.2466 84.4571 19.0516 83.859 19.0516C83.2384 19.0516 82.7532 19.2581 82.4146 19.6825C82.0535 20.0954 81.873 20.7033 81.8843 21.4718ZM93.1121 19.1778H90.5957V25.0735H88.8805V19.1778H87.6731V17.7669H88.8805V16.7461C88.8805 15.9776 89.1288 15.3467 89.614 14.8535C90.1105 14.3603 90.7311 14.1194 91.5097 14.1194C91.6903 14.1194 91.8708 14.1309 92.0514 14.1538C92.1981 14.1767 92.3335 14.1997 92.4689 14.2456V15.7367C92.3786 15.6908 92.2771 15.6449 92.1755 15.6105C92.0175 15.5646 91.8596 15.5417 91.6903 15.5417C91.3856 15.5188 91.0809 15.6449 90.8665 15.8743C90.6747 16.1037 90.5844 16.4364 90.5844 16.8722V17.7555H93.1008V16.1152L94.8047 15.5876V17.7555H96.5199V19.1663H94.816V22.5844C94.816 23.0318 94.895 23.353 95.053 23.5365C95.211 23.72 95.4705 23.8118 95.809 23.8118C95.9332 23.8118 96.046 23.7888 96.1589 23.7429C96.283 23.6971 96.4071 23.6397 96.5199 23.5709V24.9932C96.3507 25.0735 96.1701 25.1308 95.9896 25.1653C95.7413 25.2111 95.5044 25.2455 95.2561 25.2455C94.5452 25.2455 94.0036 25.0506 93.6538 24.672C93.2927 24.282 93.1234 23.7085 93.1234 22.9286L93.1121 19.1778Z" fill="#737373"></path><path d="M20.239 14.8879H8.9209V26.3926H20.239V14.8879Z" fill="#F25022"></path><path d="M32.7419 14.8879H21.4238V26.3926H32.7419V14.8879Z" fill="#7FBA00"></path><path d="M20.239 27.5854H8.9209V39.0901H20.239V27.5854Z" fill="#00A4EF"></path><path d="M32.7419 27.5854H21.4238V39.0901H32.7419V27.5854Z" fill="#FFB900"></path><path d="M20.239 14.8879H8.9209V26.3926H20.239V14.8879Z" fill="#F25022"></path><path d="M32.7419 14.8879H21.4238V26.3926H32.7419V14.8879Z" fill="#7FBA00"></path><path d="M20.239 27.5854H8.9209V39.0901H20.239V27.5854Z" fill="#00A4EF"></path><path d="M32.7419 27.5854H21.4238V39.0901H32.7419V27.5854Z" fill="#FFB900"></path></svg> 