<svg width="202" height="32" viewBox="0 0 202 32" fill="none" xmlns="http://www.w3.org/2000/svg">
<g clip-path="url(#clip0_2_1144)">
<path d="M57.2601 27.2423V1.81223H53.3522V11.3273C53.3522 11.4689 53.2672 11.5821 53.1256 11.6388C52.984 11.6954 52.8424 11.6388 52.7575 11.5538C51.4265 9.9963 49.3593 9.11842 47.0938 9.11842C42.2513 9.11842 38.4566 13.1963 38.4566 18.4069C38.4566 20.9556 39.3345 23.306 40.9486 25.0335C42.5628 26.7609 44.7433 27.6954 47.0938 27.6954C49.3309 27.6954 51.3982 26.7609 52.7575 25.1467C52.8424 25.0335 53.0124 25.0051 53.1256 25.0335C53.2672 25.0901 53.3522 25.2034 53.3522 25.345V27.2423H57.2601ZM47.9433 24.1556C44.8283 24.1556 42.3929 21.6352 42.3929 18.4069C42.3929 15.1786 44.8283 12.6582 47.9433 12.6582C51.0584 12.6582 53.4938 15.1786 53.4938 18.4069C53.4938 21.6352 51.0584 24.1556 47.9433 24.1556Z" fill="#F2F2F2"/>
<path d="M78.1593 27.2424V9.54325H74.2796V11.3273C74.2796 11.4689 74.1947 11.5822 74.0531 11.6388C73.9115 11.6955 73.7699 11.6388 73.6849 11.5255C72.3823 9.96803 70.3433 9.09015 68.0212 9.09015C63.1787 9.09015 59.384 13.168 59.384 18.3786C59.384 23.5893 63.1787 27.6671 68.0212 27.6671C70.2584 27.6671 72.3256 26.7326 73.6849 25.0901C73.7699 24.9769 73.9398 24.9486 74.0531 24.9769C74.1947 25.0335 74.2796 25.1468 74.2796 25.2884V27.214H78.1593V27.2424ZM68.8991 24.1556C65.784 24.1556 63.3486 21.6353 63.3486 18.407C63.3486 15.1786 65.784 12.6583 68.8991 12.6583C72.0141 12.6583 74.4495 15.1786 74.4495 18.407C74.4495 21.6353 72.0141 24.1556 68.8991 24.1556Z" fill="#F2F2F2"/>
<path d="M111.377 27.2424V9.54325H107.497V11.3273C107.497 11.4689 107.412 11.5822 107.271 11.6388C107.129 11.6955 106.988 11.6388 106.903 11.5255C105.6 9.96803 103.561 9.09015 101.239 9.09015C96.3682 9.09015 92.6018 13.168 92.6018 18.407C92.6018 23.6459 96.3965 27.6955 101.239 27.6955C103.476 27.6955 105.543 26.7609 106.903 25.1185C106.988 25.0052 107.158 24.9769 107.271 25.0052C107.412 25.0618 107.497 25.1751 107.497 25.3167V27.2424H111.377ZM102.117 24.1556C99.0018 24.1556 96.5664 21.6353 96.5664 18.407C96.5664 15.1786 99.0018 12.6583 102.117 12.6583C105.232 12.6583 107.667 15.1786 107.667 18.407C107.667 21.6353 105.232 24.1556 102.117 24.1556Z" fill="#F2F2F2"/>
<path d="M118.485 25.1467C118.513 25.1467 118.57 25.1184 118.598 25.1184C118.683 25.1184 118.796 25.1751 118.853 25.2317C120.184 26.7892 122.251 27.6671 124.517 27.6671C129.359 27.6671 133.154 23.5892 133.154 18.3786C133.154 15.8299 132.276 13.4795 130.662 11.752C129.048 10.0246 126.867 9.0901 124.517 9.0901C122.28 9.0901 120.212 10.0246 118.853 11.6388C118.768 11.752 118.627 11.7804 118.485 11.752C118.343 11.6954 118.258 11.5821 118.258 11.4405V1.81223H114.35V27.2423H118.258V25.4582C118.258 25.3167 118.343 25.2034 118.485 25.1467ZM118.088 18.4069C118.088 15.1786 120.524 12.6582 123.639 12.6582C126.754 12.6582 129.189 15.1786 129.189 18.4069C129.189 21.6352 126.754 24.1556 123.639 24.1556C120.524 24.1556 118.088 21.6069 118.088 18.4069Z" fill="#F2F2F2"/>
<path d="M144.453 13.168C144.821 13.168 145.161 13.1963 145.388 13.2529V9.2317C145.246 9.20338 144.991 9.17506 144.736 9.17506C142.697 9.17506 140.828 10.2229 139.837 11.8936C139.752 12.0352 139.611 12.0919 139.469 12.0352C139.327 12.0069 139.214 11.8653 139.214 11.7237V9.54321H135.335V27.2706H139.243V19.4547C139.243 15.5751 141.225 13.168 144.453 13.168Z" fill="#F2F2F2"/>
<path d="M151.816 9.54314H147.851V27.2706H151.816V9.54314Z" fill="#F2F2F2"/>
<path d="M149.777 1.84044C148.446 1.84044 147.37 2.91655 147.37 4.24752C147.37 5.57849 148.446 6.6546 149.777 6.6546C151.108 6.6546 152.184 5.57849 152.184 4.24752C152.184 2.91655 151.108 1.84044 149.777 1.84044Z" fill="#F2F2F2"/>
<path d="M163.427 9.09015C157.989 9.09015 154.053 12.9981 154.053 18.407C154.053 21.0406 154.988 23.391 156.658 25.0901C158.358 26.7893 160.736 27.7238 163.398 27.7238C165.607 27.7238 167.306 27.299 170.535 24.9202L168.297 22.5698C166.711 23.6176 165.239 24.1273 163.795 24.1273C160.51 24.1273 158.046 21.6636 158.046 18.407C158.046 15.1503 160.51 12.6866 163.795 12.6866C165.352 12.6866 166.796 13.1963 168.241 14.2441L170.733 11.8937C167.816 9.40165 165.182 9.09015 163.427 9.09015Z" fill="#F2F2F2"/>
<path d="M177.416 19.4546C177.472 19.398 177.557 19.3696 177.642 19.3696H177.671C177.756 19.3696 177.841 19.4263 177.926 19.4829L184.184 27.2422H188.998L180.899 17.444C180.786 17.3024 180.786 17.1042 180.927 16.9909L188.375 9.54309H183.589L177.161 15.9997C177.076 16.0847 176.934 16.113 176.793 16.0847C176.68 16.028 176.595 15.9148 176.595 15.7732V1.84044H172.658V27.2705H176.566V20.3608C176.566 20.2758 176.595 20.1626 176.68 20.1059L177.416 19.4546Z" fill="#F2F2F2"/>
<path d="M195.37 27.6953C198.57 27.6953 201.827 25.7413 201.827 22.0316C201.827 19.5962 200.297 17.9254 197.182 16.9059L195.058 16.198C193.614 15.7165 192.935 15.0369 192.935 14.1024C192.935 13.0263 193.897 12.29 195.257 12.29C196.559 12.29 197.72 13.1396 198.457 14.6121L201.6 12.913C200.439 10.5342 198.032 9.06168 195.257 9.06168C191.745 9.06168 189.196 11.3272 189.196 14.4139C189.196 16.8776 190.669 18.5201 193.699 19.4829L195.88 20.1909C197.409 20.6723 198.06 21.2953 198.06 22.2865C198.06 23.7873 196.673 24.3254 195.483 24.3254C193.897 24.3254 192.481 23.3059 191.802 21.6351L188.602 23.3342C189.65 26.0245 192.227 27.6953 195.37 27.6953Z" fill="#F2F2F2"/>
<path d="M89.0336 27.5255C90.2797 27.5255 91.3841 27.4122 92.0071 27.3273V23.929C91.4974 23.9857 90.5912 24.0423 90.0531 24.0423C88.4673 24.0423 87.2496 23.7591 87.2496 20.3326V13.0547C87.2496 12.8565 87.3912 12.7149 87.5894 12.7149H91.4124V9.51488H87.5894C87.3912 9.51488 87.2496 9.37329 87.2496 9.17506V4.07771H83.3416V9.20338C83.3416 9.40161 83.2 9.5432 83.0018 9.5432H80.2832V12.7432H83.0018C83.2 12.7432 83.3416 12.8848 83.3416 13.083V21.3237C83.3416 27.5255 87.4761 27.5255 89.0336 27.5255Z" fill="#F2F2F2"/>
<path d="M28.0071 13.1964L14.8106 20.6441L0.679646 12.6866L0 13.0548V18.8318L14.8106 27.1574L28.0071 19.7379V22.7964L14.8106 30.2441L0.679646 22.2866L0 22.6548V23.6459L14.8106 31.9716L29.5929 23.6459V17.8689L28.9133 17.5008L14.8106 25.43L1.58584 18.0105V14.9521L14.8106 22.3716L29.5929 14.0459V8.35388L28.8566 7.9291L14.8106 15.83L2.26549 8.80697L14.8106 1.75565L25.1186 7.56096L26.0248 7.05122V6.34326L14.8106 0.0282135L0 8.35388V9.26007L14.8106 17.5857L28.0071 10.1379V13.1964Z" fill="#FF3621"/>
</g>
<defs>
<clipPath id="clip0_2_1144">
<rect width="201.855" height="32" fill="white"/>
</clipPath>
</defs>
</svg>
